G04 #@! TF.GenerationSoftware,KiCad,Pcbnew,(5.1.0-9-gc61ec8ee3)*
G04 #@! TF.CreationDate,2019-03-28T20:20:23-04:00*
G04 #@! TF.ProjectId,MPG_PSoC,4d50475f-5053-46f4-932e-6b696361645f,rev?*
G04 #@! TF.SameCoordinates,Original*
G04 #@! TF.FileFunction,Legend,Top*
G04 #@! TF.FilePolarity,Positive*
%FSLAX46Y46*%
G04 Gerber Fmt 4.6, Leading zero omitted, Abs format (unit mm)*
G04 Created by KiCad (PCBNEW (5.1.0-9-gc61ec8ee3)) date 2019-03-28 20:20:23*
%MOMM*%
%LPD*%
G04 APERTURE LIST*
%ADD10C,0.150000*%
%ADD11C,0.127000*%
%ADD12C,0.300000*%
%ADD13C,0.120000*%
%ADD14C,0.304800*%
%ADD15R,5.102000X5.102000*%
%ADD16O,0.302000X1.102000*%
%ADD17O,1.102000X0.302000*%
%ADD18R,0.701440X2.100980*%
%ADD19C,6.452000*%
%ADD20R,0.802000X1.002000*%
%ADD21R,1.002000X0.802000*%
%ADD22R,1.302000X2.602000*%
%ADD23R,2.602000X1.302000*%
%ADD24R,1.052000X1.002000*%
%ADD25R,1.702000X1.702000*%
%ADD26C,1.702000*%
%ADD27R,2.299100X2.299100*%
%ADD28R,0.599840X2.299100*%
%ADD29C,1.001160*%
%ADD30R,3.912000X1.626000*%
%ADD31R,0.701440X1.102760*%
%ADD32C,1.602000*%
G04 APERTURE END LIST*
D10*
X128817619Y-81772095D02*
X128817619Y-81295904D01*
X128341428Y-81248285D01*
X128389047Y-81295904D01*
X128436666Y-81391142D01*
X128436666Y-81629238D01*
X128389047Y-81724476D01*
X128341428Y-81772095D01*
X128246190Y-81819714D01*
X128008095Y-81819714D01*
X127912857Y-81772095D01*
X127865238Y-81724476D01*
X127817619Y-81629238D01*
X127817619Y-81391142D01*
X127865238Y-81295904D01*
X127912857Y-81248285D01*
X138231619Y-80454523D02*
X138231619Y-79883095D01*
X138231619Y-80168809D02*
X139231619Y-80168809D01*
X139088761Y-80073571D01*
X138993523Y-79978333D01*
X138945904Y-79883095D01*
X139231619Y-81073571D02*
X139231619Y-81168809D01*
X139184000Y-81264047D01*
X139136380Y-81311666D01*
X139041142Y-81359285D01*
X138850666Y-81406904D01*
X138612571Y-81406904D01*
X138422095Y-81359285D01*
X138326857Y-81311666D01*
X138279238Y-81264047D01*
X138231619Y-81168809D01*
X138231619Y-81073571D01*
X138279238Y-80978333D01*
X138326857Y-80930714D01*
X138422095Y-80883095D01*
X138612571Y-80835476D01*
X138850666Y-80835476D01*
X139041142Y-80883095D01*
X139136380Y-80930714D01*
X139184000Y-80978333D01*
X139231619Y-81073571D01*
X139739619Y-98869476D02*
X139739619Y-98679000D01*
X139692000Y-98583761D01*
X139644380Y-98536142D01*
X139501523Y-98440904D01*
X139311047Y-98393285D01*
X138930095Y-98393285D01*
X138834857Y-98440904D01*
X138787238Y-98488523D01*
X138739619Y-98583761D01*
X138739619Y-98774238D01*
X138787238Y-98869476D01*
X138834857Y-98917095D01*
X138930095Y-98964714D01*
X139168190Y-98964714D01*
X139263428Y-98917095D01*
X139311047Y-98869476D01*
X139358666Y-98774238D01*
X139358666Y-98583761D01*
X139311047Y-98488523D01*
X139263428Y-98440904D01*
X139168190Y-98393285D01*
X130484619Y-98837714D02*
X130484619Y-98266285D01*
X130484619Y-98552000D02*
X131484619Y-98552000D01*
X131341761Y-98456761D01*
X131246523Y-98361523D01*
X131198904Y-98266285D01*
X148527000Y-75267000D02*
X148927000Y-74867000D01*
X156127000Y-74867000D02*
X156527000Y-74867000D01*
X156527000Y-74867000D02*
X156527000Y-75267000D01*
X148927000Y-82867000D02*
X148527000Y-82867000D01*
X148527000Y-82867000D02*
X148527000Y-82467000D01*
X156127000Y-82867000D02*
X156527000Y-82867000D01*
X156527000Y-82867000D02*
X156527000Y-82467000D01*
D11*
X138938000Y-79070200D02*
X143764000Y-79070200D01*
X138938000Y-75107800D02*
X138938000Y-79070200D01*
X143764000Y-75107800D02*
X138938000Y-75107800D01*
X143764000Y-79070200D02*
X143764000Y-75107800D01*
X144151000Y-75189000D02*
X143651000Y-74689000D01*
X144151000Y-74689000D02*
X144151000Y-75189000D01*
X143651000Y-74689000D02*
X144151000Y-74689000D01*
X143751000Y-74689000D02*
X144151000Y-75089000D01*
X143851000Y-74689000D02*
X144151000Y-74989000D01*
X143951000Y-74689000D02*
X144151000Y-74889000D01*
X144051000Y-74689000D02*
X144151000Y-74789000D01*
X143451000Y-75789000D02*
G75*
G03X143451000Y-75789000I-400000J0D01*
G01*
X143351000Y-75789000D02*
G75*
G03X143351000Y-75789000I-300000J0D01*
G01*
X143251000Y-75789000D02*
G75*
G03X143251000Y-75789000I-200000J0D01*
G01*
D12*
X143151000Y-75789000D02*
G75*
G03X143151000Y-75789000I-100000J0D01*
G01*
D11*
X144450500Y-91376500D02*
X144450500Y-90233500D01*
X146863500Y-91376500D02*
X144450500Y-91376500D01*
X146863500Y-90233500D02*
X146863500Y-91376500D01*
X144450500Y-90233500D02*
X146863500Y-90233500D01*
X138366500Y-75743500D02*
X138366500Y-78156500D01*
X138366500Y-78156500D02*
X137223500Y-78156500D01*
X137223500Y-78156500D02*
X137223500Y-75743500D01*
X137223500Y-75743500D02*
X138366500Y-75743500D01*
D13*
X147534000Y-86912000D02*
X145534000Y-86912000D01*
X145534000Y-89872000D02*
X147534000Y-89872000D01*
X133775000Y-76748000D02*
X133775000Y-78748000D01*
X136735000Y-78748000D02*
X136735000Y-76748000D01*
D10*
X147282000Y-94187000D02*
X147282000Y-91487000D01*
X148882000Y-94187000D02*
X148882000Y-91487000D01*
X147282000Y-94187000D02*
X148882000Y-94187000D01*
X147282000Y-91487000D02*
X148882000Y-91487000D01*
X147282000Y-93587000D02*
X148882000Y-93587000D01*
X140366000Y-97789000D02*
X140366000Y-81789000D01*
X140288000Y-81789000D02*
X129366000Y-81789000D01*
X129366000Y-81789000D02*
X129366000Y-97789000D01*
X129366000Y-97789000D02*
X140335000Y-97790000D01*
X140366000Y-92389000D02*
X139166000Y-92389000D01*
X139166000Y-92389000D02*
X139166000Y-87189000D01*
X139166000Y-87189000D02*
X140366000Y-87189000D01*
D14*
X146596100Y-97830640D02*
X145493740Y-97830640D01*
X145493740Y-97830640D02*
X145493740Y-99331780D01*
X145493740Y-99331780D02*
X146596100Y-99331780D01*
X155496260Y-99334320D02*
X154393900Y-99334320D01*
X155496260Y-97833180D02*
X155496260Y-99334320D01*
X154393900Y-97833180D02*
X155496260Y-97833180D01*
X154393900Y-103334820D02*
X155496260Y-103334820D01*
X155496260Y-103334820D02*
X155496260Y-104835960D01*
X155496260Y-104835960D02*
X154393900Y-104835960D01*
X146596100Y-103334820D02*
X145493740Y-103334820D01*
X145493740Y-103334820D02*
X145493740Y-104835960D01*
X145493740Y-104835960D02*
X146596100Y-104835960D01*
X146596100Y-107236260D02*
X154393900Y-107236260D01*
X154393900Y-107236260D02*
X154393900Y-97233740D01*
X154393900Y-97233740D02*
X146596100Y-97233740D01*
X146596100Y-97233740D02*
X146596100Y-107236260D01*
D10*
X168656000Y-104013000D02*
X168656000Y-105029000D01*
X164465000Y-104013000D02*
X168656000Y-104013000D01*
X164465000Y-68580000D02*
X164465000Y-104013000D01*
X164973000Y-68072000D02*
X164465000Y-68580000D01*
X168910000Y-68072000D02*
X164973000Y-68072000D01*
X168910000Y-68072000D02*
X168910000Y-66929000D01*
D11*
X159029400Y-86042500D02*
X159029400Y-84645500D01*
X162026600Y-86042500D02*
X159029400Y-86042500D01*
X162026600Y-84645500D02*
X162026600Y-86042500D01*
X159029400Y-84645500D02*
X162026600Y-84645500D01*
X160528000Y-84645500D02*
X160528000Y-83985100D01*
X159575500Y-86042500D02*
X159575500Y-86702900D01*
X161480500Y-86042500D02*
X161480500Y-86702900D01*
X149669500Y-92799000D02*
X149669500Y-90259000D01*
X149669500Y-90259000D02*
X150812500Y-90259000D01*
X150812500Y-90259000D02*
X150812500Y-92799000D01*
X150812500Y-92799000D02*
X149669500Y-92799000D01*
X152336500Y-92799000D02*
X151193500Y-92799000D01*
X152336500Y-90259000D02*
X152336500Y-92799000D01*
X151193500Y-90259000D02*
X152336500Y-90259000D01*
X151193500Y-92799000D02*
X151193500Y-90259000D01*
X160490000Y-81216500D02*
X163030000Y-81216500D01*
X163030000Y-81216500D02*
X163030000Y-82359500D01*
X163030000Y-82359500D02*
X160490000Y-82359500D01*
X160490000Y-82359500D02*
X160490000Y-81216500D01*
D10*
X145070338Y-69850000D02*
G75*
G03X145070338Y-69850000I-925338J0D01*
G01*
X145070338Y-67310000D02*
G75*
G03X145070338Y-67310000I-925338J0D01*
G01*
X147610338Y-69850000D02*
G75*
G03X147610338Y-69850000I-925338J0D01*
G01*
X147610338Y-67310000D02*
G75*
G03X147610338Y-67310000I-925338J0D01*
G01*
X150150338Y-69850000D02*
G75*
G03X150150338Y-69850000I-925338J0D01*
G01*
X150150338Y-67310000D02*
G75*
G03X150150338Y-67310000I-925338J0D01*
G01*
X152690338Y-69850000D02*
G75*
G03X152690338Y-69850000I-925338J0D01*
G01*
X152690338Y-67310000D02*
G75*
G03X152690338Y-67310000I-925338J0D01*
G01*
X155230338Y-69850000D02*
G75*
G03X155230338Y-69850000I-925338J0D01*
G01*
X155230338Y-67310000D02*
G75*
G03X155230338Y-67310000I-925338J0D01*
G01*
D12*
X132356000Y-75662000D02*
G75*
G03X132356000Y-75662000I-100000J0D01*
G01*
D11*
X132456000Y-75662000D02*
G75*
G03X132456000Y-75662000I-200000J0D01*
G01*
X132556000Y-75662000D02*
G75*
G03X132556000Y-75662000I-300000J0D01*
G01*
X132656000Y-75662000D02*
G75*
G03X132656000Y-75662000I-400000J0D01*
G01*
X133256000Y-74562000D02*
X133356000Y-74662000D01*
X133156000Y-74562000D02*
X133356000Y-74762000D01*
X133056000Y-74562000D02*
X133356000Y-74862000D01*
X132956000Y-74562000D02*
X133356000Y-74962000D01*
X132856000Y-74562000D02*
X133356000Y-74562000D01*
X133356000Y-74562000D02*
X133356000Y-75062000D01*
X133356000Y-75062000D02*
X132856000Y-74562000D01*
X132969000Y-78943200D02*
X132969000Y-74980800D01*
X132969000Y-74980800D02*
X128143000Y-74980800D01*
X128143000Y-74980800D02*
X128143000Y-78943200D01*
X128143000Y-78943200D02*
X132969000Y-78943200D01*
D10*
X142530338Y-69850000D02*
G75*
G03X142530338Y-69850000I-925338J0D01*
G01*
X142530338Y-67310000D02*
G75*
G03X142530338Y-67310000I-925338J0D01*
G01*
D11*
X139636500Y-65849500D02*
X139636500Y-68262500D01*
X139636500Y-68262500D02*
X138493500Y-68262500D01*
X138493500Y-68262500D02*
X138493500Y-65849500D01*
X138493500Y-65849500D02*
X139636500Y-65849500D01*
X139636500Y-71158000D02*
X138493500Y-71158000D01*
X139636500Y-68618000D02*
X139636500Y-71158000D01*
X138493500Y-68618000D02*
X139636500Y-68618000D01*
X138493500Y-71158000D02*
X138493500Y-68618000D01*
X146520000Y-73723500D02*
X143980000Y-73723500D01*
X143980000Y-73723500D02*
X143980000Y-72580500D01*
X143980000Y-72580500D02*
X146520000Y-72580500D01*
X146520000Y-72580500D02*
X146520000Y-73723500D01*
D10*
X146467338Y-75057000D02*
G75*
G03X146467338Y-75057000I-925338J0D01*
G01*
X146467338Y-77597000D02*
G75*
G03X146467338Y-77597000I-925338J0D01*
G01*
X146467338Y-80137000D02*
G75*
G03X146467338Y-80137000I-925338J0D01*
G01*
D11*
X158462133Y-73722895D02*
X158462133Y-74380876D01*
X158496000Y-74458285D01*
X158529866Y-74496990D01*
X158597600Y-74535695D01*
X158733066Y-74535695D01*
X158800800Y-74496990D01*
X158834666Y-74458285D01*
X158868533Y-74380876D01*
X158868533Y-73722895D01*
X159139466Y-73722895D02*
X159579733Y-73722895D01*
X159342666Y-74032533D01*
X159444266Y-74032533D01*
X159512000Y-74071238D01*
X159545866Y-74109942D01*
X159579733Y-74187352D01*
X159579733Y-74380876D01*
X159545866Y-74458285D01*
X159512000Y-74496990D01*
X159444266Y-74535695D01*
X159241066Y-74535695D01*
X159173333Y-74496990D01*
X159139466Y-74458285D01*
X137634133Y-73341895D02*
X137634133Y-73999876D01*
X137668000Y-74077285D01*
X137701866Y-74115990D01*
X137769600Y-74154695D01*
X137905066Y-74154695D01*
X137972800Y-74115990D01*
X138006666Y-74077285D01*
X138040533Y-73999876D01*
X138040533Y-73341895D01*
X138751733Y-74154695D02*
X138345333Y-74154695D01*
X138548533Y-74154695D02*
X138548533Y-73341895D01*
X138480800Y-73458009D01*
X138413066Y-73535419D01*
X138345333Y-73574123D01*
X142756466Y-91095285D02*
X142722600Y-91133990D01*
X142621000Y-91172695D01*
X142553266Y-91172695D01*
X142451666Y-91133990D01*
X142383933Y-91056580D01*
X142350066Y-90979171D01*
X142316200Y-90824352D01*
X142316200Y-90708238D01*
X142350066Y-90553419D01*
X142383933Y-90476009D01*
X142451666Y-90398600D01*
X142553266Y-90359895D01*
X142621000Y-90359895D01*
X142722600Y-90398600D01*
X142756466Y-90437304D01*
X143433800Y-91172695D02*
X143027400Y-91172695D01*
X143230600Y-91172695D02*
X143230600Y-90359895D01*
X143162866Y-90476009D01*
X143095133Y-90553419D01*
X143027400Y-90592123D01*
X137803466Y-79284285D02*
X137769600Y-79322990D01*
X137668000Y-79361695D01*
X137600266Y-79361695D01*
X137498666Y-79322990D01*
X137430933Y-79245580D01*
X137397066Y-79168171D01*
X137363200Y-79013352D01*
X137363200Y-78897238D01*
X137397066Y-78742419D01*
X137430933Y-78665009D01*
X137498666Y-78587600D01*
X137600266Y-78548895D01*
X137668000Y-78548895D01*
X137769600Y-78587600D01*
X137803466Y-78626304D01*
X138413066Y-78819828D02*
X138413066Y-79361695D01*
X138243733Y-78510190D02*
X138074400Y-79090761D01*
X138514666Y-79090761D01*
X143010466Y-88809285D02*
X142976600Y-88847990D01*
X142875000Y-88886695D01*
X142807266Y-88886695D01*
X142705666Y-88847990D01*
X142637933Y-88770580D01*
X142604066Y-88693171D01*
X142570200Y-88538352D01*
X142570200Y-88422238D01*
X142604066Y-88267419D01*
X142637933Y-88190009D01*
X142705666Y-88112600D01*
X142807266Y-88073895D01*
X142875000Y-88073895D01*
X142976600Y-88112600D01*
X143010466Y-88151304D01*
X143416866Y-88422238D02*
X143349133Y-88383533D01*
X143315266Y-88344828D01*
X143281400Y-88267419D01*
X143281400Y-88228714D01*
X143315266Y-88151304D01*
X143349133Y-88112600D01*
X143416866Y-88073895D01*
X143552333Y-88073895D01*
X143620066Y-88112600D01*
X143653933Y-88151304D01*
X143687800Y-88228714D01*
X143687800Y-88267419D01*
X143653933Y-88344828D01*
X143620066Y-88383533D01*
X143552333Y-88422238D01*
X143416866Y-88422238D01*
X143349133Y-88460942D01*
X143315266Y-88499647D01*
X143281400Y-88577057D01*
X143281400Y-88731876D01*
X143315266Y-88809285D01*
X143349133Y-88847990D01*
X143416866Y-88886695D01*
X143552333Y-88886695D01*
X143620066Y-88847990D01*
X143653933Y-88809285D01*
X143687800Y-88731876D01*
X143687800Y-88577057D01*
X143653933Y-88499647D01*
X143620066Y-88460942D01*
X143552333Y-88422238D01*
X135051800Y-74712285D02*
X135017933Y-74750990D01*
X134916333Y-74789695D01*
X134848600Y-74789695D01*
X134747000Y-74750990D01*
X134679266Y-74673580D01*
X134645400Y-74596171D01*
X134611533Y-74441352D01*
X134611533Y-74325238D01*
X134645400Y-74170419D01*
X134679266Y-74093009D01*
X134747000Y-74015600D01*
X134848600Y-73976895D01*
X134916333Y-73976895D01*
X135017933Y-74015600D01*
X135051800Y-74054304D01*
X135729133Y-74789695D02*
X135322733Y-74789695D01*
X135525933Y-74789695D02*
X135525933Y-73976895D01*
X135458200Y-74093009D01*
X135390466Y-74170419D01*
X135322733Y-74209123D01*
X136169400Y-73976895D02*
X136237133Y-73976895D01*
X136304866Y-74015600D01*
X136338733Y-74054304D01*
X136372600Y-74131714D01*
X136406466Y-74286533D01*
X136406466Y-74480057D01*
X136372600Y-74634876D01*
X136338733Y-74712285D01*
X136304866Y-74750990D01*
X136237133Y-74789695D01*
X136169400Y-74789695D01*
X136101666Y-74750990D01*
X136067800Y-74712285D01*
X136033933Y-74634876D01*
X136000066Y-74480057D01*
X136000066Y-74286533D01*
X136033933Y-74131714D01*
X136067800Y-74054304D01*
X136101666Y-74015600D01*
X136169400Y-73976895D01*
X145779066Y-94601695D02*
X145779066Y-93788895D01*
X145948400Y-93788895D01*
X146050000Y-93827600D01*
X146117733Y-93905009D01*
X146151600Y-93982419D01*
X146185466Y-94137238D01*
X146185466Y-94253352D01*
X146151600Y-94408171D01*
X146117733Y-94485580D01*
X146050000Y-94562990D01*
X145948400Y-94601695D01*
X145779066Y-94601695D01*
X146862800Y-94601695D02*
X146456400Y-94601695D01*
X146659600Y-94601695D02*
X146659600Y-93788895D01*
X146591866Y-93905009D01*
X146524133Y-93982419D01*
X146456400Y-94021123D01*
X141367933Y-82739895D02*
X141367933Y-83320466D01*
X141334066Y-83436580D01*
X141266333Y-83513990D01*
X141164733Y-83552695D01*
X141097000Y-83552695D01*
X142079133Y-83552695D02*
X141672733Y-83552695D01*
X141875933Y-83552695D02*
X141875933Y-82739895D01*
X141808200Y-82856009D01*
X141740466Y-82933419D01*
X141672733Y-82972123D01*
X154829933Y-95820895D02*
X154829933Y-96401466D01*
X154796066Y-96517580D01*
X154728333Y-96594990D01*
X154626733Y-96633695D01*
X154559000Y-96633695D01*
X155134733Y-95898304D02*
X155168600Y-95859600D01*
X155236333Y-95820895D01*
X155405666Y-95820895D01*
X155473400Y-95859600D01*
X155507266Y-95898304D01*
X155541133Y-95975714D01*
X155541133Y-96053123D01*
X155507266Y-96169238D01*
X155100866Y-96633695D01*
X155541133Y-96633695D01*
X166513933Y-66864895D02*
X166513933Y-67445466D01*
X166480066Y-67561580D01*
X166412333Y-67638990D01*
X166310733Y-67677695D01*
X166243000Y-67677695D01*
X166784866Y-66864895D02*
X167225133Y-66864895D01*
X166988066Y-67174533D01*
X167089666Y-67174533D01*
X167157400Y-67213238D01*
X167191266Y-67251942D01*
X167225133Y-67329352D01*
X167225133Y-67522876D01*
X167191266Y-67600285D01*
X167157400Y-67638990D01*
X167089666Y-67677695D01*
X166886466Y-67677695D01*
X166818733Y-67638990D01*
X166784866Y-67600285D01*
X162238266Y-84011104D02*
X162170533Y-83972400D01*
X162102800Y-83894990D01*
X162001200Y-83778876D01*
X161933466Y-83740171D01*
X161865733Y-83740171D01*
X161899600Y-83933695D02*
X161831866Y-83894990D01*
X161764133Y-83817580D01*
X161730266Y-83662761D01*
X161730266Y-83391828D01*
X161764133Y-83237009D01*
X161831866Y-83159600D01*
X161899600Y-83120895D01*
X162035066Y-83120895D01*
X162102800Y-83159600D01*
X162170533Y-83237009D01*
X162204400Y-83391828D01*
X162204400Y-83662761D01*
X162170533Y-83817580D01*
X162102800Y-83894990D01*
X162035066Y-83933695D01*
X161899600Y-83933695D01*
X162881733Y-83933695D02*
X162475333Y-83933695D01*
X162678533Y-83933695D02*
X162678533Y-83120895D01*
X162610800Y-83237009D01*
X162543066Y-83314419D01*
X162475333Y-83353123D01*
X150608695Y-93717533D02*
X150221647Y-93954600D01*
X150608695Y-94123933D02*
X149795895Y-94123933D01*
X149795895Y-93853000D01*
X149834600Y-93785266D01*
X149873304Y-93751400D01*
X149950714Y-93717533D01*
X150066828Y-93717533D01*
X150144238Y-93751400D01*
X150182942Y-93785266D01*
X150221647Y-93853000D01*
X150221647Y-94123933D01*
X150608695Y-93040200D02*
X150608695Y-93446600D01*
X150608695Y-93243400D02*
X149795895Y-93243400D01*
X149912009Y-93311133D01*
X149989419Y-93378866D01*
X150028123Y-93446600D01*
X152132695Y-93844533D02*
X151745647Y-94081600D01*
X152132695Y-94250933D02*
X151319895Y-94250933D01*
X151319895Y-93980000D01*
X151358600Y-93912266D01*
X151397304Y-93878400D01*
X151474714Y-93844533D01*
X151590828Y-93844533D01*
X151668238Y-93878400D01*
X151706942Y-93912266D01*
X151745647Y-93980000D01*
X151745647Y-94250933D01*
X151397304Y-93573600D02*
X151358600Y-93539733D01*
X151319895Y-93472000D01*
X151319895Y-93302666D01*
X151358600Y-93234933D01*
X151397304Y-93201066D01*
X151474714Y-93167200D01*
X151552123Y-93167200D01*
X151668238Y-93201066D01*
X152132695Y-93607466D01*
X152132695Y-93167200D01*
X161641466Y-80885695D02*
X161404400Y-80498647D01*
X161235066Y-80885695D02*
X161235066Y-80072895D01*
X161506000Y-80072895D01*
X161573733Y-80111600D01*
X161607600Y-80150304D01*
X161641466Y-80227714D01*
X161641466Y-80343828D01*
X161607600Y-80421238D01*
X161573733Y-80459942D01*
X161506000Y-80498647D01*
X161235066Y-80498647D01*
X161878533Y-80072895D02*
X162318800Y-80072895D01*
X162081733Y-80382533D01*
X162183333Y-80382533D01*
X162251066Y-80421238D01*
X162284933Y-80459942D01*
X162318800Y-80537352D01*
X162318800Y-80730876D01*
X162284933Y-80808285D01*
X162251066Y-80846990D01*
X162183333Y-80885695D01*
X161980133Y-80885695D01*
X161912400Y-80846990D01*
X161878533Y-80808285D01*
X128744133Y-70674895D02*
X128744133Y-71332876D01*
X128778000Y-71410285D01*
X128811866Y-71448990D01*
X128879600Y-71487695D01*
X129015066Y-71487695D01*
X129082800Y-71448990D01*
X129116666Y-71410285D01*
X129150533Y-71332876D01*
X129150533Y-70674895D01*
X129455333Y-70752304D02*
X129489200Y-70713600D01*
X129556933Y-70674895D01*
X129726266Y-70674895D01*
X129794000Y-70713600D01*
X129827866Y-70752304D01*
X129861733Y-70829714D01*
X129861733Y-70907123D01*
X129827866Y-71023238D01*
X129421466Y-71487695D01*
X129861733Y-71487695D01*
X138085285Y-67132200D02*
X138123990Y-67166066D01*
X138162695Y-67267666D01*
X138162695Y-67335400D01*
X138123990Y-67437000D01*
X138046580Y-67504733D01*
X137969171Y-67538600D01*
X137814352Y-67572466D01*
X137698238Y-67572466D01*
X137543419Y-67538600D01*
X137466009Y-67504733D01*
X137388600Y-67437000D01*
X137349895Y-67335400D01*
X137349895Y-67267666D01*
X137388600Y-67166066D01*
X137427304Y-67132200D01*
X138162695Y-66454866D02*
X138162695Y-66861266D01*
X138162695Y-66658066D02*
X137349895Y-66658066D01*
X137466009Y-66725800D01*
X137543419Y-66793533D01*
X137582123Y-66861266D01*
X137427304Y-66183933D02*
X137388600Y-66150066D01*
X137349895Y-66082333D01*
X137349895Y-65913000D01*
X137388600Y-65845266D01*
X137427304Y-65811400D01*
X137504714Y-65777533D01*
X137582123Y-65777533D01*
X137698238Y-65811400D01*
X138162695Y-66217800D01*
X138162695Y-65777533D01*
X138543695Y-72000533D02*
X138156647Y-72237600D01*
X138543695Y-72406933D02*
X137730895Y-72406933D01*
X137730895Y-72136000D01*
X137769600Y-72068266D01*
X137808304Y-72034400D01*
X137885714Y-72000533D01*
X138001828Y-72000533D01*
X138079238Y-72034400D01*
X138117942Y-72068266D01*
X138156647Y-72136000D01*
X138156647Y-72406933D01*
X137730895Y-71357066D02*
X137730895Y-71695733D01*
X138117942Y-71729600D01*
X138079238Y-71695733D01*
X138040533Y-71628000D01*
X138040533Y-71458666D01*
X138079238Y-71390933D01*
X138117942Y-71357066D01*
X138195352Y-71323200D01*
X138388876Y-71323200D01*
X138466285Y-71357066D01*
X138504990Y-71390933D01*
X138543695Y-71458666D01*
X138543695Y-71628000D01*
X138504990Y-71695733D01*
X138466285Y-71729600D01*
X145042466Y-72249695D02*
X144805400Y-71862647D01*
X144636066Y-72249695D02*
X144636066Y-71436895D01*
X144907000Y-71436895D01*
X144974733Y-71475600D01*
X145008600Y-71514304D01*
X145042466Y-71591714D01*
X145042466Y-71707828D01*
X145008600Y-71785238D01*
X144974733Y-71823942D01*
X144907000Y-71862647D01*
X144636066Y-71862647D01*
X145652066Y-71436895D02*
X145516600Y-71436895D01*
X145448866Y-71475600D01*
X145415000Y-71514304D01*
X145347266Y-71630419D01*
X145313400Y-71785238D01*
X145313400Y-72094876D01*
X145347266Y-72172285D01*
X145381133Y-72210990D01*
X145448866Y-72249695D01*
X145584333Y-72249695D01*
X145652066Y-72210990D01*
X145685933Y-72172285D01*
X145719800Y-72094876D01*
X145719800Y-71901352D01*
X145685933Y-71823942D01*
X145652066Y-71785238D01*
X145584333Y-71746533D01*
X145448866Y-71746533D01*
X145381133Y-71785238D01*
X145347266Y-71823942D01*
X145313400Y-71901352D01*
%LPC*%
D15*
X152527000Y-78867000D03*
D16*
X149327000Y-74767000D03*
X149727000Y-74767000D03*
X150127000Y-74767000D03*
X150527000Y-74767000D03*
X150927000Y-74767000D03*
X151327000Y-74767000D03*
X151727000Y-74767000D03*
X152127000Y-74767000D03*
X152527000Y-74767000D03*
X152927000Y-74767000D03*
X153327000Y-74767000D03*
X153727000Y-74767000D03*
X154127000Y-74767000D03*
X154527000Y-74767000D03*
X154927000Y-74767000D03*
X155327000Y-74767000D03*
X155727000Y-74767000D03*
D17*
X156627000Y-75667000D03*
X156627000Y-76067000D03*
X156627000Y-76467000D03*
X156627000Y-76867000D03*
X156627000Y-77267000D03*
X156627000Y-77667000D03*
X156627000Y-78067000D03*
X156627000Y-78467000D03*
X156627000Y-78867000D03*
X156627000Y-79267000D03*
X156627000Y-79667000D03*
X156627000Y-80067000D03*
X156627000Y-80467000D03*
X156627000Y-80867000D03*
X156627000Y-81267000D03*
X156627000Y-81667000D03*
X156627000Y-82067000D03*
D16*
X155727000Y-82967000D03*
X155327000Y-82967000D03*
X154927000Y-82967000D03*
X154527000Y-82967000D03*
X154127000Y-82967000D03*
X153727000Y-82967000D03*
X153327000Y-82967000D03*
X152927000Y-82967000D03*
X152527000Y-82967000D03*
X152127000Y-82967000D03*
X151727000Y-82967000D03*
X151327000Y-82967000D03*
X150927000Y-82967000D03*
X150527000Y-82967000D03*
X150127000Y-82967000D03*
X149727000Y-82967000D03*
X149327000Y-82967000D03*
D17*
X148427000Y-82067000D03*
X148427000Y-81667000D03*
X148427000Y-81267000D03*
X148427000Y-80867000D03*
X148427000Y-80467000D03*
X148427000Y-80067000D03*
X148427000Y-79667000D03*
X148427000Y-79267000D03*
X148427000Y-78867000D03*
X148427000Y-78467000D03*
X148427000Y-78067000D03*
X148427000Y-77667000D03*
X148427000Y-77267000D03*
X148427000Y-76867000D03*
X148427000Y-76467000D03*
X148427000Y-76067000D03*
X148427000Y-75667000D03*
D18*
X143256000Y-79883000D03*
X141986000Y-79883000D03*
X140716000Y-79883000D03*
X139446000Y-79883000D03*
X139446000Y-74295000D03*
X140716000Y-74295000D03*
X141986000Y-74295000D03*
X143256000Y-74295000D03*
D19*
X160020000Y-101600000D03*
X160020000Y-69850000D03*
X135255000Y-101600000D03*
X134620000Y-69850000D03*
D20*
X144907000Y-90805000D03*
X146407000Y-90805000D03*
D21*
X137795000Y-77700000D03*
X137795000Y-76200000D03*
D22*
X145034000Y-88392000D03*
X148034000Y-88392000D03*
D23*
X135255000Y-79248000D03*
X135255000Y-76248000D03*
D24*
X148082000Y-94862000D03*
X148082000Y-90812000D03*
D25*
X133096000Y-94869000D03*
D26*
X135636000Y-94869000D03*
X133096000Y-92329000D03*
X135636000Y-92329000D03*
X133096000Y-89789000D03*
X135636000Y-89789000D03*
X133096000Y-87249000D03*
X135636000Y-87249000D03*
X133096000Y-84709000D03*
X135636000Y-84709000D03*
D27*
X154924760Y-98615500D03*
D28*
X148897340Y-98336100D03*
X149697440Y-98336100D03*
X150495000Y-98336100D03*
X151292560Y-98336100D03*
X152092660Y-98336100D03*
D29*
X148297900Y-100863400D03*
X152694640Y-100863400D03*
D27*
X146065240Y-98615500D03*
X146065240Y-104114600D03*
X154924760Y-104114600D03*
D30*
X166751000Y-102743000D03*
X166751000Y-99949000D03*
X166751000Y-97155000D03*
X166751000Y-94361000D03*
X166751000Y-91567000D03*
X166751000Y-88773000D03*
X166751000Y-85979000D03*
X166751000Y-83185000D03*
X166751000Y-80391000D03*
X166751000Y-77597000D03*
X166751000Y-74803000D03*
X166751000Y-72009000D03*
X166751000Y-69215000D03*
D31*
X161480500Y-86400640D03*
X160528000Y-84287360D03*
X159575500Y-86400640D03*
D21*
X150241000Y-90729000D03*
X150241000Y-92329000D03*
X151765000Y-92329000D03*
X151765000Y-90729000D03*
D20*
X162560000Y-81788000D03*
X160960000Y-81788000D03*
D32*
X144145000Y-69850000D03*
X144145000Y-67310000D03*
X146685000Y-69850000D03*
X146685000Y-67310000D03*
X149225000Y-69850000D03*
X149225000Y-67310000D03*
X151765000Y-69850000D03*
X151765000Y-67310000D03*
X154305000Y-69850000D03*
X154305000Y-67310000D03*
D18*
X132461000Y-74168000D03*
X131191000Y-74168000D03*
X129921000Y-74168000D03*
X128651000Y-74168000D03*
X128651000Y-79756000D03*
X129921000Y-79756000D03*
X131191000Y-79756000D03*
X132461000Y-79756000D03*
D32*
X141605000Y-69850000D03*
X141605000Y-67310000D03*
D21*
X139065000Y-67806000D03*
X139065000Y-66306000D03*
X139065000Y-70688000D03*
X139065000Y-69088000D03*
D20*
X144450000Y-73152000D03*
X146050000Y-73152000D03*
D32*
X145542000Y-75057000D03*
X145542000Y-77597000D03*
X145542000Y-80137000D03*
M02*
