G04 #@! TF.GenerationSoftware,KiCad,Pcbnew,(5.1.0-9-gc61ec8ee3)*
G04 #@! TF.CreationDate,2019-03-28T20:20:23-04:00*
G04 #@! TF.ProjectId,MPG_PSoC,4d50475f-5053-46f4-932e-6b696361645f,rev?*
G04 #@! TF.SameCoordinates,Original*
G04 #@! TF.FileFunction,Soldermask,Bot*
G04 #@! TF.FilePolarity,Negative*
%FSLAX46Y46*%
G04 Gerber Fmt 4.6, Leading zero omitted, Abs format (unit mm)*
G04 Created by KiCad (PCBNEW (5.1.0-9-gc61ec8ee3)) date 2019-03-28 20:20:23*
%MOMM*%
%LPD*%
G04 APERTURE LIST*
%ADD10C,0.100000*%
G04 APERTURE END LIST*
D10*
G36*
X160960988Y-98497973D02*
G01*
X161548082Y-98741155D01*
X161548084Y-98741156D01*
X162076455Y-99094202D01*
X162525798Y-99543545D01*
X162878844Y-100071916D01*
X162878845Y-100071918D01*
X163122027Y-100659012D01*
X163246000Y-101282265D01*
X163246000Y-101917735D01*
X163122027Y-102540988D01*
X162878845Y-103128082D01*
X162878844Y-103128084D01*
X162525798Y-103656455D01*
X162076455Y-104105798D01*
X161548084Y-104458844D01*
X161548083Y-104458845D01*
X161548082Y-104458845D01*
X160960988Y-104702027D01*
X160337735Y-104826000D01*
X159702265Y-104826000D01*
X159079012Y-104702027D01*
X158491918Y-104458845D01*
X158491917Y-104458845D01*
X158491916Y-104458844D01*
X157963545Y-104105798D01*
X157514202Y-103656455D01*
X157161156Y-103128084D01*
X157161155Y-103128082D01*
X156917973Y-102540988D01*
X156794000Y-101917735D01*
X156794000Y-101282265D01*
X156917973Y-100659012D01*
X157161155Y-100071918D01*
X157161156Y-100071916D01*
X157514202Y-99543545D01*
X157963545Y-99094202D01*
X158491916Y-98741156D01*
X158491918Y-98741155D01*
X159079012Y-98497973D01*
X159702265Y-98374000D01*
X160337735Y-98374000D01*
X160960988Y-98497973D01*
X160960988Y-98497973D01*
G37*
G36*
X136195988Y-98497973D02*
G01*
X136783082Y-98741155D01*
X136783084Y-98741156D01*
X137311455Y-99094202D01*
X137760798Y-99543545D01*
X138113844Y-100071916D01*
X138113845Y-100071918D01*
X138357027Y-100659012D01*
X138481000Y-101282265D01*
X138481000Y-101917735D01*
X138357027Y-102540988D01*
X138113845Y-103128082D01*
X138113844Y-103128084D01*
X137760798Y-103656455D01*
X137311455Y-104105798D01*
X136783084Y-104458844D01*
X136783083Y-104458845D01*
X136783082Y-104458845D01*
X136195988Y-104702027D01*
X135572735Y-104826000D01*
X134937265Y-104826000D01*
X134314012Y-104702027D01*
X133726918Y-104458845D01*
X133726917Y-104458845D01*
X133726916Y-104458844D01*
X133198545Y-104105798D01*
X132749202Y-103656455D01*
X132396156Y-103128084D01*
X132396155Y-103128082D01*
X132152973Y-102540988D01*
X132029000Y-101917735D01*
X132029000Y-101282265D01*
X132152973Y-100659012D01*
X132396155Y-100071918D01*
X132396156Y-100071916D01*
X132749202Y-99543545D01*
X133198545Y-99094202D01*
X133726916Y-98741156D01*
X133726918Y-98741155D01*
X134314012Y-98497973D01*
X134937265Y-98374000D01*
X135572735Y-98374000D01*
X136195988Y-98497973D01*
X136195988Y-98497973D01*
G37*
G36*
X168707000Y-102159000D02*
G01*
X164795000Y-102159000D01*
X164795000Y-100533000D01*
X168707000Y-100533000D01*
X168707000Y-102159000D01*
X168707000Y-102159000D01*
G37*
G36*
X148395558Y-100372438D02*
G01*
X148443914Y-100382057D01*
X148535014Y-100419792D01*
X148617001Y-100474574D01*
X148686726Y-100544299D01*
X148741508Y-100626286D01*
X148779243Y-100717386D01*
X148798480Y-100814097D01*
X148798480Y-100912703D01*
X148779243Y-101009414D01*
X148741508Y-101100514D01*
X148686726Y-101182501D01*
X148617001Y-101252226D01*
X148535014Y-101307008D01*
X148443914Y-101344743D01*
X148395558Y-101354362D01*
X148347204Y-101363980D01*
X148248596Y-101363980D01*
X148200242Y-101354362D01*
X148151886Y-101344743D01*
X148060786Y-101307008D01*
X147978799Y-101252226D01*
X147909074Y-101182501D01*
X147854292Y-101100514D01*
X147816557Y-101009414D01*
X147797320Y-100912703D01*
X147797320Y-100814097D01*
X147816557Y-100717386D01*
X147854292Y-100626286D01*
X147909074Y-100544299D01*
X147978799Y-100474574D01*
X148060786Y-100419792D01*
X148151886Y-100382057D01*
X148200241Y-100372439D01*
X148248596Y-100362820D01*
X148347204Y-100362820D01*
X148395558Y-100372438D01*
X148395558Y-100372438D01*
G37*
G36*
X152792298Y-100372438D02*
G01*
X152840654Y-100382057D01*
X152931754Y-100419792D01*
X153013741Y-100474574D01*
X153083466Y-100544299D01*
X153138248Y-100626286D01*
X153175983Y-100717386D01*
X153195220Y-100814097D01*
X153195220Y-100912703D01*
X153175983Y-101009414D01*
X153138248Y-101100514D01*
X153083466Y-101182501D01*
X153013741Y-101252226D01*
X152931754Y-101307008D01*
X152840654Y-101344743D01*
X152792298Y-101354362D01*
X152743944Y-101363980D01*
X152645336Y-101363980D01*
X152596982Y-101354362D01*
X152548626Y-101344743D01*
X152457526Y-101307008D01*
X152375539Y-101252226D01*
X152305814Y-101182501D01*
X152251032Y-101100514D01*
X152213297Y-101009414D01*
X152194060Y-100912703D01*
X152194060Y-100814097D01*
X152213297Y-100717386D01*
X152251032Y-100626286D01*
X152305814Y-100544299D01*
X152375539Y-100474574D01*
X152457526Y-100419792D01*
X152548626Y-100382057D01*
X152596981Y-100372439D01*
X152645336Y-100362820D01*
X152743944Y-100362820D01*
X152792298Y-100372438D01*
X152792298Y-100372438D01*
G37*
G36*
X168707000Y-99365000D02*
G01*
X164795000Y-99365000D01*
X164795000Y-97739000D01*
X168707000Y-97739000D01*
X168707000Y-99365000D01*
X168707000Y-99365000D01*
G37*
G36*
X168707000Y-96571000D02*
G01*
X164795000Y-96571000D01*
X164795000Y-94945000D01*
X168707000Y-94945000D01*
X168707000Y-96571000D01*
X168707000Y-96571000D01*
G37*
G36*
X135884228Y-94050703D02*
G01*
X136039100Y-94114853D01*
X136178481Y-94207985D01*
X136297015Y-94326519D01*
X136390147Y-94465900D01*
X136454297Y-94620772D01*
X136487000Y-94785184D01*
X136487000Y-94952816D01*
X136454297Y-95117228D01*
X136390147Y-95272100D01*
X136297015Y-95411481D01*
X136178481Y-95530015D01*
X136039100Y-95623147D01*
X135884228Y-95687297D01*
X135719816Y-95720000D01*
X135552184Y-95720000D01*
X135387772Y-95687297D01*
X135232900Y-95623147D01*
X135093519Y-95530015D01*
X134974985Y-95411481D01*
X134881853Y-95272100D01*
X134817703Y-95117228D01*
X134785000Y-94952816D01*
X134785000Y-94785184D01*
X134817703Y-94620772D01*
X134881853Y-94465900D01*
X134974985Y-94326519D01*
X135093519Y-94207985D01*
X135232900Y-94114853D01*
X135387772Y-94050703D01*
X135552184Y-94018000D01*
X135719816Y-94018000D01*
X135884228Y-94050703D01*
X135884228Y-94050703D01*
G37*
G36*
X133947000Y-95720000D02*
G01*
X132245000Y-95720000D01*
X132245000Y-94018000D01*
X133947000Y-94018000D01*
X133947000Y-95720000D01*
X133947000Y-95720000D01*
G37*
G36*
X168707000Y-93777000D02*
G01*
X164795000Y-93777000D01*
X164795000Y-92151000D01*
X168707000Y-92151000D01*
X168707000Y-93777000D01*
X168707000Y-93777000D01*
G37*
G36*
X133344228Y-91510703D02*
G01*
X133499100Y-91574853D01*
X133638481Y-91667985D01*
X133757015Y-91786519D01*
X133850147Y-91925900D01*
X133914297Y-92080772D01*
X133947000Y-92245184D01*
X133947000Y-92412816D01*
X133914297Y-92577228D01*
X133850147Y-92732100D01*
X133757015Y-92871481D01*
X133638481Y-92990015D01*
X133499100Y-93083147D01*
X133344228Y-93147297D01*
X133179816Y-93180000D01*
X133012184Y-93180000D01*
X132847772Y-93147297D01*
X132692900Y-93083147D01*
X132553519Y-92990015D01*
X132434985Y-92871481D01*
X132341853Y-92732100D01*
X132277703Y-92577228D01*
X132245000Y-92412816D01*
X132245000Y-92245184D01*
X132277703Y-92080772D01*
X132341853Y-91925900D01*
X132434985Y-91786519D01*
X132553519Y-91667985D01*
X132692900Y-91574853D01*
X132847772Y-91510703D01*
X133012184Y-91478000D01*
X133179816Y-91478000D01*
X133344228Y-91510703D01*
X133344228Y-91510703D01*
G37*
G36*
X135884228Y-91510703D02*
G01*
X136039100Y-91574853D01*
X136178481Y-91667985D01*
X136297015Y-91786519D01*
X136390147Y-91925900D01*
X136454297Y-92080772D01*
X136487000Y-92245184D01*
X136487000Y-92412816D01*
X136454297Y-92577228D01*
X136390147Y-92732100D01*
X136297015Y-92871481D01*
X136178481Y-92990015D01*
X136039100Y-93083147D01*
X135884228Y-93147297D01*
X135719816Y-93180000D01*
X135552184Y-93180000D01*
X135387772Y-93147297D01*
X135232900Y-93083147D01*
X135093519Y-92990015D01*
X134974985Y-92871481D01*
X134881853Y-92732100D01*
X134817703Y-92577228D01*
X134785000Y-92412816D01*
X134785000Y-92245184D01*
X134817703Y-92080772D01*
X134881853Y-91925900D01*
X134974985Y-91786519D01*
X135093519Y-91667985D01*
X135232900Y-91574853D01*
X135387772Y-91510703D01*
X135552184Y-91478000D01*
X135719816Y-91478000D01*
X135884228Y-91510703D01*
X135884228Y-91510703D01*
G37*
G36*
X168707000Y-90983000D02*
G01*
X164795000Y-90983000D01*
X164795000Y-89357000D01*
X168707000Y-89357000D01*
X168707000Y-90983000D01*
X168707000Y-90983000D01*
G37*
G36*
X133344228Y-88970703D02*
G01*
X133499100Y-89034853D01*
X133638481Y-89127985D01*
X133757015Y-89246519D01*
X133850147Y-89385900D01*
X133914297Y-89540772D01*
X133947000Y-89705184D01*
X133947000Y-89872816D01*
X133914297Y-90037228D01*
X133850147Y-90192100D01*
X133757015Y-90331481D01*
X133638481Y-90450015D01*
X133499100Y-90543147D01*
X133344228Y-90607297D01*
X133179816Y-90640000D01*
X133012184Y-90640000D01*
X132847772Y-90607297D01*
X132692900Y-90543147D01*
X132553519Y-90450015D01*
X132434985Y-90331481D01*
X132341853Y-90192100D01*
X132277703Y-90037228D01*
X132245000Y-89872816D01*
X132245000Y-89705184D01*
X132277703Y-89540772D01*
X132341853Y-89385900D01*
X132434985Y-89246519D01*
X132553519Y-89127985D01*
X132692900Y-89034853D01*
X132847772Y-88970703D01*
X133012184Y-88938000D01*
X133179816Y-88938000D01*
X133344228Y-88970703D01*
X133344228Y-88970703D01*
G37*
G36*
X135884228Y-88970703D02*
G01*
X136039100Y-89034853D01*
X136178481Y-89127985D01*
X136297015Y-89246519D01*
X136390147Y-89385900D01*
X136454297Y-89540772D01*
X136487000Y-89705184D01*
X136487000Y-89872816D01*
X136454297Y-90037228D01*
X136390147Y-90192100D01*
X136297015Y-90331481D01*
X136178481Y-90450015D01*
X136039100Y-90543147D01*
X135884228Y-90607297D01*
X135719816Y-90640000D01*
X135552184Y-90640000D01*
X135387772Y-90607297D01*
X135232900Y-90543147D01*
X135093519Y-90450015D01*
X134974985Y-90331481D01*
X134881853Y-90192100D01*
X134817703Y-90037228D01*
X134785000Y-89872816D01*
X134785000Y-89705184D01*
X134817703Y-89540772D01*
X134881853Y-89385900D01*
X134974985Y-89246519D01*
X135093519Y-89127985D01*
X135232900Y-89034853D01*
X135387772Y-88970703D01*
X135552184Y-88938000D01*
X135719816Y-88938000D01*
X135884228Y-88970703D01*
X135884228Y-88970703D01*
G37*
G36*
X168707000Y-88189000D02*
G01*
X164795000Y-88189000D01*
X164795000Y-86563000D01*
X168707000Y-86563000D01*
X168707000Y-88189000D01*
X168707000Y-88189000D01*
G37*
G36*
X133344228Y-86430703D02*
G01*
X133499100Y-86494853D01*
X133638481Y-86587985D01*
X133757015Y-86706519D01*
X133850147Y-86845900D01*
X133914297Y-87000772D01*
X133947000Y-87165184D01*
X133947000Y-87332816D01*
X133914297Y-87497228D01*
X133850147Y-87652100D01*
X133757015Y-87791481D01*
X133638481Y-87910015D01*
X133499100Y-88003147D01*
X133344228Y-88067297D01*
X133179816Y-88100000D01*
X133012184Y-88100000D01*
X132847772Y-88067297D01*
X132692900Y-88003147D01*
X132553519Y-87910015D01*
X132434985Y-87791481D01*
X132341853Y-87652100D01*
X132277703Y-87497228D01*
X132245000Y-87332816D01*
X132245000Y-87165184D01*
X132277703Y-87000772D01*
X132341853Y-86845900D01*
X132434985Y-86706519D01*
X132553519Y-86587985D01*
X132692900Y-86494853D01*
X132847772Y-86430703D01*
X133012184Y-86398000D01*
X133179816Y-86398000D01*
X133344228Y-86430703D01*
X133344228Y-86430703D01*
G37*
G36*
X135884228Y-86430703D02*
G01*
X136039100Y-86494853D01*
X136178481Y-86587985D01*
X136297015Y-86706519D01*
X136390147Y-86845900D01*
X136454297Y-87000772D01*
X136487000Y-87165184D01*
X136487000Y-87332816D01*
X136454297Y-87497228D01*
X136390147Y-87652100D01*
X136297015Y-87791481D01*
X136178481Y-87910015D01*
X136039100Y-88003147D01*
X135884228Y-88067297D01*
X135719816Y-88100000D01*
X135552184Y-88100000D01*
X135387772Y-88067297D01*
X135232900Y-88003147D01*
X135093519Y-87910015D01*
X134974985Y-87791481D01*
X134881853Y-87652100D01*
X134817703Y-87497228D01*
X134785000Y-87332816D01*
X134785000Y-87165184D01*
X134817703Y-87000772D01*
X134881853Y-86845900D01*
X134974985Y-86706519D01*
X135093519Y-86587985D01*
X135232900Y-86494853D01*
X135387772Y-86430703D01*
X135552184Y-86398000D01*
X135719816Y-86398000D01*
X135884228Y-86430703D01*
X135884228Y-86430703D01*
G37*
G36*
X133344228Y-83890703D02*
G01*
X133499100Y-83954853D01*
X133638481Y-84047985D01*
X133757015Y-84166519D01*
X133850147Y-84305900D01*
X133914297Y-84460772D01*
X133947000Y-84625184D01*
X133947000Y-84792816D01*
X133914297Y-84957228D01*
X133850147Y-85112100D01*
X133757015Y-85251481D01*
X133638481Y-85370015D01*
X133499100Y-85463147D01*
X133344228Y-85527297D01*
X133179816Y-85560000D01*
X133012184Y-85560000D01*
X132847772Y-85527297D01*
X132692900Y-85463147D01*
X132553519Y-85370015D01*
X132434985Y-85251481D01*
X132341853Y-85112100D01*
X132277703Y-84957228D01*
X132245000Y-84792816D01*
X132245000Y-84625184D01*
X132277703Y-84460772D01*
X132341853Y-84305900D01*
X132434985Y-84166519D01*
X132553519Y-84047985D01*
X132692900Y-83954853D01*
X132847772Y-83890703D01*
X133012184Y-83858000D01*
X133179816Y-83858000D01*
X133344228Y-83890703D01*
X133344228Y-83890703D01*
G37*
G36*
X135884228Y-83890703D02*
G01*
X136039100Y-83954853D01*
X136178481Y-84047985D01*
X136297015Y-84166519D01*
X136390147Y-84305900D01*
X136454297Y-84460772D01*
X136487000Y-84625184D01*
X136487000Y-84792816D01*
X136454297Y-84957228D01*
X136390147Y-85112100D01*
X136297015Y-85251481D01*
X136178481Y-85370015D01*
X136039100Y-85463147D01*
X135884228Y-85527297D01*
X135719816Y-85560000D01*
X135552184Y-85560000D01*
X135387772Y-85527297D01*
X135232900Y-85463147D01*
X135093519Y-85370015D01*
X134974985Y-85251481D01*
X134881853Y-85112100D01*
X134817703Y-84957228D01*
X134785000Y-84792816D01*
X134785000Y-84625184D01*
X134817703Y-84460772D01*
X134881853Y-84305900D01*
X134974985Y-84166519D01*
X135093519Y-84047985D01*
X135232900Y-83954853D01*
X135387772Y-83890703D01*
X135552184Y-83858000D01*
X135719816Y-83858000D01*
X135884228Y-83890703D01*
X135884228Y-83890703D01*
G37*
G36*
X168707000Y-85395000D02*
G01*
X164795000Y-85395000D01*
X164795000Y-83769000D01*
X168707000Y-83769000D01*
X168707000Y-85395000D01*
X168707000Y-85395000D01*
G37*
G36*
X151646000Y-83432000D02*
G01*
X150844000Y-83432000D01*
X150844000Y-82430000D01*
X151646000Y-82430000D01*
X151646000Y-83432000D01*
X151646000Y-83432000D01*
G37*
G36*
X150146000Y-83432000D02*
G01*
X149344000Y-83432000D01*
X149344000Y-82430000D01*
X150146000Y-82430000D01*
X150146000Y-83432000D01*
X150146000Y-83432000D01*
G37*
G36*
X153055000Y-83432000D02*
G01*
X152253000Y-83432000D01*
X152253000Y-82430000D01*
X153055000Y-82430000D01*
X153055000Y-83432000D01*
X153055000Y-83432000D01*
G37*
G36*
X154555000Y-83432000D02*
G01*
X153753000Y-83432000D01*
X153753000Y-82430000D01*
X154555000Y-82430000D01*
X154555000Y-83432000D01*
X154555000Y-83432000D01*
G37*
G36*
X168707000Y-82601000D02*
G01*
X164795000Y-82601000D01*
X164795000Y-80975000D01*
X168707000Y-80975000D01*
X168707000Y-82601000D01*
X168707000Y-82601000D01*
G37*
G36*
X148964000Y-82316000D02*
G01*
X147962000Y-82316000D01*
X147962000Y-81514000D01*
X148964000Y-81514000D01*
X148964000Y-82316000D01*
X148964000Y-82316000D01*
G37*
G36*
X157092000Y-82304000D02*
G01*
X156090000Y-82304000D01*
X156090000Y-81502000D01*
X157092000Y-81502000D01*
X157092000Y-82304000D01*
X157092000Y-82304000D01*
G37*
G36*
X145775642Y-79366781D02*
G01*
X145921414Y-79427162D01*
X145921416Y-79427163D01*
X146052608Y-79514822D01*
X146164178Y-79626392D01*
X146251837Y-79757584D01*
X146251838Y-79757586D01*
X146312219Y-79903358D01*
X146343000Y-80058107D01*
X146343000Y-80215893D01*
X146312219Y-80370642D01*
X146251838Y-80516414D01*
X146251837Y-80516416D01*
X146164178Y-80647608D01*
X146052608Y-80759178D01*
X145921416Y-80846837D01*
X145921415Y-80846838D01*
X145921414Y-80846838D01*
X145775642Y-80907219D01*
X145620893Y-80938000D01*
X145463107Y-80938000D01*
X145308358Y-80907219D01*
X145162586Y-80846838D01*
X145162585Y-80846838D01*
X145162584Y-80846837D01*
X145031392Y-80759178D01*
X144919822Y-80647608D01*
X144832163Y-80516416D01*
X144832162Y-80516414D01*
X144771781Y-80370642D01*
X144741000Y-80215893D01*
X144741000Y-80058107D01*
X144771781Y-79903358D01*
X144832162Y-79757586D01*
X144832163Y-79757584D01*
X144919822Y-79626392D01*
X145031392Y-79514822D01*
X145162584Y-79427163D01*
X145162586Y-79427162D01*
X145308358Y-79366781D01*
X145463107Y-79336000D01*
X145620893Y-79336000D01*
X145775642Y-79366781D01*
X145775642Y-79366781D01*
G37*
G36*
X148964000Y-80816000D02*
G01*
X147962000Y-80816000D01*
X147962000Y-80014000D01*
X148964000Y-80014000D01*
X148964000Y-80816000D01*
X148964000Y-80816000D01*
G37*
G36*
X157092000Y-80804000D02*
G01*
X156090000Y-80804000D01*
X156090000Y-80002000D01*
X157092000Y-80002000D01*
X157092000Y-80804000D01*
X157092000Y-80804000D01*
G37*
G36*
X131757000Y-80257000D02*
G01*
X130955000Y-80257000D01*
X130955000Y-79255000D01*
X131757000Y-79255000D01*
X131757000Y-80257000D01*
X131757000Y-80257000D01*
G37*
G36*
X130157000Y-80257000D02*
G01*
X129355000Y-80257000D01*
X129355000Y-79255000D01*
X130157000Y-79255000D01*
X130157000Y-80257000D01*
X130157000Y-80257000D01*
G37*
G36*
X168707000Y-79807000D02*
G01*
X164795000Y-79807000D01*
X164795000Y-78181000D01*
X168707000Y-78181000D01*
X168707000Y-79807000D01*
X168707000Y-79807000D01*
G37*
G36*
X157092000Y-79522000D02*
G01*
X156090000Y-79522000D01*
X156090000Y-78720000D01*
X157092000Y-78720000D01*
X157092000Y-79522000D01*
X157092000Y-79522000D01*
G37*
G36*
X145775642Y-76826781D02*
G01*
X145921414Y-76887162D01*
X145921416Y-76887163D01*
X146052608Y-76974822D01*
X146164178Y-77086392D01*
X146251837Y-77217584D01*
X146251838Y-77217586D01*
X146312219Y-77363358D01*
X146343000Y-77518107D01*
X146343000Y-77675893D01*
X146312219Y-77830642D01*
X146251838Y-77976414D01*
X146251837Y-77976416D01*
X146164178Y-78107608D01*
X146052608Y-78219178D01*
X145921416Y-78306837D01*
X145921415Y-78306838D01*
X145921414Y-78306838D01*
X145775642Y-78367219D01*
X145620893Y-78398000D01*
X145463107Y-78398000D01*
X145308358Y-78367219D01*
X145162586Y-78306838D01*
X145162585Y-78306838D01*
X145162584Y-78306837D01*
X145031392Y-78219178D01*
X144919822Y-78107608D01*
X144832163Y-77976416D01*
X144832162Y-77976414D01*
X144771781Y-77830642D01*
X144741000Y-77675893D01*
X144741000Y-77518107D01*
X144771781Y-77363358D01*
X144832162Y-77217586D01*
X144832163Y-77217584D01*
X144919822Y-77086392D01*
X145031392Y-76974822D01*
X145162584Y-76887163D01*
X145162586Y-76887162D01*
X145308358Y-76826781D01*
X145463107Y-76796000D01*
X145620893Y-76796000D01*
X145775642Y-76826781D01*
X145775642Y-76826781D01*
G37*
G36*
X157092000Y-78022000D02*
G01*
X156090000Y-78022000D01*
X156090000Y-77220000D01*
X157092000Y-77220000D01*
X157092000Y-78022000D01*
X157092000Y-78022000D01*
G37*
G36*
X168707000Y-77013000D02*
G01*
X164795000Y-77013000D01*
X164795000Y-75387000D01*
X168707000Y-75387000D01*
X168707000Y-77013000D01*
X168707000Y-77013000D01*
G37*
G36*
X145775642Y-74286781D02*
G01*
X145921414Y-74347162D01*
X145921416Y-74347163D01*
X146052608Y-74434822D01*
X146164178Y-74546392D01*
X146251837Y-74677584D01*
X146251838Y-74677586D01*
X146312219Y-74823358D01*
X146343000Y-74978107D01*
X146343000Y-75135893D01*
X146312219Y-75290642D01*
X146272306Y-75387000D01*
X146251837Y-75436416D01*
X146164178Y-75567608D01*
X146052608Y-75679178D01*
X145921416Y-75766837D01*
X145921415Y-75766838D01*
X145921414Y-75766838D01*
X145775642Y-75827219D01*
X145620893Y-75858000D01*
X145463107Y-75858000D01*
X145308358Y-75827219D01*
X145162586Y-75766838D01*
X145162585Y-75766838D01*
X145162584Y-75766837D01*
X145031392Y-75679178D01*
X144919822Y-75567608D01*
X144832163Y-75436416D01*
X144811694Y-75387000D01*
X144771781Y-75290642D01*
X144741000Y-75135893D01*
X144741000Y-74978107D01*
X144771781Y-74823358D01*
X144832162Y-74677586D01*
X144832163Y-74677584D01*
X144919822Y-74546392D01*
X145031392Y-74434822D01*
X145162584Y-74347163D01*
X145162586Y-74347162D01*
X145308358Y-74286781D01*
X145463107Y-74256000D01*
X145620893Y-74256000D01*
X145775642Y-74286781D01*
X145775642Y-74286781D01*
G37*
G36*
X150007000Y-75304000D02*
G01*
X149205000Y-75304000D01*
X149205000Y-74302000D01*
X150007000Y-74302000D01*
X150007000Y-75304000D01*
X150007000Y-75304000D01*
G37*
G36*
X151507000Y-75304000D02*
G01*
X150705000Y-75304000D01*
X150705000Y-74302000D01*
X151507000Y-74302000D01*
X151507000Y-75304000D01*
X151507000Y-75304000D01*
G37*
G36*
X153321000Y-75304000D02*
G01*
X152519000Y-75304000D01*
X152519000Y-74302000D01*
X153321000Y-74302000D01*
X153321000Y-75304000D01*
X153321000Y-75304000D01*
G37*
G36*
X154821000Y-75304000D02*
G01*
X154019000Y-75304000D01*
X154019000Y-74302000D01*
X154821000Y-74302000D01*
X154821000Y-75304000D01*
X154821000Y-75304000D01*
G37*
G36*
X168707000Y-74219000D02*
G01*
X164795000Y-74219000D01*
X164795000Y-72593000D01*
X168707000Y-72593000D01*
X168707000Y-74219000D01*
X168707000Y-74219000D01*
G37*
G36*
X160960988Y-66747973D02*
G01*
X161401850Y-66930584D01*
X161548084Y-66991156D01*
X162076455Y-67344202D01*
X162525798Y-67793545D01*
X162878844Y-68321916D01*
X162878845Y-68321918D01*
X163122027Y-68909012D01*
X163246000Y-69532265D01*
X163246000Y-70167735D01*
X163122027Y-70790988D01*
X162878845Y-71378082D01*
X162878844Y-71378084D01*
X162525798Y-71906455D01*
X162076455Y-72355798D01*
X161548084Y-72708844D01*
X161548083Y-72708845D01*
X161548082Y-72708845D01*
X160960988Y-72952027D01*
X160337735Y-73076000D01*
X159702265Y-73076000D01*
X159079012Y-72952027D01*
X158491918Y-72708845D01*
X158491917Y-72708845D01*
X158491916Y-72708844D01*
X157963545Y-72355798D01*
X157514202Y-71906455D01*
X157161156Y-71378084D01*
X157161155Y-71378082D01*
X156917973Y-70790988D01*
X156794000Y-70167735D01*
X156794000Y-69532265D01*
X156917973Y-68909012D01*
X157161155Y-68321918D01*
X157161156Y-68321916D01*
X157514202Y-67793545D01*
X157963545Y-67344202D01*
X158491916Y-66991156D01*
X158638150Y-66930584D01*
X159079012Y-66747973D01*
X159702265Y-66624000D01*
X160337735Y-66624000D01*
X160960988Y-66747973D01*
X160960988Y-66747973D01*
G37*
G36*
X135560988Y-66747973D02*
G01*
X136001850Y-66930584D01*
X136148084Y-66991156D01*
X136676455Y-67344202D01*
X137125798Y-67793545D01*
X137478844Y-68321916D01*
X137478845Y-68321918D01*
X137722027Y-68909012D01*
X137846000Y-69532265D01*
X137846000Y-70167735D01*
X137722027Y-70790988D01*
X137478845Y-71378082D01*
X137478844Y-71378084D01*
X137125798Y-71906455D01*
X136676455Y-72355798D01*
X136148084Y-72708844D01*
X136148083Y-72708845D01*
X136148082Y-72708845D01*
X135560988Y-72952027D01*
X134937735Y-73076000D01*
X134302265Y-73076000D01*
X133679012Y-72952027D01*
X133091918Y-72708845D01*
X133091917Y-72708845D01*
X133091916Y-72708844D01*
X132563545Y-72355798D01*
X132114202Y-71906455D01*
X131761156Y-71378084D01*
X131761155Y-71378082D01*
X131517973Y-70790988D01*
X131394000Y-70167735D01*
X131394000Y-69532265D01*
X131517973Y-68909012D01*
X131761155Y-68321918D01*
X131761156Y-68321916D01*
X132114202Y-67793545D01*
X132563545Y-67344202D01*
X133091916Y-66991156D01*
X133238150Y-66930584D01*
X133679012Y-66747973D01*
X134302265Y-66624000D01*
X134937735Y-66624000D01*
X135560988Y-66747973D01*
X135560988Y-66747973D01*
G37*
G36*
X168707000Y-71425000D02*
G01*
X164795000Y-71425000D01*
X164795000Y-69799000D01*
X168707000Y-69799000D01*
X168707000Y-71425000D01*
X168707000Y-71425000D01*
G37*
G36*
X144378642Y-69079781D02*
G01*
X144524414Y-69140162D01*
X144524416Y-69140163D01*
X144655608Y-69227822D01*
X144767178Y-69339392D01*
X144854837Y-69470584D01*
X144854838Y-69470586D01*
X144915219Y-69616358D01*
X144946000Y-69771107D01*
X144946000Y-69928893D01*
X144915219Y-70083642D01*
X144880387Y-70167733D01*
X144854837Y-70229416D01*
X144767178Y-70360608D01*
X144655608Y-70472178D01*
X144524416Y-70559837D01*
X144524415Y-70559838D01*
X144524414Y-70559838D01*
X144378642Y-70620219D01*
X144223893Y-70651000D01*
X144066107Y-70651000D01*
X143911358Y-70620219D01*
X143765586Y-70559838D01*
X143765585Y-70559838D01*
X143765584Y-70559837D01*
X143634392Y-70472178D01*
X143522822Y-70360608D01*
X143435163Y-70229416D01*
X143409613Y-70167733D01*
X143374781Y-70083642D01*
X143344000Y-69928893D01*
X143344000Y-69771107D01*
X143374781Y-69616358D01*
X143435162Y-69470586D01*
X143435163Y-69470584D01*
X143522822Y-69339392D01*
X143634392Y-69227822D01*
X143765584Y-69140163D01*
X143765586Y-69140162D01*
X143911358Y-69079781D01*
X144066107Y-69049000D01*
X144223893Y-69049000D01*
X144378642Y-69079781D01*
X144378642Y-69079781D01*
G37*
G36*
X146918642Y-69079781D02*
G01*
X147064414Y-69140162D01*
X147064416Y-69140163D01*
X147195608Y-69227822D01*
X147307178Y-69339392D01*
X147394837Y-69470584D01*
X147394838Y-69470586D01*
X147455219Y-69616358D01*
X147486000Y-69771107D01*
X147486000Y-69928893D01*
X147455219Y-70083642D01*
X147420387Y-70167733D01*
X147394837Y-70229416D01*
X147307178Y-70360608D01*
X147195608Y-70472178D01*
X147064416Y-70559837D01*
X147064415Y-70559838D01*
X147064414Y-70559838D01*
X146918642Y-70620219D01*
X146763893Y-70651000D01*
X146606107Y-70651000D01*
X146451358Y-70620219D01*
X146305586Y-70559838D01*
X146305585Y-70559838D01*
X146305584Y-70559837D01*
X146174392Y-70472178D01*
X146062822Y-70360608D01*
X145975163Y-70229416D01*
X145949613Y-70167733D01*
X145914781Y-70083642D01*
X145884000Y-69928893D01*
X145884000Y-69771107D01*
X145914781Y-69616358D01*
X145975162Y-69470586D01*
X145975163Y-69470584D01*
X146062822Y-69339392D01*
X146174392Y-69227822D01*
X146305584Y-69140163D01*
X146305586Y-69140162D01*
X146451358Y-69079781D01*
X146606107Y-69049000D01*
X146763893Y-69049000D01*
X146918642Y-69079781D01*
X146918642Y-69079781D01*
G37*
G36*
X149458642Y-69079781D02*
G01*
X149604414Y-69140162D01*
X149604416Y-69140163D01*
X149735608Y-69227822D01*
X149847178Y-69339392D01*
X149934837Y-69470584D01*
X149934838Y-69470586D01*
X149995219Y-69616358D01*
X150026000Y-69771107D01*
X150026000Y-69928893D01*
X149995219Y-70083642D01*
X149960387Y-70167733D01*
X149934837Y-70229416D01*
X149847178Y-70360608D01*
X149735608Y-70472178D01*
X149604416Y-70559837D01*
X149604415Y-70559838D01*
X149604414Y-70559838D01*
X149458642Y-70620219D01*
X149303893Y-70651000D01*
X149146107Y-70651000D01*
X148991358Y-70620219D01*
X148845586Y-70559838D01*
X148845585Y-70559838D01*
X148845584Y-70559837D01*
X148714392Y-70472178D01*
X148602822Y-70360608D01*
X148515163Y-70229416D01*
X148489613Y-70167733D01*
X148454781Y-70083642D01*
X148424000Y-69928893D01*
X148424000Y-69771107D01*
X148454781Y-69616358D01*
X148515162Y-69470586D01*
X148515163Y-69470584D01*
X148602822Y-69339392D01*
X148714392Y-69227822D01*
X148845584Y-69140163D01*
X148845586Y-69140162D01*
X148991358Y-69079781D01*
X149146107Y-69049000D01*
X149303893Y-69049000D01*
X149458642Y-69079781D01*
X149458642Y-69079781D01*
G37*
G36*
X151998642Y-69079781D02*
G01*
X152144414Y-69140162D01*
X152144416Y-69140163D01*
X152275608Y-69227822D01*
X152387178Y-69339392D01*
X152474837Y-69470584D01*
X152474838Y-69470586D01*
X152535219Y-69616358D01*
X152566000Y-69771107D01*
X152566000Y-69928893D01*
X152535219Y-70083642D01*
X152500387Y-70167733D01*
X152474837Y-70229416D01*
X152387178Y-70360608D01*
X152275608Y-70472178D01*
X152144416Y-70559837D01*
X152144415Y-70559838D01*
X152144414Y-70559838D01*
X151998642Y-70620219D01*
X151843893Y-70651000D01*
X151686107Y-70651000D01*
X151531358Y-70620219D01*
X151385586Y-70559838D01*
X151385585Y-70559838D01*
X151385584Y-70559837D01*
X151254392Y-70472178D01*
X151142822Y-70360608D01*
X151055163Y-70229416D01*
X151029613Y-70167733D01*
X150994781Y-70083642D01*
X150964000Y-69928893D01*
X150964000Y-69771107D01*
X150994781Y-69616358D01*
X151055162Y-69470586D01*
X151055163Y-69470584D01*
X151142822Y-69339392D01*
X151254392Y-69227822D01*
X151385584Y-69140163D01*
X151385586Y-69140162D01*
X151531358Y-69079781D01*
X151686107Y-69049000D01*
X151843893Y-69049000D01*
X151998642Y-69079781D01*
X151998642Y-69079781D01*
G37*
G36*
X154538642Y-69079781D02*
G01*
X154684414Y-69140162D01*
X154684416Y-69140163D01*
X154815608Y-69227822D01*
X154927178Y-69339392D01*
X155014837Y-69470584D01*
X155014838Y-69470586D01*
X155075219Y-69616358D01*
X155106000Y-69771107D01*
X155106000Y-69928893D01*
X155075219Y-70083642D01*
X155040387Y-70167733D01*
X155014837Y-70229416D01*
X154927178Y-70360608D01*
X154815608Y-70472178D01*
X154684416Y-70559837D01*
X154684415Y-70559838D01*
X154684414Y-70559838D01*
X154538642Y-70620219D01*
X154383893Y-70651000D01*
X154226107Y-70651000D01*
X154071358Y-70620219D01*
X153925586Y-70559838D01*
X153925585Y-70559838D01*
X153925584Y-70559837D01*
X153794392Y-70472178D01*
X153682822Y-70360608D01*
X153595163Y-70229416D01*
X153569613Y-70167733D01*
X153534781Y-70083642D01*
X153504000Y-69928893D01*
X153504000Y-69771107D01*
X153534781Y-69616358D01*
X153595162Y-69470586D01*
X153595163Y-69470584D01*
X153682822Y-69339392D01*
X153794392Y-69227822D01*
X153925584Y-69140163D01*
X153925586Y-69140162D01*
X154071358Y-69079781D01*
X154226107Y-69049000D01*
X154383893Y-69049000D01*
X154538642Y-69079781D01*
X154538642Y-69079781D01*
G37*
G36*
X141838642Y-69079781D02*
G01*
X141984414Y-69140162D01*
X141984416Y-69140163D01*
X142115608Y-69227822D01*
X142227178Y-69339392D01*
X142314837Y-69470584D01*
X142314838Y-69470586D01*
X142375219Y-69616358D01*
X142406000Y-69771107D01*
X142406000Y-69928893D01*
X142375219Y-70083642D01*
X142340387Y-70167733D01*
X142314837Y-70229416D01*
X142227178Y-70360608D01*
X142115608Y-70472178D01*
X141984416Y-70559837D01*
X141984415Y-70559838D01*
X141984414Y-70559838D01*
X141838642Y-70620219D01*
X141683893Y-70651000D01*
X141526107Y-70651000D01*
X141371358Y-70620219D01*
X141225586Y-70559838D01*
X141225585Y-70559838D01*
X141225584Y-70559837D01*
X141094392Y-70472178D01*
X140982822Y-70360608D01*
X140895163Y-70229416D01*
X140869613Y-70167733D01*
X140834781Y-70083642D01*
X140804000Y-69928893D01*
X140804000Y-69771107D01*
X140834781Y-69616358D01*
X140895162Y-69470586D01*
X140895163Y-69470584D01*
X140982822Y-69339392D01*
X141094392Y-69227822D01*
X141225584Y-69140163D01*
X141225586Y-69140162D01*
X141371358Y-69079781D01*
X141526107Y-69049000D01*
X141683893Y-69049000D01*
X141838642Y-69079781D01*
X141838642Y-69079781D01*
G37*
G36*
X149458642Y-66539781D02*
G01*
X149604414Y-66600162D01*
X149604416Y-66600163D01*
X149735608Y-66687822D01*
X149847178Y-66799392D01*
X149934837Y-66930584D01*
X149934838Y-66930586D01*
X149995219Y-67076358D01*
X150026000Y-67231107D01*
X150026000Y-67388893D01*
X149995219Y-67543642D01*
X149934838Y-67689414D01*
X149934837Y-67689416D01*
X149847178Y-67820608D01*
X149735608Y-67932178D01*
X149604416Y-68019837D01*
X149604415Y-68019838D01*
X149604414Y-68019838D01*
X149458642Y-68080219D01*
X149303893Y-68111000D01*
X149146107Y-68111000D01*
X148991358Y-68080219D01*
X148845586Y-68019838D01*
X148845585Y-68019838D01*
X148845584Y-68019837D01*
X148714392Y-67932178D01*
X148602822Y-67820608D01*
X148515163Y-67689416D01*
X148515162Y-67689414D01*
X148454781Y-67543642D01*
X148424000Y-67388893D01*
X148424000Y-67231107D01*
X148454781Y-67076358D01*
X148515162Y-66930586D01*
X148515163Y-66930584D01*
X148602822Y-66799392D01*
X148714392Y-66687822D01*
X148845584Y-66600163D01*
X148845586Y-66600162D01*
X148991358Y-66539781D01*
X149146107Y-66509000D01*
X149303893Y-66509000D01*
X149458642Y-66539781D01*
X149458642Y-66539781D01*
G37*
G36*
X151998642Y-66539781D02*
G01*
X152144414Y-66600162D01*
X152144416Y-66600163D01*
X152275608Y-66687822D01*
X152387178Y-66799392D01*
X152474837Y-66930584D01*
X152474838Y-66930586D01*
X152535219Y-67076358D01*
X152566000Y-67231107D01*
X152566000Y-67388893D01*
X152535219Y-67543642D01*
X152474838Y-67689414D01*
X152474837Y-67689416D01*
X152387178Y-67820608D01*
X152275608Y-67932178D01*
X152144416Y-68019837D01*
X152144415Y-68019838D01*
X152144414Y-68019838D01*
X151998642Y-68080219D01*
X151843893Y-68111000D01*
X151686107Y-68111000D01*
X151531358Y-68080219D01*
X151385586Y-68019838D01*
X151385585Y-68019838D01*
X151385584Y-68019837D01*
X151254392Y-67932178D01*
X151142822Y-67820608D01*
X151055163Y-67689416D01*
X151055162Y-67689414D01*
X150994781Y-67543642D01*
X150964000Y-67388893D01*
X150964000Y-67231107D01*
X150994781Y-67076358D01*
X151055162Y-66930586D01*
X151055163Y-66930584D01*
X151142822Y-66799392D01*
X151254392Y-66687822D01*
X151385584Y-66600163D01*
X151385586Y-66600162D01*
X151531358Y-66539781D01*
X151686107Y-66509000D01*
X151843893Y-66509000D01*
X151998642Y-66539781D01*
X151998642Y-66539781D01*
G37*
G36*
X141838642Y-66539781D02*
G01*
X141984414Y-66600162D01*
X141984416Y-66600163D01*
X142115608Y-66687822D01*
X142227178Y-66799392D01*
X142314837Y-66930584D01*
X142314838Y-66930586D01*
X142375219Y-67076358D01*
X142406000Y-67231107D01*
X142406000Y-67388893D01*
X142375219Y-67543642D01*
X142314838Y-67689414D01*
X142314837Y-67689416D01*
X142227178Y-67820608D01*
X142115608Y-67932178D01*
X141984416Y-68019837D01*
X141984415Y-68019838D01*
X141984414Y-68019838D01*
X141838642Y-68080219D01*
X141683893Y-68111000D01*
X141526107Y-68111000D01*
X141371358Y-68080219D01*
X141225586Y-68019838D01*
X141225585Y-68019838D01*
X141225584Y-68019837D01*
X141094392Y-67932178D01*
X140982822Y-67820608D01*
X140895163Y-67689416D01*
X140895162Y-67689414D01*
X140834781Y-67543642D01*
X140804000Y-67388893D01*
X140804000Y-67231107D01*
X140834781Y-67076358D01*
X140895162Y-66930586D01*
X140895163Y-66930584D01*
X140982822Y-66799392D01*
X141094392Y-66687822D01*
X141225584Y-66600163D01*
X141225586Y-66600162D01*
X141371358Y-66539781D01*
X141526107Y-66509000D01*
X141683893Y-66509000D01*
X141838642Y-66539781D01*
X141838642Y-66539781D01*
G37*
G36*
X146918642Y-66539781D02*
G01*
X147064414Y-66600162D01*
X147064416Y-66600163D01*
X147195608Y-66687822D01*
X147307178Y-66799392D01*
X147394837Y-66930584D01*
X147394838Y-66930586D01*
X147455219Y-67076358D01*
X147486000Y-67231107D01*
X147486000Y-67388893D01*
X147455219Y-67543642D01*
X147394838Y-67689414D01*
X147394837Y-67689416D01*
X147307178Y-67820608D01*
X147195608Y-67932178D01*
X147064416Y-68019837D01*
X147064415Y-68019838D01*
X147064414Y-68019838D01*
X146918642Y-68080219D01*
X146763893Y-68111000D01*
X146606107Y-68111000D01*
X146451358Y-68080219D01*
X146305586Y-68019838D01*
X146305585Y-68019838D01*
X146305584Y-68019837D01*
X146174392Y-67932178D01*
X146062822Y-67820608D01*
X145975163Y-67689416D01*
X145975162Y-67689414D01*
X145914781Y-67543642D01*
X145884000Y-67388893D01*
X145884000Y-67231107D01*
X145914781Y-67076358D01*
X145975162Y-66930586D01*
X145975163Y-66930584D01*
X146062822Y-66799392D01*
X146174392Y-66687822D01*
X146305584Y-66600163D01*
X146305586Y-66600162D01*
X146451358Y-66539781D01*
X146606107Y-66509000D01*
X146763893Y-66509000D01*
X146918642Y-66539781D01*
X146918642Y-66539781D01*
G37*
G36*
X144378642Y-66539781D02*
G01*
X144524414Y-66600162D01*
X144524416Y-66600163D01*
X144655608Y-66687822D01*
X144767178Y-66799392D01*
X144854837Y-66930584D01*
X144854838Y-66930586D01*
X144915219Y-67076358D01*
X144946000Y-67231107D01*
X144946000Y-67388893D01*
X144915219Y-67543642D01*
X144854838Y-67689414D01*
X144854837Y-67689416D01*
X144767178Y-67820608D01*
X144655608Y-67932178D01*
X144524416Y-68019837D01*
X144524415Y-68019838D01*
X144524414Y-68019838D01*
X144378642Y-68080219D01*
X144223893Y-68111000D01*
X144066107Y-68111000D01*
X143911358Y-68080219D01*
X143765586Y-68019838D01*
X143765585Y-68019838D01*
X143765584Y-68019837D01*
X143634392Y-67932178D01*
X143522822Y-67820608D01*
X143435163Y-67689416D01*
X143435162Y-67689414D01*
X143374781Y-67543642D01*
X143344000Y-67388893D01*
X143344000Y-67231107D01*
X143374781Y-67076358D01*
X143435162Y-66930586D01*
X143435163Y-66930584D01*
X143522822Y-66799392D01*
X143634392Y-66687822D01*
X143765584Y-66600163D01*
X143765586Y-66600162D01*
X143911358Y-66539781D01*
X144066107Y-66509000D01*
X144223893Y-66509000D01*
X144378642Y-66539781D01*
X144378642Y-66539781D01*
G37*
G36*
X154538642Y-66539781D02*
G01*
X154684414Y-66600162D01*
X154684416Y-66600163D01*
X154815608Y-66687822D01*
X154927178Y-66799392D01*
X155014837Y-66930584D01*
X155014838Y-66930586D01*
X155075219Y-67076358D01*
X155106000Y-67231107D01*
X155106000Y-67388893D01*
X155075219Y-67543642D01*
X155014838Y-67689414D01*
X155014837Y-67689416D01*
X154927178Y-67820608D01*
X154815608Y-67932178D01*
X154684416Y-68019837D01*
X154684415Y-68019838D01*
X154684414Y-68019838D01*
X154538642Y-68080219D01*
X154383893Y-68111000D01*
X154226107Y-68111000D01*
X154071358Y-68080219D01*
X153925586Y-68019838D01*
X153925585Y-68019838D01*
X153925584Y-68019837D01*
X153794392Y-67932178D01*
X153682822Y-67820608D01*
X153595163Y-67689416D01*
X153595162Y-67689414D01*
X153534781Y-67543642D01*
X153504000Y-67388893D01*
X153504000Y-67231107D01*
X153534781Y-67076358D01*
X153595162Y-66930586D01*
X153595163Y-66930584D01*
X153682822Y-66799392D01*
X153794392Y-66687822D01*
X153925584Y-66600163D01*
X153925586Y-66600162D01*
X154071358Y-66539781D01*
X154226107Y-66509000D01*
X154383893Y-66509000D01*
X154538642Y-66539781D01*
X154538642Y-66539781D01*
G37*
M02*
