M48
; DRILL file {KiCad (5.1.0-9-gc61ec8ee3)} date 3/28/2019 8:20:35 PM
; FORMAT={-:-/ absolute / inch / decimal}
; #@! TF.CreationDate,2019-03-28T20:20:35-04:00
; #@! TF.GenerationSoftware,Kicad,Pcbnew,(5.1.0-9-gc61ec8ee3)
FMAT,2
INCH
T1C0.0120
T2C0.0394
T3C0.1250
T4C0.0354
%
G90
G05
T1
X5.065Y-2.85
X5.115Y-2.85
X5.115Y-3.065
X5.125Y-3.915
X5.165Y-2.85
X5.165Y-3.065
X5.315Y-3.195
X5.325Y-2.955
X5.425Y-2.955
X5.425Y-3.26
X5.43Y-3.8
X5.43Y-3.865
X5.455Y-3.145
X5.46Y-3.645
X5.475Y-3.555
X5.505Y-3.055
X5.525Y-2.715
X5.53Y-3.61
X5.575Y-3.5
X5.575Y-3.94
X5.58Y-3.735
X5.58Y-3.815
X5.59Y-2.865
X5.6Y-3.025
X5.625Y-3.22
X5.6396Y-4.1559
X5.64Y-3.085
X5.64Y-4.09
X5.655Y-2.845
X5.66Y-3.005
X5.665Y-4.125
X5.67Y-3.575
X5.67Y-4.06
X5.68Y-3.845
X5.68Y-3.915
X5.71Y-3.4
X5.725Y-4.015
X5.785Y-4.015
X5.8Y-3.04
X5.8Y-3.09
X5.805Y-3.255
X5.865Y-3.37
X5.88Y-4.02
X5.8801Y-2.8945
X5.89Y-3.48
X5.905Y-3.355
X5.92Y-3.085
X5.92Y-3.13
X5.92Y-3.185
X5.935Y-3.01
X5.935Y-3.525
X5.96Y-3.79
X5.97Y-4.02
X5.9751Y-3.4849
X5.9785Y-3.3139
X6.005Y-2.865
X6.005Y-3.44
X6.015Y-3.79
X6.02Y-3.33
X6.04Y-2.885
X6.045Y-4.12
X6.075Y-3.02
X6.075Y-3.08
X6.075Y-3.13
X6.075Y-3.18
X6.08Y-3.585
X6.105Y-3.44
X6.145Y-3.95
X6.15Y-2.895
X6.155Y-3.315
X6.16Y-3.28
X6.175Y-3.89
X6.175Y-4.155
X6.18Y-4.11
X6.215Y-3.13
X6.215Y-3.37
X6.225Y-3.085
X6.225Y-3.255
X6.225Y-3.585
X6.225Y-3.685
X6.235Y-3.305
X6.26Y-3.765
X6.295Y-3.0523
X6.2955Y-3.797
X6.2972Y-3.739
X6.32Y-3.285
X6.335Y-2.945
X6.39Y-3.365
X6.405Y-3.585
X6.405Y-3.685
X6.45Y-3.22
T2
X6.075Y-2.75
X5.73Y-2.955
X5.875Y-2.65
X5.775Y-2.75
X5.575Y-2.65
X6.075Y-2.65
X5.73Y-3.155
X5.675Y-2.65
X5.875Y-2.75
X5.24Y-3.335
X5.24Y-3.435
X5.24Y-3.535
X5.24Y-3.635
X5.24Y-3.735
X5.34Y-3.335
X5.34Y-3.435
X5.34Y-3.535
X5.34Y-3.635
X5.34Y-3.735
X5.575Y-2.75
X5.675Y-2.75
X5.975Y-2.65
X5.73Y-3.055
X5.975Y-2.75
X5.775Y-2.65
T3
X5.325Y-4.0
X5.3Y-2.75
X6.3Y-4.0
X6.3Y-2.75
T4
X5.8385Y-3.971
X6.0116Y-3.971
T0
M30
