G04 #@! TF.GenerationSoftware,KiCad,Pcbnew,(5.1.0-9-gc61ec8ee3)*
G04 #@! TF.CreationDate,2019-03-28T20:20:23-04:00*
G04 #@! TF.ProjectId,MPG_PSoC,4d50475f-5053-46f4-932e-6b696361645f,rev?*
G04 #@! TF.SameCoordinates,Original*
G04 #@! TF.FileFunction,Copper,L1,Top*
G04 #@! TF.FilePolarity,Positive*
%FSLAX46Y46*%
G04 Gerber Fmt 4.6, Leading zero omitted, Abs format (unit mm)*
G04 Created by KiCad (PCBNEW (5.1.0-9-gc61ec8ee3)) date 2019-03-28 20:20:23*
%MOMM*%
%LPD*%
G04 APERTURE LIST*
%ADD10R,5.000000X5.000000*%
%ADD11O,0.200000X1.000000*%
%ADD12O,1.000000X0.200000*%
%ADD13R,0.599440X1.998980*%
%ADD14C,6.350000*%
%ADD15R,0.700000X0.900000*%
%ADD16R,0.900000X0.700000*%
%ADD17R,1.200000X2.500000*%
%ADD18R,2.500000X1.200000*%
%ADD19R,0.950000X0.900000*%
%ADD20R,1.600000X1.600000*%
%ADD21C,1.600000*%
%ADD22R,2.197100X2.197100*%
%ADD23R,0.497840X2.197100*%
%ADD24C,0.899160*%
%ADD25R,3.810000X1.524000*%
%ADD26R,0.599440X1.000760*%
%ADD27C,1.500000*%
%ADD28C,0.762000*%
%ADD29C,0.203200*%
%ADD30C,0.635000*%
%ADD31C,0.889000*%
%ADD32C,0.304800*%
%ADD33C,0.508000*%
%ADD34C,0.254000*%
G04 APERTURE END LIST*
D10*
X152527000Y-78867000D03*
D11*
X149327000Y-74767000D03*
X149727000Y-74767000D03*
X150127000Y-74767000D03*
X150527000Y-74767000D03*
X150927000Y-74767000D03*
X151327000Y-74767000D03*
X151727000Y-74767000D03*
X152127000Y-74767000D03*
X152527000Y-74767000D03*
X152927000Y-74767000D03*
X153327000Y-74767000D03*
X153727000Y-74767000D03*
X154127000Y-74767000D03*
X154527000Y-74767000D03*
X154927000Y-74767000D03*
X155327000Y-74767000D03*
X155727000Y-74767000D03*
D12*
X156627000Y-75667000D03*
X156627000Y-76067000D03*
X156627000Y-76467000D03*
X156627000Y-76867000D03*
X156627000Y-77267000D03*
X156627000Y-77667000D03*
X156627000Y-78067000D03*
X156627000Y-78467000D03*
X156627000Y-78867000D03*
X156627000Y-79267000D03*
X156627000Y-79667000D03*
X156627000Y-80067000D03*
X156627000Y-80467000D03*
X156627000Y-80867000D03*
X156627000Y-81267000D03*
X156627000Y-81667000D03*
X156627000Y-82067000D03*
D11*
X155727000Y-82967000D03*
X155327000Y-82967000D03*
X154927000Y-82967000D03*
X154527000Y-82967000D03*
X154127000Y-82967000D03*
X153727000Y-82967000D03*
X153327000Y-82967000D03*
X152927000Y-82967000D03*
X152527000Y-82967000D03*
X152127000Y-82967000D03*
X151727000Y-82967000D03*
X151327000Y-82967000D03*
X150927000Y-82967000D03*
X150527000Y-82967000D03*
X150127000Y-82967000D03*
X149727000Y-82967000D03*
X149327000Y-82967000D03*
D12*
X148427000Y-82067000D03*
X148427000Y-81667000D03*
X148427000Y-81267000D03*
X148427000Y-80867000D03*
X148427000Y-80467000D03*
X148427000Y-80067000D03*
X148427000Y-79667000D03*
X148427000Y-79267000D03*
X148427000Y-78867000D03*
X148427000Y-78467000D03*
X148427000Y-78067000D03*
X148427000Y-77667000D03*
X148427000Y-77267000D03*
X148427000Y-76867000D03*
X148427000Y-76467000D03*
X148427000Y-76067000D03*
X148427000Y-75667000D03*
D13*
X143256000Y-79883000D03*
X141986000Y-79883000D03*
X140716000Y-79883000D03*
X139446000Y-79883000D03*
X139446000Y-74295000D03*
X140716000Y-74295000D03*
X141986000Y-74295000D03*
X143256000Y-74295000D03*
D14*
X160020000Y-101600000D03*
X160020000Y-69850000D03*
X135255000Y-101600000D03*
X134620000Y-69850000D03*
D15*
X144907000Y-90805000D03*
X146407000Y-90805000D03*
D16*
X137795000Y-77700000D03*
X137795000Y-76200000D03*
D17*
X145034000Y-88392000D03*
X148034000Y-88392000D03*
D18*
X135255000Y-79248000D03*
X135255000Y-76248000D03*
D19*
X148082000Y-94862000D03*
X148082000Y-90812000D03*
D20*
X133096000Y-94869000D03*
D21*
X135636000Y-94869000D03*
X133096000Y-92329000D03*
X135636000Y-92329000D03*
X133096000Y-89789000D03*
X135636000Y-89789000D03*
X133096000Y-87249000D03*
X135636000Y-87249000D03*
X133096000Y-84709000D03*
X135636000Y-84709000D03*
D22*
X154924760Y-98615500D03*
D23*
X148897340Y-98336100D03*
X149697440Y-98336100D03*
X150495000Y-98336100D03*
X151292560Y-98336100D03*
X152092660Y-98336100D03*
D24*
X148297900Y-100863400D03*
X152694640Y-100863400D03*
D22*
X146065240Y-98615500D03*
X146065240Y-104114600D03*
X154924760Y-104114600D03*
D25*
X166751000Y-102743000D03*
X166751000Y-99949000D03*
X166751000Y-97155000D03*
X166751000Y-94361000D03*
X166751000Y-91567000D03*
X166751000Y-88773000D03*
X166751000Y-85979000D03*
X166751000Y-83185000D03*
X166751000Y-80391000D03*
X166751000Y-77597000D03*
X166751000Y-74803000D03*
X166751000Y-72009000D03*
X166751000Y-69215000D03*
D26*
X161480500Y-86400640D03*
X160528000Y-84287360D03*
X159575500Y-86400640D03*
D16*
X150241000Y-90729000D03*
X150241000Y-92329000D03*
X151765000Y-92329000D03*
X151765000Y-90729000D03*
D15*
X162560000Y-81788000D03*
X160960000Y-81788000D03*
D27*
X144145000Y-69850000D03*
X144145000Y-67310000D03*
X146685000Y-69850000D03*
X146685000Y-67310000D03*
X149225000Y-69850000D03*
X149225000Y-67310000D03*
X151765000Y-69850000D03*
X151765000Y-67310000D03*
X154305000Y-69850000D03*
X154305000Y-67310000D03*
D13*
X132461000Y-74168000D03*
X131191000Y-74168000D03*
X129921000Y-74168000D03*
X128651000Y-74168000D03*
X128651000Y-79756000D03*
X129921000Y-79756000D03*
X131191000Y-79756000D03*
X132461000Y-79756000D03*
D27*
X141605000Y-69850000D03*
X141605000Y-67310000D03*
D16*
X139065000Y-67806000D03*
X139065000Y-66306000D03*
X139065000Y-70688000D03*
X139065000Y-69088000D03*
D15*
X144450000Y-73152000D03*
X146050000Y-73152000D03*
D27*
X145542000Y-75057000D03*
X145542000Y-77597000D03*
X145542000Y-80137000D03*
D28*
X153543000Y-104648000D03*
X154305000Y-80772000D03*
X150368000Y-78359000D03*
X154305000Y-78232000D03*
X154305000Y-79502000D03*
X162306000Y-85471000D03*
X147320000Y-77216000D03*
X147320000Y-78486000D03*
X128651000Y-72390000D03*
X129921000Y-72390000D03*
X131191000Y-72390000D03*
X135255000Y-75057000D03*
X138557000Y-79883000D03*
X141986000Y-72771000D03*
X152781000Y-96266000D03*
X151384000Y-96266000D03*
X150368000Y-79502000D03*
X150749000Y-76454000D03*
X154305000Y-76708000D03*
X157861000Y-85598000D03*
X145034000Y-86360000D03*
X144017984Y-90804984D03*
X156337002Y-84201000D03*
X149606000Y-88392000D03*
X152527000Y-87376000D03*
X148971000Y-85598000D03*
X154432000Y-91059000D03*
X141732000Y-96901000D03*
X144272000Y-99441000D03*
X141605000Y-100076000D03*
X145415000Y-101981000D03*
X146939000Y-101981000D03*
X158115000Y-91059000D03*
X137922000Y-98171000D03*
X162687000Y-93599000D03*
X137922000Y-96520000D03*
X162687000Y-91059000D03*
X158115000Y-93599000D03*
X156972000Y-104394000D03*
X150368000Y-80899000D03*
X156464000Y-83312000D03*
X158369000Y-83947000D03*
X155067000Y-87376000D03*
X130175000Y-99441000D03*
X135001000Y-81153000D03*
X137795000Y-82804000D03*
X137795000Y-75057000D03*
X141605000Y-88900000D03*
X151638000Y-102108000D03*
X149352000Y-102108000D03*
X156845000Y-98806000D03*
X156083000Y-100330000D03*
X144272000Y-97663000D03*
X143764000Y-76327000D03*
X142875000Y-81788000D03*
X151853975Y-84173494D03*
X158115000Y-82677000D03*
X158115000Y-78359000D03*
X156210000Y-73533000D03*
X152527000Y-72771000D03*
X149354517Y-73520414D03*
X141732000Y-94869000D03*
X139827000Y-77597000D03*
X147447000Y-82677028D03*
X143256000Y-78359000D03*
X157861000Y-79502000D03*
X152908000Y-84582000D03*
X153416000Y-73278978D03*
X143891000Y-104775008D03*
X159905494Y-96443387D03*
X143246596Y-105559564D03*
X138684008Y-92583000D03*
X156845000Y-105537000D03*
X144018000Y-103124012D03*
X140462020Y-91694000D03*
X159948534Y-94970564D03*
X143256006Y-103886000D03*
X139065000Y-90297000D03*
X159004000Y-95630974D03*
X131191000Y-77851000D03*
X129921000Y-77851000D03*
X160528000Y-83439000D03*
X163830000Y-81788000D03*
X159893000Y-77527400D03*
X160909000Y-74803000D03*
X150749000Y-89535000D03*
X151767898Y-88516305D03*
X149987000Y-85217000D03*
X142240000Y-76835012D03*
X140335000Y-68961000D03*
X143637000Y-72263000D03*
D29*
X161480500Y-86400640D02*
X161480500Y-86296500D01*
X161480500Y-86296500D02*
X162306000Y-85471000D01*
X148427000Y-77267000D02*
X147371000Y-77267000D01*
X147371000Y-77267000D02*
X147320000Y-77216000D01*
X148427000Y-78467000D02*
X147339000Y-78467000D01*
X147339000Y-78467000D02*
X147320000Y-78486000D01*
X147701000Y-78867000D02*
X147320000Y-78486000D01*
X148427000Y-78867000D02*
X147701000Y-78867000D01*
X147739000Y-78067000D02*
X147320000Y-78486000D01*
X148427000Y-78067000D02*
X147739000Y-78067000D01*
D30*
X128651000Y-74168000D02*
X128651000Y-72390000D01*
X129921000Y-74168000D02*
X129921000Y-72390000D01*
X131191000Y-74168000D02*
X131191000Y-72390000D01*
X135255000Y-76248000D02*
X135255000Y-75057000D01*
X139446000Y-79883000D02*
X138557000Y-79883000D01*
X141986000Y-74295000D02*
X141986000Y-72771000D01*
X152092660Y-98336100D02*
X152092660Y-96954340D01*
X152092660Y-96954340D02*
X152781000Y-96266000D01*
X151292560Y-98336100D02*
X151292560Y-96357440D01*
X151292560Y-96357440D02*
X151384000Y-96266000D01*
D29*
X152127000Y-79267000D02*
X152527000Y-78867000D01*
X152127000Y-82967000D02*
X152127000Y-79267000D01*
D31*
X145034000Y-88392000D02*
X145034000Y-86360000D01*
X144907000Y-90805000D02*
X144906984Y-90804984D01*
X144556799Y-90804984D02*
X144017984Y-90804984D01*
X144906984Y-90804984D02*
X144556799Y-90804984D01*
X144907000Y-88519000D02*
X145034000Y-88392000D01*
X144907000Y-90805000D02*
X144907000Y-88519000D01*
D29*
X153327000Y-78067000D02*
X152527000Y-78867000D01*
X156627000Y-78067000D02*
X153327000Y-78067000D01*
X156627000Y-78867000D02*
X152527000Y-78867000D01*
X153347590Y-78046410D02*
X152527000Y-78867000D01*
X153347590Y-74926419D02*
X153347590Y-78046410D01*
X153327000Y-74767000D02*
X153327000Y-74905829D01*
X153327000Y-74905829D02*
X153347590Y-74926419D01*
X150927000Y-77267000D02*
X152527000Y-78867000D01*
X148427000Y-77267000D02*
X150927000Y-77267000D01*
D30*
X134747000Y-79756000D02*
X135255000Y-79248000D01*
X132461000Y-79756000D02*
X134747000Y-79756000D01*
D31*
X135255000Y-79248000D02*
X136525000Y-79248000D01*
X136525000Y-79248000D02*
X138176000Y-77597000D01*
D30*
X146414000Y-90812000D02*
X146407000Y-90805000D01*
X148082000Y-90812000D02*
X146414000Y-90812000D01*
X148082000Y-88440000D02*
X148034000Y-88392000D01*
X148082000Y-90812000D02*
X148082000Y-88440000D01*
D29*
X151727000Y-84046519D02*
X151853975Y-84173494D01*
X151727000Y-82967000D02*
X151727000Y-84046519D01*
X156627000Y-82067000D02*
X157505000Y-82067000D01*
X157505000Y-82067000D02*
X158115000Y-82677000D01*
X156627000Y-78467000D02*
X158007000Y-78467000D01*
X158007000Y-78467000D02*
X158115000Y-78359000D01*
X156210000Y-73884000D02*
X156210000Y-73533000D01*
X155727000Y-74767000D02*
X155727000Y-74367000D01*
X155727000Y-74367000D02*
X156210000Y-73884000D01*
X152527000Y-73367372D02*
X152527000Y-72771000D01*
X152927000Y-74767000D02*
X152927000Y-73767372D01*
X152927000Y-73767372D02*
X152527000Y-73367372D01*
X149727000Y-73892897D02*
X149354517Y-73520414D01*
X149727000Y-74767000D02*
X149727000Y-73892897D01*
D30*
X159086000Y-82677000D02*
X158115000Y-82677000D01*
X160960000Y-81788000D02*
X159975000Y-81788000D01*
X159975000Y-81788000D02*
X159086000Y-82677000D01*
D31*
X146407000Y-92144000D02*
X143682000Y-94869000D01*
X146407000Y-90805000D02*
X146407000Y-92144000D01*
X143682000Y-94869000D02*
X141732000Y-94869000D01*
X138176000Y-77597000D02*
X139827000Y-77597000D01*
D29*
X147447000Y-82647000D02*
X147447000Y-82677028D01*
X148427000Y-82067000D02*
X148027000Y-82067000D01*
X148027000Y-82067000D02*
X147447000Y-82647000D01*
D31*
X148034000Y-86253000D02*
X147447000Y-85666000D01*
X147447000Y-85666000D02*
X147447000Y-82677028D01*
X148034000Y-88392000D02*
X148034000Y-86253000D01*
D30*
X143256000Y-79883000D02*
X143256000Y-78359000D01*
D29*
X140003000Y-69850000D02*
X141605000Y-69850000D01*
X139065000Y-70688000D02*
X139165000Y-70688000D01*
X139165000Y-70688000D02*
X140003000Y-69850000D01*
D31*
X142875000Y-77978000D02*
X143256000Y-78359000D01*
X139827000Y-77597000D02*
X140208000Y-77978000D01*
X140208000Y-77978000D02*
X142875000Y-77978000D01*
D29*
X157626000Y-79267000D02*
X157861000Y-79502000D01*
X156627000Y-79267000D02*
X157626000Y-79267000D01*
X152527000Y-82967000D02*
X152527001Y-84201001D01*
X152527001Y-84201001D02*
X152908000Y-84582000D01*
X153727000Y-74767000D02*
X153727000Y-73589978D01*
X153727000Y-73589978D02*
X153416000Y-73278978D01*
X138772396Y-91694000D02*
X138176000Y-91694000D01*
X139446000Y-92367604D02*
X138772396Y-91694000D01*
X139446000Y-101092000D02*
X139446000Y-92367604D01*
X143891000Y-104775008D02*
X143129008Y-104775008D01*
X143129008Y-104775008D02*
X139446000Y-101092000D01*
X164211000Y-99949000D02*
X166751000Y-99949000D01*
X163703000Y-99441000D02*
X164211000Y-99949000D01*
X163703000Y-98044000D02*
X163703000Y-99441000D01*
X162052000Y-96393000D02*
X163703000Y-98044000D01*
X159905494Y-96443387D02*
X159955881Y-96393000D01*
X159955881Y-96393000D02*
X162052000Y-96393000D01*
X134366000Y-93599000D02*
X133096000Y-92329000D01*
X138176000Y-91694000D02*
X136271000Y-93599000D01*
X136271000Y-93599000D02*
X134366000Y-93599000D01*
X148427000Y-81667000D02*
X147279490Y-81667000D01*
X147279490Y-81667000D02*
X146142457Y-82804033D01*
X146142457Y-82804033D02*
X145033967Y-82804033D01*
X138176000Y-89662000D02*
X138176000Y-91694000D01*
X145033967Y-82804033D02*
X138176000Y-89662000D01*
X138938000Y-101250968D02*
X138938000Y-93375807D01*
X143246596Y-105559564D02*
X138938000Y-101250968D01*
X138938000Y-93375807D02*
X138684008Y-93121815D01*
X138684008Y-93121815D02*
X138684008Y-92583000D01*
X157383815Y-105537000D02*
X156845000Y-105537000D01*
X161848800Y-105537000D02*
X157383815Y-105537000D01*
X164642800Y-102743000D02*
X161848800Y-105537000D01*
X166751000Y-102743000D02*
X164642800Y-102743000D01*
X136435999Y-91529001D02*
X135636000Y-92329000D01*
X137668000Y-90297000D02*
X136435999Y-91529001D01*
X137668000Y-89535000D02*
X137668000Y-90297000D01*
X144779978Y-82423022D02*
X137668000Y-89535000D01*
X145984638Y-82423022D02*
X144779978Y-82423022D01*
X147140660Y-81267000D02*
X145984638Y-82423022D01*
X148427000Y-81267000D02*
X147140660Y-81267000D01*
X140462020Y-92232815D02*
X140462020Y-91694000D01*
X140462020Y-100838020D02*
X140462020Y-92232815D01*
X144018000Y-103124012D02*
X142748012Y-103124012D01*
X142748012Y-103124012D02*
X140462020Y-100838020D01*
X159973970Y-94996000D02*
X159948534Y-94970564D01*
X162560000Y-94996000D02*
X159973970Y-94996000D01*
X166751000Y-94361000D02*
X163195000Y-94361000D01*
X163195000Y-94361000D02*
X162560000Y-94996000D01*
X148427000Y-80867000D02*
X147001830Y-80867000D01*
X147001830Y-80867000D02*
X145826819Y-82042011D01*
X145826819Y-82042011D02*
X144525991Y-82042011D01*
X144525991Y-82042011D02*
X137033000Y-89535002D01*
X137033000Y-89535002D02*
X137033000Y-90297000D01*
X134366000Y-91059000D02*
X133895999Y-90588999D01*
X133895999Y-90588999D02*
X133096000Y-89789000D01*
X136271000Y-91059000D02*
X134366000Y-91059000D01*
X137033000Y-90297000D02*
X136271000Y-91059000D01*
X139065000Y-90835815D02*
X139065000Y-90297000D01*
X139065000Y-91313000D02*
X139065000Y-90835815D01*
X139954000Y-92202000D02*
X139065000Y-91313000D01*
X139954000Y-100965000D02*
X139954000Y-92202000D01*
X143256006Y-103886000D02*
X142875000Y-103886000D01*
X142875000Y-103886000D02*
X139954000Y-100965000D01*
X159542815Y-95630974D02*
X159004000Y-95630974D01*
X162559974Y-95630974D02*
X159542815Y-95630974D01*
X166751000Y-97155000D02*
X164084000Y-97155000D01*
X164084000Y-97155000D02*
X162559974Y-95630974D01*
X136240172Y-89789000D02*
X135636000Y-89789000D01*
X144368172Y-81661000D02*
X136240172Y-89789000D01*
X145669000Y-81661000D02*
X144368172Y-81661000D01*
X146883590Y-80446410D02*
X145669000Y-81661000D01*
X148010410Y-80446410D02*
X146883590Y-80446410D01*
X148031000Y-80467000D02*
X148010410Y-80446410D01*
X148427000Y-80467000D02*
X148031000Y-80467000D01*
D32*
X133895999Y-88048999D02*
X133096000Y-87249000D01*
X134366000Y-88519000D02*
X133895999Y-88048999D01*
X136398000Y-88519000D02*
X134366000Y-88519000D01*
X141986000Y-79883000D02*
X141986000Y-82931000D01*
X141986000Y-82931000D02*
X136398000Y-88519000D01*
X140716000Y-82169000D02*
X140716000Y-79883000D01*
X135636000Y-87249000D02*
X140716000Y-82169000D01*
X131191000Y-82804000D02*
X133096000Y-84709000D01*
X131191000Y-79756000D02*
X131191000Y-82804000D01*
X131191000Y-79756000D02*
X131191000Y-77851000D01*
X129921000Y-81060290D02*
X129921000Y-79756000D01*
X129921000Y-83693000D02*
X129921000Y-81060290D01*
X132207000Y-85979000D02*
X129921000Y-83693000D01*
X135636000Y-84709000D02*
X134366000Y-85979000D01*
X134366000Y-85979000D02*
X132207000Y-85979000D01*
X129921000Y-79756000D02*
X129921000Y-77851000D01*
X149697440Y-98336100D02*
X149697440Y-94777560D01*
X150241000Y-94234000D02*
X150241000Y-92329000D01*
X149697440Y-94777560D02*
X150241000Y-94234000D01*
X160528000Y-84287360D02*
X160528000Y-83439000D01*
X162560000Y-81788000D02*
X163830000Y-81788000D01*
D29*
X164642800Y-88773000D02*
X166751000Y-88773000D01*
X157861000Y-88773000D02*
X164642800Y-88773000D01*
X153727000Y-82967000D02*
X153727000Y-84639000D01*
X153727000Y-84639000D02*
X157861000Y-88773000D01*
X154127000Y-83487125D02*
X154127000Y-82967000D01*
X154127000Y-84465659D02*
X154127000Y-83487125D01*
X158053330Y-88391989D02*
X154127000Y-84465659D01*
X161925011Y-88391989D02*
X158053330Y-88391989D01*
X166751000Y-85979000D02*
X164338000Y-85979000D01*
X164338000Y-85979000D02*
X161925011Y-88391989D01*
X164465000Y-83185000D02*
X166751000Y-83185000D01*
X164084000Y-83566000D02*
X164465000Y-83185000D01*
X154529197Y-82969197D02*
X154529197Y-84329026D01*
X154527000Y-82967000D02*
X154529197Y-82969197D01*
X154529197Y-84329026D02*
X158211149Y-88010978D01*
X158211149Y-88010978D02*
X161513192Y-88010978D01*
X161513192Y-88010978D02*
X164084000Y-85440170D01*
X164084000Y-85440170D02*
X164084000Y-83566000D01*
X164084000Y-80391000D02*
X164642800Y-80391000D01*
X164642800Y-80391000D02*
X166751000Y-80391000D01*
X160560000Y-76867000D02*
X164084000Y-80391000D01*
X156627000Y-76867000D02*
X160560000Y-76867000D01*
X164642800Y-77597000D02*
X166751000Y-77597000D01*
X162179000Y-77597000D02*
X164642800Y-77597000D01*
X156627000Y-76467000D02*
X161049000Y-76467000D01*
X161049000Y-76467000D02*
X162179000Y-77597000D01*
X164642800Y-74803000D02*
X166751000Y-74803000D01*
X163576000Y-74803000D02*
X164642800Y-74803000D01*
X156627000Y-76067000D02*
X162312000Y-76067000D01*
X162312000Y-76067000D02*
X163576000Y-74803000D01*
X164642800Y-72009000D02*
X166751000Y-72009000D01*
X156627000Y-75667000D02*
X160984800Y-75667000D01*
X160984800Y-75667000D02*
X164642800Y-72009000D01*
X158636000Y-81267000D02*
X156627000Y-81267000D01*
X159893000Y-77527400D02*
X159893000Y-80010000D01*
X159893000Y-80010000D02*
X158636000Y-81267000D01*
X163830000Y-71882000D02*
X160909000Y-74803000D01*
X163830000Y-69469000D02*
X163830000Y-71882000D01*
X166751000Y-69215000D02*
X164084000Y-69215000D01*
X164084000Y-69215000D02*
X163830000Y-69469000D01*
X154927000Y-84188000D02*
X157139640Y-86400640D01*
X154927000Y-82967000D02*
X154927000Y-84188000D01*
X157139640Y-86400640D02*
X159575500Y-86400640D01*
X150241000Y-90729000D02*
X150241000Y-90043000D01*
X150241000Y-90043000D02*
X150368001Y-89915999D01*
X150368001Y-89915999D02*
X150749000Y-89535000D01*
X151327000Y-83723075D02*
X151193574Y-83856501D01*
X151193574Y-87941981D02*
X151386899Y-88135306D01*
X151327000Y-82967000D02*
X151327000Y-83723075D01*
X151193574Y-83856501D02*
X151193574Y-87941981D01*
X151386899Y-88135306D02*
X151767898Y-88516305D01*
X150812563Y-88582563D02*
X151765000Y-89535000D01*
X150927000Y-83584245D02*
X150812563Y-83698682D01*
X151765000Y-89535000D02*
X151765000Y-90175800D01*
X150927000Y-82967000D02*
X150927000Y-83584245D01*
X151765000Y-90175800D02*
X151765000Y-90729000D01*
X150812563Y-83698682D02*
X150812563Y-88582563D01*
X148971000Y-74295000D02*
X148463000Y-73787000D01*
X148463000Y-73787000D02*
X148463000Y-72963340D01*
X148463000Y-72963340D02*
X147000638Y-71500978D01*
X147000638Y-71500978D02*
X145795978Y-71500978D01*
X144894999Y-70599999D02*
X144145000Y-69850000D01*
X145795978Y-71500978D02*
X144894999Y-70599999D01*
X149345990Y-74295000D02*
X148971000Y-74295000D01*
X144894999Y-68059999D02*
X144145000Y-67310000D01*
X145415000Y-68580000D02*
X144894999Y-68059999D01*
X145415000Y-70144122D02*
X145415000Y-68580000D01*
X146263878Y-70993000D02*
X145415000Y-70144122D01*
X150127000Y-73121550D02*
X149209850Y-72204400D01*
X150127000Y-74767000D02*
X150127000Y-73121550D01*
X149209850Y-72204400D02*
X148267600Y-72204400D01*
X148267600Y-72204400D02*
X148267600Y-72194600D01*
X148267600Y-72194600D02*
X147066000Y-70993000D01*
X147066000Y-70993000D02*
X146263878Y-70993000D01*
X148526500Y-71691500D02*
X146685000Y-69850000D01*
X148590000Y-71755000D02*
X148526500Y-71691500D01*
X149352000Y-71755000D02*
X148590000Y-71755000D01*
X150527000Y-74767000D02*
X150527000Y-72930000D01*
X150527000Y-72930000D02*
X149352000Y-71755000D01*
X147434999Y-68059999D02*
X146685000Y-67310000D01*
X150927000Y-72441000D02*
X149760532Y-71274532D01*
X150927000Y-74767000D02*
X150927000Y-72441000D01*
X149760532Y-71274532D02*
X148816468Y-71274532D01*
X148816468Y-71274532D02*
X147955000Y-70413065D01*
X147955000Y-70413065D02*
X147955000Y-68580000D01*
X147955000Y-68580000D02*
X147434999Y-68059999D01*
X151327000Y-71952000D02*
X149225000Y-69850000D01*
X151327000Y-74767000D02*
X151327000Y-71952000D01*
X150495000Y-68580000D02*
X149225000Y-67310000D01*
X150495000Y-70485000D02*
X150495000Y-68580000D01*
X151727000Y-74767000D02*
X151727000Y-71717000D01*
X151727000Y-71717000D02*
X150495000Y-70485000D01*
X152514999Y-70599999D02*
X151765000Y-69850000D01*
X154127000Y-74767000D02*
X154127000Y-72212000D01*
X154127000Y-72212000D02*
X152514999Y-70599999D01*
X152514999Y-68059999D02*
X151765000Y-67310000D01*
X153035000Y-68580000D02*
X152514999Y-68059999D01*
X153035000Y-70103514D02*
X153035000Y-68580000D01*
X154527000Y-74767000D02*
X154527000Y-71595514D01*
X154527000Y-71595514D02*
X153035000Y-70103514D01*
X154927000Y-70472000D02*
X154305000Y-69850000D01*
X154927000Y-74767000D02*
X154927000Y-70472000D01*
X155054999Y-68059999D02*
X154305000Y-67310000D01*
X155956000Y-68961000D02*
X155054999Y-68059999D01*
X155956000Y-70739000D02*
X155956000Y-68961000D01*
X155327000Y-74767000D02*
X155327000Y-71368000D01*
X155327000Y-71368000D02*
X155956000Y-70739000D01*
X150127000Y-85077000D02*
X149987000Y-85217000D01*
X150127000Y-82967000D02*
X150127000Y-85077000D01*
X141701185Y-76835012D02*
X142240000Y-76835012D01*
X139446000Y-74994770D02*
X141286242Y-76835012D01*
X141286242Y-76835012D02*
X141701185Y-76835012D01*
X139446000Y-74295000D02*
X139446000Y-74994770D01*
X147568000Y-76067000D02*
X148427000Y-76067000D01*
X147066000Y-75565000D02*
X147568000Y-76067000D01*
X147066000Y-72644000D02*
X147066000Y-75565000D01*
X146685000Y-72263000D02*
X147066000Y-72644000D01*
X145161000Y-72263000D02*
X146685000Y-72263000D01*
X144406434Y-71508434D02*
X145161000Y-72263000D01*
X141724566Y-71508434D02*
X144406434Y-71508434D01*
X140716000Y-72517000D02*
X141724566Y-71508434D01*
X140716000Y-74295000D02*
X140716000Y-72517000D01*
X147930000Y-75667000D02*
X148427000Y-75667000D01*
X147574000Y-75311000D02*
X147930000Y-75667000D01*
X147574000Y-72613170D02*
X147574000Y-75311000D01*
X137287000Y-74168000D02*
X140335000Y-71120000D01*
X132461000Y-74168000D02*
X137287000Y-74168000D01*
X140335000Y-71120000D02*
X144780000Y-71120000D01*
X144780000Y-71120000D02*
X145541989Y-71881989D01*
X145541989Y-71881989D02*
X146842819Y-71881989D01*
X146842819Y-71881989D02*
X147574000Y-72613170D01*
D32*
X151765000Y-92983800D02*
X151765000Y-92329000D01*
X151765000Y-93980000D02*
X151765000Y-92983800D01*
X150495000Y-98336100D02*
X150495000Y-95250000D01*
X150495000Y-95250000D02*
X151765000Y-93980000D01*
D33*
X148897340Y-95550340D02*
X148209000Y-94862000D01*
X148897340Y-98336100D02*
X148897340Y-95550340D01*
X148770340Y-95550340D02*
X148082000Y-94862000D01*
X148897340Y-95550340D02*
X148770340Y-95550340D01*
D29*
X140208000Y-69088000D02*
X140335000Y-68961000D01*
X139065000Y-69088000D02*
X140208000Y-69088000D01*
X139065000Y-67806000D02*
X139065000Y-69088000D01*
X144450000Y-73076000D02*
X143637000Y-72263000D01*
X144450000Y-73152000D02*
X144450000Y-73076000D01*
X145796000Y-74803000D02*
X145542000Y-75057000D01*
X146050000Y-73152000D02*
X145796000Y-73406000D01*
X145796000Y-73406000D02*
X145796000Y-74803000D01*
X145796000Y-75057000D02*
X145542000Y-75057000D01*
X146659599Y-75920599D02*
X145796000Y-75057000D01*
X146659599Y-78802993D02*
X146659599Y-75920599D01*
X148427000Y-79267000D02*
X147123606Y-79267000D01*
X147123606Y-79267000D02*
X146659599Y-78802993D01*
X145542000Y-77597000D02*
X145796000Y-77851000D01*
X145796000Y-78537512D02*
X145796000Y-78359000D01*
X146923888Y-79665400D02*
X145796000Y-78537512D01*
X148427000Y-79665400D02*
X146923888Y-79665400D01*
X145796000Y-77851000D02*
X145796000Y-78359000D01*
X145632590Y-80046410D02*
X145542000Y-80137000D01*
X148427000Y-80067000D02*
X148406410Y-80046410D01*
X148406410Y-80046410D02*
X145632590Y-80046410D01*
D34*
G36*
X168194617Y-67942543D02*
G01*
X164846000Y-67942543D01*
X164746415Y-67952351D01*
X164650657Y-67981399D01*
X164562405Y-68028571D01*
X164485052Y-68092052D01*
X164421571Y-68169405D01*
X164374399Y-68257657D01*
X164345351Y-68353415D01*
X164335543Y-68453000D01*
X164335543Y-68605400D01*
X164113938Y-68605400D01*
X164083999Y-68602451D01*
X164054060Y-68605400D01*
X164054059Y-68605400D01*
X163964498Y-68614221D01*
X163849588Y-68649079D01*
X163743686Y-68705684D01*
X163650862Y-68781862D01*
X163631765Y-68805132D01*
X163578009Y-68858888D01*
X163561464Y-68775709D01*
X163283832Y-68105446D01*
X162880773Y-67502225D01*
X162367775Y-66989227D01*
X161764554Y-66586168D01*
X161094291Y-66308536D01*
X160382744Y-66167000D01*
X159657256Y-66167000D01*
X158945709Y-66308536D01*
X158275446Y-66586168D01*
X157672225Y-66989227D01*
X157159227Y-67502225D01*
X156756168Y-68105446D01*
X156508941Y-68702304D01*
X156483583Y-68654862D01*
X156465316Y-68620686D01*
X156389138Y-68527862D01*
X156365873Y-68508769D01*
X155517873Y-67660770D01*
X155563000Y-67433902D01*
X155563000Y-67186098D01*
X155514656Y-66943055D01*
X155419825Y-66714114D01*
X155282152Y-66508072D01*
X155106928Y-66332848D01*
X154900886Y-66195175D01*
X154671945Y-66100344D01*
X154428902Y-66052000D01*
X154181098Y-66052000D01*
X153938055Y-66100344D01*
X153709114Y-66195175D01*
X153503072Y-66332848D01*
X153327848Y-66508072D01*
X153190175Y-66714114D01*
X153095344Y-66943055D01*
X153047000Y-67186098D01*
X153047000Y-67433902D01*
X153095344Y-67676945D01*
X153166971Y-67849867D01*
X152977873Y-67660770D01*
X153023000Y-67433902D01*
X153023000Y-67186098D01*
X152974656Y-66943055D01*
X152879825Y-66714114D01*
X152742152Y-66508072D01*
X152566928Y-66332848D01*
X152360886Y-66195175D01*
X152131945Y-66100344D01*
X151888902Y-66052000D01*
X151641098Y-66052000D01*
X151398055Y-66100344D01*
X151169114Y-66195175D01*
X150963072Y-66332848D01*
X150787848Y-66508072D01*
X150650175Y-66714114D01*
X150555344Y-66943055D01*
X150507000Y-67186098D01*
X150507000Y-67433902D01*
X150555344Y-67676945D01*
X150626971Y-67849867D01*
X150437873Y-67660770D01*
X150483000Y-67433902D01*
X150483000Y-67186098D01*
X150434656Y-66943055D01*
X150339825Y-66714114D01*
X150202152Y-66508072D01*
X150026928Y-66332848D01*
X149820886Y-66195175D01*
X149591945Y-66100344D01*
X149348902Y-66052000D01*
X149101098Y-66052000D01*
X148858055Y-66100344D01*
X148629114Y-66195175D01*
X148423072Y-66332848D01*
X148247848Y-66508072D01*
X148110175Y-66714114D01*
X148015344Y-66943055D01*
X147967000Y-67186098D01*
X147967000Y-67433902D01*
X148015344Y-67676945D01*
X148086971Y-67849867D01*
X147897873Y-67660770D01*
X147943000Y-67433902D01*
X147943000Y-67186098D01*
X147894656Y-66943055D01*
X147799825Y-66714114D01*
X147662152Y-66508072D01*
X147486928Y-66332848D01*
X147280886Y-66195175D01*
X147051945Y-66100344D01*
X146808902Y-66052000D01*
X146561098Y-66052000D01*
X146318055Y-66100344D01*
X146089114Y-66195175D01*
X145883072Y-66332848D01*
X145707848Y-66508072D01*
X145570175Y-66714114D01*
X145475344Y-66943055D01*
X145427000Y-67186098D01*
X145427000Y-67433902D01*
X145475344Y-67676945D01*
X145546971Y-67849867D01*
X145357873Y-67660770D01*
X145403000Y-67433902D01*
X145403000Y-67186098D01*
X145354656Y-66943055D01*
X145259825Y-66714114D01*
X145122152Y-66508072D01*
X144946928Y-66332848D01*
X144740886Y-66195175D01*
X144511945Y-66100344D01*
X144268902Y-66052000D01*
X144021098Y-66052000D01*
X143778055Y-66100344D01*
X143549114Y-66195175D01*
X143343072Y-66332848D01*
X143167848Y-66508072D01*
X143030175Y-66714114D01*
X142935344Y-66943055D01*
X142887000Y-67186098D01*
X142887000Y-67433902D01*
X142935344Y-67676945D01*
X143030175Y-67905886D01*
X143167848Y-68111928D01*
X143343072Y-68287152D01*
X143549114Y-68424825D01*
X143778055Y-68519656D01*
X144021098Y-68568000D01*
X144268902Y-68568000D01*
X144495770Y-68522873D01*
X144684867Y-68711971D01*
X144511945Y-68640344D01*
X144268902Y-68592000D01*
X144021098Y-68592000D01*
X143778055Y-68640344D01*
X143549114Y-68735175D01*
X143343072Y-68872848D01*
X143167848Y-69048072D01*
X143030175Y-69254114D01*
X142935344Y-69483055D01*
X142887000Y-69726098D01*
X142887000Y-69973902D01*
X142935344Y-70216945D01*
X143030175Y-70445886D01*
X143073282Y-70510400D01*
X142676718Y-70510400D01*
X142719825Y-70445886D01*
X142814656Y-70216945D01*
X142863000Y-69973902D01*
X142863000Y-69726098D01*
X142814656Y-69483055D01*
X142719825Y-69254114D01*
X142582152Y-69048072D01*
X142406928Y-68872848D01*
X142200886Y-68735175D01*
X141971945Y-68640344D01*
X141728902Y-68592000D01*
X141481098Y-68592000D01*
X141238055Y-68640344D01*
X141175209Y-68666376D01*
X141122821Y-68539901D01*
X141025531Y-68394296D01*
X140901704Y-68270469D01*
X140756099Y-68173179D01*
X140594312Y-68106164D01*
X140422559Y-68072000D01*
X140247441Y-68072000D01*
X140075688Y-68106164D01*
X140025457Y-68126971D01*
X140025457Y-67456000D01*
X140015649Y-67356415D01*
X139986601Y-67260657D01*
X139939429Y-67172405D01*
X139875948Y-67095052D01*
X139798595Y-67031571D01*
X139710343Y-66984399D01*
X139614585Y-66955351D01*
X139515000Y-66945543D01*
X138615000Y-66945543D01*
X138515415Y-66955351D01*
X138419657Y-66984399D01*
X138331405Y-67031571D01*
X138254052Y-67095052D01*
X138190571Y-67172405D01*
X138143399Y-67260657D01*
X138114351Y-67356415D01*
X138104543Y-67456000D01*
X138104543Y-68156000D01*
X138114351Y-68255585D01*
X138143399Y-68351343D01*
X138190571Y-68439595D01*
X138196648Y-68447000D01*
X138190571Y-68454405D01*
X138143399Y-68542657D01*
X138114351Y-68638415D01*
X138112477Y-68657444D01*
X137883832Y-68105446D01*
X137480773Y-67502225D01*
X136967775Y-66989227D01*
X136364554Y-66586168D01*
X135694291Y-66308536D01*
X134982744Y-66167000D01*
X134257256Y-66167000D01*
X133545709Y-66308536D01*
X132875446Y-66586168D01*
X132272225Y-66989227D01*
X131759227Y-67502225D01*
X131356168Y-68105446D01*
X131078536Y-68775709D01*
X130937000Y-69487256D01*
X130937000Y-70212744D01*
X131078536Y-70924291D01*
X131356168Y-71594554D01*
X131759227Y-72197775D01*
X132219505Y-72658053D01*
X132161280Y-72658053D01*
X132061695Y-72667861D01*
X131965937Y-72696909D01*
X131877685Y-72744081D01*
X131800332Y-72807562D01*
X131736851Y-72884915D01*
X131689679Y-72973167D01*
X131660631Y-73068925D01*
X131650823Y-73168510D01*
X131650823Y-75167490D01*
X131660631Y-75267075D01*
X131689679Y-75362833D01*
X131736851Y-75451085D01*
X131800332Y-75528438D01*
X131877685Y-75591919D01*
X131965937Y-75639091D01*
X132061695Y-75668139D01*
X132161280Y-75677947D01*
X132760720Y-75677947D01*
X132860305Y-75668139D01*
X132956063Y-75639091D01*
X133044315Y-75591919D01*
X133121668Y-75528438D01*
X133185149Y-75451085D01*
X133232321Y-75362833D01*
X133261369Y-75267075D01*
X133271177Y-75167490D01*
X133271177Y-74777600D01*
X137257059Y-74777600D01*
X137287000Y-74780549D01*
X137316941Y-74777600D01*
X137406502Y-74768779D01*
X137521412Y-74733921D01*
X137627314Y-74677316D01*
X137720138Y-74601138D01*
X137739235Y-74577868D01*
X138635823Y-73681280D01*
X138635823Y-75294490D01*
X138645631Y-75394075D01*
X138674679Y-75489833D01*
X138721851Y-75578085D01*
X138785332Y-75655438D01*
X138862685Y-75718919D01*
X138950937Y-75766091D01*
X139046695Y-75795139D01*
X139146280Y-75804947D01*
X139394074Y-75804947D01*
X140614626Y-77025500D01*
X140602538Y-77025500D01*
X140533608Y-76956570D01*
X140503778Y-76920222D01*
X140358741Y-76801194D01*
X140193269Y-76712748D01*
X140013723Y-76658283D01*
X139873785Y-76644500D01*
X139827000Y-76639892D01*
X139780215Y-76644500D01*
X138222785Y-76644500D01*
X138176000Y-76639892D01*
X138129215Y-76644500D01*
X137989277Y-76658283D01*
X137919173Y-76679549D01*
X137809730Y-76712748D01*
X137759533Y-76739579D01*
X137644259Y-76801194D01*
X137597530Y-76839543D01*
X137345000Y-76839543D01*
X137245415Y-76849351D01*
X137149657Y-76878399D01*
X137061405Y-76925571D01*
X136984052Y-76989052D01*
X136920571Y-77066405D01*
X136873399Y-77154657D01*
X136844351Y-77250415D01*
X136834543Y-77350000D01*
X136834543Y-77591419D01*
X136288419Y-78137543D01*
X134005000Y-78137543D01*
X133905415Y-78147351D01*
X133809657Y-78176399D01*
X133721405Y-78223571D01*
X133644052Y-78287052D01*
X133580571Y-78364405D01*
X133533399Y-78452657D01*
X133504351Y-78548415D01*
X133494543Y-78648000D01*
X133494543Y-78930500D01*
X133271177Y-78930500D01*
X133271177Y-78756510D01*
X133261369Y-78656925D01*
X133232321Y-78561167D01*
X133185149Y-78472915D01*
X133121668Y-78395562D01*
X133044315Y-78332081D01*
X132956063Y-78284909D01*
X132860305Y-78255861D01*
X132760720Y-78246053D01*
X132161280Y-78246053D01*
X132061695Y-78255861D01*
X131971361Y-78283264D01*
X131978821Y-78272099D01*
X132045836Y-78110312D01*
X132080000Y-77938559D01*
X132080000Y-77763441D01*
X132045836Y-77591688D01*
X131978821Y-77429901D01*
X131881531Y-77284296D01*
X131757704Y-77160469D01*
X131612099Y-77063179D01*
X131450312Y-76996164D01*
X131278559Y-76962000D01*
X131103441Y-76962000D01*
X130931688Y-76996164D01*
X130769901Y-77063179D01*
X130624296Y-77160469D01*
X130556000Y-77228765D01*
X130487704Y-77160469D01*
X130342099Y-77063179D01*
X130180312Y-76996164D01*
X130008559Y-76962000D01*
X129833441Y-76962000D01*
X129661688Y-76996164D01*
X129499901Y-77063179D01*
X129354296Y-77160469D01*
X129230469Y-77284296D01*
X129133179Y-77429901D01*
X129066164Y-77591688D01*
X129032000Y-77763441D01*
X129032000Y-77938559D01*
X129066164Y-78110312D01*
X129133179Y-78272099D01*
X129230469Y-78417704D01*
X129236891Y-78424126D01*
X129196851Y-78472915D01*
X129149679Y-78561167D01*
X129120631Y-78656925D01*
X129110823Y-78756510D01*
X129110823Y-80755490D01*
X129120631Y-80855075D01*
X129149679Y-80950833D01*
X129196851Y-81039085D01*
X129260332Y-81116438D01*
X129260601Y-81116659D01*
X129260600Y-83660561D01*
X129257405Y-83693000D01*
X129267412Y-83794600D01*
X129270156Y-83822460D01*
X129307918Y-83946946D01*
X129369241Y-84061673D01*
X129451767Y-84162233D01*
X129476972Y-84182918D01*
X131717086Y-86423033D01*
X131737767Y-86448233D01*
X131838326Y-86530759D01*
X131953053Y-86592082D01*
X131960343Y-86594293D01*
X131936865Y-86629430D01*
X131838266Y-86867470D01*
X131788000Y-87120173D01*
X131788000Y-87377827D01*
X131838266Y-87630530D01*
X131936865Y-87868570D01*
X132080010Y-88082801D01*
X132262199Y-88264990D01*
X132476430Y-88408135D01*
X132714470Y-88506734D01*
X132776135Y-88519000D01*
X132714470Y-88531266D01*
X132476430Y-88629865D01*
X132262199Y-88773010D01*
X132080010Y-88955199D01*
X131936865Y-89169430D01*
X131838266Y-89407470D01*
X131788000Y-89660173D01*
X131788000Y-89917827D01*
X131838266Y-90170530D01*
X131936865Y-90408570D01*
X132080010Y-90622801D01*
X132262199Y-90804990D01*
X132476430Y-90948135D01*
X132714470Y-91046734D01*
X132776135Y-91059000D01*
X132714470Y-91071266D01*
X132476430Y-91169865D01*
X132262199Y-91313010D01*
X132080010Y-91495199D01*
X131936865Y-91709430D01*
X131838266Y-91947470D01*
X131788000Y-92200173D01*
X131788000Y-92457827D01*
X131838266Y-92710530D01*
X131936865Y-92948570D01*
X132080010Y-93162801D01*
X132262199Y-93344990D01*
X132476430Y-93488135D01*
X132714470Y-93586734D01*
X132967173Y-93637000D01*
X133224827Y-93637000D01*
X133477530Y-93586734D01*
X133487500Y-93582604D01*
X133913769Y-94008873D01*
X133932862Y-94032138D01*
X134025686Y-94108316D01*
X134131588Y-94164921D01*
X134246498Y-94199779D01*
X134336059Y-94208600D01*
X134336060Y-94208600D01*
X134365999Y-94211549D01*
X134395938Y-94208600D01*
X134504147Y-94208600D01*
X134476865Y-94249430D01*
X134378266Y-94487470D01*
X134328000Y-94740173D01*
X134328000Y-94997827D01*
X134378266Y-95250530D01*
X134476865Y-95488570D01*
X134620010Y-95702801D01*
X134802199Y-95884990D01*
X135016430Y-96028135D01*
X135254470Y-96126734D01*
X135507173Y-96177000D01*
X135764827Y-96177000D01*
X136017530Y-96126734D01*
X136255570Y-96028135D01*
X136469801Y-95884990D01*
X136651990Y-95702801D01*
X136795135Y-95488570D01*
X136893734Y-95250530D01*
X136944000Y-94997827D01*
X136944000Y-94740173D01*
X136893734Y-94487470D01*
X136795135Y-94249430D01*
X136669137Y-94060862D01*
X136704138Y-94032138D01*
X136723235Y-94008868D01*
X137846927Y-92885176D01*
X137896187Y-93004099D01*
X137993477Y-93149704D01*
X138083026Y-93239253D01*
X138083229Y-93241317D01*
X138087776Y-93256305D01*
X138118087Y-93356226D01*
X138174692Y-93462128D01*
X138250870Y-93554953D01*
X138274140Y-93574050D01*
X138328401Y-93628311D01*
X138328400Y-99570444D01*
X138115773Y-99252225D01*
X137602775Y-98739227D01*
X136999554Y-98336168D01*
X136329291Y-98058536D01*
X135617744Y-97917000D01*
X134892256Y-97917000D01*
X134180709Y-98058536D01*
X133510446Y-98336168D01*
X132907225Y-98739227D01*
X132394227Y-99252225D01*
X131991168Y-99855446D01*
X131713536Y-100525709D01*
X131572000Y-101237256D01*
X131572000Y-101962744D01*
X131713536Y-102674291D01*
X131991168Y-103344554D01*
X132394227Y-103947775D01*
X132907225Y-104460773D01*
X133510446Y-104863832D01*
X134180709Y-105141464D01*
X134892256Y-105283000D01*
X135617744Y-105283000D01*
X136329291Y-105141464D01*
X136999554Y-104863832D01*
X137602775Y-104460773D01*
X138115773Y-103947775D01*
X138518832Y-103344554D01*
X138796464Y-102674291D01*
X138913059Y-102088130D01*
X142357596Y-105532668D01*
X142357596Y-105647123D01*
X142391760Y-105818876D01*
X142432819Y-105918000D01*
X127808617Y-105918000D01*
X127808617Y-65532000D01*
X168194617Y-65532000D01*
X168194617Y-67942543D01*
X168194617Y-67942543D01*
G37*
X168194617Y-67942543D02*
X164846000Y-67942543D01*
X164746415Y-67952351D01*
X164650657Y-67981399D01*
X164562405Y-68028571D01*
X164485052Y-68092052D01*
X164421571Y-68169405D01*
X164374399Y-68257657D01*
X164345351Y-68353415D01*
X164335543Y-68453000D01*
X164335543Y-68605400D01*
X164113938Y-68605400D01*
X164083999Y-68602451D01*
X164054060Y-68605400D01*
X164054059Y-68605400D01*
X163964498Y-68614221D01*
X163849588Y-68649079D01*
X163743686Y-68705684D01*
X163650862Y-68781862D01*
X163631765Y-68805132D01*
X163578009Y-68858888D01*
X163561464Y-68775709D01*
X163283832Y-68105446D01*
X162880773Y-67502225D01*
X162367775Y-66989227D01*
X161764554Y-66586168D01*
X161094291Y-66308536D01*
X160382744Y-66167000D01*
X159657256Y-66167000D01*
X158945709Y-66308536D01*
X158275446Y-66586168D01*
X157672225Y-66989227D01*
X157159227Y-67502225D01*
X156756168Y-68105446D01*
X156508941Y-68702304D01*
X156483583Y-68654862D01*
X156465316Y-68620686D01*
X156389138Y-68527862D01*
X156365873Y-68508769D01*
X155517873Y-67660770D01*
X155563000Y-67433902D01*
X155563000Y-67186098D01*
X155514656Y-66943055D01*
X155419825Y-66714114D01*
X155282152Y-66508072D01*
X155106928Y-66332848D01*
X154900886Y-66195175D01*
X154671945Y-66100344D01*
X154428902Y-66052000D01*
X154181098Y-66052000D01*
X153938055Y-66100344D01*
X153709114Y-66195175D01*
X153503072Y-66332848D01*
X153327848Y-66508072D01*
X153190175Y-66714114D01*
X153095344Y-66943055D01*
X153047000Y-67186098D01*
X153047000Y-67433902D01*
X153095344Y-67676945D01*
X153166971Y-67849867D01*
X152977873Y-67660770D01*
X153023000Y-67433902D01*
X153023000Y-67186098D01*
X152974656Y-66943055D01*
X152879825Y-66714114D01*
X152742152Y-66508072D01*
X152566928Y-66332848D01*
X152360886Y-66195175D01*
X152131945Y-66100344D01*
X151888902Y-66052000D01*
X151641098Y-66052000D01*
X151398055Y-66100344D01*
X151169114Y-66195175D01*
X150963072Y-66332848D01*
X150787848Y-66508072D01*
X150650175Y-66714114D01*
X150555344Y-66943055D01*
X150507000Y-67186098D01*
X150507000Y-67433902D01*
X150555344Y-67676945D01*
X150626971Y-67849867D01*
X150437873Y-67660770D01*
X150483000Y-67433902D01*
X150483000Y-67186098D01*
X150434656Y-66943055D01*
X150339825Y-66714114D01*
X150202152Y-66508072D01*
X150026928Y-66332848D01*
X149820886Y-66195175D01*
X149591945Y-66100344D01*
X149348902Y-66052000D01*
X149101098Y-66052000D01*
X148858055Y-66100344D01*
X148629114Y-66195175D01*
X148423072Y-66332848D01*
X148247848Y-66508072D01*
X148110175Y-66714114D01*
X148015344Y-66943055D01*
X147967000Y-67186098D01*
X147967000Y-67433902D01*
X148015344Y-67676945D01*
X148086971Y-67849867D01*
X147897873Y-67660770D01*
X147943000Y-67433902D01*
X147943000Y-67186098D01*
X147894656Y-66943055D01*
X147799825Y-66714114D01*
X147662152Y-66508072D01*
X147486928Y-66332848D01*
X147280886Y-66195175D01*
X147051945Y-66100344D01*
X146808902Y-66052000D01*
X146561098Y-66052000D01*
X146318055Y-66100344D01*
X146089114Y-66195175D01*
X145883072Y-66332848D01*
X145707848Y-66508072D01*
X145570175Y-66714114D01*
X145475344Y-66943055D01*
X145427000Y-67186098D01*
X145427000Y-67433902D01*
X145475344Y-67676945D01*
X145546971Y-67849867D01*
X145357873Y-67660770D01*
X145403000Y-67433902D01*
X145403000Y-67186098D01*
X145354656Y-66943055D01*
X145259825Y-66714114D01*
X145122152Y-66508072D01*
X144946928Y-66332848D01*
X144740886Y-66195175D01*
X144511945Y-66100344D01*
X144268902Y-66052000D01*
X144021098Y-66052000D01*
X143778055Y-66100344D01*
X143549114Y-66195175D01*
X143343072Y-66332848D01*
X143167848Y-66508072D01*
X143030175Y-66714114D01*
X142935344Y-66943055D01*
X142887000Y-67186098D01*
X142887000Y-67433902D01*
X142935344Y-67676945D01*
X143030175Y-67905886D01*
X143167848Y-68111928D01*
X143343072Y-68287152D01*
X143549114Y-68424825D01*
X143778055Y-68519656D01*
X144021098Y-68568000D01*
X144268902Y-68568000D01*
X144495770Y-68522873D01*
X144684867Y-68711971D01*
X144511945Y-68640344D01*
X144268902Y-68592000D01*
X144021098Y-68592000D01*
X143778055Y-68640344D01*
X143549114Y-68735175D01*
X143343072Y-68872848D01*
X143167848Y-69048072D01*
X143030175Y-69254114D01*
X142935344Y-69483055D01*
X142887000Y-69726098D01*
X142887000Y-69973902D01*
X142935344Y-70216945D01*
X143030175Y-70445886D01*
X143073282Y-70510400D01*
X142676718Y-70510400D01*
X142719825Y-70445886D01*
X142814656Y-70216945D01*
X142863000Y-69973902D01*
X142863000Y-69726098D01*
X142814656Y-69483055D01*
X142719825Y-69254114D01*
X142582152Y-69048072D01*
X142406928Y-68872848D01*
X142200886Y-68735175D01*
X141971945Y-68640344D01*
X141728902Y-68592000D01*
X141481098Y-68592000D01*
X141238055Y-68640344D01*
X141175209Y-68666376D01*
X141122821Y-68539901D01*
X141025531Y-68394296D01*
X140901704Y-68270469D01*
X140756099Y-68173179D01*
X140594312Y-68106164D01*
X140422559Y-68072000D01*
X140247441Y-68072000D01*
X140075688Y-68106164D01*
X140025457Y-68126971D01*
X140025457Y-67456000D01*
X140015649Y-67356415D01*
X139986601Y-67260657D01*
X139939429Y-67172405D01*
X139875948Y-67095052D01*
X139798595Y-67031571D01*
X139710343Y-66984399D01*
X139614585Y-66955351D01*
X139515000Y-66945543D01*
X138615000Y-66945543D01*
X138515415Y-66955351D01*
X138419657Y-66984399D01*
X138331405Y-67031571D01*
X138254052Y-67095052D01*
X138190571Y-67172405D01*
X138143399Y-67260657D01*
X138114351Y-67356415D01*
X138104543Y-67456000D01*
X138104543Y-68156000D01*
X138114351Y-68255585D01*
X138143399Y-68351343D01*
X138190571Y-68439595D01*
X138196648Y-68447000D01*
X138190571Y-68454405D01*
X138143399Y-68542657D01*
X138114351Y-68638415D01*
X138112477Y-68657444D01*
X137883832Y-68105446D01*
X137480773Y-67502225D01*
X136967775Y-66989227D01*
X136364554Y-66586168D01*
X135694291Y-66308536D01*
X134982744Y-66167000D01*
X134257256Y-66167000D01*
X133545709Y-66308536D01*
X132875446Y-66586168D01*
X132272225Y-66989227D01*
X131759227Y-67502225D01*
X131356168Y-68105446D01*
X131078536Y-68775709D01*
X130937000Y-69487256D01*
X130937000Y-70212744D01*
X131078536Y-70924291D01*
X131356168Y-71594554D01*
X131759227Y-72197775D01*
X132219505Y-72658053D01*
X132161280Y-72658053D01*
X132061695Y-72667861D01*
X131965937Y-72696909D01*
X131877685Y-72744081D01*
X131800332Y-72807562D01*
X131736851Y-72884915D01*
X131689679Y-72973167D01*
X131660631Y-73068925D01*
X131650823Y-73168510D01*
X131650823Y-75167490D01*
X131660631Y-75267075D01*
X131689679Y-75362833D01*
X131736851Y-75451085D01*
X131800332Y-75528438D01*
X131877685Y-75591919D01*
X131965937Y-75639091D01*
X132061695Y-75668139D01*
X132161280Y-75677947D01*
X132760720Y-75677947D01*
X132860305Y-75668139D01*
X132956063Y-75639091D01*
X133044315Y-75591919D01*
X133121668Y-75528438D01*
X133185149Y-75451085D01*
X133232321Y-75362833D01*
X133261369Y-75267075D01*
X133271177Y-75167490D01*
X133271177Y-74777600D01*
X137257059Y-74777600D01*
X137287000Y-74780549D01*
X137316941Y-74777600D01*
X137406502Y-74768779D01*
X137521412Y-74733921D01*
X137627314Y-74677316D01*
X137720138Y-74601138D01*
X137739235Y-74577868D01*
X138635823Y-73681280D01*
X138635823Y-75294490D01*
X138645631Y-75394075D01*
X138674679Y-75489833D01*
X138721851Y-75578085D01*
X138785332Y-75655438D01*
X138862685Y-75718919D01*
X138950937Y-75766091D01*
X139046695Y-75795139D01*
X139146280Y-75804947D01*
X139394074Y-75804947D01*
X140614626Y-77025500D01*
X140602538Y-77025500D01*
X140533608Y-76956570D01*
X140503778Y-76920222D01*
X140358741Y-76801194D01*
X140193269Y-76712748D01*
X140013723Y-76658283D01*
X139873785Y-76644500D01*
X139827000Y-76639892D01*
X139780215Y-76644500D01*
X138222785Y-76644500D01*
X138176000Y-76639892D01*
X138129215Y-76644500D01*
X137989277Y-76658283D01*
X137919173Y-76679549D01*
X137809730Y-76712748D01*
X137759533Y-76739579D01*
X137644259Y-76801194D01*
X137597530Y-76839543D01*
X137345000Y-76839543D01*
X137245415Y-76849351D01*
X137149657Y-76878399D01*
X137061405Y-76925571D01*
X136984052Y-76989052D01*
X136920571Y-77066405D01*
X136873399Y-77154657D01*
X136844351Y-77250415D01*
X136834543Y-77350000D01*
X136834543Y-77591419D01*
X136288419Y-78137543D01*
X134005000Y-78137543D01*
X133905415Y-78147351D01*
X133809657Y-78176399D01*
X133721405Y-78223571D01*
X133644052Y-78287052D01*
X133580571Y-78364405D01*
X133533399Y-78452657D01*
X133504351Y-78548415D01*
X133494543Y-78648000D01*
X133494543Y-78930500D01*
X133271177Y-78930500D01*
X133271177Y-78756510D01*
X133261369Y-78656925D01*
X133232321Y-78561167D01*
X133185149Y-78472915D01*
X133121668Y-78395562D01*
X133044315Y-78332081D01*
X132956063Y-78284909D01*
X132860305Y-78255861D01*
X132760720Y-78246053D01*
X132161280Y-78246053D01*
X132061695Y-78255861D01*
X131971361Y-78283264D01*
X131978821Y-78272099D01*
X132045836Y-78110312D01*
X132080000Y-77938559D01*
X132080000Y-77763441D01*
X132045836Y-77591688D01*
X131978821Y-77429901D01*
X131881531Y-77284296D01*
X131757704Y-77160469D01*
X131612099Y-77063179D01*
X131450312Y-76996164D01*
X131278559Y-76962000D01*
X131103441Y-76962000D01*
X130931688Y-76996164D01*
X130769901Y-77063179D01*
X130624296Y-77160469D01*
X130556000Y-77228765D01*
X130487704Y-77160469D01*
X130342099Y-77063179D01*
X130180312Y-76996164D01*
X130008559Y-76962000D01*
X129833441Y-76962000D01*
X129661688Y-76996164D01*
X129499901Y-77063179D01*
X129354296Y-77160469D01*
X129230469Y-77284296D01*
X129133179Y-77429901D01*
X129066164Y-77591688D01*
X129032000Y-77763441D01*
X129032000Y-77938559D01*
X129066164Y-78110312D01*
X129133179Y-78272099D01*
X129230469Y-78417704D01*
X129236891Y-78424126D01*
X129196851Y-78472915D01*
X129149679Y-78561167D01*
X129120631Y-78656925D01*
X129110823Y-78756510D01*
X129110823Y-80755490D01*
X129120631Y-80855075D01*
X129149679Y-80950833D01*
X129196851Y-81039085D01*
X129260332Y-81116438D01*
X129260601Y-81116659D01*
X129260600Y-83660561D01*
X129257405Y-83693000D01*
X129267412Y-83794600D01*
X129270156Y-83822460D01*
X129307918Y-83946946D01*
X129369241Y-84061673D01*
X129451767Y-84162233D01*
X129476972Y-84182918D01*
X131717086Y-86423033D01*
X131737767Y-86448233D01*
X131838326Y-86530759D01*
X131953053Y-86592082D01*
X131960343Y-86594293D01*
X131936865Y-86629430D01*
X131838266Y-86867470D01*
X131788000Y-87120173D01*
X131788000Y-87377827D01*
X131838266Y-87630530D01*
X131936865Y-87868570D01*
X132080010Y-88082801D01*
X132262199Y-88264990D01*
X132476430Y-88408135D01*
X132714470Y-88506734D01*
X132776135Y-88519000D01*
X132714470Y-88531266D01*
X132476430Y-88629865D01*
X132262199Y-88773010D01*
X132080010Y-88955199D01*
X131936865Y-89169430D01*
X131838266Y-89407470D01*
X131788000Y-89660173D01*
X131788000Y-89917827D01*
X131838266Y-90170530D01*
X131936865Y-90408570D01*
X132080010Y-90622801D01*
X132262199Y-90804990D01*
X132476430Y-90948135D01*
X132714470Y-91046734D01*
X132776135Y-91059000D01*
X132714470Y-91071266D01*
X132476430Y-91169865D01*
X132262199Y-91313010D01*
X132080010Y-91495199D01*
X131936865Y-91709430D01*
X131838266Y-91947470D01*
X131788000Y-92200173D01*
X131788000Y-92457827D01*
X131838266Y-92710530D01*
X131936865Y-92948570D01*
X132080010Y-93162801D01*
X132262199Y-93344990D01*
X132476430Y-93488135D01*
X132714470Y-93586734D01*
X132967173Y-93637000D01*
X133224827Y-93637000D01*
X133477530Y-93586734D01*
X133487500Y-93582604D01*
X133913769Y-94008873D01*
X133932862Y-94032138D01*
X134025686Y-94108316D01*
X134131588Y-94164921D01*
X134246498Y-94199779D01*
X134336059Y-94208600D01*
X134336060Y-94208600D01*
X134365999Y-94211549D01*
X134395938Y-94208600D01*
X134504147Y-94208600D01*
X134476865Y-94249430D01*
X134378266Y-94487470D01*
X134328000Y-94740173D01*
X134328000Y-94997827D01*
X134378266Y-95250530D01*
X134476865Y-95488570D01*
X134620010Y-95702801D01*
X134802199Y-95884990D01*
X135016430Y-96028135D01*
X135254470Y-96126734D01*
X135507173Y-96177000D01*
X135764827Y-96177000D01*
X136017530Y-96126734D01*
X136255570Y-96028135D01*
X136469801Y-95884990D01*
X136651990Y-95702801D01*
X136795135Y-95488570D01*
X136893734Y-95250530D01*
X136944000Y-94997827D01*
X136944000Y-94740173D01*
X136893734Y-94487470D01*
X136795135Y-94249430D01*
X136669137Y-94060862D01*
X136704138Y-94032138D01*
X136723235Y-94008868D01*
X137846927Y-92885176D01*
X137896187Y-93004099D01*
X137993477Y-93149704D01*
X138083026Y-93239253D01*
X138083229Y-93241317D01*
X138087776Y-93256305D01*
X138118087Y-93356226D01*
X138174692Y-93462128D01*
X138250870Y-93554953D01*
X138274140Y-93574050D01*
X138328401Y-93628311D01*
X138328400Y-99570444D01*
X138115773Y-99252225D01*
X137602775Y-98739227D01*
X136999554Y-98336168D01*
X136329291Y-98058536D01*
X135617744Y-97917000D01*
X134892256Y-97917000D01*
X134180709Y-98058536D01*
X133510446Y-98336168D01*
X132907225Y-98739227D01*
X132394227Y-99252225D01*
X131991168Y-99855446D01*
X131713536Y-100525709D01*
X131572000Y-101237256D01*
X131572000Y-101962744D01*
X131713536Y-102674291D01*
X131991168Y-103344554D01*
X132394227Y-103947775D01*
X132907225Y-104460773D01*
X133510446Y-104863832D01*
X134180709Y-105141464D01*
X134892256Y-105283000D01*
X135617744Y-105283000D01*
X136329291Y-105141464D01*
X136999554Y-104863832D01*
X137602775Y-104460773D01*
X138115773Y-103947775D01*
X138518832Y-103344554D01*
X138796464Y-102674291D01*
X138913059Y-102088130D01*
X142357596Y-105532668D01*
X142357596Y-105647123D01*
X142391760Y-105818876D01*
X142432819Y-105918000D01*
X127808617Y-105918000D01*
X127808617Y-65532000D01*
X168194617Y-65532000D01*
X168194617Y-67942543D01*
G36*
X148719000Y-83396861D02*
G01*
X148727798Y-83486189D01*
X148762565Y-83600797D01*
X148819022Y-83706421D01*
X148895000Y-83799001D01*
X148987580Y-83874979D01*
X149093204Y-83931436D01*
X149207812Y-83966202D01*
X149327000Y-83977941D01*
X149446189Y-83966202D01*
X149517400Y-83944600D01*
X149517401Y-84461586D01*
X149420296Y-84526469D01*
X149296469Y-84650296D01*
X149199179Y-84795901D01*
X149132164Y-84957688D01*
X149098000Y-85129441D01*
X149098000Y-85304559D01*
X149132164Y-85476312D01*
X149199179Y-85638099D01*
X149296469Y-85783704D01*
X149420296Y-85907531D01*
X149565901Y-86004821D01*
X149727688Y-86071836D01*
X149899441Y-86106000D01*
X150074559Y-86106000D01*
X150202963Y-86080459D01*
X150202964Y-88552611D01*
X150200014Y-88582563D01*
X150211784Y-88702065D01*
X150233287Y-88772947D01*
X150242733Y-88804086D01*
X150182296Y-88844469D01*
X150058469Y-88968296D01*
X149961179Y-89113901D01*
X149894164Y-89275688D01*
X149860000Y-89447441D01*
X149860000Y-89561897D01*
X149831126Y-89590771D01*
X149807863Y-89609862D01*
X149731685Y-89702686D01*
X149675079Y-89808588D01*
X149650116Y-89890879D01*
X149595657Y-89907399D01*
X149507405Y-89954571D01*
X149430052Y-90018052D01*
X149366571Y-90095405D01*
X149319399Y-90183657D01*
X149290351Y-90279415D01*
X149280543Y-90379000D01*
X149280543Y-91079000D01*
X149290351Y-91178585D01*
X149319399Y-91274343D01*
X149366571Y-91362595D01*
X149430052Y-91439948D01*
X149507405Y-91503429D01*
X149555245Y-91529000D01*
X149507405Y-91554571D01*
X149430052Y-91618052D01*
X149366571Y-91695405D01*
X149319399Y-91783657D01*
X149290351Y-91879415D01*
X149280543Y-91979000D01*
X149280543Y-92679000D01*
X149290351Y-92778585D01*
X149319399Y-92874343D01*
X149366571Y-92962595D01*
X149430052Y-93039948D01*
X149507405Y-93103429D01*
X149580601Y-93142553D01*
X149580600Y-93960453D01*
X149253407Y-94287647D01*
X149228208Y-94308327D01*
X149145682Y-94408886D01*
X149124828Y-94447901D01*
X149084358Y-94523614D01*
X149067457Y-94579330D01*
X149067457Y-94412000D01*
X149057649Y-94312415D01*
X149028601Y-94216657D01*
X148981429Y-94128405D01*
X148917948Y-94051052D01*
X148840595Y-93987571D01*
X148752343Y-93940399D01*
X148656585Y-93911351D01*
X148557000Y-93901543D01*
X147607000Y-93901543D01*
X147507415Y-93911351D01*
X147411657Y-93940399D01*
X147323405Y-93987571D01*
X147246052Y-94051052D01*
X147182571Y-94128405D01*
X147135399Y-94216657D01*
X147106351Y-94312415D01*
X147096543Y-94412000D01*
X147096543Y-95312000D01*
X147106351Y-95411585D01*
X147135399Y-95507343D01*
X147182571Y-95595595D01*
X147246052Y-95672948D01*
X147323405Y-95736429D01*
X147411657Y-95783601D01*
X147507415Y-95812649D01*
X147607000Y-95822457D01*
X147964826Y-95822457D01*
X148135341Y-95992972D01*
X148135340Y-98373525D01*
X148137963Y-98400158D01*
X148137963Y-99434650D01*
X148147771Y-99534235D01*
X148176819Y-99629993D01*
X148223991Y-99718245D01*
X148287472Y-99795598D01*
X148364825Y-99859079D01*
X148453077Y-99906251D01*
X148548835Y-99935299D01*
X148648420Y-99945107D01*
X149146260Y-99945107D01*
X149245845Y-99935299D01*
X149297390Y-99919663D01*
X149348935Y-99935299D01*
X149448520Y-99945107D01*
X149946360Y-99945107D01*
X150045945Y-99935299D01*
X150096220Y-99920048D01*
X150146495Y-99935299D01*
X150246080Y-99945107D01*
X150743920Y-99945107D01*
X150843505Y-99935299D01*
X150939263Y-99906251D01*
X151027515Y-99859079D01*
X151104868Y-99795598D01*
X151168349Y-99718245D01*
X151215521Y-99629993D01*
X151244569Y-99534235D01*
X151254377Y-99434650D01*
X151254377Y-97237550D01*
X151244569Y-97137965D01*
X151215521Y-97042207D01*
X151168349Y-96953955D01*
X151155400Y-96938176D01*
X151155400Y-95523546D01*
X152209029Y-94469917D01*
X152234233Y-94449233D01*
X152316759Y-94348674D01*
X152378082Y-94233947D01*
X152415844Y-94109461D01*
X152425400Y-94012439D01*
X152425400Y-94012438D01*
X152428595Y-93980001D01*
X152425400Y-93947562D01*
X152425400Y-93142553D01*
X152498595Y-93103429D01*
X152575948Y-93039948D01*
X152639429Y-92962595D01*
X152686601Y-92874343D01*
X152715649Y-92778585D01*
X152725457Y-92679000D01*
X152725457Y-91979000D01*
X152715649Y-91879415D01*
X152686601Y-91783657D01*
X152639429Y-91695405D01*
X152575948Y-91618052D01*
X152498595Y-91554571D01*
X152450755Y-91529000D01*
X152498595Y-91503429D01*
X152575948Y-91439948D01*
X152639429Y-91362595D01*
X152686601Y-91274343D01*
X152715649Y-91178585D01*
X152725457Y-91079000D01*
X152725457Y-90379000D01*
X152715649Y-90279415D01*
X152686601Y-90183657D01*
X152639429Y-90095405D01*
X152575948Y-90018052D01*
X152498595Y-89954571D01*
X152410343Y-89907399D01*
X152374600Y-89896556D01*
X152374600Y-89564938D01*
X152377549Y-89534999D01*
X152374600Y-89505059D01*
X152365779Y-89415498D01*
X152330921Y-89300588D01*
X152294966Y-89233320D01*
X152334602Y-89206836D01*
X152458429Y-89083009D01*
X152555719Y-88937404D01*
X152622734Y-88775617D01*
X152656898Y-88603864D01*
X152656898Y-88428746D01*
X152622734Y-88256993D01*
X152555719Y-88095206D01*
X152458429Y-87949601D01*
X152334602Y-87825774D01*
X152188997Y-87728484D01*
X152027210Y-87661469D01*
X151855457Y-87627305D01*
X151803174Y-87627305D01*
X151803174Y-85062494D01*
X151941534Y-85062494D01*
X152113287Y-85028330D01*
X152131889Y-85020625D01*
X152217469Y-85148704D01*
X152341296Y-85272531D01*
X152486901Y-85369821D01*
X152648688Y-85436836D01*
X152820441Y-85471000D01*
X152995559Y-85471000D01*
X153167312Y-85436836D01*
X153329099Y-85369821D01*
X153474704Y-85272531D01*
X153486566Y-85260669D01*
X157408769Y-89182873D01*
X157427862Y-89206138D01*
X157520686Y-89282316D01*
X157626588Y-89338921D01*
X157682438Y-89355863D01*
X157741497Y-89373779D01*
X157861000Y-89385549D01*
X157890941Y-89382600D01*
X164335543Y-89382600D01*
X164335543Y-89535000D01*
X164345351Y-89634585D01*
X164374399Y-89730343D01*
X164421571Y-89818595D01*
X164485052Y-89895948D01*
X164562405Y-89959429D01*
X164650657Y-90006601D01*
X164746415Y-90035649D01*
X164846000Y-90045457D01*
X168194617Y-90045457D01*
X168194617Y-90294543D01*
X164846000Y-90294543D01*
X164746415Y-90304351D01*
X164650657Y-90333399D01*
X164562405Y-90380571D01*
X164485052Y-90444052D01*
X164421571Y-90521405D01*
X164374399Y-90609657D01*
X164345351Y-90705415D01*
X164335543Y-90805000D01*
X164335543Y-92329000D01*
X164345351Y-92428585D01*
X164374399Y-92524343D01*
X164421571Y-92612595D01*
X164485052Y-92689948D01*
X164562405Y-92753429D01*
X164650657Y-92800601D01*
X164746415Y-92829649D01*
X164846000Y-92839457D01*
X168194617Y-92839457D01*
X168194617Y-93088543D01*
X164846000Y-93088543D01*
X164746415Y-93098351D01*
X164650657Y-93127399D01*
X164562405Y-93174571D01*
X164485052Y-93238052D01*
X164421571Y-93315405D01*
X164374399Y-93403657D01*
X164345351Y-93499415D01*
X164335543Y-93599000D01*
X164335543Y-93751400D01*
X163224941Y-93751400D01*
X163195000Y-93748451D01*
X163075497Y-93760221D01*
X162960588Y-93795079D01*
X162854686Y-93851684D01*
X162761862Y-93927862D01*
X162742773Y-93951122D01*
X162307496Y-94386400D01*
X160621605Y-94386400D01*
X160515238Y-94280033D01*
X160369633Y-94182743D01*
X160207846Y-94115728D01*
X160036093Y-94081564D01*
X159860975Y-94081564D01*
X159689222Y-94115728D01*
X159527435Y-94182743D01*
X159381830Y-94280033D01*
X159258003Y-94403860D01*
X159160713Y-94549465D01*
X159093698Y-94711252D01*
X159087587Y-94741974D01*
X158916441Y-94741974D01*
X158744688Y-94776138D01*
X158582901Y-94843153D01*
X158437296Y-94940443D01*
X158313469Y-95064270D01*
X158216179Y-95209875D01*
X158149164Y-95371662D01*
X158115000Y-95543415D01*
X158115000Y-95718533D01*
X158149164Y-95890286D01*
X158216179Y-96052073D01*
X158313469Y-96197678D01*
X158437296Y-96321505D01*
X158582901Y-96418795D01*
X158744688Y-96485810D01*
X158916441Y-96519974D01*
X159016494Y-96519974D01*
X159016494Y-96530946D01*
X159050658Y-96702699D01*
X159117673Y-96864486D01*
X159214963Y-97010091D01*
X159338790Y-97133918D01*
X159484395Y-97231208D01*
X159646182Y-97298223D01*
X159817935Y-97332387D01*
X159993053Y-97332387D01*
X160164806Y-97298223D01*
X160326593Y-97231208D01*
X160472198Y-97133918D01*
X160596025Y-97010091D01*
X160601030Y-97002600D01*
X161799497Y-97002600D01*
X163093400Y-98296505D01*
X163093401Y-99411049D01*
X163090451Y-99441000D01*
X163102221Y-99560502D01*
X163115080Y-99602890D01*
X162880773Y-99252225D01*
X162367775Y-98739227D01*
X161764554Y-98336168D01*
X161094291Y-98058536D01*
X160382744Y-97917000D01*
X159657256Y-97917000D01*
X158945709Y-98058536D01*
X158275446Y-98336168D01*
X157672225Y-98739227D01*
X157159227Y-99252225D01*
X156756168Y-99855446D01*
X156478536Y-100525709D01*
X156337000Y-101237256D01*
X156337000Y-101962744D01*
X156478536Y-102674291D01*
X156756168Y-103344554D01*
X157159227Y-103947775D01*
X157672225Y-104460773D01*
X158275446Y-104863832D01*
X158428913Y-104927400D01*
X157492635Y-104927400D01*
X157411704Y-104846469D01*
X157266099Y-104749179D01*
X157104312Y-104682164D01*
X156932559Y-104648000D01*
X156757441Y-104648000D01*
X156585688Y-104682164D01*
X156423901Y-104749179D01*
X156278296Y-104846469D01*
X156154469Y-104970296D01*
X156057179Y-105115901D01*
X155990164Y-105277688D01*
X155956000Y-105449441D01*
X155956000Y-105624559D01*
X155990164Y-105796312D01*
X156040569Y-105918000D01*
X144060373Y-105918000D01*
X144101432Y-105818876D01*
X144135596Y-105647123D01*
X144135596Y-105632771D01*
X144150312Y-105629844D01*
X144312099Y-105562829D01*
X144457704Y-105465539D01*
X144581531Y-105341712D01*
X144678821Y-105196107D01*
X144745836Y-105034320D01*
X144780000Y-104862567D01*
X144780000Y-104687449D01*
X144745836Y-104515696D01*
X144678821Y-104353909D01*
X144581531Y-104208304D01*
X144457704Y-104084477D01*
X144312099Y-103987187D01*
X144284640Y-103975813D01*
X144439099Y-103911833D01*
X144584704Y-103814543D01*
X144708531Y-103690716D01*
X144805821Y-103545111D01*
X144872836Y-103383324D01*
X144907000Y-103211571D01*
X144907000Y-103036453D01*
X144872836Y-102864700D01*
X144805821Y-102702913D01*
X144708531Y-102557308D01*
X144584704Y-102433481D01*
X144439099Y-102336191D01*
X144277312Y-102269176D01*
X144105559Y-102235012D01*
X143930441Y-102235012D01*
X143758688Y-102269176D01*
X143596901Y-102336191D01*
X143451296Y-102433481D01*
X143370365Y-102514412D01*
X143000516Y-102514412D01*
X141255191Y-100769087D01*
X147340320Y-100769087D01*
X147340320Y-100957713D01*
X147377120Y-101142716D01*
X147449304Y-101316984D01*
X147554099Y-101473821D01*
X147687479Y-101607201D01*
X147844316Y-101711996D01*
X148018584Y-101784180D01*
X148203587Y-101820980D01*
X148392213Y-101820980D01*
X148577216Y-101784180D01*
X148751484Y-101711996D01*
X148908321Y-101607201D01*
X149041701Y-101473821D01*
X149146496Y-101316984D01*
X149218680Y-101142716D01*
X149255480Y-100957713D01*
X149255480Y-100769087D01*
X151737060Y-100769087D01*
X151737060Y-100957713D01*
X151773860Y-101142716D01*
X151846044Y-101316984D01*
X151950839Y-101473821D01*
X152084219Y-101607201D01*
X152241056Y-101711996D01*
X152415324Y-101784180D01*
X152600327Y-101820980D01*
X152788953Y-101820980D01*
X152973956Y-101784180D01*
X153148224Y-101711996D01*
X153305061Y-101607201D01*
X153438441Y-101473821D01*
X153543236Y-101316984D01*
X153615420Y-101142716D01*
X153652220Y-100957713D01*
X153652220Y-100769087D01*
X153615420Y-100584084D01*
X153543236Y-100409816D01*
X153438441Y-100252979D01*
X153305061Y-100119599D01*
X153148224Y-100014804D01*
X152973956Y-99942620D01*
X152788953Y-99905820D01*
X152600327Y-99905820D01*
X152415324Y-99942620D01*
X152241056Y-100014804D01*
X152084219Y-100119599D01*
X151950839Y-100252979D01*
X151846044Y-100409816D01*
X151773860Y-100584084D01*
X151737060Y-100769087D01*
X149255480Y-100769087D01*
X149218680Y-100584084D01*
X149146496Y-100409816D01*
X149041701Y-100252979D01*
X148908321Y-100119599D01*
X148751484Y-100014804D01*
X148577216Y-99942620D01*
X148392213Y-99905820D01*
X148203587Y-99905820D01*
X148018584Y-99942620D01*
X147844316Y-100014804D01*
X147687479Y-100119599D01*
X147554099Y-100252979D01*
X147449304Y-100409816D01*
X147377120Y-100584084D01*
X147340320Y-100769087D01*
X141255191Y-100769087D01*
X141071620Y-100585517D01*
X141071620Y-95559235D01*
X141200259Y-95664806D01*
X141365731Y-95753252D01*
X141545277Y-95807717D01*
X141685215Y-95821500D01*
X143635215Y-95821500D01*
X143682000Y-95826108D01*
X143728785Y-95821500D01*
X143868723Y-95807717D01*
X144048269Y-95753252D01*
X144213741Y-95664806D01*
X144358778Y-95545778D01*
X144388607Y-95509431D01*
X147047436Y-92850603D01*
X147083778Y-92820778D01*
X147202806Y-92675741D01*
X147291252Y-92510269D01*
X147345717Y-92330723D01*
X147359500Y-92190785D01*
X147364108Y-92144000D01*
X147359500Y-92097215D01*
X147359500Y-91705722D01*
X147411657Y-91733601D01*
X147507415Y-91762649D01*
X147607000Y-91772457D01*
X148557000Y-91772457D01*
X148656585Y-91762649D01*
X148752343Y-91733601D01*
X148840595Y-91686429D01*
X148917948Y-91622948D01*
X148981429Y-91545595D01*
X149028601Y-91457343D01*
X149057649Y-91361585D01*
X149067457Y-91262000D01*
X149067457Y-90362000D01*
X149057649Y-90262415D01*
X149028601Y-90166657D01*
X148981429Y-90078405D01*
X148949866Y-90039945D01*
X148994948Y-90002948D01*
X149058429Y-89925595D01*
X149105601Y-89837343D01*
X149134649Y-89741585D01*
X149144457Y-89642000D01*
X149144457Y-87142000D01*
X149134649Y-87042415D01*
X149105601Y-86946657D01*
X149058429Y-86858405D01*
X148994948Y-86781052D01*
X148986500Y-86774119D01*
X148986500Y-86299784D01*
X148991108Y-86252999D01*
X148972717Y-86066277D01*
X148957769Y-86017000D01*
X148918252Y-85886731D01*
X148829806Y-85721259D01*
X148710778Y-85576222D01*
X148674426Y-85546389D01*
X148399500Y-85271462D01*
X148399500Y-82676600D01*
X148456941Y-82676600D01*
X148473186Y-82675000D01*
X148719000Y-82675000D01*
X148719000Y-83396861D01*
X148719000Y-83396861D01*
G37*
X148719000Y-83396861D02*
X148727798Y-83486189D01*
X148762565Y-83600797D01*
X148819022Y-83706421D01*
X148895000Y-83799001D01*
X148987580Y-83874979D01*
X149093204Y-83931436D01*
X149207812Y-83966202D01*
X149327000Y-83977941D01*
X149446189Y-83966202D01*
X149517400Y-83944600D01*
X149517401Y-84461586D01*
X149420296Y-84526469D01*
X149296469Y-84650296D01*
X149199179Y-84795901D01*
X149132164Y-84957688D01*
X149098000Y-85129441D01*
X149098000Y-85304559D01*
X149132164Y-85476312D01*
X149199179Y-85638099D01*
X149296469Y-85783704D01*
X149420296Y-85907531D01*
X149565901Y-86004821D01*
X149727688Y-86071836D01*
X149899441Y-86106000D01*
X150074559Y-86106000D01*
X150202963Y-86080459D01*
X150202964Y-88552611D01*
X150200014Y-88582563D01*
X150211784Y-88702065D01*
X150233287Y-88772947D01*
X150242733Y-88804086D01*
X150182296Y-88844469D01*
X150058469Y-88968296D01*
X149961179Y-89113901D01*
X149894164Y-89275688D01*
X149860000Y-89447441D01*
X149860000Y-89561897D01*
X149831126Y-89590771D01*
X149807863Y-89609862D01*
X149731685Y-89702686D01*
X149675079Y-89808588D01*
X149650116Y-89890879D01*
X149595657Y-89907399D01*
X149507405Y-89954571D01*
X149430052Y-90018052D01*
X149366571Y-90095405D01*
X149319399Y-90183657D01*
X149290351Y-90279415D01*
X149280543Y-90379000D01*
X149280543Y-91079000D01*
X149290351Y-91178585D01*
X149319399Y-91274343D01*
X149366571Y-91362595D01*
X149430052Y-91439948D01*
X149507405Y-91503429D01*
X149555245Y-91529000D01*
X149507405Y-91554571D01*
X149430052Y-91618052D01*
X149366571Y-91695405D01*
X149319399Y-91783657D01*
X149290351Y-91879415D01*
X149280543Y-91979000D01*
X149280543Y-92679000D01*
X149290351Y-92778585D01*
X149319399Y-92874343D01*
X149366571Y-92962595D01*
X149430052Y-93039948D01*
X149507405Y-93103429D01*
X149580601Y-93142553D01*
X149580600Y-93960453D01*
X149253407Y-94287647D01*
X149228208Y-94308327D01*
X149145682Y-94408886D01*
X149124828Y-94447901D01*
X149084358Y-94523614D01*
X149067457Y-94579330D01*
X149067457Y-94412000D01*
X149057649Y-94312415D01*
X149028601Y-94216657D01*
X148981429Y-94128405D01*
X148917948Y-94051052D01*
X148840595Y-93987571D01*
X148752343Y-93940399D01*
X148656585Y-93911351D01*
X148557000Y-93901543D01*
X147607000Y-93901543D01*
X147507415Y-93911351D01*
X147411657Y-93940399D01*
X147323405Y-93987571D01*
X147246052Y-94051052D01*
X147182571Y-94128405D01*
X147135399Y-94216657D01*
X147106351Y-94312415D01*
X147096543Y-94412000D01*
X147096543Y-95312000D01*
X147106351Y-95411585D01*
X147135399Y-95507343D01*
X147182571Y-95595595D01*
X147246052Y-95672948D01*
X147323405Y-95736429D01*
X147411657Y-95783601D01*
X147507415Y-95812649D01*
X147607000Y-95822457D01*
X147964826Y-95822457D01*
X148135341Y-95992972D01*
X148135340Y-98373525D01*
X148137963Y-98400158D01*
X148137963Y-99434650D01*
X148147771Y-99534235D01*
X148176819Y-99629993D01*
X148223991Y-99718245D01*
X148287472Y-99795598D01*
X148364825Y-99859079D01*
X148453077Y-99906251D01*
X148548835Y-99935299D01*
X148648420Y-99945107D01*
X149146260Y-99945107D01*
X149245845Y-99935299D01*
X149297390Y-99919663D01*
X149348935Y-99935299D01*
X149448520Y-99945107D01*
X149946360Y-99945107D01*
X150045945Y-99935299D01*
X150096220Y-99920048D01*
X150146495Y-99935299D01*
X150246080Y-99945107D01*
X150743920Y-99945107D01*
X150843505Y-99935299D01*
X150939263Y-99906251D01*
X151027515Y-99859079D01*
X151104868Y-99795598D01*
X151168349Y-99718245D01*
X151215521Y-99629993D01*
X151244569Y-99534235D01*
X151254377Y-99434650D01*
X151254377Y-97237550D01*
X151244569Y-97137965D01*
X151215521Y-97042207D01*
X151168349Y-96953955D01*
X151155400Y-96938176D01*
X151155400Y-95523546D01*
X152209029Y-94469917D01*
X152234233Y-94449233D01*
X152316759Y-94348674D01*
X152378082Y-94233947D01*
X152415844Y-94109461D01*
X152425400Y-94012439D01*
X152425400Y-94012438D01*
X152428595Y-93980001D01*
X152425400Y-93947562D01*
X152425400Y-93142553D01*
X152498595Y-93103429D01*
X152575948Y-93039948D01*
X152639429Y-92962595D01*
X152686601Y-92874343D01*
X152715649Y-92778585D01*
X152725457Y-92679000D01*
X152725457Y-91979000D01*
X152715649Y-91879415D01*
X152686601Y-91783657D01*
X152639429Y-91695405D01*
X152575948Y-91618052D01*
X152498595Y-91554571D01*
X152450755Y-91529000D01*
X152498595Y-91503429D01*
X152575948Y-91439948D01*
X152639429Y-91362595D01*
X152686601Y-91274343D01*
X152715649Y-91178585D01*
X152725457Y-91079000D01*
X152725457Y-90379000D01*
X152715649Y-90279415D01*
X152686601Y-90183657D01*
X152639429Y-90095405D01*
X152575948Y-90018052D01*
X152498595Y-89954571D01*
X152410343Y-89907399D01*
X152374600Y-89896556D01*
X152374600Y-89564938D01*
X152377549Y-89534999D01*
X152374600Y-89505059D01*
X152365779Y-89415498D01*
X152330921Y-89300588D01*
X152294966Y-89233320D01*
X152334602Y-89206836D01*
X152458429Y-89083009D01*
X152555719Y-88937404D01*
X152622734Y-88775617D01*
X152656898Y-88603864D01*
X152656898Y-88428746D01*
X152622734Y-88256993D01*
X152555719Y-88095206D01*
X152458429Y-87949601D01*
X152334602Y-87825774D01*
X152188997Y-87728484D01*
X152027210Y-87661469D01*
X151855457Y-87627305D01*
X151803174Y-87627305D01*
X151803174Y-85062494D01*
X151941534Y-85062494D01*
X152113287Y-85028330D01*
X152131889Y-85020625D01*
X152217469Y-85148704D01*
X152341296Y-85272531D01*
X152486901Y-85369821D01*
X152648688Y-85436836D01*
X152820441Y-85471000D01*
X152995559Y-85471000D01*
X153167312Y-85436836D01*
X153329099Y-85369821D01*
X153474704Y-85272531D01*
X153486566Y-85260669D01*
X157408769Y-89182873D01*
X157427862Y-89206138D01*
X157520686Y-89282316D01*
X157626588Y-89338921D01*
X157682438Y-89355863D01*
X157741497Y-89373779D01*
X157861000Y-89385549D01*
X157890941Y-89382600D01*
X164335543Y-89382600D01*
X164335543Y-89535000D01*
X164345351Y-89634585D01*
X164374399Y-89730343D01*
X164421571Y-89818595D01*
X164485052Y-89895948D01*
X164562405Y-89959429D01*
X164650657Y-90006601D01*
X164746415Y-90035649D01*
X164846000Y-90045457D01*
X168194617Y-90045457D01*
X168194617Y-90294543D01*
X164846000Y-90294543D01*
X164746415Y-90304351D01*
X164650657Y-90333399D01*
X164562405Y-90380571D01*
X164485052Y-90444052D01*
X164421571Y-90521405D01*
X164374399Y-90609657D01*
X164345351Y-90705415D01*
X164335543Y-90805000D01*
X164335543Y-92329000D01*
X164345351Y-92428585D01*
X164374399Y-92524343D01*
X164421571Y-92612595D01*
X164485052Y-92689948D01*
X164562405Y-92753429D01*
X164650657Y-92800601D01*
X164746415Y-92829649D01*
X164846000Y-92839457D01*
X168194617Y-92839457D01*
X168194617Y-93088543D01*
X164846000Y-93088543D01*
X164746415Y-93098351D01*
X164650657Y-93127399D01*
X164562405Y-93174571D01*
X164485052Y-93238052D01*
X164421571Y-93315405D01*
X164374399Y-93403657D01*
X164345351Y-93499415D01*
X164335543Y-93599000D01*
X164335543Y-93751400D01*
X163224941Y-93751400D01*
X163195000Y-93748451D01*
X163075497Y-93760221D01*
X162960588Y-93795079D01*
X162854686Y-93851684D01*
X162761862Y-93927862D01*
X162742773Y-93951122D01*
X162307496Y-94386400D01*
X160621605Y-94386400D01*
X160515238Y-94280033D01*
X160369633Y-94182743D01*
X160207846Y-94115728D01*
X160036093Y-94081564D01*
X159860975Y-94081564D01*
X159689222Y-94115728D01*
X159527435Y-94182743D01*
X159381830Y-94280033D01*
X159258003Y-94403860D01*
X159160713Y-94549465D01*
X159093698Y-94711252D01*
X159087587Y-94741974D01*
X158916441Y-94741974D01*
X158744688Y-94776138D01*
X158582901Y-94843153D01*
X158437296Y-94940443D01*
X158313469Y-95064270D01*
X158216179Y-95209875D01*
X158149164Y-95371662D01*
X158115000Y-95543415D01*
X158115000Y-95718533D01*
X158149164Y-95890286D01*
X158216179Y-96052073D01*
X158313469Y-96197678D01*
X158437296Y-96321505D01*
X158582901Y-96418795D01*
X158744688Y-96485810D01*
X158916441Y-96519974D01*
X159016494Y-96519974D01*
X159016494Y-96530946D01*
X159050658Y-96702699D01*
X159117673Y-96864486D01*
X159214963Y-97010091D01*
X159338790Y-97133918D01*
X159484395Y-97231208D01*
X159646182Y-97298223D01*
X159817935Y-97332387D01*
X159993053Y-97332387D01*
X160164806Y-97298223D01*
X160326593Y-97231208D01*
X160472198Y-97133918D01*
X160596025Y-97010091D01*
X160601030Y-97002600D01*
X161799497Y-97002600D01*
X163093400Y-98296505D01*
X163093401Y-99411049D01*
X163090451Y-99441000D01*
X163102221Y-99560502D01*
X163115080Y-99602890D01*
X162880773Y-99252225D01*
X162367775Y-98739227D01*
X161764554Y-98336168D01*
X161094291Y-98058536D01*
X160382744Y-97917000D01*
X159657256Y-97917000D01*
X158945709Y-98058536D01*
X158275446Y-98336168D01*
X157672225Y-98739227D01*
X157159227Y-99252225D01*
X156756168Y-99855446D01*
X156478536Y-100525709D01*
X156337000Y-101237256D01*
X156337000Y-101962744D01*
X156478536Y-102674291D01*
X156756168Y-103344554D01*
X157159227Y-103947775D01*
X157672225Y-104460773D01*
X158275446Y-104863832D01*
X158428913Y-104927400D01*
X157492635Y-104927400D01*
X157411704Y-104846469D01*
X157266099Y-104749179D01*
X157104312Y-104682164D01*
X156932559Y-104648000D01*
X156757441Y-104648000D01*
X156585688Y-104682164D01*
X156423901Y-104749179D01*
X156278296Y-104846469D01*
X156154469Y-104970296D01*
X156057179Y-105115901D01*
X155990164Y-105277688D01*
X155956000Y-105449441D01*
X155956000Y-105624559D01*
X155990164Y-105796312D01*
X156040569Y-105918000D01*
X144060373Y-105918000D01*
X144101432Y-105818876D01*
X144135596Y-105647123D01*
X144135596Y-105632771D01*
X144150312Y-105629844D01*
X144312099Y-105562829D01*
X144457704Y-105465539D01*
X144581531Y-105341712D01*
X144678821Y-105196107D01*
X144745836Y-105034320D01*
X144780000Y-104862567D01*
X144780000Y-104687449D01*
X144745836Y-104515696D01*
X144678821Y-104353909D01*
X144581531Y-104208304D01*
X144457704Y-104084477D01*
X144312099Y-103987187D01*
X144284640Y-103975813D01*
X144439099Y-103911833D01*
X144584704Y-103814543D01*
X144708531Y-103690716D01*
X144805821Y-103545111D01*
X144872836Y-103383324D01*
X144907000Y-103211571D01*
X144907000Y-103036453D01*
X144872836Y-102864700D01*
X144805821Y-102702913D01*
X144708531Y-102557308D01*
X144584704Y-102433481D01*
X144439099Y-102336191D01*
X144277312Y-102269176D01*
X144105559Y-102235012D01*
X143930441Y-102235012D01*
X143758688Y-102269176D01*
X143596901Y-102336191D01*
X143451296Y-102433481D01*
X143370365Y-102514412D01*
X143000516Y-102514412D01*
X141255191Y-100769087D01*
X147340320Y-100769087D01*
X147340320Y-100957713D01*
X147377120Y-101142716D01*
X147449304Y-101316984D01*
X147554099Y-101473821D01*
X147687479Y-101607201D01*
X147844316Y-101711996D01*
X148018584Y-101784180D01*
X148203587Y-101820980D01*
X148392213Y-101820980D01*
X148577216Y-101784180D01*
X148751484Y-101711996D01*
X148908321Y-101607201D01*
X149041701Y-101473821D01*
X149146496Y-101316984D01*
X149218680Y-101142716D01*
X149255480Y-100957713D01*
X149255480Y-100769087D01*
X151737060Y-100769087D01*
X151737060Y-100957713D01*
X151773860Y-101142716D01*
X151846044Y-101316984D01*
X151950839Y-101473821D01*
X152084219Y-101607201D01*
X152241056Y-101711996D01*
X152415324Y-101784180D01*
X152600327Y-101820980D01*
X152788953Y-101820980D01*
X152973956Y-101784180D01*
X153148224Y-101711996D01*
X153305061Y-101607201D01*
X153438441Y-101473821D01*
X153543236Y-101316984D01*
X153615420Y-101142716D01*
X153652220Y-100957713D01*
X153652220Y-100769087D01*
X153615420Y-100584084D01*
X153543236Y-100409816D01*
X153438441Y-100252979D01*
X153305061Y-100119599D01*
X153148224Y-100014804D01*
X152973956Y-99942620D01*
X152788953Y-99905820D01*
X152600327Y-99905820D01*
X152415324Y-99942620D01*
X152241056Y-100014804D01*
X152084219Y-100119599D01*
X151950839Y-100252979D01*
X151846044Y-100409816D01*
X151773860Y-100584084D01*
X151737060Y-100769087D01*
X149255480Y-100769087D01*
X149218680Y-100584084D01*
X149146496Y-100409816D01*
X149041701Y-100252979D01*
X148908321Y-100119599D01*
X148751484Y-100014804D01*
X148577216Y-99942620D01*
X148392213Y-99905820D01*
X148203587Y-99905820D01*
X148018584Y-99942620D01*
X147844316Y-100014804D01*
X147687479Y-100119599D01*
X147554099Y-100252979D01*
X147449304Y-100409816D01*
X147377120Y-100584084D01*
X147340320Y-100769087D01*
X141255191Y-100769087D01*
X141071620Y-100585517D01*
X141071620Y-95559235D01*
X141200259Y-95664806D01*
X141365731Y-95753252D01*
X141545277Y-95807717D01*
X141685215Y-95821500D01*
X143635215Y-95821500D01*
X143682000Y-95826108D01*
X143728785Y-95821500D01*
X143868723Y-95807717D01*
X144048269Y-95753252D01*
X144213741Y-95664806D01*
X144358778Y-95545778D01*
X144388607Y-95509431D01*
X147047436Y-92850603D01*
X147083778Y-92820778D01*
X147202806Y-92675741D01*
X147291252Y-92510269D01*
X147345717Y-92330723D01*
X147359500Y-92190785D01*
X147364108Y-92144000D01*
X147359500Y-92097215D01*
X147359500Y-91705722D01*
X147411657Y-91733601D01*
X147507415Y-91762649D01*
X147607000Y-91772457D01*
X148557000Y-91772457D01*
X148656585Y-91762649D01*
X148752343Y-91733601D01*
X148840595Y-91686429D01*
X148917948Y-91622948D01*
X148981429Y-91545595D01*
X149028601Y-91457343D01*
X149057649Y-91361585D01*
X149067457Y-91262000D01*
X149067457Y-90362000D01*
X149057649Y-90262415D01*
X149028601Y-90166657D01*
X148981429Y-90078405D01*
X148949866Y-90039945D01*
X148994948Y-90002948D01*
X149058429Y-89925595D01*
X149105601Y-89837343D01*
X149134649Y-89741585D01*
X149144457Y-89642000D01*
X149144457Y-87142000D01*
X149134649Y-87042415D01*
X149105601Y-86946657D01*
X149058429Y-86858405D01*
X148994948Y-86781052D01*
X148986500Y-86774119D01*
X148986500Y-86299784D01*
X148991108Y-86252999D01*
X148972717Y-86066277D01*
X148957769Y-86017000D01*
X148918252Y-85886731D01*
X148829806Y-85721259D01*
X148710778Y-85576222D01*
X148674426Y-85546389D01*
X148399500Y-85271462D01*
X148399500Y-82676600D01*
X148456941Y-82676600D01*
X148473186Y-82675000D01*
X148719000Y-82675000D01*
X148719000Y-83396861D01*
G36*
X146494500Y-85619215D02*
G01*
X146489892Y-85666000D01*
X146495833Y-85726315D01*
X146508283Y-85852722D01*
X146562748Y-86032268D01*
X146651194Y-86197741D01*
X146770222Y-86342778D01*
X146806570Y-86372608D01*
X147081501Y-86647538D01*
X147081501Y-86774118D01*
X147073052Y-86781052D01*
X147009571Y-86858405D01*
X146962399Y-86946657D01*
X146933351Y-87042415D01*
X146923543Y-87142000D01*
X146923543Y-89642000D01*
X146933351Y-89741585D01*
X146962399Y-89837343D01*
X147000886Y-89909346D01*
X146952343Y-89883399D01*
X146856585Y-89854351D01*
X146757000Y-89844543D01*
X146057000Y-89844543D01*
X145957415Y-89854351D01*
X145861657Y-89883399D01*
X145773405Y-89930571D01*
X145696052Y-89994052D01*
X145632571Y-90071405D01*
X145585399Y-90159657D01*
X145556351Y-90255415D01*
X145546543Y-90355000D01*
X145546543Y-90394214D01*
X145522748Y-90438732D01*
X145468283Y-90618278D01*
X145454500Y-90758216D01*
X145454501Y-91749460D01*
X143287462Y-93916500D01*
X141685215Y-93916500D01*
X141545277Y-93930283D01*
X141365731Y-93984748D01*
X141200259Y-94073194D01*
X141071620Y-94178765D01*
X141071620Y-92341635D01*
X141152551Y-92260704D01*
X141249841Y-92115099D01*
X141316856Y-91953312D01*
X141351020Y-91781559D01*
X141351020Y-91606441D01*
X141316856Y-91434688D01*
X141249841Y-91272901D01*
X141152551Y-91127296D01*
X141028724Y-91003469D01*
X140883119Y-90906179D01*
X140721332Y-90839164D01*
X140549579Y-90805000D01*
X140374461Y-90805000D01*
X140202708Y-90839164D01*
X140040921Y-90906179D01*
X139895316Y-91003469D01*
X139771489Y-91127296D01*
X139759437Y-91145333D01*
X139674600Y-91060497D01*
X139674600Y-90944635D01*
X139755531Y-90863704D01*
X139852821Y-90718099D01*
X139919836Y-90556312D01*
X139954000Y-90384559D01*
X139954000Y-90209441D01*
X139919836Y-90037688D01*
X139852821Y-89875901D01*
X139755531Y-89730296D01*
X139631704Y-89606469D01*
X139486099Y-89509179D01*
X139324312Y-89442164D01*
X139268951Y-89431152D01*
X145286471Y-83413633D01*
X146112516Y-83413633D01*
X146142457Y-83416582D01*
X146172398Y-83413633D01*
X146261959Y-83404812D01*
X146376869Y-83369954D01*
X146482771Y-83313349D01*
X146494501Y-83303723D01*
X146494500Y-85619215D01*
X146494500Y-85619215D01*
G37*
X146494500Y-85619215D02*
X146489892Y-85666000D01*
X146495833Y-85726315D01*
X146508283Y-85852722D01*
X146562748Y-86032268D01*
X146651194Y-86197741D01*
X146770222Y-86342778D01*
X146806570Y-86372608D01*
X147081501Y-86647538D01*
X147081501Y-86774118D01*
X147073052Y-86781052D01*
X147009571Y-86858405D01*
X146962399Y-86946657D01*
X146933351Y-87042415D01*
X146923543Y-87142000D01*
X146923543Y-89642000D01*
X146933351Y-89741585D01*
X146962399Y-89837343D01*
X147000886Y-89909346D01*
X146952343Y-89883399D01*
X146856585Y-89854351D01*
X146757000Y-89844543D01*
X146057000Y-89844543D01*
X145957415Y-89854351D01*
X145861657Y-89883399D01*
X145773405Y-89930571D01*
X145696052Y-89994052D01*
X145632571Y-90071405D01*
X145585399Y-90159657D01*
X145556351Y-90255415D01*
X145546543Y-90355000D01*
X145546543Y-90394214D01*
X145522748Y-90438732D01*
X145468283Y-90618278D01*
X145454500Y-90758216D01*
X145454501Y-91749460D01*
X143287462Y-93916500D01*
X141685215Y-93916500D01*
X141545277Y-93930283D01*
X141365731Y-93984748D01*
X141200259Y-94073194D01*
X141071620Y-94178765D01*
X141071620Y-92341635D01*
X141152551Y-92260704D01*
X141249841Y-92115099D01*
X141316856Y-91953312D01*
X141351020Y-91781559D01*
X141351020Y-91606441D01*
X141316856Y-91434688D01*
X141249841Y-91272901D01*
X141152551Y-91127296D01*
X141028724Y-91003469D01*
X140883119Y-90906179D01*
X140721332Y-90839164D01*
X140549579Y-90805000D01*
X140374461Y-90805000D01*
X140202708Y-90839164D01*
X140040921Y-90906179D01*
X139895316Y-91003469D01*
X139771489Y-91127296D01*
X139759437Y-91145333D01*
X139674600Y-91060497D01*
X139674600Y-90944635D01*
X139755531Y-90863704D01*
X139852821Y-90718099D01*
X139919836Y-90556312D01*
X139954000Y-90384559D01*
X139954000Y-90209441D01*
X139919836Y-90037688D01*
X139852821Y-89875901D01*
X139755531Y-89730296D01*
X139631704Y-89606469D01*
X139486099Y-89509179D01*
X139324312Y-89442164D01*
X139268951Y-89431152D01*
X145286471Y-83413633D01*
X146112516Y-83413633D01*
X146142457Y-83416582D01*
X146172398Y-83413633D01*
X146261959Y-83404812D01*
X146376869Y-83369954D01*
X146482771Y-83313349D01*
X146494501Y-83303723D01*
X146494500Y-85619215D01*
G36*
X161785571Y-82521595D02*
G01*
X161849052Y-82598948D01*
X161926405Y-82662429D01*
X162014657Y-82709601D01*
X162110415Y-82738649D01*
X162210000Y-82748457D01*
X162910000Y-82748457D01*
X163009585Y-82738649D01*
X163105343Y-82709601D01*
X163193595Y-82662429D01*
X163270948Y-82598948D01*
X163332062Y-82524479D01*
X163408901Y-82575821D01*
X163570688Y-82642836D01*
X163742441Y-82677000D01*
X163917559Y-82677000D01*
X164089312Y-82642836D01*
X164251099Y-82575821D01*
X164335543Y-82519397D01*
X164335543Y-82587241D01*
X164230588Y-82619079D01*
X164124686Y-82675684D01*
X164031862Y-82751862D01*
X164012769Y-82775127D01*
X163674127Y-83113770D01*
X163650863Y-83132862D01*
X163584346Y-83213914D01*
X163574685Y-83225686D01*
X163518080Y-83331588D01*
X163483221Y-83446498D01*
X163471451Y-83566000D01*
X163474401Y-83595951D01*
X163474400Y-85187665D01*
X161260689Y-87401378D01*
X159975764Y-87401378D01*
X160070563Y-87372621D01*
X160158815Y-87325449D01*
X160236168Y-87261968D01*
X160299649Y-87184615D01*
X160346821Y-87096363D01*
X160375869Y-87000605D01*
X160385677Y-86901020D01*
X160385677Y-85900260D01*
X160375869Y-85800675D01*
X160346821Y-85704917D01*
X160299649Y-85616665D01*
X160236168Y-85539312D01*
X160158815Y-85475831D01*
X160070563Y-85428659D01*
X159974805Y-85399611D01*
X159875220Y-85389803D01*
X159275780Y-85389803D01*
X159176195Y-85399611D01*
X159080437Y-85428659D01*
X158992185Y-85475831D01*
X158914832Y-85539312D01*
X158851351Y-85616665D01*
X158804179Y-85704917D01*
X158778054Y-85791040D01*
X157392145Y-85791040D01*
X155549667Y-83948564D01*
X155607812Y-83966202D01*
X155727000Y-83977941D01*
X155846189Y-83966202D01*
X155960797Y-83931436D01*
X156066421Y-83874979D01*
X156159001Y-83799001D01*
X156234979Y-83706421D01*
X156291436Y-83600797D01*
X156326202Y-83486189D01*
X156335000Y-83396861D01*
X156335000Y-82675000D01*
X156580814Y-82675000D01*
X156597059Y-82676600D01*
X157226000Y-82676600D01*
X157226000Y-82764559D01*
X157260164Y-82936312D01*
X157327179Y-83098099D01*
X157424469Y-83243704D01*
X157548296Y-83367531D01*
X157693901Y-83464821D01*
X157855688Y-83531836D01*
X158027441Y-83566000D01*
X158202559Y-83566000D01*
X158374312Y-83531836D01*
X158445135Y-83502500D01*
X159045450Y-83502500D01*
X159086000Y-83506494D01*
X159126550Y-83502500D01*
X159126553Y-83502500D01*
X159247826Y-83490556D01*
X159403434Y-83443353D01*
X159546842Y-83366699D01*
X159653352Y-83279289D01*
X159639000Y-83351441D01*
X159639000Y-83526559D01*
X159673164Y-83698312D01*
X159717823Y-83806127D01*
X159717823Y-84787740D01*
X159727631Y-84887325D01*
X159756679Y-84983083D01*
X159803851Y-85071335D01*
X159867332Y-85148688D01*
X159944685Y-85212169D01*
X160032937Y-85259341D01*
X160128695Y-85288389D01*
X160228280Y-85298197D01*
X160827720Y-85298197D01*
X160927305Y-85288389D01*
X161023063Y-85259341D01*
X161111315Y-85212169D01*
X161188668Y-85148688D01*
X161252149Y-85071335D01*
X161299321Y-84983083D01*
X161328369Y-84887325D01*
X161338177Y-84787740D01*
X161338177Y-83806127D01*
X161382836Y-83698312D01*
X161417000Y-83526559D01*
X161417000Y-83351441D01*
X161382836Y-83179688D01*
X161315821Y-83017901D01*
X161218531Y-82872296D01*
X161094704Y-82748469D01*
X161094686Y-82748457D01*
X161310000Y-82748457D01*
X161409585Y-82738649D01*
X161505343Y-82709601D01*
X161593595Y-82662429D01*
X161670948Y-82598948D01*
X161734429Y-82521595D01*
X161760000Y-82473755D01*
X161785571Y-82521595D01*
X161785571Y-82521595D01*
G37*
X161785571Y-82521595D02*
X161849052Y-82598948D01*
X161926405Y-82662429D01*
X162014657Y-82709601D01*
X162110415Y-82738649D01*
X162210000Y-82748457D01*
X162910000Y-82748457D01*
X163009585Y-82738649D01*
X163105343Y-82709601D01*
X163193595Y-82662429D01*
X163270948Y-82598948D01*
X163332062Y-82524479D01*
X163408901Y-82575821D01*
X163570688Y-82642836D01*
X163742441Y-82677000D01*
X163917559Y-82677000D01*
X164089312Y-82642836D01*
X164251099Y-82575821D01*
X164335543Y-82519397D01*
X164335543Y-82587241D01*
X164230588Y-82619079D01*
X164124686Y-82675684D01*
X164031862Y-82751862D01*
X164012769Y-82775127D01*
X163674127Y-83113770D01*
X163650863Y-83132862D01*
X163584346Y-83213914D01*
X163574685Y-83225686D01*
X163518080Y-83331588D01*
X163483221Y-83446498D01*
X163471451Y-83566000D01*
X163474401Y-83595951D01*
X163474400Y-85187665D01*
X161260689Y-87401378D01*
X159975764Y-87401378D01*
X160070563Y-87372621D01*
X160158815Y-87325449D01*
X160236168Y-87261968D01*
X160299649Y-87184615D01*
X160346821Y-87096363D01*
X160375869Y-87000605D01*
X160385677Y-86901020D01*
X160385677Y-85900260D01*
X160375869Y-85800675D01*
X160346821Y-85704917D01*
X160299649Y-85616665D01*
X160236168Y-85539312D01*
X160158815Y-85475831D01*
X160070563Y-85428659D01*
X159974805Y-85399611D01*
X159875220Y-85389803D01*
X159275780Y-85389803D01*
X159176195Y-85399611D01*
X159080437Y-85428659D01*
X158992185Y-85475831D01*
X158914832Y-85539312D01*
X158851351Y-85616665D01*
X158804179Y-85704917D01*
X158778054Y-85791040D01*
X157392145Y-85791040D01*
X155549667Y-83948564D01*
X155607812Y-83966202D01*
X155727000Y-83977941D01*
X155846189Y-83966202D01*
X155960797Y-83931436D01*
X156066421Y-83874979D01*
X156159001Y-83799001D01*
X156234979Y-83706421D01*
X156291436Y-83600797D01*
X156326202Y-83486189D01*
X156335000Y-83396861D01*
X156335000Y-82675000D01*
X156580814Y-82675000D01*
X156597059Y-82676600D01*
X157226000Y-82676600D01*
X157226000Y-82764559D01*
X157260164Y-82936312D01*
X157327179Y-83098099D01*
X157424469Y-83243704D01*
X157548296Y-83367531D01*
X157693901Y-83464821D01*
X157855688Y-83531836D01*
X158027441Y-83566000D01*
X158202559Y-83566000D01*
X158374312Y-83531836D01*
X158445135Y-83502500D01*
X159045450Y-83502500D01*
X159086000Y-83506494D01*
X159126550Y-83502500D01*
X159126553Y-83502500D01*
X159247826Y-83490556D01*
X159403434Y-83443353D01*
X159546842Y-83366699D01*
X159653352Y-83279289D01*
X159639000Y-83351441D01*
X159639000Y-83526559D01*
X159673164Y-83698312D01*
X159717823Y-83806127D01*
X159717823Y-84787740D01*
X159727631Y-84887325D01*
X159756679Y-84983083D01*
X159803851Y-85071335D01*
X159867332Y-85148688D01*
X159944685Y-85212169D01*
X160032937Y-85259341D01*
X160128695Y-85288389D01*
X160228280Y-85298197D01*
X160827720Y-85298197D01*
X160927305Y-85288389D01*
X161023063Y-85259341D01*
X161111315Y-85212169D01*
X161188668Y-85148688D01*
X161252149Y-85071335D01*
X161299321Y-84983083D01*
X161328369Y-84887325D01*
X161338177Y-84787740D01*
X161338177Y-83806127D01*
X161382836Y-83698312D01*
X161417000Y-83526559D01*
X161417000Y-83351441D01*
X161382836Y-83179688D01*
X161315821Y-83017901D01*
X161218531Y-82872296D01*
X161094704Y-82748469D01*
X161094686Y-82748457D01*
X161310000Y-82748457D01*
X161409585Y-82738649D01*
X161505343Y-82709601D01*
X161593595Y-82662429D01*
X161670948Y-82598948D01*
X161734429Y-82521595D01*
X161760000Y-82473755D01*
X161785571Y-82521595D01*
G36*
X139501389Y-78618426D02*
G01*
X139531222Y-78654778D01*
X139676259Y-78773806D01*
X139841731Y-78862252D01*
X139905997Y-78881747D01*
X139905823Y-78883510D01*
X139905823Y-80882490D01*
X139915631Y-80982075D01*
X139944679Y-81077833D01*
X139991851Y-81166085D01*
X140055332Y-81243438D01*
X140055600Y-81243658D01*
X140055600Y-81895453D01*
X136901980Y-85049073D01*
X136944000Y-84837827D01*
X136944000Y-84580173D01*
X136893734Y-84327470D01*
X136795135Y-84089430D01*
X136651990Y-83875199D01*
X136469801Y-83693010D01*
X136255570Y-83549865D01*
X136017530Y-83451266D01*
X135764827Y-83401000D01*
X135507173Y-83401000D01*
X135254470Y-83451266D01*
X135016430Y-83549865D01*
X134802199Y-83693010D01*
X134620010Y-83875199D01*
X134476865Y-84089430D01*
X134378266Y-84327470D01*
X134366000Y-84389135D01*
X134353734Y-84327470D01*
X134255135Y-84089430D01*
X134111990Y-83875199D01*
X133929801Y-83693010D01*
X133715570Y-83549865D01*
X133477530Y-83451266D01*
X133224827Y-83401000D01*
X132967173Y-83401000D01*
X132762632Y-83441686D01*
X131851400Y-82530454D01*
X131851400Y-81158348D01*
X131877685Y-81179919D01*
X131965937Y-81227091D01*
X132061695Y-81256139D01*
X132161280Y-81265947D01*
X132760720Y-81265947D01*
X132860305Y-81256139D01*
X132956063Y-81227091D01*
X133044315Y-81179919D01*
X133121668Y-81116438D01*
X133185149Y-81039085D01*
X133232321Y-80950833D01*
X133261369Y-80855075D01*
X133271177Y-80755490D01*
X133271177Y-80581500D01*
X134706450Y-80581500D01*
X134747000Y-80585494D01*
X134787550Y-80581500D01*
X134787553Y-80581500D01*
X134908826Y-80569556D01*
X135064434Y-80522353D01*
X135207842Y-80445699D01*
X135314147Y-80358457D01*
X136505000Y-80358457D01*
X136604585Y-80348649D01*
X136700343Y-80319601D01*
X136788595Y-80272429D01*
X136865948Y-80208948D01*
X136929429Y-80131595D01*
X136944200Y-80103960D01*
X137056741Y-80043806D01*
X137201778Y-79924778D01*
X137231607Y-79888431D01*
X138570538Y-78549500D01*
X139432463Y-78549500D01*
X139501389Y-78618426D01*
X139501389Y-78618426D01*
G37*
X139501389Y-78618426D02*
X139531222Y-78654778D01*
X139676259Y-78773806D01*
X139841731Y-78862252D01*
X139905997Y-78881747D01*
X139905823Y-78883510D01*
X139905823Y-80882490D01*
X139915631Y-80982075D01*
X139944679Y-81077833D01*
X139991851Y-81166085D01*
X140055332Y-81243438D01*
X140055600Y-81243658D01*
X140055600Y-81895453D01*
X136901980Y-85049073D01*
X136944000Y-84837827D01*
X136944000Y-84580173D01*
X136893734Y-84327470D01*
X136795135Y-84089430D01*
X136651990Y-83875199D01*
X136469801Y-83693010D01*
X136255570Y-83549865D01*
X136017530Y-83451266D01*
X135764827Y-83401000D01*
X135507173Y-83401000D01*
X135254470Y-83451266D01*
X135016430Y-83549865D01*
X134802199Y-83693010D01*
X134620010Y-83875199D01*
X134476865Y-84089430D01*
X134378266Y-84327470D01*
X134366000Y-84389135D01*
X134353734Y-84327470D01*
X134255135Y-84089430D01*
X134111990Y-83875199D01*
X133929801Y-83693010D01*
X133715570Y-83549865D01*
X133477530Y-83451266D01*
X133224827Y-83401000D01*
X132967173Y-83401000D01*
X132762632Y-83441686D01*
X131851400Y-82530454D01*
X131851400Y-81158348D01*
X131877685Y-81179919D01*
X131965937Y-81227091D01*
X132061695Y-81256139D01*
X132161280Y-81265947D01*
X132760720Y-81265947D01*
X132860305Y-81256139D01*
X132956063Y-81227091D01*
X133044315Y-81179919D01*
X133121668Y-81116438D01*
X133185149Y-81039085D01*
X133232321Y-80950833D01*
X133261369Y-80855075D01*
X133271177Y-80755490D01*
X133271177Y-80581500D01*
X134706450Y-80581500D01*
X134747000Y-80585494D01*
X134787550Y-80581500D01*
X134787553Y-80581500D01*
X134908826Y-80569556D01*
X135064434Y-80522353D01*
X135207842Y-80445699D01*
X135314147Y-80358457D01*
X136505000Y-80358457D01*
X136604585Y-80348649D01*
X136700343Y-80319601D01*
X136788595Y-80272429D01*
X136865948Y-80208948D01*
X136929429Y-80131595D01*
X136944200Y-80103960D01*
X137056741Y-80043806D01*
X137201778Y-79924778D01*
X137231607Y-79888431D01*
X138570538Y-78549500D01*
X139432463Y-78549500D01*
X139501389Y-78618426D01*
G36*
X142748000Y-72175441D02*
G01*
X142748000Y-72350559D01*
X142782164Y-72522312D01*
X142849179Y-72684099D01*
X142919082Y-72788717D01*
X142856695Y-72794861D01*
X142760937Y-72823909D01*
X142672685Y-72871081D01*
X142595332Y-72934562D01*
X142531851Y-73011915D01*
X142484679Y-73100167D01*
X142455631Y-73195925D01*
X142445823Y-73295510D01*
X142445823Y-75294490D01*
X142455631Y-75394075D01*
X142484679Y-75489833D01*
X142531851Y-75578085D01*
X142595332Y-75655438D01*
X142672685Y-75718919D01*
X142760937Y-75766091D01*
X142856695Y-75795139D01*
X142956280Y-75804947D01*
X143555720Y-75804947D01*
X143655305Y-75795139D01*
X143751063Y-75766091D01*
X143839315Y-75718919D01*
X143916668Y-75655438D01*
X143980149Y-75578085D01*
X144027321Y-75489833D01*
X144056369Y-75394075D01*
X144066177Y-75294490D01*
X144066177Y-74109126D01*
X144100000Y-74112457D01*
X144707463Y-74112457D01*
X144564848Y-74255072D01*
X144427175Y-74461114D01*
X144332344Y-74690055D01*
X144284000Y-74933098D01*
X144284000Y-75180902D01*
X144332344Y-75423945D01*
X144427175Y-75652886D01*
X144564848Y-75858928D01*
X144740072Y-76034152D01*
X144946114Y-76171825D01*
X145175055Y-76266656D01*
X145418098Y-76315000D01*
X145665902Y-76315000D01*
X145908945Y-76266656D01*
X146050000Y-76208229D01*
X146050000Y-76445771D01*
X145908945Y-76387344D01*
X145665902Y-76339000D01*
X145418098Y-76339000D01*
X145175055Y-76387344D01*
X144946114Y-76482175D01*
X144740072Y-76619848D01*
X144564848Y-76795072D01*
X144427175Y-77001114D01*
X144332344Y-77230055D01*
X144284000Y-77473098D01*
X144284000Y-77720902D01*
X144332344Y-77963945D01*
X144427175Y-78192886D01*
X144564848Y-78398928D01*
X144740072Y-78574152D01*
X144946114Y-78711825D01*
X145175055Y-78806656D01*
X145257399Y-78823035D01*
X145286684Y-78877825D01*
X145305954Y-78901307D01*
X145175055Y-78927344D01*
X144946114Y-79022175D01*
X144740072Y-79159848D01*
X144564848Y-79335072D01*
X144427175Y-79541114D01*
X144332344Y-79770055D01*
X144284000Y-80013098D01*
X144284000Y-80260902D01*
X144332344Y-80503945D01*
X144427175Y-80732886D01*
X144564848Y-80938928D01*
X144677320Y-81051400D01*
X144398113Y-81051400D01*
X144368172Y-81048451D01*
X144248669Y-81060221D01*
X144133759Y-81095079D01*
X144077154Y-81125335D01*
X144027858Y-81151684D01*
X143935034Y-81227862D01*
X143915941Y-81251127D01*
X142646400Y-82520668D01*
X142646400Y-81285348D01*
X142672685Y-81306919D01*
X142760937Y-81354091D01*
X142856695Y-81383139D01*
X142956280Y-81392947D01*
X143555720Y-81392947D01*
X143655305Y-81383139D01*
X143751063Y-81354091D01*
X143839315Y-81306919D01*
X143916668Y-81243438D01*
X143980149Y-81166085D01*
X144027321Y-81077833D01*
X144056369Y-80982075D01*
X144066177Y-80882490D01*
X144066177Y-80055965D01*
X144069556Y-80044826D01*
X144081500Y-79923553D01*
X144081500Y-78835184D01*
X144140251Y-78725269D01*
X144194717Y-78545721D01*
X144213108Y-78358999D01*
X144194717Y-78172277D01*
X144140251Y-77992730D01*
X144051805Y-77827260D01*
X143962600Y-77718563D01*
X143581608Y-77337570D01*
X143551778Y-77301222D01*
X143406741Y-77182194D01*
X143241269Y-77093748D01*
X143103277Y-77051888D01*
X143129000Y-76922571D01*
X143129000Y-76747453D01*
X143094836Y-76575700D01*
X143027821Y-76413913D01*
X142930531Y-76268308D01*
X142806704Y-76144481D01*
X142661099Y-76047191D01*
X142499312Y-75980176D01*
X142327559Y-75946012D01*
X142152441Y-75946012D01*
X141980688Y-75980176D01*
X141818901Y-76047191D01*
X141673296Y-76144481D01*
X141592365Y-76225412D01*
X141538746Y-76225412D01*
X141109085Y-75795752D01*
X141115305Y-75795139D01*
X141211063Y-75766091D01*
X141299315Y-75718919D01*
X141376668Y-75655438D01*
X141440149Y-75578085D01*
X141487321Y-75489833D01*
X141516369Y-75394075D01*
X141526177Y-75294490D01*
X141526177Y-73295510D01*
X141516369Y-73195925D01*
X141487321Y-73100167D01*
X141440149Y-73011915D01*
X141376668Y-72934562D01*
X141325600Y-72892652D01*
X141325600Y-72769503D01*
X141977070Y-72118034D01*
X142759419Y-72118034D01*
X142748000Y-72175441D01*
X142748000Y-72175441D01*
G37*
X142748000Y-72175441D02*
X142748000Y-72350559D01*
X142782164Y-72522312D01*
X142849179Y-72684099D01*
X142919082Y-72788717D01*
X142856695Y-72794861D01*
X142760937Y-72823909D01*
X142672685Y-72871081D01*
X142595332Y-72934562D01*
X142531851Y-73011915D01*
X142484679Y-73100167D01*
X142455631Y-73195925D01*
X142445823Y-73295510D01*
X142445823Y-75294490D01*
X142455631Y-75394075D01*
X142484679Y-75489833D01*
X142531851Y-75578085D01*
X142595332Y-75655438D01*
X142672685Y-75718919D01*
X142760937Y-75766091D01*
X142856695Y-75795139D01*
X142956280Y-75804947D01*
X143555720Y-75804947D01*
X143655305Y-75795139D01*
X143751063Y-75766091D01*
X143839315Y-75718919D01*
X143916668Y-75655438D01*
X143980149Y-75578085D01*
X144027321Y-75489833D01*
X144056369Y-75394075D01*
X144066177Y-75294490D01*
X144066177Y-74109126D01*
X144100000Y-74112457D01*
X144707463Y-74112457D01*
X144564848Y-74255072D01*
X144427175Y-74461114D01*
X144332344Y-74690055D01*
X144284000Y-74933098D01*
X144284000Y-75180902D01*
X144332344Y-75423945D01*
X144427175Y-75652886D01*
X144564848Y-75858928D01*
X144740072Y-76034152D01*
X144946114Y-76171825D01*
X145175055Y-76266656D01*
X145418098Y-76315000D01*
X145665902Y-76315000D01*
X145908945Y-76266656D01*
X146050000Y-76208229D01*
X146050000Y-76445771D01*
X145908945Y-76387344D01*
X145665902Y-76339000D01*
X145418098Y-76339000D01*
X145175055Y-76387344D01*
X144946114Y-76482175D01*
X144740072Y-76619848D01*
X144564848Y-76795072D01*
X144427175Y-77001114D01*
X144332344Y-77230055D01*
X144284000Y-77473098D01*
X144284000Y-77720902D01*
X144332344Y-77963945D01*
X144427175Y-78192886D01*
X144564848Y-78398928D01*
X144740072Y-78574152D01*
X144946114Y-78711825D01*
X145175055Y-78806656D01*
X145257399Y-78823035D01*
X145286684Y-78877825D01*
X145305954Y-78901307D01*
X145175055Y-78927344D01*
X144946114Y-79022175D01*
X144740072Y-79159848D01*
X144564848Y-79335072D01*
X144427175Y-79541114D01*
X144332344Y-79770055D01*
X144284000Y-80013098D01*
X144284000Y-80260902D01*
X144332344Y-80503945D01*
X144427175Y-80732886D01*
X144564848Y-80938928D01*
X144677320Y-81051400D01*
X144398113Y-81051400D01*
X144368172Y-81048451D01*
X144248669Y-81060221D01*
X144133759Y-81095079D01*
X144077154Y-81125335D01*
X144027858Y-81151684D01*
X143935034Y-81227862D01*
X143915941Y-81251127D01*
X142646400Y-82520668D01*
X142646400Y-81285348D01*
X142672685Y-81306919D01*
X142760937Y-81354091D01*
X142856695Y-81383139D01*
X142956280Y-81392947D01*
X143555720Y-81392947D01*
X143655305Y-81383139D01*
X143751063Y-81354091D01*
X143839315Y-81306919D01*
X143916668Y-81243438D01*
X143980149Y-81166085D01*
X144027321Y-81077833D01*
X144056369Y-80982075D01*
X144066177Y-80882490D01*
X144066177Y-80055965D01*
X144069556Y-80044826D01*
X144081500Y-79923553D01*
X144081500Y-78835184D01*
X144140251Y-78725269D01*
X144194717Y-78545721D01*
X144213108Y-78358999D01*
X144194717Y-78172277D01*
X144140251Y-77992730D01*
X144051805Y-77827260D01*
X143962600Y-77718563D01*
X143581608Y-77337570D01*
X143551778Y-77301222D01*
X143406741Y-77182194D01*
X143241269Y-77093748D01*
X143103277Y-77051888D01*
X143129000Y-76922571D01*
X143129000Y-76747453D01*
X143094836Y-76575700D01*
X143027821Y-76413913D01*
X142930531Y-76268308D01*
X142806704Y-76144481D01*
X142661099Y-76047191D01*
X142499312Y-75980176D01*
X142327559Y-75946012D01*
X142152441Y-75946012D01*
X141980688Y-75980176D01*
X141818901Y-76047191D01*
X141673296Y-76144481D01*
X141592365Y-76225412D01*
X141538746Y-76225412D01*
X141109085Y-75795752D01*
X141115305Y-75795139D01*
X141211063Y-75766091D01*
X141299315Y-75718919D01*
X141376668Y-75655438D01*
X141440149Y-75578085D01*
X141487321Y-75489833D01*
X141516369Y-75394075D01*
X141526177Y-75294490D01*
X141526177Y-73295510D01*
X141516369Y-73195925D01*
X141487321Y-73100167D01*
X141440149Y-73011915D01*
X141376668Y-72934562D01*
X141325600Y-72892652D01*
X141325600Y-72769503D01*
X141977070Y-72118034D01*
X142759419Y-72118034D01*
X142748000Y-72175441D01*
G36*
X153387580Y-75674979D02*
G01*
X153493204Y-75731436D01*
X153607812Y-75766202D01*
X153727000Y-75777941D01*
X153846189Y-75766202D01*
X153927001Y-75741688D01*
X154007812Y-75766202D01*
X154127000Y-75777941D01*
X154246189Y-75766202D01*
X154327001Y-75741688D01*
X154407812Y-75766202D01*
X154527000Y-75777941D01*
X154646189Y-75766202D01*
X154727001Y-75741688D01*
X154807812Y-75766202D01*
X154927000Y-75777941D01*
X155046189Y-75766202D01*
X155127001Y-75741688D01*
X155207812Y-75766202D01*
X155327000Y-75777941D01*
X155446189Y-75766202D01*
X155527001Y-75741688D01*
X155607812Y-75766202D01*
X155626006Y-75767994D01*
X155627798Y-75786189D01*
X155652312Y-75867000D01*
X155627798Y-75947811D01*
X155616059Y-76067000D01*
X155627798Y-76186189D01*
X155652312Y-76267000D01*
X155627798Y-76347811D01*
X155616059Y-76467000D01*
X155627798Y-76586189D01*
X155652312Y-76667000D01*
X155627798Y-76747811D01*
X155616059Y-76867000D01*
X155627798Y-76986189D01*
X155652312Y-77067000D01*
X155627798Y-77147811D01*
X155616059Y-77267000D01*
X155627798Y-77386189D01*
X155652312Y-77467000D01*
X155627798Y-77547811D01*
X155616059Y-77667000D01*
X155627798Y-77786189D01*
X155662564Y-77900797D01*
X155719021Y-78006421D01*
X155768737Y-78067000D01*
X155719021Y-78127579D01*
X155662564Y-78233203D01*
X155627798Y-78347811D01*
X155616059Y-78467000D01*
X155627798Y-78586189D01*
X155662564Y-78700797D01*
X155719021Y-78806421D01*
X155768737Y-78867000D01*
X155719021Y-78927579D01*
X155662564Y-79033203D01*
X155627798Y-79147811D01*
X155616059Y-79267000D01*
X155627798Y-79386189D01*
X155652312Y-79467000D01*
X155627798Y-79547811D01*
X155616059Y-79667000D01*
X155627798Y-79786189D01*
X155652312Y-79867000D01*
X155627798Y-79947811D01*
X155616059Y-80067000D01*
X155627798Y-80186189D01*
X155652312Y-80267000D01*
X155627798Y-80347811D01*
X155616059Y-80467000D01*
X155627798Y-80586189D01*
X155652312Y-80667000D01*
X155627798Y-80747811D01*
X155616059Y-80867000D01*
X155627798Y-80986189D01*
X155652312Y-81067000D01*
X155627798Y-81147811D01*
X155616059Y-81267000D01*
X155627798Y-81386189D01*
X155652312Y-81467000D01*
X155627798Y-81547811D01*
X155616059Y-81667000D01*
X155627798Y-81786189D01*
X155652312Y-81867000D01*
X155627798Y-81947811D01*
X155626006Y-81966006D01*
X155607811Y-81967798D01*
X155527000Y-81992312D01*
X155446188Y-81967798D01*
X155327000Y-81956059D01*
X155207811Y-81967798D01*
X155127000Y-81992312D01*
X155046188Y-81967798D01*
X154927000Y-81956059D01*
X154807811Y-81967798D01*
X154727000Y-81992312D01*
X154646188Y-81967798D01*
X154527000Y-81956059D01*
X154407811Y-81967798D01*
X154327000Y-81992312D01*
X154246188Y-81967798D01*
X154127000Y-81956059D01*
X154007811Y-81967798D01*
X153927000Y-81992312D01*
X153846188Y-81967798D01*
X153727000Y-81956059D01*
X153607811Y-81967798D01*
X153527000Y-81992312D01*
X153446188Y-81967798D01*
X153327000Y-81956059D01*
X153207811Y-81967798D01*
X153127000Y-81992312D01*
X153046188Y-81967798D01*
X152927000Y-81956059D01*
X152807811Y-81967798D01*
X152727000Y-81992312D01*
X152646188Y-81967798D01*
X152527000Y-81956059D01*
X152407811Y-81967798D01*
X152293203Y-82002564D01*
X152187579Y-82059021D01*
X152127000Y-82108737D01*
X152066420Y-82059021D01*
X151960796Y-82002564D01*
X151846188Y-81967798D01*
X151727000Y-81956059D01*
X151607811Y-81967798D01*
X151527000Y-81992312D01*
X151446188Y-81967798D01*
X151327000Y-81956059D01*
X151207811Y-81967798D01*
X151127000Y-81992312D01*
X151046188Y-81967798D01*
X150927000Y-81956059D01*
X150807811Y-81967798D01*
X150727000Y-81992312D01*
X150646188Y-81967798D01*
X150527000Y-81956059D01*
X150407811Y-81967798D01*
X150327000Y-81992312D01*
X150246188Y-81967798D01*
X150127000Y-81956059D01*
X150007811Y-81967798D01*
X149927000Y-81992312D01*
X149846188Y-81967798D01*
X149727000Y-81956059D01*
X149607811Y-81967798D01*
X149527000Y-81992312D01*
X149446188Y-81967798D01*
X149427994Y-81966006D01*
X149426202Y-81947811D01*
X149401688Y-81867000D01*
X149426202Y-81786189D01*
X149437941Y-81667000D01*
X149426202Y-81547811D01*
X149401688Y-81467000D01*
X149426202Y-81386189D01*
X149437941Y-81267000D01*
X149426202Y-81147811D01*
X149401688Y-81067000D01*
X149426202Y-80986189D01*
X149437941Y-80867000D01*
X149426202Y-80747811D01*
X149401688Y-80667000D01*
X149426202Y-80586189D01*
X149437941Y-80467000D01*
X149426202Y-80347811D01*
X149401688Y-80267000D01*
X149426202Y-80186189D01*
X149437941Y-80067000D01*
X149426202Y-79947811D01*
X149401688Y-79867000D01*
X149426202Y-79786189D01*
X149437941Y-79667000D01*
X149426202Y-79547811D01*
X149401688Y-79467000D01*
X149426202Y-79386189D01*
X149437941Y-79267000D01*
X149426202Y-79147811D01*
X149391436Y-79033203D01*
X149334979Y-78927579D01*
X149259001Y-78834999D01*
X149166421Y-78759021D01*
X149060797Y-78702564D01*
X148946189Y-78667798D01*
X148856861Y-78659000D01*
X148473186Y-78659000D01*
X148456941Y-78657400D01*
X147376110Y-78657400D01*
X147269199Y-78550490D01*
X147269199Y-76598505D01*
X147333588Y-76632921D01*
X147448498Y-76667779D01*
X147451972Y-76668121D01*
X147427798Y-76747811D01*
X147416059Y-76867000D01*
X147427798Y-76986189D01*
X147462564Y-77100797D01*
X147519021Y-77206421D01*
X147568737Y-77267000D01*
X147519021Y-77327579D01*
X147462564Y-77433203D01*
X147427798Y-77547811D01*
X147416059Y-77667000D01*
X147427798Y-77786189D01*
X147462564Y-77900797D01*
X147519021Y-78006421D01*
X147594999Y-78099001D01*
X147687579Y-78174979D01*
X147793203Y-78231436D01*
X147907811Y-78266202D01*
X147997139Y-78275000D01*
X148856861Y-78275000D01*
X148946189Y-78266202D01*
X149060797Y-78231436D01*
X149166421Y-78174979D01*
X149259001Y-78099001D01*
X149334979Y-78006421D01*
X149391436Y-77900797D01*
X149426202Y-77786189D01*
X149437941Y-77667000D01*
X149426202Y-77547811D01*
X149391436Y-77433203D01*
X149334979Y-77327579D01*
X149285263Y-77267000D01*
X149334979Y-77206421D01*
X149391436Y-77100797D01*
X149426202Y-76986189D01*
X149437941Y-76867000D01*
X149426202Y-76747811D01*
X149401688Y-76667000D01*
X149426202Y-76586189D01*
X149437941Y-76467000D01*
X149426202Y-76347811D01*
X149401688Y-76267000D01*
X149426202Y-76186189D01*
X149437941Y-76067000D01*
X149426202Y-75947811D01*
X149401688Y-75867000D01*
X149426202Y-75786189D01*
X149427994Y-75767994D01*
X149446189Y-75766202D01*
X149527001Y-75741688D01*
X149607812Y-75766202D01*
X149727000Y-75777941D01*
X149846189Y-75766202D01*
X149927001Y-75741688D01*
X150007812Y-75766202D01*
X150127000Y-75777941D01*
X150246189Y-75766202D01*
X150327001Y-75741688D01*
X150407812Y-75766202D01*
X150527000Y-75777941D01*
X150646189Y-75766202D01*
X150727001Y-75741688D01*
X150807812Y-75766202D01*
X150927000Y-75777941D01*
X151046189Y-75766202D01*
X151127001Y-75741688D01*
X151207812Y-75766202D01*
X151327000Y-75777941D01*
X151446189Y-75766202D01*
X151527001Y-75741688D01*
X151607812Y-75766202D01*
X151727000Y-75777941D01*
X151846189Y-75766202D01*
X151927001Y-75741688D01*
X152007812Y-75766202D01*
X152127000Y-75777941D01*
X152246189Y-75766202D01*
X152327001Y-75741688D01*
X152407812Y-75766202D01*
X152527000Y-75777941D01*
X152646189Y-75766202D01*
X152727001Y-75741688D01*
X152807812Y-75766202D01*
X152927000Y-75777941D01*
X153046189Y-75766202D01*
X153160797Y-75731436D01*
X153266421Y-75674979D01*
X153327001Y-75625263D01*
X153387580Y-75674979D01*
X153387580Y-75674979D01*
G37*
X153387580Y-75674979D02*
X153493204Y-75731436D01*
X153607812Y-75766202D01*
X153727000Y-75777941D01*
X153846189Y-75766202D01*
X153927001Y-75741688D01*
X154007812Y-75766202D01*
X154127000Y-75777941D01*
X154246189Y-75766202D01*
X154327001Y-75741688D01*
X154407812Y-75766202D01*
X154527000Y-75777941D01*
X154646189Y-75766202D01*
X154727001Y-75741688D01*
X154807812Y-75766202D01*
X154927000Y-75777941D01*
X155046189Y-75766202D01*
X155127001Y-75741688D01*
X155207812Y-75766202D01*
X155327000Y-75777941D01*
X155446189Y-75766202D01*
X155527001Y-75741688D01*
X155607812Y-75766202D01*
X155626006Y-75767994D01*
X155627798Y-75786189D01*
X155652312Y-75867000D01*
X155627798Y-75947811D01*
X155616059Y-76067000D01*
X155627798Y-76186189D01*
X155652312Y-76267000D01*
X155627798Y-76347811D01*
X155616059Y-76467000D01*
X155627798Y-76586189D01*
X155652312Y-76667000D01*
X155627798Y-76747811D01*
X155616059Y-76867000D01*
X155627798Y-76986189D01*
X155652312Y-77067000D01*
X155627798Y-77147811D01*
X155616059Y-77267000D01*
X155627798Y-77386189D01*
X155652312Y-77467000D01*
X155627798Y-77547811D01*
X155616059Y-77667000D01*
X155627798Y-77786189D01*
X155662564Y-77900797D01*
X155719021Y-78006421D01*
X155768737Y-78067000D01*
X155719021Y-78127579D01*
X155662564Y-78233203D01*
X155627798Y-78347811D01*
X155616059Y-78467000D01*
X155627798Y-78586189D01*
X155662564Y-78700797D01*
X155719021Y-78806421D01*
X155768737Y-78867000D01*
X155719021Y-78927579D01*
X155662564Y-79033203D01*
X155627798Y-79147811D01*
X155616059Y-79267000D01*
X155627798Y-79386189D01*
X155652312Y-79467000D01*
X155627798Y-79547811D01*
X155616059Y-79667000D01*
X155627798Y-79786189D01*
X155652312Y-79867000D01*
X155627798Y-79947811D01*
X155616059Y-80067000D01*
X155627798Y-80186189D01*
X155652312Y-80267000D01*
X155627798Y-80347811D01*
X155616059Y-80467000D01*
X155627798Y-80586189D01*
X155652312Y-80667000D01*
X155627798Y-80747811D01*
X155616059Y-80867000D01*
X155627798Y-80986189D01*
X155652312Y-81067000D01*
X155627798Y-81147811D01*
X155616059Y-81267000D01*
X155627798Y-81386189D01*
X155652312Y-81467000D01*
X155627798Y-81547811D01*
X155616059Y-81667000D01*
X155627798Y-81786189D01*
X155652312Y-81867000D01*
X155627798Y-81947811D01*
X155626006Y-81966006D01*
X155607811Y-81967798D01*
X155527000Y-81992312D01*
X155446188Y-81967798D01*
X155327000Y-81956059D01*
X155207811Y-81967798D01*
X155127000Y-81992312D01*
X155046188Y-81967798D01*
X154927000Y-81956059D01*
X154807811Y-81967798D01*
X154727000Y-81992312D01*
X154646188Y-81967798D01*
X154527000Y-81956059D01*
X154407811Y-81967798D01*
X154327000Y-81992312D01*
X154246188Y-81967798D01*
X154127000Y-81956059D01*
X154007811Y-81967798D01*
X153927000Y-81992312D01*
X153846188Y-81967798D01*
X153727000Y-81956059D01*
X153607811Y-81967798D01*
X153527000Y-81992312D01*
X153446188Y-81967798D01*
X153327000Y-81956059D01*
X153207811Y-81967798D01*
X153127000Y-81992312D01*
X153046188Y-81967798D01*
X152927000Y-81956059D01*
X152807811Y-81967798D01*
X152727000Y-81992312D01*
X152646188Y-81967798D01*
X152527000Y-81956059D01*
X152407811Y-81967798D01*
X152293203Y-82002564D01*
X152187579Y-82059021D01*
X152127000Y-82108737D01*
X152066420Y-82059021D01*
X151960796Y-82002564D01*
X151846188Y-81967798D01*
X151727000Y-81956059D01*
X151607811Y-81967798D01*
X151527000Y-81992312D01*
X151446188Y-81967798D01*
X151327000Y-81956059D01*
X151207811Y-81967798D01*
X151127000Y-81992312D01*
X151046188Y-81967798D01*
X150927000Y-81956059D01*
X150807811Y-81967798D01*
X150727000Y-81992312D01*
X150646188Y-81967798D01*
X150527000Y-81956059D01*
X150407811Y-81967798D01*
X150327000Y-81992312D01*
X150246188Y-81967798D01*
X150127000Y-81956059D01*
X150007811Y-81967798D01*
X149927000Y-81992312D01*
X149846188Y-81967798D01*
X149727000Y-81956059D01*
X149607811Y-81967798D01*
X149527000Y-81992312D01*
X149446188Y-81967798D01*
X149427994Y-81966006D01*
X149426202Y-81947811D01*
X149401688Y-81867000D01*
X149426202Y-81786189D01*
X149437941Y-81667000D01*
X149426202Y-81547811D01*
X149401688Y-81467000D01*
X149426202Y-81386189D01*
X149437941Y-81267000D01*
X149426202Y-81147811D01*
X149401688Y-81067000D01*
X149426202Y-80986189D01*
X149437941Y-80867000D01*
X149426202Y-80747811D01*
X149401688Y-80667000D01*
X149426202Y-80586189D01*
X149437941Y-80467000D01*
X149426202Y-80347811D01*
X149401688Y-80267000D01*
X149426202Y-80186189D01*
X149437941Y-80067000D01*
X149426202Y-79947811D01*
X149401688Y-79867000D01*
X149426202Y-79786189D01*
X149437941Y-79667000D01*
X149426202Y-79547811D01*
X149401688Y-79467000D01*
X149426202Y-79386189D01*
X149437941Y-79267000D01*
X149426202Y-79147811D01*
X149391436Y-79033203D01*
X149334979Y-78927579D01*
X149259001Y-78834999D01*
X149166421Y-78759021D01*
X149060797Y-78702564D01*
X148946189Y-78667798D01*
X148856861Y-78659000D01*
X148473186Y-78659000D01*
X148456941Y-78657400D01*
X147376110Y-78657400D01*
X147269199Y-78550490D01*
X147269199Y-76598505D01*
X147333588Y-76632921D01*
X147448498Y-76667779D01*
X147451972Y-76668121D01*
X147427798Y-76747811D01*
X147416059Y-76867000D01*
X147427798Y-76986189D01*
X147462564Y-77100797D01*
X147519021Y-77206421D01*
X147568737Y-77267000D01*
X147519021Y-77327579D01*
X147462564Y-77433203D01*
X147427798Y-77547811D01*
X147416059Y-77667000D01*
X147427798Y-77786189D01*
X147462564Y-77900797D01*
X147519021Y-78006421D01*
X147594999Y-78099001D01*
X147687579Y-78174979D01*
X147793203Y-78231436D01*
X147907811Y-78266202D01*
X147997139Y-78275000D01*
X148856861Y-78275000D01*
X148946189Y-78266202D01*
X149060797Y-78231436D01*
X149166421Y-78174979D01*
X149259001Y-78099001D01*
X149334979Y-78006421D01*
X149391436Y-77900797D01*
X149426202Y-77786189D01*
X149437941Y-77667000D01*
X149426202Y-77547811D01*
X149391436Y-77433203D01*
X149334979Y-77327579D01*
X149285263Y-77267000D01*
X149334979Y-77206421D01*
X149391436Y-77100797D01*
X149426202Y-76986189D01*
X149437941Y-76867000D01*
X149426202Y-76747811D01*
X149401688Y-76667000D01*
X149426202Y-76586189D01*
X149437941Y-76467000D01*
X149426202Y-76347811D01*
X149401688Y-76267000D01*
X149426202Y-76186189D01*
X149437941Y-76067000D01*
X149426202Y-75947811D01*
X149401688Y-75867000D01*
X149426202Y-75786189D01*
X149427994Y-75767994D01*
X149446189Y-75766202D01*
X149527001Y-75741688D01*
X149607812Y-75766202D01*
X149727000Y-75777941D01*
X149846189Y-75766202D01*
X149927001Y-75741688D01*
X150007812Y-75766202D01*
X150127000Y-75777941D01*
X150246189Y-75766202D01*
X150327001Y-75741688D01*
X150407812Y-75766202D01*
X150527000Y-75777941D01*
X150646189Y-75766202D01*
X150727001Y-75741688D01*
X150807812Y-75766202D01*
X150927000Y-75777941D01*
X151046189Y-75766202D01*
X151127001Y-75741688D01*
X151207812Y-75766202D01*
X151327000Y-75777941D01*
X151446189Y-75766202D01*
X151527001Y-75741688D01*
X151607812Y-75766202D01*
X151727000Y-75777941D01*
X151846189Y-75766202D01*
X151927001Y-75741688D01*
X152007812Y-75766202D01*
X152127000Y-75777941D01*
X152246189Y-75766202D01*
X152327001Y-75741688D01*
X152407812Y-75766202D01*
X152527000Y-75777941D01*
X152646189Y-75766202D01*
X152727001Y-75741688D01*
X152807812Y-75766202D01*
X152927000Y-75777941D01*
X153046189Y-75766202D01*
X153160797Y-75731436D01*
X153266421Y-75674979D01*
X153327001Y-75625263D01*
X153387580Y-75674979D01*
M02*
