G04 #@! TF.GenerationSoftware,KiCad,Pcbnew,(5.1.0-9-gc61ec8ee3)*
G04 #@! TF.CreationDate,2019-03-28T20:20:23-04:00*
G04 #@! TF.ProjectId,MPG_PSoC,4d50475f-5053-46f4-932e-6b696361645f,rev?*
G04 #@! TF.SameCoordinates,Original*
G04 #@! TF.FileFunction,Paste,Top*
G04 #@! TF.FilePolarity,Positive*
%FSLAX46Y46*%
G04 Gerber Fmt 4.6, Leading zero omitted, Abs format (unit mm)*
G04 Created by KiCad (PCBNEW (5.1.0-9-gc61ec8ee3)) date 2019-03-28 20:20:23*
%MOMM*%
%LPD*%
G04 APERTURE LIST*
%ADD10R,1.800000X1.800000*%
%ADD11O,0.200000X1.000000*%
%ADD12O,1.000000X0.200000*%
%ADD13R,0.599440X1.998980*%
%ADD14R,0.700000X0.900000*%
%ADD15R,0.900000X0.700000*%
%ADD16R,1.200000X2.500000*%
%ADD17R,2.500000X1.200000*%
%ADD18R,0.950000X0.900000*%
%ADD19R,2.197100X2.197100*%
%ADD20R,0.497840X2.197100*%
%ADD21R,3.810000X1.524000*%
%ADD22R,0.599440X1.000760*%
G04 APERTURE END LIST*
D10*
X153627000Y-79967000D03*
X151427000Y-79967000D03*
X151427000Y-77767000D03*
X153627000Y-77767000D03*
D11*
X149327000Y-74767000D03*
X149727000Y-74767000D03*
X150127000Y-74767000D03*
X150527000Y-74767000D03*
X150927000Y-74767000D03*
X151327000Y-74767000D03*
X151727000Y-74767000D03*
X152127000Y-74767000D03*
X152527000Y-74767000D03*
X152927000Y-74767000D03*
X153327000Y-74767000D03*
X153727000Y-74767000D03*
X154127000Y-74767000D03*
X154527000Y-74767000D03*
X154927000Y-74767000D03*
X155327000Y-74767000D03*
X155727000Y-74767000D03*
D12*
X156627000Y-75667000D03*
X156627000Y-76067000D03*
X156627000Y-76467000D03*
X156627000Y-76867000D03*
X156627000Y-77267000D03*
X156627000Y-77667000D03*
X156627000Y-78067000D03*
X156627000Y-78467000D03*
X156627000Y-78867000D03*
X156627000Y-79267000D03*
X156627000Y-79667000D03*
X156627000Y-80067000D03*
X156627000Y-80467000D03*
X156627000Y-80867000D03*
X156627000Y-81267000D03*
X156627000Y-81667000D03*
X156627000Y-82067000D03*
D11*
X155727000Y-82967000D03*
X155327000Y-82967000D03*
X154927000Y-82967000D03*
X154527000Y-82967000D03*
X154127000Y-82967000D03*
X153727000Y-82967000D03*
X153327000Y-82967000D03*
X152927000Y-82967000D03*
X152527000Y-82967000D03*
X152127000Y-82967000D03*
X151727000Y-82967000D03*
X151327000Y-82967000D03*
X150927000Y-82967000D03*
X150527000Y-82967000D03*
X150127000Y-82967000D03*
X149727000Y-82967000D03*
X149327000Y-82967000D03*
D12*
X148427000Y-82067000D03*
X148427000Y-81667000D03*
X148427000Y-81267000D03*
X148427000Y-80867000D03*
X148427000Y-80467000D03*
X148427000Y-80067000D03*
X148427000Y-79667000D03*
X148427000Y-79267000D03*
X148427000Y-78867000D03*
X148427000Y-78467000D03*
X148427000Y-78067000D03*
X148427000Y-77667000D03*
X148427000Y-77267000D03*
X148427000Y-76867000D03*
X148427000Y-76467000D03*
X148427000Y-76067000D03*
X148427000Y-75667000D03*
D13*
X143256000Y-79883000D03*
X141986000Y-79883000D03*
X140716000Y-79883000D03*
X139446000Y-79883000D03*
X139446000Y-74295000D03*
X140716000Y-74295000D03*
X141986000Y-74295000D03*
X143256000Y-74295000D03*
D14*
X144907000Y-90805000D03*
X146407000Y-90805000D03*
D15*
X137795000Y-77700000D03*
X137795000Y-76200000D03*
D16*
X145034000Y-88392000D03*
X148034000Y-88392000D03*
D17*
X135255000Y-79248000D03*
X135255000Y-76248000D03*
D18*
X148082000Y-94862000D03*
X148082000Y-90812000D03*
D19*
X154924760Y-98615500D03*
D20*
X148897340Y-98336100D03*
X149697440Y-98336100D03*
X150495000Y-98336100D03*
X151292560Y-98336100D03*
X152092660Y-98336100D03*
D19*
X146065240Y-98615500D03*
X146065240Y-104114600D03*
X154924760Y-104114600D03*
D21*
X166751000Y-102743000D03*
X166751000Y-99949000D03*
X166751000Y-97155000D03*
X166751000Y-94361000D03*
X166751000Y-91567000D03*
X166751000Y-88773000D03*
X166751000Y-85979000D03*
X166751000Y-83185000D03*
X166751000Y-80391000D03*
X166751000Y-77597000D03*
X166751000Y-74803000D03*
X166751000Y-72009000D03*
X166751000Y-69215000D03*
D22*
X161480500Y-86400640D03*
X160528000Y-84287360D03*
X159575500Y-86400640D03*
D15*
X150241000Y-90729000D03*
X150241000Y-92329000D03*
X151765000Y-92329000D03*
X151765000Y-90729000D03*
D14*
X162560000Y-81788000D03*
X160960000Y-81788000D03*
D13*
X132461000Y-74168000D03*
X131191000Y-74168000D03*
X129921000Y-74168000D03*
X128651000Y-74168000D03*
X128651000Y-79756000D03*
X129921000Y-79756000D03*
X131191000Y-79756000D03*
X132461000Y-79756000D03*
D15*
X139065000Y-67806000D03*
X139065000Y-66306000D03*
X139065000Y-70688000D03*
X139065000Y-69088000D03*
D14*
X144450000Y-73152000D03*
X146050000Y-73152000D03*
M02*
