G04 #@! TF.GenerationSoftware,KiCad,Pcbnew,(5.1.0-9-gc61ec8ee3)*
G04 #@! TF.CreationDate,2019-03-28T20:20:23-04:00*
G04 #@! TF.ProjectId,MPG_PSoC,4d50475f-5053-46f4-932e-6b696361645f,rev?*
G04 #@! TF.SameCoordinates,Original*
G04 #@! TF.FileFunction,Legend,Bot*
G04 #@! TF.FilePolarity,Positive*
%FSLAX46Y46*%
G04 Gerber Fmt 4.6, Leading zero omitted, Abs format (unit mm)*
G04 Created by KiCad (PCBNEW (5.1.0-9-gc61ec8ee3)) date 2019-03-28 20:20:23*
%MOMM*%
%LPD*%
G04 APERTURE LIST*
%ADD10C,0.150000*%
%ADD11C,0.127000*%
%ADD12C,6.452000*%
%ADD13R,1.002000X0.802000*%
%ADD14R,0.802000X1.002000*%
%ADD15R,1.702000X1.702000*%
%ADD16C,1.702000*%
%ADD17C,1.001160*%
%ADD18R,3.912000X1.626000*%
%ADD19C,1.602000*%
G04 APERTURE END LIST*
D10*
X154317095Y-91580285D02*
X154135666Y-91640761D01*
X154075190Y-91701238D01*
X154014714Y-91822190D01*
X154014714Y-92003619D01*
X154075190Y-92124571D01*
X154135666Y-92185047D01*
X154256619Y-92245523D01*
X154740428Y-92245523D01*
X154740428Y-90975523D01*
X154317095Y-90975523D01*
X154196142Y-91036000D01*
X154135666Y-91096476D01*
X154075190Y-91217428D01*
X154075190Y-91338380D01*
X154135666Y-91459333D01*
X154196142Y-91519809D01*
X154317095Y-91580285D01*
X154740428Y-91580285D01*
X153470428Y-92245523D02*
X153470428Y-90975523D01*
X152986619Y-90975523D01*
X152865666Y-91036000D01*
X152805190Y-91096476D01*
X152744714Y-91217428D01*
X152744714Y-91398857D01*
X152805190Y-91519809D01*
X152865666Y-91580285D01*
X152986619Y-91640761D01*
X153470428Y-91640761D01*
X152321380Y-90975523D02*
X151535190Y-90975523D01*
X151958523Y-91459333D01*
X151777095Y-91459333D01*
X151656142Y-91519809D01*
X151595666Y-91580285D01*
X151535190Y-91701238D01*
X151535190Y-92003619D01*
X151595666Y-92124571D01*
X151656142Y-92185047D01*
X151777095Y-92245523D01*
X152139952Y-92245523D01*
X152260904Y-92185047D01*
X152321380Y-92124571D01*
X150749000Y-90975523D02*
X150628047Y-90975523D01*
X150507095Y-91036000D01*
X150446619Y-91096476D01*
X150386142Y-91217428D01*
X150325666Y-91459333D01*
X150325666Y-91761714D01*
X150386142Y-92003619D01*
X150446619Y-92124571D01*
X150507095Y-92185047D01*
X150628047Y-92245523D01*
X150749000Y-92245523D01*
X150869952Y-92185047D01*
X150930428Y-92124571D01*
X150990904Y-92003619D01*
X151051380Y-91761714D01*
X151051380Y-91459333D01*
X150990904Y-91217428D01*
X150930428Y-91096476D01*
X150869952Y-91036000D01*
X150749000Y-90975523D01*
X149599952Y-91519809D02*
X149720904Y-91459333D01*
X149781380Y-91398857D01*
X149841857Y-91277904D01*
X149841857Y-91217428D01*
X149781380Y-91096476D01*
X149720904Y-91036000D01*
X149599952Y-90975523D01*
X149358047Y-90975523D01*
X149237095Y-91036000D01*
X149176619Y-91096476D01*
X149116142Y-91217428D01*
X149116142Y-91277904D01*
X149176619Y-91398857D01*
X149237095Y-91459333D01*
X149358047Y-91519809D01*
X149599952Y-91519809D01*
X149720904Y-91580285D01*
X149781380Y-91640761D01*
X149841857Y-91761714D01*
X149841857Y-92003619D01*
X149781380Y-92124571D01*
X149720904Y-92185047D01*
X149599952Y-92245523D01*
X149358047Y-92245523D01*
X149237095Y-92185047D01*
X149176619Y-92124571D01*
X149116142Y-92003619D01*
X149116142Y-91761714D01*
X149176619Y-91640761D01*
X149237095Y-91580285D01*
X149358047Y-91519809D01*
X147604238Y-92245523D02*
X147604238Y-90975523D01*
X147180904Y-91882666D01*
X146757571Y-90975523D01*
X146757571Y-92245523D01*
X146152809Y-92245523D02*
X146152809Y-90975523D01*
X145669000Y-90975523D01*
X145548047Y-91036000D01*
X145487571Y-91096476D01*
X145427095Y-91217428D01*
X145427095Y-91398857D01*
X145487571Y-91519809D01*
X145548047Y-91580285D01*
X145669000Y-91640761D01*
X146152809Y-91640761D01*
X144217571Y-91036000D02*
X144338523Y-90975523D01*
X144519952Y-90975523D01*
X144701380Y-91036000D01*
X144822333Y-91156952D01*
X144882809Y-91277904D01*
X144943285Y-91519809D01*
X144943285Y-91701238D01*
X144882809Y-91943142D01*
X144822333Y-92064095D01*
X144701380Y-92185047D01*
X144519952Y-92245523D01*
X144399000Y-92245523D01*
X144217571Y-92185047D01*
X144157095Y-92124571D01*
X144157095Y-91701238D01*
X144399000Y-91701238D01*
X155103285Y-93030523D02*
X154982333Y-93030523D01*
X154861380Y-93091000D01*
X154800904Y-93151476D01*
X154740428Y-93272428D01*
X154679952Y-93514333D01*
X154679952Y-93816714D01*
X154740428Y-94058619D01*
X154800904Y-94179571D01*
X154861380Y-94240047D01*
X154982333Y-94300523D01*
X155103285Y-94300523D01*
X155224238Y-94240047D01*
X155284714Y-94179571D01*
X155345190Y-94058619D01*
X155405666Y-93816714D01*
X155405666Y-93514333D01*
X155345190Y-93272428D01*
X155284714Y-93151476D01*
X155224238Y-93091000D01*
X155103285Y-93030523D01*
X154256619Y-93030523D02*
X153470428Y-93030523D01*
X153893761Y-93514333D01*
X153712333Y-93514333D01*
X153591380Y-93574809D01*
X153530904Y-93635285D01*
X153470428Y-93756238D01*
X153470428Y-94058619D01*
X153530904Y-94179571D01*
X153591380Y-94240047D01*
X153712333Y-94300523D01*
X154075190Y-94300523D01*
X154196142Y-94240047D01*
X154256619Y-94179571D01*
X152019000Y-92970047D02*
X153107571Y-94602904D01*
X151656142Y-93151476D02*
X151595666Y-93091000D01*
X151474714Y-93030523D01*
X151172333Y-93030523D01*
X151051380Y-93091000D01*
X150990904Y-93151476D01*
X150930428Y-93272428D01*
X150930428Y-93393380D01*
X150990904Y-93574809D01*
X151716619Y-94300523D01*
X150930428Y-94300523D01*
X150204714Y-93574809D02*
X150325666Y-93514333D01*
X150386142Y-93453857D01*
X150446619Y-93332904D01*
X150446619Y-93272428D01*
X150386142Y-93151476D01*
X150325666Y-93091000D01*
X150204714Y-93030523D01*
X149962809Y-93030523D01*
X149841857Y-93091000D01*
X149781380Y-93151476D01*
X149720904Y-93272428D01*
X149720904Y-93332904D01*
X149781380Y-93453857D01*
X149841857Y-93514333D01*
X149962809Y-93574809D01*
X150204714Y-93574809D01*
X150325666Y-93635285D01*
X150386142Y-93695761D01*
X150446619Y-93816714D01*
X150446619Y-94058619D01*
X150386142Y-94179571D01*
X150325666Y-94240047D01*
X150204714Y-94300523D01*
X149962809Y-94300523D01*
X149841857Y-94240047D01*
X149781380Y-94179571D01*
X149720904Y-94058619D01*
X149720904Y-93816714D01*
X149781380Y-93695761D01*
X149841857Y-93635285D01*
X149962809Y-93574809D01*
X148269476Y-92970047D02*
X149358047Y-94602904D01*
X147906619Y-93151476D02*
X147846142Y-93091000D01*
X147725190Y-93030523D01*
X147422809Y-93030523D01*
X147301857Y-93091000D01*
X147241380Y-93151476D01*
X147180904Y-93272428D01*
X147180904Y-93393380D01*
X147241380Y-93574809D01*
X147967095Y-94300523D01*
X147180904Y-94300523D01*
X146394714Y-93030523D02*
X146273761Y-93030523D01*
X146152809Y-93091000D01*
X146092333Y-93151476D01*
X146031857Y-93272428D01*
X145971380Y-93514333D01*
X145971380Y-93816714D01*
X146031857Y-94058619D01*
X146092333Y-94179571D01*
X146152809Y-94240047D01*
X146273761Y-94300523D01*
X146394714Y-94300523D01*
X146515666Y-94240047D01*
X146576142Y-94179571D01*
X146636619Y-94058619D01*
X146697095Y-93816714D01*
X146697095Y-93514333D01*
X146636619Y-93272428D01*
X146576142Y-93151476D01*
X146515666Y-93091000D01*
X146394714Y-93030523D01*
X144761857Y-94300523D02*
X145487571Y-94300523D01*
X145124714Y-94300523D02*
X145124714Y-93030523D01*
X145245666Y-93211952D01*
X145366619Y-93332904D01*
X145487571Y-93393380D01*
X144157095Y-94300523D02*
X143915190Y-94300523D01*
X143794238Y-94240047D01*
X143733761Y-94179571D01*
X143612809Y-93998142D01*
X143552333Y-93756238D01*
X143552333Y-93272428D01*
X143612809Y-93151476D01*
X143673285Y-93091000D01*
X143794238Y-93030523D01*
X144036142Y-93030523D01*
X144157095Y-93091000D01*
X144217571Y-93151476D01*
X144278047Y-93272428D01*
X144278047Y-93574809D01*
X144217571Y-93695761D01*
X144157095Y-93756238D01*
X144036142Y-93816714D01*
X143794238Y-93816714D01*
X143673285Y-93756238D01*
X143612809Y-93695761D01*
X143552333Y-93574809D01*
X152109714Y-96355523D02*
X152533047Y-95750761D01*
X152835428Y-96355523D02*
X152835428Y-95085523D01*
X152351619Y-95085523D01*
X152230666Y-95146000D01*
X152170190Y-95206476D01*
X152109714Y-95327428D01*
X152109714Y-95508857D01*
X152170190Y-95629809D01*
X152230666Y-95690285D01*
X152351619Y-95750761D01*
X152835428Y-95750761D01*
X151081619Y-96295047D02*
X151202571Y-96355523D01*
X151444476Y-96355523D01*
X151565428Y-96295047D01*
X151625904Y-96174095D01*
X151625904Y-95690285D01*
X151565428Y-95569333D01*
X151444476Y-95508857D01*
X151202571Y-95508857D01*
X151081619Y-95569333D01*
X151021142Y-95690285D01*
X151021142Y-95811238D01*
X151625904Y-95932190D01*
X150597809Y-95508857D02*
X150295428Y-96355523D01*
X149993047Y-95508857D01*
X147876380Y-96355523D02*
X148602095Y-96355523D01*
X148239238Y-96355523D02*
X148239238Y-95085523D01*
X148360190Y-95266952D01*
X148481142Y-95387904D01*
X148602095Y-95448380D01*
X147332095Y-96234571D02*
X147271619Y-96295047D01*
X147332095Y-96355523D01*
X147392571Y-96295047D01*
X147332095Y-96234571D01*
X147332095Y-96355523D01*
X146485428Y-95085523D02*
X146364476Y-95085523D01*
X146243523Y-95146000D01*
X146183047Y-95206476D01*
X146122571Y-95327428D01*
X146062095Y-95569333D01*
X146062095Y-95871714D01*
X146122571Y-96113619D01*
X146183047Y-96234571D01*
X146243523Y-96295047D01*
X146364476Y-96355523D01*
X146485428Y-96355523D01*
X146606380Y-96295047D01*
X146666857Y-96234571D01*
X146727333Y-96113619D01*
X146787809Y-95871714D01*
X146787809Y-95569333D01*
X146727333Y-95327428D01*
X146666857Y-95206476D01*
X146606380Y-95146000D01*
X146485428Y-95085523D01*
X143866904Y-80668761D02*
X143724047Y-80716380D01*
X143485952Y-80716380D01*
X143390714Y-80668761D01*
X143343095Y-80621142D01*
X143295476Y-80525904D01*
X143295476Y-80430666D01*
X143343095Y-80335428D01*
X143390714Y-80287809D01*
X143485952Y-80240190D01*
X143676428Y-80192571D01*
X143771666Y-80144952D01*
X143819285Y-80097333D01*
X143866904Y-80002095D01*
X143866904Y-79906857D01*
X143819285Y-79811619D01*
X143771666Y-79764000D01*
X143676428Y-79716380D01*
X143438333Y-79716380D01*
X143295476Y-79764000D01*
X142962142Y-79716380D02*
X142724047Y-80716380D01*
X142533571Y-80002095D01*
X142343095Y-80716380D01*
X142105000Y-79716380D01*
X141152619Y-80621142D02*
X141200238Y-80668761D01*
X141343095Y-80716380D01*
X141438333Y-80716380D01*
X141581190Y-80668761D01*
X141676428Y-80573523D01*
X141724047Y-80478285D01*
X141771666Y-80287809D01*
X141771666Y-80144952D01*
X141724047Y-79954476D01*
X141676428Y-79859238D01*
X141581190Y-79764000D01*
X141438333Y-79716380D01*
X141343095Y-79716380D01*
X141200238Y-79764000D01*
X141152619Y-79811619D01*
X140247857Y-80716380D02*
X140724047Y-80716380D01*
X140724047Y-79716380D01*
X139914523Y-80716380D02*
X139914523Y-79716380D01*
X139343095Y-80716380D02*
X139771666Y-80144952D01*
X139343095Y-79716380D02*
X139914523Y-80287809D01*
X143851047Y-77874761D02*
X143708190Y-77922380D01*
X143470095Y-77922380D01*
X143374857Y-77874761D01*
X143327238Y-77827142D01*
X143279619Y-77731904D01*
X143279619Y-77636666D01*
X143327238Y-77541428D01*
X143374857Y-77493809D01*
X143470095Y-77446190D01*
X143660571Y-77398571D01*
X143755809Y-77350952D01*
X143803428Y-77303333D01*
X143851047Y-77208095D01*
X143851047Y-77112857D01*
X143803428Y-77017619D01*
X143755809Y-76970000D01*
X143660571Y-76922380D01*
X143422476Y-76922380D01*
X143279619Y-76970000D01*
X142946285Y-76922380D02*
X142708190Y-77922380D01*
X142517714Y-77208095D01*
X142327238Y-77922380D01*
X142089142Y-76922380D01*
X141708190Y-77922380D02*
X141708190Y-76922380D01*
X141470095Y-76922380D01*
X141327238Y-76970000D01*
X141232000Y-77065238D01*
X141184380Y-77160476D01*
X141136761Y-77350952D01*
X141136761Y-77493809D01*
X141184380Y-77684285D01*
X141232000Y-77779523D01*
X141327238Y-77874761D01*
X141470095Y-77922380D01*
X141708190Y-77922380D01*
X140708190Y-77922380D02*
X140708190Y-76922380D01*
X140041523Y-76922380D02*
X139851047Y-76922380D01*
X139755809Y-76970000D01*
X139660571Y-77065238D01*
X139612952Y-77255714D01*
X139612952Y-77589047D01*
X139660571Y-77779523D01*
X139755809Y-77874761D01*
X139851047Y-77922380D01*
X140041523Y-77922380D01*
X140136761Y-77874761D01*
X140232000Y-77779523D01*
X140279619Y-77589047D01*
X140279619Y-77255714D01*
X140232000Y-77065238D01*
X140136761Y-76970000D01*
X140041523Y-76922380D01*
X143041619Y-75509380D02*
X143374952Y-75033190D01*
X143613047Y-75509380D02*
X143613047Y-74509380D01*
X143232095Y-74509380D01*
X143136857Y-74557000D01*
X143089238Y-74604619D01*
X143041619Y-74699857D01*
X143041619Y-74842714D01*
X143089238Y-74937952D01*
X143136857Y-74985571D01*
X143232095Y-75033190D01*
X143613047Y-75033190D01*
X142660666Y-75461761D02*
X142517809Y-75509380D01*
X142279714Y-75509380D01*
X142184476Y-75461761D01*
X142136857Y-75414142D01*
X142089238Y-75318904D01*
X142089238Y-75223666D01*
X142136857Y-75128428D01*
X142184476Y-75080809D01*
X142279714Y-75033190D01*
X142470190Y-74985571D01*
X142565428Y-74937952D01*
X142613047Y-74890333D01*
X142660666Y-74795095D01*
X142660666Y-74699857D01*
X142613047Y-74604619D01*
X142565428Y-74557000D01*
X142470190Y-74509380D01*
X142232095Y-74509380D01*
X142089238Y-74557000D01*
X141803523Y-74509380D02*
X141232095Y-74509380D01*
X141517809Y-75509380D02*
X141517809Y-74509380D01*
D11*
X156019500Y-79946500D02*
X156019500Y-82359500D01*
X156019500Y-82359500D02*
X157162500Y-82359500D01*
X157162500Y-82359500D02*
X157162500Y-79946500D01*
X157162500Y-79946500D02*
X156019500Y-79946500D01*
X151562500Y-75374500D02*
X151562500Y-74231500D01*
X149149500Y-75374500D02*
X151562500Y-75374500D01*
X149149500Y-74231500D02*
X149149500Y-75374500D01*
X151562500Y-74231500D02*
X149149500Y-74231500D01*
X156019500Y-77164500D02*
X156019500Y-79577500D01*
X156019500Y-79577500D02*
X157162500Y-79577500D01*
X157162500Y-79577500D02*
X157162500Y-77164500D01*
X157162500Y-77164500D02*
X156019500Y-77164500D01*
X149034500Y-79958500D02*
X147891500Y-79958500D01*
X149034500Y-82371500D02*
X149034500Y-79958500D01*
X147891500Y-82371500D02*
X149034500Y-82371500D01*
X147891500Y-79958500D02*
X147891500Y-82371500D01*
X154876500Y-74231500D02*
X152463500Y-74231500D01*
X152463500Y-74231500D02*
X152463500Y-75374500D01*
X152463500Y-75374500D02*
X154876500Y-75374500D01*
X154876500Y-75374500D02*
X154876500Y-74231500D01*
X154610500Y-83502500D02*
X154610500Y-82359500D01*
X152197500Y-83502500D02*
X154610500Y-83502500D01*
X152197500Y-82359500D02*
X152197500Y-83502500D01*
X154610500Y-82359500D02*
X152197500Y-82359500D01*
X131826000Y-79184500D02*
X129286000Y-79184500D01*
X129286000Y-79184500D02*
X129286000Y-80327500D01*
X129286000Y-80327500D02*
X131826000Y-80327500D01*
X131826000Y-80327500D02*
X131826000Y-79184500D01*
X149288500Y-83502500D02*
X151701500Y-83502500D01*
X151701500Y-83502500D02*
X151701500Y-82359500D01*
X151701500Y-82359500D02*
X149288500Y-82359500D01*
X149288500Y-82359500D02*
X149288500Y-83502500D01*
X158233533Y-81316285D02*
X158267400Y-81354990D01*
X158369000Y-81393695D01*
X158436733Y-81393695D01*
X158538333Y-81354990D01*
X158606066Y-81277580D01*
X158639933Y-81200171D01*
X158673800Y-81045352D01*
X158673800Y-80929238D01*
X158639933Y-80774419D01*
X158606066Y-80697009D01*
X158538333Y-80619600D01*
X158436733Y-80580895D01*
X158369000Y-80580895D01*
X158267400Y-80619600D01*
X158233533Y-80658304D01*
X157962600Y-80658304D02*
X157928733Y-80619600D01*
X157861000Y-80580895D01*
X157691666Y-80580895D01*
X157623933Y-80619600D01*
X157590066Y-80658304D01*
X157556200Y-80735714D01*
X157556200Y-80813123D01*
X157590066Y-80929238D01*
X157996466Y-81393695D01*
X157556200Y-81393695D01*
X150994533Y-73696285D02*
X151028400Y-73734990D01*
X151130000Y-73773695D01*
X151197733Y-73773695D01*
X151299333Y-73734990D01*
X151367066Y-73657580D01*
X151400933Y-73580171D01*
X151434800Y-73425352D01*
X151434800Y-73309238D01*
X151400933Y-73154419D01*
X151367066Y-73077009D01*
X151299333Y-72999600D01*
X151197733Y-72960895D01*
X151130000Y-72960895D01*
X151028400Y-72999600D01*
X150994533Y-73038304D01*
X150757466Y-72960895D02*
X150317200Y-72960895D01*
X150554266Y-73270533D01*
X150452666Y-73270533D01*
X150384933Y-73309238D01*
X150351066Y-73347942D01*
X150317200Y-73425352D01*
X150317200Y-73618876D01*
X150351066Y-73696285D01*
X150384933Y-73734990D01*
X150452666Y-73773695D01*
X150655866Y-73773695D01*
X150723600Y-73734990D01*
X150757466Y-73696285D01*
X158106533Y-77760285D02*
X158140400Y-77798990D01*
X158242000Y-77837695D01*
X158309733Y-77837695D01*
X158411333Y-77798990D01*
X158479066Y-77721580D01*
X158512933Y-77644171D01*
X158546800Y-77489352D01*
X158546800Y-77373238D01*
X158512933Y-77218419D01*
X158479066Y-77141009D01*
X158411333Y-77063600D01*
X158309733Y-77024895D01*
X158242000Y-77024895D01*
X158140400Y-77063600D01*
X158106533Y-77102304D01*
X157463066Y-77024895D02*
X157801733Y-77024895D01*
X157835600Y-77411942D01*
X157801733Y-77373238D01*
X157734000Y-77334533D01*
X157564666Y-77334533D01*
X157496933Y-77373238D01*
X157463066Y-77411942D01*
X157429200Y-77489352D01*
X157429200Y-77682876D01*
X157463066Y-77760285D01*
X157496933Y-77798990D01*
X157564666Y-77837695D01*
X157734000Y-77837695D01*
X157801733Y-77798990D01*
X157835600Y-77760285D01*
X147057533Y-81455285D02*
X147091400Y-81493990D01*
X147193000Y-81532695D01*
X147260733Y-81532695D01*
X147362333Y-81493990D01*
X147430066Y-81416580D01*
X147463933Y-81339171D01*
X147497800Y-81184352D01*
X147497800Y-81068238D01*
X147463933Y-80913419D01*
X147430066Y-80836009D01*
X147362333Y-80758600D01*
X147260733Y-80719895D01*
X147193000Y-80719895D01*
X147091400Y-80758600D01*
X147057533Y-80797304D01*
X146447933Y-80719895D02*
X146583400Y-80719895D01*
X146651133Y-80758600D01*
X146685000Y-80797304D01*
X146752733Y-80913419D01*
X146786600Y-81068238D01*
X146786600Y-81377876D01*
X146752733Y-81455285D01*
X146718866Y-81493990D01*
X146651133Y-81532695D01*
X146515666Y-81532695D01*
X146447933Y-81493990D01*
X146414066Y-81455285D01*
X146380200Y-81377876D01*
X146380200Y-81184352D01*
X146414066Y-81106942D01*
X146447933Y-81068238D01*
X146515666Y-81029533D01*
X146651133Y-81029533D01*
X146718866Y-81068238D01*
X146752733Y-81106942D01*
X146786600Y-81184352D01*
X154804533Y-73823285D02*
X154838400Y-73861990D01*
X154940000Y-73900695D01*
X155007733Y-73900695D01*
X155109333Y-73861990D01*
X155177066Y-73784580D01*
X155210933Y-73707171D01*
X155244800Y-73552352D01*
X155244800Y-73436238D01*
X155210933Y-73281419D01*
X155177066Y-73204009D01*
X155109333Y-73126600D01*
X155007733Y-73087895D01*
X154940000Y-73087895D01*
X154838400Y-73126600D01*
X154804533Y-73165304D01*
X154567466Y-73087895D02*
X154093333Y-73087895D01*
X154398133Y-73900695D01*
X153661533Y-81697285D02*
X153695400Y-81735990D01*
X153797000Y-81774695D01*
X153864733Y-81774695D01*
X153966333Y-81735990D01*
X154034066Y-81658580D01*
X154067933Y-81581171D01*
X154101800Y-81426352D01*
X154101800Y-81310238D01*
X154067933Y-81155419D01*
X154034066Y-81078009D01*
X153966333Y-81000600D01*
X153864733Y-80961895D01*
X153797000Y-80961895D01*
X153695400Y-81000600D01*
X153661533Y-81039304D01*
X153322866Y-81774695D02*
X153187400Y-81774695D01*
X153119666Y-81735990D01*
X153085800Y-81697285D01*
X153018066Y-81581171D01*
X152984200Y-81426352D01*
X152984200Y-81116714D01*
X153018066Y-81039304D01*
X153051933Y-81000600D01*
X153119666Y-80961895D01*
X153255133Y-80961895D01*
X153322866Y-81000600D01*
X153356733Y-81039304D01*
X153390600Y-81116714D01*
X153390600Y-81310238D01*
X153356733Y-81387647D01*
X153322866Y-81426352D01*
X153255133Y-81465057D01*
X153119666Y-81465057D01*
X153051933Y-81426352D01*
X153018066Y-81387647D01*
X152984200Y-81310238D01*
X130674533Y-81520695D02*
X130911600Y-81133647D01*
X131080933Y-81520695D02*
X131080933Y-80707895D01*
X130810000Y-80707895D01*
X130742266Y-80746600D01*
X130708400Y-80785304D01*
X130674533Y-80862714D01*
X130674533Y-80978828D01*
X130708400Y-81056238D01*
X130742266Y-81094942D01*
X130810000Y-81133647D01*
X131080933Y-81133647D01*
X130064933Y-80978828D02*
X130064933Y-81520695D01*
X130234266Y-80669190D02*
X130403600Y-81249761D01*
X129963333Y-81249761D01*
X150825200Y-84491285D02*
X150859066Y-84529990D01*
X150960666Y-84568695D01*
X151028400Y-84568695D01*
X151130000Y-84529990D01*
X151197733Y-84452580D01*
X151231600Y-84375171D01*
X151265466Y-84220352D01*
X151265466Y-84104238D01*
X151231600Y-83949419D01*
X151197733Y-83872009D01*
X151130000Y-83794600D01*
X151028400Y-83755895D01*
X150960666Y-83755895D01*
X150859066Y-83794600D01*
X150825200Y-83833304D01*
X150147866Y-84568695D02*
X150554266Y-84568695D01*
X150351066Y-84568695D02*
X150351066Y-83755895D01*
X150418800Y-83872009D01*
X150486533Y-83949419D01*
X150554266Y-83988123D01*
X149470533Y-84568695D02*
X149876933Y-84568695D01*
X149673733Y-84568695D02*
X149673733Y-83755895D01*
X149741466Y-83872009D01*
X149809200Y-83949419D01*
X149876933Y-83988123D01*
%LPC*%
D12*
X160020000Y-101600000D03*
X160020000Y-69850000D03*
X135255000Y-101600000D03*
X134620000Y-69850000D03*
D13*
X156591000Y-81903000D03*
X156591000Y-80403000D03*
D14*
X151106000Y-74803000D03*
X149606000Y-74803000D03*
D13*
X156591000Y-79121000D03*
X156591000Y-77621000D03*
X148463000Y-80415000D03*
X148463000Y-81915000D03*
D14*
X152920000Y-74803000D03*
X154420000Y-74803000D03*
X154154000Y-82931000D03*
X152654000Y-82931000D03*
D15*
X133096000Y-94869000D03*
D16*
X135636000Y-94869000D03*
X133096000Y-92329000D03*
X135636000Y-92329000D03*
X133096000Y-89789000D03*
X135636000Y-89789000D03*
X133096000Y-87249000D03*
X135636000Y-87249000D03*
X133096000Y-84709000D03*
X135636000Y-84709000D03*
D17*
X148297900Y-100863400D03*
X152694640Y-100863400D03*
D18*
X166751000Y-98552000D03*
X166751000Y-95758000D03*
X166751000Y-92964000D03*
X166751000Y-90170000D03*
X166751000Y-87376000D03*
X166751000Y-84582000D03*
X166751000Y-81788000D03*
X166751000Y-78994000D03*
X166751000Y-76200000D03*
X166751000Y-73406000D03*
X166751000Y-70612000D03*
X166751000Y-101346000D03*
D19*
X144145000Y-69850000D03*
X144145000Y-67310000D03*
X146685000Y-69850000D03*
X146685000Y-67310000D03*
X149225000Y-69850000D03*
X149225000Y-67310000D03*
X151765000Y-69850000D03*
X151765000Y-67310000D03*
X154305000Y-69850000D03*
X154305000Y-67310000D03*
D14*
X129756000Y-79756000D03*
X131356000Y-79756000D03*
X151245000Y-82931000D03*
X149745000Y-82931000D03*
D19*
X141605000Y-69850000D03*
X141605000Y-67310000D03*
X145542000Y-75057000D03*
X145542000Y-77597000D03*
X145542000Y-80137000D03*
M02*
