G04 #@! TF.GenerationSoftware,KiCad,Pcbnew,(5.1.0-9-gc61ec8ee3)*
G04 #@! TF.CreationDate,2019-03-28T20:20:23-04:00*
G04 #@! TF.ProjectId,MPG_PSoC,4d50475f-5053-46f4-932e-6b696361645f,rev?*
G04 #@! TF.SameCoordinates,Original*
G04 #@! TF.FileFunction,Soldermask,Top*
G04 #@! TF.FilePolarity,Negative*
%FSLAX46Y46*%
G04 Gerber Fmt 4.6, Leading zero omitted, Abs format (unit mm)*
G04 Created by KiCad (PCBNEW (5.1.0-9-gc61ec8ee3)) date 2019-03-28 20:20:23*
%MOMM*%
%LPD*%
G04 APERTURE LIST*
%ADD10C,0.100000*%
G04 APERTURE END LIST*
D10*
G36*
X156074310Y-105264150D02*
G01*
X153775210Y-105264150D01*
X153775210Y-102965050D01*
X156074310Y-102965050D01*
X156074310Y-105264150D01*
X156074310Y-105264150D01*
G37*
G36*
X147214790Y-105264150D02*
G01*
X144915690Y-105264150D01*
X144915690Y-102965050D01*
X147214790Y-102965050D01*
X147214790Y-105264150D01*
X147214790Y-105264150D01*
G37*
G36*
X136195988Y-98497973D02*
G01*
X136783082Y-98741155D01*
X136783084Y-98741156D01*
X137311455Y-99094202D01*
X137760798Y-99543545D01*
X138113844Y-100071916D01*
X138113845Y-100071918D01*
X138357027Y-100659012D01*
X138481000Y-101282265D01*
X138481000Y-101917735D01*
X138357027Y-102540988D01*
X138181375Y-102965050D01*
X138113844Y-103128084D01*
X137760798Y-103656455D01*
X137311455Y-104105798D01*
X136783084Y-104458844D01*
X136783083Y-104458845D01*
X136783082Y-104458845D01*
X136195988Y-104702027D01*
X135572735Y-104826000D01*
X134937265Y-104826000D01*
X134314012Y-104702027D01*
X133726918Y-104458845D01*
X133726917Y-104458845D01*
X133726916Y-104458844D01*
X133198545Y-104105798D01*
X132749202Y-103656455D01*
X132396156Y-103128084D01*
X132328625Y-102965050D01*
X132152973Y-102540988D01*
X132029000Y-101917735D01*
X132029000Y-101282265D01*
X132152973Y-100659012D01*
X132396155Y-100071918D01*
X132396156Y-100071916D01*
X132749202Y-99543545D01*
X133198545Y-99094202D01*
X133726916Y-98741156D01*
X133726918Y-98741155D01*
X134314012Y-98497973D01*
X134937265Y-98374000D01*
X135572735Y-98374000D01*
X136195988Y-98497973D01*
X136195988Y-98497973D01*
G37*
G36*
X160960988Y-98497973D02*
G01*
X161548082Y-98741155D01*
X161548084Y-98741156D01*
X162076455Y-99094202D01*
X162525798Y-99543545D01*
X162878844Y-100071916D01*
X162878845Y-100071918D01*
X163122027Y-100659012D01*
X163246000Y-101282265D01*
X163246000Y-101917735D01*
X163122027Y-102540988D01*
X162946375Y-102965050D01*
X162878844Y-103128084D01*
X162525798Y-103656455D01*
X162076455Y-104105798D01*
X161548084Y-104458844D01*
X161548083Y-104458845D01*
X161548082Y-104458845D01*
X160960988Y-104702027D01*
X160337735Y-104826000D01*
X159702265Y-104826000D01*
X159079012Y-104702027D01*
X158491918Y-104458845D01*
X158491917Y-104458845D01*
X158491916Y-104458844D01*
X157963545Y-104105798D01*
X157514202Y-103656455D01*
X157161156Y-103128084D01*
X157093625Y-102965050D01*
X156917973Y-102540988D01*
X156794000Y-101917735D01*
X156794000Y-101282265D01*
X156917973Y-100659012D01*
X157161155Y-100071918D01*
X157161156Y-100071916D01*
X157514202Y-99543545D01*
X157963545Y-99094202D01*
X158491916Y-98741156D01*
X158491918Y-98741155D01*
X159079012Y-98497973D01*
X159702265Y-98374000D01*
X160337735Y-98374000D01*
X160960988Y-98497973D01*
X160960988Y-98497973D01*
G37*
G36*
X168707000Y-103556000D02*
G01*
X164795000Y-103556000D01*
X164795000Y-101930000D01*
X168707000Y-101930000D01*
X168707000Y-103556000D01*
X168707000Y-103556000D01*
G37*
G36*
X152792298Y-100372438D02*
G01*
X152840654Y-100382057D01*
X152931754Y-100419792D01*
X153013741Y-100474574D01*
X153083466Y-100544299D01*
X153138248Y-100626286D01*
X153175983Y-100717386D01*
X153195220Y-100814097D01*
X153195220Y-100912703D01*
X153175983Y-101009414D01*
X153138248Y-101100514D01*
X153083466Y-101182501D01*
X153013741Y-101252226D01*
X152931754Y-101307008D01*
X152840654Y-101344743D01*
X152792298Y-101354362D01*
X152743944Y-101363980D01*
X152645336Y-101363980D01*
X152596982Y-101354362D01*
X152548626Y-101344743D01*
X152457526Y-101307008D01*
X152375539Y-101252226D01*
X152305814Y-101182501D01*
X152251032Y-101100514D01*
X152213297Y-101009414D01*
X152194060Y-100912703D01*
X152194060Y-100814097D01*
X152213297Y-100717386D01*
X152251032Y-100626286D01*
X152305814Y-100544299D01*
X152375539Y-100474574D01*
X152457526Y-100419792D01*
X152548626Y-100382057D01*
X152596981Y-100372439D01*
X152645336Y-100362820D01*
X152743944Y-100362820D01*
X152792298Y-100372438D01*
X152792298Y-100372438D01*
G37*
G36*
X148395558Y-100372438D02*
G01*
X148443914Y-100382057D01*
X148535014Y-100419792D01*
X148617001Y-100474574D01*
X148686726Y-100544299D01*
X148741508Y-100626286D01*
X148779243Y-100717386D01*
X148798480Y-100814097D01*
X148798480Y-100912703D01*
X148779243Y-101009414D01*
X148741508Y-101100514D01*
X148686726Y-101182501D01*
X148617001Y-101252226D01*
X148535014Y-101307008D01*
X148443914Y-101344743D01*
X148395558Y-101354362D01*
X148347204Y-101363980D01*
X148248596Y-101363980D01*
X148200242Y-101354362D01*
X148151886Y-101344743D01*
X148060786Y-101307008D01*
X147978799Y-101252226D01*
X147909074Y-101182501D01*
X147854292Y-101100514D01*
X147816557Y-101009414D01*
X147797320Y-100912703D01*
X147797320Y-100814097D01*
X147816557Y-100717386D01*
X147854292Y-100626286D01*
X147909074Y-100544299D01*
X147978799Y-100474574D01*
X148060786Y-100419792D01*
X148151886Y-100382057D01*
X148200241Y-100372439D01*
X148248596Y-100362820D01*
X148347204Y-100362820D01*
X148395558Y-100372438D01*
X148395558Y-100372438D01*
G37*
G36*
X168707000Y-100762000D02*
G01*
X164795000Y-100762000D01*
X164795000Y-99136000D01*
X168707000Y-99136000D01*
X168707000Y-100762000D01*
X168707000Y-100762000D01*
G37*
G36*
X156074310Y-99765050D02*
G01*
X153775210Y-99765050D01*
X153775210Y-97465950D01*
X156074310Y-97465950D01*
X156074310Y-99765050D01*
X156074310Y-99765050D01*
G37*
G36*
X147214790Y-99765050D02*
G01*
X144915690Y-99765050D01*
X144915690Y-97465950D01*
X147214790Y-97465950D01*
X147214790Y-99765050D01*
X147214790Y-99765050D01*
G37*
G36*
X152392580Y-99485650D02*
G01*
X148597420Y-99485650D01*
X148597420Y-97186550D01*
X152392580Y-97186550D01*
X152392580Y-99485650D01*
X152392580Y-99485650D01*
G37*
G36*
X168707000Y-97968000D02*
G01*
X164795000Y-97968000D01*
X164795000Y-96342000D01*
X168707000Y-96342000D01*
X168707000Y-97968000D01*
X168707000Y-97968000D01*
G37*
G36*
X133947000Y-95720000D02*
G01*
X132245000Y-95720000D01*
X132245000Y-94018000D01*
X133947000Y-94018000D01*
X133947000Y-95720000D01*
X133947000Y-95720000D01*
G37*
G36*
X135884228Y-94050703D02*
G01*
X136039100Y-94114853D01*
X136178481Y-94207985D01*
X136297015Y-94326519D01*
X136390147Y-94465900D01*
X136454297Y-94620772D01*
X136487000Y-94785184D01*
X136487000Y-94952816D01*
X136454297Y-95117228D01*
X136390147Y-95272100D01*
X136297015Y-95411481D01*
X136178481Y-95530015D01*
X136039100Y-95623147D01*
X135884228Y-95687297D01*
X135719816Y-95720000D01*
X135552184Y-95720000D01*
X135387772Y-95687297D01*
X135232900Y-95623147D01*
X135093519Y-95530015D01*
X134974985Y-95411481D01*
X134881853Y-95272100D01*
X134817703Y-95117228D01*
X134785000Y-94952816D01*
X134785000Y-94785184D01*
X134817703Y-94620772D01*
X134881853Y-94465900D01*
X134974985Y-94326519D01*
X135093519Y-94207985D01*
X135232900Y-94114853D01*
X135387772Y-94050703D01*
X135552184Y-94018000D01*
X135719816Y-94018000D01*
X135884228Y-94050703D01*
X135884228Y-94050703D01*
G37*
G36*
X148608000Y-95363000D02*
G01*
X147556000Y-95363000D01*
X147556000Y-94361000D01*
X148608000Y-94361000D01*
X148608000Y-95363000D01*
X148608000Y-95363000D01*
G37*
G36*
X168707000Y-95174000D02*
G01*
X164795000Y-95174000D01*
X164795000Y-93548000D01*
X168707000Y-93548000D01*
X168707000Y-95174000D01*
X168707000Y-95174000D01*
G37*
G36*
X135884228Y-91510703D02*
G01*
X136039100Y-91574853D01*
X136178481Y-91667985D01*
X136297015Y-91786519D01*
X136390147Y-91925900D01*
X136454297Y-92080772D01*
X136487000Y-92245184D01*
X136487000Y-92412816D01*
X136454297Y-92577228D01*
X136390147Y-92732100D01*
X136297015Y-92871481D01*
X136178481Y-92990015D01*
X136039100Y-93083147D01*
X135884228Y-93147297D01*
X135719816Y-93180000D01*
X135552184Y-93180000D01*
X135387772Y-93147297D01*
X135232900Y-93083147D01*
X135093519Y-92990015D01*
X134974985Y-92871481D01*
X134881853Y-92732100D01*
X134817703Y-92577228D01*
X134785000Y-92412816D01*
X134785000Y-92245184D01*
X134817703Y-92080772D01*
X134881853Y-91925900D01*
X134974985Y-91786519D01*
X135093519Y-91667985D01*
X135232900Y-91574853D01*
X135387772Y-91510703D01*
X135552184Y-91478000D01*
X135719816Y-91478000D01*
X135884228Y-91510703D01*
X135884228Y-91510703D01*
G37*
G36*
X133344228Y-91510703D02*
G01*
X133499100Y-91574853D01*
X133638481Y-91667985D01*
X133757015Y-91786519D01*
X133850147Y-91925900D01*
X133914297Y-92080772D01*
X133947000Y-92245184D01*
X133947000Y-92412816D01*
X133914297Y-92577228D01*
X133850147Y-92732100D01*
X133757015Y-92871481D01*
X133638481Y-92990015D01*
X133499100Y-93083147D01*
X133344228Y-93147297D01*
X133179816Y-93180000D01*
X133012184Y-93180000D01*
X132847772Y-93147297D01*
X132692900Y-93083147D01*
X132553519Y-92990015D01*
X132434985Y-92871481D01*
X132341853Y-92732100D01*
X132277703Y-92577228D01*
X132245000Y-92412816D01*
X132245000Y-92245184D01*
X132277703Y-92080772D01*
X132341853Y-91925900D01*
X132434985Y-91786519D01*
X132553519Y-91667985D01*
X132692900Y-91574853D01*
X132847772Y-91510703D01*
X133012184Y-91478000D01*
X133179816Y-91478000D01*
X133344228Y-91510703D01*
X133344228Y-91510703D01*
G37*
G36*
X150742000Y-92730000D02*
G01*
X149740000Y-92730000D01*
X149740000Y-91928000D01*
X150742000Y-91928000D01*
X150742000Y-92730000D01*
X150742000Y-92730000D01*
G37*
G36*
X152266000Y-92730000D02*
G01*
X151264000Y-92730000D01*
X151264000Y-91928000D01*
X152266000Y-91928000D01*
X152266000Y-92730000D01*
X152266000Y-92730000D01*
G37*
G36*
X168707000Y-92380000D02*
G01*
X164795000Y-92380000D01*
X164795000Y-90754000D01*
X168707000Y-90754000D01*
X168707000Y-92380000D01*
X168707000Y-92380000D01*
G37*
G36*
X148608000Y-91313000D02*
G01*
X147556000Y-91313000D01*
X147556000Y-90311000D01*
X148608000Y-90311000D01*
X148608000Y-91313000D01*
X148608000Y-91313000D01*
G37*
G36*
X145308000Y-91306000D02*
G01*
X144506000Y-91306000D01*
X144506000Y-90304000D01*
X145308000Y-90304000D01*
X145308000Y-91306000D01*
X145308000Y-91306000D01*
G37*
G36*
X146808000Y-91306000D02*
G01*
X146006000Y-91306000D01*
X146006000Y-90304000D01*
X146808000Y-90304000D01*
X146808000Y-91306000D01*
X146808000Y-91306000D01*
G37*
G36*
X150742000Y-91130000D02*
G01*
X149740000Y-91130000D01*
X149740000Y-90328000D01*
X150742000Y-90328000D01*
X150742000Y-91130000D01*
X150742000Y-91130000D01*
G37*
G36*
X152266000Y-91130000D02*
G01*
X151264000Y-91130000D01*
X151264000Y-90328000D01*
X152266000Y-90328000D01*
X152266000Y-91130000D01*
X152266000Y-91130000D01*
G37*
G36*
X133344228Y-88970703D02*
G01*
X133499100Y-89034853D01*
X133638481Y-89127985D01*
X133757015Y-89246519D01*
X133850147Y-89385900D01*
X133914297Y-89540772D01*
X133947000Y-89705184D01*
X133947000Y-89872816D01*
X133914297Y-90037228D01*
X133850147Y-90192100D01*
X133757015Y-90331481D01*
X133638481Y-90450015D01*
X133499100Y-90543147D01*
X133344228Y-90607297D01*
X133179816Y-90640000D01*
X133012184Y-90640000D01*
X132847772Y-90607297D01*
X132692900Y-90543147D01*
X132553519Y-90450015D01*
X132434985Y-90331481D01*
X132341853Y-90192100D01*
X132277703Y-90037228D01*
X132245000Y-89872816D01*
X132245000Y-89705184D01*
X132277703Y-89540772D01*
X132341853Y-89385900D01*
X132434985Y-89246519D01*
X132553519Y-89127985D01*
X132692900Y-89034853D01*
X132847772Y-88970703D01*
X133012184Y-88938000D01*
X133179816Y-88938000D01*
X133344228Y-88970703D01*
X133344228Y-88970703D01*
G37*
G36*
X135884228Y-88970703D02*
G01*
X136039100Y-89034853D01*
X136178481Y-89127985D01*
X136297015Y-89246519D01*
X136390147Y-89385900D01*
X136454297Y-89540772D01*
X136487000Y-89705184D01*
X136487000Y-89872816D01*
X136454297Y-90037228D01*
X136390147Y-90192100D01*
X136297015Y-90331481D01*
X136178481Y-90450015D01*
X136039100Y-90543147D01*
X135884228Y-90607297D01*
X135719816Y-90640000D01*
X135552184Y-90640000D01*
X135387772Y-90607297D01*
X135232900Y-90543147D01*
X135093519Y-90450015D01*
X134974985Y-90331481D01*
X134881853Y-90192100D01*
X134817703Y-90037228D01*
X134785000Y-89872816D01*
X134785000Y-89705184D01*
X134817703Y-89540772D01*
X134881853Y-89385900D01*
X134974985Y-89246519D01*
X135093519Y-89127985D01*
X135232900Y-89034853D01*
X135387772Y-88970703D01*
X135552184Y-88938000D01*
X135719816Y-88938000D01*
X135884228Y-88970703D01*
X135884228Y-88970703D01*
G37*
G36*
X145685000Y-89693000D02*
G01*
X144383000Y-89693000D01*
X144383000Y-87091000D01*
X145685000Y-87091000D01*
X145685000Y-89693000D01*
X145685000Y-89693000D01*
G37*
G36*
X148685000Y-89693000D02*
G01*
X147383000Y-89693000D01*
X147383000Y-87091000D01*
X148685000Y-87091000D01*
X148685000Y-89693000D01*
X148685000Y-89693000D01*
G37*
G36*
X168707000Y-89586000D02*
G01*
X164795000Y-89586000D01*
X164795000Y-87960000D01*
X168707000Y-87960000D01*
X168707000Y-89586000D01*
X168707000Y-89586000D01*
G37*
G36*
X135884228Y-86430703D02*
G01*
X136039100Y-86494853D01*
X136178481Y-86587985D01*
X136297015Y-86706519D01*
X136390147Y-86845900D01*
X136454297Y-87000772D01*
X136487000Y-87165184D01*
X136487000Y-87332816D01*
X136454297Y-87497228D01*
X136390147Y-87652100D01*
X136297015Y-87791481D01*
X136178481Y-87910015D01*
X136039100Y-88003147D01*
X135884228Y-88067297D01*
X135719816Y-88100000D01*
X135552184Y-88100000D01*
X135387772Y-88067297D01*
X135232900Y-88003147D01*
X135093519Y-87910015D01*
X134974985Y-87791481D01*
X134881853Y-87652100D01*
X134817703Y-87497228D01*
X134785000Y-87332816D01*
X134785000Y-87165184D01*
X134817703Y-87000772D01*
X134881853Y-86845900D01*
X134974985Y-86706519D01*
X135093519Y-86587985D01*
X135232900Y-86494853D01*
X135387772Y-86430703D01*
X135552184Y-86398000D01*
X135719816Y-86398000D01*
X135884228Y-86430703D01*
X135884228Y-86430703D01*
G37*
G36*
X133344228Y-86430703D02*
G01*
X133499100Y-86494853D01*
X133638481Y-86587985D01*
X133757015Y-86706519D01*
X133850147Y-86845900D01*
X133914297Y-87000772D01*
X133947000Y-87165184D01*
X133947000Y-87332816D01*
X133914297Y-87497228D01*
X133850147Y-87652100D01*
X133757015Y-87791481D01*
X133638481Y-87910015D01*
X133499100Y-88003147D01*
X133344228Y-88067297D01*
X133179816Y-88100000D01*
X133012184Y-88100000D01*
X132847772Y-88067297D01*
X132692900Y-88003147D01*
X132553519Y-87910015D01*
X132434985Y-87791481D01*
X132341853Y-87652100D01*
X132277703Y-87497228D01*
X132245000Y-87332816D01*
X132245000Y-87165184D01*
X132277703Y-87000772D01*
X132341853Y-86845900D01*
X132434985Y-86706519D01*
X132553519Y-86587985D01*
X132692900Y-86494853D01*
X132847772Y-86430703D01*
X133012184Y-86398000D01*
X133179816Y-86398000D01*
X133344228Y-86430703D01*
X133344228Y-86430703D01*
G37*
G36*
X159926220Y-86952020D02*
G01*
X159224780Y-86952020D01*
X159224780Y-85849260D01*
X159926220Y-85849260D01*
X159926220Y-86952020D01*
X159926220Y-86952020D01*
G37*
G36*
X161831220Y-86952020D02*
G01*
X161129780Y-86952020D01*
X161129780Y-85849260D01*
X161831220Y-85849260D01*
X161831220Y-86952020D01*
X161831220Y-86952020D01*
G37*
G36*
X168707000Y-86792000D02*
G01*
X164795000Y-86792000D01*
X164795000Y-85166000D01*
X168707000Y-85166000D01*
X168707000Y-86792000D01*
X168707000Y-86792000D01*
G37*
G36*
X135884228Y-83890703D02*
G01*
X136039100Y-83954853D01*
X136178481Y-84047985D01*
X136297015Y-84166519D01*
X136390147Y-84305900D01*
X136454297Y-84460772D01*
X136487000Y-84625184D01*
X136487000Y-84792816D01*
X136454297Y-84957228D01*
X136390147Y-85112100D01*
X136297015Y-85251481D01*
X136178481Y-85370015D01*
X136039100Y-85463147D01*
X135884228Y-85527297D01*
X135719816Y-85560000D01*
X135552184Y-85560000D01*
X135387772Y-85527297D01*
X135232900Y-85463147D01*
X135093519Y-85370015D01*
X134974985Y-85251481D01*
X134881853Y-85112100D01*
X134817703Y-84957228D01*
X134785000Y-84792816D01*
X134785000Y-84625184D01*
X134817703Y-84460772D01*
X134881853Y-84305900D01*
X134974985Y-84166519D01*
X135093519Y-84047985D01*
X135232900Y-83954853D01*
X135387772Y-83890703D01*
X135552184Y-83858000D01*
X135719816Y-83858000D01*
X135884228Y-83890703D01*
X135884228Y-83890703D01*
G37*
G36*
X133344228Y-83890703D02*
G01*
X133499100Y-83954853D01*
X133638481Y-84047985D01*
X133757015Y-84166519D01*
X133850147Y-84305900D01*
X133914297Y-84460772D01*
X133947000Y-84625184D01*
X133947000Y-84792816D01*
X133914297Y-84957228D01*
X133850147Y-85112100D01*
X133757015Y-85251481D01*
X133638481Y-85370015D01*
X133499100Y-85463147D01*
X133344228Y-85527297D01*
X133179816Y-85560000D01*
X133012184Y-85560000D01*
X132847772Y-85527297D01*
X132692900Y-85463147D01*
X132553519Y-85370015D01*
X132434985Y-85251481D01*
X132341853Y-85112100D01*
X132277703Y-84957228D01*
X132245000Y-84792816D01*
X132245000Y-84625184D01*
X132277703Y-84460772D01*
X132341853Y-84305900D01*
X132434985Y-84166519D01*
X132553519Y-84047985D01*
X132692900Y-83954853D01*
X132847772Y-83890703D01*
X133012184Y-83858000D01*
X133179816Y-83858000D01*
X133344228Y-83890703D01*
X133344228Y-83890703D01*
G37*
G36*
X160878720Y-84838740D02*
G01*
X160177280Y-84838740D01*
X160177280Y-83735980D01*
X160878720Y-83735980D01*
X160878720Y-84838740D01*
X160878720Y-84838740D01*
G37*
G36*
X168707000Y-83998000D02*
G01*
X164795000Y-83998000D01*
X164795000Y-82372000D01*
X168707000Y-82372000D01*
X168707000Y-83998000D01*
X168707000Y-83998000D01*
G37*
G36*
X149356600Y-82418185D02*
G01*
X149377658Y-82424573D01*
X149385068Y-82426821D01*
X149411297Y-82440841D01*
X149439060Y-82463625D01*
X149447702Y-82472267D01*
X149468077Y-82485881D01*
X149490716Y-82495258D01*
X149514749Y-82500038D01*
X149539253Y-82500038D01*
X149563286Y-82495257D01*
X149585925Y-82485880D01*
X149606299Y-82472266D01*
X149614940Y-82463625D01*
X149642701Y-82440842D01*
X149646087Y-82439032D01*
X149668935Y-82426820D01*
X149697399Y-82418185D01*
X149717133Y-82416242D01*
X149726999Y-82415270D01*
X149727000Y-82415270D01*
X149756600Y-82418185D01*
X149777658Y-82424573D01*
X149785068Y-82426821D01*
X149811297Y-82440841D01*
X149839060Y-82463625D01*
X149847702Y-82472267D01*
X149868077Y-82485881D01*
X149890716Y-82495258D01*
X149914749Y-82500038D01*
X149939253Y-82500038D01*
X149963286Y-82495257D01*
X149985925Y-82485880D01*
X150006299Y-82472266D01*
X150014940Y-82463625D01*
X150042701Y-82440842D01*
X150046087Y-82439032D01*
X150068935Y-82426820D01*
X150097399Y-82418185D01*
X150117133Y-82416242D01*
X150126999Y-82415270D01*
X150127000Y-82415270D01*
X150156600Y-82418185D01*
X150177658Y-82424573D01*
X150185068Y-82426821D01*
X150211297Y-82440841D01*
X150239060Y-82463625D01*
X150247702Y-82472267D01*
X150268077Y-82485881D01*
X150290716Y-82495258D01*
X150314749Y-82500038D01*
X150339253Y-82500038D01*
X150363286Y-82495257D01*
X150385925Y-82485880D01*
X150406299Y-82472266D01*
X150414940Y-82463625D01*
X150442701Y-82440842D01*
X150446087Y-82439032D01*
X150468935Y-82426820D01*
X150497399Y-82418185D01*
X150517133Y-82416242D01*
X150526999Y-82415270D01*
X150527000Y-82415270D01*
X150556600Y-82418185D01*
X150577658Y-82424573D01*
X150585068Y-82426821D01*
X150611297Y-82440841D01*
X150639060Y-82463625D01*
X150647702Y-82472267D01*
X150668077Y-82485881D01*
X150690716Y-82495258D01*
X150714749Y-82500038D01*
X150739253Y-82500038D01*
X150763286Y-82495257D01*
X150785925Y-82485880D01*
X150806299Y-82472266D01*
X150814940Y-82463625D01*
X150842701Y-82440842D01*
X150846087Y-82439032D01*
X150868935Y-82426820D01*
X150897399Y-82418185D01*
X150917133Y-82416242D01*
X150926999Y-82415270D01*
X150927000Y-82415270D01*
X150956600Y-82418185D01*
X150977658Y-82424573D01*
X150985068Y-82426821D01*
X151011297Y-82440841D01*
X151039060Y-82463625D01*
X151047702Y-82472267D01*
X151068077Y-82485881D01*
X151090716Y-82495258D01*
X151114749Y-82500038D01*
X151139253Y-82500038D01*
X151163286Y-82495257D01*
X151185925Y-82485880D01*
X151206299Y-82472266D01*
X151214940Y-82463625D01*
X151242701Y-82440842D01*
X151246087Y-82439032D01*
X151268935Y-82426820D01*
X151297399Y-82418185D01*
X151317133Y-82416242D01*
X151326999Y-82415270D01*
X151327000Y-82415270D01*
X151356600Y-82418185D01*
X151377658Y-82424573D01*
X151385068Y-82426821D01*
X151411297Y-82440841D01*
X151439060Y-82463625D01*
X151447702Y-82472267D01*
X151468077Y-82485881D01*
X151490716Y-82495258D01*
X151514749Y-82500038D01*
X151539253Y-82500038D01*
X151563286Y-82495257D01*
X151585925Y-82485880D01*
X151606299Y-82472266D01*
X151614940Y-82463625D01*
X151642701Y-82440842D01*
X151646087Y-82439032D01*
X151668935Y-82426820D01*
X151697399Y-82418185D01*
X151717133Y-82416242D01*
X151726999Y-82415270D01*
X151727000Y-82415270D01*
X151756600Y-82418185D01*
X151777658Y-82424573D01*
X151785068Y-82426821D01*
X151811297Y-82440841D01*
X151839060Y-82463625D01*
X151847702Y-82472267D01*
X151868077Y-82485881D01*
X151890716Y-82495258D01*
X151914749Y-82500038D01*
X151939253Y-82500038D01*
X151963286Y-82495257D01*
X151985925Y-82485880D01*
X152006299Y-82472266D01*
X152014940Y-82463625D01*
X152042701Y-82440842D01*
X152046087Y-82439032D01*
X152068935Y-82426820D01*
X152097399Y-82418185D01*
X152117133Y-82416242D01*
X152126999Y-82415270D01*
X152127000Y-82415270D01*
X152156600Y-82418185D01*
X152177658Y-82424573D01*
X152185068Y-82426821D01*
X152211297Y-82440841D01*
X152239060Y-82463625D01*
X152247702Y-82472267D01*
X152268077Y-82485881D01*
X152290716Y-82495258D01*
X152314749Y-82500038D01*
X152339253Y-82500038D01*
X152363286Y-82495257D01*
X152385925Y-82485880D01*
X152406299Y-82472266D01*
X152414940Y-82463625D01*
X152442701Y-82440842D01*
X152446087Y-82439032D01*
X152468935Y-82426820D01*
X152497399Y-82418185D01*
X152517133Y-82416242D01*
X152526999Y-82415270D01*
X152527000Y-82415270D01*
X152556600Y-82418185D01*
X152577658Y-82424573D01*
X152585068Y-82426821D01*
X152611297Y-82440841D01*
X152639060Y-82463625D01*
X152647702Y-82472267D01*
X152668077Y-82485881D01*
X152690716Y-82495258D01*
X152714749Y-82500038D01*
X152739253Y-82500038D01*
X152763286Y-82495257D01*
X152785925Y-82485880D01*
X152806299Y-82472266D01*
X152814940Y-82463625D01*
X152842701Y-82440842D01*
X152846087Y-82439032D01*
X152868935Y-82426820D01*
X152897399Y-82418185D01*
X152917133Y-82416242D01*
X152926999Y-82415270D01*
X152927000Y-82415270D01*
X152956600Y-82418185D01*
X152977658Y-82424573D01*
X152985068Y-82426821D01*
X153011297Y-82440841D01*
X153039060Y-82463625D01*
X153047702Y-82472267D01*
X153068077Y-82485881D01*
X153090716Y-82495258D01*
X153114749Y-82500038D01*
X153139253Y-82500038D01*
X153163286Y-82495257D01*
X153185925Y-82485880D01*
X153206299Y-82472266D01*
X153214940Y-82463625D01*
X153242701Y-82440842D01*
X153246087Y-82439032D01*
X153268935Y-82426820D01*
X153297399Y-82418185D01*
X153317133Y-82416242D01*
X153326999Y-82415270D01*
X153327000Y-82415270D01*
X153356600Y-82418185D01*
X153377658Y-82424573D01*
X153385068Y-82426821D01*
X153411297Y-82440841D01*
X153439060Y-82463625D01*
X153447702Y-82472267D01*
X153468077Y-82485881D01*
X153490716Y-82495258D01*
X153514749Y-82500038D01*
X153539253Y-82500038D01*
X153563286Y-82495257D01*
X153585925Y-82485880D01*
X153606299Y-82472266D01*
X153614940Y-82463625D01*
X153642701Y-82440842D01*
X153646087Y-82439032D01*
X153668935Y-82426820D01*
X153697399Y-82418185D01*
X153717133Y-82416242D01*
X153726999Y-82415270D01*
X153727000Y-82415270D01*
X153756600Y-82418185D01*
X153777658Y-82424573D01*
X153785068Y-82426821D01*
X153811297Y-82440841D01*
X153839060Y-82463625D01*
X153847702Y-82472267D01*
X153868077Y-82485881D01*
X153890716Y-82495258D01*
X153914749Y-82500038D01*
X153939253Y-82500038D01*
X153963286Y-82495257D01*
X153985925Y-82485880D01*
X154006299Y-82472266D01*
X154014940Y-82463625D01*
X154042701Y-82440842D01*
X154046087Y-82439032D01*
X154068935Y-82426820D01*
X154097399Y-82418185D01*
X154117133Y-82416242D01*
X154126999Y-82415270D01*
X154127000Y-82415270D01*
X154156600Y-82418185D01*
X154177658Y-82424573D01*
X154185068Y-82426821D01*
X154211297Y-82440841D01*
X154239060Y-82463625D01*
X154247702Y-82472267D01*
X154268077Y-82485881D01*
X154290716Y-82495258D01*
X154314749Y-82500038D01*
X154339253Y-82500038D01*
X154363286Y-82495257D01*
X154385925Y-82485880D01*
X154406299Y-82472266D01*
X154414940Y-82463625D01*
X154442701Y-82440842D01*
X154446087Y-82439032D01*
X154468935Y-82426820D01*
X154497399Y-82418185D01*
X154517133Y-82416242D01*
X154526999Y-82415270D01*
X154527000Y-82415270D01*
X154556600Y-82418185D01*
X154577658Y-82424573D01*
X154585068Y-82426821D01*
X154611297Y-82440841D01*
X154639060Y-82463625D01*
X154647702Y-82472267D01*
X154668077Y-82485881D01*
X154690716Y-82495258D01*
X154714749Y-82500038D01*
X154739253Y-82500038D01*
X154763286Y-82495257D01*
X154785925Y-82485880D01*
X154806299Y-82472266D01*
X154814940Y-82463625D01*
X154842701Y-82440842D01*
X154846087Y-82439032D01*
X154868935Y-82426820D01*
X154897399Y-82418185D01*
X154917133Y-82416242D01*
X154926999Y-82415270D01*
X154927000Y-82415270D01*
X154956600Y-82418185D01*
X154977658Y-82424573D01*
X154985068Y-82426821D01*
X155011297Y-82440841D01*
X155039060Y-82463625D01*
X155047702Y-82472267D01*
X155068077Y-82485881D01*
X155090716Y-82495258D01*
X155114749Y-82500038D01*
X155139253Y-82500038D01*
X155163286Y-82495257D01*
X155185925Y-82485880D01*
X155206299Y-82472266D01*
X155214940Y-82463625D01*
X155242701Y-82440842D01*
X155246087Y-82439032D01*
X155268935Y-82426820D01*
X155297399Y-82418185D01*
X155317133Y-82416242D01*
X155326999Y-82415270D01*
X155327000Y-82415270D01*
X155356600Y-82418185D01*
X155377658Y-82424573D01*
X155385068Y-82426821D01*
X155411297Y-82440841D01*
X155439060Y-82463625D01*
X155447702Y-82472267D01*
X155468077Y-82485881D01*
X155490716Y-82495258D01*
X155514749Y-82500038D01*
X155539253Y-82500038D01*
X155563286Y-82495257D01*
X155585925Y-82485880D01*
X155606299Y-82472266D01*
X155614940Y-82463625D01*
X155642701Y-82440842D01*
X155646087Y-82439032D01*
X155668935Y-82426820D01*
X155697399Y-82418185D01*
X155717133Y-82416242D01*
X155726999Y-82415270D01*
X155727000Y-82415270D01*
X155756600Y-82418185D01*
X155777658Y-82424573D01*
X155785068Y-82426821D01*
X155811297Y-82440841D01*
X155834290Y-82459710D01*
X155853158Y-82482701D01*
X155853159Y-82482703D01*
X155867180Y-82508935D01*
X155875815Y-82537399D01*
X155878000Y-82559587D01*
X155878000Y-83374413D01*
X155875815Y-83396601D01*
X155867180Y-83425065D01*
X155859872Y-83438738D01*
X155853158Y-83451299D01*
X155834290Y-83474290D01*
X155811299Y-83493158D01*
X155811297Y-83493159D01*
X155785065Y-83507180D01*
X155756601Y-83515815D01*
X155736867Y-83517758D01*
X155727001Y-83518730D01*
X155727000Y-83518730D01*
X155697400Y-83515815D01*
X155668936Y-83507180D01*
X155642704Y-83493159D01*
X155642702Y-83493158D01*
X155614946Y-83470379D01*
X155606309Y-83461740D01*
X155585936Y-83448124D01*
X155563298Y-83438745D01*
X155539265Y-83433962D01*
X155514761Y-83433960D01*
X155490727Y-83438738D01*
X155468087Y-83448113D01*
X155447712Y-83461725D01*
X155439066Y-83470370D01*
X155411299Y-83493158D01*
X155411297Y-83493159D01*
X155385065Y-83507180D01*
X155356601Y-83515815D01*
X155336867Y-83517758D01*
X155327001Y-83518730D01*
X155327000Y-83518730D01*
X155297400Y-83515815D01*
X155268936Y-83507180D01*
X155242704Y-83493159D01*
X155242702Y-83493158D01*
X155214946Y-83470379D01*
X155206309Y-83461740D01*
X155185936Y-83448124D01*
X155163298Y-83438745D01*
X155139265Y-83433962D01*
X155114761Y-83433960D01*
X155090727Y-83438738D01*
X155068087Y-83448113D01*
X155047712Y-83461725D01*
X155039066Y-83470370D01*
X155011299Y-83493158D01*
X155011297Y-83493159D01*
X154985065Y-83507180D01*
X154956601Y-83515815D01*
X154936867Y-83517758D01*
X154927001Y-83518730D01*
X154927000Y-83518730D01*
X154897400Y-83515815D01*
X154868936Y-83507180D01*
X154842704Y-83493159D01*
X154842702Y-83493158D01*
X154814946Y-83470379D01*
X154806309Y-83461740D01*
X154785936Y-83448124D01*
X154763298Y-83438745D01*
X154739265Y-83433962D01*
X154714761Y-83433960D01*
X154690727Y-83438738D01*
X154668087Y-83448113D01*
X154647712Y-83461725D01*
X154639066Y-83470370D01*
X154611299Y-83493158D01*
X154611297Y-83493159D01*
X154585065Y-83507180D01*
X154556601Y-83515815D01*
X154536867Y-83517758D01*
X154527001Y-83518730D01*
X154527000Y-83518730D01*
X154497400Y-83515815D01*
X154468936Y-83507180D01*
X154442704Y-83493159D01*
X154442702Y-83493158D01*
X154414946Y-83470379D01*
X154406309Y-83461740D01*
X154385936Y-83448124D01*
X154363298Y-83438745D01*
X154339265Y-83433962D01*
X154314761Y-83433960D01*
X154290727Y-83438738D01*
X154268087Y-83448113D01*
X154247712Y-83461725D01*
X154239066Y-83470370D01*
X154211299Y-83493158D01*
X154211297Y-83493159D01*
X154185065Y-83507180D01*
X154156601Y-83515815D01*
X154136867Y-83517758D01*
X154127001Y-83518730D01*
X154127000Y-83518730D01*
X154097400Y-83515815D01*
X154068936Y-83507180D01*
X154042704Y-83493159D01*
X154042702Y-83493158D01*
X154014946Y-83470379D01*
X154006309Y-83461740D01*
X153985936Y-83448124D01*
X153963298Y-83438745D01*
X153939265Y-83433962D01*
X153914761Y-83433960D01*
X153890727Y-83438738D01*
X153868087Y-83448113D01*
X153847712Y-83461725D01*
X153839066Y-83470370D01*
X153811299Y-83493158D01*
X153811297Y-83493159D01*
X153785065Y-83507180D01*
X153756601Y-83515815D01*
X153736867Y-83517758D01*
X153727001Y-83518730D01*
X153727000Y-83518730D01*
X153697400Y-83515815D01*
X153668936Y-83507180D01*
X153642704Y-83493159D01*
X153642702Y-83493158D01*
X153614946Y-83470379D01*
X153606309Y-83461740D01*
X153585936Y-83448124D01*
X153563298Y-83438745D01*
X153539265Y-83433962D01*
X153514761Y-83433960D01*
X153490727Y-83438738D01*
X153468087Y-83448113D01*
X153447712Y-83461725D01*
X153439066Y-83470370D01*
X153411299Y-83493158D01*
X153411297Y-83493159D01*
X153385065Y-83507180D01*
X153356601Y-83515815D01*
X153336867Y-83517758D01*
X153327001Y-83518730D01*
X153327000Y-83518730D01*
X153297400Y-83515815D01*
X153268936Y-83507180D01*
X153242704Y-83493159D01*
X153242702Y-83493158D01*
X153214946Y-83470379D01*
X153206309Y-83461740D01*
X153185936Y-83448124D01*
X153163298Y-83438745D01*
X153139265Y-83433962D01*
X153114761Y-83433960D01*
X153090727Y-83438738D01*
X153068087Y-83448113D01*
X153047712Y-83461725D01*
X153039066Y-83470370D01*
X153011299Y-83493158D01*
X153011297Y-83493159D01*
X152985065Y-83507180D01*
X152956601Y-83515815D01*
X152936867Y-83517758D01*
X152927001Y-83518730D01*
X152927000Y-83518730D01*
X152897400Y-83515815D01*
X152868936Y-83507180D01*
X152842704Y-83493159D01*
X152842702Y-83493158D01*
X152814946Y-83470379D01*
X152806309Y-83461740D01*
X152785936Y-83448124D01*
X152763298Y-83438745D01*
X152739265Y-83433962D01*
X152714761Y-83433960D01*
X152690727Y-83438738D01*
X152668087Y-83448113D01*
X152647712Y-83461725D01*
X152639066Y-83470370D01*
X152611299Y-83493158D01*
X152611297Y-83493159D01*
X152585065Y-83507180D01*
X152556601Y-83515815D01*
X152536867Y-83517758D01*
X152527001Y-83518730D01*
X152527000Y-83518730D01*
X152497400Y-83515815D01*
X152468936Y-83507180D01*
X152442704Y-83493159D01*
X152442702Y-83493158D01*
X152414946Y-83470379D01*
X152406309Y-83461740D01*
X152385936Y-83448124D01*
X152363298Y-83438745D01*
X152339265Y-83433962D01*
X152314761Y-83433960D01*
X152290727Y-83438738D01*
X152268087Y-83448113D01*
X152247712Y-83461725D01*
X152239066Y-83470370D01*
X152211299Y-83493158D01*
X152211297Y-83493159D01*
X152185065Y-83507180D01*
X152156601Y-83515815D01*
X152136867Y-83517758D01*
X152127001Y-83518730D01*
X152127000Y-83518730D01*
X152097400Y-83515815D01*
X152068936Y-83507180D01*
X152042704Y-83493159D01*
X152042702Y-83493158D01*
X152014946Y-83470379D01*
X152006309Y-83461740D01*
X151985936Y-83448124D01*
X151963298Y-83438745D01*
X151939265Y-83433962D01*
X151914761Y-83433960D01*
X151890727Y-83438738D01*
X151868087Y-83448113D01*
X151847712Y-83461725D01*
X151839066Y-83470370D01*
X151811299Y-83493158D01*
X151811297Y-83493159D01*
X151785065Y-83507180D01*
X151756601Y-83515815D01*
X151736867Y-83517758D01*
X151727001Y-83518730D01*
X151727000Y-83518730D01*
X151697400Y-83515815D01*
X151668936Y-83507180D01*
X151642704Y-83493159D01*
X151642702Y-83493158D01*
X151614946Y-83470379D01*
X151606309Y-83461740D01*
X151585936Y-83448124D01*
X151563298Y-83438745D01*
X151539265Y-83433962D01*
X151514761Y-83433960D01*
X151490727Y-83438738D01*
X151468087Y-83448113D01*
X151447712Y-83461725D01*
X151439066Y-83470370D01*
X151411299Y-83493158D01*
X151411297Y-83493159D01*
X151385065Y-83507180D01*
X151356601Y-83515815D01*
X151336867Y-83517758D01*
X151327001Y-83518730D01*
X151327000Y-83518730D01*
X151297400Y-83515815D01*
X151268936Y-83507180D01*
X151242704Y-83493159D01*
X151242702Y-83493158D01*
X151214946Y-83470379D01*
X151206309Y-83461740D01*
X151185936Y-83448124D01*
X151163298Y-83438745D01*
X151139265Y-83433962D01*
X151114761Y-83433960D01*
X151090727Y-83438738D01*
X151068087Y-83448113D01*
X151047712Y-83461725D01*
X151039066Y-83470370D01*
X151011299Y-83493158D01*
X151011297Y-83493159D01*
X150985065Y-83507180D01*
X150956601Y-83515815D01*
X150936867Y-83517758D01*
X150927001Y-83518730D01*
X150927000Y-83518730D01*
X150897400Y-83515815D01*
X150868936Y-83507180D01*
X150842704Y-83493159D01*
X150842702Y-83493158D01*
X150814946Y-83470379D01*
X150806309Y-83461740D01*
X150785936Y-83448124D01*
X150763298Y-83438745D01*
X150739265Y-83433962D01*
X150714761Y-83433960D01*
X150690727Y-83438738D01*
X150668087Y-83448113D01*
X150647712Y-83461725D01*
X150639066Y-83470370D01*
X150611299Y-83493158D01*
X150611297Y-83493159D01*
X150585065Y-83507180D01*
X150556601Y-83515815D01*
X150536867Y-83517758D01*
X150527001Y-83518730D01*
X150527000Y-83518730D01*
X150497400Y-83515815D01*
X150468936Y-83507180D01*
X150442704Y-83493159D01*
X150442702Y-83493158D01*
X150414946Y-83470379D01*
X150406309Y-83461740D01*
X150385936Y-83448124D01*
X150363298Y-83438745D01*
X150339265Y-83433962D01*
X150314761Y-83433960D01*
X150290727Y-83438738D01*
X150268087Y-83448113D01*
X150247712Y-83461725D01*
X150239066Y-83470370D01*
X150211299Y-83493158D01*
X150211297Y-83493159D01*
X150185065Y-83507180D01*
X150156601Y-83515815D01*
X150136867Y-83517758D01*
X150127001Y-83518730D01*
X150127000Y-83518730D01*
X150097400Y-83515815D01*
X150068936Y-83507180D01*
X150042704Y-83493159D01*
X150042702Y-83493158D01*
X150014946Y-83470379D01*
X150006309Y-83461740D01*
X149985936Y-83448124D01*
X149963298Y-83438745D01*
X149939265Y-83433962D01*
X149914761Y-83433960D01*
X149890727Y-83438738D01*
X149868087Y-83448113D01*
X149847712Y-83461725D01*
X149839066Y-83470370D01*
X149811299Y-83493158D01*
X149811297Y-83493159D01*
X149785065Y-83507180D01*
X149756601Y-83515815D01*
X149736867Y-83517758D01*
X149727001Y-83518730D01*
X149727000Y-83518730D01*
X149697400Y-83515815D01*
X149668936Y-83507180D01*
X149642704Y-83493159D01*
X149642702Y-83493158D01*
X149614946Y-83470379D01*
X149606309Y-83461740D01*
X149585936Y-83448124D01*
X149563298Y-83438745D01*
X149539265Y-83433962D01*
X149514761Y-83433960D01*
X149490727Y-83438738D01*
X149468087Y-83448113D01*
X149447712Y-83461725D01*
X149439066Y-83470370D01*
X149411299Y-83493158D01*
X149411297Y-83493159D01*
X149385065Y-83507180D01*
X149356601Y-83515815D01*
X149336867Y-83517758D01*
X149327001Y-83518730D01*
X149327000Y-83518730D01*
X149297400Y-83515815D01*
X149268936Y-83507180D01*
X149242704Y-83493159D01*
X149242702Y-83493158D01*
X149219711Y-83474290D01*
X149200843Y-83451299D01*
X149194129Y-83438738D01*
X149186821Y-83425065D01*
X149178186Y-83396601D01*
X149176001Y-83374413D01*
X149176000Y-82559588D01*
X149178185Y-82537400D01*
X149186820Y-82508936D01*
X149186821Y-82508932D01*
X149200841Y-82482703D01*
X149219710Y-82459710D01*
X149242701Y-82440842D01*
X149246087Y-82439032D01*
X149268935Y-82426820D01*
X149297399Y-82418185D01*
X149317133Y-82416242D01*
X149326999Y-82415270D01*
X149327000Y-82415270D01*
X149356600Y-82418185D01*
X149356600Y-82418185D01*
G37*
G36*
X162961000Y-82289000D02*
G01*
X162159000Y-82289000D01*
X162159000Y-81287000D01*
X162961000Y-81287000D01*
X162961000Y-82289000D01*
X162961000Y-82289000D01*
G37*
G36*
X161361000Y-82289000D02*
G01*
X160559000Y-82289000D01*
X160559000Y-81287000D01*
X161361000Y-81287000D01*
X161361000Y-82289000D01*
X161361000Y-82289000D01*
G37*
G36*
X157041809Y-75516728D02*
G01*
X157056601Y-75518185D01*
X157085065Y-75526820D01*
X157107913Y-75539032D01*
X157111299Y-75540842D01*
X157134290Y-75559710D01*
X157153158Y-75582701D01*
X157153159Y-75582703D01*
X157167180Y-75608935D01*
X157175815Y-75637399D01*
X157178730Y-75667000D01*
X157175815Y-75696601D01*
X157167180Y-75725065D01*
X157167179Y-75725066D01*
X157153158Y-75751299D01*
X157130375Y-75779060D01*
X157121733Y-75787702D01*
X157108119Y-75808077D01*
X157098742Y-75830716D01*
X157093962Y-75854749D01*
X157093962Y-75879253D01*
X157098743Y-75903286D01*
X157108120Y-75925925D01*
X157121734Y-75946299D01*
X157130375Y-75954940D01*
X157153158Y-75982701D01*
X157153159Y-75982703D01*
X157167180Y-76008935D01*
X157175815Y-76037399D01*
X157178730Y-76067000D01*
X157175815Y-76096601D01*
X157167180Y-76125065D01*
X157167179Y-76125066D01*
X157153158Y-76151299D01*
X157130375Y-76179060D01*
X157121733Y-76187702D01*
X157108119Y-76208077D01*
X157098742Y-76230716D01*
X157093962Y-76254749D01*
X157093962Y-76279253D01*
X157098743Y-76303286D01*
X157108120Y-76325925D01*
X157121734Y-76346299D01*
X157130375Y-76354940D01*
X157153158Y-76382701D01*
X157153159Y-76382703D01*
X157167180Y-76408935D01*
X157175815Y-76437399D01*
X157178730Y-76467000D01*
X157175815Y-76496601D01*
X157167180Y-76525065D01*
X157167179Y-76525066D01*
X157153158Y-76551299D01*
X157130375Y-76579060D01*
X157121733Y-76587702D01*
X157108119Y-76608077D01*
X157098742Y-76630716D01*
X157093962Y-76654749D01*
X157093962Y-76679253D01*
X157098743Y-76703286D01*
X157108120Y-76725925D01*
X157121734Y-76746299D01*
X157130375Y-76754940D01*
X157153158Y-76782701D01*
X157153159Y-76782703D01*
X157167180Y-76808935D01*
X157175815Y-76837399D01*
X157178730Y-76867000D01*
X157175815Y-76896601D01*
X157167180Y-76925065D01*
X157167179Y-76925066D01*
X157153158Y-76951299D01*
X157130375Y-76979060D01*
X157121733Y-76987702D01*
X157108119Y-77008077D01*
X157098742Y-77030716D01*
X157093962Y-77054749D01*
X157093962Y-77079253D01*
X157098743Y-77103286D01*
X157108120Y-77125925D01*
X157121734Y-77146299D01*
X157130375Y-77154940D01*
X157153158Y-77182701D01*
X157153159Y-77182703D01*
X157167180Y-77208935D01*
X157175815Y-77237399D01*
X157178730Y-77267000D01*
X157175815Y-77296601D01*
X157167180Y-77325065D01*
X157167179Y-77325066D01*
X157153158Y-77351299D01*
X157130375Y-77379060D01*
X157121733Y-77387702D01*
X157108119Y-77408077D01*
X157098742Y-77430716D01*
X157093962Y-77454749D01*
X157093962Y-77479253D01*
X157098743Y-77503286D01*
X157108120Y-77525925D01*
X157121734Y-77546299D01*
X157130375Y-77554940D01*
X157153158Y-77582701D01*
X157153159Y-77582703D01*
X157167180Y-77608935D01*
X157175815Y-77637399D01*
X157178730Y-77667000D01*
X157175815Y-77696601D01*
X157167180Y-77725065D01*
X157167179Y-77725066D01*
X157153158Y-77751299D01*
X157130375Y-77779060D01*
X157121733Y-77787702D01*
X157108119Y-77808077D01*
X157098742Y-77830716D01*
X157093962Y-77854749D01*
X157093962Y-77879253D01*
X157098743Y-77903286D01*
X157108120Y-77925925D01*
X157121734Y-77946299D01*
X157130375Y-77954940D01*
X157153158Y-77982701D01*
X157153159Y-77982703D01*
X157167180Y-78008935D01*
X157175815Y-78037399D01*
X157178730Y-78067000D01*
X157175815Y-78096601D01*
X157167180Y-78125065D01*
X157167179Y-78125066D01*
X157153158Y-78151299D01*
X157130375Y-78179060D01*
X157121733Y-78187702D01*
X157108119Y-78208077D01*
X157098742Y-78230716D01*
X157093962Y-78254749D01*
X157093962Y-78279253D01*
X157098743Y-78303286D01*
X157108120Y-78325925D01*
X157121734Y-78346299D01*
X157130375Y-78354940D01*
X157153158Y-78382701D01*
X157153159Y-78382703D01*
X157167180Y-78408935D01*
X157175815Y-78437399D01*
X157178730Y-78467000D01*
X157175815Y-78496601D01*
X157167180Y-78525065D01*
X157167179Y-78525066D01*
X157153158Y-78551299D01*
X157130375Y-78579060D01*
X157121733Y-78587702D01*
X157108119Y-78608077D01*
X157098742Y-78630716D01*
X157093962Y-78654749D01*
X157093962Y-78679253D01*
X157098743Y-78703286D01*
X157108120Y-78725925D01*
X157121734Y-78746299D01*
X157130375Y-78754940D01*
X157153158Y-78782701D01*
X157153159Y-78782703D01*
X157167180Y-78808935D01*
X157175815Y-78837399D01*
X157178730Y-78867000D01*
X157175815Y-78896601D01*
X157167180Y-78925065D01*
X157167179Y-78925066D01*
X157153158Y-78951299D01*
X157130375Y-78979060D01*
X157121733Y-78987702D01*
X157108119Y-79008077D01*
X157098742Y-79030716D01*
X157093962Y-79054749D01*
X157093962Y-79079253D01*
X157098743Y-79103286D01*
X157108120Y-79125925D01*
X157121734Y-79146299D01*
X157130375Y-79154940D01*
X157153158Y-79182701D01*
X157153159Y-79182703D01*
X157167180Y-79208935D01*
X157175815Y-79237399D01*
X157178730Y-79267000D01*
X157175815Y-79296601D01*
X157167180Y-79325065D01*
X157167179Y-79325066D01*
X157153158Y-79351299D01*
X157130375Y-79379060D01*
X157121733Y-79387702D01*
X157108119Y-79408077D01*
X157098742Y-79430716D01*
X157093962Y-79454749D01*
X157093962Y-79479253D01*
X157098743Y-79503286D01*
X157108120Y-79525925D01*
X157121734Y-79546299D01*
X157130375Y-79554940D01*
X157153158Y-79582701D01*
X157153159Y-79582703D01*
X157167180Y-79608935D01*
X157175815Y-79637399D01*
X157178730Y-79667000D01*
X157175815Y-79696601D01*
X157167180Y-79725065D01*
X157167179Y-79725066D01*
X157153158Y-79751299D01*
X157130375Y-79779060D01*
X157121733Y-79787702D01*
X157108119Y-79808077D01*
X157098742Y-79830716D01*
X157093962Y-79854749D01*
X157093962Y-79879253D01*
X157098743Y-79903286D01*
X157108120Y-79925925D01*
X157121734Y-79946299D01*
X157130375Y-79954940D01*
X157153158Y-79982701D01*
X157153159Y-79982703D01*
X157167180Y-80008935D01*
X157175815Y-80037399D01*
X157178730Y-80067000D01*
X157175815Y-80096601D01*
X157167180Y-80125065D01*
X157167179Y-80125066D01*
X157153158Y-80151299D01*
X157130375Y-80179060D01*
X157121733Y-80187702D01*
X157108119Y-80208077D01*
X157098742Y-80230716D01*
X157093962Y-80254749D01*
X157093962Y-80279253D01*
X157098743Y-80303286D01*
X157108120Y-80325925D01*
X157121734Y-80346299D01*
X157130375Y-80354940D01*
X157153158Y-80382701D01*
X157153159Y-80382703D01*
X157167180Y-80408935D01*
X157175815Y-80437399D01*
X157178730Y-80467000D01*
X157175815Y-80496601D01*
X157167180Y-80525065D01*
X157167179Y-80525066D01*
X157153158Y-80551299D01*
X157130375Y-80579060D01*
X157121733Y-80587702D01*
X157108119Y-80608077D01*
X157098742Y-80630716D01*
X157093962Y-80654749D01*
X157093962Y-80679253D01*
X157098743Y-80703286D01*
X157108120Y-80725925D01*
X157121734Y-80746299D01*
X157130375Y-80754940D01*
X157153158Y-80782701D01*
X157153159Y-80782703D01*
X157167180Y-80808935D01*
X157175815Y-80837399D01*
X157178730Y-80867000D01*
X157175815Y-80896601D01*
X157167180Y-80925065D01*
X157167179Y-80925066D01*
X157153158Y-80951299D01*
X157130375Y-80979060D01*
X157121733Y-80987702D01*
X157108119Y-81008077D01*
X157098742Y-81030716D01*
X157093962Y-81054749D01*
X157093962Y-81079253D01*
X157098743Y-81103286D01*
X157108120Y-81125925D01*
X157121734Y-81146299D01*
X157130375Y-81154940D01*
X157153158Y-81182701D01*
X157153159Y-81182703D01*
X157167180Y-81208935D01*
X157175815Y-81237399D01*
X157178730Y-81267000D01*
X157175815Y-81296601D01*
X157167180Y-81325065D01*
X157167179Y-81325066D01*
X157153158Y-81351299D01*
X157130375Y-81379060D01*
X157121733Y-81387702D01*
X157108119Y-81408077D01*
X157098742Y-81430716D01*
X157093962Y-81454749D01*
X157093962Y-81479253D01*
X157098743Y-81503286D01*
X157108120Y-81525925D01*
X157121734Y-81546299D01*
X157130375Y-81554940D01*
X157153158Y-81582701D01*
X157153159Y-81582703D01*
X157167180Y-81608935D01*
X157175815Y-81637399D01*
X157178730Y-81667000D01*
X157175815Y-81696601D01*
X157167180Y-81725065D01*
X157167179Y-81725066D01*
X157153158Y-81751299D01*
X157130375Y-81779060D01*
X157121733Y-81787702D01*
X157108119Y-81808077D01*
X157098742Y-81830716D01*
X157093962Y-81854749D01*
X157093962Y-81879253D01*
X157098743Y-81903286D01*
X157108120Y-81925925D01*
X157121734Y-81946299D01*
X157130375Y-81954940D01*
X157153158Y-81982701D01*
X157153159Y-81982703D01*
X157167180Y-82008935D01*
X157175815Y-82037399D01*
X157178730Y-82067000D01*
X157175815Y-82096601D01*
X157167180Y-82125065D01*
X157167179Y-82125066D01*
X157153158Y-82151299D01*
X157134290Y-82174290D01*
X157111299Y-82193158D01*
X157111297Y-82193159D01*
X157085065Y-82207180D01*
X157056601Y-82215815D01*
X157041809Y-82217272D01*
X157034414Y-82218000D01*
X156219586Y-82218000D01*
X156212191Y-82217272D01*
X156197399Y-82215815D01*
X156168935Y-82207180D01*
X156142703Y-82193159D01*
X156142701Y-82193158D01*
X156119710Y-82174290D01*
X156100842Y-82151299D01*
X156086821Y-82125066D01*
X156086820Y-82125065D01*
X156078185Y-82096601D01*
X156075270Y-82067000D01*
X156078185Y-82037399D01*
X156086820Y-82008935D01*
X156100841Y-81982703D01*
X156100842Y-81982701D01*
X156123625Y-81954940D01*
X156132267Y-81946298D01*
X156145881Y-81925923D01*
X156155258Y-81903284D01*
X156160038Y-81879251D01*
X156160038Y-81854747D01*
X156155257Y-81830714D01*
X156145880Y-81808075D01*
X156132266Y-81787701D01*
X156123625Y-81779060D01*
X156100842Y-81751299D01*
X156086821Y-81725066D01*
X156086820Y-81725065D01*
X156078185Y-81696601D01*
X156075270Y-81667000D01*
X156078185Y-81637399D01*
X156086820Y-81608935D01*
X156100841Y-81582703D01*
X156100842Y-81582701D01*
X156123625Y-81554940D01*
X156132267Y-81546298D01*
X156145881Y-81525923D01*
X156155258Y-81503284D01*
X156160038Y-81479251D01*
X156160038Y-81454747D01*
X156155257Y-81430714D01*
X156145880Y-81408075D01*
X156132266Y-81387701D01*
X156123625Y-81379060D01*
X156100842Y-81351299D01*
X156086821Y-81325066D01*
X156086820Y-81325065D01*
X156078185Y-81296601D01*
X156075270Y-81267000D01*
X156078185Y-81237399D01*
X156086820Y-81208935D01*
X156100841Y-81182703D01*
X156100842Y-81182701D01*
X156123625Y-81154940D01*
X156132267Y-81146298D01*
X156145881Y-81125923D01*
X156155258Y-81103284D01*
X156160038Y-81079251D01*
X156160038Y-81054747D01*
X156155257Y-81030714D01*
X156145880Y-81008075D01*
X156132266Y-80987701D01*
X156123625Y-80979060D01*
X156100842Y-80951299D01*
X156086821Y-80925066D01*
X156086820Y-80925065D01*
X156078185Y-80896601D01*
X156075270Y-80867000D01*
X156078185Y-80837399D01*
X156086820Y-80808935D01*
X156100841Y-80782703D01*
X156100842Y-80782701D01*
X156123625Y-80754940D01*
X156132267Y-80746298D01*
X156145881Y-80725923D01*
X156155258Y-80703284D01*
X156160038Y-80679251D01*
X156160038Y-80654747D01*
X156155257Y-80630714D01*
X156145880Y-80608075D01*
X156132266Y-80587701D01*
X156123625Y-80579060D01*
X156100842Y-80551299D01*
X156086821Y-80525066D01*
X156086820Y-80525065D01*
X156078185Y-80496601D01*
X156075270Y-80467000D01*
X156078185Y-80437399D01*
X156086820Y-80408935D01*
X156100841Y-80382703D01*
X156100842Y-80382701D01*
X156123625Y-80354940D01*
X156132267Y-80346298D01*
X156145881Y-80325923D01*
X156155258Y-80303284D01*
X156160038Y-80279251D01*
X156160038Y-80254747D01*
X156155257Y-80230714D01*
X156145880Y-80208075D01*
X156132266Y-80187701D01*
X156123625Y-80179060D01*
X156100842Y-80151299D01*
X156086821Y-80125066D01*
X156086820Y-80125065D01*
X156078185Y-80096601D01*
X156075270Y-80067000D01*
X156078185Y-80037399D01*
X156086820Y-80008935D01*
X156100841Y-79982703D01*
X156100842Y-79982701D01*
X156123625Y-79954940D01*
X156132267Y-79946298D01*
X156145881Y-79925923D01*
X156155258Y-79903284D01*
X156160038Y-79879251D01*
X156160038Y-79854747D01*
X156155257Y-79830714D01*
X156145880Y-79808075D01*
X156132266Y-79787701D01*
X156123625Y-79779060D01*
X156100842Y-79751299D01*
X156086821Y-79725066D01*
X156086820Y-79725065D01*
X156078185Y-79696601D01*
X156075270Y-79667000D01*
X156078185Y-79637399D01*
X156086820Y-79608935D01*
X156100841Y-79582703D01*
X156100842Y-79582701D01*
X156123625Y-79554940D01*
X156132267Y-79546298D01*
X156145881Y-79525923D01*
X156155258Y-79503284D01*
X156160038Y-79479251D01*
X156160038Y-79454747D01*
X156155257Y-79430714D01*
X156145880Y-79408075D01*
X156132266Y-79387701D01*
X156123625Y-79379060D01*
X156100842Y-79351299D01*
X156086821Y-79325066D01*
X156086820Y-79325065D01*
X156078185Y-79296601D01*
X156075270Y-79267000D01*
X156078185Y-79237399D01*
X156086820Y-79208935D01*
X156100841Y-79182703D01*
X156100842Y-79182701D01*
X156123625Y-79154940D01*
X156132267Y-79146298D01*
X156145881Y-79125923D01*
X156155258Y-79103284D01*
X156160038Y-79079251D01*
X156160038Y-79054747D01*
X156155257Y-79030714D01*
X156145880Y-79008075D01*
X156132266Y-78987701D01*
X156123625Y-78979060D01*
X156100842Y-78951299D01*
X156086821Y-78925066D01*
X156086820Y-78925065D01*
X156078185Y-78896601D01*
X156075270Y-78867000D01*
X156078185Y-78837399D01*
X156086820Y-78808935D01*
X156100841Y-78782703D01*
X156100842Y-78782701D01*
X156123625Y-78754940D01*
X156132267Y-78746298D01*
X156145881Y-78725923D01*
X156155258Y-78703284D01*
X156160038Y-78679251D01*
X156160038Y-78654747D01*
X156155257Y-78630714D01*
X156145880Y-78608075D01*
X156132266Y-78587701D01*
X156123625Y-78579060D01*
X156100842Y-78551299D01*
X156086821Y-78525066D01*
X156086820Y-78525065D01*
X156078185Y-78496601D01*
X156075270Y-78467000D01*
X156078185Y-78437399D01*
X156086820Y-78408935D01*
X156100841Y-78382703D01*
X156100842Y-78382701D01*
X156123625Y-78354940D01*
X156132267Y-78346298D01*
X156145881Y-78325923D01*
X156155258Y-78303284D01*
X156160038Y-78279251D01*
X156160038Y-78254747D01*
X156155257Y-78230714D01*
X156145880Y-78208075D01*
X156132266Y-78187701D01*
X156123625Y-78179060D01*
X156100842Y-78151299D01*
X156086821Y-78125066D01*
X156086820Y-78125065D01*
X156078185Y-78096601D01*
X156075270Y-78067000D01*
X156078185Y-78037399D01*
X156086820Y-78008935D01*
X156100841Y-77982703D01*
X156100842Y-77982701D01*
X156123625Y-77954940D01*
X156132267Y-77946298D01*
X156145881Y-77925923D01*
X156155258Y-77903284D01*
X156160038Y-77879251D01*
X156160038Y-77854747D01*
X156155257Y-77830714D01*
X156145880Y-77808075D01*
X156132266Y-77787701D01*
X156123625Y-77779060D01*
X156100842Y-77751299D01*
X156086821Y-77725066D01*
X156086820Y-77725065D01*
X156078185Y-77696601D01*
X156075270Y-77667000D01*
X156078185Y-77637399D01*
X156086820Y-77608935D01*
X156100841Y-77582703D01*
X156100842Y-77582701D01*
X156123625Y-77554940D01*
X156132267Y-77546298D01*
X156145881Y-77525923D01*
X156155258Y-77503284D01*
X156160038Y-77479251D01*
X156160038Y-77454747D01*
X156155257Y-77430714D01*
X156145880Y-77408075D01*
X156132266Y-77387701D01*
X156123625Y-77379060D01*
X156100842Y-77351299D01*
X156086821Y-77325066D01*
X156086820Y-77325065D01*
X156078185Y-77296601D01*
X156075270Y-77267000D01*
X156078185Y-77237399D01*
X156086820Y-77208935D01*
X156100841Y-77182703D01*
X156100842Y-77182701D01*
X156123625Y-77154940D01*
X156132267Y-77146298D01*
X156145881Y-77125923D01*
X156155258Y-77103284D01*
X156160038Y-77079251D01*
X156160038Y-77054747D01*
X156155257Y-77030714D01*
X156145880Y-77008075D01*
X156132266Y-76987701D01*
X156123625Y-76979060D01*
X156100842Y-76951299D01*
X156086821Y-76925066D01*
X156086820Y-76925065D01*
X156078185Y-76896601D01*
X156075270Y-76867000D01*
X156078185Y-76837399D01*
X156086820Y-76808935D01*
X156100841Y-76782703D01*
X156100842Y-76782701D01*
X156123625Y-76754940D01*
X156132267Y-76746298D01*
X156145881Y-76725923D01*
X156155258Y-76703284D01*
X156160038Y-76679251D01*
X156160038Y-76654747D01*
X156155257Y-76630714D01*
X156145880Y-76608075D01*
X156132266Y-76587701D01*
X156123625Y-76579060D01*
X156100842Y-76551299D01*
X156086821Y-76525066D01*
X156086820Y-76525065D01*
X156078185Y-76496601D01*
X156075270Y-76467000D01*
X156078185Y-76437399D01*
X156086820Y-76408935D01*
X156100841Y-76382703D01*
X156100842Y-76382701D01*
X156123625Y-76354940D01*
X156132267Y-76346298D01*
X156145881Y-76325923D01*
X156155258Y-76303284D01*
X156160038Y-76279251D01*
X156160038Y-76254747D01*
X156155257Y-76230714D01*
X156145880Y-76208075D01*
X156132266Y-76187701D01*
X156123625Y-76179060D01*
X156100842Y-76151299D01*
X156086821Y-76125066D01*
X156086820Y-76125065D01*
X156078185Y-76096601D01*
X156075270Y-76067000D01*
X156078185Y-76037399D01*
X156086820Y-76008935D01*
X156100841Y-75982703D01*
X156100842Y-75982701D01*
X156123625Y-75954940D01*
X156132267Y-75946298D01*
X156145881Y-75925923D01*
X156155258Y-75903284D01*
X156160038Y-75879251D01*
X156160038Y-75854747D01*
X156155257Y-75830714D01*
X156145880Y-75808075D01*
X156132266Y-75787701D01*
X156123625Y-75779060D01*
X156100842Y-75751299D01*
X156086821Y-75725066D01*
X156086820Y-75725065D01*
X156078185Y-75696601D01*
X156075270Y-75667000D01*
X156078185Y-75637399D01*
X156086820Y-75608935D01*
X156100841Y-75582703D01*
X156100842Y-75582701D01*
X156119710Y-75559710D01*
X156142701Y-75540842D01*
X156146087Y-75539032D01*
X156168935Y-75526820D01*
X156197399Y-75518185D01*
X156212191Y-75516728D01*
X156219586Y-75516000D01*
X157034414Y-75516000D01*
X157041809Y-75516728D01*
X157041809Y-75516728D01*
G37*
G36*
X148841809Y-75516728D02*
G01*
X148856601Y-75518185D01*
X148885065Y-75526820D01*
X148907913Y-75539032D01*
X148911299Y-75540842D01*
X148934290Y-75559710D01*
X148953158Y-75582701D01*
X148953159Y-75582703D01*
X148967180Y-75608935D01*
X148975815Y-75637399D01*
X148978730Y-75667000D01*
X148975815Y-75696601D01*
X148967180Y-75725065D01*
X148967179Y-75725066D01*
X148953158Y-75751299D01*
X148930375Y-75779060D01*
X148921733Y-75787702D01*
X148908119Y-75808077D01*
X148898742Y-75830716D01*
X148893962Y-75854749D01*
X148893962Y-75879253D01*
X148898743Y-75903286D01*
X148908120Y-75925925D01*
X148921734Y-75946299D01*
X148930375Y-75954940D01*
X148953158Y-75982701D01*
X148953159Y-75982703D01*
X148967180Y-76008935D01*
X148975815Y-76037399D01*
X148978730Y-76067000D01*
X148975815Y-76096601D01*
X148967180Y-76125065D01*
X148967179Y-76125066D01*
X148953158Y-76151299D01*
X148930375Y-76179060D01*
X148921733Y-76187702D01*
X148908119Y-76208077D01*
X148898742Y-76230716D01*
X148893962Y-76254749D01*
X148893962Y-76279253D01*
X148898743Y-76303286D01*
X148908120Y-76325925D01*
X148921734Y-76346299D01*
X148930375Y-76354940D01*
X148953158Y-76382701D01*
X148953159Y-76382703D01*
X148967180Y-76408935D01*
X148975815Y-76437399D01*
X148978730Y-76467000D01*
X148975815Y-76496601D01*
X148967180Y-76525065D01*
X148967179Y-76525066D01*
X148953158Y-76551299D01*
X148930375Y-76579060D01*
X148921733Y-76587702D01*
X148908119Y-76608077D01*
X148898742Y-76630716D01*
X148893962Y-76654749D01*
X148893962Y-76679253D01*
X148898743Y-76703286D01*
X148908120Y-76725925D01*
X148921734Y-76746299D01*
X148930375Y-76754940D01*
X148953158Y-76782701D01*
X148953159Y-76782703D01*
X148967180Y-76808935D01*
X148975815Y-76837399D01*
X148978730Y-76867000D01*
X148975815Y-76896601D01*
X148967180Y-76925065D01*
X148967179Y-76925066D01*
X148953158Y-76951299D01*
X148930375Y-76979060D01*
X148921733Y-76987702D01*
X148908119Y-77008077D01*
X148898742Y-77030716D01*
X148893962Y-77054749D01*
X148893962Y-77079253D01*
X148898743Y-77103286D01*
X148908120Y-77125925D01*
X148921734Y-77146299D01*
X148930375Y-77154940D01*
X148953158Y-77182701D01*
X148953159Y-77182703D01*
X148967180Y-77208935D01*
X148975815Y-77237399D01*
X148978730Y-77267000D01*
X148975815Y-77296601D01*
X148967180Y-77325065D01*
X148967179Y-77325066D01*
X148953158Y-77351299D01*
X148930375Y-77379060D01*
X148921733Y-77387702D01*
X148908119Y-77408077D01*
X148898742Y-77430716D01*
X148893962Y-77454749D01*
X148893962Y-77479253D01*
X148898743Y-77503286D01*
X148908120Y-77525925D01*
X148921734Y-77546299D01*
X148930375Y-77554940D01*
X148953158Y-77582701D01*
X148953159Y-77582703D01*
X148967180Y-77608935D01*
X148975815Y-77637399D01*
X148978730Y-77667000D01*
X148975815Y-77696601D01*
X148967180Y-77725065D01*
X148967179Y-77725066D01*
X148953158Y-77751299D01*
X148930375Y-77779060D01*
X148921733Y-77787702D01*
X148908119Y-77808077D01*
X148898742Y-77830716D01*
X148893962Y-77854749D01*
X148893962Y-77879253D01*
X148898743Y-77903286D01*
X148908120Y-77925925D01*
X148921734Y-77946299D01*
X148930375Y-77954940D01*
X148953158Y-77982701D01*
X148953159Y-77982703D01*
X148967180Y-78008935D01*
X148975815Y-78037399D01*
X148978730Y-78067000D01*
X148975815Y-78096601D01*
X148967180Y-78125065D01*
X148967179Y-78125066D01*
X148953158Y-78151299D01*
X148930375Y-78179060D01*
X148921733Y-78187702D01*
X148908119Y-78208077D01*
X148898742Y-78230716D01*
X148893962Y-78254749D01*
X148893962Y-78279253D01*
X148898743Y-78303286D01*
X148908120Y-78325925D01*
X148921734Y-78346299D01*
X148930375Y-78354940D01*
X148953158Y-78382701D01*
X148953159Y-78382703D01*
X148967180Y-78408935D01*
X148975815Y-78437399D01*
X148978730Y-78467000D01*
X148975815Y-78496601D01*
X148967180Y-78525065D01*
X148967179Y-78525066D01*
X148953158Y-78551299D01*
X148930375Y-78579060D01*
X148921733Y-78587702D01*
X148908119Y-78608077D01*
X148898742Y-78630716D01*
X148893962Y-78654749D01*
X148893962Y-78679253D01*
X148898743Y-78703286D01*
X148908120Y-78725925D01*
X148921734Y-78746299D01*
X148930375Y-78754940D01*
X148953158Y-78782701D01*
X148953159Y-78782703D01*
X148967180Y-78808935D01*
X148975815Y-78837399D01*
X148978730Y-78867000D01*
X148975815Y-78896601D01*
X148967180Y-78925065D01*
X148967179Y-78925066D01*
X148953158Y-78951299D01*
X148930375Y-78979060D01*
X148921733Y-78987702D01*
X148908119Y-79008077D01*
X148898742Y-79030716D01*
X148893962Y-79054749D01*
X148893962Y-79079253D01*
X148898743Y-79103286D01*
X148908120Y-79125925D01*
X148921734Y-79146299D01*
X148930375Y-79154940D01*
X148953158Y-79182701D01*
X148953159Y-79182703D01*
X148967180Y-79208935D01*
X148975815Y-79237399D01*
X148978730Y-79267000D01*
X148975815Y-79296601D01*
X148967180Y-79325065D01*
X148967179Y-79325066D01*
X148953158Y-79351299D01*
X148930375Y-79379060D01*
X148921733Y-79387702D01*
X148908119Y-79408077D01*
X148898742Y-79430716D01*
X148893962Y-79454749D01*
X148893962Y-79479253D01*
X148898743Y-79503286D01*
X148908120Y-79525925D01*
X148921734Y-79546299D01*
X148930375Y-79554940D01*
X148953158Y-79582701D01*
X148953159Y-79582703D01*
X148967180Y-79608935D01*
X148975815Y-79637399D01*
X148978730Y-79667000D01*
X148975815Y-79696601D01*
X148967180Y-79725065D01*
X148967179Y-79725066D01*
X148953158Y-79751299D01*
X148930375Y-79779060D01*
X148921733Y-79787702D01*
X148908119Y-79808077D01*
X148898742Y-79830716D01*
X148893962Y-79854749D01*
X148893962Y-79879253D01*
X148898743Y-79903286D01*
X148908120Y-79925925D01*
X148921734Y-79946299D01*
X148930375Y-79954940D01*
X148953158Y-79982701D01*
X148953159Y-79982703D01*
X148967180Y-80008935D01*
X148975815Y-80037399D01*
X148978730Y-80067000D01*
X148975815Y-80096601D01*
X148967180Y-80125065D01*
X148967179Y-80125066D01*
X148953158Y-80151299D01*
X148930375Y-80179060D01*
X148921733Y-80187702D01*
X148908119Y-80208077D01*
X148898742Y-80230716D01*
X148893962Y-80254749D01*
X148893962Y-80279253D01*
X148898743Y-80303286D01*
X148908120Y-80325925D01*
X148921734Y-80346299D01*
X148930375Y-80354940D01*
X148953158Y-80382701D01*
X148953159Y-80382703D01*
X148967180Y-80408935D01*
X148975815Y-80437399D01*
X148978730Y-80467000D01*
X148975815Y-80496601D01*
X148967180Y-80525065D01*
X148967179Y-80525066D01*
X148953158Y-80551299D01*
X148930375Y-80579060D01*
X148921733Y-80587702D01*
X148908119Y-80608077D01*
X148898742Y-80630716D01*
X148893962Y-80654749D01*
X148893962Y-80679253D01*
X148898743Y-80703286D01*
X148908120Y-80725925D01*
X148921734Y-80746299D01*
X148930375Y-80754940D01*
X148953158Y-80782701D01*
X148953159Y-80782703D01*
X148967180Y-80808935D01*
X148975815Y-80837399D01*
X148978730Y-80867000D01*
X148975815Y-80896601D01*
X148967180Y-80925065D01*
X148967179Y-80925066D01*
X148953158Y-80951299D01*
X148930375Y-80979060D01*
X148921733Y-80987702D01*
X148908119Y-81008077D01*
X148898742Y-81030716D01*
X148893962Y-81054749D01*
X148893962Y-81079253D01*
X148898743Y-81103286D01*
X148908120Y-81125925D01*
X148921734Y-81146299D01*
X148930375Y-81154940D01*
X148953158Y-81182701D01*
X148953159Y-81182703D01*
X148967180Y-81208935D01*
X148975815Y-81237399D01*
X148978730Y-81267000D01*
X148975815Y-81296601D01*
X148967180Y-81325065D01*
X148967179Y-81325066D01*
X148953158Y-81351299D01*
X148930375Y-81379060D01*
X148921733Y-81387702D01*
X148908119Y-81408077D01*
X148898742Y-81430716D01*
X148893962Y-81454749D01*
X148893962Y-81479253D01*
X148898743Y-81503286D01*
X148908120Y-81525925D01*
X148921734Y-81546299D01*
X148930375Y-81554940D01*
X148953158Y-81582701D01*
X148953159Y-81582703D01*
X148967180Y-81608935D01*
X148975815Y-81637399D01*
X148978730Y-81667000D01*
X148975815Y-81696601D01*
X148967180Y-81725065D01*
X148967179Y-81725066D01*
X148953158Y-81751299D01*
X148930375Y-81779060D01*
X148921733Y-81787702D01*
X148908119Y-81808077D01*
X148898742Y-81830716D01*
X148893962Y-81854749D01*
X148893962Y-81879253D01*
X148898743Y-81903286D01*
X148908120Y-81925925D01*
X148921734Y-81946299D01*
X148930375Y-81954940D01*
X148953158Y-81982701D01*
X148953159Y-81982703D01*
X148967180Y-82008935D01*
X148975815Y-82037399D01*
X148978730Y-82067000D01*
X148975815Y-82096601D01*
X148967180Y-82125065D01*
X148967179Y-82125066D01*
X148953158Y-82151299D01*
X148934290Y-82174290D01*
X148911299Y-82193158D01*
X148911297Y-82193159D01*
X148885065Y-82207180D01*
X148856601Y-82215815D01*
X148841809Y-82217272D01*
X148834414Y-82218000D01*
X148019586Y-82218000D01*
X148012191Y-82217272D01*
X147997399Y-82215815D01*
X147968935Y-82207180D01*
X147942703Y-82193159D01*
X147942701Y-82193158D01*
X147919710Y-82174290D01*
X147900842Y-82151299D01*
X147886821Y-82125066D01*
X147886820Y-82125065D01*
X147878185Y-82096601D01*
X147875270Y-82067000D01*
X147878185Y-82037399D01*
X147886820Y-82008935D01*
X147900841Y-81982703D01*
X147900842Y-81982701D01*
X147923625Y-81954940D01*
X147932267Y-81946298D01*
X147945881Y-81925923D01*
X147955258Y-81903284D01*
X147960038Y-81879251D01*
X147960038Y-81854747D01*
X147955257Y-81830714D01*
X147945880Y-81808075D01*
X147932266Y-81787701D01*
X147923625Y-81779060D01*
X147900842Y-81751299D01*
X147886821Y-81725066D01*
X147886820Y-81725065D01*
X147878185Y-81696601D01*
X147875270Y-81667000D01*
X147878185Y-81637399D01*
X147886820Y-81608935D01*
X147900841Y-81582703D01*
X147900842Y-81582701D01*
X147923625Y-81554940D01*
X147932267Y-81546298D01*
X147945881Y-81525923D01*
X147955258Y-81503284D01*
X147960038Y-81479251D01*
X147960038Y-81454747D01*
X147955257Y-81430714D01*
X147945880Y-81408075D01*
X147932266Y-81387701D01*
X147923625Y-81379060D01*
X147900842Y-81351299D01*
X147886821Y-81325066D01*
X147886820Y-81325065D01*
X147878185Y-81296601D01*
X147875270Y-81267000D01*
X147878185Y-81237399D01*
X147886820Y-81208935D01*
X147900841Y-81182703D01*
X147900842Y-81182701D01*
X147923625Y-81154940D01*
X147932267Y-81146298D01*
X147945881Y-81125923D01*
X147955258Y-81103284D01*
X147960038Y-81079251D01*
X147960038Y-81054747D01*
X147955257Y-81030714D01*
X147945880Y-81008075D01*
X147932266Y-80987701D01*
X147923625Y-80979060D01*
X147900842Y-80951299D01*
X147886821Y-80925066D01*
X147886820Y-80925065D01*
X147878185Y-80896601D01*
X147875270Y-80867000D01*
X147878185Y-80837399D01*
X147886820Y-80808935D01*
X147900841Y-80782703D01*
X147900842Y-80782701D01*
X147923625Y-80754940D01*
X147932267Y-80746298D01*
X147945881Y-80725923D01*
X147955258Y-80703284D01*
X147960038Y-80679251D01*
X147960038Y-80654747D01*
X147955257Y-80630714D01*
X147945880Y-80608075D01*
X147932266Y-80587701D01*
X147923625Y-80579060D01*
X147900842Y-80551299D01*
X147886821Y-80525066D01*
X147886820Y-80525065D01*
X147878185Y-80496601D01*
X147875270Y-80467000D01*
X147878185Y-80437399D01*
X147886820Y-80408935D01*
X147900841Y-80382703D01*
X147900842Y-80382701D01*
X147923625Y-80354940D01*
X147932267Y-80346298D01*
X147945881Y-80325923D01*
X147955258Y-80303284D01*
X147960038Y-80279251D01*
X147960038Y-80254747D01*
X147955257Y-80230714D01*
X147945880Y-80208075D01*
X147932266Y-80187701D01*
X147923625Y-80179060D01*
X147900842Y-80151299D01*
X147886821Y-80125066D01*
X147886820Y-80125065D01*
X147878185Y-80096601D01*
X147875270Y-80067000D01*
X147878185Y-80037399D01*
X147886820Y-80008935D01*
X147900841Y-79982703D01*
X147900842Y-79982701D01*
X147923625Y-79954940D01*
X147932267Y-79946298D01*
X147945881Y-79925923D01*
X147955258Y-79903284D01*
X147960038Y-79879251D01*
X147960038Y-79854747D01*
X147955257Y-79830714D01*
X147945880Y-79808075D01*
X147932266Y-79787701D01*
X147923625Y-79779060D01*
X147900842Y-79751299D01*
X147886821Y-79725066D01*
X147886820Y-79725065D01*
X147878185Y-79696601D01*
X147875270Y-79667000D01*
X147878185Y-79637399D01*
X147886820Y-79608935D01*
X147900841Y-79582703D01*
X147900842Y-79582701D01*
X147923625Y-79554940D01*
X147932267Y-79546298D01*
X147945881Y-79525923D01*
X147955258Y-79503284D01*
X147960038Y-79479251D01*
X147960038Y-79454747D01*
X147955257Y-79430714D01*
X147945880Y-79408075D01*
X147932266Y-79387701D01*
X147923625Y-79379060D01*
X147900842Y-79351299D01*
X147886821Y-79325066D01*
X147886820Y-79325065D01*
X147878185Y-79296601D01*
X147875270Y-79267000D01*
X147878185Y-79237399D01*
X147886820Y-79208935D01*
X147900841Y-79182703D01*
X147900842Y-79182701D01*
X147923625Y-79154940D01*
X147932267Y-79146298D01*
X147945881Y-79125923D01*
X147955258Y-79103284D01*
X147960038Y-79079251D01*
X147960038Y-79054747D01*
X147955257Y-79030714D01*
X147945880Y-79008075D01*
X147932266Y-78987701D01*
X147923625Y-78979060D01*
X147900842Y-78951299D01*
X147886821Y-78925066D01*
X147886820Y-78925065D01*
X147878185Y-78896601D01*
X147875270Y-78867000D01*
X147878185Y-78837399D01*
X147886820Y-78808935D01*
X147900841Y-78782703D01*
X147900842Y-78782701D01*
X147923625Y-78754940D01*
X147932267Y-78746298D01*
X147945881Y-78725923D01*
X147955258Y-78703284D01*
X147960038Y-78679251D01*
X147960038Y-78654747D01*
X147955257Y-78630714D01*
X147945880Y-78608075D01*
X147932266Y-78587701D01*
X147923625Y-78579060D01*
X147900842Y-78551299D01*
X147886821Y-78525066D01*
X147886820Y-78525065D01*
X147878185Y-78496601D01*
X147875270Y-78467000D01*
X147878185Y-78437399D01*
X147886820Y-78408935D01*
X147900841Y-78382703D01*
X147900842Y-78382701D01*
X147923625Y-78354940D01*
X147932267Y-78346298D01*
X147945881Y-78325923D01*
X147955258Y-78303284D01*
X147960038Y-78279251D01*
X147960038Y-78254747D01*
X147955257Y-78230714D01*
X147945880Y-78208075D01*
X147932266Y-78187701D01*
X147923625Y-78179060D01*
X147900842Y-78151299D01*
X147886821Y-78125066D01*
X147886820Y-78125065D01*
X147878185Y-78096601D01*
X147875270Y-78067000D01*
X147878185Y-78037399D01*
X147886820Y-78008935D01*
X147900841Y-77982703D01*
X147900842Y-77982701D01*
X147923625Y-77954940D01*
X147932267Y-77946298D01*
X147945881Y-77925923D01*
X147955258Y-77903284D01*
X147960038Y-77879251D01*
X147960038Y-77854747D01*
X147955257Y-77830714D01*
X147945880Y-77808075D01*
X147932266Y-77787701D01*
X147923625Y-77779060D01*
X147900842Y-77751299D01*
X147886821Y-77725066D01*
X147886820Y-77725065D01*
X147878185Y-77696601D01*
X147875270Y-77667000D01*
X147878185Y-77637399D01*
X147886820Y-77608935D01*
X147900841Y-77582703D01*
X147900842Y-77582701D01*
X147923625Y-77554940D01*
X147932267Y-77546298D01*
X147945881Y-77525923D01*
X147955258Y-77503284D01*
X147960038Y-77479251D01*
X147960038Y-77454747D01*
X147955257Y-77430714D01*
X147945880Y-77408075D01*
X147932266Y-77387701D01*
X147923625Y-77379060D01*
X147900842Y-77351299D01*
X147886821Y-77325066D01*
X147886820Y-77325065D01*
X147878185Y-77296601D01*
X147875270Y-77267000D01*
X147878185Y-77237399D01*
X147886820Y-77208935D01*
X147900841Y-77182703D01*
X147900842Y-77182701D01*
X147923625Y-77154940D01*
X147932267Y-77146298D01*
X147945881Y-77125923D01*
X147955258Y-77103284D01*
X147960038Y-77079251D01*
X147960038Y-77054747D01*
X147955257Y-77030714D01*
X147945880Y-77008075D01*
X147932266Y-76987701D01*
X147923625Y-76979060D01*
X147900842Y-76951299D01*
X147886821Y-76925066D01*
X147886820Y-76925065D01*
X147878185Y-76896601D01*
X147875270Y-76867000D01*
X147878185Y-76837399D01*
X147886820Y-76808935D01*
X147900841Y-76782703D01*
X147900842Y-76782701D01*
X147923625Y-76754940D01*
X147932267Y-76746298D01*
X147945881Y-76725923D01*
X147955258Y-76703284D01*
X147960038Y-76679251D01*
X147960038Y-76654747D01*
X147955257Y-76630714D01*
X147945880Y-76608075D01*
X147932266Y-76587701D01*
X147923625Y-76579060D01*
X147900842Y-76551299D01*
X147886821Y-76525066D01*
X147886820Y-76525065D01*
X147878185Y-76496601D01*
X147875270Y-76467000D01*
X147878185Y-76437399D01*
X147886820Y-76408935D01*
X147900841Y-76382703D01*
X147900842Y-76382701D01*
X147923625Y-76354940D01*
X147932267Y-76346298D01*
X147945881Y-76325923D01*
X147955258Y-76303284D01*
X147960038Y-76279251D01*
X147960038Y-76254747D01*
X147955257Y-76230714D01*
X147945880Y-76208075D01*
X147932266Y-76187701D01*
X147923625Y-76179060D01*
X147900842Y-76151299D01*
X147886821Y-76125066D01*
X147886820Y-76125065D01*
X147878185Y-76096601D01*
X147875270Y-76067000D01*
X147878185Y-76037399D01*
X147886820Y-76008935D01*
X147900841Y-75982703D01*
X147900842Y-75982701D01*
X147923625Y-75954940D01*
X147932267Y-75946298D01*
X147945881Y-75925923D01*
X147955258Y-75903284D01*
X147960038Y-75879251D01*
X147960038Y-75854747D01*
X147955257Y-75830714D01*
X147945880Y-75808075D01*
X147932266Y-75787701D01*
X147923625Y-75779060D01*
X147900842Y-75751299D01*
X147886821Y-75725066D01*
X147886820Y-75725065D01*
X147878185Y-75696601D01*
X147875270Y-75667000D01*
X147878185Y-75637399D01*
X147886820Y-75608935D01*
X147900841Y-75582703D01*
X147900842Y-75582701D01*
X147919710Y-75559710D01*
X147942701Y-75540842D01*
X147946087Y-75539032D01*
X147968935Y-75526820D01*
X147997399Y-75518185D01*
X148012191Y-75516728D01*
X148019586Y-75516000D01*
X148834414Y-75516000D01*
X148841809Y-75516728D01*
X148841809Y-75516728D01*
G37*
G36*
X155078000Y-81418000D02*
G01*
X149976000Y-81418000D01*
X149976000Y-76316000D01*
X155078000Y-76316000D01*
X155078000Y-81418000D01*
X155078000Y-81418000D01*
G37*
G36*
X168707000Y-81204000D02*
G01*
X164795000Y-81204000D01*
X164795000Y-79578000D01*
X168707000Y-79578000D01*
X168707000Y-81204000D01*
X168707000Y-81204000D01*
G37*
G36*
X145775642Y-79366781D02*
G01*
X145899295Y-79418000D01*
X145921416Y-79427163D01*
X146052608Y-79514822D01*
X146164178Y-79626392D01*
X146251837Y-79757584D01*
X146251838Y-79757586D01*
X146312219Y-79903358D01*
X146343000Y-80058107D01*
X146343000Y-80215893D01*
X146312219Y-80370642D01*
X146260045Y-80496601D01*
X146251837Y-80516416D01*
X146164178Y-80647608D01*
X146052608Y-80759178D01*
X145921416Y-80846837D01*
X145921415Y-80846838D01*
X145921414Y-80846838D01*
X145775642Y-80907219D01*
X145620893Y-80938000D01*
X145463107Y-80938000D01*
X145308358Y-80907219D01*
X145162586Y-80846838D01*
X145162585Y-80846838D01*
X145162584Y-80846837D01*
X145031392Y-80759178D01*
X144919822Y-80647608D01*
X144832163Y-80516416D01*
X144823955Y-80496601D01*
X144771781Y-80370642D01*
X144741000Y-80215893D01*
X144741000Y-80058107D01*
X144771781Y-79903358D01*
X144832162Y-79757586D01*
X144832163Y-79757584D01*
X144919822Y-79626392D01*
X145031392Y-79514822D01*
X145162584Y-79427163D01*
X145184705Y-79418000D01*
X145308358Y-79366781D01*
X145463107Y-79336000D01*
X145620893Y-79336000D01*
X145775642Y-79366781D01*
X145775642Y-79366781D01*
G37*
G36*
X142336720Y-80933490D02*
G01*
X141635280Y-80933490D01*
X141635280Y-78832510D01*
X142336720Y-78832510D01*
X142336720Y-80933490D01*
X142336720Y-80933490D01*
G37*
G36*
X141066720Y-80933490D02*
G01*
X140365280Y-80933490D01*
X140365280Y-78832510D01*
X141066720Y-78832510D01*
X141066720Y-80933490D01*
X141066720Y-80933490D01*
G37*
G36*
X139796720Y-80933490D02*
G01*
X139095280Y-80933490D01*
X139095280Y-78832510D01*
X139796720Y-78832510D01*
X139796720Y-80933490D01*
X139796720Y-80933490D01*
G37*
G36*
X143606720Y-80933490D02*
G01*
X142905280Y-80933490D01*
X142905280Y-78832510D01*
X143606720Y-78832510D01*
X143606720Y-80933490D01*
X143606720Y-80933490D01*
G37*
G36*
X132811720Y-80806490D02*
G01*
X132110280Y-80806490D01*
X132110280Y-78705510D01*
X132811720Y-78705510D01*
X132811720Y-80806490D01*
X132811720Y-80806490D01*
G37*
G36*
X131541720Y-80806490D02*
G01*
X130840280Y-80806490D01*
X130840280Y-78705510D01*
X131541720Y-78705510D01*
X131541720Y-80806490D01*
X131541720Y-80806490D01*
G37*
G36*
X130271720Y-80806490D02*
G01*
X129570280Y-80806490D01*
X129570280Y-78705510D01*
X130271720Y-78705510D01*
X130271720Y-80806490D01*
X130271720Y-80806490D01*
G37*
G36*
X129001720Y-80806490D02*
G01*
X128300280Y-80806490D01*
X128300280Y-78705510D01*
X129001720Y-78705510D01*
X129001720Y-80806490D01*
X129001720Y-80806490D01*
G37*
G36*
X136556000Y-79899000D02*
G01*
X133954000Y-79899000D01*
X133954000Y-78597000D01*
X136556000Y-78597000D01*
X136556000Y-79899000D01*
X136556000Y-79899000D01*
G37*
G36*
X168707000Y-78410000D02*
G01*
X164795000Y-78410000D01*
X164795000Y-76784000D01*
X168707000Y-76784000D01*
X168707000Y-78410000D01*
X168707000Y-78410000D01*
G37*
G36*
X145775642Y-76826781D02*
G01*
X145921414Y-76887162D01*
X145921416Y-76887163D01*
X146052608Y-76974822D01*
X146164178Y-77086392D01*
X146228529Y-77182701D01*
X146251838Y-77217586D01*
X146312219Y-77363358D01*
X146343000Y-77518107D01*
X146343000Y-77675893D01*
X146312219Y-77830642D01*
X146251838Y-77976414D01*
X146251837Y-77976416D01*
X146164178Y-78107608D01*
X146052608Y-78219178D01*
X145921416Y-78306837D01*
X145921415Y-78306838D01*
X145921414Y-78306838D01*
X145775642Y-78367219D01*
X145620893Y-78398000D01*
X145463107Y-78398000D01*
X145308358Y-78367219D01*
X145162586Y-78306838D01*
X145162585Y-78306838D01*
X145162584Y-78306837D01*
X145031392Y-78219178D01*
X144919822Y-78107608D01*
X144832163Y-77976416D01*
X144832162Y-77976414D01*
X144771781Y-77830642D01*
X144741000Y-77675893D01*
X144741000Y-77518107D01*
X144771781Y-77363358D01*
X144832162Y-77217586D01*
X144855471Y-77182701D01*
X144919822Y-77086392D01*
X145031392Y-76974822D01*
X145162584Y-76887163D01*
X145162586Y-76887162D01*
X145308358Y-76826781D01*
X145463107Y-76796000D01*
X145620893Y-76796000D01*
X145775642Y-76826781D01*
X145775642Y-76826781D01*
G37*
G36*
X138296000Y-78101000D02*
G01*
X137294000Y-78101000D01*
X137294000Y-77299000D01*
X138296000Y-77299000D01*
X138296000Y-78101000D01*
X138296000Y-78101000D01*
G37*
G36*
X136556000Y-76899000D02*
G01*
X133954000Y-76899000D01*
X133954000Y-75597000D01*
X136556000Y-75597000D01*
X136556000Y-76899000D01*
X136556000Y-76899000D01*
G37*
G36*
X138296000Y-76601000D02*
G01*
X137294000Y-76601000D01*
X137294000Y-75799000D01*
X138296000Y-75799000D01*
X138296000Y-76601000D01*
X138296000Y-76601000D01*
G37*
G36*
X145775642Y-74286781D02*
G01*
X145897851Y-74337402D01*
X145921416Y-74347163D01*
X146052608Y-74434822D01*
X146164178Y-74546392D01*
X146251837Y-74677584D01*
X146251838Y-74677586D01*
X146312219Y-74823358D01*
X146343000Y-74978107D01*
X146343000Y-75135893D01*
X146312219Y-75290642D01*
X146289500Y-75345490D01*
X146251837Y-75436416D01*
X146164178Y-75567608D01*
X146052608Y-75679178D01*
X145921416Y-75766837D01*
X145921415Y-75766838D01*
X145921414Y-75766838D01*
X145775642Y-75827219D01*
X145620893Y-75858000D01*
X145463107Y-75858000D01*
X145308358Y-75827219D01*
X145162586Y-75766838D01*
X145162585Y-75766838D01*
X145162584Y-75766837D01*
X145031392Y-75679178D01*
X144919822Y-75567608D01*
X144832163Y-75436416D01*
X144794500Y-75345490D01*
X144771781Y-75290642D01*
X144741000Y-75135893D01*
X144741000Y-74978107D01*
X144771781Y-74823358D01*
X144832162Y-74677586D01*
X144832163Y-74677584D01*
X144919822Y-74546392D01*
X145031392Y-74434822D01*
X145162584Y-74347163D01*
X145186149Y-74337402D01*
X145308358Y-74286781D01*
X145463107Y-74256000D01*
X145620893Y-74256000D01*
X145775642Y-74286781D01*
X145775642Y-74286781D01*
G37*
G36*
X168707000Y-75616000D02*
G01*
X164795000Y-75616000D01*
X164795000Y-73990000D01*
X168707000Y-73990000D01*
X168707000Y-75616000D01*
X168707000Y-75616000D01*
G37*
G36*
X143606720Y-75345490D02*
G01*
X142905280Y-75345490D01*
X142905280Y-73244510D01*
X143606720Y-73244510D01*
X143606720Y-75345490D01*
X143606720Y-75345490D01*
G37*
G36*
X142336720Y-75345490D02*
G01*
X141635280Y-75345490D01*
X141635280Y-73244510D01*
X142336720Y-73244510D01*
X142336720Y-75345490D01*
X142336720Y-75345490D01*
G37*
G36*
X141066720Y-75345490D02*
G01*
X140365280Y-75345490D01*
X140365280Y-73244510D01*
X141066720Y-73244510D01*
X141066720Y-75345490D01*
X141066720Y-75345490D01*
G37*
G36*
X139796720Y-75345490D02*
G01*
X139095280Y-75345490D01*
X139095280Y-73244510D01*
X139796720Y-73244510D01*
X139796720Y-75345490D01*
X139796720Y-75345490D01*
G37*
G36*
X149356600Y-74218185D02*
G01*
X149377658Y-74224573D01*
X149385068Y-74226821D01*
X149411297Y-74240841D01*
X149439060Y-74263625D01*
X149447702Y-74272267D01*
X149468077Y-74285881D01*
X149490716Y-74295258D01*
X149514749Y-74300038D01*
X149539253Y-74300038D01*
X149563286Y-74295257D01*
X149585925Y-74285880D01*
X149606299Y-74272266D01*
X149614940Y-74263625D01*
X149642701Y-74240842D01*
X149646087Y-74239032D01*
X149668935Y-74226820D01*
X149697399Y-74218185D01*
X149717133Y-74216242D01*
X149726999Y-74215270D01*
X149727000Y-74215270D01*
X149756600Y-74218185D01*
X149777658Y-74224573D01*
X149785068Y-74226821D01*
X149811297Y-74240841D01*
X149839060Y-74263625D01*
X149847702Y-74272267D01*
X149868077Y-74285881D01*
X149890716Y-74295258D01*
X149914749Y-74300038D01*
X149939253Y-74300038D01*
X149963286Y-74295257D01*
X149985925Y-74285880D01*
X150006299Y-74272266D01*
X150014940Y-74263625D01*
X150042701Y-74240842D01*
X150046087Y-74239032D01*
X150068935Y-74226820D01*
X150097399Y-74218185D01*
X150117133Y-74216242D01*
X150126999Y-74215270D01*
X150127000Y-74215270D01*
X150156600Y-74218185D01*
X150177658Y-74224573D01*
X150185068Y-74226821D01*
X150211297Y-74240841D01*
X150239060Y-74263625D01*
X150247702Y-74272267D01*
X150268077Y-74285881D01*
X150290716Y-74295258D01*
X150314749Y-74300038D01*
X150339253Y-74300038D01*
X150363286Y-74295257D01*
X150385925Y-74285880D01*
X150406299Y-74272266D01*
X150414940Y-74263625D01*
X150442701Y-74240842D01*
X150446087Y-74239032D01*
X150468935Y-74226820D01*
X150497399Y-74218185D01*
X150517133Y-74216242D01*
X150526999Y-74215270D01*
X150527000Y-74215270D01*
X150556600Y-74218185D01*
X150577658Y-74224573D01*
X150585068Y-74226821D01*
X150611297Y-74240841D01*
X150639060Y-74263625D01*
X150647702Y-74272267D01*
X150668077Y-74285881D01*
X150690716Y-74295258D01*
X150714749Y-74300038D01*
X150739253Y-74300038D01*
X150763286Y-74295257D01*
X150785925Y-74285880D01*
X150806299Y-74272266D01*
X150814940Y-74263625D01*
X150842701Y-74240842D01*
X150846087Y-74239032D01*
X150868935Y-74226820D01*
X150897399Y-74218185D01*
X150917133Y-74216242D01*
X150926999Y-74215270D01*
X150927000Y-74215270D01*
X150956600Y-74218185D01*
X150977658Y-74224573D01*
X150985068Y-74226821D01*
X151011297Y-74240841D01*
X151039060Y-74263625D01*
X151047702Y-74272267D01*
X151068077Y-74285881D01*
X151090716Y-74295258D01*
X151114749Y-74300038D01*
X151139253Y-74300038D01*
X151163286Y-74295257D01*
X151185925Y-74285880D01*
X151206299Y-74272266D01*
X151214940Y-74263625D01*
X151242701Y-74240842D01*
X151246087Y-74239032D01*
X151268935Y-74226820D01*
X151297399Y-74218185D01*
X151317133Y-74216242D01*
X151326999Y-74215270D01*
X151327000Y-74215270D01*
X151356600Y-74218185D01*
X151377658Y-74224573D01*
X151385068Y-74226821D01*
X151411297Y-74240841D01*
X151439060Y-74263625D01*
X151447702Y-74272267D01*
X151468077Y-74285881D01*
X151490716Y-74295258D01*
X151514749Y-74300038D01*
X151539253Y-74300038D01*
X151563286Y-74295257D01*
X151585925Y-74285880D01*
X151606299Y-74272266D01*
X151614940Y-74263625D01*
X151642701Y-74240842D01*
X151646087Y-74239032D01*
X151668935Y-74226820D01*
X151697399Y-74218185D01*
X151717133Y-74216242D01*
X151726999Y-74215270D01*
X151727000Y-74215270D01*
X151756600Y-74218185D01*
X151777658Y-74224573D01*
X151785068Y-74226821D01*
X151811297Y-74240841D01*
X151839060Y-74263625D01*
X151847702Y-74272267D01*
X151868077Y-74285881D01*
X151890716Y-74295258D01*
X151914749Y-74300038D01*
X151939253Y-74300038D01*
X151963286Y-74295257D01*
X151985925Y-74285880D01*
X152006299Y-74272266D01*
X152014940Y-74263625D01*
X152042701Y-74240842D01*
X152046087Y-74239032D01*
X152068935Y-74226820D01*
X152097399Y-74218185D01*
X152117133Y-74216242D01*
X152126999Y-74215270D01*
X152127000Y-74215270D01*
X152156600Y-74218185D01*
X152177658Y-74224573D01*
X152185068Y-74226821D01*
X152211297Y-74240841D01*
X152239060Y-74263625D01*
X152247702Y-74272267D01*
X152268077Y-74285881D01*
X152290716Y-74295258D01*
X152314749Y-74300038D01*
X152339253Y-74300038D01*
X152363286Y-74295257D01*
X152385925Y-74285880D01*
X152406299Y-74272266D01*
X152414940Y-74263625D01*
X152442701Y-74240842D01*
X152446087Y-74239032D01*
X152468935Y-74226820D01*
X152497399Y-74218185D01*
X152517133Y-74216242D01*
X152526999Y-74215270D01*
X152527000Y-74215270D01*
X152556600Y-74218185D01*
X152577658Y-74224573D01*
X152585068Y-74226821D01*
X152611297Y-74240841D01*
X152639060Y-74263625D01*
X152647702Y-74272267D01*
X152668077Y-74285881D01*
X152690716Y-74295258D01*
X152714749Y-74300038D01*
X152739253Y-74300038D01*
X152763286Y-74295257D01*
X152785925Y-74285880D01*
X152806299Y-74272266D01*
X152814940Y-74263625D01*
X152842701Y-74240842D01*
X152846087Y-74239032D01*
X152868935Y-74226820D01*
X152897399Y-74218185D01*
X152917133Y-74216242D01*
X152926999Y-74215270D01*
X152927000Y-74215270D01*
X152956600Y-74218185D01*
X152977658Y-74224573D01*
X152985068Y-74226821D01*
X153011297Y-74240841D01*
X153039060Y-74263625D01*
X153047702Y-74272267D01*
X153068077Y-74285881D01*
X153090716Y-74295258D01*
X153114749Y-74300038D01*
X153139253Y-74300038D01*
X153163286Y-74295257D01*
X153185925Y-74285880D01*
X153206299Y-74272266D01*
X153214940Y-74263625D01*
X153242701Y-74240842D01*
X153246087Y-74239032D01*
X153268935Y-74226820D01*
X153297399Y-74218185D01*
X153317133Y-74216242D01*
X153326999Y-74215270D01*
X153327000Y-74215270D01*
X153356600Y-74218185D01*
X153377658Y-74224573D01*
X153385068Y-74226821D01*
X153411297Y-74240841D01*
X153439060Y-74263625D01*
X153447702Y-74272267D01*
X153468077Y-74285881D01*
X153490716Y-74295258D01*
X153514749Y-74300038D01*
X153539253Y-74300038D01*
X153563286Y-74295257D01*
X153585925Y-74285880D01*
X153606299Y-74272266D01*
X153614940Y-74263625D01*
X153642701Y-74240842D01*
X153646087Y-74239032D01*
X153668935Y-74226820D01*
X153697399Y-74218185D01*
X153717133Y-74216242D01*
X153726999Y-74215270D01*
X153727000Y-74215270D01*
X153756600Y-74218185D01*
X153777658Y-74224573D01*
X153785068Y-74226821D01*
X153811297Y-74240841D01*
X153839060Y-74263625D01*
X153847702Y-74272267D01*
X153868077Y-74285881D01*
X153890716Y-74295258D01*
X153914749Y-74300038D01*
X153939253Y-74300038D01*
X153963286Y-74295257D01*
X153985925Y-74285880D01*
X154006299Y-74272266D01*
X154014940Y-74263625D01*
X154042701Y-74240842D01*
X154046087Y-74239032D01*
X154068935Y-74226820D01*
X154097399Y-74218185D01*
X154117133Y-74216242D01*
X154126999Y-74215270D01*
X154127000Y-74215270D01*
X154156600Y-74218185D01*
X154177658Y-74224573D01*
X154185068Y-74226821D01*
X154211297Y-74240841D01*
X154239060Y-74263625D01*
X154247702Y-74272267D01*
X154268077Y-74285881D01*
X154290716Y-74295258D01*
X154314749Y-74300038D01*
X154339253Y-74300038D01*
X154363286Y-74295257D01*
X154385925Y-74285880D01*
X154406299Y-74272266D01*
X154414940Y-74263625D01*
X154442701Y-74240842D01*
X154446087Y-74239032D01*
X154468935Y-74226820D01*
X154497399Y-74218185D01*
X154517133Y-74216242D01*
X154526999Y-74215270D01*
X154527000Y-74215270D01*
X154556600Y-74218185D01*
X154577658Y-74224573D01*
X154585068Y-74226821D01*
X154611297Y-74240841D01*
X154639060Y-74263625D01*
X154647702Y-74272267D01*
X154668077Y-74285881D01*
X154690716Y-74295258D01*
X154714749Y-74300038D01*
X154739253Y-74300038D01*
X154763286Y-74295257D01*
X154785925Y-74285880D01*
X154806299Y-74272266D01*
X154814940Y-74263625D01*
X154842701Y-74240842D01*
X154846087Y-74239032D01*
X154868935Y-74226820D01*
X154897399Y-74218185D01*
X154917133Y-74216242D01*
X154926999Y-74215270D01*
X154927000Y-74215270D01*
X154956600Y-74218185D01*
X154977658Y-74224573D01*
X154985068Y-74226821D01*
X155011297Y-74240841D01*
X155039060Y-74263625D01*
X155047702Y-74272267D01*
X155068077Y-74285881D01*
X155090716Y-74295258D01*
X155114749Y-74300038D01*
X155139253Y-74300038D01*
X155163286Y-74295257D01*
X155185925Y-74285880D01*
X155206299Y-74272266D01*
X155214940Y-74263625D01*
X155242701Y-74240842D01*
X155246087Y-74239032D01*
X155268935Y-74226820D01*
X155297399Y-74218185D01*
X155317133Y-74216242D01*
X155326999Y-74215270D01*
X155327000Y-74215270D01*
X155356600Y-74218185D01*
X155377658Y-74224573D01*
X155385068Y-74226821D01*
X155411297Y-74240841D01*
X155439060Y-74263625D01*
X155447702Y-74272267D01*
X155468077Y-74285881D01*
X155490716Y-74295258D01*
X155514749Y-74300038D01*
X155539253Y-74300038D01*
X155563286Y-74295257D01*
X155585925Y-74285880D01*
X155606299Y-74272266D01*
X155614940Y-74263625D01*
X155642701Y-74240842D01*
X155646087Y-74239032D01*
X155668935Y-74226820D01*
X155697399Y-74218185D01*
X155717133Y-74216242D01*
X155726999Y-74215270D01*
X155727000Y-74215270D01*
X155756600Y-74218185D01*
X155777658Y-74224573D01*
X155785068Y-74226821D01*
X155811297Y-74240841D01*
X155834290Y-74259710D01*
X155853158Y-74282701D01*
X155853159Y-74282703D01*
X155867180Y-74308935D01*
X155875815Y-74337399D01*
X155878000Y-74359587D01*
X155878000Y-75174413D01*
X155875815Y-75196601D01*
X155867180Y-75225065D01*
X155859872Y-75238738D01*
X155853158Y-75251299D01*
X155834290Y-75274290D01*
X155811299Y-75293158D01*
X155811297Y-75293159D01*
X155785065Y-75307180D01*
X155756601Y-75315815D01*
X155736867Y-75317758D01*
X155727001Y-75318730D01*
X155727000Y-75318730D01*
X155697400Y-75315815D01*
X155668936Y-75307180D01*
X155642704Y-75293159D01*
X155642702Y-75293158D01*
X155614946Y-75270379D01*
X155606309Y-75261740D01*
X155585936Y-75248124D01*
X155563298Y-75238745D01*
X155539265Y-75233962D01*
X155514761Y-75233960D01*
X155490727Y-75238738D01*
X155468087Y-75248113D01*
X155447712Y-75261725D01*
X155439066Y-75270370D01*
X155411299Y-75293158D01*
X155411297Y-75293159D01*
X155385065Y-75307180D01*
X155356601Y-75315815D01*
X155336867Y-75317758D01*
X155327001Y-75318730D01*
X155327000Y-75318730D01*
X155297400Y-75315815D01*
X155268936Y-75307180D01*
X155242704Y-75293159D01*
X155242702Y-75293158D01*
X155214946Y-75270379D01*
X155206309Y-75261740D01*
X155185936Y-75248124D01*
X155163298Y-75238745D01*
X155139265Y-75233962D01*
X155114761Y-75233960D01*
X155090727Y-75238738D01*
X155068087Y-75248113D01*
X155047712Y-75261725D01*
X155039066Y-75270370D01*
X155011299Y-75293158D01*
X155011297Y-75293159D01*
X154985065Y-75307180D01*
X154956601Y-75315815D01*
X154936867Y-75317758D01*
X154927001Y-75318730D01*
X154927000Y-75318730D01*
X154897400Y-75315815D01*
X154868936Y-75307180D01*
X154842704Y-75293159D01*
X154842702Y-75293158D01*
X154814946Y-75270379D01*
X154806309Y-75261740D01*
X154785936Y-75248124D01*
X154763298Y-75238745D01*
X154739265Y-75233962D01*
X154714761Y-75233960D01*
X154690727Y-75238738D01*
X154668087Y-75248113D01*
X154647712Y-75261725D01*
X154639066Y-75270370D01*
X154611299Y-75293158D01*
X154611297Y-75293159D01*
X154585065Y-75307180D01*
X154556601Y-75315815D01*
X154536867Y-75317758D01*
X154527001Y-75318730D01*
X154527000Y-75318730D01*
X154497400Y-75315815D01*
X154468936Y-75307180D01*
X154442704Y-75293159D01*
X154442702Y-75293158D01*
X154414946Y-75270379D01*
X154406309Y-75261740D01*
X154385936Y-75248124D01*
X154363298Y-75238745D01*
X154339265Y-75233962D01*
X154314761Y-75233960D01*
X154290727Y-75238738D01*
X154268087Y-75248113D01*
X154247712Y-75261725D01*
X154239066Y-75270370D01*
X154211299Y-75293158D01*
X154211297Y-75293159D01*
X154185065Y-75307180D01*
X154156601Y-75315815D01*
X154136867Y-75317758D01*
X154127001Y-75318730D01*
X154127000Y-75318730D01*
X154097400Y-75315815D01*
X154068936Y-75307180D01*
X154042704Y-75293159D01*
X154042702Y-75293158D01*
X154014946Y-75270379D01*
X154006309Y-75261740D01*
X153985936Y-75248124D01*
X153963298Y-75238745D01*
X153939265Y-75233962D01*
X153914761Y-75233960D01*
X153890727Y-75238738D01*
X153868087Y-75248113D01*
X153847712Y-75261725D01*
X153839066Y-75270370D01*
X153811299Y-75293158D01*
X153811297Y-75293159D01*
X153785065Y-75307180D01*
X153756601Y-75315815D01*
X153736867Y-75317758D01*
X153727001Y-75318730D01*
X153727000Y-75318730D01*
X153697400Y-75315815D01*
X153668936Y-75307180D01*
X153642704Y-75293159D01*
X153642702Y-75293158D01*
X153614946Y-75270379D01*
X153606309Y-75261740D01*
X153585936Y-75248124D01*
X153563298Y-75238745D01*
X153539265Y-75233962D01*
X153514761Y-75233960D01*
X153490727Y-75238738D01*
X153468087Y-75248113D01*
X153447712Y-75261725D01*
X153439066Y-75270370D01*
X153411299Y-75293158D01*
X153411297Y-75293159D01*
X153385065Y-75307180D01*
X153356601Y-75315815D01*
X153336867Y-75317758D01*
X153327001Y-75318730D01*
X153327000Y-75318730D01*
X153297400Y-75315815D01*
X153268936Y-75307180D01*
X153242704Y-75293159D01*
X153242702Y-75293158D01*
X153214946Y-75270379D01*
X153206309Y-75261740D01*
X153185936Y-75248124D01*
X153163298Y-75238745D01*
X153139265Y-75233962D01*
X153114761Y-75233960D01*
X153090727Y-75238738D01*
X153068087Y-75248113D01*
X153047712Y-75261725D01*
X153039066Y-75270370D01*
X153011299Y-75293158D01*
X153011297Y-75293159D01*
X152985065Y-75307180D01*
X152956601Y-75315815D01*
X152936867Y-75317758D01*
X152927001Y-75318730D01*
X152927000Y-75318730D01*
X152897400Y-75315815D01*
X152868936Y-75307180D01*
X152842704Y-75293159D01*
X152842702Y-75293158D01*
X152814946Y-75270379D01*
X152806309Y-75261740D01*
X152785936Y-75248124D01*
X152763298Y-75238745D01*
X152739265Y-75233962D01*
X152714761Y-75233960D01*
X152690727Y-75238738D01*
X152668087Y-75248113D01*
X152647712Y-75261725D01*
X152639066Y-75270370D01*
X152611299Y-75293158D01*
X152611297Y-75293159D01*
X152585065Y-75307180D01*
X152556601Y-75315815D01*
X152536867Y-75317758D01*
X152527001Y-75318730D01*
X152527000Y-75318730D01*
X152497400Y-75315815D01*
X152468936Y-75307180D01*
X152442704Y-75293159D01*
X152442702Y-75293158D01*
X152414946Y-75270379D01*
X152406309Y-75261740D01*
X152385936Y-75248124D01*
X152363298Y-75238745D01*
X152339265Y-75233962D01*
X152314761Y-75233960D01*
X152290727Y-75238738D01*
X152268087Y-75248113D01*
X152247712Y-75261725D01*
X152239066Y-75270370D01*
X152211299Y-75293158D01*
X152211297Y-75293159D01*
X152185065Y-75307180D01*
X152156601Y-75315815D01*
X152136867Y-75317758D01*
X152127001Y-75318730D01*
X152127000Y-75318730D01*
X152097400Y-75315815D01*
X152068936Y-75307180D01*
X152042704Y-75293159D01*
X152042702Y-75293158D01*
X152014946Y-75270379D01*
X152006309Y-75261740D01*
X151985936Y-75248124D01*
X151963298Y-75238745D01*
X151939265Y-75233962D01*
X151914761Y-75233960D01*
X151890727Y-75238738D01*
X151868087Y-75248113D01*
X151847712Y-75261725D01*
X151839066Y-75270370D01*
X151811299Y-75293158D01*
X151811297Y-75293159D01*
X151785065Y-75307180D01*
X151756601Y-75315815D01*
X151736867Y-75317758D01*
X151727001Y-75318730D01*
X151727000Y-75318730D01*
X151697400Y-75315815D01*
X151668936Y-75307180D01*
X151642704Y-75293159D01*
X151642702Y-75293158D01*
X151614946Y-75270379D01*
X151606309Y-75261740D01*
X151585936Y-75248124D01*
X151563298Y-75238745D01*
X151539265Y-75233962D01*
X151514761Y-75233960D01*
X151490727Y-75238738D01*
X151468087Y-75248113D01*
X151447712Y-75261725D01*
X151439066Y-75270370D01*
X151411299Y-75293158D01*
X151411297Y-75293159D01*
X151385065Y-75307180D01*
X151356601Y-75315815D01*
X151336867Y-75317758D01*
X151327001Y-75318730D01*
X151327000Y-75318730D01*
X151297400Y-75315815D01*
X151268936Y-75307180D01*
X151242704Y-75293159D01*
X151242702Y-75293158D01*
X151214946Y-75270379D01*
X151206309Y-75261740D01*
X151185936Y-75248124D01*
X151163298Y-75238745D01*
X151139265Y-75233962D01*
X151114761Y-75233960D01*
X151090727Y-75238738D01*
X151068087Y-75248113D01*
X151047712Y-75261725D01*
X151039066Y-75270370D01*
X151011299Y-75293158D01*
X151011297Y-75293159D01*
X150985065Y-75307180D01*
X150956601Y-75315815D01*
X150936867Y-75317758D01*
X150927001Y-75318730D01*
X150927000Y-75318730D01*
X150897400Y-75315815D01*
X150868936Y-75307180D01*
X150842704Y-75293159D01*
X150842702Y-75293158D01*
X150814946Y-75270379D01*
X150806309Y-75261740D01*
X150785936Y-75248124D01*
X150763298Y-75238745D01*
X150739265Y-75233962D01*
X150714761Y-75233960D01*
X150690727Y-75238738D01*
X150668087Y-75248113D01*
X150647712Y-75261725D01*
X150639066Y-75270370D01*
X150611299Y-75293158D01*
X150611297Y-75293159D01*
X150585065Y-75307180D01*
X150556601Y-75315815D01*
X150536867Y-75317758D01*
X150527001Y-75318730D01*
X150527000Y-75318730D01*
X150497400Y-75315815D01*
X150468936Y-75307180D01*
X150442704Y-75293159D01*
X150442702Y-75293158D01*
X150414946Y-75270379D01*
X150406309Y-75261740D01*
X150385936Y-75248124D01*
X150363298Y-75238745D01*
X150339265Y-75233962D01*
X150314761Y-75233960D01*
X150290727Y-75238738D01*
X150268087Y-75248113D01*
X150247712Y-75261725D01*
X150239066Y-75270370D01*
X150211299Y-75293158D01*
X150211297Y-75293159D01*
X150185065Y-75307180D01*
X150156601Y-75315815D01*
X150136867Y-75317758D01*
X150127001Y-75318730D01*
X150127000Y-75318730D01*
X150097400Y-75315815D01*
X150068936Y-75307180D01*
X150042704Y-75293159D01*
X150042702Y-75293158D01*
X150014946Y-75270379D01*
X150006309Y-75261740D01*
X149985936Y-75248124D01*
X149963298Y-75238745D01*
X149939265Y-75233962D01*
X149914761Y-75233960D01*
X149890727Y-75238738D01*
X149868087Y-75248113D01*
X149847712Y-75261725D01*
X149839066Y-75270370D01*
X149811299Y-75293158D01*
X149811297Y-75293159D01*
X149785065Y-75307180D01*
X149756601Y-75315815D01*
X149736867Y-75317758D01*
X149727001Y-75318730D01*
X149727000Y-75318730D01*
X149697400Y-75315815D01*
X149668936Y-75307180D01*
X149642704Y-75293159D01*
X149642702Y-75293158D01*
X149614946Y-75270379D01*
X149606309Y-75261740D01*
X149585936Y-75248124D01*
X149563298Y-75238745D01*
X149539265Y-75233962D01*
X149514761Y-75233960D01*
X149490727Y-75238738D01*
X149468087Y-75248113D01*
X149447712Y-75261725D01*
X149439066Y-75270370D01*
X149411299Y-75293158D01*
X149411297Y-75293159D01*
X149385065Y-75307180D01*
X149356601Y-75315815D01*
X149336867Y-75317758D01*
X149327001Y-75318730D01*
X149327000Y-75318730D01*
X149297400Y-75315815D01*
X149268936Y-75307180D01*
X149242704Y-75293159D01*
X149242702Y-75293158D01*
X149219711Y-75274290D01*
X149200843Y-75251299D01*
X149194129Y-75238738D01*
X149186821Y-75225065D01*
X149178186Y-75196601D01*
X149176001Y-75174413D01*
X149176000Y-74359588D01*
X149178185Y-74337400D01*
X149186820Y-74308936D01*
X149186821Y-74308932D01*
X149200841Y-74282703D01*
X149219710Y-74259710D01*
X149242701Y-74240842D01*
X149246087Y-74239032D01*
X149268935Y-74226820D01*
X149297399Y-74218185D01*
X149317133Y-74216242D01*
X149326999Y-74215270D01*
X149327000Y-74215270D01*
X149356600Y-74218185D01*
X149356600Y-74218185D01*
G37*
G36*
X131541720Y-75218490D02*
G01*
X130840280Y-75218490D01*
X130840280Y-73117510D01*
X131541720Y-73117510D01*
X131541720Y-75218490D01*
X131541720Y-75218490D01*
G37*
G36*
X132811720Y-75218490D02*
G01*
X132110280Y-75218490D01*
X132110280Y-73117510D01*
X132811720Y-73117510D01*
X132811720Y-75218490D01*
X132811720Y-75218490D01*
G37*
G36*
X130271720Y-75218490D02*
G01*
X129570280Y-75218490D01*
X129570280Y-73117510D01*
X130271720Y-73117510D01*
X130271720Y-75218490D01*
X130271720Y-75218490D01*
G37*
G36*
X129001720Y-75218490D02*
G01*
X128300280Y-75218490D01*
X128300280Y-73117510D01*
X129001720Y-73117510D01*
X129001720Y-75218490D01*
X129001720Y-75218490D01*
G37*
G36*
X144851000Y-73653000D02*
G01*
X144049000Y-73653000D01*
X144049000Y-72651000D01*
X144851000Y-72651000D01*
X144851000Y-73653000D01*
X144851000Y-73653000D01*
G37*
G36*
X146451000Y-73653000D02*
G01*
X145649000Y-73653000D01*
X145649000Y-72651000D01*
X146451000Y-72651000D01*
X146451000Y-73653000D01*
X146451000Y-73653000D01*
G37*
G36*
X160960988Y-66747973D02*
G01*
X161401850Y-66930584D01*
X161548084Y-66991156D01*
X162076455Y-67344202D01*
X162525798Y-67793545D01*
X162878844Y-68321916D01*
X162878845Y-68321918D01*
X163122027Y-68909012D01*
X163246000Y-69532265D01*
X163246000Y-70167735D01*
X163122027Y-70790988D01*
X162878845Y-71378082D01*
X162878844Y-71378084D01*
X162525798Y-71906455D01*
X162076455Y-72355798D01*
X161548084Y-72708844D01*
X161548083Y-72708845D01*
X161548082Y-72708845D01*
X160960988Y-72952027D01*
X160337735Y-73076000D01*
X159702265Y-73076000D01*
X159079012Y-72952027D01*
X158491918Y-72708845D01*
X158491917Y-72708845D01*
X158491916Y-72708844D01*
X157963545Y-72355798D01*
X157514202Y-71906455D01*
X157161156Y-71378084D01*
X157161155Y-71378082D01*
X156917973Y-70790988D01*
X156794000Y-70167735D01*
X156794000Y-69532265D01*
X156917973Y-68909012D01*
X157161155Y-68321918D01*
X157161156Y-68321916D01*
X157514202Y-67793545D01*
X157963545Y-67344202D01*
X158491916Y-66991156D01*
X158638150Y-66930584D01*
X159079012Y-66747973D01*
X159702265Y-66624000D01*
X160337735Y-66624000D01*
X160960988Y-66747973D01*
X160960988Y-66747973D01*
G37*
G36*
X135560988Y-66747973D02*
G01*
X136001850Y-66930584D01*
X136148084Y-66991156D01*
X136676455Y-67344202D01*
X137125798Y-67793545D01*
X137478844Y-68321916D01*
X137478845Y-68321918D01*
X137722027Y-68909012D01*
X137846000Y-69532265D01*
X137846000Y-70167735D01*
X137722027Y-70790988D01*
X137478845Y-71378082D01*
X137478844Y-71378084D01*
X137125798Y-71906455D01*
X136676455Y-72355798D01*
X136148084Y-72708844D01*
X136148083Y-72708845D01*
X136148082Y-72708845D01*
X135560988Y-72952027D01*
X134937735Y-73076000D01*
X134302265Y-73076000D01*
X133679012Y-72952027D01*
X133091918Y-72708845D01*
X133091917Y-72708845D01*
X133091916Y-72708844D01*
X132563545Y-72355798D01*
X132114202Y-71906455D01*
X131761156Y-71378084D01*
X131761155Y-71378082D01*
X131517973Y-70790988D01*
X131394000Y-70167735D01*
X131394000Y-69532265D01*
X131517973Y-68909012D01*
X131761155Y-68321918D01*
X131761156Y-68321916D01*
X132114202Y-67793545D01*
X132563545Y-67344202D01*
X133091916Y-66991156D01*
X133238150Y-66930584D01*
X133679012Y-66747973D01*
X134302265Y-66624000D01*
X134937735Y-66624000D01*
X135560988Y-66747973D01*
X135560988Y-66747973D01*
G37*
G36*
X168707000Y-72822000D02*
G01*
X164795000Y-72822000D01*
X164795000Y-71196000D01*
X168707000Y-71196000D01*
X168707000Y-72822000D01*
X168707000Y-72822000D01*
G37*
G36*
X139566000Y-71089000D02*
G01*
X138564000Y-71089000D01*
X138564000Y-70287000D01*
X139566000Y-70287000D01*
X139566000Y-71089000D01*
X139566000Y-71089000D01*
G37*
G36*
X141838642Y-69079781D02*
G01*
X141984414Y-69140162D01*
X141984416Y-69140163D01*
X142115608Y-69227822D01*
X142227178Y-69339392D01*
X142314837Y-69470584D01*
X142314838Y-69470586D01*
X142375219Y-69616358D01*
X142406000Y-69771107D01*
X142406000Y-69928893D01*
X142375219Y-70083642D01*
X142340387Y-70167733D01*
X142314837Y-70229416D01*
X142227178Y-70360608D01*
X142115608Y-70472178D01*
X141984416Y-70559837D01*
X141984415Y-70559838D01*
X141984414Y-70559838D01*
X141838642Y-70620219D01*
X141683893Y-70651000D01*
X141526107Y-70651000D01*
X141371358Y-70620219D01*
X141225586Y-70559838D01*
X141225585Y-70559838D01*
X141225584Y-70559837D01*
X141094392Y-70472178D01*
X140982822Y-70360608D01*
X140895163Y-70229416D01*
X140869613Y-70167733D01*
X140834781Y-70083642D01*
X140804000Y-69928893D01*
X140804000Y-69771107D01*
X140834781Y-69616358D01*
X140895162Y-69470586D01*
X140895163Y-69470584D01*
X140982822Y-69339392D01*
X141094392Y-69227822D01*
X141225584Y-69140163D01*
X141225586Y-69140162D01*
X141371358Y-69079781D01*
X141526107Y-69049000D01*
X141683893Y-69049000D01*
X141838642Y-69079781D01*
X141838642Y-69079781D01*
G37*
G36*
X151998642Y-69079781D02*
G01*
X152144414Y-69140162D01*
X152144416Y-69140163D01*
X152275608Y-69227822D01*
X152387178Y-69339392D01*
X152474837Y-69470584D01*
X152474838Y-69470586D01*
X152535219Y-69616358D01*
X152566000Y-69771107D01*
X152566000Y-69928893D01*
X152535219Y-70083642D01*
X152500387Y-70167733D01*
X152474837Y-70229416D01*
X152387178Y-70360608D01*
X152275608Y-70472178D01*
X152144416Y-70559837D01*
X152144415Y-70559838D01*
X152144414Y-70559838D01*
X151998642Y-70620219D01*
X151843893Y-70651000D01*
X151686107Y-70651000D01*
X151531358Y-70620219D01*
X151385586Y-70559838D01*
X151385585Y-70559838D01*
X151385584Y-70559837D01*
X151254392Y-70472178D01*
X151142822Y-70360608D01*
X151055163Y-70229416D01*
X151029613Y-70167733D01*
X150994781Y-70083642D01*
X150964000Y-69928893D01*
X150964000Y-69771107D01*
X150994781Y-69616358D01*
X151055162Y-69470586D01*
X151055163Y-69470584D01*
X151142822Y-69339392D01*
X151254392Y-69227822D01*
X151385584Y-69140163D01*
X151385586Y-69140162D01*
X151531358Y-69079781D01*
X151686107Y-69049000D01*
X151843893Y-69049000D01*
X151998642Y-69079781D01*
X151998642Y-69079781D01*
G37*
G36*
X154538642Y-69079781D02*
G01*
X154684414Y-69140162D01*
X154684416Y-69140163D01*
X154815608Y-69227822D01*
X154927178Y-69339392D01*
X155014837Y-69470584D01*
X155014838Y-69470586D01*
X155075219Y-69616358D01*
X155106000Y-69771107D01*
X155106000Y-69928893D01*
X155075219Y-70083642D01*
X155040387Y-70167733D01*
X155014837Y-70229416D01*
X154927178Y-70360608D01*
X154815608Y-70472178D01*
X154684416Y-70559837D01*
X154684415Y-70559838D01*
X154684414Y-70559838D01*
X154538642Y-70620219D01*
X154383893Y-70651000D01*
X154226107Y-70651000D01*
X154071358Y-70620219D01*
X153925586Y-70559838D01*
X153925585Y-70559838D01*
X153925584Y-70559837D01*
X153794392Y-70472178D01*
X153682822Y-70360608D01*
X153595163Y-70229416D01*
X153569613Y-70167733D01*
X153534781Y-70083642D01*
X153504000Y-69928893D01*
X153504000Y-69771107D01*
X153534781Y-69616358D01*
X153595162Y-69470586D01*
X153595163Y-69470584D01*
X153682822Y-69339392D01*
X153794392Y-69227822D01*
X153925584Y-69140163D01*
X153925586Y-69140162D01*
X154071358Y-69079781D01*
X154226107Y-69049000D01*
X154383893Y-69049000D01*
X154538642Y-69079781D01*
X154538642Y-69079781D01*
G37*
G36*
X149458642Y-69079781D02*
G01*
X149604414Y-69140162D01*
X149604416Y-69140163D01*
X149735608Y-69227822D01*
X149847178Y-69339392D01*
X149934837Y-69470584D01*
X149934838Y-69470586D01*
X149995219Y-69616358D01*
X150026000Y-69771107D01*
X150026000Y-69928893D01*
X149995219Y-70083642D01*
X149960387Y-70167733D01*
X149934837Y-70229416D01*
X149847178Y-70360608D01*
X149735608Y-70472178D01*
X149604416Y-70559837D01*
X149604415Y-70559838D01*
X149604414Y-70559838D01*
X149458642Y-70620219D01*
X149303893Y-70651000D01*
X149146107Y-70651000D01*
X148991358Y-70620219D01*
X148845586Y-70559838D01*
X148845585Y-70559838D01*
X148845584Y-70559837D01*
X148714392Y-70472178D01*
X148602822Y-70360608D01*
X148515163Y-70229416D01*
X148489613Y-70167733D01*
X148454781Y-70083642D01*
X148424000Y-69928893D01*
X148424000Y-69771107D01*
X148454781Y-69616358D01*
X148515162Y-69470586D01*
X148515163Y-69470584D01*
X148602822Y-69339392D01*
X148714392Y-69227822D01*
X148845584Y-69140163D01*
X148845586Y-69140162D01*
X148991358Y-69079781D01*
X149146107Y-69049000D01*
X149303893Y-69049000D01*
X149458642Y-69079781D01*
X149458642Y-69079781D01*
G37*
G36*
X146918642Y-69079781D02*
G01*
X147064414Y-69140162D01*
X147064416Y-69140163D01*
X147195608Y-69227822D01*
X147307178Y-69339392D01*
X147394837Y-69470584D01*
X147394838Y-69470586D01*
X147455219Y-69616358D01*
X147486000Y-69771107D01*
X147486000Y-69928893D01*
X147455219Y-70083642D01*
X147420387Y-70167733D01*
X147394837Y-70229416D01*
X147307178Y-70360608D01*
X147195608Y-70472178D01*
X147064416Y-70559837D01*
X147064415Y-70559838D01*
X147064414Y-70559838D01*
X146918642Y-70620219D01*
X146763893Y-70651000D01*
X146606107Y-70651000D01*
X146451358Y-70620219D01*
X146305586Y-70559838D01*
X146305585Y-70559838D01*
X146305584Y-70559837D01*
X146174392Y-70472178D01*
X146062822Y-70360608D01*
X145975163Y-70229416D01*
X145949613Y-70167733D01*
X145914781Y-70083642D01*
X145884000Y-69928893D01*
X145884000Y-69771107D01*
X145914781Y-69616358D01*
X145975162Y-69470586D01*
X145975163Y-69470584D01*
X146062822Y-69339392D01*
X146174392Y-69227822D01*
X146305584Y-69140163D01*
X146305586Y-69140162D01*
X146451358Y-69079781D01*
X146606107Y-69049000D01*
X146763893Y-69049000D01*
X146918642Y-69079781D01*
X146918642Y-69079781D01*
G37*
G36*
X144378642Y-69079781D02*
G01*
X144524414Y-69140162D01*
X144524416Y-69140163D01*
X144655608Y-69227822D01*
X144767178Y-69339392D01*
X144854837Y-69470584D01*
X144854838Y-69470586D01*
X144915219Y-69616358D01*
X144946000Y-69771107D01*
X144946000Y-69928893D01*
X144915219Y-70083642D01*
X144880387Y-70167733D01*
X144854837Y-70229416D01*
X144767178Y-70360608D01*
X144655608Y-70472178D01*
X144524416Y-70559837D01*
X144524415Y-70559838D01*
X144524414Y-70559838D01*
X144378642Y-70620219D01*
X144223893Y-70651000D01*
X144066107Y-70651000D01*
X143911358Y-70620219D01*
X143765586Y-70559838D01*
X143765585Y-70559838D01*
X143765584Y-70559837D01*
X143634392Y-70472178D01*
X143522822Y-70360608D01*
X143435163Y-70229416D01*
X143409613Y-70167733D01*
X143374781Y-70083642D01*
X143344000Y-69928893D01*
X143344000Y-69771107D01*
X143374781Y-69616358D01*
X143435162Y-69470586D01*
X143435163Y-69470584D01*
X143522822Y-69339392D01*
X143634392Y-69227822D01*
X143765584Y-69140163D01*
X143765586Y-69140162D01*
X143911358Y-69079781D01*
X144066107Y-69049000D01*
X144223893Y-69049000D01*
X144378642Y-69079781D01*
X144378642Y-69079781D01*
G37*
G36*
X168707000Y-70028000D02*
G01*
X164795000Y-70028000D01*
X164795000Y-68402000D01*
X168707000Y-68402000D01*
X168707000Y-70028000D01*
X168707000Y-70028000D01*
G37*
G36*
X139566000Y-69489000D02*
G01*
X138564000Y-69489000D01*
X138564000Y-68687000D01*
X139566000Y-68687000D01*
X139566000Y-69489000D01*
X139566000Y-69489000D01*
G37*
G36*
X139566000Y-68207000D02*
G01*
X138564000Y-68207000D01*
X138564000Y-67405000D01*
X139566000Y-67405000D01*
X139566000Y-68207000D01*
X139566000Y-68207000D01*
G37*
G36*
X141838642Y-66539781D02*
G01*
X141984414Y-66600162D01*
X141984416Y-66600163D01*
X142115608Y-66687822D01*
X142227178Y-66799392D01*
X142314837Y-66930584D01*
X142314838Y-66930586D01*
X142375219Y-67076358D01*
X142406000Y-67231107D01*
X142406000Y-67388893D01*
X142375219Y-67543642D01*
X142314838Y-67689414D01*
X142314837Y-67689416D01*
X142227178Y-67820608D01*
X142115608Y-67932178D01*
X141984416Y-68019837D01*
X141984415Y-68019838D01*
X141984414Y-68019838D01*
X141838642Y-68080219D01*
X141683893Y-68111000D01*
X141526107Y-68111000D01*
X141371358Y-68080219D01*
X141225586Y-68019838D01*
X141225585Y-68019838D01*
X141225584Y-68019837D01*
X141094392Y-67932178D01*
X140982822Y-67820608D01*
X140895163Y-67689416D01*
X140895162Y-67689414D01*
X140834781Y-67543642D01*
X140804000Y-67388893D01*
X140804000Y-67231107D01*
X140834781Y-67076358D01*
X140895162Y-66930586D01*
X140895163Y-66930584D01*
X140982822Y-66799392D01*
X141094392Y-66687822D01*
X141225584Y-66600163D01*
X141225586Y-66600162D01*
X141371358Y-66539781D01*
X141526107Y-66509000D01*
X141683893Y-66509000D01*
X141838642Y-66539781D01*
X141838642Y-66539781D01*
G37*
G36*
X144378642Y-66539781D02*
G01*
X144524414Y-66600162D01*
X144524416Y-66600163D01*
X144655608Y-66687822D01*
X144767178Y-66799392D01*
X144854837Y-66930584D01*
X144854838Y-66930586D01*
X144915219Y-67076358D01*
X144946000Y-67231107D01*
X144946000Y-67388893D01*
X144915219Y-67543642D01*
X144854838Y-67689414D01*
X144854837Y-67689416D01*
X144767178Y-67820608D01*
X144655608Y-67932178D01*
X144524416Y-68019837D01*
X144524415Y-68019838D01*
X144524414Y-68019838D01*
X144378642Y-68080219D01*
X144223893Y-68111000D01*
X144066107Y-68111000D01*
X143911358Y-68080219D01*
X143765586Y-68019838D01*
X143765585Y-68019838D01*
X143765584Y-68019837D01*
X143634392Y-67932178D01*
X143522822Y-67820608D01*
X143435163Y-67689416D01*
X143435162Y-67689414D01*
X143374781Y-67543642D01*
X143344000Y-67388893D01*
X143344000Y-67231107D01*
X143374781Y-67076358D01*
X143435162Y-66930586D01*
X143435163Y-66930584D01*
X143522822Y-66799392D01*
X143634392Y-66687822D01*
X143765584Y-66600163D01*
X143765586Y-66600162D01*
X143911358Y-66539781D01*
X144066107Y-66509000D01*
X144223893Y-66509000D01*
X144378642Y-66539781D01*
X144378642Y-66539781D01*
G37*
G36*
X146918642Y-66539781D02*
G01*
X147064414Y-66600162D01*
X147064416Y-66600163D01*
X147195608Y-66687822D01*
X147307178Y-66799392D01*
X147394837Y-66930584D01*
X147394838Y-66930586D01*
X147455219Y-67076358D01*
X147486000Y-67231107D01*
X147486000Y-67388893D01*
X147455219Y-67543642D01*
X147394838Y-67689414D01*
X147394837Y-67689416D01*
X147307178Y-67820608D01*
X147195608Y-67932178D01*
X147064416Y-68019837D01*
X147064415Y-68019838D01*
X147064414Y-68019838D01*
X146918642Y-68080219D01*
X146763893Y-68111000D01*
X146606107Y-68111000D01*
X146451358Y-68080219D01*
X146305586Y-68019838D01*
X146305585Y-68019838D01*
X146305584Y-68019837D01*
X146174392Y-67932178D01*
X146062822Y-67820608D01*
X145975163Y-67689416D01*
X145975162Y-67689414D01*
X145914781Y-67543642D01*
X145884000Y-67388893D01*
X145884000Y-67231107D01*
X145914781Y-67076358D01*
X145975162Y-66930586D01*
X145975163Y-66930584D01*
X146062822Y-66799392D01*
X146174392Y-66687822D01*
X146305584Y-66600163D01*
X146305586Y-66600162D01*
X146451358Y-66539781D01*
X146606107Y-66509000D01*
X146763893Y-66509000D01*
X146918642Y-66539781D01*
X146918642Y-66539781D01*
G37*
G36*
X149458642Y-66539781D02*
G01*
X149604414Y-66600162D01*
X149604416Y-66600163D01*
X149735608Y-66687822D01*
X149847178Y-66799392D01*
X149934837Y-66930584D01*
X149934838Y-66930586D01*
X149995219Y-67076358D01*
X150026000Y-67231107D01*
X150026000Y-67388893D01*
X149995219Y-67543642D01*
X149934838Y-67689414D01*
X149934837Y-67689416D01*
X149847178Y-67820608D01*
X149735608Y-67932178D01*
X149604416Y-68019837D01*
X149604415Y-68019838D01*
X149604414Y-68019838D01*
X149458642Y-68080219D01*
X149303893Y-68111000D01*
X149146107Y-68111000D01*
X148991358Y-68080219D01*
X148845586Y-68019838D01*
X148845585Y-68019838D01*
X148845584Y-68019837D01*
X148714392Y-67932178D01*
X148602822Y-67820608D01*
X148515163Y-67689416D01*
X148515162Y-67689414D01*
X148454781Y-67543642D01*
X148424000Y-67388893D01*
X148424000Y-67231107D01*
X148454781Y-67076358D01*
X148515162Y-66930586D01*
X148515163Y-66930584D01*
X148602822Y-66799392D01*
X148714392Y-66687822D01*
X148845584Y-66600163D01*
X148845586Y-66600162D01*
X148991358Y-66539781D01*
X149146107Y-66509000D01*
X149303893Y-66509000D01*
X149458642Y-66539781D01*
X149458642Y-66539781D01*
G37*
G36*
X154538642Y-66539781D02*
G01*
X154684414Y-66600162D01*
X154684416Y-66600163D01*
X154815608Y-66687822D01*
X154927178Y-66799392D01*
X155014837Y-66930584D01*
X155014838Y-66930586D01*
X155075219Y-67076358D01*
X155106000Y-67231107D01*
X155106000Y-67388893D01*
X155075219Y-67543642D01*
X155014838Y-67689414D01*
X155014837Y-67689416D01*
X154927178Y-67820608D01*
X154815608Y-67932178D01*
X154684416Y-68019837D01*
X154684415Y-68019838D01*
X154684414Y-68019838D01*
X154538642Y-68080219D01*
X154383893Y-68111000D01*
X154226107Y-68111000D01*
X154071358Y-68080219D01*
X153925586Y-68019838D01*
X153925585Y-68019838D01*
X153925584Y-68019837D01*
X153794392Y-67932178D01*
X153682822Y-67820608D01*
X153595163Y-67689416D01*
X153595162Y-67689414D01*
X153534781Y-67543642D01*
X153504000Y-67388893D01*
X153504000Y-67231107D01*
X153534781Y-67076358D01*
X153595162Y-66930586D01*
X153595163Y-66930584D01*
X153682822Y-66799392D01*
X153794392Y-66687822D01*
X153925584Y-66600163D01*
X153925586Y-66600162D01*
X154071358Y-66539781D01*
X154226107Y-66509000D01*
X154383893Y-66509000D01*
X154538642Y-66539781D01*
X154538642Y-66539781D01*
G37*
G36*
X151998642Y-66539781D02*
G01*
X152144414Y-66600162D01*
X152144416Y-66600163D01*
X152275608Y-66687822D01*
X152387178Y-66799392D01*
X152474837Y-66930584D01*
X152474838Y-66930586D01*
X152535219Y-67076358D01*
X152566000Y-67231107D01*
X152566000Y-67388893D01*
X152535219Y-67543642D01*
X152474838Y-67689414D01*
X152474837Y-67689416D01*
X152387178Y-67820608D01*
X152275608Y-67932178D01*
X152144416Y-68019837D01*
X152144415Y-68019838D01*
X152144414Y-68019838D01*
X151998642Y-68080219D01*
X151843893Y-68111000D01*
X151686107Y-68111000D01*
X151531358Y-68080219D01*
X151385586Y-68019838D01*
X151385585Y-68019838D01*
X151385584Y-68019837D01*
X151254392Y-67932178D01*
X151142822Y-67820608D01*
X151055163Y-67689416D01*
X151055162Y-67689414D01*
X150994781Y-67543642D01*
X150964000Y-67388893D01*
X150964000Y-67231107D01*
X150994781Y-67076358D01*
X151055162Y-66930586D01*
X151055163Y-66930584D01*
X151142822Y-66799392D01*
X151254392Y-66687822D01*
X151385584Y-66600163D01*
X151385586Y-66600162D01*
X151531358Y-66539781D01*
X151686107Y-66509000D01*
X151843893Y-66509000D01*
X151998642Y-66539781D01*
X151998642Y-66539781D01*
G37*
G36*
X139566000Y-66707000D02*
G01*
X138564000Y-66707000D01*
X138564000Y-65905000D01*
X139566000Y-65905000D01*
X139566000Y-66707000D01*
X139566000Y-66707000D01*
G37*
M02*
