G04 #@! TF.GenerationSoftware,KiCad,Pcbnew,(5.1.0-9-gc61ec8ee3)*
G04 #@! TF.CreationDate,2019-03-28T20:20:23-04:00*
G04 #@! TF.ProjectId,MPG_PSoC,4d50475f-5053-46f4-932e-6b696361645f,rev?*
G04 #@! TF.SameCoordinates,Original*
G04 #@! TF.FileFunction,Copper,L2,Bot*
G04 #@! TF.FilePolarity,Positive*
%FSLAX46Y46*%
G04 Gerber Fmt 4.6, Leading zero omitted, Abs format (unit mm)*
G04 Created by KiCad (PCBNEW (5.1.0-9-gc61ec8ee3)) date 2019-03-28 20:20:23*
%MOMM*%
%LPD*%
G04 APERTURE LIST*
%ADD10C,6.350000*%
%ADD11R,0.900000X0.700000*%
%ADD12R,0.700000X0.900000*%
%ADD13R,1.600000X1.600000*%
%ADD14C,1.600000*%
%ADD15C,0.899160*%
%ADD16R,3.810000X1.524000*%
%ADD17C,1.500000*%
%ADD18C,0.762000*%
%ADD19C,0.635000*%
%ADD20C,0.889000*%
%ADD21C,0.203200*%
%ADD22C,0.304800*%
%ADD23C,0.254000*%
G04 APERTURE END LIST*
D10*
X160020000Y-101600000D03*
X160020000Y-69850000D03*
X135255000Y-101600000D03*
X134620000Y-69850000D03*
D11*
X156591000Y-81903000D03*
X156591000Y-80403000D03*
D12*
X151106000Y-74803000D03*
X149606000Y-74803000D03*
D11*
X156591000Y-79121000D03*
X156591000Y-77621000D03*
X148463000Y-80415000D03*
X148463000Y-81915000D03*
D12*
X152920000Y-74803000D03*
X154420000Y-74803000D03*
X154154000Y-82931000D03*
X152654000Y-82931000D03*
D13*
X133096000Y-94869000D03*
D14*
X135636000Y-94869000D03*
X133096000Y-92329000D03*
X135636000Y-92329000D03*
X133096000Y-89789000D03*
X135636000Y-89789000D03*
X133096000Y-87249000D03*
X135636000Y-87249000D03*
X133096000Y-84709000D03*
X135636000Y-84709000D03*
D15*
X148297900Y-100863400D03*
X152694640Y-100863400D03*
D16*
X166751000Y-98552000D03*
X166751000Y-95758000D03*
X166751000Y-92964000D03*
X166751000Y-90170000D03*
X166751000Y-87376000D03*
X166751000Y-84582000D03*
X166751000Y-81788000D03*
X166751000Y-78994000D03*
X166751000Y-76200000D03*
X166751000Y-73406000D03*
X166751000Y-70612000D03*
X166751000Y-101346000D03*
D17*
X144145000Y-69850000D03*
X144145000Y-67310000D03*
X146685000Y-69850000D03*
X146685000Y-67310000D03*
X149225000Y-69850000D03*
X149225000Y-67310000D03*
X151765000Y-69850000D03*
X151765000Y-67310000D03*
X154305000Y-69850000D03*
X154305000Y-67310000D03*
D12*
X129756000Y-79756000D03*
X131356000Y-79756000D03*
X151245000Y-82931000D03*
X149745000Y-82931000D03*
D17*
X141605000Y-69850000D03*
X141605000Y-67310000D03*
X145542000Y-75057000D03*
X145542000Y-77597000D03*
X145542000Y-80137000D03*
D18*
X153543000Y-104648000D03*
X154305000Y-80772000D03*
X150368000Y-78359000D03*
X154305000Y-78232000D03*
X154305000Y-79502000D03*
X162306000Y-85471000D03*
X147320000Y-77216000D03*
X147320000Y-78486000D03*
X128651000Y-72390000D03*
X129921000Y-72390000D03*
X131191000Y-72390000D03*
X135255000Y-75057000D03*
X138557000Y-79883000D03*
X141986000Y-72771000D03*
X152781000Y-96266000D03*
X151384000Y-96266000D03*
X150368000Y-79502000D03*
X150749000Y-76454000D03*
X154305000Y-76708000D03*
X157861000Y-85598000D03*
X145034000Y-86360000D03*
X144017984Y-90804984D03*
X156337002Y-84201000D03*
X149606000Y-88392000D03*
X152527000Y-87376000D03*
X148971000Y-85598000D03*
X154432000Y-91059000D03*
X141732000Y-96901000D03*
X144272000Y-99441000D03*
X141605000Y-100076000D03*
X145415000Y-101981000D03*
X146939000Y-101981000D03*
X158115000Y-91059000D03*
X137922000Y-98171000D03*
X162687000Y-93599000D03*
X137922000Y-96520000D03*
X162687000Y-91059000D03*
X158115000Y-93599000D03*
X156972000Y-104394000D03*
X150368000Y-80899000D03*
X156464000Y-83312000D03*
X158369000Y-83947000D03*
X155067000Y-87376000D03*
X130175000Y-99441000D03*
X135001000Y-81153000D03*
X137795000Y-82804000D03*
X137795000Y-75057000D03*
X141605000Y-88900000D03*
X151638000Y-102108000D03*
X149352000Y-102108000D03*
X156845000Y-98806000D03*
X156083000Y-100330000D03*
X144272000Y-97663000D03*
X143764000Y-76327000D03*
X142875000Y-81788000D03*
X151853975Y-84173494D03*
X158115000Y-82677000D03*
X158115000Y-78359000D03*
X156210000Y-73533000D03*
X152527000Y-72771000D03*
X149354517Y-73520414D03*
X141732000Y-94869000D03*
X139827000Y-77597000D03*
X147447000Y-82677028D03*
X143256000Y-78359000D03*
X157861000Y-79502000D03*
X152908000Y-84582000D03*
X153416000Y-73278978D03*
X143891000Y-104775008D03*
X159905494Y-96443387D03*
X143246596Y-105559564D03*
X138684008Y-92583000D03*
X156845000Y-105537000D03*
X144018000Y-103124012D03*
X140462020Y-91694000D03*
X159948534Y-94970564D03*
X143256006Y-103886000D03*
X139065000Y-90297000D03*
X159004000Y-95630974D03*
X131191000Y-77851000D03*
X129921000Y-77851000D03*
X160528000Y-83439000D03*
X163830000Y-81788000D03*
X159893000Y-77527400D03*
X160909000Y-74803000D03*
X150749000Y-89535000D03*
X151767898Y-88516305D03*
X149987000Y-85217000D03*
X142240000Y-76835012D03*
X140335000Y-68961000D03*
X143637000Y-72263000D03*
D19*
X151257000Y-83576519D02*
X151853975Y-84173494D01*
X151245000Y-82931000D02*
X151257000Y-82931000D01*
X151257000Y-82931000D02*
X151257000Y-83576519D01*
X157365000Y-82677000D02*
X156591000Y-81903000D01*
X158115000Y-82677000D02*
X157365000Y-82677000D01*
X166751000Y-76200000D02*
X163957000Y-76200000D01*
X158495999Y-78739999D02*
X158115000Y-78359000D01*
X163957000Y-76200000D02*
X161417001Y-78739999D01*
D20*
X141732000Y-94869000D02*
X135636000Y-94869000D01*
D19*
X152527000Y-72771000D02*
X152908000Y-72390000D01*
X155067000Y-72390000D02*
X156210000Y-73533000D01*
X152908000Y-72390000D02*
X155067000Y-72390000D01*
X157353000Y-82677000D02*
X158115000Y-82677000D01*
X157353000Y-84582000D02*
X157353000Y-82677000D01*
X156337000Y-85598000D02*
X157353000Y-84582000D01*
X152627074Y-85598000D02*
X156337000Y-85598000D01*
X151853975Y-84173494D02*
X151853975Y-84824901D01*
X151853975Y-84824901D02*
X152627074Y-85598000D01*
X151853975Y-84173494D02*
X148943494Y-84173494D01*
X148463000Y-83693000D02*
X148463000Y-81915000D01*
X148943494Y-84173494D02*
X148463000Y-83693000D01*
X149606000Y-73771897D02*
X149354517Y-73520414D01*
X149606000Y-74803000D02*
X149606000Y-73771897D01*
X151777586Y-73520414D02*
X149354517Y-73520414D01*
X152527000Y-72771000D02*
X151777586Y-73520414D01*
X158115000Y-82677000D02*
X159258000Y-81534000D01*
X161417001Y-78739999D02*
X159512001Y-78739999D01*
X159258000Y-78994000D02*
X159512001Y-78739999D01*
X159258000Y-81534000D02*
X159258000Y-78994000D01*
X159512001Y-78739999D02*
X158495999Y-78739999D01*
X158115000Y-77820185D02*
X158115000Y-78359000D01*
X158115000Y-76708000D02*
X158115000Y-77820185D01*
X156210000Y-73533000D02*
X156210000Y-74803000D01*
X156210000Y-74803000D02*
X158115000Y-76708000D01*
D20*
X139827000Y-77597000D02*
X139827000Y-72898000D01*
X141605000Y-71120000D02*
X141605000Y-69850000D01*
X139827000Y-72898000D02*
X141605000Y-71120000D01*
D19*
X147827999Y-82296029D02*
X147447000Y-82677028D01*
X148209028Y-81915000D02*
X147827999Y-82296029D01*
X148463000Y-81915000D02*
X148209028Y-81915000D01*
X147447000Y-82677028D02*
X146050028Y-82677028D01*
X143256000Y-78897815D02*
X143256000Y-78359000D01*
X143256000Y-79883000D02*
X143256000Y-78897815D01*
X146050028Y-82677028D02*
X143256000Y-79883000D01*
D21*
X157480001Y-79121001D02*
X157861000Y-79502000D01*
X156591000Y-79121000D02*
X157480001Y-79121001D01*
D19*
X152920000Y-73774978D02*
X153416000Y-73278978D01*
X152920000Y-74803000D02*
X152920000Y-73774978D01*
X152908000Y-83185000D02*
X152908000Y-84582000D01*
X152654000Y-82931000D02*
X152908000Y-83185000D01*
X152920000Y-75888000D02*
X152920000Y-74803000D01*
X152920000Y-77204000D02*
X152920000Y-75888000D01*
X152654000Y-82931000D02*
X152654000Y-77470000D01*
X152654000Y-77470000D02*
X152920000Y-77204000D01*
D21*
X155321000Y-101600000D02*
X155321000Y-98933000D01*
X143891000Y-104775008D02*
X152145992Y-104775008D01*
X152145992Y-104775008D02*
X155321000Y-101600000D01*
X155321000Y-98933000D02*
X157810613Y-96443387D01*
X159366679Y-96443387D02*
X159905494Y-96443387D01*
X157810613Y-96443387D02*
X159366679Y-96443387D01*
X138430008Y-92329000D02*
X138684008Y-92583000D01*
X135636000Y-92329000D02*
X138430008Y-92329000D01*
X143246596Y-105559564D02*
X156822436Y-105559564D01*
X156822436Y-105559564D02*
X156845000Y-105537000D01*
X134366001Y-91059001D02*
X139827021Y-91059001D01*
X139827021Y-91059001D02*
X140081021Y-91313001D01*
X140081021Y-91313001D02*
X140462020Y-91694000D01*
X133096000Y-89789000D02*
X134366001Y-91059001D01*
X154558978Y-98617362D02*
X158205776Y-94970564D01*
X152526988Y-103124012D02*
X154558978Y-101092022D01*
X154558978Y-101092022D02*
X154558978Y-98617362D01*
X158205776Y-94970564D02*
X159409719Y-94970564D01*
X159409719Y-94970564D02*
X159948534Y-94970564D01*
X144018000Y-103124012D02*
X152526988Y-103124012D01*
X136144000Y-90297000D02*
X135636000Y-89789000D01*
X139065000Y-90297000D02*
X136144000Y-90297000D01*
X158465185Y-95630974D02*
X159004000Y-95630974D01*
X158084196Y-95630974D02*
X158465185Y-95630974D01*
X154939989Y-98775181D02*
X158084196Y-95630974D01*
X154939989Y-101346011D02*
X154939989Y-98775181D01*
X143256006Y-103886000D02*
X152400000Y-103886000D01*
X152400000Y-103886000D02*
X154939989Y-101346011D01*
D22*
X131191000Y-79591000D02*
X131191000Y-77851000D01*
X131356000Y-79756000D02*
X131191000Y-79591000D01*
X129921000Y-79591000D02*
X129921000Y-77851000D01*
X129756000Y-79756000D02*
X129921000Y-79591000D01*
X160908999Y-83819999D02*
X160528000Y-83439000D01*
X161671000Y-84582000D02*
X160908999Y-83819999D01*
X166751000Y-84582000D02*
X161671000Y-84582000D01*
X163830000Y-81788000D02*
X166751000Y-81788000D01*
D21*
X160528001Y-75183999D02*
X160909000Y-74803000D01*
X159893000Y-75819000D02*
X160528001Y-75183999D01*
X159893000Y-77527400D02*
X159893000Y-75819000D01*
X150749203Y-89535000D02*
X150749000Y-89535000D01*
X151767898Y-88516305D02*
X150749203Y-89535000D01*
X142240000Y-77373827D02*
X142240000Y-76835012D01*
X142240000Y-79883000D02*
X142240000Y-77373827D01*
X147193001Y-84836001D02*
X142240000Y-79883000D01*
X149987000Y-85217000D02*
X149606001Y-84836001D01*
X149606001Y-84836001D02*
X147193001Y-84836001D01*
X142875000Y-69215000D02*
X142240001Y-68580001D01*
X142240001Y-68580001D02*
X140715999Y-68580001D01*
X140715999Y-68580001D02*
X140335000Y-68961000D01*
X142875000Y-71501000D02*
X142875000Y-69215000D01*
X143637000Y-72263000D02*
X142875000Y-71501000D01*
D23*
G36*
X168148000Y-69339543D02*
G01*
X164846000Y-69339543D01*
X164746415Y-69349351D01*
X164650657Y-69378399D01*
X164562405Y-69425571D01*
X164485052Y-69489052D01*
X164421571Y-69566405D01*
X164374399Y-69654657D01*
X164345351Y-69750415D01*
X164335543Y-69850000D01*
X164335543Y-71374000D01*
X164345351Y-71473585D01*
X164374399Y-71569343D01*
X164421571Y-71657595D01*
X164485052Y-71734948D01*
X164562405Y-71798429D01*
X164650657Y-71845601D01*
X164746415Y-71874649D01*
X164846000Y-71884457D01*
X168148000Y-71884457D01*
X168148000Y-72133543D01*
X164846000Y-72133543D01*
X164746415Y-72143351D01*
X164650657Y-72172399D01*
X164562405Y-72219571D01*
X164485052Y-72283052D01*
X164421571Y-72360405D01*
X164374399Y-72448657D01*
X164345351Y-72544415D01*
X164335543Y-72644000D01*
X164335543Y-74168000D01*
X164345351Y-74267585D01*
X164374399Y-74363343D01*
X164421571Y-74451595D01*
X164485052Y-74528948D01*
X164562405Y-74592429D01*
X164650657Y-74639601D01*
X164746415Y-74668649D01*
X164846000Y-74678457D01*
X168148000Y-74678457D01*
X168148000Y-74927543D01*
X164846000Y-74927543D01*
X164746415Y-74937351D01*
X164650657Y-74966399D01*
X164562405Y-75013571D01*
X164485052Y-75077052D01*
X164421571Y-75154405D01*
X164374399Y-75242657D01*
X164345351Y-75338415D01*
X164341797Y-75374500D01*
X163997550Y-75374500D01*
X163956999Y-75370506D01*
X163916449Y-75374500D01*
X163916447Y-75374500D01*
X163795174Y-75386444D01*
X163639566Y-75433647D01*
X163496157Y-75510301D01*
X163434596Y-75560823D01*
X163370459Y-75613459D01*
X163344606Y-75644961D01*
X161075069Y-77914499D01*
X160694904Y-77914499D01*
X160747836Y-77786712D01*
X160782000Y-77614959D01*
X160782000Y-77439841D01*
X160747836Y-77268088D01*
X160680821Y-77106301D01*
X160583531Y-76960696D01*
X160502600Y-76879765D01*
X160502600Y-76071503D01*
X160882104Y-75692000D01*
X160996559Y-75692000D01*
X161168312Y-75657836D01*
X161330099Y-75590821D01*
X161475704Y-75493531D01*
X161599531Y-75369704D01*
X161696821Y-75224099D01*
X161763836Y-75062312D01*
X161798000Y-74890559D01*
X161798000Y-74715441D01*
X161763836Y-74543688D01*
X161696821Y-74381901D01*
X161599531Y-74236296D01*
X161475704Y-74112469D01*
X161330099Y-74015179D01*
X161168312Y-73948164D01*
X160996559Y-73914000D01*
X160821441Y-73914000D01*
X160649688Y-73948164D01*
X160487901Y-74015179D01*
X160342296Y-74112469D01*
X160218469Y-74236296D01*
X160121179Y-74381901D01*
X160054164Y-74543688D01*
X160020000Y-74715441D01*
X160020000Y-74829896D01*
X159483127Y-75366770D01*
X159459863Y-75385862D01*
X159408587Y-75448343D01*
X159383685Y-75478686D01*
X159327080Y-75584588D01*
X159292221Y-75699498D01*
X159280451Y-75819000D01*
X159283401Y-75848951D01*
X159283400Y-76879765D01*
X159202469Y-76960696D01*
X159105179Y-77106301D01*
X159038164Y-77268088D01*
X159004000Y-77439841D01*
X159004000Y-77614959D01*
X159038164Y-77786712D01*
X159091096Y-77914499D01*
X158940500Y-77914499D01*
X158940500Y-76748550D01*
X158944494Y-76708000D01*
X158940500Y-76667447D01*
X158928556Y-76546174D01*
X158881353Y-76390566D01*
X158840962Y-76315000D01*
X158804699Y-76247157D01*
X158727392Y-76152958D01*
X158727389Y-76152955D01*
X158701541Y-76121459D01*
X158670046Y-76095612D01*
X157035500Y-74461068D01*
X157035500Y-73863135D01*
X157064836Y-73792312D01*
X157099000Y-73620559D01*
X157099000Y-73445441D01*
X157064836Y-73273688D01*
X156997821Y-73111901D01*
X156900531Y-72966296D01*
X156776704Y-72842469D01*
X156631099Y-72745179D01*
X156560275Y-72715843D01*
X155679398Y-71834966D01*
X155653541Y-71803459D01*
X155527842Y-71700301D01*
X155384434Y-71623647D01*
X155228826Y-71576444D01*
X155107553Y-71564500D01*
X155107550Y-71564500D01*
X155067000Y-71560506D01*
X155026450Y-71564500D01*
X152948542Y-71564500D01*
X152907999Y-71560507D01*
X152867456Y-71564500D01*
X152867447Y-71564500D01*
X152746174Y-71576444D01*
X152590566Y-71623647D01*
X152447158Y-71700301D01*
X152321459Y-71803459D01*
X152295602Y-71834966D01*
X152176726Y-71953842D01*
X152105901Y-71983179D01*
X151960296Y-72080469D01*
X151836469Y-72204296D01*
X151739179Y-72349901D01*
X151709843Y-72420725D01*
X151435654Y-72694914D01*
X149684652Y-72694914D01*
X149613829Y-72665578D01*
X149442076Y-72631414D01*
X149266958Y-72631414D01*
X149095205Y-72665578D01*
X148933418Y-72732593D01*
X148787813Y-72829883D01*
X148663986Y-72953710D01*
X148566696Y-73099315D01*
X148499681Y-73261102D01*
X148465517Y-73432855D01*
X148465517Y-73607973D01*
X148499681Y-73779726D01*
X148566696Y-73941513D01*
X148663986Y-74087118D01*
X148772791Y-74195923D01*
X148755351Y-74253415D01*
X148745543Y-74353000D01*
X148745543Y-75253000D01*
X148755351Y-75352585D01*
X148784399Y-75448343D01*
X148831571Y-75536595D01*
X148895052Y-75613948D01*
X148972405Y-75677429D01*
X149060657Y-75724601D01*
X149156415Y-75753649D01*
X149256000Y-75763457D01*
X149956000Y-75763457D01*
X150055585Y-75753649D01*
X150151343Y-75724601D01*
X150239595Y-75677429D01*
X150316948Y-75613948D01*
X150380429Y-75536595D01*
X150427601Y-75448343D01*
X150456649Y-75352585D01*
X150466457Y-75253000D01*
X150466457Y-74353000D01*
X150465759Y-74345914D01*
X151737036Y-74345914D01*
X151777586Y-74349908D01*
X151818136Y-74345914D01*
X151818139Y-74345914D01*
X151939412Y-74333970D01*
X152065175Y-74295820D01*
X152059543Y-74353000D01*
X152059543Y-75253000D01*
X152069351Y-75352585D01*
X152094500Y-75435491D01*
X152094500Y-75928552D01*
X152094501Y-75928562D01*
X152094500Y-76861268D01*
X152067460Y-76883459D01*
X152041609Y-76914959D01*
X151964301Y-77009158D01*
X151887647Y-77152567D01*
X151840445Y-77308174D01*
X151824506Y-77470000D01*
X151828501Y-77510560D01*
X151828500Y-82029795D01*
X151790343Y-82009399D01*
X151694585Y-81980351D01*
X151595000Y-81970543D01*
X150895000Y-81970543D01*
X150795415Y-81980351D01*
X150699657Y-82009399D01*
X150611405Y-82056571D01*
X150534052Y-82120052D01*
X150470571Y-82197405D01*
X150423399Y-82285657D01*
X150394351Y-82381415D01*
X150384543Y-82481000D01*
X150384543Y-83347994D01*
X149288500Y-83347994D01*
X149288500Y-82608216D01*
X149337429Y-82548595D01*
X149384601Y-82460343D01*
X149413649Y-82364585D01*
X149423457Y-82265000D01*
X149423457Y-81565000D01*
X149413649Y-81465415D01*
X149384601Y-81369657D01*
X149337429Y-81281405D01*
X149273948Y-81204052D01*
X149196595Y-81140571D01*
X149108343Y-81093399D01*
X149012585Y-81064351D01*
X148913000Y-81054543D01*
X148013000Y-81054543D01*
X147913415Y-81064351D01*
X147817657Y-81093399D01*
X147729405Y-81140571D01*
X147652052Y-81204052D01*
X147588571Y-81281405D01*
X147541399Y-81369657D01*
X147521569Y-81435027D01*
X147105068Y-81851528D01*
X146391961Y-81851528D01*
X145890715Y-81350282D01*
X145908945Y-81346656D01*
X146137886Y-81251825D01*
X146343928Y-81114152D01*
X146519152Y-80938928D01*
X146656825Y-80732886D01*
X146751656Y-80503945D01*
X146800000Y-80260902D01*
X146800000Y-80013098D01*
X146751656Y-79770055D01*
X146656825Y-79541114D01*
X146519152Y-79335072D01*
X146343928Y-79159848D01*
X146137886Y-79022175D01*
X145908945Y-78927344D01*
X145665902Y-78879000D01*
X145418098Y-78879000D01*
X145175055Y-78927344D01*
X144946114Y-79022175D01*
X144740072Y-79159848D01*
X144564848Y-79335072D01*
X144427175Y-79541114D01*
X144332344Y-79770055D01*
X144328718Y-79788286D01*
X144081500Y-79541068D01*
X144081500Y-78689135D01*
X144110836Y-78618312D01*
X144145000Y-78446559D01*
X144145000Y-78271441D01*
X144110836Y-78099688D01*
X144043821Y-77937901D01*
X143946531Y-77792296D01*
X143822704Y-77668469D01*
X143677099Y-77571179D01*
X143515312Y-77504164D01*
X143359134Y-77473098D01*
X144284000Y-77473098D01*
X144284000Y-77720902D01*
X144332344Y-77963945D01*
X144427175Y-78192886D01*
X144564848Y-78398928D01*
X144740072Y-78574152D01*
X144946114Y-78711825D01*
X145175055Y-78806656D01*
X145418098Y-78855000D01*
X145665902Y-78855000D01*
X145908945Y-78806656D01*
X146137886Y-78711825D01*
X146343928Y-78574152D01*
X146519152Y-78398928D01*
X146656825Y-78192886D01*
X146751656Y-77963945D01*
X146800000Y-77720902D01*
X146800000Y-77473098D01*
X146751656Y-77230055D01*
X146656825Y-77001114D01*
X146519152Y-76795072D01*
X146343928Y-76619848D01*
X146137886Y-76482175D01*
X145908945Y-76387344D01*
X145665902Y-76339000D01*
X145418098Y-76339000D01*
X145175055Y-76387344D01*
X144946114Y-76482175D01*
X144740072Y-76619848D01*
X144564848Y-76795072D01*
X144427175Y-77001114D01*
X144332344Y-77230055D01*
X144284000Y-77473098D01*
X143359134Y-77473098D01*
X143343559Y-77470000D01*
X143168441Y-77470000D01*
X142996688Y-77504164D01*
X142849600Y-77565090D01*
X142849600Y-77482647D01*
X142930531Y-77401716D01*
X143027821Y-77256111D01*
X143094836Y-77094324D01*
X143129000Y-76922571D01*
X143129000Y-76747453D01*
X143094836Y-76575700D01*
X143027821Y-76413913D01*
X142930531Y-76268308D01*
X142806704Y-76144481D01*
X142661099Y-76047191D01*
X142499312Y-75980176D01*
X142327559Y-75946012D01*
X142152441Y-75946012D01*
X141980688Y-75980176D01*
X141818901Y-76047191D01*
X141673296Y-76144481D01*
X141549469Y-76268308D01*
X141452179Y-76413913D01*
X141385164Y-76575700D01*
X141351000Y-76747453D01*
X141351000Y-76922571D01*
X141385164Y-77094324D01*
X141452179Y-77256111D01*
X141549469Y-77401716D01*
X141630401Y-77482648D01*
X141630400Y-79853058D01*
X141627451Y-79883000D01*
X141639221Y-80002502D01*
X141649090Y-80035035D01*
X141674079Y-80117411D01*
X141730684Y-80223313D01*
X141806862Y-80316138D01*
X141830132Y-80335235D01*
X146740770Y-85245874D01*
X146759863Y-85269139D01*
X146852687Y-85345317D01*
X146958589Y-85401922D01*
X147038640Y-85426206D01*
X147073498Y-85436780D01*
X147193000Y-85448550D01*
X147222942Y-85445601D01*
X149126055Y-85445601D01*
X149132164Y-85476312D01*
X149199179Y-85638099D01*
X149296469Y-85783704D01*
X149420296Y-85907531D01*
X149565901Y-86004821D01*
X149727688Y-86071836D01*
X149899441Y-86106000D01*
X150074559Y-86106000D01*
X150246312Y-86071836D01*
X150408099Y-86004821D01*
X150553704Y-85907531D01*
X150677531Y-85783704D01*
X150774821Y-85638099D01*
X150841836Y-85476312D01*
X150876000Y-85304559D01*
X150876000Y-85129441D01*
X150850052Y-84998994D01*
X151044140Y-84998994D01*
X151057442Y-85042842D01*
X151087622Y-85142334D01*
X151164276Y-85285743D01*
X151212087Y-85344000D01*
X151267435Y-85411442D01*
X151298936Y-85437294D01*
X152014680Y-86153039D01*
X152040533Y-86184541D01*
X152099593Y-86233010D01*
X152166231Y-86287699D01*
X152309640Y-86364353D01*
X152465248Y-86411556D01*
X152586521Y-86423500D01*
X152586523Y-86423500D01*
X152627073Y-86427494D01*
X152667624Y-86423500D01*
X156296450Y-86423500D01*
X156337000Y-86427494D01*
X156377550Y-86423500D01*
X156377553Y-86423500D01*
X156498826Y-86411556D01*
X156654434Y-86364353D01*
X156797842Y-86287699D01*
X156923541Y-86184541D01*
X156949398Y-86153034D01*
X157908040Y-85194393D01*
X157939541Y-85168541D01*
X158018843Y-85071911D01*
X158042699Y-85042843D01*
X158119353Y-84899434D01*
X158130094Y-84864025D01*
X158166556Y-84743826D01*
X158178500Y-84622553D01*
X158178500Y-84622551D01*
X158182494Y-84582000D01*
X158178500Y-84541450D01*
X158178500Y-83566000D01*
X158202559Y-83566000D01*
X158374312Y-83531836D01*
X158536099Y-83464821D01*
X158681704Y-83367531D01*
X158805531Y-83243704D01*
X158902821Y-83098099D01*
X158932158Y-83027274D01*
X159813040Y-82146392D01*
X159844541Y-82120541D01*
X159909041Y-82041947D01*
X159947699Y-81994843D01*
X160024353Y-81851434D01*
X160043595Y-81788000D01*
X160071556Y-81695826D01*
X160083500Y-81574553D01*
X160083500Y-81574551D01*
X160087494Y-81534001D01*
X160083500Y-81493450D01*
X160083500Y-79565499D01*
X161376451Y-79565499D01*
X161417001Y-79569493D01*
X161457551Y-79565499D01*
X161457554Y-79565499D01*
X161578827Y-79553555D01*
X161734435Y-79506352D01*
X161877843Y-79429698D01*
X162003542Y-79326540D01*
X162029399Y-79295033D01*
X164298933Y-77025500D01*
X164341797Y-77025500D01*
X164345351Y-77061585D01*
X164374399Y-77157343D01*
X164421571Y-77245595D01*
X164485052Y-77322948D01*
X164562405Y-77386429D01*
X164650657Y-77433601D01*
X164746415Y-77462649D01*
X164846000Y-77472457D01*
X168148000Y-77472457D01*
X168148000Y-77721543D01*
X164846000Y-77721543D01*
X164746415Y-77731351D01*
X164650657Y-77760399D01*
X164562405Y-77807571D01*
X164485052Y-77871052D01*
X164421571Y-77948405D01*
X164374399Y-78036657D01*
X164345351Y-78132415D01*
X164335543Y-78232000D01*
X164335543Y-79756000D01*
X164345351Y-79855585D01*
X164374399Y-79951343D01*
X164421571Y-80039595D01*
X164485052Y-80116948D01*
X164562405Y-80180429D01*
X164650657Y-80227601D01*
X164746415Y-80256649D01*
X164846000Y-80266457D01*
X168148000Y-80266457D01*
X168148000Y-80515543D01*
X164846000Y-80515543D01*
X164746415Y-80525351D01*
X164650657Y-80554399D01*
X164562405Y-80601571D01*
X164485052Y-80665052D01*
X164421571Y-80742405D01*
X164374399Y-80830657D01*
X164345351Y-80926415D01*
X164335543Y-81026000D01*
X164335543Y-81056603D01*
X164251099Y-81000179D01*
X164089312Y-80933164D01*
X163917559Y-80899000D01*
X163742441Y-80899000D01*
X163570688Y-80933164D01*
X163408901Y-81000179D01*
X163263296Y-81097469D01*
X163139469Y-81221296D01*
X163042179Y-81366901D01*
X162975164Y-81528688D01*
X162941000Y-81700441D01*
X162941000Y-81875559D01*
X162975164Y-82047312D01*
X163042179Y-82209099D01*
X163139469Y-82354704D01*
X163263296Y-82478531D01*
X163408901Y-82575821D01*
X163570688Y-82642836D01*
X163742441Y-82677000D01*
X163917559Y-82677000D01*
X164089312Y-82642836D01*
X164251099Y-82575821D01*
X164335543Y-82519397D01*
X164335543Y-82550000D01*
X164345351Y-82649585D01*
X164374399Y-82745343D01*
X164421571Y-82833595D01*
X164485052Y-82910948D01*
X164562405Y-82974429D01*
X164650657Y-83021601D01*
X164746415Y-83050649D01*
X164846000Y-83060457D01*
X168148000Y-83060457D01*
X168148000Y-83309543D01*
X164846000Y-83309543D01*
X164746415Y-83319351D01*
X164650657Y-83348399D01*
X164562405Y-83395571D01*
X164485052Y-83459052D01*
X164421571Y-83536405D01*
X164374399Y-83624657D01*
X164345351Y-83720415D01*
X164335543Y-83820000D01*
X164335543Y-83921600D01*
X161944547Y-83921600D01*
X161417000Y-83394054D01*
X161417000Y-83351441D01*
X161382836Y-83179688D01*
X161315821Y-83017901D01*
X161218531Y-82872296D01*
X161094704Y-82748469D01*
X160949099Y-82651179D01*
X160787312Y-82584164D01*
X160615559Y-82550000D01*
X160440441Y-82550000D01*
X160268688Y-82584164D01*
X160106901Y-82651179D01*
X159961296Y-82748469D01*
X159837469Y-82872296D01*
X159740179Y-83017901D01*
X159673164Y-83179688D01*
X159639000Y-83351441D01*
X159639000Y-83526559D01*
X159673164Y-83698312D01*
X159740179Y-83860099D01*
X159837469Y-84005704D01*
X159961296Y-84129531D01*
X160106901Y-84226821D01*
X160268688Y-84293836D01*
X160440441Y-84328000D01*
X160483054Y-84328000D01*
X161181086Y-85026033D01*
X161201767Y-85051233D01*
X161302326Y-85133759D01*
X161417053Y-85195082D01*
X161541539Y-85232844D01*
X161670999Y-85245595D01*
X161703438Y-85242400D01*
X164335543Y-85242400D01*
X164335543Y-85344000D01*
X164345351Y-85443585D01*
X164374399Y-85539343D01*
X164421571Y-85627595D01*
X164485052Y-85704948D01*
X164562405Y-85768429D01*
X164650657Y-85815601D01*
X164746415Y-85844649D01*
X164846000Y-85854457D01*
X168148000Y-85854457D01*
X168148000Y-105918000D01*
X157649431Y-105918000D01*
X157699836Y-105796312D01*
X157734000Y-105624559D01*
X157734000Y-105449441D01*
X157699836Y-105277688D01*
X157632821Y-105115901D01*
X157535531Y-104970296D01*
X157411704Y-104846469D01*
X157266099Y-104749179D01*
X157104312Y-104682164D01*
X156932559Y-104648000D01*
X156757441Y-104648000D01*
X156585688Y-104682164D01*
X156423901Y-104749179D01*
X156278296Y-104846469D01*
X156174801Y-104949964D01*
X152833139Y-104949964D01*
X155730880Y-102052225D01*
X155754138Y-102033138D01*
X155830316Y-101940314D01*
X155886921Y-101834412D01*
X155921779Y-101719502D01*
X155930600Y-101629941D01*
X155930600Y-101629940D01*
X155933549Y-101600001D01*
X155930600Y-101570062D01*
X155930600Y-101237256D01*
X156337000Y-101237256D01*
X156337000Y-101962744D01*
X156478536Y-102674291D01*
X156756168Y-103344554D01*
X157159227Y-103947775D01*
X157672225Y-104460773D01*
X158275446Y-104863832D01*
X158945709Y-105141464D01*
X159657256Y-105283000D01*
X160382744Y-105283000D01*
X161094291Y-105141464D01*
X161764554Y-104863832D01*
X162367775Y-104460773D01*
X162880773Y-103947775D01*
X163283832Y-103344554D01*
X163561464Y-102674291D01*
X163703000Y-101962744D01*
X163703000Y-101237256D01*
X163561464Y-100525709D01*
X163283832Y-99855446D01*
X162880773Y-99252225D01*
X162367775Y-98739227D01*
X161764554Y-98336168D01*
X161094291Y-98058536D01*
X160382744Y-97917000D01*
X159657256Y-97917000D01*
X158945709Y-98058536D01*
X158275446Y-98336168D01*
X157672225Y-98739227D01*
X157159227Y-99252225D01*
X156756168Y-99855446D01*
X156478536Y-100525709D01*
X156337000Y-101237256D01*
X155930600Y-101237256D01*
X155930600Y-99185503D01*
X158063118Y-97052987D01*
X159257859Y-97052987D01*
X159338790Y-97133918D01*
X159484395Y-97231208D01*
X159646182Y-97298223D01*
X159817935Y-97332387D01*
X159993053Y-97332387D01*
X160164806Y-97298223D01*
X160326593Y-97231208D01*
X160472198Y-97133918D01*
X160596025Y-97010091D01*
X160693315Y-96864486D01*
X160760330Y-96702699D01*
X160794494Y-96530946D01*
X160794494Y-96355828D01*
X160760330Y-96184075D01*
X160693315Y-96022288D01*
X160596025Y-95876683D01*
X160472198Y-95752856D01*
X160425053Y-95721355D01*
X160515238Y-95661095D01*
X160639065Y-95537268D01*
X160736355Y-95391663D01*
X160803370Y-95229876D01*
X160837534Y-95058123D01*
X160837534Y-94883005D01*
X160803370Y-94711252D01*
X160736355Y-94549465D01*
X160639065Y-94403860D01*
X160515238Y-94280033D01*
X160369633Y-94182743D01*
X160207846Y-94115728D01*
X160036093Y-94081564D01*
X159860975Y-94081564D01*
X159689222Y-94115728D01*
X159527435Y-94182743D01*
X159381830Y-94280033D01*
X159300899Y-94360964D01*
X158235714Y-94360964D01*
X158205775Y-94358015D01*
X158175836Y-94360964D01*
X158175835Y-94360964D01*
X158086274Y-94369785D01*
X157971364Y-94404643D01*
X157865462Y-94461248D01*
X157772638Y-94537426D01*
X157753545Y-94560691D01*
X154149105Y-98165132D01*
X154125841Y-98184224D01*
X154058841Y-98265865D01*
X154049663Y-98277048D01*
X153993058Y-98382950D01*
X153958199Y-98497860D01*
X153946429Y-98617362D01*
X153949379Y-98647313D01*
X153949378Y-100839518D01*
X153593669Y-101195227D01*
X153615420Y-101142716D01*
X153652220Y-100957713D01*
X153652220Y-100769087D01*
X153615420Y-100584084D01*
X153543236Y-100409816D01*
X153438441Y-100252979D01*
X153305061Y-100119599D01*
X153148224Y-100014804D01*
X152973956Y-99942620D01*
X152788953Y-99905820D01*
X152600327Y-99905820D01*
X152415324Y-99942620D01*
X152241056Y-100014804D01*
X152084219Y-100119599D01*
X151950839Y-100252979D01*
X151846044Y-100409816D01*
X151773860Y-100584084D01*
X151737060Y-100769087D01*
X151737060Y-100957713D01*
X151773860Y-101142716D01*
X151846044Y-101316984D01*
X151950839Y-101473821D01*
X152084219Y-101607201D01*
X152241056Y-101711996D01*
X152415324Y-101784180D01*
X152600327Y-101820980D01*
X152788953Y-101820980D01*
X152973956Y-101784180D01*
X153026467Y-101762429D01*
X152274485Y-102514412D01*
X144665635Y-102514412D01*
X144584704Y-102433481D01*
X144439099Y-102336191D01*
X144277312Y-102269176D01*
X144105559Y-102235012D01*
X143930441Y-102235012D01*
X143758688Y-102269176D01*
X143596901Y-102336191D01*
X143451296Y-102433481D01*
X143327469Y-102557308D01*
X143230179Y-102702913D01*
X143163164Y-102864700D01*
X143135546Y-103003544D01*
X142996694Y-103031164D01*
X142834907Y-103098179D01*
X142689302Y-103195469D01*
X142565475Y-103319296D01*
X142468185Y-103464901D01*
X142401170Y-103626688D01*
X142367006Y-103798441D01*
X142367006Y-103973559D01*
X142401170Y-104145312D01*
X142468185Y-104307099D01*
X142565475Y-104452704D01*
X142689302Y-104576531D01*
X142834907Y-104673821D01*
X142948403Y-104720833D01*
X142825497Y-104771743D01*
X142679892Y-104869033D01*
X142556065Y-104992860D01*
X142458775Y-105138465D01*
X142391760Y-105300252D01*
X142357596Y-105472005D01*
X142357596Y-105647123D01*
X142391760Y-105818876D01*
X142432819Y-105918000D01*
X127762000Y-105918000D01*
X127762000Y-101237256D01*
X131572000Y-101237256D01*
X131572000Y-101962744D01*
X131713536Y-102674291D01*
X131991168Y-103344554D01*
X132394227Y-103947775D01*
X132907225Y-104460773D01*
X133510446Y-104863832D01*
X134180709Y-105141464D01*
X134892256Y-105283000D01*
X135617744Y-105283000D01*
X136329291Y-105141464D01*
X136999554Y-104863832D01*
X137602775Y-104460773D01*
X138115773Y-103947775D01*
X138518832Y-103344554D01*
X138796464Y-102674291D01*
X138938000Y-101962744D01*
X138938000Y-101237256D01*
X138844876Y-100769087D01*
X147340320Y-100769087D01*
X147340320Y-100957713D01*
X147377120Y-101142716D01*
X147449304Y-101316984D01*
X147554099Y-101473821D01*
X147687479Y-101607201D01*
X147844316Y-101711996D01*
X148018584Y-101784180D01*
X148203587Y-101820980D01*
X148392213Y-101820980D01*
X148577216Y-101784180D01*
X148751484Y-101711996D01*
X148908321Y-101607201D01*
X149041701Y-101473821D01*
X149146496Y-101316984D01*
X149218680Y-101142716D01*
X149255480Y-100957713D01*
X149255480Y-100769087D01*
X149218680Y-100584084D01*
X149146496Y-100409816D01*
X149041701Y-100252979D01*
X148908321Y-100119599D01*
X148751484Y-100014804D01*
X148577216Y-99942620D01*
X148392213Y-99905820D01*
X148203587Y-99905820D01*
X148018584Y-99942620D01*
X147844316Y-100014804D01*
X147687479Y-100119599D01*
X147554099Y-100252979D01*
X147449304Y-100409816D01*
X147377120Y-100584084D01*
X147340320Y-100769087D01*
X138844876Y-100769087D01*
X138796464Y-100525709D01*
X138518832Y-99855446D01*
X138115773Y-99252225D01*
X137602775Y-98739227D01*
X136999554Y-98336168D01*
X136329291Y-98058536D01*
X135617744Y-97917000D01*
X134892256Y-97917000D01*
X134180709Y-98058536D01*
X133510446Y-98336168D01*
X132907225Y-98739227D01*
X132394227Y-99252225D01*
X131991168Y-99855446D01*
X131713536Y-100525709D01*
X131572000Y-101237256D01*
X127762000Y-101237256D01*
X127762000Y-84580173D01*
X131788000Y-84580173D01*
X131788000Y-84837827D01*
X131838266Y-85090530D01*
X131936865Y-85328570D01*
X132080010Y-85542801D01*
X132262199Y-85724990D01*
X132476430Y-85868135D01*
X132714470Y-85966734D01*
X132776135Y-85979000D01*
X132714470Y-85991266D01*
X132476430Y-86089865D01*
X132262199Y-86233010D01*
X132080010Y-86415199D01*
X131936865Y-86629430D01*
X131838266Y-86867470D01*
X131788000Y-87120173D01*
X131788000Y-87377827D01*
X131838266Y-87630530D01*
X131936865Y-87868570D01*
X132080010Y-88082801D01*
X132262199Y-88264990D01*
X132476430Y-88408135D01*
X132714470Y-88506734D01*
X132776135Y-88519000D01*
X132714470Y-88531266D01*
X132476430Y-88629865D01*
X132262199Y-88773010D01*
X132080010Y-88955199D01*
X131936865Y-89169430D01*
X131838266Y-89407470D01*
X131788000Y-89660173D01*
X131788000Y-89917827D01*
X131838266Y-90170530D01*
X131936865Y-90408570D01*
X132080010Y-90622801D01*
X132262199Y-90804990D01*
X132476430Y-90948135D01*
X132714470Y-91046734D01*
X132776135Y-91059000D01*
X132714470Y-91071266D01*
X132476430Y-91169865D01*
X132262199Y-91313010D01*
X132080010Y-91495199D01*
X131936865Y-91709430D01*
X131838266Y-91947470D01*
X131788000Y-92200173D01*
X131788000Y-92457827D01*
X131838266Y-92710530D01*
X131936865Y-92948570D01*
X132080010Y-93162801D01*
X132262199Y-93344990D01*
X132476430Y-93488135D01*
X132714470Y-93586734D01*
X132967173Y-93637000D01*
X133224827Y-93637000D01*
X133477530Y-93586734D01*
X133715570Y-93488135D01*
X133929801Y-93344990D01*
X134111990Y-93162801D01*
X134255135Y-92948570D01*
X134353734Y-92710530D01*
X134366000Y-92648865D01*
X134378266Y-92710530D01*
X134476865Y-92948570D01*
X134620010Y-93162801D01*
X134802199Y-93344990D01*
X135016430Y-93488135D01*
X135254470Y-93586734D01*
X135316135Y-93599000D01*
X135254470Y-93611266D01*
X135016430Y-93709865D01*
X134802199Y-93853010D01*
X134620010Y-94035199D01*
X134476865Y-94249430D01*
X134378266Y-94487470D01*
X134328000Y-94740173D01*
X134328000Y-94997827D01*
X134378266Y-95250530D01*
X134476865Y-95488570D01*
X134620010Y-95702801D01*
X134802199Y-95884990D01*
X135016430Y-96028135D01*
X135254470Y-96126734D01*
X135507173Y-96177000D01*
X135764827Y-96177000D01*
X136017530Y-96126734D01*
X136255570Y-96028135D01*
X136469801Y-95884990D01*
X136533291Y-95821500D01*
X141778785Y-95821500D01*
X141918723Y-95807717D01*
X142098269Y-95753252D01*
X142263741Y-95664806D01*
X142408778Y-95545778D01*
X142527806Y-95400741D01*
X142616252Y-95235269D01*
X142670717Y-95055723D01*
X142689108Y-94869000D01*
X142670717Y-94682277D01*
X142616252Y-94502731D01*
X142527806Y-94337259D01*
X142408778Y-94192222D01*
X142263741Y-94073194D01*
X142098269Y-93984748D01*
X141918723Y-93930283D01*
X141778785Y-93916500D01*
X136533291Y-93916500D01*
X136469801Y-93853010D01*
X136255570Y-93709865D01*
X136017530Y-93611266D01*
X135955865Y-93599000D01*
X136017530Y-93586734D01*
X136255570Y-93488135D01*
X136469801Y-93344990D01*
X136651990Y-93162801D01*
X136795135Y-92948570D01*
X136799265Y-92938600D01*
X137869056Y-92938600D01*
X137896187Y-93004099D01*
X137993477Y-93149704D01*
X138117304Y-93273531D01*
X138262909Y-93370821D01*
X138424696Y-93437836D01*
X138596449Y-93472000D01*
X138771567Y-93472000D01*
X138943320Y-93437836D01*
X139105107Y-93370821D01*
X139250712Y-93273531D01*
X139374539Y-93149704D01*
X139471829Y-93004099D01*
X139538844Y-92842312D01*
X139573008Y-92670559D01*
X139573008Y-92495441D01*
X139538844Y-92323688D01*
X139471829Y-92161901D01*
X139374539Y-92016296D01*
X139250712Y-91892469D01*
X139105107Y-91795179D01*
X138943320Y-91728164D01*
X138771567Y-91694000D01*
X138596449Y-91694000D01*
X138465839Y-91719980D01*
X138459949Y-91719400D01*
X138430008Y-91716451D01*
X138400067Y-91719400D01*
X136799265Y-91719400D01*
X136795135Y-91709430D01*
X136767854Y-91668601D01*
X139573020Y-91668601D01*
X139573020Y-91781559D01*
X139607184Y-91953312D01*
X139674199Y-92115099D01*
X139771489Y-92260704D01*
X139895316Y-92384531D01*
X140040921Y-92481821D01*
X140202708Y-92548836D01*
X140374461Y-92583000D01*
X140549579Y-92583000D01*
X140721332Y-92548836D01*
X140883119Y-92481821D01*
X141028724Y-92384531D01*
X141152551Y-92260704D01*
X141249841Y-92115099D01*
X141316856Y-91953312D01*
X141351020Y-91781559D01*
X141351020Y-91606441D01*
X141316856Y-91434688D01*
X141249841Y-91272901D01*
X141152551Y-91127296D01*
X141028724Y-91003469D01*
X140883119Y-90906179D01*
X140721332Y-90839164D01*
X140549579Y-90805000D01*
X140435123Y-90805000D01*
X140279256Y-90649133D01*
X140260159Y-90625863D01*
X140167335Y-90549685D01*
X140061433Y-90493080D01*
X139946523Y-90458222D01*
X139939485Y-90457529D01*
X139954000Y-90384559D01*
X139954000Y-90209441D01*
X139919836Y-90037688D01*
X139852821Y-89875901D01*
X139755531Y-89730296D01*
X139631704Y-89606469D01*
X139486099Y-89509179D01*
X139337052Y-89447441D01*
X149860000Y-89447441D01*
X149860000Y-89622559D01*
X149894164Y-89794312D01*
X149961179Y-89956099D01*
X150058469Y-90101704D01*
X150182296Y-90225531D01*
X150327901Y-90322821D01*
X150489688Y-90389836D01*
X150661441Y-90424000D01*
X150836559Y-90424000D01*
X151008312Y-90389836D01*
X151170099Y-90322821D01*
X151315704Y-90225531D01*
X151439531Y-90101704D01*
X151536821Y-89956099D01*
X151603836Y-89794312D01*
X151638000Y-89622559D01*
X151638000Y-89508307D01*
X151741002Y-89405305D01*
X151855457Y-89405305D01*
X152027210Y-89371141D01*
X152188997Y-89304126D01*
X152334602Y-89206836D01*
X152458429Y-89083009D01*
X152555719Y-88937404D01*
X152622734Y-88775617D01*
X152656898Y-88603864D01*
X152656898Y-88428746D01*
X152622734Y-88256993D01*
X152555719Y-88095206D01*
X152458429Y-87949601D01*
X152334602Y-87825774D01*
X152188997Y-87728484D01*
X152027210Y-87661469D01*
X151855457Y-87627305D01*
X151680339Y-87627305D01*
X151508586Y-87661469D01*
X151346799Y-87728484D01*
X151201194Y-87825774D01*
X151077367Y-87949601D01*
X150980077Y-88095206D01*
X150913062Y-88256993D01*
X150878898Y-88428746D01*
X150878898Y-88543201D01*
X150776099Y-88646000D01*
X150661441Y-88646000D01*
X150489688Y-88680164D01*
X150327901Y-88747179D01*
X150182296Y-88844469D01*
X150058469Y-88968296D01*
X149961179Y-89113901D01*
X149894164Y-89275688D01*
X149860000Y-89447441D01*
X139337052Y-89447441D01*
X139324312Y-89442164D01*
X139152559Y-89408000D01*
X138977441Y-89408000D01*
X138805688Y-89442164D01*
X138643901Y-89509179D01*
X138498296Y-89606469D01*
X138417365Y-89687400D01*
X136944000Y-89687400D01*
X136944000Y-89660173D01*
X136893734Y-89407470D01*
X136795135Y-89169430D01*
X136651990Y-88955199D01*
X136469801Y-88773010D01*
X136255570Y-88629865D01*
X136017530Y-88531266D01*
X135955865Y-88519000D01*
X136017530Y-88506734D01*
X136255570Y-88408135D01*
X136469801Y-88264990D01*
X136651990Y-88082801D01*
X136795135Y-87868570D01*
X136893734Y-87630530D01*
X136944000Y-87377827D01*
X136944000Y-87120173D01*
X136893734Y-86867470D01*
X136795135Y-86629430D01*
X136651990Y-86415199D01*
X136469801Y-86233010D01*
X136255570Y-86089865D01*
X136017530Y-85991266D01*
X135955865Y-85979000D01*
X136017530Y-85966734D01*
X136255570Y-85868135D01*
X136469801Y-85724990D01*
X136651990Y-85542801D01*
X136795135Y-85328570D01*
X136893734Y-85090530D01*
X136944000Y-84837827D01*
X136944000Y-84580173D01*
X136893734Y-84327470D01*
X136795135Y-84089430D01*
X136651990Y-83875199D01*
X136469801Y-83693010D01*
X136255570Y-83549865D01*
X136017530Y-83451266D01*
X135764827Y-83401000D01*
X135507173Y-83401000D01*
X135254470Y-83451266D01*
X135016430Y-83549865D01*
X134802199Y-83693010D01*
X134620010Y-83875199D01*
X134476865Y-84089430D01*
X134378266Y-84327470D01*
X134366000Y-84389135D01*
X134353734Y-84327470D01*
X134255135Y-84089430D01*
X134111990Y-83875199D01*
X133929801Y-83693010D01*
X133715570Y-83549865D01*
X133477530Y-83451266D01*
X133224827Y-83401000D01*
X132967173Y-83401000D01*
X132714470Y-83451266D01*
X132476430Y-83549865D01*
X132262199Y-83693010D01*
X132080010Y-83875199D01*
X131936865Y-84089430D01*
X131838266Y-84327470D01*
X131788000Y-84580173D01*
X127762000Y-84580173D01*
X127762000Y-79306000D01*
X128895543Y-79306000D01*
X128895543Y-80206000D01*
X128905351Y-80305585D01*
X128934399Y-80401343D01*
X128981571Y-80489595D01*
X129045052Y-80566948D01*
X129122405Y-80630429D01*
X129210657Y-80677601D01*
X129306415Y-80706649D01*
X129406000Y-80716457D01*
X130106000Y-80716457D01*
X130205585Y-80706649D01*
X130301343Y-80677601D01*
X130389595Y-80630429D01*
X130466948Y-80566948D01*
X130530429Y-80489595D01*
X130556000Y-80441755D01*
X130581571Y-80489595D01*
X130645052Y-80566948D01*
X130722405Y-80630429D01*
X130810657Y-80677601D01*
X130906415Y-80706649D01*
X131006000Y-80716457D01*
X131706000Y-80716457D01*
X131805585Y-80706649D01*
X131901343Y-80677601D01*
X131989595Y-80630429D01*
X132066948Y-80566948D01*
X132130429Y-80489595D01*
X132177601Y-80401343D01*
X132206649Y-80305585D01*
X132216457Y-80206000D01*
X132216457Y-79306000D01*
X132206649Y-79206415D01*
X132177601Y-79110657D01*
X132130429Y-79022405D01*
X132066948Y-78945052D01*
X131989595Y-78881571D01*
X131901343Y-78834399D01*
X131851400Y-78819249D01*
X131851400Y-78447835D01*
X131881531Y-78417704D01*
X131978821Y-78272099D01*
X132045836Y-78110312D01*
X132080000Y-77938559D01*
X132080000Y-77763441D01*
X132045836Y-77591688D01*
X131978821Y-77429901D01*
X131881531Y-77284296D01*
X131757704Y-77160469D01*
X131612099Y-77063179D01*
X131450312Y-76996164D01*
X131278559Y-76962000D01*
X131103441Y-76962000D01*
X130931688Y-76996164D01*
X130769901Y-77063179D01*
X130624296Y-77160469D01*
X130556000Y-77228765D01*
X130487704Y-77160469D01*
X130342099Y-77063179D01*
X130180312Y-76996164D01*
X130008559Y-76962000D01*
X129833441Y-76962000D01*
X129661688Y-76996164D01*
X129499901Y-77063179D01*
X129354296Y-77160469D01*
X129230469Y-77284296D01*
X129133179Y-77429901D01*
X129066164Y-77591688D01*
X129032000Y-77763441D01*
X129032000Y-77938559D01*
X129066164Y-78110312D01*
X129133179Y-78272099D01*
X129230469Y-78417704D01*
X129260601Y-78447836D01*
X129260600Y-78819249D01*
X129210657Y-78834399D01*
X129122405Y-78881571D01*
X129045052Y-78945052D01*
X128981571Y-79022405D01*
X128934399Y-79110657D01*
X128905351Y-79206415D01*
X128895543Y-79306000D01*
X127762000Y-79306000D01*
X127762000Y-69487256D01*
X130937000Y-69487256D01*
X130937000Y-70212744D01*
X131078536Y-70924291D01*
X131356168Y-71594554D01*
X131759227Y-72197775D01*
X132272225Y-72710773D01*
X132875446Y-73113832D01*
X133545709Y-73391464D01*
X134257256Y-73533000D01*
X134982744Y-73533000D01*
X135694291Y-73391464D01*
X136364554Y-73113832D01*
X136687569Y-72898000D01*
X138869892Y-72898000D01*
X138874501Y-72944795D01*
X138874500Y-77643784D01*
X138888283Y-77783722D01*
X138942748Y-77963268D01*
X139031194Y-78128741D01*
X139150222Y-78273778D01*
X139295259Y-78392806D01*
X139460731Y-78481252D01*
X139640277Y-78535717D01*
X139827000Y-78554108D01*
X140013722Y-78535717D01*
X140193268Y-78481252D01*
X140358741Y-78392806D01*
X140503778Y-78273778D01*
X140622806Y-78128741D01*
X140711252Y-77963269D01*
X140765717Y-77783723D01*
X140779500Y-77643785D01*
X140779500Y-74933098D01*
X144284000Y-74933098D01*
X144284000Y-75180902D01*
X144332344Y-75423945D01*
X144427175Y-75652886D01*
X144564848Y-75858928D01*
X144740072Y-76034152D01*
X144946114Y-76171825D01*
X145175055Y-76266656D01*
X145418098Y-76315000D01*
X145665902Y-76315000D01*
X145908945Y-76266656D01*
X146137886Y-76171825D01*
X146343928Y-76034152D01*
X146519152Y-75858928D01*
X146656825Y-75652886D01*
X146751656Y-75423945D01*
X146800000Y-75180902D01*
X146800000Y-74933098D01*
X146751656Y-74690055D01*
X146656825Y-74461114D01*
X146519152Y-74255072D01*
X146343928Y-74079848D01*
X146137886Y-73942175D01*
X145908945Y-73847344D01*
X145665902Y-73799000D01*
X145418098Y-73799000D01*
X145175055Y-73847344D01*
X144946114Y-73942175D01*
X144740072Y-74079848D01*
X144564848Y-74255072D01*
X144427175Y-74461114D01*
X144332344Y-74690055D01*
X144284000Y-74933098D01*
X140779500Y-74933098D01*
X140779500Y-73292538D01*
X142245436Y-71826603D01*
X142281778Y-71796778D01*
X142318175Y-71752428D01*
X142365684Y-71841313D01*
X142441862Y-71934138D01*
X142465132Y-71953235D01*
X142748000Y-72236103D01*
X142748000Y-72350559D01*
X142782164Y-72522312D01*
X142849179Y-72684099D01*
X142946469Y-72829704D01*
X143070296Y-72953531D01*
X143215901Y-73050821D01*
X143377688Y-73117836D01*
X143549441Y-73152000D01*
X143724559Y-73152000D01*
X143896312Y-73117836D01*
X144058099Y-73050821D01*
X144203704Y-72953531D01*
X144327531Y-72829704D01*
X144424821Y-72684099D01*
X144491836Y-72522312D01*
X144526000Y-72350559D01*
X144526000Y-72175441D01*
X144491836Y-72003688D01*
X144424821Y-71841901D01*
X144327531Y-71696296D01*
X144203704Y-71572469D01*
X144058099Y-71475179D01*
X143896312Y-71408164D01*
X143724559Y-71374000D01*
X143610103Y-71374000D01*
X143484600Y-71248497D01*
X143484600Y-70921718D01*
X143549114Y-70964825D01*
X143778055Y-71059656D01*
X144021098Y-71108000D01*
X144268902Y-71108000D01*
X144511945Y-71059656D01*
X144740886Y-70964825D01*
X144946928Y-70827152D01*
X145122152Y-70651928D01*
X145259825Y-70445886D01*
X145354656Y-70216945D01*
X145403000Y-69973902D01*
X145403000Y-69726098D01*
X145427000Y-69726098D01*
X145427000Y-69973902D01*
X145475344Y-70216945D01*
X145570175Y-70445886D01*
X145707848Y-70651928D01*
X145883072Y-70827152D01*
X146089114Y-70964825D01*
X146318055Y-71059656D01*
X146561098Y-71108000D01*
X146808902Y-71108000D01*
X147051945Y-71059656D01*
X147280886Y-70964825D01*
X147486928Y-70827152D01*
X147662152Y-70651928D01*
X147799825Y-70445886D01*
X147894656Y-70216945D01*
X147943000Y-69973902D01*
X147943000Y-69726098D01*
X147967000Y-69726098D01*
X147967000Y-69973902D01*
X148015344Y-70216945D01*
X148110175Y-70445886D01*
X148247848Y-70651928D01*
X148423072Y-70827152D01*
X148629114Y-70964825D01*
X148858055Y-71059656D01*
X149101098Y-71108000D01*
X149348902Y-71108000D01*
X149591945Y-71059656D01*
X149820886Y-70964825D01*
X150026928Y-70827152D01*
X150202152Y-70651928D01*
X150339825Y-70445886D01*
X150434656Y-70216945D01*
X150483000Y-69973902D01*
X150483000Y-69726098D01*
X150507000Y-69726098D01*
X150507000Y-69973902D01*
X150555344Y-70216945D01*
X150650175Y-70445886D01*
X150787848Y-70651928D01*
X150963072Y-70827152D01*
X151169114Y-70964825D01*
X151398055Y-71059656D01*
X151641098Y-71108000D01*
X151888902Y-71108000D01*
X152131945Y-71059656D01*
X152360886Y-70964825D01*
X152566928Y-70827152D01*
X152742152Y-70651928D01*
X152879825Y-70445886D01*
X152974656Y-70216945D01*
X153023000Y-69973902D01*
X153023000Y-69726098D01*
X153047000Y-69726098D01*
X153047000Y-69973902D01*
X153095344Y-70216945D01*
X153190175Y-70445886D01*
X153327848Y-70651928D01*
X153503072Y-70827152D01*
X153709114Y-70964825D01*
X153938055Y-71059656D01*
X154181098Y-71108000D01*
X154428902Y-71108000D01*
X154671945Y-71059656D01*
X154900886Y-70964825D01*
X155106928Y-70827152D01*
X155282152Y-70651928D01*
X155419825Y-70445886D01*
X155514656Y-70216945D01*
X155563000Y-69973902D01*
X155563000Y-69726098D01*
X155515492Y-69487256D01*
X156337000Y-69487256D01*
X156337000Y-70212744D01*
X156478536Y-70924291D01*
X156756168Y-71594554D01*
X157159227Y-72197775D01*
X157672225Y-72710773D01*
X158275446Y-73113832D01*
X158945709Y-73391464D01*
X159657256Y-73533000D01*
X160382744Y-73533000D01*
X161094291Y-73391464D01*
X161764554Y-73113832D01*
X162367775Y-72710773D01*
X162880773Y-72197775D01*
X163283832Y-71594554D01*
X163561464Y-70924291D01*
X163703000Y-70212744D01*
X163703000Y-69487256D01*
X163561464Y-68775709D01*
X163283832Y-68105446D01*
X162880773Y-67502225D01*
X162367775Y-66989227D01*
X161764554Y-66586168D01*
X161094291Y-66308536D01*
X160382744Y-66167000D01*
X159657256Y-66167000D01*
X158945709Y-66308536D01*
X158275446Y-66586168D01*
X157672225Y-66989227D01*
X157159227Y-67502225D01*
X156756168Y-68105446D01*
X156478536Y-68775709D01*
X156337000Y-69487256D01*
X155515492Y-69487256D01*
X155514656Y-69483055D01*
X155419825Y-69254114D01*
X155282152Y-69048072D01*
X155106928Y-68872848D01*
X154900886Y-68735175D01*
X154671945Y-68640344D01*
X154428902Y-68592000D01*
X154181098Y-68592000D01*
X153938055Y-68640344D01*
X153709114Y-68735175D01*
X153503072Y-68872848D01*
X153327848Y-69048072D01*
X153190175Y-69254114D01*
X153095344Y-69483055D01*
X153047000Y-69726098D01*
X153023000Y-69726098D01*
X152974656Y-69483055D01*
X152879825Y-69254114D01*
X152742152Y-69048072D01*
X152566928Y-68872848D01*
X152360886Y-68735175D01*
X152131945Y-68640344D01*
X151888902Y-68592000D01*
X151641098Y-68592000D01*
X151398055Y-68640344D01*
X151169114Y-68735175D01*
X150963072Y-68872848D01*
X150787848Y-69048072D01*
X150650175Y-69254114D01*
X150555344Y-69483055D01*
X150507000Y-69726098D01*
X150483000Y-69726098D01*
X150434656Y-69483055D01*
X150339825Y-69254114D01*
X150202152Y-69048072D01*
X150026928Y-68872848D01*
X149820886Y-68735175D01*
X149591945Y-68640344D01*
X149348902Y-68592000D01*
X149101098Y-68592000D01*
X148858055Y-68640344D01*
X148629114Y-68735175D01*
X148423072Y-68872848D01*
X148247848Y-69048072D01*
X148110175Y-69254114D01*
X148015344Y-69483055D01*
X147967000Y-69726098D01*
X147943000Y-69726098D01*
X147894656Y-69483055D01*
X147799825Y-69254114D01*
X147662152Y-69048072D01*
X147486928Y-68872848D01*
X147280886Y-68735175D01*
X147051945Y-68640344D01*
X146808902Y-68592000D01*
X146561098Y-68592000D01*
X146318055Y-68640344D01*
X146089114Y-68735175D01*
X145883072Y-68872848D01*
X145707848Y-69048072D01*
X145570175Y-69254114D01*
X145475344Y-69483055D01*
X145427000Y-69726098D01*
X145403000Y-69726098D01*
X145354656Y-69483055D01*
X145259825Y-69254114D01*
X145122152Y-69048072D01*
X144946928Y-68872848D01*
X144740886Y-68735175D01*
X144511945Y-68640344D01*
X144268902Y-68592000D01*
X144021098Y-68592000D01*
X143778055Y-68640344D01*
X143549114Y-68735175D01*
X143368735Y-68855700D01*
X143308138Y-68781862D01*
X143284873Y-68762769D01*
X142692236Y-68170133D01*
X142673139Y-68146863D01*
X142580315Y-68070685D01*
X142474413Y-68014080D01*
X142359503Y-67979222D01*
X142269942Y-67970401D01*
X142240001Y-67967452D01*
X142210060Y-67970401D01*
X140745940Y-67970401D01*
X140715999Y-67967452D01*
X140596496Y-67979222D01*
X140561638Y-67989796D01*
X140481587Y-68014080D01*
X140375685Y-68070685D01*
X140374083Y-68072000D01*
X140247441Y-68072000D01*
X140075688Y-68106164D01*
X139913901Y-68173179D01*
X139768296Y-68270469D01*
X139644469Y-68394296D01*
X139547179Y-68539901D01*
X139480164Y-68701688D01*
X139446000Y-68873441D01*
X139446000Y-69048559D01*
X139480164Y-69220312D01*
X139547179Y-69382099D01*
X139644469Y-69527704D01*
X139768296Y-69651531D01*
X139913901Y-69748821D01*
X140075688Y-69815836D01*
X140247441Y-69850000D01*
X140347000Y-69850000D01*
X140347000Y-69973902D01*
X140395344Y-70216945D01*
X140490175Y-70445886D01*
X140627848Y-70651928D01*
X140652500Y-70676580D01*
X140652500Y-70725461D01*
X139186564Y-72191398D01*
X139150223Y-72221222D01*
X139120399Y-72257563D01*
X139031194Y-72366260D01*
X138942749Y-72531731D01*
X138888283Y-72711278D01*
X138869892Y-72898000D01*
X136687569Y-72898000D01*
X136967775Y-72710773D01*
X137480773Y-72197775D01*
X137883832Y-71594554D01*
X138161464Y-70924291D01*
X138303000Y-70212744D01*
X138303000Y-69487256D01*
X138161464Y-68775709D01*
X137883832Y-68105446D01*
X137480773Y-67502225D01*
X137164646Y-67186098D01*
X142887000Y-67186098D01*
X142887000Y-67433902D01*
X142935344Y-67676945D01*
X143030175Y-67905886D01*
X143167848Y-68111928D01*
X143343072Y-68287152D01*
X143549114Y-68424825D01*
X143778055Y-68519656D01*
X144021098Y-68568000D01*
X144268902Y-68568000D01*
X144511945Y-68519656D01*
X144740886Y-68424825D01*
X144946928Y-68287152D01*
X145122152Y-68111928D01*
X145259825Y-67905886D01*
X145354656Y-67676945D01*
X145403000Y-67433902D01*
X145403000Y-67186098D01*
X145427000Y-67186098D01*
X145427000Y-67433902D01*
X145475344Y-67676945D01*
X145570175Y-67905886D01*
X145707848Y-68111928D01*
X145883072Y-68287152D01*
X146089114Y-68424825D01*
X146318055Y-68519656D01*
X146561098Y-68568000D01*
X146808902Y-68568000D01*
X147051945Y-68519656D01*
X147280886Y-68424825D01*
X147486928Y-68287152D01*
X147662152Y-68111928D01*
X147799825Y-67905886D01*
X147894656Y-67676945D01*
X147943000Y-67433902D01*
X147943000Y-67186098D01*
X147967000Y-67186098D01*
X147967000Y-67433902D01*
X148015344Y-67676945D01*
X148110175Y-67905886D01*
X148247848Y-68111928D01*
X148423072Y-68287152D01*
X148629114Y-68424825D01*
X148858055Y-68519656D01*
X149101098Y-68568000D01*
X149348902Y-68568000D01*
X149591945Y-68519656D01*
X149820886Y-68424825D01*
X150026928Y-68287152D01*
X150202152Y-68111928D01*
X150339825Y-67905886D01*
X150434656Y-67676945D01*
X150483000Y-67433902D01*
X150483000Y-67186098D01*
X150507000Y-67186098D01*
X150507000Y-67433902D01*
X150555344Y-67676945D01*
X150650175Y-67905886D01*
X150787848Y-68111928D01*
X150963072Y-68287152D01*
X151169114Y-68424825D01*
X151398055Y-68519656D01*
X151641098Y-68568000D01*
X151888902Y-68568000D01*
X152131945Y-68519656D01*
X152360886Y-68424825D01*
X152566928Y-68287152D01*
X152742152Y-68111928D01*
X152879825Y-67905886D01*
X152974656Y-67676945D01*
X153023000Y-67433902D01*
X153023000Y-67186098D01*
X153047000Y-67186098D01*
X153047000Y-67433902D01*
X153095344Y-67676945D01*
X153190175Y-67905886D01*
X153327848Y-68111928D01*
X153503072Y-68287152D01*
X153709114Y-68424825D01*
X153938055Y-68519656D01*
X154181098Y-68568000D01*
X154428902Y-68568000D01*
X154671945Y-68519656D01*
X154900886Y-68424825D01*
X155106928Y-68287152D01*
X155282152Y-68111928D01*
X155419825Y-67905886D01*
X155514656Y-67676945D01*
X155563000Y-67433902D01*
X155563000Y-67186098D01*
X155514656Y-66943055D01*
X155419825Y-66714114D01*
X155282152Y-66508072D01*
X155106928Y-66332848D01*
X154900886Y-66195175D01*
X154671945Y-66100344D01*
X154428902Y-66052000D01*
X154181098Y-66052000D01*
X153938055Y-66100344D01*
X153709114Y-66195175D01*
X153503072Y-66332848D01*
X153327848Y-66508072D01*
X153190175Y-66714114D01*
X153095344Y-66943055D01*
X153047000Y-67186098D01*
X153023000Y-67186098D01*
X152974656Y-66943055D01*
X152879825Y-66714114D01*
X152742152Y-66508072D01*
X152566928Y-66332848D01*
X152360886Y-66195175D01*
X152131945Y-66100344D01*
X151888902Y-66052000D01*
X151641098Y-66052000D01*
X151398055Y-66100344D01*
X151169114Y-66195175D01*
X150963072Y-66332848D01*
X150787848Y-66508072D01*
X150650175Y-66714114D01*
X150555344Y-66943055D01*
X150507000Y-67186098D01*
X150483000Y-67186098D01*
X150434656Y-66943055D01*
X150339825Y-66714114D01*
X150202152Y-66508072D01*
X150026928Y-66332848D01*
X149820886Y-66195175D01*
X149591945Y-66100344D01*
X149348902Y-66052000D01*
X149101098Y-66052000D01*
X148858055Y-66100344D01*
X148629114Y-66195175D01*
X148423072Y-66332848D01*
X148247848Y-66508072D01*
X148110175Y-66714114D01*
X148015344Y-66943055D01*
X147967000Y-67186098D01*
X147943000Y-67186098D01*
X147894656Y-66943055D01*
X147799825Y-66714114D01*
X147662152Y-66508072D01*
X147486928Y-66332848D01*
X147280886Y-66195175D01*
X147051945Y-66100344D01*
X146808902Y-66052000D01*
X146561098Y-66052000D01*
X146318055Y-66100344D01*
X146089114Y-66195175D01*
X145883072Y-66332848D01*
X145707848Y-66508072D01*
X145570175Y-66714114D01*
X145475344Y-66943055D01*
X145427000Y-67186098D01*
X145403000Y-67186098D01*
X145354656Y-66943055D01*
X145259825Y-66714114D01*
X145122152Y-66508072D01*
X144946928Y-66332848D01*
X144740886Y-66195175D01*
X144511945Y-66100344D01*
X144268902Y-66052000D01*
X144021098Y-66052000D01*
X143778055Y-66100344D01*
X143549114Y-66195175D01*
X143343072Y-66332848D01*
X143167848Y-66508072D01*
X143030175Y-66714114D01*
X142935344Y-66943055D01*
X142887000Y-67186098D01*
X137164646Y-67186098D01*
X136967775Y-66989227D01*
X136364554Y-66586168D01*
X135694291Y-66308536D01*
X134982744Y-66167000D01*
X134257256Y-66167000D01*
X133545709Y-66308536D01*
X132875446Y-66586168D01*
X132272225Y-66989227D01*
X131759227Y-67502225D01*
X131356168Y-68105446D01*
X131078536Y-68775709D01*
X130937000Y-69487256D01*
X127762000Y-69487256D01*
X127762000Y-65532000D01*
X168148000Y-65532000D01*
X168148000Y-69339543D01*
X168148000Y-69339543D01*
G37*
X168148000Y-69339543D02*
X164846000Y-69339543D01*
X164746415Y-69349351D01*
X164650657Y-69378399D01*
X164562405Y-69425571D01*
X164485052Y-69489052D01*
X164421571Y-69566405D01*
X164374399Y-69654657D01*
X164345351Y-69750415D01*
X164335543Y-69850000D01*
X164335543Y-71374000D01*
X164345351Y-71473585D01*
X164374399Y-71569343D01*
X164421571Y-71657595D01*
X164485052Y-71734948D01*
X164562405Y-71798429D01*
X164650657Y-71845601D01*
X164746415Y-71874649D01*
X164846000Y-71884457D01*
X168148000Y-71884457D01*
X168148000Y-72133543D01*
X164846000Y-72133543D01*
X164746415Y-72143351D01*
X164650657Y-72172399D01*
X164562405Y-72219571D01*
X164485052Y-72283052D01*
X164421571Y-72360405D01*
X164374399Y-72448657D01*
X164345351Y-72544415D01*
X164335543Y-72644000D01*
X164335543Y-74168000D01*
X164345351Y-74267585D01*
X164374399Y-74363343D01*
X164421571Y-74451595D01*
X164485052Y-74528948D01*
X164562405Y-74592429D01*
X164650657Y-74639601D01*
X164746415Y-74668649D01*
X164846000Y-74678457D01*
X168148000Y-74678457D01*
X168148000Y-74927543D01*
X164846000Y-74927543D01*
X164746415Y-74937351D01*
X164650657Y-74966399D01*
X164562405Y-75013571D01*
X164485052Y-75077052D01*
X164421571Y-75154405D01*
X164374399Y-75242657D01*
X164345351Y-75338415D01*
X164341797Y-75374500D01*
X163997550Y-75374500D01*
X163956999Y-75370506D01*
X163916449Y-75374500D01*
X163916447Y-75374500D01*
X163795174Y-75386444D01*
X163639566Y-75433647D01*
X163496157Y-75510301D01*
X163434596Y-75560823D01*
X163370459Y-75613459D01*
X163344606Y-75644961D01*
X161075069Y-77914499D01*
X160694904Y-77914499D01*
X160747836Y-77786712D01*
X160782000Y-77614959D01*
X160782000Y-77439841D01*
X160747836Y-77268088D01*
X160680821Y-77106301D01*
X160583531Y-76960696D01*
X160502600Y-76879765D01*
X160502600Y-76071503D01*
X160882104Y-75692000D01*
X160996559Y-75692000D01*
X161168312Y-75657836D01*
X161330099Y-75590821D01*
X161475704Y-75493531D01*
X161599531Y-75369704D01*
X161696821Y-75224099D01*
X161763836Y-75062312D01*
X161798000Y-74890559D01*
X161798000Y-74715441D01*
X161763836Y-74543688D01*
X161696821Y-74381901D01*
X161599531Y-74236296D01*
X161475704Y-74112469D01*
X161330099Y-74015179D01*
X161168312Y-73948164D01*
X160996559Y-73914000D01*
X160821441Y-73914000D01*
X160649688Y-73948164D01*
X160487901Y-74015179D01*
X160342296Y-74112469D01*
X160218469Y-74236296D01*
X160121179Y-74381901D01*
X160054164Y-74543688D01*
X160020000Y-74715441D01*
X160020000Y-74829896D01*
X159483127Y-75366770D01*
X159459863Y-75385862D01*
X159408587Y-75448343D01*
X159383685Y-75478686D01*
X159327080Y-75584588D01*
X159292221Y-75699498D01*
X159280451Y-75819000D01*
X159283401Y-75848951D01*
X159283400Y-76879765D01*
X159202469Y-76960696D01*
X159105179Y-77106301D01*
X159038164Y-77268088D01*
X159004000Y-77439841D01*
X159004000Y-77614959D01*
X159038164Y-77786712D01*
X159091096Y-77914499D01*
X158940500Y-77914499D01*
X158940500Y-76748550D01*
X158944494Y-76708000D01*
X158940500Y-76667447D01*
X158928556Y-76546174D01*
X158881353Y-76390566D01*
X158840962Y-76315000D01*
X158804699Y-76247157D01*
X158727392Y-76152958D01*
X158727389Y-76152955D01*
X158701541Y-76121459D01*
X158670046Y-76095612D01*
X157035500Y-74461068D01*
X157035500Y-73863135D01*
X157064836Y-73792312D01*
X157099000Y-73620559D01*
X157099000Y-73445441D01*
X157064836Y-73273688D01*
X156997821Y-73111901D01*
X156900531Y-72966296D01*
X156776704Y-72842469D01*
X156631099Y-72745179D01*
X156560275Y-72715843D01*
X155679398Y-71834966D01*
X155653541Y-71803459D01*
X155527842Y-71700301D01*
X155384434Y-71623647D01*
X155228826Y-71576444D01*
X155107553Y-71564500D01*
X155107550Y-71564500D01*
X155067000Y-71560506D01*
X155026450Y-71564500D01*
X152948542Y-71564500D01*
X152907999Y-71560507D01*
X152867456Y-71564500D01*
X152867447Y-71564500D01*
X152746174Y-71576444D01*
X152590566Y-71623647D01*
X152447158Y-71700301D01*
X152321459Y-71803459D01*
X152295602Y-71834966D01*
X152176726Y-71953842D01*
X152105901Y-71983179D01*
X151960296Y-72080469D01*
X151836469Y-72204296D01*
X151739179Y-72349901D01*
X151709843Y-72420725D01*
X151435654Y-72694914D01*
X149684652Y-72694914D01*
X149613829Y-72665578D01*
X149442076Y-72631414D01*
X149266958Y-72631414D01*
X149095205Y-72665578D01*
X148933418Y-72732593D01*
X148787813Y-72829883D01*
X148663986Y-72953710D01*
X148566696Y-73099315D01*
X148499681Y-73261102D01*
X148465517Y-73432855D01*
X148465517Y-73607973D01*
X148499681Y-73779726D01*
X148566696Y-73941513D01*
X148663986Y-74087118D01*
X148772791Y-74195923D01*
X148755351Y-74253415D01*
X148745543Y-74353000D01*
X148745543Y-75253000D01*
X148755351Y-75352585D01*
X148784399Y-75448343D01*
X148831571Y-75536595D01*
X148895052Y-75613948D01*
X148972405Y-75677429D01*
X149060657Y-75724601D01*
X149156415Y-75753649D01*
X149256000Y-75763457D01*
X149956000Y-75763457D01*
X150055585Y-75753649D01*
X150151343Y-75724601D01*
X150239595Y-75677429D01*
X150316948Y-75613948D01*
X150380429Y-75536595D01*
X150427601Y-75448343D01*
X150456649Y-75352585D01*
X150466457Y-75253000D01*
X150466457Y-74353000D01*
X150465759Y-74345914D01*
X151737036Y-74345914D01*
X151777586Y-74349908D01*
X151818136Y-74345914D01*
X151818139Y-74345914D01*
X151939412Y-74333970D01*
X152065175Y-74295820D01*
X152059543Y-74353000D01*
X152059543Y-75253000D01*
X152069351Y-75352585D01*
X152094500Y-75435491D01*
X152094500Y-75928552D01*
X152094501Y-75928562D01*
X152094500Y-76861268D01*
X152067460Y-76883459D01*
X152041609Y-76914959D01*
X151964301Y-77009158D01*
X151887647Y-77152567D01*
X151840445Y-77308174D01*
X151824506Y-77470000D01*
X151828501Y-77510560D01*
X151828500Y-82029795D01*
X151790343Y-82009399D01*
X151694585Y-81980351D01*
X151595000Y-81970543D01*
X150895000Y-81970543D01*
X150795415Y-81980351D01*
X150699657Y-82009399D01*
X150611405Y-82056571D01*
X150534052Y-82120052D01*
X150470571Y-82197405D01*
X150423399Y-82285657D01*
X150394351Y-82381415D01*
X150384543Y-82481000D01*
X150384543Y-83347994D01*
X149288500Y-83347994D01*
X149288500Y-82608216D01*
X149337429Y-82548595D01*
X149384601Y-82460343D01*
X149413649Y-82364585D01*
X149423457Y-82265000D01*
X149423457Y-81565000D01*
X149413649Y-81465415D01*
X149384601Y-81369657D01*
X149337429Y-81281405D01*
X149273948Y-81204052D01*
X149196595Y-81140571D01*
X149108343Y-81093399D01*
X149012585Y-81064351D01*
X148913000Y-81054543D01*
X148013000Y-81054543D01*
X147913415Y-81064351D01*
X147817657Y-81093399D01*
X147729405Y-81140571D01*
X147652052Y-81204052D01*
X147588571Y-81281405D01*
X147541399Y-81369657D01*
X147521569Y-81435027D01*
X147105068Y-81851528D01*
X146391961Y-81851528D01*
X145890715Y-81350282D01*
X145908945Y-81346656D01*
X146137886Y-81251825D01*
X146343928Y-81114152D01*
X146519152Y-80938928D01*
X146656825Y-80732886D01*
X146751656Y-80503945D01*
X146800000Y-80260902D01*
X146800000Y-80013098D01*
X146751656Y-79770055D01*
X146656825Y-79541114D01*
X146519152Y-79335072D01*
X146343928Y-79159848D01*
X146137886Y-79022175D01*
X145908945Y-78927344D01*
X145665902Y-78879000D01*
X145418098Y-78879000D01*
X145175055Y-78927344D01*
X144946114Y-79022175D01*
X144740072Y-79159848D01*
X144564848Y-79335072D01*
X144427175Y-79541114D01*
X144332344Y-79770055D01*
X144328718Y-79788286D01*
X144081500Y-79541068D01*
X144081500Y-78689135D01*
X144110836Y-78618312D01*
X144145000Y-78446559D01*
X144145000Y-78271441D01*
X144110836Y-78099688D01*
X144043821Y-77937901D01*
X143946531Y-77792296D01*
X143822704Y-77668469D01*
X143677099Y-77571179D01*
X143515312Y-77504164D01*
X143359134Y-77473098D01*
X144284000Y-77473098D01*
X144284000Y-77720902D01*
X144332344Y-77963945D01*
X144427175Y-78192886D01*
X144564848Y-78398928D01*
X144740072Y-78574152D01*
X144946114Y-78711825D01*
X145175055Y-78806656D01*
X145418098Y-78855000D01*
X145665902Y-78855000D01*
X145908945Y-78806656D01*
X146137886Y-78711825D01*
X146343928Y-78574152D01*
X146519152Y-78398928D01*
X146656825Y-78192886D01*
X146751656Y-77963945D01*
X146800000Y-77720902D01*
X146800000Y-77473098D01*
X146751656Y-77230055D01*
X146656825Y-77001114D01*
X146519152Y-76795072D01*
X146343928Y-76619848D01*
X146137886Y-76482175D01*
X145908945Y-76387344D01*
X145665902Y-76339000D01*
X145418098Y-76339000D01*
X145175055Y-76387344D01*
X144946114Y-76482175D01*
X144740072Y-76619848D01*
X144564848Y-76795072D01*
X144427175Y-77001114D01*
X144332344Y-77230055D01*
X144284000Y-77473098D01*
X143359134Y-77473098D01*
X143343559Y-77470000D01*
X143168441Y-77470000D01*
X142996688Y-77504164D01*
X142849600Y-77565090D01*
X142849600Y-77482647D01*
X142930531Y-77401716D01*
X143027821Y-77256111D01*
X143094836Y-77094324D01*
X143129000Y-76922571D01*
X143129000Y-76747453D01*
X143094836Y-76575700D01*
X143027821Y-76413913D01*
X142930531Y-76268308D01*
X142806704Y-76144481D01*
X142661099Y-76047191D01*
X142499312Y-75980176D01*
X142327559Y-75946012D01*
X142152441Y-75946012D01*
X141980688Y-75980176D01*
X141818901Y-76047191D01*
X141673296Y-76144481D01*
X141549469Y-76268308D01*
X141452179Y-76413913D01*
X141385164Y-76575700D01*
X141351000Y-76747453D01*
X141351000Y-76922571D01*
X141385164Y-77094324D01*
X141452179Y-77256111D01*
X141549469Y-77401716D01*
X141630401Y-77482648D01*
X141630400Y-79853058D01*
X141627451Y-79883000D01*
X141639221Y-80002502D01*
X141649090Y-80035035D01*
X141674079Y-80117411D01*
X141730684Y-80223313D01*
X141806862Y-80316138D01*
X141830132Y-80335235D01*
X146740770Y-85245874D01*
X146759863Y-85269139D01*
X146852687Y-85345317D01*
X146958589Y-85401922D01*
X147038640Y-85426206D01*
X147073498Y-85436780D01*
X147193000Y-85448550D01*
X147222942Y-85445601D01*
X149126055Y-85445601D01*
X149132164Y-85476312D01*
X149199179Y-85638099D01*
X149296469Y-85783704D01*
X149420296Y-85907531D01*
X149565901Y-86004821D01*
X149727688Y-86071836D01*
X149899441Y-86106000D01*
X150074559Y-86106000D01*
X150246312Y-86071836D01*
X150408099Y-86004821D01*
X150553704Y-85907531D01*
X150677531Y-85783704D01*
X150774821Y-85638099D01*
X150841836Y-85476312D01*
X150876000Y-85304559D01*
X150876000Y-85129441D01*
X150850052Y-84998994D01*
X151044140Y-84998994D01*
X151057442Y-85042842D01*
X151087622Y-85142334D01*
X151164276Y-85285743D01*
X151212087Y-85344000D01*
X151267435Y-85411442D01*
X151298936Y-85437294D01*
X152014680Y-86153039D01*
X152040533Y-86184541D01*
X152099593Y-86233010D01*
X152166231Y-86287699D01*
X152309640Y-86364353D01*
X152465248Y-86411556D01*
X152586521Y-86423500D01*
X152586523Y-86423500D01*
X152627073Y-86427494D01*
X152667624Y-86423500D01*
X156296450Y-86423500D01*
X156337000Y-86427494D01*
X156377550Y-86423500D01*
X156377553Y-86423500D01*
X156498826Y-86411556D01*
X156654434Y-86364353D01*
X156797842Y-86287699D01*
X156923541Y-86184541D01*
X156949398Y-86153034D01*
X157908040Y-85194393D01*
X157939541Y-85168541D01*
X158018843Y-85071911D01*
X158042699Y-85042843D01*
X158119353Y-84899434D01*
X158130094Y-84864025D01*
X158166556Y-84743826D01*
X158178500Y-84622553D01*
X158178500Y-84622551D01*
X158182494Y-84582000D01*
X158178500Y-84541450D01*
X158178500Y-83566000D01*
X158202559Y-83566000D01*
X158374312Y-83531836D01*
X158536099Y-83464821D01*
X158681704Y-83367531D01*
X158805531Y-83243704D01*
X158902821Y-83098099D01*
X158932158Y-83027274D01*
X159813040Y-82146392D01*
X159844541Y-82120541D01*
X159909041Y-82041947D01*
X159947699Y-81994843D01*
X160024353Y-81851434D01*
X160043595Y-81788000D01*
X160071556Y-81695826D01*
X160083500Y-81574553D01*
X160083500Y-81574551D01*
X160087494Y-81534001D01*
X160083500Y-81493450D01*
X160083500Y-79565499D01*
X161376451Y-79565499D01*
X161417001Y-79569493D01*
X161457551Y-79565499D01*
X161457554Y-79565499D01*
X161578827Y-79553555D01*
X161734435Y-79506352D01*
X161877843Y-79429698D01*
X162003542Y-79326540D01*
X162029399Y-79295033D01*
X164298933Y-77025500D01*
X164341797Y-77025500D01*
X164345351Y-77061585D01*
X164374399Y-77157343D01*
X164421571Y-77245595D01*
X164485052Y-77322948D01*
X164562405Y-77386429D01*
X164650657Y-77433601D01*
X164746415Y-77462649D01*
X164846000Y-77472457D01*
X168148000Y-77472457D01*
X168148000Y-77721543D01*
X164846000Y-77721543D01*
X164746415Y-77731351D01*
X164650657Y-77760399D01*
X164562405Y-77807571D01*
X164485052Y-77871052D01*
X164421571Y-77948405D01*
X164374399Y-78036657D01*
X164345351Y-78132415D01*
X164335543Y-78232000D01*
X164335543Y-79756000D01*
X164345351Y-79855585D01*
X164374399Y-79951343D01*
X164421571Y-80039595D01*
X164485052Y-80116948D01*
X164562405Y-80180429D01*
X164650657Y-80227601D01*
X164746415Y-80256649D01*
X164846000Y-80266457D01*
X168148000Y-80266457D01*
X168148000Y-80515543D01*
X164846000Y-80515543D01*
X164746415Y-80525351D01*
X164650657Y-80554399D01*
X164562405Y-80601571D01*
X164485052Y-80665052D01*
X164421571Y-80742405D01*
X164374399Y-80830657D01*
X164345351Y-80926415D01*
X164335543Y-81026000D01*
X164335543Y-81056603D01*
X164251099Y-81000179D01*
X164089312Y-80933164D01*
X163917559Y-80899000D01*
X163742441Y-80899000D01*
X163570688Y-80933164D01*
X163408901Y-81000179D01*
X163263296Y-81097469D01*
X163139469Y-81221296D01*
X163042179Y-81366901D01*
X162975164Y-81528688D01*
X162941000Y-81700441D01*
X162941000Y-81875559D01*
X162975164Y-82047312D01*
X163042179Y-82209099D01*
X163139469Y-82354704D01*
X163263296Y-82478531D01*
X163408901Y-82575821D01*
X163570688Y-82642836D01*
X163742441Y-82677000D01*
X163917559Y-82677000D01*
X164089312Y-82642836D01*
X164251099Y-82575821D01*
X164335543Y-82519397D01*
X164335543Y-82550000D01*
X164345351Y-82649585D01*
X164374399Y-82745343D01*
X164421571Y-82833595D01*
X164485052Y-82910948D01*
X164562405Y-82974429D01*
X164650657Y-83021601D01*
X164746415Y-83050649D01*
X164846000Y-83060457D01*
X168148000Y-83060457D01*
X168148000Y-83309543D01*
X164846000Y-83309543D01*
X164746415Y-83319351D01*
X164650657Y-83348399D01*
X164562405Y-83395571D01*
X164485052Y-83459052D01*
X164421571Y-83536405D01*
X164374399Y-83624657D01*
X164345351Y-83720415D01*
X164335543Y-83820000D01*
X164335543Y-83921600D01*
X161944547Y-83921600D01*
X161417000Y-83394054D01*
X161417000Y-83351441D01*
X161382836Y-83179688D01*
X161315821Y-83017901D01*
X161218531Y-82872296D01*
X161094704Y-82748469D01*
X160949099Y-82651179D01*
X160787312Y-82584164D01*
X160615559Y-82550000D01*
X160440441Y-82550000D01*
X160268688Y-82584164D01*
X160106901Y-82651179D01*
X159961296Y-82748469D01*
X159837469Y-82872296D01*
X159740179Y-83017901D01*
X159673164Y-83179688D01*
X159639000Y-83351441D01*
X159639000Y-83526559D01*
X159673164Y-83698312D01*
X159740179Y-83860099D01*
X159837469Y-84005704D01*
X159961296Y-84129531D01*
X160106901Y-84226821D01*
X160268688Y-84293836D01*
X160440441Y-84328000D01*
X160483054Y-84328000D01*
X161181086Y-85026033D01*
X161201767Y-85051233D01*
X161302326Y-85133759D01*
X161417053Y-85195082D01*
X161541539Y-85232844D01*
X161670999Y-85245595D01*
X161703438Y-85242400D01*
X164335543Y-85242400D01*
X164335543Y-85344000D01*
X164345351Y-85443585D01*
X164374399Y-85539343D01*
X164421571Y-85627595D01*
X164485052Y-85704948D01*
X164562405Y-85768429D01*
X164650657Y-85815601D01*
X164746415Y-85844649D01*
X164846000Y-85854457D01*
X168148000Y-85854457D01*
X168148000Y-105918000D01*
X157649431Y-105918000D01*
X157699836Y-105796312D01*
X157734000Y-105624559D01*
X157734000Y-105449441D01*
X157699836Y-105277688D01*
X157632821Y-105115901D01*
X157535531Y-104970296D01*
X157411704Y-104846469D01*
X157266099Y-104749179D01*
X157104312Y-104682164D01*
X156932559Y-104648000D01*
X156757441Y-104648000D01*
X156585688Y-104682164D01*
X156423901Y-104749179D01*
X156278296Y-104846469D01*
X156174801Y-104949964D01*
X152833139Y-104949964D01*
X155730880Y-102052225D01*
X155754138Y-102033138D01*
X155830316Y-101940314D01*
X155886921Y-101834412D01*
X155921779Y-101719502D01*
X155930600Y-101629941D01*
X155930600Y-101629940D01*
X155933549Y-101600001D01*
X155930600Y-101570062D01*
X155930600Y-101237256D01*
X156337000Y-101237256D01*
X156337000Y-101962744D01*
X156478536Y-102674291D01*
X156756168Y-103344554D01*
X157159227Y-103947775D01*
X157672225Y-104460773D01*
X158275446Y-104863832D01*
X158945709Y-105141464D01*
X159657256Y-105283000D01*
X160382744Y-105283000D01*
X161094291Y-105141464D01*
X161764554Y-104863832D01*
X162367775Y-104460773D01*
X162880773Y-103947775D01*
X163283832Y-103344554D01*
X163561464Y-102674291D01*
X163703000Y-101962744D01*
X163703000Y-101237256D01*
X163561464Y-100525709D01*
X163283832Y-99855446D01*
X162880773Y-99252225D01*
X162367775Y-98739227D01*
X161764554Y-98336168D01*
X161094291Y-98058536D01*
X160382744Y-97917000D01*
X159657256Y-97917000D01*
X158945709Y-98058536D01*
X158275446Y-98336168D01*
X157672225Y-98739227D01*
X157159227Y-99252225D01*
X156756168Y-99855446D01*
X156478536Y-100525709D01*
X156337000Y-101237256D01*
X155930600Y-101237256D01*
X155930600Y-99185503D01*
X158063118Y-97052987D01*
X159257859Y-97052987D01*
X159338790Y-97133918D01*
X159484395Y-97231208D01*
X159646182Y-97298223D01*
X159817935Y-97332387D01*
X159993053Y-97332387D01*
X160164806Y-97298223D01*
X160326593Y-97231208D01*
X160472198Y-97133918D01*
X160596025Y-97010091D01*
X160693315Y-96864486D01*
X160760330Y-96702699D01*
X160794494Y-96530946D01*
X160794494Y-96355828D01*
X160760330Y-96184075D01*
X160693315Y-96022288D01*
X160596025Y-95876683D01*
X160472198Y-95752856D01*
X160425053Y-95721355D01*
X160515238Y-95661095D01*
X160639065Y-95537268D01*
X160736355Y-95391663D01*
X160803370Y-95229876D01*
X160837534Y-95058123D01*
X160837534Y-94883005D01*
X160803370Y-94711252D01*
X160736355Y-94549465D01*
X160639065Y-94403860D01*
X160515238Y-94280033D01*
X160369633Y-94182743D01*
X160207846Y-94115728D01*
X160036093Y-94081564D01*
X159860975Y-94081564D01*
X159689222Y-94115728D01*
X159527435Y-94182743D01*
X159381830Y-94280033D01*
X159300899Y-94360964D01*
X158235714Y-94360964D01*
X158205775Y-94358015D01*
X158175836Y-94360964D01*
X158175835Y-94360964D01*
X158086274Y-94369785D01*
X157971364Y-94404643D01*
X157865462Y-94461248D01*
X157772638Y-94537426D01*
X157753545Y-94560691D01*
X154149105Y-98165132D01*
X154125841Y-98184224D01*
X154058841Y-98265865D01*
X154049663Y-98277048D01*
X153993058Y-98382950D01*
X153958199Y-98497860D01*
X153946429Y-98617362D01*
X153949379Y-98647313D01*
X153949378Y-100839518D01*
X153593669Y-101195227D01*
X153615420Y-101142716D01*
X153652220Y-100957713D01*
X153652220Y-100769087D01*
X153615420Y-100584084D01*
X153543236Y-100409816D01*
X153438441Y-100252979D01*
X153305061Y-100119599D01*
X153148224Y-100014804D01*
X152973956Y-99942620D01*
X152788953Y-99905820D01*
X152600327Y-99905820D01*
X152415324Y-99942620D01*
X152241056Y-100014804D01*
X152084219Y-100119599D01*
X151950839Y-100252979D01*
X151846044Y-100409816D01*
X151773860Y-100584084D01*
X151737060Y-100769087D01*
X151737060Y-100957713D01*
X151773860Y-101142716D01*
X151846044Y-101316984D01*
X151950839Y-101473821D01*
X152084219Y-101607201D01*
X152241056Y-101711996D01*
X152415324Y-101784180D01*
X152600327Y-101820980D01*
X152788953Y-101820980D01*
X152973956Y-101784180D01*
X153026467Y-101762429D01*
X152274485Y-102514412D01*
X144665635Y-102514412D01*
X144584704Y-102433481D01*
X144439099Y-102336191D01*
X144277312Y-102269176D01*
X144105559Y-102235012D01*
X143930441Y-102235012D01*
X143758688Y-102269176D01*
X143596901Y-102336191D01*
X143451296Y-102433481D01*
X143327469Y-102557308D01*
X143230179Y-102702913D01*
X143163164Y-102864700D01*
X143135546Y-103003544D01*
X142996694Y-103031164D01*
X142834907Y-103098179D01*
X142689302Y-103195469D01*
X142565475Y-103319296D01*
X142468185Y-103464901D01*
X142401170Y-103626688D01*
X142367006Y-103798441D01*
X142367006Y-103973559D01*
X142401170Y-104145312D01*
X142468185Y-104307099D01*
X142565475Y-104452704D01*
X142689302Y-104576531D01*
X142834907Y-104673821D01*
X142948403Y-104720833D01*
X142825497Y-104771743D01*
X142679892Y-104869033D01*
X142556065Y-104992860D01*
X142458775Y-105138465D01*
X142391760Y-105300252D01*
X142357596Y-105472005D01*
X142357596Y-105647123D01*
X142391760Y-105818876D01*
X142432819Y-105918000D01*
X127762000Y-105918000D01*
X127762000Y-101237256D01*
X131572000Y-101237256D01*
X131572000Y-101962744D01*
X131713536Y-102674291D01*
X131991168Y-103344554D01*
X132394227Y-103947775D01*
X132907225Y-104460773D01*
X133510446Y-104863832D01*
X134180709Y-105141464D01*
X134892256Y-105283000D01*
X135617744Y-105283000D01*
X136329291Y-105141464D01*
X136999554Y-104863832D01*
X137602775Y-104460773D01*
X138115773Y-103947775D01*
X138518832Y-103344554D01*
X138796464Y-102674291D01*
X138938000Y-101962744D01*
X138938000Y-101237256D01*
X138844876Y-100769087D01*
X147340320Y-100769087D01*
X147340320Y-100957713D01*
X147377120Y-101142716D01*
X147449304Y-101316984D01*
X147554099Y-101473821D01*
X147687479Y-101607201D01*
X147844316Y-101711996D01*
X148018584Y-101784180D01*
X148203587Y-101820980D01*
X148392213Y-101820980D01*
X148577216Y-101784180D01*
X148751484Y-101711996D01*
X148908321Y-101607201D01*
X149041701Y-101473821D01*
X149146496Y-101316984D01*
X149218680Y-101142716D01*
X149255480Y-100957713D01*
X149255480Y-100769087D01*
X149218680Y-100584084D01*
X149146496Y-100409816D01*
X149041701Y-100252979D01*
X148908321Y-100119599D01*
X148751484Y-100014804D01*
X148577216Y-99942620D01*
X148392213Y-99905820D01*
X148203587Y-99905820D01*
X148018584Y-99942620D01*
X147844316Y-100014804D01*
X147687479Y-100119599D01*
X147554099Y-100252979D01*
X147449304Y-100409816D01*
X147377120Y-100584084D01*
X147340320Y-100769087D01*
X138844876Y-100769087D01*
X138796464Y-100525709D01*
X138518832Y-99855446D01*
X138115773Y-99252225D01*
X137602775Y-98739227D01*
X136999554Y-98336168D01*
X136329291Y-98058536D01*
X135617744Y-97917000D01*
X134892256Y-97917000D01*
X134180709Y-98058536D01*
X133510446Y-98336168D01*
X132907225Y-98739227D01*
X132394227Y-99252225D01*
X131991168Y-99855446D01*
X131713536Y-100525709D01*
X131572000Y-101237256D01*
X127762000Y-101237256D01*
X127762000Y-84580173D01*
X131788000Y-84580173D01*
X131788000Y-84837827D01*
X131838266Y-85090530D01*
X131936865Y-85328570D01*
X132080010Y-85542801D01*
X132262199Y-85724990D01*
X132476430Y-85868135D01*
X132714470Y-85966734D01*
X132776135Y-85979000D01*
X132714470Y-85991266D01*
X132476430Y-86089865D01*
X132262199Y-86233010D01*
X132080010Y-86415199D01*
X131936865Y-86629430D01*
X131838266Y-86867470D01*
X131788000Y-87120173D01*
X131788000Y-87377827D01*
X131838266Y-87630530D01*
X131936865Y-87868570D01*
X132080010Y-88082801D01*
X132262199Y-88264990D01*
X132476430Y-88408135D01*
X132714470Y-88506734D01*
X132776135Y-88519000D01*
X132714470Y-88531266D01*
X132476430Y-88629865D01*
X132262199Y-88773010D01*
X132080010Y-88955199D01*
X131936865Y-89169430D01*
X131838266Y-89407470D01*
X131788000Y-89660173D01*
X131788000Y-89917827D01*
X131838266Y-90170530D01*
X131936865Y-90408570D01*
X132080010Y-90622801D01*
X132262199Y-90804990D01*
X132476430Y-90948135D01*
X132714470Y-91046734D01*
X132776135Y-91059000D01*
X132714470Y-91071266D01*
X132476430Y-91169865D01*
X132262199Y-91313010D01*
X132080010Y-91495199D01*
X131936865Y-91709430D01*
X131838266Y-91947470D01*
X131788000Y-92200173D01*
X131788000Y-92457827D01*
X131838266Y-92710530D01*
X131936865Y-92948570D01*
X132080010Y-93162801D01*
X132262199Y-93344990D01*
X132476430Y-93488135D01*
X132714470Y-93586734D01*
X132967173Y-93637000D01*
X133224827Y-93637000D01*
X133477530Y-93586734D01*
X133715570Y-93488135D01*
X133929801Y-93344990D01*
X134111990Y-93162801D01*
X134255135Y-92948570D01*
X134353734Y-92710530D01*
X134366000Y-92648865D01*
X134378266Y-92710530D01*
X134476865Y-92948570D01*
X134620010Y-93162801D01*
X134802199Y-93344990D01*
X135016430Y-93488135D01*
X135254470Y-93586734D01*
X135316135Y-93599000D01*
X135254470Y-93611266D01*
X135016430Y-93709865D01*
X134802199Y-93853010D01*
X134620010Y-94035199D01*
X134476865Y-94249430D01*
X134378266Y-94487470D01*
X134328000Y-94740173D01*
X134328000Y-94997827D01*
X134378266Y-95250530D01*
X134476865Y-95488570D01*
X134620010Y-95702801D01*
X134802199Y-95884990D01*
X135016430Y-96028135D01*
X135254470Y-96126734D01*
X135507173Y-96177000D01*
X135764827Y-96177000D01*
X136017530Y-96126734D01*
X136255570Y-96028135D01*
X136469801Y-95884990D01*
X136533291Y-95821500D01*
X141778785Y-95821500D01*
X141918723Y-95807717D01*
X142098269Y-95753252D01*
X142263741Y-95664806D01*
X142408778Y-95545778D01*
X142527806Y-95400741D01*
X142616252Y-95235269D01*
X142670717Y-95055723D01*
X142689108Y-94869000D01*
X142670717Y-94682277D01*
X142616252Y-94502731D01*
X142527806Y-94337259D01*
X142408778Y-94192222D01*
X142263741Y-94073194D01*
X142098269Y-93984748D01*
X141918723Y-93930283D01*
X141778785Y-93916500D01*
X136533291Y-93916500D01*
X136469801Y-93853010D01*
X136255570Y-93709865D01*
X136017530Y-93611266D01*
X135955865Y-93599000D01*
X136017530Y-93586734D01*
X136255570Y-93488135D01*
X136469801Y-93344990D01*
X136651990Y-93162801D01*
X136795135Y-92948570D01*
X136799265Y-92938600D01*
X137869056Y-92938600D01*
X137896187Y-93004099D01*
X137993477Y-93149704D01*
X138117304Y-93273531D01*
X138262909Y-93370821D01*
X138424696Y-93437836D01*
X138596449Y-93472000D01*
X138771567Y-93472000D01*
X138943320Y-93437836D01*
X139105107Y-93370821D01*
X139250712Y-93273531D01*
X139374539Y-93149704D01*
X139471829Y-93004099D01*
X139538844Y-92842312D01*
X139573008Y-92670559D01*
X139573008Y-92495441D01*
X139538844Y-92323688D01*
X139471829Y-92161901D01*
X139374539Y-92016296D01*
X139250712Y-91892469D01*
X139105107Y-91795179D01*
X138943320Y-91728164D01*
X138771567Y-91694000D01*
X138596449Y-91694000D01*
X138465839Y-91719980D01*
X138459949Y-91719400D01*
X138430008Y-91716451D01*
X138400067Y-91719400D01*
X136799265Y-91719400D01*
X136795135Y-91709430D01*
X136767854Y-91668601D01*
X139573020Y-91668601D01*
X139573020Y-91781559D01*
X139607184Y-91953312D01*
X139674199Y-92115099D01*
X139771489Y-92260704D01*
X139895316Y-92384531D01*
X140040921Y-92481821D01*
X140202708Y-92548836D01*
X140374461Y-92583000D01*
X140549579Y-92583000D01*
X140721332Y-92548836D01*
X140883119Y-92481821D01*
X141028724Y-92384531D01*
X141152551Y-92260704D01*
X141249841Y-92115099D01*
X141316856Y-91953312D01*
X141351020Y-91781559D01*
X141351020Y-91606441D01*
X141316856Y-91434688D01*
X141249841Y-91272901D01*
X141152551Y-91127296D01*
X141028724Y-91003469D01*
X140883119Y-90906179D01*
X140721332Y-90839164D01*
X140549579Y-90805000D01*
X140435123Y-90805000D01*
X140279256Y-90649133D01*
X140260159Y-90625863D01*
X140167335Y-90549685D01*
X140061433Y-90493080D01*
X139946523Y-90458222D01*
X139939485Y-90457529D01*
X139954000Y-90384559D01*
X139954000Y-90209441D01*
X139919836Y-90037688D01*
X139852821Y-89875901D01*
X139755531Y-89730296D01*
X139631704Y-89606469D01*
X139486099Y-89509179D01*
X139337052Y-89447441D01*
X149860000Y-89447441D01*
X149860000Y-89622559D01*
X149894164Y-89794312D01*
X149961179Y-89956099D01*
X150058469Y-90101704D01*
X150182296Y-90225531D01*
X150327901Y-90322821D01*
X150489688Y-90389836D01*
X150661441Y-90424000D01*
X150836559Y-90424000D01*
X151008312Y-90389836D01*
X151170099Y-90322821D01*
X151315704Y-90225531D01*
X151439531Y-90101704D01*
X151536821Y-89956099D01*
X151603836Y-89794312D01*
X151638000Y-89622559D01*
X151638000Y-89508307D01*
X151741002Y-89405305D01*
X151855457Y-89405305D01*
X152027210Y-89371141D01*
X152188997Y-89304126D01*
X152334602Y-89206836D01*
X152458429Y-89083009D01*
X152555719Y-88937404D01*
X152622734Y-88775617D01*
X152656898Y-88603864D01*
X152656898Y-88428746D01*
X152622734Y-88256993D01*
X152555719Y-88095206D01*
X152458429Y-87949601D01*
X152334602Y-87825774D01*
X152188997Y-87728484D01*
X152027210Y-87661469D01*
X151855457Y-87627305D01*
X151680339Y-87627305D01*
X151508586Y-87661469D01*
X151346799Y-87728484D01*
X151201194Y-87825774D01*
X151077367Y-87949601D01*
X150980077Y-88095206D01*
X150913062Y-88256993D01*
X150878898Y-88428746D01*
X150878898Y-88543201D01*
X150776099Y-88646000D01*
X150661441Y-88646000D01*
X150489688Y-88680164D01*
X150327901Y-88747179D01*
X150182296Y-88844469D01*
X150058469Y-88968296D01*
X149961179Y-89113901D01*
X149894164Y-89275688D01*
X149860000Y-89447441D01*
X139337052Y-89447441D01*
X139324312Y-89442164D01*
X139152559Y-89408000D01*
X138977441Y-89408000D01*
X138805688Y-89442164D01*
X138643901Y-89509179D01*
X138498296Y-89606469D01*
X138417365Y-89687400D01*
X136944000Y-89687400D01*
X136944000Y-89660173D01*
X136893734Y-89407470D01*
X136795135Y-89169430D01*
X136651990Y-88955199D01*
X136469801Y-88773010D01*
X136255570Y-88629865D01*
X136017530Y-88531266D01*
X135955865Y-88519000D01*
X136017530Y-88506734D01*
X136255570Y-88408135D01*
X136469801Y-88264990D01*
X136651990Y-88082801D01*
X136795135Y-87868570D01*
X136893734Y-87630530D01*
X136944000Y-87377827D01*
X136944000Y-87120173D01*
X136893734Y-86867470D01*
X136795135Y-86629430D01*
X136651990Y-86415199D01*
X136469801Y-86233010D01*
X136255570Y-86089865D01*
X136017530Y-85991266D01*
X135955865Y-85979000D01*
X136017530Y-85966734D01*
X136255570Y-85868135D01*
X136469801Y-85724990D01*
X136651990Y-85542801D01*
X136795135Y-85328570D01*
X136893734Y-85090530D01*
X136944000Y-84837827D01*
X136944000Y-84580173D01*
X136893734Y-84327470D01*
X136795135Y-84089430D01*
X136651990Y-83875199D01*
X136469801Y-83693010D01*
X136255570Y-83549865D01*
X136017530Y-83451266D01*
X135764827Y-83401000D01*
X135507173Y-83401000D01*
X135254470Y-83451266D01*
X135016430Y-83549865D01*
X134802199Y-83693010D01*
X134620010Y-83875199D01*
X134476865Y-84089430D01*
X134378266Y-84327470D01*
X134366000Y-84389135D01*
X134353734Y-84327470D01*
X134255135Y-84089430D01*
X134111990Y-83875199D01*
X133929801Y-83693010D01*
X133715570Y-83549865D01*
X133477530Y-83451266D01*
X133224827Y-83401000D01*
X132967173Y-83401000D01*
X132714470Y-83451266D01*
X132476430Y-83549865D01*
X132262199Y-83693010D01*
X132080010Y-83875199D01*
X131936865Y-84089430D01*
X131838266Y-84327470D01*
X131788000Y-84580173D01*
X127762000Y-84580173D01*
X127762000Y-79306000D01*
X128895543Y-79306000D01*
X128895543Y-80206000D01*
X128905351Y-80305585D01*
X128934399Y-80401343D01*
X128981571Y-80489595D01*
X129045052Y-80566948D01*
X129122405Y-80630429D01*
X129210657Y-80677601D01*
X129306415Y-80706649D01*
X129406000Y-80716457D01*
X130106000Y-80716457D01*
X130205585Y-80706649D01*
X130301343Y-80677601D01*
X130389595Y-80630429D01*
X130466948Y-80566948D01*
X130530429Y-80489595D01*
X130556000Y-80441755D01*
X130581571Y-80489595D01*
X130645052Y-80566948D01*
X130722405Y-80630429D01*
X130810657Y-80677601D01*
X130906415Y-80706649D01*
X131006000Y-80716457D01*
X131706000Y-80716457D01*
X131805585Y-80706649D01*
X131901343Y-80677601D01*
X131989595Y-80630429D01*
X132066948Y-80566948D01*
X132130429Y-80489595D01*
X132177601Y-80401343D01*
X132206649Y-80305585D01*
X132216457Y-80206000D01*
X132216457Y-79306000D01*
X132206649Y-79206415D01*
X132177601Y-79110657D01*
X132130429Y-79022405D01*
X132066948Y-78945052D01*
X131989595Y-78881571D01*
X131901343Y-78834399D01*
X131851400Y-78819249D01*
X131851400Y-78447835D01*
X131881531Y-78417704D01*
X131978821Y-78272099D01*
X132045836Y-78110312D01*
X132080000Y-77938559D01*
X132080000Y-77763441D01*
X132045836Y-77591688D01*
X131978821Y-77429901D01*
X131881531Y-77284296D01*
X131757704Y-77160469D01*
X131612099Y-77063179D01*
X131450312Y-76996164D01*
X131278559Y-76962000D01*
X131103441Y-76962000D01*
X130931688Y-76996164D01*
X130769901Y-77063179D01*
X130624296Y-77160469D01*
X130556000Y-77228765D01*
X130487704Y-77160469D01*
X130342099Y-77063179D01*
X130180312Y-76996164D01*
X130008559Y-76962000D01*
X129833441Y-76962000D01*
X129661688Y-76996164D01*
X129499901Y-77063179D01*
X129354296Y-77160469D01*
X129230469Y-77284296D01*
X129133179Y-77429901D01*
X129066164Y-77591688D01*
X129032000Y-77763441D01*
X129032000Y-77938559D01*
X129066164Y-78110312D01*
X129133179Y-78272099D01*
X129230469Y-78417704D01*
X129260601Y-78447836D01*
X129260600Y-78819249D01*
X129210657Y-78834399D01*
X129122405Y-78881571D01*
X129045052Y-78945052D01*
X128981571Y-79022405D01*
X128934399Y-79110657D01*
X128905351Y-79206415D01*
X128895543Y-79306000D01*
X127762000Y-79306000D01*
X127762000Y-69487256D01*
X130937000Y-69487256D01*
X130937000Y-70212744D01*
X131078536Y-70924291D01*
X131356168Y-71594554D01*
X131759227Y-72197775D01*
X132272225Y-72710773D01*
X132875446Y-73113832D01*
X133545709Y-73391464D01*
X134257256Y-73533000D01*
X134982744Y-73533000D01*
X135694291Y-73391464D01*
X136364554Y-73113832D01*
X136687569Y-72898000D01*
X138869892Y-72898000D01*
X138874501Y-72944795D01*
X138874500Y-77643784D01*
X138888283Y-77783722D01*
X138942748Y-77963268D01*
X139031194Y-78128741D01*
X139150222Y-78273778D01*
X139295259Y-78392806D01*
X139460731Y-78481252D01*
X139640277Y-78535717D01*
X139827000Y-78554108D01*
X140013722Y-78535717D01*
X140193268Y-78481252D01*
X140358741Y-78392806D01*
X140503778Y-78273778D01*
X140622806Y-78128741D01*
X140711252Y-77963269D01*
X140765717Y-77783723D01*
X140779500Y-77643785D01*
X140779500Y-74933098D01*
X144284000Y-74933098D01*
X144284000Y-75180902D01*
X144332344Y-75423945D01*
X144427175Y-75652886D01*
X144564848Y-75858928D01*
X144740072Y-76034152D01*
X144946114Y-76171825D01*
X145175055Y-76266656D01*
X145418098Y-76315000D01*
X145665902Y-76315000D01*
X145908945Y-76266656D01*
X146137886Y-76171825D01*
X146343928Y-76034152D01*
X146519152Y-75858928D01*
X146656825Y-75652886D01*
X146751656Y-75423945D01*
X146800000Y-75180902D01*
X146800000Y-74933098D01*
X146751656Y-74690055D01*
X146656825Y-74461114D01*
X146519152Y-74255072D01*
X146343928Y-74079848D01*
X146137886Y-73942175D01*
X145908945Y-73847344D01*
X145665902Y-73799000D01*
X145418098Y-73799000D01*
X145175055Y-73847344D01*
X144946114Y-73942175D01*
X144740072Y-74079848D01*
X144564848Y-74255072D01*
X144427175Y-74461114D01*
X144332344Y-74690055D01*
X144284000Y-74933098D01*
X140779500Y-74933098D01*
X140779500Y-73292538D01*
X142245436Y-71826603D01*
X142281778Y-71796778D01*
X142318175Y-71752428D01*
X142365684Y-71841313D01*
X142441862Y-71934138D01*
X142465132Y-71953235D01*
X142748000Y-72236103D01*
X142748000Y-72350559D01*
X142782164Y-72522312D01*
X142849179Y-72684099D01*
X142946469Y-72829704D01*
X143070296Y-72953531D01*
X143215901Y-73050821D01*
X143377688Y-73117836D01*
X143549441Y-73152000D01*
X143724559Y-73152000D01*
X143896312Y-73117836D01*
X144058099Y-73050821D01*
X144203704Y-72953531D01*
X144327531Y-72829704D01*
X144424821Y-72684099D01*
X144491836Y-72522312D01*
X144526000Y-72350559D01*
X144526000Y-72175441D01*
X144491836Y-72003688D01*
X144424821Y-71841901D01*
X144327531Y-71696296D01*
X144203704Y-71572469D01*
X144058099Y-71475179D01*
X143896312Y-71408164D01*
X143724559Y-71374000D01*
X143610103Y-71374000D01*
X143484600Y-71248497D01*
X143484600Y-70921718D01*
X143549114Y-70964825D01*
X143778055Y-71059656D01*
X144021098Y-71108000D01*
X144268902Y-71108000D01*
X144511945Y-71059656D01*
X144740886Y-70964825D01*
X144946928Y-70827152D01*
X145122152Y-70651928D01*
X145259825Y-70445886D01*
X145354656Y-70216945D01*
X145403000Y-69973902D01*
X145403000Y-69726098D01*
X145427000Y-69726098D01*
X145427000Y-69973902D01*
X145475344Y-70216945D01*
X145570175Y-70445886D01*
X145707848Y-70651928D01*
X145883072Y-70827152D01*
X146089114Y-70964825D01*
X146318055Y-71059656D01*
X146561098Y-71108000D01*
X146808902Y-71108000D01*
X147051945Y-71059656D01*
X147280886Y-70964825D01*
X147486928Y-70827152D01*
X147662152Y-70651928D01*
X147799825Y-70445886D01*
X147894656Y-70216945D01*
X147943000Y-69973902D01*
X147943000Y-69726098D01*
X147967000Y-69726098D01*
X147967000Y-69973902D01*
X148015344Y-70216945D01*
X148110175Y-70445886D01*
X148247848Y-70651928D01*
X148423072Y-70827152D01*
X148629114Y-70964825D01*
X148858055Y-71059656D01*
X149101098Y-71108000D01*
X149348902Y-71108000D01*
X149591945Y-71059656D01*
X149820886Y-70964825D01*
X150026928Y-70827152D01*
X150202152Y-70651928D01*
X150339825Y-70445886D01*
X150434656Y-70216945D01*
X150483000Y-69973902D01*
X150483000Y-69726098D01*
X150507000Y-69726098D01*
X150507000Y-69973902D01*
X150555344Y-70216945D01*
X150650175Y-70445886D01*
X150787848Y-70651928D01*
X150963072Y-70827152D01*
X151169114Y-70964825D01*
X151398055Y-71059656D01*
X151641098Y-71108000D01*
X151888902Y-71108000D01*
X152131945Y-71059656D01*
X152360886Y-70964825D01*
X152566928Y-70827152D01*
X152742152Y-70651928D01*
X152879825Y-70445886D01*
X152974656Y-70216945D01*
X153023000Y-69973902D01*
X153023000Y-69726098D01*
X153047000Y-69726098D01*
X153047000Y-69973902D01*
X153095344Y-70216945D01*
X153190175Y-70445886D01*
X153327848Y-70651928D01*
X153503072Y-70827152D01*
X153709114Y-70964825D01*
X153938055Y-71059656D01*
X154181098Y-71108000D01*
X154428902Y-71108000D01*
X154671945Y-71059656D01*
X154900886Y-70964825D01*
X155106928Y-70827152D01*
X155282152Y-70651928D01*
X155419825Y-70445886D01*
X155514656Y-70216945D01*
X155563000Y-69973902D01*
X155563000Y-69726098D01*
X155515492Y-69487256D01*
X156337000Y-69487256D01*
X156337000Y-70212744D01*
X156478536Y-70924291D01*
X156756168Y-71594554D01*
X157159227Y-72197775D01*
X157672225Y-72710773D01*
X158275446Y-73113832D01*
X158945709Y-73391464D01*
X159657256Y-73533000D01*
X160382744Y-73533000D01*
X161094291Y-73391464D01*
X161764554Y-73113832D01*
X162367775Y-72710773D01*
X162880773Y-72197775D01*
X163283832Y-71594554D01*
X163561464Y-70924291D01*
X163703000Y-70212744D01*
X163703000Y-69487256D01*
X163561464Y-68775709D01*
X163283832Y-68105446D01*
X162880773Y-67502225D01*
X162367775Y-66989227D01*
X161764554Y-66586168D01*
X161094291Y-66308536D01*
X160382744Y-66167000D01*
X159657256Y-66167000D01*
X158945709Y-66308536D01*
X158275446Y-66586168D01*
X157672225Y-66989227D01*
X157159227Y-67502225D01*
X156756168Y-68105446D01*
X156478536Y-68775709D01*
X156337000Y-69487256D01*
X155515492Y-69487256D01*
X155514656Y-69483055D01*
X155419825Y-69254114D01*
X155282152Y-69048072D01*
X155106928Y-68872848D01*
X154900886Y-68735175D01*
X154671945Y-68640344D01*
X154428902Y-68592000D01*
X154181098Y-68592000D01*
X153938055Y-68640344D01*
X153709114Y-68735175D01*
X153503072Y-68872848D01*
X153327848Y-69048072D01*
X153190175Y-69254114D01*
X153095344Y-69483055D01*
X153047000Y-69726098D01*
X153023000Y-69726098D01*
X152974656Y-69483055D01*
X152879825Y-69254114D01*
X152742152Y-69048072D01*
X152566928Y-68872848D01*
X152360886Y-68735175D01*
X152131945Y-68640344D01*
X151888902Y-68592000D01*
X151641098Y-68592000D01*
X151398055Y-68640344D01*
X151169114Y-68735175D01*
X150963072Y-68872848D01*
X150787848Y-69048072D01*
X150650175Y-69254114D01*
X150555344Y-69483055D01*
X150507000Y-69726098D01*
X150483000Y-69726098D01*
X150434656Y-69483055D01*
X150339825Y-69254114D01*
X150202152Y-69048072D01*
X150026928Y-68872848D01*
X149820886Y-68735175D01*
X149591945Y-68640344D01*
X149348902Y-68592000D01*
X149101098Y-68592000D01*
X148858055Y-68640344D01*
X148629114Y-68735175D01*
X148423072Y-68872848D01*
X148247848Y-69048072D01*
X148110175Y-69254114D01*
X148015344Y-69483055D01*
X147967000Y-69726098D01*
X147943000Y-69726098D01*
X147894656Y-69483055D01*
X147799825Y-69254114D01*
X147662152Y-69048072D01*
X147486928Y-68872848D01*
X147280886Y-68735175D01*
X147051945Y-68640344D01*
X146808902Y-68592000D01*
X146561098Y-68592000D01*
X146318055Y-68640344D01*
X146089114Y-68735175D01*
X145883072Y-68872848D01*
X145707848Y-69048072D01*
X145570175Y-69254114D01*
X145475344Y-69483055D01*
X145427000Y-69726098D01*
X145403000Y-69726098D01*
X145354656Y-69483055D01*
X145259825Y-69254114D01*
X145122152Y-69048072D01*
X144946928Y-68872848D01*
X144740886Y-68735175D01*
X144511945Y-68640344D01*
X144268902Y-68592000D01*
X144021098Y-68592000D01*
X143778055Y-68640344D01*
X143549114Y-68735175D01*
X143368735Y-68855700D01*
X143308138Y-68781862D01*
X143284873Y-68762769D01*
X142692236Y-68170133D01*
X142673139Y-68146863D01*
X142580315Y-68070685D01*
X142474413Y-68014080D01*
X142359503Y-67979222D01*
X142269942Y-67970401D01*
X142240001Y-67967452D01*
X142210060Y-67970401D01*
X140745940Y-67970401D01*
X140715999Y-67967452D01*
X140596496Y-67979222D01*
X140561638Y-67989796D01*
X140481587Y-68014080D01*
X140375685Y-68070685D01*
X140374083Y-68072000D01*
X140247441Y-68072000D01*
X140075688Y-68106164D01*
X139913901Y-68173179D01*
X139768296Y-68270469D01*
X139644469Y-68394296D01*
X139547179Y-68539901D01*
X139480164Y-68701688D01*
X139446000Y-68873441D01*
X139446000Y-69048559D01*
X139480164Y-69220312D01*
X139547179Y-69382099D01*
X139644469Y-69527704D01*
X139768296Y-69651531D01*
X139913901Y-69748821D01*
X140075688Y-69815836D01*
X140247441Y-69850000D01*
X140347000Y-69850000D01*
X140347000Y-69973902D01*
X140395344Y-70216945D01*
X140490175Y-70445886D01*
X140627848Y-70651928D01*
X140652500Y-70676580D01*
X140652500Y-70725461D01*
X139186564Y-72191398D01*
X139150223Y-72221222D01*
X139120399Y-72257563D01*
X139031194Y-72366260D01*
X138942749Y-72531731D01*
X138888283Y-72711278D01*
X138869892Y-72898000D01*
X136687569Y-72898000D01*
X136967775Y-72710773D01*
X137480773Y-72197775D01*
X137883832Y-71594554D01*
X138161464Y-70924291D01*
X138303000Y-70212744D01*
X138303000Y-69487256D01*
X138161464Y-68775709D01*
X137883832Y-68105446D01*
X137480773Y-67502225D01*
X137164646Y-67186098D01*
X142887000Y-67186098D01*
X142887000Y-67433902D01*
X142935344Y-67676945D01*
X143030175Y-67905886D01*
X143167848Y-68111928D01*
X143343072Y-68287152D01*
X143549114Y-68424825D01*
X143778055Y-68519656D01*
X144021098Y-68568000D01*
X144268902Y-68568000D01*
X144511945Y-68519656D01*
X144740886Y-68424825D01*
X144946928Y-68287152D01*
X145122152Y-68111928D01*
X145259825Y-67905886D01*
X145354656Y-67676945D01*
X145403000Y-67433902D01*
X145403000Y-67186098D01*
X145427000Y-67186098D01*
X145427000Y-67433902D01*
X145475344Y-67676945D01*
X145570175Y-67905886D01*
X145707848Y-68111928D01*
X145883072Y-68287152D01*
X146089114Y-68424825D01*
X146318055Y-68519656D01*
X146561098Y-68568000D01*
X146808902Y-68568000D01*
X147051945Y-68519656D01*
X147280886Y-68424825D01*
X147486928Y-68287152D01*
X147662152Y-68111928D01*
X147799825Y-67905886D01*
X147894656Y-67676945D01*
X147943000Y-67433902D01*
X147943000Y-67186098D01*
X147967000Y-67186098D01*
X147967000Y-67433902D01*
X148015344Y-67676945D01*
X148110175Y-67905886D01*
X148247848Y-68111928D01*
X148423072Y-68287152D01*
X148629114Y-68424825D01*
X148858055Y-68519656D01*
X149101098Y-68568000D01*
X149348902Y-68568000D01*
X149591945Y-68519656D01*
X149820886Y-68424825D01*
X150026928Y-68287152D01*
X150202152Y-68111928D01*
X150339825Y-67905886D01*
X150434656Y-67676945D01*
X150483000Y-67433902D01*
X150483000Y-67186098D01*
X150507000Y-67186098D01*
X150507000Y-67433902D01*
X150555344Y-67676945D01*
X150650175Y-67905886D01*
X150787848Y-68111928D01*
X150963072Y-68287152D01*
X151169114Y-68424825D01*
X151398055Y-68519656D01*
X151641098Y-68568000D01*
X151888902Y-68568000D01*
X152131945Y-68519656D01*
X152360886Y-68424825D01*
X152566928Y-68287152D01*
X152742152Y-68111928D01*
X152879825Y-67905886D01*
X152974656Y-67676945D01*
X153023000Y-67433902D01*
X153023000Y-67186098D01*
X153047000Y-67186098D01*
X153047000Y-67433902D01*
X153095344Y-67676945D01*
X153190175Y-67905886D01*
X153327848Y-68111928D01*
X153503072Y-68287152D01*
X153709114Y-68424825D01*
X153938055Y-68519656D01*
X154181098Y-68568000D01*
X154428902Y-68568000D01*
X154671945Y-68519656D01*
X154900886Y-68424825D01*
X155106928Y-68287152D01*
X155282152Y-68111928D01*
X155419825Y-67905886D01*
X155514656Y-67676945D01*
X155563000Y-67433902D01*
X155563000Y-67186098D01*
X155514656Y-66943055D01*
X155419825Y-66714114D01*
X155282152Y-66508072D01*
X155106928Y-66332848D01*
X154900886Y-66195175D01*
X154671945Y-66100344D01*
X154428902Y-66052000D01*
X154181098Y-66052000D01*
X153938055Y-66100344D01*
X153709114Y-66195175D01*
X153503072Y-66332848D01*
X153327848Y-66508072D01*
X153190175Y-66714114D01*
X153095344Y-66943055D01*
X153047000Y-67186098D01*
X153023000Y-67186098D01*
X152974656Y-66943055D01*
X152879825Y-66714114D01*
X152742152Y-66508072D01*
X152566928Y-66332848D01*
X152360886Y-66195175D01*
X152131945Y-66100344D01*
X151888902Y-66052000D01*
X151641098Y-66052000D01*
X151398055Y-66100344D01*
X151169114Y-66195175D01*
X150963072Y-66332848D01*
X150787848Y-66508072D01*
X150650175Y-66714114D01*
X150555344Y-66943055D01*
X150507000Y-67186098D01*
X150483000Y-67186098D01*
X150434656Y-66943055D01*
X150339825Y-66714114D01*
X150202152Y-66508072D01*
X150026928Y-66332848D01*
X149820886Y-66195175D01*
X149591945Y-66100344D01*
X149348902Y-66052000D01*
X149101098Y-66052000D01*
X148858055Y-66100344D01*
X148629114Y-66195175D01*
X148423072Y-66332848D01*
X148247848Y-66508072D01*
X148110175Y-66714114D01*
X148015344Y-66943055D01*
X147967000Y-67186098D01*
X147943000Y-67186098D01*
X147894656Y-66943055D01*
X147799825Y-66714114D01*
X147662152Y-66508072D01*
X147486928Y-66332848D01*
X147280886Y-66195175D01*
X147051945Y-66100344D01*
X146808902Y-66052000D01*
X146561098Y-66052000D01*
X146318055Y-66100344D01*
X146089114Y-66195175D01*
X145883072Y-66332848D01*
X145707848Y-66508072D01*
X145570175Y-66714114D01*
X145475344Y-66943055D01*
X145427000Y-67186098D01*
X145403000Y-67186098D01*
X145354656Y-66943055D01*
X145259825Y-66714114D01*
X145122152Y-66508072D01*
X144946928Y-66332848D01*
X144740886Y-66195175D01*
X144511945Y-66100344D01*
X144268902Y-66052000D01*
X144021098Y-66052000D01*
X143778055Y-66100344D01*
X143549114Y-66195175D01*
X143343072Y-66332848D01*
X143167848Y-66508072D01*
X143030175Y-66714114D01*
X142935344Y-66943055D01*
X142887000Y-67186098D01*
X137164646Y-67186098D01*
X136967775Y-66989227D01*
X136364554Y-66586168D01*
X135694291Y-66308536D01*
X134982744Y-66167000D01*
X134257256Y-66167000D01*
X133545709Y-66308536D01*
X132875446Y-66586168D01*
X132272225Y-66989227D01*
X131759227Y-67502225D01*
X131356168Y-68105446D01*
X131078536Y-68775709D01*
X130937000Y-69487256D01*
X127762000Y-69487256D01*
X127762000Y-65532000D01*
X168148000Y-65532000D01*
X168148000Y-69339543D01*
G36*
X155384500Y-73874933D02*
G01*
X155384501Y-74762440D01*
X155380506Y-74803000D01*
X155396445Y-74964826D01*
X155443647Y-75120433D01*
X155520301Y-75263842D01*
X155557923Y-75309684D01*
X155623460Y-75389541D01*
X155654961Y-75415393D01*
X157289500Y-77049934D01*
X157289501Y-77779624D01*
X157289500Y-77779633D01*
X157289500Y-78028865D01*
X157260164Y-78099688D01*
X157226000Y-78271441D01*
X157226000Y-78296261D01*
X157140585Y-78270351D01*
X157041000Y-78260543D01*
X156141000Y-78260543D01*
X156041415Y-78270351D01*
X155945657Y-78299399D01*
X155857405Y-78346571D01*
X155780052Y-78410052D01*
X155716571Y-78487405D01*
X155669399Y-78575657D01*
X155640351Y-78671415D01*
X155630543Y-78771000D01*
X155630543Y-79471000D01*
X155640351Y-79570585D01*
X155669399Y-79666343D01*
X155716571Y-79754595D01*
X155780052Y-79831948D01*
X155857405Y-79895429D01*
X155945657Y-79942601D01*
X156041415Y-79971649D01*
X156141000Y-79981457D01*
X157041000Y-79981457D01*
X157107778Y-79974880D01*
X157170469Y-80068704D01*
X157294296Y-80192531D01*
X157439901Y-80289821D01*
X157601688Y-80356836D01*
X157773441Y-80391000D01*
X157948559Y-80391000D01*
X158120312Y-80356836D01*
X158282099Y-80289821D01*
X158427704Y-80192531D01*
X158432501Y-80187734D01*
X158432500Y-81192067D01*
X157773068Y-81851500D01*
X157706933Y-81851500D01*
X157551457Y-81696025D01*
X157551457Y-81553000D01*
X157541649Y-81453415D01*
X157512601Y-81357657D01*
X157465429Y-81269405D01*
X157401948Y-81192052D01*
X157324595Y-81128571D01*
X157236343Y-81081399D01*
X157140585Y-81052351D01*
X157041000Y-81042543D01*
X156141000Y-81042543D01*
X156041415Y-81052351D01*
X155945657Y-81081399D01*
X155857405Y-81128571D01*
X155780052Y-81192052D01*
X155716571Y-81269405D01*
X155669399Y-81357657D01*
X155640351Y-81453415D01*
X155630543Y-81553000D01*
X155630543Y-82253000D01*
X155640351Y-82352585D01*
X155669399Y-82448343D01*
X155716571Y-82536595D01*
X155780052Y-82613948D01*
X155857405Y-82677429D01*
X155945657Y-82724601D01*
X156041415Y-82753649D01*
X156141000Y-82763457D01*
X156284025Y-82763457D01*
X156527501Y-83006933D01*
X156527500Y-84240067D01*
X155995068Y-84772500D01*
X153776524Y-84772500D01*
X153797000Y-84669559D01*
X153797000Y-84494441D01*
X153762836Y-84322688D01*
X153733500Y-84251865D01*
X153733500Y-83225550D01*
X153737494Y-83184999D01*
X153730066Y-83109584D01*
X153721556Y-83023174D01*
X153674353Y-82867566D01*
X153597699Y-82724158D01*
X153514457Y-82622727D01*
X153514457Y-82481000D01*
X153504649Y-82381415D01*
X153479500Y-82298510D01*
X153479500Y-77812733D01*
X153506541Y-77790541D01*
X153609699Y-77664842D01*
X153686353Y-77521434D01*
X153733556Y-77365826D01*
X153745500Y-77244553D01*
X153745500Y-77244551D01*
X153749494Y-77204000D01*
X153745500Y-77163450D01*
X153745500Y-75435490D01*
X153770649Y-75352585D01*
X153780457Y-75253000D01*
X153780457Y-74353000D01*
X153770649Y-74253415D01*
X153745500Y-74170510D01*
X153745500Y-74116910D01*
X153766275Y-74096136D01*
X153837099Y-74066799D01*
X153982704Y-73969509D01*
X154106531Y-73845682D01*
X154203821Y-73700077D01*
X154270836Y-73538290D01*
X154305000Y-73366537D01*
X154305000Y-73215500D01*
X154725068Y-73215500D01*
X155384500Y-73874933D01*
X155384500Y-73874933D01*
G37*
X155384500Y-73874933D02*
X155384501Y-74762440D01*
X155380506Y-74803000D01*
X155396445Y-74964826D01*
X155443647Y-75120433D01*
X155520301Y-75263842D01*
X155557923Y-75309684D01*
X155623460Y-75389541D01*
X155654961Y-75415393D01*
X157289500Y-77049934D01*
X157289501Y-77779624D01*
X157289500Y-77779633D01*
X157289500Y-78028865D01*
X157260164Y-78099688D01*
X157226000Y-78271441D01*
X157226000Y-78296261D01*
X157140585Y-78270351D01*
X157041000Y-78260543D01*
X156141000Y-78260543D01*
X156041415Y-78270351D01*
X155945657Y-78299399D01*
X155857405Y-78346571D01*
X155780052Y-78410052D01*
X155716571Y-78487405D01*
X155669399Y-78575657D01*
X155640351Y-78671415D01*
X155630543Y-78771000D01*
X155630543Y-79471000D01*
X155640351Y-79570585D01*
X155669399Y-79666343D01*
X155716571Y-79754595D01*
X155780052Y-79831948D01*
X155857405Y-79895429D01*
X155945657Y-79942601D01*
X156041415Y-79971649D01*
X156141000Y-79981457D01*
X157041000Y-79981457D01*
X157107778Y-79974880D01*
X157170469Y-80068704D01*
X157294296Y-80192531D01*
X157439901Y-80289821D01*
X157601688Y-80356836D01*
X157773441Y-80391000D01*
X157948559Y-80391000D01*
X158120312Y-80356836D01*
X158282099Y-80289821D01*
X158427704Y-80192531D01*
X158432501Y-80187734D01*
X158432500Y-81192067D01*
X157773068Y-81851500D01*
X157706933Y-81851500D01*
X157551457Y-81696025D01*
X157551457Y-81553000D01*
X157541649Y-81453415D01*
X157512601Y-81357657D01*
X157465429Y-81269405D01*
X157401948Y-81192052D01*
X157324595Y-81128571D01*
X157236343Y-81081399D01*
X157140585Y-81052351D01*
X157041000Y-81042543D01*
X156141000Y-81042543D01*
X156041415Y-81052351D01*
X155945657Y-81081399D01*
X155857405Y-81128571D01*
X155780052Y-81192052D01*
X155716571Y-81269405D01*
X155669399Y-81357657D01*
X155640351Y-81453415D01*
X155630543Y-81553000D01*
X155630543Y-82253000D01*
X155640351Y-82352585D01*
X155669399Y-82448343D01*
X155716571Y-82536595D01*
X155780052Y-82613948D01*
X155857405Y-82677429D01*
X155945657Y-82724601D01*
X156041415Y-82753649D01*
X156141000Y-82763457D01*
X156284025Y-82763457D01*
X156527501Y-83006933D01*
X156527500Y-84240067D01*
X155995068Y-84772500D01*
X153776524Y-84772500D01*
X153797000Y-84669559D01*
X153797000Y-84494441D01*
X153762836Y-84322688D01*
X153733500Y-84251865D01*
X153733500Y-83225550D01*
X153737494Y-83184999D01*
X153730066Y-83109584D01*
X153721556Y-83023174D01*
X153674353Y-82867566D01*
X153597699Y-82724158D01*
X153514457Y-82622727D01*
X153514457Y-82481000D01*
X153504649Y-82381415D01*
X153479500Y-82298510D01*
X153479500Y-77812733D01*
X153506541Y-77790541D01*
X153609699Y-77664842D01*
X153686353Y-77521434D01*
X153733556Y-77365826D01*
X153745500Y-77244553D01*
X153745500Y-77244551D01*
X153749494Y-77204000D01*
X153745500Y-77163450D01*
X153745500Y-75435490D01*
X153770649Y-75352585D01*
X153780457Y-75253000D01*
X153780457Y-74353000D01*
X153770649Y-74253415D01*
X153745500Y-74170510D01*
X153745500Y-74116910D01*
X153766275Y-74096136D01*
X153837099Y-74066799D01*
X153982704Y-73969509D01*
X154106531Y-73845682D01*
X154203821Y-73700077D01*
X154270836Y-73538290D01*
X154305000Y-73366537D01*
X154305000Y-73215500D01*
X154725068Y-73215500D01*
X155384500Y-73874933D01*
M02*
