M48
; DRILL file {KiCad (6.0.0-rc1-dev-1425-g4c184f07a)} date 12/27/2018 6:32:47 PM
; FORMAT={-:-/ absolute / metric / decimal}
; #@! TF.CreationDate,2018-12-27T18:32:47-05:00
; #@! TF.GenerationSoftware,Kicad,Pcbnew,(6.0.0-rc1-dev-1425-g4c184f07a)
FMAT,2
METRIC
T1C0.406
T2C0.701
T3C0.800
T4C1.000
T5C1.500
T6C3.048
T7C3.175
T8C3.251
%
G90
G05
T1
X67.869Y-185.979
X68.529Y-166.218
X68.885Y-126.441
X68.986Y-127.762
X69.088Y-145.288
X69.088Y-167.488
X69.24Y-187.249
X69.393Y-146.609
X72.009Y-203.073
X72.009Y-129.159
X72.072Y-161.1
X72.072Y-180.975
X72.136Y-140.462
X74.727Y-174.803
X74.727Y-177.343
X74.727Y-179.883
X74.727Y-191.719
X74.739Y-199.365
X74.74Y-196.825
X74.74Y-172.275
X74.778Y-194.259
X74.803Y-158.709
X74.803Y-139.192
X74.828Y-136.703
X74.828Y-131.623
X74.828Y-134.214
X74.93Y-153.629
X74.981Y-151.079
X74.981Y-156.159
X76.657Y-128.93
X82.677Y-59.182
X82.677Y-60.198
X82.677Y-61.341
X82.906Y-177.343
X82.906Y-179.934
X82.931Y-174.828
X82.956Y-172.314
X83.109Y-196.799
X83.109Y-199.39
X83.16Y-191.77
X83.16Y-194.259
X83.185Y-72.39
X83.185Y-73.66
X83.185Y-74.93
X83.185Y-79.375
X83.185Y-80.645
X83.185Y-81.915
X83.185Y-85.725
X83.185Y-86.995
X83.185Y-88.265
X83.185Y-92.075
X83.185Y-93.345
X83.185Y-94.615
X83.185Y-98.425
X83.185Y-99.695
X83.185Y-100.965
X83.185Y-104.775
X83.185Y-106.045
X83.185Y-107.315
X83.185Y-111.125
X83.185Y-112.395
X83.185Y-113.665
X83.185Y-117.475
X83.185Y-118.745
X83.185Y-120.015
X83.21Y-151.079
X83.21Y-153.619
X83.21Y-156.159
X83.21Y-158.75
X83.464Y-131.674
X83.464Y-134.163
X83.464Y-136.703
X83.464Y-139.243
X84.033Y-189.677
X84.531Y-194.869
X84.582Y-191.872
X84.938Y-200.0
X85.496Y-198.476
X86.512Y-197.46
X87.782Y-162.103
X87.833Y-141.173
X87.884Y-181.712
X89.662Y-124.46
X89.662Y-132.461
X94.996Y-208.915
X96.063Y-179.375
X96.139Y-209.677
X96.977Y-75.133
X97.028Y-210.566
X97.13Y-140.005
X97.13Y-145.186
X97.13Y-193.192
X97.155Y-127.381
X97.79Y-162.611
X97.79Y-175.463
X97.79Y-211.582
X97.841Y-157.785
X97.866Y-198.526
X98.755Y-207.62
X99.568Y-145.186
X99.67Y-206.858
X99.822Y-92.913
X100.228Y-167.589
X100.381Y-162.458
X100.435Y-114.405
X100.736Y-206.045
X101.854Y-204.343
X102.54Y-114.3
X102.54Y-117.221
X103.251Y-137.033
X103.251Y-139.065
X103.683Y-168.618
X104.013Y-211.963
X104.521Y-198.882
X109.474Y-209.042
X114.503Y-97.028
X114.935Y-185.217
X115.468Y-168.961
X115.976Y-95.707
X116.078Y-164.643
X116.078Y-80.061
X116.129Y-114.605
X116.23Y-113.081
X116.434Y-186.436
X116.434Y-167.945
X116.942Y-155.448
X117.221Y-184.15
X117.246Y-105.816
X117.297Y-180.035
X117.348Y-80.112
X117.45Y-103.124
X117.45Y-164.49
X117.602Y-213.106
X117.729Y-73.66
X117.856Y-176.936
X117.907Y-181.153
X118.008Y-156.108
X118.262Y-106.883
X118.466Y-80.112
X118.669Y-104.394
X118.669Y-175.92
X118.821Y-164.287
X119.024Y-165.608
X119.126Y-91.694
X119.253Y-116.586
X119.278Y-79.35
X119.295Y-156.729
X119.507Y-198.12
X119.736Y-127.457
X119.786Y-83.515
X119.84Y-84.95
X120.193Y-157.429
X120.294Y-108.407
X120.396Y-97.638
X120.408Y-194.425
X120.548Y-126.619
X120.674Y-78.994
X120.711Y-171.496
X120.744Y-122.809
X120.761Y-178.41
X120.817Y-148.987
X121.107Y-83.668
X121.361Y-160.426
X121.514Y-128.778
X121.971Y-141.883
X122.022Y-82.906
X122.123Y-78.105
X122.123Y-143.154
X122.174Y-73.025
X122.174Y-165.506
X122.174Y-188.011
X122.276Y-166.776
X122.326Y-122.885
X122.352Y-171.665
X122.428Y-128.168
X122.428Y-144.932
X122.53Y-186.69
X122.682Y-180.213
X122.733Y-92.964
X122.733Y-194.513
X123.038Y-80.145
X123.139Y-184.709
X123.19Y-90.551
X123.266Y-149.962
X123.419Y-99.12
X123.698Y-78.537
X123.901Y-163.83
X124.104Y-156.108
X124.104Y-116.332
X124.13Y-188.722
X124.257Y-191.008
X124.308Y-168.046
X124.409Y-152.832
X124.409Y-165.049
X124.46Y-74.27
X124.841Y-67.818
X125.095Y-80.01
X125.476Y-196.977
X125.486Y-156.412
X125.601Y-152.748
X125.882Y-155.397
X126.085Y-86.89
X126.111Y-111.76
X126.111Y-138.303
X126.111Y-160.782
X126.492Y-152.044
X127.254Y-151.282
X127.321Y-155.245
X127.508Y-184.15
X127.61Y-143.153
X127.762Y-92.964
X127.762Y-178.549
X127.838Y-127.61
X128.016Y-145.669
X128.143Y-126.492
X128.143Y-206.121
X128.397Y-176.276
X128.524Y-74.041
X128.78Y-119.179
X128.88Y-105.715
X128.88Y-108.814
X129.032Y-107.594
X129.134Y-92.862
X129.286Y-66.091
X129.286Y-68.072
X129.581Y-69.809
X129.667Y-211.963
X129.743Y-64.821
X129.794Y-73.914
X130.05Y-117.909
X130.251Y-67.056
X130.251Y-68.986
X130.302Y-164.846
X130.505Y-144.628
X130.607Y-89.764
X130.962Y-92.405
X131.064Y-87.249
X131.064Y-88.646
X131.216Y-114.656
X131.267Y-111.658
X131.318Y-138.938
X131.369Y-142.522
X131.445Y-75.565
X131.572Y-169.037
X131.826Y-117.5
X131.928Y-115.976
X131.953Y-170.815
X131.978Y-118.77
X132.08Y-74.93
X132.207Y-109.982
X132.334Y-113.436
X132.715Y-79.121
X132.715Y-206.375
X133.096Y-111.709
X133.35Y-78.359
X133.464Y-118.567
X133.604Y-105.41
X133.985Y-77.597
X133.985Y-176.784
X135.42Y-144.401
X135.465Y-141.955
X135.992Y-147.472
X136.017Y-135.128
X136.271Y-172.72
X136.398Y-138.557
X136.525Y-150.749
X137.249Y-205.905
X137.249Y-212.052
X137.617Y-171.704
X137.668Y-143.383
X137.706Y-165.125
X137.795Y-108.077
X137.795Y-168.808
X137.795Y-177.444
X137.795Y-181.127
X137.922Y-174.498
X138.43Y-92.964
X138.557Y-108.839
X138.557Y-109.855
X138.684Y-192.659
X138.938Y-93.726
X139.573Y-94.488
X139.827Y-200.66
X140.462Y-169.062
X140.589Y-138.938
X140.97Y-171.069
X141.326Y-103.124
X141.554Y-162.941
X142.342Y-132.588
X142.343Y-130.886
X142.494Y-127.203
X142.494Y-129.286
X142.621Y-207.772
X142.875Y-179.451
X142.951Y-156.566
X143.002Y-155.092
X143.104Y-144.526
X143.193Y-146.038
X143.256Y-131.775
X143.256Y-206.375
X143.408Y-128.219
X143.408Y-130.048
X143.459Y-126.238
X143.51Y-174.904
X144.526Y-89.154
X144.526Y-90.297
X144.526Y-91.44
X144.526Y-92.964
X144.78Y-212.344
X144.932Y-144.221
X144.983Y-154.229
X145.237Y-149.301
X145.39Y-138.735
X145.935Y-154.735
X146.05Y-78.105
X146.05Y-79.121
X146.05Y-80.01
X146.05Y-98.654
X146.101Y-143.51
X146.177Y-93.218
X146.355Y-110.592
X146.863Y-71.73
X146.939Y-162.687
X146.939Y-204.089
X147.015Y-154.788
X147.625Y-143.662
X147.879Y-149.352
X147.98Y-138.735
X148.742Y-70.104
X148.844Y-169.418
X148.971Y-170.942
X148.971Y-181.229
X149.098Y-182.753
X149.225Y-136.652
X149.708Y-144.17
X149.809Y-98.806
X149.86Y-81.636
X149.911Y-128.93
X149.962Y-110.846
X150.368Y-71.73
X150.825Y-143.408
X151.13Y-68.199
X151.282Y-180.238
X151.384Y-163.576
X151.384Y-172.618
X151.384Y-175.387
X151.511Y-213.741
X151.994Y-169.266
X152.273Y-66.294
X152.293Y-180.376
X152.654Y-199.39
X152.679Y-167.918
X152.857Y-127.152
X153.06Y-181.153
X153.162Y-69.215
X153.314Y-105.41
X153.416Y-117.399
X154.051Y-163.576
X154.051Y-175.387
X154.051Y-68.199
X154.813Y-72.261
X155.753Y-149.454
X155.829Y-67.183
X156.312Y-69.698
X156.591Y-206.883
X156.616Y-148.539
X156.972Y-187.833
X157.201Y-130.353
X157.226Y-147.523
X157.861Y-72.261
X158.191Y-146.456
X158.242Y-213.487
X159.309Y-124.054
X160.02Y-68.961
X160.325Y-117.958
X160.325Y-129.083
X160.401Y-98.743
X160.426Y-106.02
X160.426Y-110.439
X160.579Y-111.557
X160.68Y-123.241
X160.778Y-136.338
X160.909Y-70.358
X160.909Y-99.631
X161.925Y-178.562
X161.925Y-188.976
X162.001Y-123.8
X162.052Y-71.501
X162.56Y-176.835
X163.068Y-199.263
X163.119Y-123.038
X163.678Y-176.022
X164.033Y-122.53
X164.338Y-213.487
X164.846Y-174.904
X165.1Y-121.869
X165.735Y-120.523
X165.811Y-174.092
X166.421Y-122.123
X166.497Y-67.758
X166.776Y-173.025
X167.132Y-203.962
X167.894Y-172.212
X167.97Y-136.5
X168.148Y-69.215
X168.148Y-100.94
X168.554Y-75.082
X168.859Y-171.348
X168.91Y-99.771
X169.113Y-136.957
X169.672Y-168.91
X170.307Y-212.344
X170.942Y-107.315
X171.069Y-69.088
X172.593Y-86.233
X174.117Y-69.088
X174.117Y-111.252
X174.244Y-85.979
X174.244Y-89.916
X175.514Y-71.882
X176.53Y-79.248
X176.53Y-83.566
X176.784Y-199.136
X177.165Y-68.961
X178.562Y-77.216
X179.527Y-81.89
X179.629Y-77.927
X180.289Y-130.505
X180.594Y-172.339
X180.594Y-185.547
X181.204Y-75.946
X181.305Y-78.029
X181.305Y-81.788
X182.067Y-131.166
X182.499Y-180.975
X182.499Y-193.929
X183.693Y-84.125
X183.769Y-114.935
X183.896Y-196.215
X184.023Y-178.689
X184.277Y-86.487
X184.277Y-90.424
X184.277Y-191.77
X184.912Y-182.245
X185.293Y-74.93
X186.182Y-86.233
X186.182Y-90.424
X187.249Y-182.22
X187.3Y-84.125
X188.214Y-193.929
X188.722Y-96.393
X188.773Y-107.036
X188.824Y-105.054
X188.824Y-106.045
X189.738Y-181.102
X189.738Y-194.056
X191.516Y-60.516
X191.643Y-186.055
X191.77Y-99.695
X191.77Y-172.847
X192.532Y-196.85
X193.294Y-63.246
X193.548Y-110.49
X194.119Y-93.281
X194.818Y-60.516
X195.199Y-112.522
X196.088Y-98.044
X196.723Y-100.838
X197.167Y-97.663
X197.167Y-99.251
X198.259Y-101.993
X199.136Y-211.328
X199.136Y-213.106
X200.025Y-180.594
X200.914Y-97.79
X200.914Y-99.314
X201.803Y-203.835
X202.438Y-204.597
X202.438Y-205.613
X204.597Y-112.522
X204.597Y-145.542
X204.597Y-195.199
X204.724Y-92.71
X204.724Y-149.733
X204.724Y-156.718
X204.851Y-95.123
X205.105Y-211.836
X207.518Y-160.147
X207.518Y-163.703
X207.899Y-90.043
X207.899Y-91.694
X208.026Y-137.922
X208.026Y-145.542
X208.153Y-149.733
X208.153Y-156.718
X208.915Y-90.043
X208.915Y-91.694
X209.042Y-81.026
X209.804Y-132.969
X210.693Y-78.105
X210.693Y-83.82
X210.82Y-85.09
X211.328Y-166.878
X211.455Y-137.922
X211.455Y-163.322
X211.582Y-156.21
X211.709Y-145.669
X211.709Y-150.749
X211.887Y-106.426
X212.725Y-96.012
X213.36Y-169.926
X213.614Y-108.458
X213.614Y-109.931
X214.376Y-94.615
X214.503Y-88.519
X214.935Y-108.712
X216.154Y-175.514
X216.281Y-159.893
X216.535Y-133.35
X216.636Y-138.299
X216.662Y-134.747
X216.662Y-177.419
X216.789Y-141.859
X216.865Y-110.084
X216.916Y-113.919
X217.551Y-178.181
X217.932Y-72.263
X218.313Y-88.9
X218.313Y-91.059
X218.313Y-176.53
X218.567Y-85.725
X218.999Y-179.197
X219.075Y-163.322
X219.075Y-167.005
X219.837Y-86.233
X219.837Y-113.665
X219.837Y-159.893
X219.862Y-110.084
X220.218Y-91.948
X221.234Y-84.709
X221.361Y-86.995
X221.488Y-134.747
X221.488Y-138.303
X221.869Y-141.859
X222.504Y-72.136
X223.012Y-96.139
X223.153Y-85.231
X224.155Y-100.584
X224.155Y-104.648
X224.155Y-109.855
X224.155Y-113.665
X224.409Y-70.358
X224.79Y-134.874
X224.79Y-138.303
X225.298Y-159.893
X225.806Y-141.859
X225.933Y-167.005
X225.973Y-163.616
X226.06Y-89.027
X226.822Y-102.616
X226.822Y-111.76
X227.838Y-64.643
X228.092Y-84.963
X228.6Y-73.914
X229.362Y-156.21
X229.362Y-151.257
X229.489Y-145.686
X229.774Y-164.084
X230.505Y-88.265
X231.775Y-92.456
X232.029Y-67.945
X232.156Y-71.628
X232.41Y-198.247
X232.537Y-72.771
X232.664Y-139.192
X232.791Y-93.091
X233.172Y-145.161
X233.172Y-152.146
X233.172Y-164.084
X233.235Y-156.54
X233.68Y-71.628
X233.68Y-92.456
X233.68Y-141.732
X233.68Y-191.262
X233.807Y-67.945
X233.807Y-195.199
X234.442Y-97.79
X234.442Y-100.33
X234.823Y-72.136
X235.458Y-146.431
X236.474Y-70.739
X236.601Y-145.161
X236.601Y-156.591
X236.728Y-152.146
X236.728Y-197.358
X237.744Y-89.535
X238.506Y-140.462
X239.268Y-142.875
X239.522Y-85.231
X240.03Y-141.837
X240.665Y-115.443
X240.792Y-159.258
X240.919Y-117.475
X241.427Y-145.669
X241.554Y-121.742
X242.443Y-105.41
X242.824Y-114.3
X243.078Y-118.745
X244.094Y-84.328
X244.221Y-122.555
X244.475Y-99.06
X245.364Y-116.332
X245.364Y-118.745
X245.618Y-81.28
X246.253Y-80.137
X246.38Y-77.216
X246.634Y-84.455
X247.015Y-74.295
X249.301Y-72.136
X249.301Y-95.25
X249.428Y-100.33
X250.571Y-70.993
X250.698Y-97.79
X250.952Y-73.152
X251.333Y-70.104
X251.968Y-100.33
X253.873Y-74.168
X253.873Y-75.438
X254.381Y-91.059
X255.27Y-92.456
T2
X212.026Y-131.699
X214.028Y-131.699
X216.027Y-131.699
X218.029Y-131.699
X220.03Y-131.699
T3
X180.391Y-102.375
X180.391Y-104.404
X180.391Y-106.434
X180.391Y-108.463
X182.171Y-101.361
X182.171Y-103.391
X182.171Y-105.42
X182.171Y-107.45
T4
X92.71Y-137.16
X92.71Y-139.7
X92.71Y-142.24
X92.71Y-144.78
X92.71Y-190.5
X92.71Y-193.04
X92.71Y-195.58
X92.71Y-198.12
X257.175Y-142.927
X257.175Y-145.467
X257.175Y-148.007
X257.175Y-150.547
X257.175Y-153.087
X257.175Y-155.627
X257.175Y-158.167
X257.175Y-160.707
X259.715Y-142.927
X259.715Y-145.467
X259.715Y-148.007
X259.715Y-150.547
X259.715Y-153.087
X259.715Y-155.627
X259.715Y-158.167
X259.715Y-160.707
X248.92Y-167.64
X109.22Y-134.62
X109.22Y-137.16
X109.22Y-139.7
X109.22Y-142.24
X109.22Y-144.78
X111.76Y-134.62
X111.76Y-137.16
X111.76Y-139.7
X111.76Y-142.24
X111.76Y-144.78
X202.565Y-217.805
X202.565Y-220.345
X205.105Y-217.805
X205.105Y-220.345
X207.645Y-217.805
X207.645Y-220.345
X210.185Y-217.805
X210.185Y-220.345
X212.725Y-217.805
X212.725Y-220.345
X215.265Y-217.805
X215.265Y-220.345
X217.805Y-217.805
X217.805Y-220.345
X220.345Y-217.805
X220.345Y-220.345
X222.885Y-217.805
X222.885Y-220.345
X225.425Y-217.805
X225.425Y-220.345
X227.965Y-217.805
X227.965Y-220.345
X230.505Y-217.805
X230.505Y-220.345
X233.045Y-217.805
X233.045Y-220.345
X248.539Y-59.055
X109.22Y-63.5
X109.22Y-66.04
X109.22Y-68.58
X109.22Y-71.12
X109.22Y-73.66
X111.76Y-63.5
X111.76Y-66.04
X111.76Y-68.58
X111.76Y-71.12
X111.76Y-73.66
X109.22Y-187.96
X109.22Y-190.5
X109.22Y-193.04
X109.22Y-195.58
X109.22Y-198.12
X111.76Y-187.96
X111.76Y-190.5
X111.76Y-193.04
X111.76Y-195.58
X111.76Y-198.12
X171.196Y-188.214
X171.196Y-190.754
X171.196Y-193.294
X171.196Y-195.834
X171.196Y-198.374
X173.736Y-188.214
X173.736Y-190.754
X173.736Y-193.294
X173.736Y-195.834
X173.736Y-198.374
X92.71Y-119.38
X92.71Y-121.92
X92.71Y-124.46
X92.71Y-127.0
X92.71Y-172.72
X92.71Y-175.26
X92.71Y-177.8
X92.71Y-180.34
X257.175Y-98.425
X257.175Y-100.965
X257.175Y-103.505
X257.175Y-106.045
X257.175Y-108.585
X257.175Y-111.125
X257.175Y-113.665
X257.175Y-116.205
X257.175Y-118.745
X257.175Y-121.285
X257.175Y-123.825
X257.175Y-126.365
X257.175Y-128.905
X259.715Y-98.425
X259.715Y-100.965
X259.715Y-103.505
X259.715Y-106.045
X259.715Y-108.585
X259.715Y-111.125
X259.715Y-113.665
X259.715Y-116.205
X259.715Y-118.745
X259.715Y-121.285
X259.715Y-123.825
X259.715Y-126.365
X259.715Y-128.905
X109.22Y-116.84
X109.22Y-119.38
X109.22Y-121.92
X109.22Y-124.46
X109.22Y-127.0
X111.76Y-116.84
X111.76Y-119.38
X111.76Y-121.92
X111.76Y-124.46
X111.76Y-127.0
X233.68Y-59.055
X233.68Y-61.595
X236.22Y-59.055
X236.22Y-61.595
X238.76Y-59.055
X238.76Y-61.595
X241.3Y-59.055
X241.3Y-61.595
X243.84Y-59.055
X243.84Y-61.595
X109.22Y-81.28
X109.22Y-83.82
X109.22Y-86.36
X109.22Y-88.9
X109.22Y-91.44
X111.76Y-81.28
X111.76Y-83.82
X111.76Y-86.36
X111.76Y-88.9
X111.76Y-91.44
X109.22Y-170.18
X109.22Y-172.72
X109.22Y-175.26
X109.22Y-177.8
X109.22Y-180.34
X111.76Y-170.18
X111.76Y-172.72
X111.76Y-175.26
X111.76Y-177.8
X111.76Y-180.34
X256.54Y-71.12
X256.54Y-73.66
X256.54Y-76.2
X256.54Y-78.74
X256.54Y-81.28
X259.08Y-71.12
X259.08Y-73.66
X259.08Y-76.2
X259.08Y-78.74
X259.08Y-81.28
X198.501Y-168.021
X198.501Y-170.561
X198.501Y-173.101
X198.501Y-175.641
X198.501Y-178.181
X201.041Y-168.021
X201.041Y-170.561
X201.041Y-173.101
X201.041Y-175.641
X201.041Y-178.181
X92.71Y-101.6
X92.71Y-104.14
X92.71Y-106.68
X92.71Y-109.22
X92.71Y-154.94
X92.71Y-157.48
X92.71Y-160.02
X92.71Y-162.56
X92.71Y-66.04
X92.71Y-68.58
X92.71Y-71.12
X92.71Y-73.66
X257.175Y-173.99
X257.175Y-176.53
X257.175Y-179.07
X257.175Y-181.61
X257.175Y-184.15
X257.175Y-186.69
X257.175Y-189.23
X257.175Y-191.77
X259.715Y-173.99
X259.715Y-176.53
X259.715Y-179.07
X259.715Y-181.61
X259.715Y-184.15
X259.715Y-186.69
X259.715Y-189.23
X259.715Y-191.77
X109.22Y-99.06
X109.22Y-101.6
X109.22Y-104.14
X109.22Y-106.68
X109.22Y-109.22
X111.76Y-99.06
X111.76Y-101.6
X111.76Y-104.14
X111.76Y-106.68
X111.76Y-109.22
X248.92Y-162.56
X109.22Y-152.4
X109.22Y-154.94
X109.22Y-157.48
X109.22Y-160.02
X109.22Y-162.56
X111.76Y-152.4
X111.76Y-154.94
X111.76Y-157.48
X111.76Y-160.02
X111.76Y-162.56
X248.539Y-61.595
X92.71Y-83.82
X92.71Y-86.36
X92.71Y-88.9
X92.71Y-91.44
X171.196Y-170.307
X171.196Y-172.847
X171.196Y-175.387
X171.196Y-177.927
X171.196Y-180.467
X173.736Y-170.307
X173.736Y-172.847
X173.736Y-175.387
X173.736Y-177.927
X173.736Y-180.467
X198.501Y-185.42
X198.501Y-187.96
X198.501Y-190.5
X198.501Y-193.04
X198.501Y-195.58
X201.041Y-185.42
X201.041Y-187.96
X201.041Y-190.5
X201.041Y-193.04
X201.041Y-195.58
T5
X142.24Y-62.865
X147.32Y-62.865
X152.4Y-62.865
X157.48Y-62.865
X88.138Y-216.662
X93.218Y-216.662
X98.298Y-216.662
X103.378Y-216.662
X128.778Y-216.662
X133.858Y-216.662
X138.938Y-216.662
X144.018Y-216.662
X53.975Y-192.405
X53.975Y-197.485
X53.975Y-202.565
X53.975Y-207.645
X108.458Y-216.662
X113.538Y-216.662
X118.618Y-216.662
X123.698Y-216.662
X53.975Y-131.445
X53.975Y-136.525
X53.975Y-141.605
X53.975Y-146.685
X64.135Y-95.25
X64.135Y-100.33
X64.135Y-105.41
X64.135Y-110.49
X53.975Y-82.55
X53.975Y-87.63
X53.975Y-92.71
X53.975Y-97.79
X64.135Y-144.145
X64.135Y-149.225
X64.135Y-154.305
X64.135Y-159.385
X121.92Y-62.865
X127.0Y-62.865
X132.08Y-62.865
X137.16Y-62.865
X203.835Y-62.865
X208.915Y-62.865
X213.995Y-62.865
X219.075Y-62.865
X149.098Y-216.662
X154.178Y-216.662
X159.258Y-216.662
X164.338Y-216.662
X64.135Y-164.465
X64.135Y-169.545
X64.135Y-174.625
X64.135Y-179.705
X53.975Y-102.87
X53.975Y-107.95
X53.975Y-113.03
X53.975Y-118.11
X53.975Y-151.765
X53.975Y-156.845
X53.975Y-161.925
X53.975Y-167.005
X166.37Y-62.865
X171.45Y-62.865
X176.53Y-62.865
X181.61Y-62.865
X64.135Y-184.785
X64.135Y-189.865
X64.135Y-194.945
X64.135Y-200.025
X64.135Y-123.825
X64.135Y-128.905
X64.135Y-133.985
X64.135Y-139.065
X64.135Y-74.93
X64.135Y-80.01
X64.135Y-85.09
X64.135Y-90.17
X53.975Y-172.085
X53.975Y-177.165
X53.975Y-182.245
X53.975Y-187.325
T6
X179.593Y-88.317
X179.593Y-151.817
X179.593Y-160.707
X179.593Y-207.697
X191.023Y-88.317
X191.023Y-151.817
X191.023Y-207.697
X248.173Y-88.317
X248.173Y-151.817
X248.173Y-207.697
X259.603Y-88.317
X259.603Y-207.697
T7
X73.025Y-63.5
X73.025Y-215.9
X254.0Y-215.9
X254.0Y-63.5
T8
X177.851Y-98.572
X177.851Y-111.252
T0
M30
