G04 #@! TF.GenerationSoftware,KiCad,Pcbnew,(6.0.0-rc1-dev-1386-g1c99784e9)*
G04 #@! TF.CreationDate,2018-12-20T11:02:25-05:00
G04 #@! TF.ProjectId,TLAUX_Adapter_PSOC5,544c4155-585f-4416-9461-707465725f50,rev?*
G04 #@! TF.SameCoordinates,Original*
G04 #@! TF.FileFunction,Soldermask,Bot*
G04 #@! TF.FilePolarity,Negative*
%FSLAX46Y46*%
G04 Gerber Fmt 4.6, Leading zero omitted, Abs format (unit mm)*
G04 Created by KiCad (PCBNEW (6.0.0-rc1-dev-1386-g1c99784e9)) date 12/20/2018 11:02:25 AM*
%MOMM*%
%LPD*%
G04 APERTURE LIST*
%ADD10C,0.100000*%
G04 APERTURE END LIST*
D10*
G36*
X152590560Y-110943079D02*
G01*
X152644552Y-110953819D01*
X152797131Y-111017019D01*
X152934449Y-111108772D01*
X153051228Y-111225551D01*
X153142981Y-111362869D01*
X153206181Y-111515448D01*
X153238400Y-111677425D01*
X153238400Y-111842575D01*
X153206181Y-112004552D01*
X153142981Y-112157131D01*
X153051228Y-112294449D01*
X152934449Y-112411228D01*
X152797131Y-112502981D01*
X152644552Y-112566181D01*
X152590560Y-112576921D01*
X152482577Y-112598400D01*
X152317423Y-112598400D01*
X152209440Y-112576921D01*
X152155448Y-112566181D01*
X152002869Y-112502981D01*
X151865551Y-112411228D01*
X151748772Y-112294449D01*
X151657019Y-112157131D01*
X151593819Y-112004552D01*
X151561600Y-111842575D01*
X151561600Y-111677425D01*
X151593819Y-111515448D01*
X151657019Y-111362869D01*
X151748772Y-111225551D01*
X151865551Y-111108772D01*
X152002869Y-111017019D01*
X152155448Y-110953819D01*
X152209440Y-110943079D01*
X152317423Y-110921600D01*
X152482577Y-110921600D01*
X152590560Y-110943079D01*
X152590560Y-110943079D01*
G37*
G36*
X157670560Y-110943079D02*
G01*
X157724552Y-110953819D01*
X157877131Y-111017019D01*
X158014449Y-111108772D01*
X158131228Y-111225551D01*
X158222981Y-111362869D01*
X158286181Y-111515448D01*
X158318400Y-111677425D01*
X158318400Y-111842575D01*
X158286181Y-112004552D01*
X158222981Y-112157131D01*
X158131228Y-112294449D01*
X158014449Y-112411228D01*
X157877131Y-112502981D01*
X157724552Y-112566181D01*
X157670560Y-112576921D01*
X157562577Y-112598400D01*
X157397423Y-112598400D01*
X157289440Y-112576921D01*
X157235448Y-112566181D01*
X157082869Y-112502981D01*
X156945551Y-112411228D01*
X156828772Y-112294449D01*
X156737019Y-112157131D01*
X156673819Y-112004552D01*
X156641600Y-111842575D01*
X156641600Y-111677425D01*
X156673819Y-111515448D01*
X156737019Y-111362869D01*
X156828772Y-111225551D01*
X156945551Y-111108772D01*
X157082869Y-111017019D01*
X157235448Y-110953819D01*
X157289440Y-110943079D01*
X157397423Y-110921600D01*
X157562577Y-110921600D01*
X157670560Y-110943079D01*
X157670560Y-110943079D01*
G37*
G36*
X150050560Y-110943079D02*
G01*
X150104552Y-110953819D01*
X150257131Y-111017019D01*
X150394449Y-111108772D01*
X150511228Y-111225551D01*
X150602981Y-111362869D01*
X150666181Y-111515448D01*
X150698400Y-111677425D01*
X150698400Y-111842575D01*
X150666181Y-112004552D01*
X150602981Y-112157131D01*
X150511228Y-112294449D01*
X150394449Y-112411228D01*
X150257131Y-112502981D01*
X150104552Y-112566181D01*
X150050560Y-112576921D01*
X149942577Y-112598400D01*
X149777423Y-112598400D01*
X149669440Y-112576921D01*
X149615448Y-112566181D01*
X149462869Y-112502981D01*
X149325551Y-112411228D01*
X149208772Y-112294449D01*
X149117019Y-112157131D01*
X149053819Y-112004552D01*
X149021600Y-111842575D01*
X149021600Y-111677425D01*
X149053819Y-111515448D01*
X149117019Y-111362869D01*
X149208772Y-111225551D01*
X149325551Y-111108772D01*
X149462869Y-111017019D01*
X149615448Y-110953819D01*
X149669440Y-110943079D01*
X149777423Y-110921600D01*
X149942577Y-110921600D01*
X150050560Y-110943079D01*
X150050560Y-110943079D01*
G37*
G36*
X147510560Y-110943079D02*
G01*
X147564552Y-110953819D01*
X147717131Y-111017019D01*
X147854449Y-111108772D01*
X147971228Y-111225551D01*
X148062981Y-111362869D01*
X148126181Y-111515448D01*
X148158400Y-111677425D01*
X148158400Y-111842575D01*
X148126181Y-112004552D01*
X148062981Y-112157131D01*
X147971228Y-112294449D01*
X147854449Y-112411228D01*
X147717131Y-112502981D01*
X147564552Y-112566181D01*
X147510560Y-112576921D01*
X147402577Y-112598400D01*
X147237423Y-112598400D01*
X147129440Y-112576921D01*
X147075448Y-112566181D01*
X146922869Y-112502981D01*
X146785551Y-112411228D01*
X146668772Y-112294449D01*
X146577019Y-112157131D01*
X146513819Y-112004552D01*
X146481600Y-111842575D01*
X146481600Y-111677425D01*
X146513819Y-111515448D01*
X146577019Y-111362869D01*
X146668772Y-111225551D01*
X146785551Y-111108772D01*
X146922869Y-111017019D01*
X147075448Y-110953819D01*
X147129440Y-110943079D01*
X147237423Y-110921600D01*
X147402577Y-110921600D01*
X147510560Y-110943079D01*
X147510560Y-110943079D01*
G37*
G36*
X160210560Y-110943079D02*
G01*
X160264552Y-110953819D01*
X160417131Y-111017019D01*
X160554449Y-111108772D01*
X160671228Y-111225551D01*
X160762981Y-111362869D01*
X160826181Y-111515448D01*
X160858400Y-111677425D01*
X160858400Y-111842575D01*
X160826181Y-112004552D01*
X160762981Y-112157131D01*
X160671228Y-112294449D01*
X160554449Y-112411228D01*
X160417131Y-112502981D01*
X160264552Y-112566181D01*
X160210560Y-112576921D01*
X160102577Y-112598400D01*
X159937423Y-112598400D01*
X159829440Y-112576921D01*
X159775448Y-112566181D01*
X159622869Y-112502981D01*
X159485551Y-112411228D01*
X159368772Y-112294449D01*
X159277019Y-112157131D01*
X159213819Y-112004552D01*
X159181600Y-111842575D01*
X159181600Y-111677425D01*
X159213819Y-111515448D01*
X159277019Y-111362869D01*
X159368772Y-111225551D01*
X159485551Y-111108772D01*
X159622869Y-111017019D01*
X159775448Y-110953819D01*
X159829440Y-110943079D01*
X159937423Y-110921600D01*
X160102577Y-110921600D01*
X160210560Y-110943079D01*
X160210560Y-110943079D01*
G37*
G36*
X144970560Y-110943079D02*
G01*
X145024552Y-110953819D01*
X145177131Y-111017019D01*
X145314449Y-111108772D01*
X145431228Y-111225551D01*
X145522981Y-111362869D01*
X145586181Y-111515448D01*
X145618400Y-111677425D01*
X145618400Y-111842575D01*
X145586181Y-112004552D01*
X145522981Y-112157131D01*
X145431228Y-112294449D01*
X145314449Y-112411228D01*
X145177131Y-112502981D01*
X145024552Y-112566181D01*
X144970560Y-112576921D01*
X144862577Y-112598400D01*
X144697423Y-112598400D01*
X144589440Y-112576921D01*
X144535448Y-112566181D01*
X144382869Y-112502981D01*
X144245551Y-112411228D01*
X144128772Y-112294449D01*
X144037019Y-112157131D01*
X143973819Y-112004552D01*
X143941600Y-111842575D01*
X143941600Y-111677425D01*
X143973819Y-111515448D01*
X144037019Y-111362869D01*
X144128772Y-111225551D01*
X144245551Y-111108772D01*
X144382869Y-111017019D01*
X144535448Y-110953819D01*
X144589440Y-110943079D01*
X144697423Y-110921600D01*
X144862577Y-110921600D01*
X144970560Y-110943079D01*
X144970560Y-110943079D01*
G37*
G36*
X155130560Y-110943079D02*
G01*
X155184552Y-110953819D01*
X155337131Y-111017019D01*
X155474449Y-111108772D01*
X155591228Y-111225551D01*
X155682981Y-111362869D01*
X155746181Y-111515448D01*
X155778400Y-111677425D01*
X155778400Y-111842575D01*
X155746181Y-112004552D01*
X155682981Y-112157131D01*
X155591228Y-112294449D01*
X155474449Y-112411228D01*
X155337131Y-112502981D01*
X155184552Y-112566181D01*
X155130560Y-112576921D01*
X155022577Y-112598400D01*
X154857423Y-112598400D01*
X154749440Y-112576921D01*
X154695448Y-112566181D01*
X154542869Y-112502981D01*
X154405551Y-112411228D01*
X154288772Y-112294449D01*
X154197019Y-112157131D01*
X154133819Y-112004552D01*
X154101600Y-111842575D01*
X154101600Y-111677425D01*
X154133819Y-111515448D01*
X154197019Y-111362869D01*
X154288772Y-111225551D01*
X154405551Y-111108772D01*
X154542869Y-111017019D01*
X154695448Y-110953819D01*
X154749440Y-110943079D01*
X154857423Y-110921600D01*
X155022577Y-110921600D01*
X155130560Y-110943079D01*
X155130560Y-110943079D01*
G37*
G36*
X160210560Y-108403079D02*
G01*
X160264552Y-108413819D01*
X160417131Y-108477019D01*
X160554449Y-108568772D01*
X160671228Y-108685551D01*
X160762981Y-108822869D01*
X160826181Y-108975448D01*
X160858400Y-109137425D01*
X160858400Y-109302575D01*
X160826181Y-109464552D01*
X160762981Y-109617131D01*
X160671228Y-109754449D01*
X160554449Y-109871228D01*
X160417131Y-109962981D01*
X160264552Y-110026181D01*
X160210560Y-110036921D01*
X160102577Y-110058400D01*
X159937423Y-110058400D01*
X159829440Y-110036921D01*
X159775448Y-110026181D01*
X159622869Y-109962981D01*
X159485551Y-109871228D01*
X159368772Y-109754449D01*
X159277019Y-109617131D01*
X159213819Y-109464552D01*
X159181600Y-109302575D01*
X159181600Y-109137425D01*
X159213819Y-108975448D01*
X159277019Y-108822869D01*
X159368772Y-108685551D01*
X159485551Y-108568772D01*
X159622869Y-108477019D01*
X159775448Y-108413819D01*
X159829440Y-108403079D01*
X159937423Y-108381600D01*
X160102577Y-108381600D01*
X160210560Y-108403079D01*
X160210560Y-108403079D01*
G37*
G36*
X142430560Y-108403079D02*
G01*
X142484552Y-108413819D01*
X142637131Y-108477019D01*
X142774449Y-108568772D01*
X142891228Y-108685551D01*
X142982981Y-108822869D01*
X143046181Y-108975448D01*
X143078400Y-109137425D01*
X143078400Y-109302575D01*
X143046181Y-109464552D01*
X142982981Y-109617131D01*
X142891228Y-109754449D01*
X142774449Y-109871228D01*
X142637131Y-109962981D01*
X142484552Y-110026181D01*
X142430560Y-110036921D01*
X142322577Y-110058400D01*
X142157423Y-110058400D01*
X142049440Y-110036921D01*
X141995448Y-110026181D01*
X141842869Y-109962981D01*
X141705551Y-109871228D01*
X141588772Y-109754449D01*
X141497019Y-109617131D01*
X141433819Y-109464552D01*
X141401600Y-109302575D01*
X141401600Y-109137425D01*
X141433819Y-108975448D01*
X141497019Y-108822869D01*
X141588772Y-108685551D01*
X141705551Y-108568772D01*
X141842869Y-108477019D01*
X141995448Y-108413819D01*
X142049440Y-108403079D01*
X142157423Y-108381600D01*
X142322577Y-108381600D01*
X142430560Y-108403079D01*
X142430560Y-108403079D01*
G37*
G36*
X144970560Y-108403079D02*
G01*
X145024552Y-108413819D01*
X145177131Y-108477019D01*
X145314449Y-108568772D01*
X145431228Y-108685551D01*
X145522981Y-108822869D01*
X145586181Y-108975448D01*
X145618400Y-109137425D01*
X145618400Y-109302575D01*
X145586181Y-109464552D01*
X145522981Y-109617131D01*
X145431228Y-109754449D01*
X145314449Y-109871228D01*
X145177131Y-109962981D01*
X145024552Y-110026181D01*
X144970560Y-110036921D01*
X144862577Y-110058400D01*
X144697423Y-110058400D01*
X144589440Y-110036921D01*
X144535448Y-110026181D01*
X144382869Y-109962981D01*
X144245551Y-109871228D01*
X144128772Y-109754449D01*
X144037019Y-109617131D01*
X143973819Y-109464552D01*
X143941600Y-109302575D01*
X143941600Y-109137425D01*
X143973819Y-108975448D01*
X144037019Y-108822869D01*
X144128772Y-108685551D01*
X144245551Y-108568772D01*
X144382869Y-108477019D01*
X144535448Y-108413819D01*
X144589440Y-108403079D01*
X144697423Y-108381600D01*
X144862577Y-108381600D01*
X144970560Y-108403079D01*
X144970560Y-108403079D01*
G37*
G36*
X147510560Y-108403079D02*
G01*
X147564552Y-108413819D01*
X147717131Y-108477019D01*
X147854449Y-108568772D01*
X147971228Y-108685551D01*
X148062981Y-108822869D01*
X148126181Y-108975448D01*
X148158400Y-109137425D01*
X148158400Y-109302575D01*
X148126181Y-109464552D01*
X148062981Y-109617131D01*
X147971228Y-109754449D01*
X147854449Y-109871228D01*
X147717131Y-109962981D01*
X147564552Y-110026181D01*
X147510560Y-110036921D01*
X147402577Y-110058400D01*
X147237423Y-110058400D01*
X147129440Y-110036921D01*
X147075448Y-110026181D01*
X146922869Y-109962981D01*
X146785551Y-109871228D01*
X146668772Y-109754449D01*
X146577019Y-109617131D01*
X146513819Y-109464552D01*
X146481600Y-109302575D01*
X146481600Y-109137425D01*
X146513819Y-108975448D01*
X146577019Y-108822869D01*
X146668772Y-108685551D01*
X146785551Y-108568772D01*
X146922869Y-108477019D01*
X147075448Y-108413819D01*
X147129440Y-108403079D01*
X147237423Y-108381600D01*
X147402577Y-108381600D01*
X147510560Y-108403079D01*
X147510560Y-108403079D01*
G37*
G36*
X150050560Y-108403079D02*
G01*
X150104552Y-108413819D01*
X150257131Y-108477019D01*
X150394449Y-108568772D01*
X150511228Y-108685551D01*
X150602981Y-108822869D01*
X150666181Y-108975448D01*
X150698400Y-109137425D01*
X150698400Y-109302575D01*
X150666181Y-109464552D01*
X150602981Y-109617131D01*
X150511228Y-109754449D01*
X150394449Y-109871228D01*
X150257131Y-109962981D01*
X150104552Y-110026181D01*
X150050560Y-110036921D01*
X149942577Y-110058400D01*
X149777423Y-110058400D01*
X149669440Y-110036921D01*
X149615448Y-110026181D01*
X149462869Y-109962981D01*
X149325551Y-109871228D01*
X149208772Y-109754449D01*
X149117019Y-109617131D01*
X149053819Y-109464552D01*
X149021600Y-109302575D01*
X149021600Y-109137425D01*
X149053819Y-108975448D01*
X149117019Y-108822869D01*
X149208772Y-108685551D01*
X149325551Y-108568772D01*
X149462869Y-108477019D01*
X149615448Y-108413819D01*
X149669440Y-108403079D01*
X149777423Y-108381600D01*
X149942577Y-108381600D01*
X150050560Y-108403079D01*
X150050560Y-108403079D01*
G37*
G36*
X162750560Y-108403079D02*
G01*
X162804552Y-108413819D01*
X162957131Y-108477019D01*
X163094449Y-108568772D01*
X163211228Y-108685551D01*
X163302981Y-108822869D01*
X163366181Y-108975448D01*
X163398400Y-109137425D01*
X163398400Y-109302575D01*
X163366181Y-109464552D01*
X163302981Y-109617131D01*
X163211228Y-109754449D01*
X163094449Y-109871228D01*
X162957131Y-109962981D01*
X162804552Y-110026181D01*
X162750560Y-110036921D01*
X162642577Y-110058400D01*
X162477423Y-110058400D01*
X162369440Y-110036921D01*
X162315448Y-110026181D01*
X162162869Y-109962981D01*
X162025551Y-109871228D01*
X161908772Y-109754449D01*
X161817019Y-109617131D01*
X161753819Y-109464552D01*
X161721600Y-109302575D01*
X161721600Y-109137425D01*
X161753819Y-108975448D01*
X161817019Y-108822869D01*
X161908772Y-108685551D01*
X162025551Y-108568772D01*
X162162869Y-108477019D01*
X162315448Y-108413819D01*
X162369440Y-108403079D01*
X162477423Y-108381600D01*
X162642577Y-108381600D01*
X162750560Y-108403079D01*
X162750560Y-108403079D01*
G37*
G36*
X157670560Y-108403079D02*
G01*
X157724552Y-108413819D01*
X157877131Y-108477019D01*
X158014449Y-108568772D01*
X158131228Y-108685551D01*
X158222981Y-108822869D01*
X158286181Y-108975448D01*
X158318400Y-109137425D01*
X158318400Y-109302575D01*
X158286181Y-109464552D01*
X158222981Y-109617131D01*
X158131228Y-109754449D01*
X158014449Y-109871228D01*
X157877131Y-109962981D01*
X157724552Y-110026181D01*
X157670560Y-110036921D01*
X157562577Y-110058400D01*
X157397423Y-110058400D01*
X157289440Y-110036921D01*
X157235448Y-110026181D01*
X157082869Y-109962981D01*
X156945551Y-109871228D01*
X156828772Y-109754449D01*
X156737019Y-109617131D01*
X156673819Y-109464552D01*
X156641600Y-109302575D01*
X156641600Y-109137425D01*
X156673819Y-108975448D01*
X156737019Y-108822869D01*
X156828772Y-108685551D01*
X156945551Y-108568772D01*
X157082869Y-108477019D01*
X157235448Y-108413819D01*
X157289440Y-108403079D01*
X157397423Y-108381600D01*
X157562577Y-108381600D01*
X157670560Y-108403079D01*
X157670560Y-108403079D01*
G37*
G36*
X155130560Y-108403079D02*
G01*
X155184552Y-108413819D01*
X155337131Y-108477019D01*
X155474449Y-108568772D01*
X155591228Y-108685551D01*
X155682981Y-108822869D01*
X155746181Y-108975448D01*
X155778400Y-109137425D01*
X155778400Y-109302575D01*
X155746181Y-109464552D01*
X155682981Y-109617131D01*
X155591228Y-109754449D01*
X155474449Y-109871228D01*
X155337131Y-109962981D01*
X155184552Y-110026181D01*
X155130560Y-110036921D01*
X155022577Y-110058400D01*
X154857423Y-110058400D01*
X154749440Y-110036921D01*
X154695448Y-110026181D01*
X154542869Y-109962981D01*
X154405551Y-109871228D01*
X154288772Y-109754449D01*
X154197019Y-109617131D01*
X154133819Y-109464552D01*
X154101600Y-109302575D01*
X154101600Y-109137425D01*
X154133819Y-108975448D01*
X154197019Y-108822869D01*
X154288772Y-108685551D01*
X154405551Y-108568772D01*
X154542869Y-108477019D01*
X154695448Y-108413819D01*
X154749440Y-108403079D01*
X154857423Y-108381600D01*
X155022577Y-108381600D01*
X155130560Y-108403079D01*
X155130560Y-108403079D01*
G37*
G36*
X152590560Y-108403079D02*
G01*
X152644552Y-108413819D01*
X152797131Y-108477019D01*
X152934449Y-108568772D01*
X153051228Y-108685551D01*
X153142981Y-108822869D01*
X153206181Y-108975448D01*
X153238400Y-109137425D01*
X153238400Y-109302575D01*
X153206181Y-109464552D01*
X153142981Y-109617131D01*
X153051228Y-109754449D01*
X152934449Y-109871228D01*
X152797131Y-109962981D01*
X152644552Y-110026181D01*
X152590560Y-110036921D01*
X152482577Y-110058400D01*
X152317423Y-110058400D01*
X152209440Y-110036921D01*
X152155448Y-110026181D01*
X152002869Y-109962981D01*
X151865551Y-109871228D01*
X151748772Y-109754449D01*
X151657019Y-109617131D01*
X151593819Y-109464552D01*
X151561600Y-109302575D01*
X151561600Y-109137425D01*
X151593819Y-108975448D01*
X151657019Y-108822869D01*
X151748772Y-108685551D01*
X151865551Y-108568772D01*
X152002869Y-108477019D01*
X152155448Y-108413819D01*
X152209440Y-108403079D01*
X152317423Y-108381600D01*
X152482577Y-108381600D01*
X152590560Y-108403079D01*
X152590560Y-108403079D01*
G37*
G36*
X144970560Y-105863079D02*
G01*
X145024552Y-105873819D01*
X145177131Y-105937019D01*
X145314449Y-106028772D01*
X145431228Y-106145551D01*
X145522981Y-106282869D01*
X145586181Y-106435448D01*
X145618400Y-106597425D01*
X145618400Y-106762575D01*
X145586181Y-106924552D01*
X145522981Y-107077131D01*
X145431228Y-107214449D01*
X145314449Y-107331228D01*
X145177131Y-107422981D01*
X145024552Y-107486181D01*
X144970560Y-107496921D01*
X144862577Y-107518400D01*
X144697423Y-107518400D01*
X144589440Y-107496921D01*
X144535448Y-107486181D01*
X144382869Y-107422981D01*
X144245551Y-107331228D01*
X144128772Y-107214449D01*
X144037019Y-107077131D01*
X143973819Y-106924552D01*
X143941600Y-106762575D01*
X143941600Y-106597425D01*
X143973819Y-106435448D01*
X144037019Y-106282869D01*
X144128772Y-106145551D01*
X144245551Y-106028772D01*
X144382869Y-105937019D01*
X144535448Y-105873819D01*
X144589440Y-105863079D01*
X144697423Y-105841600D01*
X144862577Y-105841600D01*
X144970560Y-105863079D01*
X144970560Y-105863079D01*
G37*
G36*
X162750560Y-105863079D02*
G01*
X162804552Y-105873819D01*
X162957131Y-105937019D01*
X163094449Y-106028772D01*
X163211228Y-106145551D01*
X163302981Y-106282869D01*
X163366181Y-106435448D01*
X163398400Y-106597425D01*
X163398400Y-106762575D01*
X163366181Y-106924552D01*
X163302981Y-107077131D01*
X163211228Y-107214449D01*
X163094449Y-107331228D01*
X162957131Y-107422981D01*
X162804552Y-107486181D01*
X162750560Y-107496921D01*
X162642577Y-107518400D01*
X162477423Y-107518400D01*
X162369440Y-107496921D01*
X162315448Y-107486181D01*
X162162869Y-107422981D01*
X162025551Y-107331228D01*
X161908772Y-107214449D01*
X161817019Y-107077131D01*
X161753819Y-106924552D01*
X161721600Y-106762575D01*
X161721600Y-106597425D01*
X161753819Y-106435448D01*
X161817019Y-106282869D01*
X161908772Y-106145551D01*
X162025551Y-106028772D01*
X162162869Y-105937019D01*
X162315448Y-105873819D01*
X162369440Y-105863079D01*
X162477423Y-105841600D01*
X162642577Y-105841600D01*
X162750560Y-105863079D01*
X162750560Y-105863079D01*
G37*
G36*
X160210560Y-105863079D02*
G01*
X160264552Y-105873819D01*
X160417131Y-105937019D01*
X160554449Y-106028772D01*
X160671228Y-106145551D01*
X160762981Y-106282869D01*
X160826181Y-106435448D01*
X160858400Y-106597425D01*
X160858400Y-106762575D01*
X160826181Y-106924552D01*
X160762981Y-107077131D01*
X160671228Y-107214449D01*
X160554449Y-107331228D01*
X160417131Y-107422981D01*
X160264552Y-107486181D01*
X160210560Y-107496921D01*
X160102577Y-107518400D01*
X159937423Y-107518400D01*
X159829440Y-107496921D01*
X159775448Y-107486181D01*
X159622869Y-107422981D01*
X159485551Y-107331228D01*
X159368772Y-107214449D01*
X159277019Y-107077131D01*
X159213819Y-106924552D01*
X159181600Y-106762575D01*
X159181600Y-106597425D01*
X159213819Y-106435448D01*
X159277019Y-106282869D01*
X159368772Y-106145551D01*
X159485551Y-106028772D01*
X159622869Y-105937019D01*
X159775448Y-105873819D01*
X159829440Y-105863079D01*
X159937423Y-105841600D01*
X160102577Y-105841600D01*
X160210560Y-105863079D01*
X160210560Y-105863079D01*
G37*
G36*
X142430560Y-105863079D02*
G01*
X142484552Y-105873819D01*
X142637131Y-105937019D01*
X142774449Y-106028772D01*
X142891228Y-106145551D01*
X142982981Y-106282869D01*
X143046181Y-106435448D01*
X143078400Y-106597425D01*
X143078400Y-106762575D01*
X143046181Y-106924552D01*
X142982981Y-107077131D01*
X142891228Y-107214449D01*
X142774449Y-107331228D01*
X142637131Y-107422981D01*
X142484552Y-107486181D01*
X142430560Y-107496921D01*
X142322577Y-107518400D01*
X142157423Y-107518400D01*
X142049440Y-107496921D01*
X141995448Y-107486181D01*
X141842869Y-107422981D01*
X141705551Y-107331228D01*
X141588772Y-107214449D01*
X141497019Y-107077131D01*
X141433819Y-106924552D01*
X141401600Y-106762575D01*
X141401600Y-106597425D01*
X141433819Y-106435448D01*
X141497019Y-106282869D01*
X141588772Y-106145551D01*
X141705551Y-106028772D01*
X141842869Y-105937019D01*
X141995448Y-105873819D01*
X142049440Y-105863079D01*
X142157423Y-105841600D01*
X142322577Y-105841600D01*
X142430560Y-105863079D01*
X142430560Y-105863079D01*
G37*
G36*
X151492200Y-106520600D02*
G01*
X150690200Y-106520600D01*
X150690200Y-105518600D01*
X151492200Y-105518600D01*
X151492200Y-106520600D01*
X151492200Y-106520600D01*
G37*
G36*
X152992200Y-106520600D02*
G01*
X152190200Y-106520600D01*
X152190200Y-105518600D01*
X152992200Y-105518600D01*
X152992200Y-106520600D01*
X152992200Y-106520600D01*
G37*
G36*
X155054400Y-106396000D02*
G01*
X154452400Y-106396000D01*
X154452400Y-105694000D01*
X155054400Y-105694000D01*
X155054400Y-106396000D01*
X155054400Y-106396000D01*
G37*
G36*
X153954400Y-106396000D02*
G01*
X153352400Y-106396000D01*
X153352400Y-105694000D01*
X153954400Y-105694000D01*
X153954400Y-106396000D01*
X153954400Y-106396000D01*
G37*
G36*
X150198200Y-106266600D02*
G01*
X149396200Y-106266600D01*
X149396200Y-105264600D01*
X150198200Y-105264600D01*
X150198200Y-106266600D01*
X150198200Y-106266600D01*
G37*
G36*
X148698200Y-106266600D02*
G01*
X147896200Y-106266600D01*
X147896200Y-105264600D01*
X148698200Y-105264600D01*
X148698200Y-106266600D01*
X148698200Y-106266600D01*
G37*
G36*
X142430560Y-103323079D02*
G01*
X142484552Y-103333819D01*
X142637131Y-103397019D01*
X142774449Y-103488772D01*
X142891228Y-103605551D01*
X142982981Y-103742869D01*
X143046181Y-103895448D01*
X143078400Y-104057425D01*
X143078400Y-104222575D01*
X143046181Y-104384552D01*
X142982981Y-104537131D01*
X142891228Y-104674449D01*
X142774449Y-104791228D01*
X142637131Y-104882981D01*
X142484552Y-104946181D01*
X142430560Y-104956921D01*
X142322577Y-104978400D01*
X142157423Y-104978400D01*
X142049440Y-104956921D01*
X141995448Y-104946181D01*
X141842869Y-104882981D01*
X141705551Y-104791228D01*
X141588772Y-104674449D01*
X141497019Y-104537131D01*
X141433819Y-104384552D01*
X141401600Y-104222575D01*
X141401600Y-104057425D01*
X141433819Y-103895448D01*
X141497019Y-103742869D01*
X141588772Y-103605551D01*
X141705551Y-103488772D01*
X141842869Y-103397019D01*
X141995448Y-103333819D01*
X142049440Y-103323079D01*
X142157423Y-103301600D01*
X142322577Y-103301600D01*
X142430560Y-103323079D01*
X142430560Y-103323079D01*
G37*
G36*
X160210560Y-103323079D02*
G01*
X160264552Y-103333819D01*
X160417131Y-103397019D01*
X160554449Y-103488772D01*
X160671228Y-103605551D01*
X160762981Y-103742869D01*
X160826181Y-103895448D01*
X160858400Y-104057425D01*
X160858400Y-104222575D01*
X160826181Y-104384552D01*
X160762981Y-104537131D01*
X160671228Y-104674449D01*
X160554449Y-104791228D01*
X160417131Y-104882981D01*
X160264552Y-104946181D01*
X160210560Y-104956921D01*
X160102577Y-104978400D01*
X159937423Y-104978400D01*
X159829440Y-104956921D01*
X159775448Y-104946181D01*
X159622869Y-104882981D01*
X159485551Y-104791228D01*
X159368772Y-104674449D01*
X159277019Y-104537131D01*
X159213819Y-104384552D01*
X159181600Y-104222575D01*
X159181600Y-104057425D01*
X159213819Y-103895448D01*
X159277019Y-103742869D01*
X159368772Y-103605551D01*
X159485551Y-103488772D01*
X159622869Y-103397019D01*
X159775448Y-103333819D01*
X159829440Y-103323079D01*
X159937423Y-103301600D01*
X160102577Y-103301600D01*
X160210560Y-103323079D01*
X160210560Y-103323079D01*
G37*
G36*
X162750560Y-103323079D02*
G01*
X162804552Y-103333819D01*
X162957131Y-103397019D01*
X163094449Y-103488772D01*
X163211228Y-103605551D01*
X163302981Y-103742869D01*
X163366181Y-103895448D01*
X163398400Y-104057425D01*
X163398400Y-104222575D01*
X163366181Y-104384552D01*
X163302981Y-104537131D01*
X163211228Y-104674449D01*
X163094449Y-104791228D01*
X162957131Y-104882981D01*
X162804552Y-104946181D01*
X162750560Y-104956921D01*
X162642577Y-104978400D01*
X162477423Y-104978400D01*
X162369440Y-104956921D01*
X162315448Y-104946181D01*
X162162869Y-104882981D01*
X162025551Y-104791228D01*
X161908772Y-104674449D01*
X161817019Y-104537131D01*
X161753819Y-104384552D01*
X161721600Y-104222575D01*
X161721600Y-104057425D01*
X161753819Y-103895448D01*
X161817019Y-103742869D01*
X161908772Y-103605551D01*
X162025551Y-103488772D01*
X162162869Y-103397019D01*
X162315448Y-103333819D01*
X162369440Y-103323079D01*
X162477423Y-103301600D01*
X162642577Y-103301600D01*
X162750560Y-103323079D01*
X162750560Y-103323079D01*
G37*
G36*
X144970560Y-103323079D02*
G01*
X145024552Y-103333819D01*
X145177131Y-103397019D01*
X145314449Y-103488772D01*
X145431228Y-103605551D01*
X145522981Y-103742869D01*
X145586181Y-103895448D01*
X145618400Y-104057425D01*
X145618400Y-104222575D01*
X145586181Y-104384552D01*
X145522981Y-104537131D01*
X145431228Y-104674449D01*
X145314449Y-104791228D01*
X145177131Y-104882981D01*
X145024552Y-104946181D01*
X144970560Y-104956921D01*
X144862577Y-104978400D01*
X144697423Y-104978400D01*
X144589440Y-104956921D01*
X144535448Y-104946181D01*
X144382869Y-104882981D01*
X144245551Y-104791228D01*
X144128772Y-104674449D01*
X144037019Y-104537131D01*
X143973819Y-104384552D01*
X143941600Y-104222575D01*
X143941600Y-104057425D01*
X143973819Y-103895448D01*
X144037019Y-103742869D01*
X144128772Y-103605551D01*
X144245551Y-103488772D01*
X144382869Y-103397019D01*
X144535448Y-103333819D01*
X144589440Y-103323079D01*
X144697423Y-103301600D01*
X144862577Y-103301600D01*
X144970560Y-103323079D01*
X144970560Y-103323079D01*
G37*
G36*
X149145000Y-102840000D02*
G01*
X148543000Y-102840000D01*
X148543000Y-102138000D01*
X149145000Y-102138000D01*
X149145000Y-102840000D01*
X149145000Y-102840000D01*
G37*
G36*
X148045000Y-102840000D02*
G01*
X147443000Y-102840000D01*
X147443000Y-102138000D01*
X148045000Y-102138000D01*
X148045000Y-102840000D01*
X148045000Y-102840000D01*
G37*
G36*
X162750560Y-100783079D02*
G01*
X162804552Y-100793819D01*
X162957131Y-100857019D01*
X163094449Y-100948772D01*
X163211228Y-101065551D01*
X163302981Y-101202869D01*
X163366181Y-101355448D01*
X163398400Y-101517425D01*
X163398400Y-101682575D01*
X163366181Y-101844552D01*
X163302981Y-101997131D01*
X163211228Y-102134449D01*
X163094449Y-102251228D01*
X162957131Y-102342981D01*
X162804552Y-102406181D01*
X162750560Y-102416921D01*
X162642577Y-102438400D01*
X162477423Y-102438400D01*
X162369440Y-102416921D01*
X162315448Y-102406181D01*
X162162869Y-102342981D01*
X162025551Y-102251228D01*
X161908772Y-102134449D01*
X161817019Y-101997131D01*
X161753819Y-101844552D01*
X161721600Y-101682575D01*
X161721600Y-101517425D01*
X161753819Y-101355448D01*
X161817019Y-101202869D01*
X161908772Y-101065551D01*
X162025551Y-100948772D01*
X162162869Y-100857019D01*
X162315448Y-100793819D01*
X162369440Y-100783079D01*
X162477423Y-100761600D01*
X162642577Y-100761600D01*
X162750560Y-100783079D01*
X162750560Y-100783079D01*
G37*
G36*
X144970560Y-100783079D02*
G01*
X145024552Y-100793819D01*
X145177131Y-100857019D01*
X145314449Y-100948772D01*
X145431228Y-101065551D01*
X145522981Y-101202869D01*
X145586181Y-101355448D01*
X145618400Y-101517425D01*
X145618400Y-101682575D01*
X145586181Y-101844552D01*
X145522981Y-101997131D01*
X145431228Y-102134449D01*
X145314449Y-102251228D01*
X145177131Y-102342981D01*
X145024552Y-102406181D01*
X144970560Y-102416921D01*
X144862577Y-102438400D01*
X144697423Y-102438400D01*
X144589440Y-102416921D01*
X144535448Y-102406181D01*
X144382869Y-102342981D01*
X144245551Y-102251228D01*
X144128772Y-102134449D01*
X144037019Y-101997131D01*
X143973819Y-101844552D01*
X143941600Y-101682575D01*
X143941600Y-101517425D01*
X143973819Y-101355448D01*
X144037019Y-101202869D01*
X144128772Y-101065551D01*
X144245551Y-100948772D01*
X144382869Y-100857019D01*
X144535448Y-100793819D01*
X144589440Y-100783079D01*
X144697423Y-100761600D01*
X144862577Y-100761600D01*
X144970560Y-100783079D01*
X144970560Y-100783079D01*
G37*
G36*
X142430560Y-100783079D02*
G01*
X142484552Y-100793819D01*
X142637131Y-100857019D01*
X142774449Y-100948772D01*
X142891228Y-101065551D01*
X142982981Y-101202869D01*
X143046181Y-101355448D01*
X143078400Y-101517425D01*
X143078400Y-101682575D01*
X143046181Y-101844552D01*
X142982981Y-101997131D01*
X142891228Y-102134449D01*
X142774449Y-102251228D01*
X142637131Y-102342981D01*
X142484552Y-102406181D01*
X142430560Y-102416921D01*
X142322577Y-102438400D01*
X142157423Y-102438400D01*
X142049440Y-102416921D01*
X141995448Y-102406181D01*
X141842869Y-102342981D01*
X141705551Y-102251228D01*
X141588772Y-102134449D01*
X141497019Y-101997131D01*
X141433819Y-101844552D01*
X141401600Y-101682575D01*
X141401600Y-101517425D01*
X141433819Y-101355448D01*
X141497019Y-101202869D01*
X141588772Y-101065551D01*
X141705551Y-100948772D01*
X141842869Y-100857019D01*
X141995448Y-100793819D01*
X142049440Y-100783079D01*
X142157423Y-100761600D01*
X142322577Y-100761600D01*
X142430560Y-100783079D01*
X142430560Y-100783079D01*
G37*
G36*
X160210560Y-100783079D02*
G01*
X160264552Y-100793819D01*
X160417131Y-100857019D01*
X160554449Y-100948772D01*
X160671228Y-101065551D01*
X160762981Y-101202869D01*
X160826181Y-101355448D01*
X160858400Y-101517425D01*
X160858400Y-101682575D01*
X160826181Y-101844552D01*
X160762981Y-101997131D01*
X160671228Y-102134449D01*
X160554449Y-102251228D01*
X160417131Y-102342981D01*
X160264552Y-102406181D01*
X160210560Y-102416921D01*
X160102577Y-102438400D01*
X159937423Y-102438400D01*
X159829440Y-102416921D01*
X159775448Y-102406181D01*
X159622869Y-102342981D01*
X159485551Y-102251228D01*
X159368772Y-102134449D01*
X159277019Y-101997131D01*
X159213819Y-101844552D01*
X159181600Y-101682575D01*
X159181600Y-101517425D01*
X159213819Y-101355448D01*
X159277019Y-101202869D01*
X159368772Y-101065551D01*
X159485551Y-100948772D01*
X159622869Y-100857019D01*
X159775448Y-100793819D01*
X159829440Y-100783079D01*
X159937423Y-100761600D01*
X160102577Y-100761600D01*
X160210560Y-100783079D01*
X160210560Y-100783079D01*
G37*
G36*
X149145000Y-101443000D02*
G01*
X148543000Y-101443000D01*
X148543000Y-100741000D01*
X149145000Y-100741000D01*
X149145000Y-101443000D01*
X149145000Y-101443000D01*
G37*
G36*
X148045000Y-101443000D02*
G01*
X147443000Y-101443000D01*
X147443000Y-100741000D01*
X148045000Y-100741000D01*
X148045000Y-101443000D01*
X148045000Y-101443000D01*
G37*
G36*
X156434000Y-100461000D02*
G01*
X155732000Y-100461000D01*
X155732000Y-99859000D01*
X156434000Y-99859000D01*
X156434000Y-100461000D01*
X156434000Y-100461000D01*
G37*
G36*
X162750560Y-98243079D02*
G01*
X162804552Y-98253819D01*
X162957131Y-98317019D01*
X163094449Y-98408772D01*
X163211228Y-98525551D01*
X163302981Y-98662869D01*
X163366181Y-98815448D01*
X163398400Y-98977425D01*
X163398400Y-99142575D01*
X163366181Y-99304552D01*
X163302981Y-99457131D01*
X163211228Y-99594449D01*
X163094449Y-99711228D01*
X162957131Y-99802981D01*
X162804552Y-99866181D01*
X162750560Y-99876921D01*
X162642577Y-99898400D01*
X162477423Y-99898400D01*
X162369440Y-99876921D01*
X162315448Y-99866181D01*
X162162869Y-99802981D01*
X162025551Y-99711228D01*
X161908772Y-99594449D01*
X161817019Y-99457131D01*
X161753819Y-99304552D01*
X161721600Y-99142575D01*
X161721600Y-98977425D01*
X161753819Y-98815448D01*
X161817019Y-98662869D01*
X161908772Y-98525551D01*
X162025551Y-98408772D01*
X162162869Y-98317019D01*
X162315448Y-98253819D01*
X162369440Y-98243079D01*
X162477423Y-98221600D01*
X162642577Y-98221600D01*
X162750560Y-98243079D01*
X162750560Y-98243079D01*
G37*
G36*
X160210560Y-98243079D02*
G01*
X160264552Y-98253819D01*
X160417131Y-98317019D01*
X160554449Y-98408772D01*
X160671228Y-98525551D01*
X160762981Y-98662869D01*
X160826181Y-98815448D01*
X160858400Y-98977425D01*
X160858400Y-99142575D01*
X160826181Y-99304552D01*
X160762981Y-99457131D01*
X160671228Y-99594449D01*
X160554449Y-99711228D01*
X160417131Y-99802981D01*
X160264552Y-99866181D01*
X160210560Y-99876921D01*
X160102577Y-99898400D01*
X159937423Y-99898400D01*
X159829440Y-99876921D01*
X159775448Y-99866181D01*
X159622869Y-99802981D01*
X159485551Y-99711228D01*
X159368772Y-99594449D01*
X159277019Y-99457131D01*
X159213819Y-99304552D01*
X159181600Y-99142575D01*
X159181600Y-98977425D01*
X159213819Y-98815448D01*
X159277019Y-98662869D01*
X159368772Y-98525551D01*
X159485551Y-98408772D01*
X159622869Y-98317019D01*
X159775448Y-98253819D01*
X159829440Y-98243079D01*
X159937423Y-98221600D01*
X160102577Y-98221600D01*
X160210560Y-98243079D01*
X160210560Y-98243079D01*
G37*
G36*
X144970560Y-98243079D02*
G01*
X145024552Y-98253819D01*
X145177131Y-98317019D01*
X145314449Y-98408772D01*
X145431228Y-98525551D01*
X145522981Y-98662869D01*
X145586181Y-98815448D01*
X145618400Y-98977425D01*
X145618400Y-99142575D01*
X145586181Y-99304552D01*
X145522981Y-99457131D01*
X145431228Y-99594449D01*
X145314449Y-99711228D01*
X145177131Y-99802981D01*
X145024552Y-99866181D01*
X144970560Y-99876921D01*
X144862577Y-99898400D01*
X144697423Y-99898400D01*
X144589440Y-99876921D01*
X144535448Y-99866181D01*
X144382869Y-99802981D01*
X144245551Y-99711228D01*
X144128772Y-99594449D01*
X144037019Y-99457131D01*
X143973819Y-99304552D01*
X143941600Y-99142575D01*
X143941600Y-98977425D01*
X143973819Y-98815448D01*
X144037019Y-98662869D01*
X144128772Y-98525551D01*
X144245551Y-98408772D01*
X144382869Y-98317019D01*
X144535448Y-98253819D01*
X144589440Y-98243079D01*
X144697423Y-98221600D01*
X144862577Y-98221600D01*
X144970560Y-98243079D01*
X144970560Y-98243079D01*
G37*
G36*
X142430560Y-98243079D02*
G01*
X142484552Y-98253819D01*
X142637131Y-98317019D01*
X142774449Y-98408772D01*
X142891228Y-98525551D01*
X142982981Y-98662869D01*
X143046181Y-98815448D01*
X143078400Y-98977425D01*
X143078400Y-99142575D01*
X143046181Y-99304552D01*
X142982981Y-99457131D01*
X142891228Y-99594449D01*
X142774449Y-99711228D01*
X142637131Y-99802981D01*
X142484552Y-99866181D01*
X142430560Y-99876921D01*
X142322577Y-99898400D01*
X142157423Y-99898400D01*
X142049440Y-99876921D01*
X141995448Y-99866181D01*
X141842869Y-99802981D01*
X141705551Y-99711228D01*
X141588772Y-99594449D01*
X141497019Y-99457131D01*
X141433819Y-99304552D01*
X141401600Y-99142575D01*
X141401600Y-98977425D01*
X141433819Y-98815448D01*
X141497019Y-98662869D01*
X141588772Y-98525551D01*
X141705551Y-98408772D01*
X141842869Y-98317019D01*
X141995448Y-98253819D01*
X142049440Y-98243079D01*
X142157423Y-98221600D01*
X142322577Y-98221600D01*
X142430560Y-98243079D01*
X142430560Y-98243079D01*
G37*
G36*
X149272000Y-99411000D02*
G01*
X148670000Y-99411000D01*
X148670000Y-98709000D01*
X149272000Y-98709000D01*
X149272000Y-99411000D01*
X149272000Y-99411000D01*
G37*
G36*
X148172000Y-99411000D02*
G01*
X147570000Y-99411000D01*
X147570000Y-98709000D01*
X148172000Y-98709000D01*
X148172000Y-99411000D01*
X148172000Y-99411000D01*
G37*
G36*
X156434000Y-99361000D02*
G01*
X155732000Y-99361000D01*
X155732000Y-98759000D01*
X156434000Y-98759000D01*
X156434000Y-99361000D01*
X156434000Y-99361000D01*
G37*
G36*
X153639200Y-98722800D02*
G01*
X152837200Y-98722800D01*
X152837200Y-97720800D01*
X153639200Y-97720800D01*
X153639200Y-98722800D01*
X153639200Y-98722800D01*
G37*
G36*
X152139200Y-98722800D02*
G01*
X151337200Y-98722800D01*
X151337200Y-97720800D01*
X152139200Y-97720800D01*
X152139200Y-98722800D01*
X152139200Y-98722800D01*
G37*
G36*
X149636400Y-98344200D02*
G01*
X149034400Y-98344200D01*
X149034400Y-97642200D01*
X149636400Y-97642200D01*
X149636400Y-98344200D01*
X149636400Y-98344200D01*
G37*
G36*
X150736400Y-98344200D02*
G01*
X150134400Y-98344200D01*
X150134400Y-97642200D01*
X150736400Y-97642200D01*
X150736400Y-98344200D01*
X150736400Y-98344200D01*
G37*
G36*
X144970560Y-95703079D02*
G01*
X145024552Y-95713819D01*
X145177131Y-95777019D01*
X145314449Y-95868772D01*
X145431228Y-95985551D01*
X145522981Y-96122869D01*
X145586181Y-96275448D01*
X145618400Y-96437425D01*
X145618400Y-96602575D01*
X145586181Y-96764552D01*
X145522981Y-96917131D01*
X145431228Y-97054449D01*
X145314449Y-97171228D01*
X145177131Y-97262981D01*
X145024552Y-97326181D01*
X144970560Y-97336921D01*
X144862577Y-97358400D01*
X144697423Y-97358400D01*
X144589440Y-97336921D01*
X144535448Y-97326181D01*
X144382869Y-97262981D01*
X144245551Y-97171228D01*
X144128772Y-97054449D01*
X144037019Y-96917131D01*
X143973819Y-96764552D01*
X143941600Y-96602575D01*
X143941600Y-96437425D01*
X143973819Y-96275448D01*
X144037019Y-96122869D01*
X144128772Y-95985551D01*
X144245551Y-95868772D01*
X144382869Y-95777019D01*
X144535448Y-95713819D01*
X144589440Y-95703079D01*
X144697423Y-95681600D01*
X144862577Y-95681600D01*
X144970560Y-95703079D01*
X144970560Y-95703079D01*
G37*
G36*
X142430560Y-95703079D02*
G01*
X142484552Y-95713819D01*
X142637131Y-95777019D01*
X142774449Y-95868772D01*
X142891228Y-95985551D01*
X142982981Y-96122869D01*
X143046181Y-96275448D01*
X143078400Y-96437425D01*
X143078400Y-96602575D01*
X143046181Y-96764552D01*
X142982981Y-96917131D01*
X142891228Y-97054449D01*
X142774449Y-97171228D01*
X142637131Y-97262981D01*
X142484552Y-97326181D01*
X142430560Y-97336921D01*
X142322577Y-97358400D01*
X142157423Y-97358400D01*
X142049440Y-97336921D01*
X141995448Y-97326181D01*
X141842869Y-97262981D01*
X141705551Y-97171228D01*
X141588772Y-97054449D01*
X141497019Y-96917131D01*
X141433819Y-96764552D01*
X141401600Y-96602575D01*
X141401600Y-96437425D01*
X141433819Y-96275448D01*
X141497019Y-96122869D01*
X141588772Y-95985551D01*
X141705551Y-95868772D01*
X141842869Y-95777019D01*
X141995448Y-95713819D01*
X142049440Y-95703079D01*
X142157423Y-95681600D01*
X142322577Y-95681600D01*
X142430560Y-95703079D01*
X142430560Y-95703079D01*
G37*
G36*
X160210560Y-95703079D02*
G01*
X160264552Y-95713819D01*
X160417131Y-95777019D01*
X160554449Y-95868772D01*
X160671228Y-95985551D01*
X160762981Y-96122869D01*
X160826181Y-96275448D01*
X160858400Y-96437425D01*
X160858400Y-96602575D01*
X160826181Y-96764552D01*
X160762981Y-96917131D01*
X160671228Y-97054449D01*
X160554449Y-97171228D01*
X160417131Y-97262981D01*
X160264552Y-97326181D01*
X160210560Y-97336921D01*
X160102577Y-97358400D01*
X159937423Y-97358400D01*
X159829440Y-97336921D01*
X159775448Y-97326181D01*
X159622869Y-97262981D01*
X159485551Y-97171228D01*
X159368772Y-97054449D01*
X159277019Y-96917131D01*
X159213819Y-96764552D01*
X159181600Y-96602575D01*
X159181600Y-96437425D01*
X159213819Y-96275448D01*
X159277019Y-96122869D01*
X159368772Y-95985551D01*
X159485551Y-95868772D01*
X159622869Y-95777019D01*
X159775448Y-95713819D01*
X159829440Y-95703079D01*
X159937423Y-95681600D01*
X160102577Y-95681600D01*
X160210560Y-95703079D01*
X160210560Y-95703079D01*
G37*
G36*
X162750560Y-95703079D02*
G01*
X162804552Y-95713819D01*
X162957131Y-95777019D01*
X163094449Y-95868772D01*
X163211228Y-95985551D01*
X163302981Y-96122869D01*
X163366181Y-96275448D01*
X163398400Y-96437425D01*
X163398400Y-96602575D01*
X163366181Y-96764552D01*
X163302981Y-96917131D01*
X163211228Y-97054449D01*
X163094449Y-97171228D01*
X162957131Y-97262981D01*
X162804552Y-97326181D01*
X162750560Y-97336921D01*
X162642577Y-97358400D01*
X162477423Y-97358400D01*
X162369440Y-97336921D01*
X162315448Y-97326181D01*
X162162869Y-97262981D01*
X162025551Y-97171228D01*
X161908772Y-97054449D01*
X161817019Y-96917131D01*
X161753819Y-96764552D01*
X161721600Y-96602575D01*
X161721600Y-96437425D01*
X161753819Y-96275448D01*
X161817019Y-96122869D01*
X161908772Y-95985551D01*
X162025551Y-95868772D01*
X162162869Y-95777019D01*
X162315448Y-95713819D01*
X162369440Y-95703079D01*
X162477423Y-95681600D01*
X162642577Y-95681600D01*
X162750560Y-95703079D01*
X162750560Y-95703079D01*
G37*
G36*
X160210560Y-93163079D02*
G01*
X160264552Y-93173819D01*
X160417131Y-93237019D01*
X160554449Y-93328772D01*
X160671228Y-93445551D01*
X160762981Y-93582869D01*
X160826181Y-93735448D01*
X160858400Y-93897425D01*
X160858400Y-94062575D01*
X160826181Y-94224552D01*
X160762981Y-94377131D01*
X160671228Y-94514449D01*
X160554449Y-94631228D01*
X160417131Y-94722981D01*
X160264552Y-94786181D01*
X160210560Y-94796921D01*
X160102577Y-94818400D01*
X159937423Y-94818400D01*
X159829440Y-94796921D01*
X159775448Y-94786181D01*
X159622869Y-94722981D01*
X159485551Y-94631228D01*
X159368772Y-94514449D01*
X159277019Y-94377131D01*
X159213819Y-94224552D01*
X159181600Y-94062575D01*
X159181600Y-93897425D01*
X159213819Y-93735448D01*
X159277019Y-93582869D01*
X159368772Y-93445551D01*
X159485551Y-93328772D01*
X159622869Y-93237019D01*
X159775448Y-93173819D01*
X159829440Y-93163079D01*
X159937423Y-93141600D01*
X160102577Y-93141600D01*
X160210560Y-93163079D01*
X160210560Y-93163079D01*
G37*
G36*
X157670560Y-93163079D02*
G01*
X157724552Y-93173819D01*
X157877131Y-93237019D01*
X158014449Y-93328772D01*
X158131228Y-93445551D01*
X158222981Y-93582869D01*
X158286181Y-93735448D01*
X158318400Y-93897425D01*
X158318400Y-94062575D01*
X158286181Y-94224552D01*
X158222981Y-94377131D01*
X158131228Y-94514449D01*
X158014449Y-94631228D01*
X157877131Y-94722981D01*
X157724552Y-94786181D01*
X157670560Y-94796921D01*
X157562577Y-94818400D01*
X157397423Y-94818400D01*
X157289440Y-94796921D01*
X157235448Y-94786181D01*
X157082869Y-94722981D01*
X156945551Y-94631228D01*
X156828772Y-94514449D01*
X156737019Y-94377131D01*
X156673819Y-94224552D01*
X156641600Y-94062575D01*
X156641600Y-93897425D01*
X156673819Y-93735448D01*
X156737019Y-93582869D01*
X156828772Y-93445551D01*
X156945551Y-93328772D01*
X157082869Y-93237019D01*
X157235448Y-93173819D01*
X157289440Y-93163079D01*
X157397423Y-93141600D01*
X157562577Y-93141600D01*
X157670560Y-93163079D01*
X157670560Y-93163079D01*
G37*
G36*
X150050560Y-93163079D02*
G01*
X150104552Y-93173819D01*
X150257131Y-93237019D01*
X150394449Y-93328772D01*
X150511228Y-93445551D01*
X150602981Y-93582869D01*
X150666181Y-93735448D01*
X150698400Y-93897425D01*
X150698400Y-94062575D01*
X150666181Y-94224552D01*
X150602981Y-94377131D01*
X150511228Y-94514449D01*
X150394449Y-94631228D01*
X150257131Y-94722981D01*
X150104552Y-94786181D01*
X150050560Y-94796921D01*
X149942577Y-94818400D01*
X149777423Y-94818400D01*
X149669440Y-94796921D01*
X149615448Y-94786181D01*
X149462869Y-94722981D01*
X149325551Y-94631228D01*
X149208772Y-94514449D01*
X149117019Y-94377131D01*
X149053819Y-94224552D01*
X149021600Y-94062575D01*
X149021600Y-93897425D01*
X149053819Y-93735448D01*
X149117019Y-93582869D01*
X149208772Y-93445551D01*
X149325551Y-93328772D01*
X149462869Y-93237019D01*
X149615448Y-93173819D01*
X149669440Y-93163079D01*
X149777423Y-93141600D01*
X149942577Y-93141600D01*
X150050560Y-93163079D01*
X150050560Y-93163079D01*
G37*
G36*
X155130560Y-93163079D02*
G01*
X155184552Y-93173819D01*
X155337131Y-93237019D01*
X155474449Y-93328772D01*
X155591228Y-93445551D01*
X155682981Y-93582869D01*
X155746181Y-93735448D01*
X155778400Y-93897425D01*
X155778400Y-94062575D01*
X155746181Y-94224552D01*
X155682981Y-94377131D01*
X155591228Y-94514449D01*
X155474449Y-94631228D01*
X155337131Y-94722981D01*
X155184552Y-94786181D01*
X155130560Y-94796921D01*
X155022577Y-94818400D01*
X154857423Y-94818400D01*
X154749440Y-94796921D01*
X154695448Y-94786181D01*
X154542869Y-94722981D01*
X154405551Y-94631228D01*
X154288772Y-94514449D01*
X154197019Y-94377131D01*
X154133819Y-94224552D01*
X154101600Y-94062575D01*
X154101600Y-93897425D01*
X154133819Y-93735448D01*
X154197019Y-93582869D01*
X154288772Y-93445551D01*
X154405551Y-93328772D01*
X154542869Y-93237019D01*
X154695448Y-93173819D01*
X154749440Y-93163079D01*
X154857423Y-93141600D01*
X155022577Y-93141600D01*
X155130560Y-93163079D01*
X155130560Y-93163079D01*
G37*
G36*
X152590560Y-93163079D02*
G01*
X152644552Y-93173819D01*
X152797131Y-93237019D01*
X152934449Y-93328772D01*
X153051228Y-93445551D01*
X153142981Y-93582869D01*
X153206181Y-93735448D01*
X153238400Y-93897425D01*
X153238400Y-94062575D01*
X153206181Y-94224552D01*
X153142981Y-94377131D01*
X153051228Y-94514449D01*
X152934449Y-94631228D01*
X152797131Y-94722981D01*
X152644552Y-94786181D01*
X152590560Y-94796921D01*
X152482577Y-94818400D01*
X152317423Y-94818400D01*
X152209440Y-94796921D01*
X152155448Y-94786181D01*
X152002869Y-94722981D01*
X151865551Y-94631228D01*
X151748772Y-94514449D01*
X151657019Y-94377131D01*
X151593819Y-94224552D01*
X151561600Y-94062575D01*
X151561600Y-93897425D01*
X151593819Y-93735448D01*
X151657019Y-93582869D01*
X151748772Y-93445551D01*
X151865551Y-93328772D01*
X152002869Y-93237019D01*
X152155448Y-93173819D01*
X152209440Y-93163079D01*
X152317423Y-93141600D01*
X152482577Y-93141600D01*
X152590560Y-93163079D01*
X152590560Y-93163079D01*
G37*
G36*
X144970560Y-93163079D02*
G01*
X145024552Y-93173819D01*
X145177131Y-93237019D01*
X145314449Y-93328772D01*
X145431228Y-93445551D01*
X145522981Y-93582869D01*
X145586181Y-93735448D01*
X145618400Y-93897425D01*
X145618400Y-94062575D01*
X145586181Y-94224552D01*
X145522981Y-94377131D01*
X145431228Y-94514449D01*
X145314449Y-94631228D01*
X145177131Y-94722981D01*
X145024552Y-94786181D01*
X144970560Y-94796921D01*
X144862577Y-94818400D01*
X144697423Y-94818400D01*
X144589440Y-94796921D01*
X144535448Y-94786181D01*
X144382869Y-94722981D01*
X144245551Y-94631228D01*
X144128772Y-94514449D01*
X144037019Y-94377131D01*
X143973819Y-94224552D01*
X143941600Y-94062575D01*
X143941600Y-93897425D01*
X143973819Y-93735448D01*
X144037019Y-93582869D01*
X144128772Y-93445551D01*
X144245551Y-93328772D01*
X144382869Y-93237019D01*
X144535448Y-93173819D01*
X144589440Y-93163079D01*
X144697423Y-93141600D01*
X144862577Y-93141600D01*
X144970560Y-93163079D01*
X144970560Y-93163079D01*
G37*
G36*
X142430560Y-93163079D02*
G01*
X142484552Y-93173819D01*
X142637131Y-93237019D01*
X142774449Y-93328772D01*
X142891228Y-93445551D01*
X142982981Y-93582869D01*
X143046181Y-93735448D01*
X143078400Y-93897425D01*
X143078400Y-94062575D01*
X143046181Y-94224552D01*
X142982981Y-94377131D01*
X142891228Y-94514449D01*
X142774449Y-94631228D01*
X142637131Y-94722981D01*
X142484552Y-94786181D01*
X142430560Y-94796921D01*
X142322577Y-94818400D01*
X142157423Y-94818400D01*
X142049440Y-94796921D01*
X141995448Y-94786181D01*
X141842869Y-94722981D01*
X141705551Y-94631228D01*
X141588772Y-94514449D01*
X141497019Y-94377131D01*
X141433819Y-94224552D01*
X141401600Y-94062575D01*
X141401600Y-93897425D01*
X141433819Y-93735448D01*
X141497019Y-93582869D01*
X141588772Y-93445551D01*
X141705551Y-93328772D01*
X141842869Y-93237019D01*
X141995448Y-93173819D01*
X142049440Y-93163079D01*
X142157423Y-93141600D01*
X142322577Y-93141600D01*
X142430560Y-93163079D01*
X142430560Y-93163079D01*
G37*
G36*
X162750560Y-93163079D02*
G01*
X162804552Y-93173819D01*
X162957131Y-93237019D01*
X163094449Y-93328772D01*
X163211228Y-93445551D01*
X163302981Y-93582869D01*
X163366181Y-93735448D01*
X163398400Y-93897425D01*
X163398400Y-94062575D01*
X163366181Y-94224552D01*
X163302981Y-94377131D01*
X163211228Y-94514449D01*
X163094449Y-94631228D01*
X162957131Y-94722981D01*
X162804552Y-94786181D01*
X162750560Y-94796921D01*
X162642577Y-94818400D01*
X162477423Y-94818400D01*
X162369440Y-94796921D01*
X162315448Y-94786181D01*
X162162869Y-94722981D01*
X162025551Y-94631228D01*
X161908772Y-94514449D01*
X161817019Y-94377131D01*
X161753819Y-94224552D01*
X161721600Y-94062575D01*
X161721600Y-93897425D01*
X161753819Y-93735448D01*
X161817019Y-93582869D01*
X161908772Y-93445551D01*
X162025551Y-93328772D01*
X162162869Y-93237019D01*
X162315448Y-93173819D01*
X162369440Y-93163079D01*
X162477423Y-93141600D01*
X162642577Y-93141600D01*
X162750560Y-93163079D01*
X162750560Y-93163079D01*
G37*
G36*
X147510560Y-93163079D02*
G01*
X147564552Y-93173819D01*
X147717131Y-93237019D01*
X147854449Y-93328772D01*
X147971228Y-93445551D01*
X148062981Y-93582869D01*
X148126181Y-93735448D01*
X148158400Y-93897425D01*
X148158400Y-94062575D01*
X148126181Y-94224552D01*
X148062981Y-94377131D01*
X147971228Y-94514449D01*
X147854449Y-94631228D01*
X147717131Y-94722981D01*
X147564552Y-94786181D01*
X147510560Y-94796921D01*
X147402577Y-94818400D01*
X147237423Y-94818400D01*
X147129440Y-94796921D01*
X147075448Y-94786181D01*
X146922869Y-94722981D01*
X146785551Y-94631228D01*
X146668772Y-94514449D01*
X146577019Y-94377131D01*
X146513819Y-94224552D01*
X146481600Y-94062575D01*
X146481600Y-93897425D01*
X146513819Y-93735448D01*
X146577019Y-93582869D01*
X146668772Y-93445551D01*
X146785551Y-93328772D01*
X146922869Y-93237019D01*
X147075448Y-93173819D01*
X147129440Y-93163079D01*
X147237423Y-93141600D01*
X147402577Y-93141600D01*
X147510560Y-93163079D01*
X147510560Y-93163079D01*
G37*
G36*
X144970560Y-90623079D02*
G01*
X145024552Y-90633819D01*
X145177131Y-90697019D01*
X145314449Y-90788772D01*
X145431228Y-90905551D01*
X145522981Y-91042869D01*
X145586181Y-91195448D01*
X145618400Y-91357425D01*
X145618400Y-91522575D01*
X145586181Y-91684552D01*
X145522981Y-91837131D01*
X145431228Y-91974449D01*
X145314449Y-92091228D01*
X145177131Y-92182981D01*
X145024552Y-92246181D01*
X144970560Y-92256921D01*
X144862577Y-92278400D01*
X144697423Y-92278400D01*
X144589440Y-92256921D01*
X144535448Y-92246181D01*
X144382869Y-92182981D01*
X144245551Y-92091228D01*
X144128772Y-91974449D01*
X144037019Y-91837131D01*
X143973819Y-91684552D01*
X143941600Y-91522575D01*
X143941600Y-91357425D01*
X143973819Y-91195448D01*
X144037019Y-91042869D01*
X144128772Y-90905551D01*
X144245551Y-90788772D01*
X144382869Y-90697019D01*
X144535448Y-90633819D01*
X144589440Y-90623079D01*
X144697423Y-90601600D01*
X144862577Y-90601600D01*
X144970560Y-90623079D01*
X144970560Y-90623079D01*
G37*
G36*
X147510560Y-90623079D02*
G01*
X147564552Y-90633819D01*
X147717131Y-90697019D01*
X147854449Y-90788772D01*
X147971228Y-90905551D01*
X148062981Y-91042869D01*
X148126181Y-91195448D01*
X148158400Y-91357425D01*
X148158400Y-91522575D01*
X148126181Y-91684552D01*
X148062981Y-91837131D01*
X147971228Y-91974449D01*
X147854449Y-92091228D01*
X147717131Y-92182981D01*
X147564552Y-92246181D01*
X147510560Y-92256921D01*
X147402577Y-92278400D01*
X147237423Y-92278400D01*
X147129440Y-92256921D01*
X147075448Y-92246181D01*
X146922869Y-92182981D01*
X146785551Y-92091228D01*
X146668772Y-91974449D01*
X146577019Y-91837131D01*
X146513819Y-91684552D01*
X146481600Y-91522575D01*
X146481600Y-91357425D01*
X146513819Y-91195448D01*
X146577019Y-91042869D01*
X146668772Y-90905551D01*
X146785551Y-90788772D01*
X146922869Y-90697019D01*
X147075448Y-90633819D01*
X147129440Y-90623079D01*
X147237423Y-90601600D01*
X147402577Y-90601600D01*
X147510560Y-90623079D01*
X147510560Y-90623079D01*
G37*
G36*
X150050560Y-90623079D02*
G01*
X150104552Y-90633819D01*
X150257131Y-90697019D01*
X150394449Y-90788772D01*
X150511228Y-90905551D01*
X150602981Y-91042869D01*
X150666181Y-91195448D01*
X150698400Y-91357425D01*
X150698400Y-91522575D01*
X150666181Y-91684552D01*
X150602981Y-91837131D01*
X150511228Y-91974449D01*
X150394449Y-92091228D01*
X150257131Y-92182981D01*
X150104552Y-92246181D01*
X150050560Y-92256921D01*
X149942577Y-92278400D01*
X149777423Y-92278400D01*
X149669440Y-92256921D01*
X149615448Y-92246181D01*
X149462869Y-92182981D01*
X149325551Y-92091228D01*
X149208772Y-91974449D01*
X149117019Y-91837131D01*
X149053819Y-91684552D01*
X149021600Y-91522575D01*
X149021600Y-91357425D01*
X149053819Y-91195448D01*
X149117019Y-91042869D01*
X149208772Y-90905551D01*
X149325551Y-90788772D01*
X149462869Y-90697019D01*
X149615448Y-90633819D01*
X149669440Y-90623079D01*
X149777423Y-90601600D01*
X149942577Y-90601600D01*
X150050560Y-90623079D01*
X150050560Y-90623079D01*
G37*
G36*
X152590560Y-90623079D02*
G01*
X152644552Y-90633819D01*
X152797131Y-90697019D01*
X152934449Y-90788772D01*
X153051228Y-90905551D01*
X153142981Y-91042869D01*
X153206181Y-91195448D01*
X153238400Y-91357425D01*
X153238400Y-91522575D01*
X153206181Y-91684552D01*
X153142981Y-91837131D01*
X153051228Y-91974449D01*
X152934449Y-92091228D01*
X152797131Y-92182981D01*
X152644552Y-92246181D01*
X152590560Y-92256921D01*
X152482577Y-92278400D01*
X152317423Y-92278400D01*
X152209440Y-92256921D01*
X152155448Y-92246181D01*
X152002869Y-92182981D01*
X151865551Y-92091228D01*
X151748772Y-91974449D01*
X151657019Y-91837131D01*
X151593819Y-91684552D01*
X151561600Y-91522575D01*
X151561600Y-91357425D01*
X151593819Y-91195448D01*
X151657019Y-91042869D01*
X151748772Y-90905551D01*
X151865551Y-90788772D01*
X152002869Y-90697019D01*
X152155448Y-90633819D01*
X152209440Y-90623079D01*
X152317423Y-90601600D01*
X152482577Y-90601600D01*
X152590560Y-90623079D01*
X152590560Y-90623079D01*
G37*
G36*
X155130560Y-90623079D02*
G01*
X155184552Y-90633819D01*
X155337131Y-90697019D01*
X155474449Y-90788772D01*
X155591228Y-90905551D01*
X155682981Y-91042869D01*
X155746181Y-91195448D01*
X155778400Y-91357425D01*
X155778400Y-91522575D01*
X155746181Y-91684552D01*
X155682981Y-91837131D01*
X155591228Y-91974449D01*
X155474449Y-92091228D01*
X155337131Y-92182981D01*
X155184552Y-92246181D01*
X155130560Y-92256921D01*
X155022577Y-92278400D01*
X154857423Y-92278400D01*
X154749440Y-92256921D01*
X154695448Y-92246181D01*
X154542869Y-92182981D01*
X154405551Y-92091228D01*
X154288772Y-91974449D01*
X154197019Y-91837131D01*
X154133819Y-91684552D01*
X154101600Y-91522575D01*
X154101600Y-91357425D01*
X154133819Y-91195448D01*
X154197019Y-91042869D01*
X154288772Y-90905551D01*
X154405551Y-90788772D01*
X154542869Y-90697019D01*
X154695448Y-90633819D01*
X154749440Y-90623079D01*
X154857423Y-90601600D01*
X155022577Y-90601600D01*
X155130560Y-90623079D01*
X155130560Y-90623079D01*
G37*
G36*
X157670560Y-90623079D02*
G01*
X157724552Y-90633819D01*
X157877131Y-90697019D01*
X158014449Y-90788772D01*
X158131228Y-90905551D01*
X158222981Y-91042869D01*
X158286181Y-91195448D01*
X158318400Y-91357425D01*
X158318400Y-91522575D01*
X158286181Y-91684552D01*
X158222981Y-91837131D01*
X158131228Y-91974449D01*
X158014449Y-92091228D01*
X157877131Y-92182981D01*
X157724552Y-92246181D01*
X157670560Y-92256921D01*
X157562577Y-92278400D01*
X157397423Y-92278400D01*
X157289440Y-92256921D01*
X157235448Y-92246181D01*
X157082869Y-92182981D01*
X156945551Y-92091228D01*
X156828772Y-91974449D01*
X156737019Y-91837131D01*
X156673819Y-91684552D01*
X156641600Y-91522575D01*
X156641600Y-91357425D01*
X156673819Y-91195448D01*
X156737019Y-91042869D01*
X156828772Y-90905551D01*
X156945551Y-90788772D01*
X157082869Y-90697019D01*
X157235448Y-90633819D01*
X157289440Y-90623079D01*
X157397423Y-90601600D01*
X157562577Y-90601600D01*
X157670560Y-90623079D01*
X157670560Y-90623079D01*
G37*
G36*
X160210560Y-90623079D02*
G01*
X160264552Y-90633819D01*
X160417131Y-90697019D01*
X160554449Y-90788772D01*
X160671228Y-90905551D01*
X160762981Y-91042869D01*
X160826181Y-91195448D01*
X160858400Y-91357425D01*
X160858400Y-91522575D01*
X160826181Y-91684552D01*
X160762981Y-91837131D01*
X160671228Y-91974449D01*
X160554449Y-92091228D01*
X160417131Y-92182981D01*
X160264552Y-92246181D01*
X160210560Y-92256921D01*
X160102577Y-92278400D01*
X159937423Y-92278400D01*
X159829440Y-92256921D01*
X159775448Y-92246181D01*
X159622869Y-92182981D01*
X159485551Y-92091228D01*
X159368772Y-91974449D01*
X159277019Y-91837131D01*
X159213819Y-91684552D01*
X159181600Y-91522575D01*
X159181600Y-91357425D01*
X159213819Y-91195448D01*
X159277019Y-91042869D01*
X159368772Y-90905551D01*
X159485551Y-90788772D01*
X159622869Y-90697019D01*
X159775448Y-90633819D01*
X159829440Y-90623079D01*
X159937423Y-90601600D01*
X160102577Y-90601600D01*
X160210560Y-90623079D01*
X160210560Y-90623079D01*
G37*
G36*
X165390567Y-89995921D02*
G01*
X165470196Y-90003764D01*
X165572363Y-90034756D01*
X165623448Y-90050252D01*
X165764685Y-90125745D01*
X165888479Y-90227341D01*
X165990075Y-90351135D01*
X166065568Y-90492372D01*
X166065568Y-90492373D01*
X166112056Y-90645624D01*
X166127753Y-90805000D01*
X166112056Y-90964376D01*
X166081064Y-91066543D01*
X166065568Y-91117628D01*
X165990075Y-91258865D01*
X165888479Y-91382659D01*
X165764685Y-91484255D01*
X165623448Y-91559748D01*
X165572363Y-91575244D01*
X165470196Y-91606236D01*
X165390567Y-91614079D01*
X165350754Y-91618000D01*
X164595246Y-91618000D01*
X164555433Y-91614079D01*
X164475804Y-91606236D01*
X164373637Y-91575244D01*
X164322552Y-91559748D01*
X164181315Y-91484255D01*
X164057521Y-91382659D01*
X163955925Y-91258865D01*
X163880432Y-91117628D01*
X163864936Y-91066543D01*
X163833944Y-90964376D01*
X163818247Y-90805000D01*
X163833944Y-90645624D01*
X163880432Y-90492373D01*
X163880432Y-90492372D01*
X163955925Y-90351135D01*
X164057521Y-90227341D01*
X164181315Y-90125745D01*
X164322552Y-90050252D01*
X164373637Y-90034756D01*
X164475804Y-90003764D01*
X164555433Y-89995921D01*
X164595246Y-89992000D01*
X165350754Y-89992000D01*
X165390567Y-89995921D01*
X165390567Y-89995921D01*
G37*
G36*
X165390567Y-87455921D02*
G01*
X165470196Y-87463764D01*
X165572363Y-87494756D01*
X165623448Y-87510252D01*
X165764685Y-87585745D01*
X165888479Y-87687341D01*
X165990075Y-87811135D01*
X166065568Y-87952372D01*
X166065568Y-87952373D01*
X166112056Y-88105624D01*
X166127753Y-88265000D01*
X166112056Y-88424376D01*
X166081064Y-88526543D01*
X166065568Y-88577628D01*
X165990075Y-88718865D01*
X165888479Y-88842659D01*
X165764685Y-88944255D01*
X165623448Y-89019748D01*
X165572363Y-89035244D01*
X165470196Y-89066236D01*
X165390567Y-89074079D01*
X165350754Y-89078000D01*
X164595246Y-89078000D01*
X164555433Y-89074079D01*
X164475804Y-89066236D01*
X164373637Y-89035244D01*
X164322552Y-89019748D01*
X164181315Y-88944255D01*
X164057521Y-88842659D01*
X163955925Y-88718865D01*
X163880432Y-88577628D01*
X163864936Y-88526543D01*
X163833944Y-88424376D01*
X163818247Y-88265000D01*
X163833944Y-88105624D01*
X163880432Y-87952373D01*
X163880432Y-87952372D01*
X163955925Y-87811135D01*
X164057521Y-87687341D01*
X164181315Y-87585745D01*
X164322552Y-87510252D01*
X164373637Y-87494756D01*
X164475804Y-87463764D01*
X164555433Y-87455921D01*
X164595246Y-87452000D01*
X165350754Y-87452000D01*
X165390567Y-87455921D01*
X165390567Y-87455921D01*
G37*
G36*
X153790000Y-88958000D02*
G01*
X152788000Y-88958000D01*
X152788000Y-88156000D01*
X153790000Y-88156000D01*
X153790000Y-88958000D01*
X153790000Y-88958000D01*
G37*
G36*
X155441000Y-88958000D02*
G01*
X154439000Y-88958000D01*
X154439000Y-88156000D01*
X155441000Y-88156000D01*
X155441000Y-88958000D01*
X155441000Y-88958000D01*
G37*
G36*
X153790000Y-87358000D02*
G01*
X152788000Y-87358000D01*
X152788000Y-86556000D01*
X153790000Y-86556000D01*
X153790000Y-87358000D01*
X153790000Y-87358000D01*
G37*
G36*
X155441000Y-87358000D02*
G01*
X154439000Y-87358000D01*
X154439000Y-86556000D01*
X155441000Y-86556000D01*
X155441000Y-87358000D01*
X155441000Y-87358000D01*
G37*
G36*
X165390567Y-84915921D02*
G01*
X165470196Y-84923764D01*
X165572363Y-84954756D01*
X165623448Y-84970252D01*
X165764685Y-85045745D01*
X165888479Y-85147341D01*
X165990075Y-85271135D01*
X166065568Y-85412372D01*
X166065568Y-85412373D01*
X166112056Y-85565624D01*
X166127753Y-85725000D01*
X166112056Y-85884376D01*
X166081064Y-85986543D01*
X166065568Y-86037628D01*
X165990075Y-86178865D01*
X165888479Y-86302659D01*
X165764685Y-86404255D01*
X165623448Y-86479748D01*
X165572363Y-86495244D01*
X165470196Y-86526236D01*
X165390567Y-86534079D01*
X165350754Y-86538000D01*
X164595246Y-86538000D01*
X164555433Y-86534079D01*
X164475804Y-86526236D01*
X164373637Y-86495244D01*
X164322552Y-86479748D01*
X164181315Y-86404255D01*
X164057521Y-86302659D01*
X163955925Y-86178865D01*
X163880432Y-86037628D01*
X163864936Y-85986543D01*
X163833944Y-85884376D01*
X163818247Y-85725000D01*
X163833944Y-85565624D01*
X163880432Y-85412373D01*
X163880432Y-85412372D01*
X163955925Y-85271135D01*
X164057521Y-85147341D01*
X164181315Y-85045745D01*
X164322552Y-84970252D01*
X164373637Y-84954756D01*
X164475804Y-84923764D01*
X164555433Y-84915921D01*
X164595246Y-84912000D01*
X165350754Y-84912000D01*
X165390567Y-84915921D01*
X165390567Y-84915921D01*
G37*
G36*
X150981374Y-83440257D02*
G01*
X151072473Y-83477991D01*
X151154464Y-83532776D01*
X151224184Y-83602496D01*
X151278969Y-83684487D01*
X151316703Y-83775586D01*
X151335940Y-83872297D01*
X151335940Y-83970903D01*
X151316703Y-84067614D01*
X151278969Y-84158713D01*
X151224184Y-84240704D01*
X151154464Y-84310424D01*
X151072473Y-84365209D01*
X150981374Y-84402943D01*
X150884663Y-84422180D01*
X150786057Y-84422180D01*
X150689346Y-84402943D01*
X150598247Y-84365209D01*
X150516256Y-84310424D01*
X150446536Y-84240704D01*
X150391751Y-84158713D01*
X150354017Y-84067614D01*
X150334780Y-83970903D01*
X150334780Y-83872297D01*
X150354017Y-83775586D01*
X150391751Y-83684487D01*
X150446536Y-83602496D01*
X150516256Y-83532776D01*
X150598247Y-83477991D01*
X150689346Y-83440257D01*
X150786057Y-83421020D01*
X150884663Y-83421020D01*
X150981374Y-83440257D01*
X150981374Y-83440257D01*
G37*
G36*
X155378114Y-83440257D02*
G01*
X155469213Y-83477991D01*
X155551204Y-83532776D01*
X155620924Y-83602496D01*
X155675709Y-83684487D01*
X155713443Y-83775586D01*
X155732680Y-83872297D01*
X155732680Y-83970903D01*
X155713443Y-84067614D01*
X155675709Y-84158713D01*
X155620924Y-84240704D01*
X155551204Y-84310424D01*
X155469213Y-84365209D01*
X155378114Y-84402943D01*
X155281403Y-84422180D01*
X155182797Y-84422180D01*
X155086086Y-84402943D01*
X154994987Y-84365209D01*
X154912996Y-84310424D01*
X154843276Y-84240704D01*
X154788491Y-84158713D01*
X154750757Y-84067614D01*
X154731520Y-83970903D01*
X154731520Y-83872297D01*
X154750757Y-83775586D01*
X154788491Y-83684487D01*
X154843276Y-83602496D01*
X154912996Y-83532776D01*
X154994987Y-83477991D01*
X155086086Y-83440257D01*
X155182797Y-83421020D01*
X155281403Y-83421020D01*
X155378114Y-83440257D01*
X155378114Y-83440257D01*
G37*
G36*
X165390567Y-82375921D02*
G01*
X165470196Y-82383764D01*
X165572363Y-82414756D01*
X165623448Y-82430252D01*
X165764685Y-82505745D01*
X165888479Y-82607341D01*
X165990075Y-82731135D01*
X166065568Y-82872372D01*
X166065568Y-82872373D01*
X166112056Y-83025624D01*
X166127753Y-83185000D01*
X166112056Y-83344376D01*
X166088806Y-83421020D01*
X166065568Y-83497628D01*
X165990075Y-83638865D01*
X165888479Y-83762659D01*
X165764685Y-83864255D01*
X165623448Y-83939748D01*
X165572363Y-83955244D01*
X165470196Y-83986236D01*
X165390567Y-83994079D01*
X165350754Y-83998000D01*
X164595246Y-83998000D01*
X164555433Y-83994079D01*
X164475804Y-83986236D01*
X164373637Y-83955244D01*
X164322552Y-83939748D01*
X164181315Y-83864255D01*
X164057521Y-83762659D01*
X163955925Y-83638865D01*
X163880432Y-83497628D01*
X163857194Y-83421020D01*
X163833944Y-83344376D01*
X163818247Y-83185000D01*
X163833944Y-83025624D01*
X163880432Y-82872373D01*
X163880432Y-82872372D01*
X163955925Y-82731135D01*
X164057521Y-82607341D01*
X164181315Y-82505745D01*
X164322552Y-82430252D01*
X164373637Y-82414756D01*
X164475804Y-82383764D01*
X164555433Y-82375921D01*
X164595246Y-82372000D01*
X165350754Y-82372000D01*
X165390567Y-82375921D01*
X165390567Y-82375921D01*
G37*
G36*
X166123820Y-81458000D02*
G01*
X163822180Y-81458000D01*
X163822180Y-79832000D01*
X166123820Y-79832000D01*
X166123820Y-81458000D01*
X166123820Y-81458000D01*
G37*
G36*
X160967200Y-81446000D02*
G01*
X159865200Y-81446000D01*
X159865200Y-79844000D01*
X160967200Y-79844000D01*
X160967200Y-81446000D01*
X160967200Y-81446000D01*
G37*
G36*
X162867200Y-81446000D02*
G01*
X161765200Y-81446000D01*
X161765200Y-79844000D01*
X162867200Y-79844000D01*
X162867200Y-81446000D01*
X162867200Y-81446000D01*
G37*
M02*
