M48
;DRILL file {KiCad (6.0.0-rc1-dev-548-g8efcf81cf)} date 12/01/18 23:45:10
;FORMAT={-:-/ absolute / inch / decimal}
FMAT,2
INCH,TZ
T1C0.0120
T2C0.0350
T3C0.0394
T4C0.0354
%
G90
G05
M72
T1
X5.777Y-3.176
X5.778Y-3.393
X5.78Y-4.035
X5.793Y-3.871
X5.795Y-4.18
X5.831Y-4.207
X5.839Y-3.105
X5.84Y-3.248
X5.841Y-3.324
X5.844Y-3.46
X5.899Y-3.932
X5.902Y-4.015
X5.904Y-4.097
X5.9329Y-4.2362
X5.95Y-3.475
X5.9664Y-4.2314
X5.9774Y-3.81
X5.985Y-3.49
X5.985Y-4.015
X6.001Y-3.93
X6.012Y-3.778
X6.021Y-3.538
X6.026Y-3.317
X6.0417Y-4.097
X6.055Y-3.345
X6.064Y-3.929
X6.07Y-3.99
X6.08Y-3.538
X6.096Y-4.222
X6.11Y-3.777
X6.145Y-3.86
X6.1775Y-3.8286
X6.179Y-4.213
X6.189Y-3.795
X6.194Y-3.759
X6.211Y-3.105
X6.211Y-3.242
X6.265Y-3.175
X6.266Y-3.392
X6.376Y-3.522
X6.4626Y-4.0314
X6.465Y-4.4
X6.49Y-4.085
T2
X5.6Y-3.7
X5.6Y-3.8
X5.6Y-3.9
X5.6Y-4.
X5.6Y-4.1
X5.6Y-4.2
X5.6Y-4.3
X5.7Y-3.6
X5.7Y-3.7
X5.7Y-3.8
X5.7Y-3.9
X5.7Y-4.
X5.7Y-4.1
X5.7Y-4.2
X5.7Y-4.3
X5.7Y-4.4
X5.8Y-3.6
X5.8Y-3.7
X5.8Y-4.3
X5.8Y-4.4
X5.9Y-3.6
X5.9Y-3.7
X5.9Y-4.3
X5.9Y-4.4
X6.Y-3.6
X6.Y-3.7
X6.Y-4.3
X6.Y-4.4
X6.1Y-3.6
X6.1Y-3.7
X6.1Y-4.3
X6.1Y-4.4
X6.2Y-3.6
X6.2Y-3.7
X6.2Y-4.3
X6.2Y-4.4
X6.3Y-3.6
X6.3Y-3.7
X6.3Y-3.8
X6.3Y-3.9
X6.3Y-4.
X6.3Y-4.1
X6.3Y-4.2
X6.3Y-4.3
X6.3Y-4.4
X6.4Y-3.7
X6.4Y-3.8
X6.4Y-3.9
X6.4Y-4.
X6.4Y-4.1
X6.4Y-4.2
X6.4Y-4.3
T3
X6.495Y-3.175
X6.495Y-3.275
X6.495Y-3.375
X6.495Y-3.475
X6.495Y-3.575
T4
X5.9384Y-3.304
X6.1115Y-3.304
T0
M30
