G04 #@! TF.GenerationSoftware,KiCad,Pcbnew,(6.0.0-rc1-dev-1386-g1c99784e9)*
G04 #@! TF.CreationDate,2018-12-20T11:02:25-05:00
G04 #@! TF.ProjectId,TLAUX_Adapter_PSOC5,544c4155-585f-4416-9461-707465725f50,rev?*
G04 #@! TF.SameCoordinates,Original*
G04 #@! TF.FileFunction,Copper,L1,Top*
G04 #@! TF.FilePolarity,Positive*
%FSLAX46Y46*%
G04 Gerber Fmt 4.6, Leading zero omitted, Abs format (unit mm)*
G04 Created by KiCad (PCBNEW (6.0.0-rc1-dev-1386-g1c99784e9)) date 12/20/2018 11:02:25 AM*
%MOMM*%
%LPD*%
G04 APERTURE LIST*
%ADD10R,2.199640X1.524000*%
%ADD11O,2.199640X1.524000*%
%ADD12C,1.574800*%
%ADD13R,5.000000X5.000000*%
%ADD14O,0.200000X1.000000*%
%ADD15O,1.000000X0.200000*%
%ADD16R,0.900000X0.950000*%
%ADD17R,2.197100X2.197100*%
%ADD18R,0.497840X2.197100*%
%ADD19C,0.899160*%
%ADD20C,0.635000*%
%ADD21C,0.203200*%
%ADD22C,0.558800*%
%ADD23C,0.635000*%
%ADD24C,0.381000*%
G04 APERTURE END LIST*
D10*
X164973000Y-80645000D03*
D11*
X164973000Y-83185000D03*
X164973000Y-85725000D03*
X164973000Y-88265000D03*
X164973000Y-90805000D03*
D12*
X152400000Y-111760000D03*
X152400000Y-109220000D03*
X154940000Y-111760000D03*
X154940000Y-109220000D03*
X157480000Y-111760000D03*
X157480000Y-109220000D03*
X160020000Y-111760000D03*
X162560000Y-109220000D03*
X160020000Y-109220000D03*
X162560000Y-106680000D03*
X160020000Y-106680000D03*
X162560000Y-104140000D03*
X160020000Y-104140000D03*
X162560000Y-101600000D03*
X160020000Y-101600000D03*
X162560000Y-99060000D03*
X160020000Y-99060000D03*
X162560000Y-96520000D03*
X160020000Y-96520000D03*
X162560000Y-93980000D03*
X160020000Y-91440000D03*
X160020000Y-93980000D03*
X157480000Y-91440000D03*
X157480000Y-93980000D03*
X154940000Y-91440000D03*
X154940000Y-93980000D03*
X152400000Y-91440000D03*
X152400000Y-93980000D03*
X149860000Y-91440000D03*
X149860000Y-93980000D03*
X147320000Y-91440000D03*
X147320000Y-93980000D03*
X144780000Y-91440000D03*
X142240000Y-93980000D03*
X144780000Y-93980000D03*
X142240000Y-96520000D03*
X144780000Y-96520000D03*
X142240000Y-99060000D03*
X144780000Y-99060000D03*
X142240000Y-101600000D03*
X144780000Y-101600000D03*
X142240000Y-104140000D03*
X144780000Y-104140000D03*
X142240000Y-106680000D03*
X144780000Y-106680000D03*
X142240000Y-109220000D03*
X144780000Y-111760000D03*
X144780000Y-109220000D03*
X147320000Y-111760000D03*
X147320000Y-109220000D03*
X149860000Y-111760000D03*
X149860000Y-109220000D03*
D13*
X152019000Y-101981000D03*
D14*
X155219000Y-106081000D03*
X154819000Y-106081000D03*
X154419000Y-106081000D03*
X154019000Y-106081000D03*
X153619000Y-106081000D03*
X153219000Y-106081000D03*
X152819000Y-106081000D03*
X152419000Y-106081000D03*
X152019000Y-106081000D03*
X151619000Y-106081000D03*
X151219000Y-106081000D03*
X150819000Y-106081000D03*
X150419000Y-106081000D03*
X150019000Y-106081000D03*
X149619000Y-106081000D03*
X149219000Y-106081000D03*
X148819000Y-106081000D03*
D15*
X147919000Y-105181000D03*
X147919000Y-104781000D03*
X147919000Y-104381000D03*
X147919000Y-103981000D03*
X147919000Y-103581000D03*
X147919000Y-103181000D03*
X147919000Y-102781000D03*
X147919000Y-102381000D03*
X147919000Y-101981000D03*
X147919000Y-101581000D03*
X147919000Y-101181000D03*
X147919000Y-100781000D03*
X147919000Y-100381000D03*
X147919000Y-99981000D03*
X147919000Y-99581000D03*
X147919000Y-99181000D03*
X147919000Y-98781000D03*
D14*
X148819000Y-97881000D03*
X149219000Y-97881000D03*
X149619000Y-97881000D03*
X150019000Y-97881000D03*
X150419000Y-97881000D03*
X150819000Y-97881000D03*
X151219000Y-97881000D03*
X151619000Y-97881000D03*
X152019000Y-97881000D03*
X152419000Y-97881000D03*
X152819000Y-97881000D03*
X153219000Y-97881000D03*
X153619000Y-97881000D03*
X154019000Y-97881000D03*
X154419000Y-97881000D03*
X154819000Y-97881000D03*
X155219000Y-97881000D03*
D15*
X156119000Y-98781000D03*
X156119000Y-99181000D03*
X156119000Y-99581000D03*
X156119000Y-99981000D03*
X156119000Y-100381000D03*
X156119000Y-100781000D03*
X156119000Y-101181000D03*
X156119000Y-101581000D03*
X156119000Y-101981000D03*
X156119000Y-102381000D03*
X156119000Y-102781000D03*
X156119000Y-103181000D03*
X156119000Y-103581000D03*
X156119000Y-103981000D03*
X156119000Y-104381000D03*
X156119000Y-104781000D03*
X156119000Y-105181000D03*
D16*
X159632000Y-89027000D03*
X155582000Y-89027000D03*
D17*
X148605240Y-86169500D03*
D18*
X154632660Y-86448900D03*
X153832560Y-86448900D03*
X153035000Y-86448900D03*
X152237440Y-86448900D03*
X151437340Y-86448900D03*
D19*
X155232100Y-83921600D03*
X150835360Y-83921600D03*
D17*
X157464760Y-86169500D03*
X157464760Y-80670400D03*
X148605240Y-80670400D03*
D20*
X156083000Y-98044000D03*
X147193000Y-106172000D03*
X146812000Y-102489046D03*
X151546743Y-107477902D03*
X154838400Y-107238790D03*
X152704800Y-95961202D03*
X147701000Y-98171000D03*
X154178000Y-101346000D03*
X154025600Y-99796600D03*
X149961600Y-104063800D03*
X152019000Y-88646000D03*
X151130000Y-88265000D03*
X164211000Y-111760000D03*
X152425396Y-99822000D03*
X152273000Y-101980951D03*
X153459000Y-104063800D03*
X149910800Y-101981000D03*
X149834600Y-99872800D03*
X156946600Y-107010200D03*
X161950400Y-89458800D03*
X159156400Y-86156800D03*
X159131000Y-80645000D03*
X146735800Y-80670400D03*
X146761200Y-86182200D03*
X157759400Y-78867000D03*
X157759400Y-82346800D03*
X148310600Y-78867000D03*
X148336000Y-82499200D03*
X148361400Y-84429600D03*
X148437600Y-87884000D03*
X158750000Y-95250000D03*
X158750000Y-92710000D03*
X166243000Y-93980000D03*
X166243000Y-97917000D03*
X148107398Y-106857798D03*
X153060400Y-84251800D03*
X153796992Y-84963000D03*
X164846000Y-103759000D03*
X164150559Y-102398385D03*
X157327606Y-95478600D03*
X155194000Y-95935779D03*
X157200604Y-96393000D03*
X156908445Y-97246137D03*
X152933400Y-89865200D03*
X154432000Y-89865200D03*
X151825262Y-96774010D03*
X150696925Y-107600292D03*
X146875519Y-101473000D03*
D21*
X161315400Y-100863400D02*
X161569400Y-100609400D01*
X161315400Y-102387400D02*
X161315400Y-100863400D01*
X160832800Y-102870000D02*
X161315400Y-102387400D01*
X158521400Y-102870000D02*
X160832800Y-102870000D01*
X157232400Y-101581000D02*
X158521400Y-102870000D01*
X156119000Y-101581000D02*
X157232400Y-101581000D01*
X160020000Y-99314000D02*
X160020000Y-99060000D01*
X161569400Y-100609400D02*
X161442400Y-100736400D01*
X161442400Y-100736400D02*
X160020000Y-99314000D01*
X166751000Y-87165180D02*
X165310820Y-85725000D01*
X166751000Y-91643200D02*
X166751000Y-87165180D01*
X161569400Y-100609400D02*
X161848800Y-100330000D01*
X161848800Y-100330000D02*
X164287200Y-100330000D01*
X164287200Y-100330000D02*
X164312600Y-100355400D01*
X164312600Y-100355400D02*
X165049200Y-99618800D01*
X165310820Y-85725000D02*
X164973000Y-85725000D01*
X165049200Y-99618800D02*
X165049200Y-93345000D01*
X165049200Y-93345000D02*
X166751000Y-91643200D01*
X164635180Y-88265000D02*
X164973000Y-88265000D01*
X161290000Y-91610180D02*
X164635180Y-88265000D01*
X161290000Y-97028000D02*
X161290000Y-91610180D01*
X157816400Y-100781000D02*
X158495989Y-100101411D01*
X158495989Y-100101411D02*
X158495989Y-98466315D01*
X156119000Y-100781000D02*
X157816400Y-100781000D01*
X158495989Y-98466315D02*
X159350116Y-97612188D01*
X159350116Y-97612188D02*
X160705812Y-97612188D01*
X160705812Y-97612188D02*
X161290000Y-97028000D01*
X164007800Y-91770200D02*
X164973000Y-90805000D01*
X164007800Y-97104200D02*
X164007800Y-91770200D01*
X158051400Y-101181000D02*
X158877000Y-100355400D01*
X156119000Y-101181000D02*
X158051400Y-101181000D01*
X158877000Y-100355400D02*
X158877000Y-98624134D01*
X158877000Y-98624134D02*
X159507935Y-97993199D01*
X159507935Y-97993199D02*
X163118801Y-97993199D01*
X163118801Y-97993199D02*
X164007800Y-97104200D01*
X146050000Y-92710000D02*
X144780000Y-93980000D01*
X150495000Y-92710000D02*
X146050000Y-92710000D01*
X151130000Y-93345000D02*
X150495000Y-92710000D01*
X151130000Y-95529400D02*
X151130000Y-93345000D01*
X150819000Y-97881000D02*
X150819000Y-95840400D01*
X150819000Y-95840400D02*
X151130000Y-95529400D01*
X143027399Y-95732601D02*
X142240000Y-96520000D01*
X143510000Y-95250000D02*
X143027399Y-95732601D01*
X149758400Y-95250000D02*
X143510000Y-95250000D01*
X150419000Y-97881000D02*
X150419000Y-95910600D01*
X150419000Y-95910600D02*
X149758400Y-95250000D01*
X145618200Y-95681800D02*
X144780000Y-96520000D01*
X149428200Y-95681800D02*
X145618200Y-95681800D01*
X150019000Y-97881000D02*
X150019000Y-96272600D01*
X150019000Y-96272600D02*
X149428200Y-95681800D01*
X149619000Y-96634600D02*
X149123400Y-96139000D01*
X149619000Y-97881000D02*
X149619000Y-96634600D01*
X143027399Y-98272601D02*
X142240000Y-99060000D01*
X149123400Y-96139000D02*
X146812000Y-96139000D01*
X146812000Y-96139000D02*
X145161000Y-97790000D01*
X145161000Y-97790000D02*
X143510000Y-97790000D01*
X143510000Y-97790000D02*
X143027399Y-98272601D01*
X144780000Y-98933000D02*
X144780000Y-99060000D01*
X147040600Y-96672400D02*
X144780000Y-98933000D01*
X148844000Y-96672400D02*
X147040600Y-96672400D01*
X149219000Y-97881000D02*
X149219000Y-97047400D01*
X149219000Y-97047400D02*
X148844000Y-96672400D01*
X143027399Y-100812601D02*
X142240000Y-101600000D01*
X143510000Y-100330000D02*
X143027399Y-100812601D01*
X145161000Y-100330000D02*
X143510000Y-100330000D01*
X148819000Y-97384000D02*
X148590000Y-97155000D01*
X148819000Y-97881000D02*
X148819000Y-97384000D01*
X148590000Y-97155000D02*
X147447000Y-97155000D01*
X147447000Y-97155000D02*
X146304000Y-98298000D01*
X146304000Y-98298000D02*
X146304000Y-99187000D01*
X146304000Y-99187000D02*
X145161000Y-100330000D01*
X148300000Y-99200000D02*
X147699708Y-99200000D01*
X144780000Y-101473000D02*
X144780000Y-101600000D01*
X147072000Y-99181000D02*
X144780000Y-101473000D01*
X147919000Y-99181000D02*
X147072000Y-99181000D01*
X143027399Y-103352601D02*
X142240000Y-104140000D01*
X147307000Y-99581000D02*
X146177000Y-100711000D01*
X147919000Y-99581000D02*
X147307000Y-99581000D01*
X146177000Y-100711000D02*
X146177000Y-101981000D01*
X146177000Y-101981000D02*
X145288000Y-102870000D01*
X145288000Y-102870000D02*
X143510000Y-102870000D01*
X143510000Y-102870000D02*
X143027399Y-103352601D01*
X144939000Y-103981000D02*
X144780000Y-104140000D01*
X147919000Y-103981000D02*
X144939000Y-103981000D01*
X148300000Y-104400000D02*
X147797092Y-104400000D01*
X143027399Y-105892601D02*
X142240000Y-106680000D01*
X143510000Y-105410000D02*
X143027399Y-105892601D01*
X145313400Y-105410000D02*
X143510000Y-105410000D01*
X147919000Y-104381000D02*
X146342400Y-104381000D01*
X146342400Y-104381000D02*
X145313400Y-105410000D01*
X148300000Y-104800000D02*
X147900000Y-104800000D01*
X146679000Y-104781000D02*
X144780000Y-106680000D01*
X147919000Y-104781000D02*
X146679000Y-104781000D01*
X142240000Y-109105700D02*
X142240000Y-109220000D01*
X146914000Y-105181000D02*
X146481800Y-105613200D01*
X147919000Y-105181000D02*
X146914000Y-105181000D01*
X146481800Y-105613200D02*
X146481800Y-107061000D01*
X146481800Y-107061000D02*
X145795999Y-107746801D01*
X145795999Y-107746801D02*
X143598899Y-107746801D01*
X143598899Y-107746801D02*
X142240000Y-109105700D01*
X144780000Y-111760000D02*
X143510000Y-110490000D01*
X143510000Y-110490000D02*
X143510000Y-108712000D01*
X143510000Y-108712000D02*
X144094188Y-108127812D01*
X144094188Y-108127812D02*
X145999188Y-108127812D01*
X145999188Y-108127812D02*
X146502752Y-107624248D01*
X146502752Y-107624248D02*
X148751147Y-107624248D01*
X148751147Y-107624248D02*
X149619000Y-106756395D01*
X149619000Y-106756395D02*
X149619000Y-106081000D01*
X150000000Y-105700000D02*
X150000000Y-106413000D01*
X145516600Y-109220000D02*
X144780000Y-109220000D01*
X146684989Y-108051611D02*
X145516600Y-109220000D01*
X148862614Y-108051611D02*
X146684989Y-108051611D01*
X150019000Y-106895225D02*
X148862614Y-108051611D01*
X150019000Y-106081000D02*
X150019000Y-106895225D01*
X148107399Y-110972601D02*
X147320000Y-111760000D01*
X148590000Y-110490000D02*
X148107399Y-110972601D01*
X148590000Y-108863056D02*
X148590000Y-110490000D01*
X150419000Y-107034056D02*
X148590000Y-108863056D01*
X150419000Y-106081000D02*
X150419000Y-107034056D01*
X152019000Y-106784200D02*
X152019000Y-106553000D01*
X152019000Y-106784200D02*
X152019000Y-106081000D01*
X146532601Y-110007399D02*
X147320000Y-109220000D01*
X146050000Y-110490000D02*
X146532601Y-110007399D01*
X146558000Y-113030000D02*
X146050000Y-112522000D01*
X150241000Y-113030000D02*
X146558000Y-113030000D01*
X152019000Y-107010200D02*
X152260304Y-107251504D01*
X146050000Y-112522000D02*
X146050000Y-110490000D01*
X152019000Y-106784200D02*
X152019000Y-107010200D01*
X152260304Y-107251504D02*
X152260304Y-107780830D01*
X152260304Y-107780830D02*
X151003000Y-109038134D01*
X151003000Y-109038134D02*
X151003000Y-112268000D01*
X151003000Y-112268000D02*
X150241000Y-113030000D01*
X156119000Y-98781000D02*
X156119000Y-98080000D01*
X156119000Y-98080000D02*
X156083000Y-98044000D01*
D22*
X156210000Y-92030806D02*
X156210000Y-90849194D01*
D23*
X154940000Y-93980000D02*
X154940000Y-93300806D01*
X154940000Y-93300806D02*
X156210000Y-92030806D01*
D21*
X148819000Y-106081000D02*
X147284000Y-106081000D01*
X147284000Y-106081000D02*
X147193000Y-106172000D01*
X147919000Y-102381000D02*
X146920046Y-102381000D01*
X146920046Y-102381000D02*
X146812000Y-102489046D01*
X148300000Y-98800000D02*
X147596800Y-98800000D01*
X150253657Y-109220000D02*
X151546743Y-107926914D01*
X151546743Y-107926914D02*
X151546743Y-107477902D01*
X149860000Y-109220000D02*
X150253657Y-109220000D01*
X151619000Y-106081000D02*
X151619000Y-107405645D01*
X151619000Y-107405645D02*
X151546743Y-107477902D01*
D23*
X164363400Y-80645000D02*
X164973000Y-80645000D01*
X162255200Y-82753200D02*
X164363400Y-80645000D01*
X162255200Y-87234800D02*
X162255200Y-82753200D01*
X160463000Y-89027000D02*
X162255200Y-87234800D01*
X156210000Y-90849194D02*
X158032194Y-89027000D01*
X158032194Y-89027000D02*
X160463000Y-89027000D01*
D21*
X154819000Y-107219390D02*
X154838400Y-107238790D01*
X154819000Y-106081000D02*
X154819000Y-107219390D01*
X152819000Y-97881000D02*
X152819000Y-96075402D01*
X152819000Y-96075402D02*
X152704800Y-95961202D01*
D23*
X155727399Y-94767399D02*
X154940000Y-93980000D01*
X156083000Y-98044000D02*
X156083000Y-95123000D01*
X156083000Y-95123000D02*
X155727399Y-94767399D01*
D21*
X147574000Y-98298000D02*
X147701000Y-98171000D01*
X147574000Y-98679000D02*
X147574000Y-98298000D01*
X147919000Y-98781000D02*
X147676000Y-98781000D01*
X147676000Y-98781000D02*
X147574000Y-98679000D01*
X156119000Y-101981000D02*
X152019000Y-101981000D01*
X152819000Y-102781000D02*
X152019000Y-101981000D01*
X156119000Y-102781000D02*
X152819000Y-102781000D01*
X152419000Y-102381000D02*
X152019000Y-101981000D01*
X156119000Y-102381000D02*
X152419000Y-102381000D01*
X153619000Y-103581000D02*
X152019000Y-101981000D01*
X156119000Y-103581000D02*
X153619000Y-103581000D01*
X150114000Y-100076000D02*
X150114000Y-100076000D01*
X151219000Y-106081000D02*
X151219000Y-102781000D01*
D24*
X151437340Y-87957660D02*
X151130000Y-88265000D01*
X151437340Y-86448900D02*
X151437340Y-87957660D01*
D21*
X147919000Y-101981000D02*
X149479028Y-101981000D01*
X152019000Y-101981000D02*
X149910800Y-101981000D01*
X151219000Y-102781000D02*
X152019000Y-101981000D01*
X147919000Y-102781000D02*
X151219000Y-102781000D01*
X152425396Y-101574604D02*
X152336698Y-101663302D01*
X152336698Y-101663302D02*
X152019199Y-101980801D01*
X152425396Y-98590596D02*
X152425396Y-99822000D01*
X152419000Y-98584200D02*
X152425396Y-98590596D01*
X152419000Y-97881000D02*
X152419000Y-98584200D01*
X152425396Y-99822000D02*
X152425396Y-101574604D01*
X152019000Y-101981000D02*
X152019000Y-101980951D01*
X154300507Y-100393481D02*
X154300507Y-100393481D01*
X149910800Y-101981000D02*
X149479028Y-101981000D01*
X150114000Y-100076000D02*
X152019000Y-101981000D01*
X152019000Y-101981000D02*
X153339800Y-101981000D01*
D24*
X152237440Y-88427560D02*
X152019000Y-88646000D01*
X152237440Y-86448900D02*
X152237440Y-88427560D01*
D21*
X149219000Y-106081000D02*
X149219000Y-106617565D01*
X149219000Y-106617565D02*
X148661268Y-107175297D01*
X148661268Y-107175297D02*
X148424897Y-107175297D01*
X148424897Y-107175297D02*
X148107398Y-106857798D01*
X153035000Y-86448900D02*
X153035000Y-84277200D01*
X153035000Y-84277200D02*
X153060400Y-84251800D01*
X153832560Y-84998568D02*
X153796992Y-84963000D01*
X153832560Y-86448900D02*
X153832560Y-84998568D01*
X159903474Y-96520000D02*
X160020000Y-96520000D01*
X158114978Y-98308496D02*
X159903474Y-96520000D01*
X158114978Y-99847422D02*
X158114978Y-98308496D01*
X156119000Y-100381000D02*
X157581400Y-100381000D01*
X157581400Y-100381000D02*
X158114978Y-99847422D01*
X164528501Y-104076499D02*
X164846000Y-103759000D01*
X163169600Y-105435400D02*
X164528501Y-104076499D01*
X161747200Y-105435400D02*
X163169600Y-105435400D01*
X161315400Y-105867200D02*
X161747200Y-105435400D01*
X156119000Y-105181000D02*
X157581200Y-105181000D01*
X158445200Y-106045000D02*
X158445200Y-107162600D01*
X161315400Y-107365800D02*
X161315400Y-105867200D01*
X158445200Y-107162600D02*
X159258000Y-107975400D01*
X157581200Y-105181000D02*
X158445200Y-106045000D01*
X159258000Y-107975400D02*
X160705800Y-107975400D01*
X160705800Y-107975400D02*
X161315400Y-107365800D01*
X163833060Y-102715884D02*
X164150559Y-102398385D01*
X162026600Y-102844600D02*
X163704344Y-102844600D01*
X158236000Y-104781000D02*
X158865000Y-105410000D01*
X163704344Y-102844600D02*
X163833060Y-102715884D01*
X158865000Y-105410000D02*
X160756600Y-105410000D01*
X160756600Y-105410000D02*
X161332848Y-104833752D01*
X161332848Y-104833752D02*
X161332848Y-103538352D01*
X156119000Y-104781000D02*
X158236000Y-104781000D01*
X161332848Y-103538352D02*
X162026600Y-102844600D01*
X157645105Y-95796099D02*
X157327606Y-95478600D01*
X157733967Y-98150677D02*
X157899099Y-97985545D01*
X157733967Y-99618833D02*
X157733967Y-98150677D01*
X157899099Y-97985545D02*
X157899099Y-96050093D01*
X157899099Y-96050093D02*
X157645105Y-95796099D01*
X157371800Y-99981000D02*
X157733967Y-99618833D01*
X156119000Y-99981000D02*
X157371800Y-99981000D01*
X154876501Y-96253278D02*
X155194000Y-95935779D01*
X154419000Y-96710779D02*
X154876501Y-96253278D01*
X154419000Y-97881000D02*
X154419000Y-96710779D01*
X157352956Y-99054952D02*
X157352956Y-97992858D01*
X156119000Y-99581000D02*
X156826908Y-99581000D01*
X156826908Y-99581000D02*
X157352956Y-99054952D01*
X157352956Y-97992858D02*
X157518095Y-97827719D01*
X157518095Y-97827719D02*
X157518095Y-96710491D01*
X157518095Y-96710491D02*
X157200604Y-96393000D01*
X156688078Y-99181000D02*
X156908445Y-98960633D01*
X156908445Y-97695149D02*
X156908445Y-97246137D01*
X156908445Y-98960633D02*
X156908445Y-97695149D01*
X156119000Y-99181000D02*
X156688078Y-99181000D01*
X153250899Y-90182699D02*
X152933400Y-89865200D01*
X153492188Y-90423988D02*
X153250899Y-90182699D01*
X153492188Y-96342212D02*
X153492188Y-90423988D01*
X153219000Y-97881000D02*
X153219000Y-96615400D01*
X153219000Y-96615400D02*
X153492188Y-96342212D01*
X154114501Y-90182699D02*
X154432000Y-89865200D01*
X153873199Y-90424001D02*
X154114501Y-90182699D01*
X153873199Y-96647001D02*
X153873199Y-90424001D01*
X153619000Y-97881000D02*
X153619000Y-96901200D01*
X153619000Y-96901200D02*
X153873199Y-96647001D01*
D23*
X154632660Y-88077660D02*
X155582000Y-89027000D01*
X154632660Y-86448900D02*
X154632660Y-88077660D01*
D21*
X152019000Y-96967748D02*
X151825262Y-96774010D01*
X152019000Y-97881000D02*
X152019000Y-96967748D01*
X150819000Y-106081000D02*
X150819000Y-107478217D01*
X150819000Y-107478217D02*
X150696925Y-107600292D01*
X147919000Y-101581000D02*
X146983519Y-101581000D01*
X146983519Y-101581000D02*
X146875519Y-101473000D01*
G36*
X166903400Y-86599159D02*
G01*
X166423656Y-86119415D01*
X166502110Y-85725000D01*
X166411428Y-85269113D01*
X166153189Y-84882631D01*
X165766707Y-84624392D01*
X165425895Y-84556600D01*
X164520105Y-84556600D01*
X164179293Y-84624392D01*
X163792811Y-84882631D01*
X163534572Y-85269113D01*
X163443890Y-85725000D01*
X163534572Y-86180887D01*
X163792811Y-86567369D01*
X164179293Y-86825608D01*
X164520105Y-86893400D01*
X165425895Y-86893400D01*
X165705235Y-86837836D01*
X166243001Y-87375602D01*
X166243001Y-87557044D01*
X166153189Y-87422631D01*
X165766707Y-87164392D01*
X165425895Y-87096600D01*
X164520105Y-87096600D01*
X164179293Y-87164392D01*
X163792811Y-87422631D01*
X163534572Y-87809113D01*
X163443890Y-88265000D01*
X163522344Y-88659415D01*
X161145094Y-91036666D01*
X161032055Y-90763767D01*
X160696233Y-90427945D01*
X160257462Y-90246200D01*
X159782538Y-90246200D01*
X159343767Y-90427945D01*
X159007945Y-90763767D01*
X158826200Y-91202538D01*
X158826200Y-91677462D01*
X159007945Y-92116233D01*
X159343767Y-92452055D01*
X159782538Y-92633800D01*
X160257462Y-92633800D01*
X160696233Y-92452055D01*
X160782001Y-92366287D01*
X160782001Y-93053713D01*
X160696233Y-92967945D01*
X160257462Y-92786200D01*
X159782538Y-92786200D01*
X159343767Y-92967945D01*
X159007945Y-93303767D01*
X158826200Y-93742538D01*
X158826200Y-94217462D01*
X159007945Y-94656233D01*
X159343767Y-94992055D01*
X159782538Y-95173800D01*
X160257462Y-95173800D01*
X160696233Y-94992055D01*
X160782000Y-94906288D01*
X160782000Y-95593712D01*
X160696233Y-95507945D01*
X160257462Y-95326200D01*
X159782538Y-95326200D01*
X159343767Y-95507945D01*
X159007945Y-95843767D01*
X158826200Y-96282538D01*
X158826200Y-96757462D01*
X158861755Y-96843299D01*
X158407099Y-97297955D01*
X158407099Y-96100121D01*
X158417050Y-96050093D01*
X158407099Y-96000065D01*
X158407099Y-96000061D01*
X158377624Y-95851881D01*
X158265346Y-95683846D01*
X158222931Y-95655505D01*
X158051506Y-95484080D01*
X158051506Y-95334607D01*
X157945732Y-95079247D01*
X158156233Y-94992055D01*
X158492055Y-94656233D01*
X158673800Y-94217462D01*
X158673800Y-93742538D01*
X158492055Y-93303767D01*
X158156233Y-92967945D01*
X157717462Y-92786200D01*
X157242538Y-92786200D01*
X156803767Y-92967945D01*
X156467945Y-93303767D01*
X156286200Y-93742538D01*
X156286200Y-94217462D01*
X156346297Y-94362548D01*
X156133800Y-94150051D01*
X156133800Y-93742538D01*
X155954613Y-93309942D01*
X156772289Y-92492266D01*
X156801004Y-92449292D01*
X156803767Y-92452055D01*
X157242538Y-92633800D01*
X157717462Y-92633800D01*
X158156233Y-92452055D01*
X158492055Y-92116233D01*
X158673800Y-91677462D01*
X158673800Y-91202538D01*
X158492055Y-90763767D01*
X158156233Y-90427945D01*
X157801806Y-90281136D01*
X158332043Y-89750900D01*
X158859538Y-89750900D01*
X158889003Y-89794997D01*
X159023431Y-89884820D01*
X159182000Y-89916361D01*
X160082000Y-89916361D01*
X160240569Y-89884820D01*
X160374997Y-89794997D01*
X160402965Y-89753140D01*
X160463000Y-89765082D01*
X160534298Y-89750900D01*
X160745452Y-89708899D01*
X160984903Y-89548903D01*
X161025293Y-89488455D01*
X162716660Y-87797089D01*
X162777102Y-87756703D01*
X162852606Y-87643705D01*
X162937099Y-87517252D01*
X162993282Y-87234800D01*
X162979100Y-87163502D01*
X162979100Y-83528757D01*
X163438994Y-83528757D01*
X163647352Y-83957302D01*
X164018093Y-84276540D01*
X164482780Y-84429600D01*
X164820600Y-84429600D01*
X164820600Y-83337400D01*
X165125400Y-83337400D01*
X165125400Y-84429600D01*
X165463220Y-84429600D01*
X165927907Y-84276540D01*
X166298648Y-83957302D01*
X166507006Y-83528757D01*
X166424390Y-83337400D01*
X165125400Y-83337400D01*
X164820600Y-83337400D01*
X163521610Y-83337400D01*
X163438994Y-83528757D01*
X162979100Y-83528757D01*
X162979100Y-83053048D01*
X163190905Y-82841243D01*
X163438994Y-82841243D01*
X163521610Y-83032600D01*
X164820600Y-83032600D01*
X164820600Y-81940400D01*
X165125400Y-81940400D01*
X165125400Y-83032600D01*
X166424390Y-83032600D01*
X166507006Y-82841243D01*
X166298648Y-82412698D01*
X165927907Y-82093460D01*
X165463220Y-81940400D01*
X165125400Y-81940400D01*
X164820600Y-81940400D01*
X164482780Y-81940400D01*
X164018093Y-82093460D01*
X163647352Y-82412698D01*
X163438994Y-82841243D01*
X163190905Y-82841243D01*
X164210788Y-81821361D01*
X166072820Y-81821361D01*
X166231389Y-81789820D01*
X166365817Y-81699997D01*
X166455640Y-81565569D01*
X166487181Y-81407000D01*
X166487181Y-79883000D01*
X166455640Y-79724431D01*
X166365817Y-79590003D01*
X166231389Y-79500180D01*
X166072820Y-79468639D01*
X163873180Y-79468639D01*
X163714611Y-79500180D01*
X163580183Y-79590003D01*
X163490360Y-79724431D01*
X163458819Y-79883000D01*
X163458819Y-80525832D01*
X161793743Y-82190909D01*
X161733298Y-82231297D01*
X161692911Y-82291741D01*
X161573301Y-82470749D01*
X161517118Y-82753200D01*
X161531301Y-82824503D01*
X161531300Y-86934951D01*
X160274440Y-88191812D01*
X160240569Y-88169180D01*
X160082000Y-88137639D01*
X159182000Y-88137639D01*
X159023431Y-88169180D01*
X158889003Y-88259003D01*
X158859538Y-88303100D01*
X158103486Y-88303100D01*
X158032193Y-88288919D01*
X157960900Y-88303100D01*
X157960896Y-88303100D01*
X157749742Y-88345101D01*
X157510291Y-88505097D01*
X157469904Y-88565541D01*
X156424738Y-89610708D01*
X156446361Y-89502000D01*
X156446361Y-88552000D01*
X156414820Y-88393431D01*
X156324997Y-88259003D01*
X156190569Y-88169180D01*
X156032000Y-88137639D01*
X155716388Y-88137639D01*
X155356560Y-87777812D01*
X155356560Y-86377602D01*
X155314559Y-86166448D01*
X155295941Y-86138584D01*
X155295941Y-85350350D01*
X155264400Y-85191781D01*
X155174577Y-85057353D01*
X155040149Y-84967530D01*
X154881580Y-84935989D01*
X154520892Y-84935989D01*
X154520892Y-84819007D01*
X154410685Y-84552944D01*
X154207048Y-84349307D01*
X153940985Y-84239100D01*
X153784300Y-84239100D01*
X153784300Y-84107807D01*
X153674093Y-83841744D01*
X153583684Y-83751335D01*
X154376120Y-83751335D01*
X154376120Y-84091865D01*
X154506435Y-84406474D01*
X154747226Y-84647265D01*
X155061835Y-84777580D01*
X155402365Y-84777580D01*
X155716974Y-84647265D01*
X155957765Y-84406474D01*
X156088080Y-84091865D01*
X156088080Y-83751335D01*
X155957765Y-83436726D01*
X155716974Y-83195935D01*
X155402365Y-83065620D01*
X155061835Y-83065620D01*
X154747226Y-83195935D01*
X154506435Y-83436726D01*
X154376120Y-83751335D01*
X153583684Y-83751335D01*
X153470456Y-83638107D01*
X153204393Y-83527900D01*
X152916407Y-83527900D01*
X152650344Y-83638107D01*
X152446707Y-83841744D01*
X152336500Y-84107807D01*
X152336500Y-84395793D01*
X152446707Y-84661856D01*
X152527001Y-84742150D01*
X152527001Y-84867750D01*
X152482550Y-84867750D01*
X152361900Y-84988400D01*
X152361900Y-86296500D01*
X152371719Y-86296500D01*
X152371719Y-86601300D01*
X152361900Y-86601300D01*
X152361900Y-87909400D01*
X152482550Y-88030050D01*
X152582355Y-88030050D01*
X152759731Y-87956579D01*
X152759739Y-87956571D01*
X152786080Y-87961811D01*
X153283920Y-87961811D01*
X153433780Y-87932002D01*
X153583640Y-87961811D01*
X153908761Y-87961811D01*
X153908761Y-88006358D01*
X153894578Y-88077660D01*
X153950761Y-88360111D01*
X153950762Y-88360112D01*
X154110758Y-88599563D01*
X154171203Y-88639951D01*
X154717639Y-89186388D01*
X154717639Y-89199972D01*
X154575993Y-89141300D01*
X154288007Y-89141300D01*
X154021944Y-89251507D01*
X153818307Y-89455144D01*
X153708100Y-89721207D01*
X153708100Y-89870681D01*
X153682700Y-89896080D01*
X153657300Y-89870680D01*
X153657300Y-89721207D01*
X153547093Y-89455144D01*
X153343456Y-89251507D01*
X153077393Y-89141300D01*
X152789407Y-89141300D01*
X152523344Y-89251507D01*
X152319707Y-89455144D01*
X152209500Y-89721207D01*
X152209500Y-90009193D01*
X152307672Y-90246200D01*
X152162538Y-90246200D01*
X151723767Y-90427945D01*
X151387945Y-90763767D01*
X151206200Y-91202538D01*
X151206200Y-91677462D01*
X151387945Y-92116233D01*
X151723767Y-92452055D01*
X152162538Y-92633800D01*
X152637462Y-92633800D01*
X152984189Y-92490181D01*
X152984189Y-92929819D01*
X152637462Y-92786200D01*
X152162538Y-92786200D01*
X151723767Y-92967945D01*
X151583050Y-93108662D01*
X151561391Y-93076247D01*
X151524588Y-93021167D01*
X151524586Y-93021165D01*
X151496247Y-92978753D01*
X151453835Y-92950414D01*
X150889588Y-92386168D01*
X150861247Y-92343753D01*
X150731338Y-92256950D01*
X150872055Y-92116233D01*
X151053800Y-91677462D01*
X151053800Y-91202538D01*
X150872055Y-90763767D01*
X150536233Y-90427945D01*
X150097462Y-90246200D01*
X149622538Y-90246200D01*
X149183767Y-90427945D01*
X148847945Y-90763767D01*
X148666200Y-91202538D01*
X148666200Y-91677462D01*
X148847945Y-92116233D01*
X148933712Y-92202000D01*
X148246288Y-92202000D01*
X148332055Y-92116233D01*
X148513800Y-91677462D01*
X148513800Y-91202538D01*
X148332055Y-90763767D01*
X147996233Y-90427945D01*
X147557462Y-90246200D01*
X147082538Y-90246200D01*
X146643767Y-90427945D01*
X146307945Y-90763767D01*
X146126200Y-91202538D01*
X146126200Y-91677462D01*
X146307945Y-92116233D01*
X146393712Y-92202000D01*
X146100027Y-92202000D01*
X146049999Y-92192049D01*
X145999971Y-92202000D01*
X145999968Y-92202000D01*
X145851788Y-92231475D01*
X145726167Y-92315412D01*
X145726165Y-92315414D01*
X145683753Y-92343753D01*
X145655414Y-92386165D01*
X145185695Y-92855884D01*
X145017462Y-92786200D01*
X144542538Y-92786200D01*
X144103767Y-92967945D01*
X143767945Y-93303767D01*
X143586200Y-93742538D01*
X143586200Y-94217462D01*
X143767945Y-94656233D01*
X143853712Y-94742000D01*
X143560028Y-94742000D01*
X143510000Y-94732049D01*
X143459972Y-94742000D01*
X143459968Y-94742000D01*
X143311788Y-94771475D01*
X143186167Y-94855412D01*
X143186165Y-94855414D01*
X143143753Y-94883753D01*
X143115414Y-94926165D01*
X142703566Y-95338014D01*
X142645695Y-95395885D01*
X142477462Y-95326200D01*
X142002538Y-95326200D01*
X141563767Y-95507945D01*
X141227945Y-95843767D01*
X141046200Y-96282538D01*
X141046200Y-96757462D01*
X141227945Y-97196233D01*
X141563767Y-97532055D01*
X142002538Y-97713800D01*
X142477462Y-97713800D01*
X142916233Y-97532055D01*
X143252055Y-97196233D01*
X143433800Y-96757462D01*
X143433800Y-96282538D01*
X143364115Y-96114305D01*
X143421986Y-96056434D01*
X143720421Y-95758000D01*
X143853712Y-95758000D01*
X143767945Y-95843767D01*
X143586200Y-96282538D01*
X143586200Y-96757462D01*
X143767945Y-97196233D01*
X143853712Y-97282000D01*
X143560028Y-97282000D01*
X143510000Y-97272049D01*
X143459972Y-97282000D01*
X143459968Y-97282000D01*
X143320370Y-97309768D01*
X143311788Y-97311475D01*
X143186167Y-97395412D01*
X143186165Y-97395414D01*
X143143753Y-97423753D01*
X143115414Y-97466165D01*
X142703566Y-97878014D01*
X142645695Y-97935885D01*
X142477462Y-97866200D01*
X142002538Y-97866200D01*
X141563767Y-98047945D01*
X141227945Y-98383767D01*
X141046200Y-98822538D01*
X141046200Y-99297462D01*
X141227945Y-99736233D01*
X141563767Y-100072055D01*
X142002538Y-100253800D01*
X142477462Y-100253800D01*
X142916233Y-100072055D01*
X143252055Y-99736233D01*
X143433800Y-99297462D01*
X143433800Y-98822538D01*
X143364115Y-98654305D01*
X143421986Y-98596434D01*
X143720421Y-98298000D01*
X143853712Y-98298000D01*
X143767945Y-98383767D01*
X143586200Y-98822538D01*
X143586200Y-99297462D01*
X143767945Y-99736233D01*
X143853712Y-99822000D01*
X143560028Y-99822000D01*
X143510000Y-99812049D01*
X143459972Y-99822000D01*
X143459968Y-99822000D01*
X143332159Y-99847423D01*
X143311788Y-99851475D01*
X143186167Y-99935412D01*
X143186165Y-99935414D01*
X143143753Y-99963753D01*
X143115414Y-100006165D01*
X142703566Y-100418014D01*
X142645695Y-100475885D01*
X142477462Y-100406200D01*
X142002538Y-100406200D01*
X141563767Y-100587945D01*
X141227945Y-100923767D01*
X141046200Y-101362538D01*
X141046200Y-101837462D01*
X141227945Y-102276233D01*
X141563767Y-102612055D01*
X142002538Y-102793800D01*
X142477462Y-102793800D01*
X142916233Y-102612055D01*
X143252055Y-102276233D01*
X143433800Y-101837462D01*
X143433800Y-101362538D01*
X143364115Y-101194305D01*
X143421986Y-101136434D01*
X143720421Y-100838000D01*
X143853712Y-100838000D01*
X143767945Y-100923767D01*
X143586200Y-101362538D01*
X143586200Y-101837462D01*
X143767945Y-102276233D01*
X143853712Y-102362000D01*
X143560028Y-102362000D01*
X143510000Y-102352049D01*
X143459972Y-102362000D01*
X143459968Y-102362000D01*
X143311788Y-102391475D01*
X143186167Y-102475412D01*
X143186165Y-102475414D01*
X143143753Y-102503753D01*
X143115414Y-102546165D01*
X142703566Y-102958014D01*
X142645695Y-103015885D01*
X142477462Y-102946200D01*
X142002538Y-102946200D01*
X141563767Y-103127945D01*
X141227945Y-103463767D01*
X141046200Y-103902538D01*
X141046200Y-104377462D01*
X141227945Y-104816233D01*
X141563767Y-105152055D01*
X142002538Y-105333800D01*
X142477462Y-105333800D01*
X142916233Y-105152055D01*
X143252055Y-104816233D01*
X143433800Y-104377462D01*
X143433800Y-103902538D01*
X143364115Y-103734305D01*
X143421986Y-103676434D01*
X143720421Y-103378000D01*
X143853712Y-103378000D01*
X143767945Y-103463767D01*
X143586200Y-103902538D01*
X143586200Y-104377462D01*
X143767945Y-104816233D01*
X143853712Y-104902000D01*
X143560028Y-104902000D01*
X143510000Y-104892049D01*
X143459972Y-104902000D01*
X143459968Y-104902000D01*
X143311788Y-104931475D01*
X143186167Y-105015412D01*
X143186165Y-105015414D01*
X143143753Y-105043753D01*
X143115414Y-105086165D01*
X142703566Y-105498014D01*
X142645695Y-105555885D01*
X142477462Y-105486200D01*
X142002538Y-105486200D01*
X141563767Y-105667945D01*
X141227945Y-106003767D01*
X141046200Y-106442538D01*
X141046200Y-106917462D01*
X141227945Y-107356233D01*
X141563767Y-107692055D01*
X142002538Y-107873800D01*
X142477462Y-107873800D01*
X142916233Y-107692055D01*
X143252055Y-107356233D01*
X143433800Y-106917462D01*
X143433800Y-106442538D01*
X143364115Y-106274305D01*
X143421986Y-106216434D01*
X143720421Y-105918000D01*
X143853712Y-105918000D01*
X143767945Y-106003767D01*
X143586200Y-106442538D01*
X143586200Y-106917462D01*
X143719303Y-107238801D01*
X143648926Y-107238801D01*
X143598898Y-107228850D01*
X143548870Y-107238801D01*
X143548867Y-107238801D01*
X143400687Y-107268276D01*
X143232652Y-107380554D01*
X143204311Y-107422969D01*
X142564873Y-108062407D01*
X142477462Y-108026200D01*
X142002538Y-108026200D01*
X141563767Y-108207945D01*
X141227945Y-108543767D01*
X141046200Y-108982538D01*
X141046200Y-109457462D01*
X141227945Y-109896233D01*
X141563767Y-110232055D01*
X142002538Y-110413800D01*
X142477462Y-110413800D01*
X142916233Y-110232055D01*
X143002000Y-110146288D01*
X143002000Y-110439972D01*
X142992049Y-110490000D01*
X143002000Y-110540028D01*
X143002000Y-110540031D01*
X143031475Y-110688211D01*
X143089059Y-110774391D01*
X143143753Y-110856247D01*
X143186168Y-110884588D01*
X143655884Y-111354305D01*
X143586200Y-111522538D01*
X143586200Y-111997462D01*
X143767945Y-112436233D01*
X144103767Y-112772055D01*
X144542538Y-112953800D01*
X145017462Y-112953800D01*
X145456233Y-112772055D01*
X145560957Y-112667331D01*
X145571475Y-112720211D01*
X145683753Y-112888247D01*
X145726168Y-112916588D01*
X146163412Y-113353832D01*
X146191753Y-113396247D01*
X146359788Y-113508525D01*
X146507968Y-113538000D01*
X146507972Y-113538000D01*
X146557999Y-113547951D01*
X146608026Y-113538000D01*
X150190972Y-113538000D01*
X150241000Y-113547951D01*
X150291028Y-113538000D01*
X150291032Y-113538000D01*
X150439212Y-113508525D01*
X150607247Y-113396247D01*
X150635588Y-113353832D01*
X151298373Y-112691047D01*
X151684479Y-112691047D01*
X151767472Y-112889878D01*
X152248006Y-113045929D01*
X152751680Y-113006209D01*
X153032528Y-112889878D01*
X153115521Y-112691047D01*
X152400000Y-111975526D01*
X151684479Y-112691047D01*
X151298373Y-112691047D01*
X151326835Y-112662586D01*
X151369247Y-112634247D01*
X151397586Y-112591835D01*
X151397588Y-112591833D01*
X151481525Y-112466212D01*
X151482335Y-112462139D01*
X152184474Y-111760000D01*
X152615526Y-111760000D01*
X153331047Y-112475521D01*
X153529878Y-112392528D01*
X153685929Y-111911994D01*
X153655217Y-111522538D01*
X153746200Y-111522538D01*
X153746200Y-111997462D01*
X153927945Y-112436233D01*
X154263767Y-112772055D01*
X154702538Y-112953800D01*
X155177462Y-112953800D01*
X155616233Y-112772055D01*
X155952055Y-112436233D01*
X156133800Y-111997462D01*
X156133800Y-111522538D01*
X156286200Y-111522538D01*
X156286200Y-111997462D01*
X156467945Y-112436233D01*
X156803767Y-112772055D01*
X157242538Y-112953800D01*
X157717462Y-112953800D01*
X158156233Y-112772055D01*
X158492055Y-112436233D01*
X158673800Y-111997462D01*
X158673800Y-111522538D01*
X158826200Y-111522538D01*
X158826200Y-111997462D01*
X159007945Y-112436233D01*
X159343767Y-112772055D01*
X159782538Y-112953800D01*
X160257462Y-112953800D01*
X160696233Y-112772055D01*
X161032055Y-112436233D01*
X161213800Y-111997462D01*
X161213800Y-111522538D01*
X161032055Y-111083767D01*
X160696233Y-110747945D01*
X160257462Y-110566200D01*
X159782538Y-110566200D01*
X159343767Y-110747945D01*
X159007945Y-111083767D01*
X158826200Y-111522538D01*
X158673800Y-111522538D01*
X158492055Y-111083767D01*
X158156233Y-110747945D01*
X157717462Y-110566200D01*
X157242538Y-110566200D01*
X156803767Y-110747945D01*
X156467945Y-111083767D01*
X156286200Y-111522538D01*
X156133800Y-111522538D01*
X155952055Y-111083767D01*
X155616233Y-110747945D01*
X155177462Y-110566200D01*
X154702538Y-110566200D01*
X154263767Y-110747945D01*
X153927945Y-111083767D01*
X153746200Y-111522538D01*
X153655217Y-111522538D01*
X153646209Y-111408320D01*
X153529878Y-111127472D01*
X153331047Y-111044479D01*
X152615526Y-111760000D01*
X152184474Y-111760000D01*
X152170332Y-111745858D01*
X152385858Y-111530332D01*
X152400000Y-111544474D01*
X153115521Y-110828953D01*
X153032528Y-110630122D01*
X152551994Y-110474071D01*
X152048320Y-110513791D01*
X151767472Y-110630122D01*
X151684480Y-110828951D01*
X151593553Y-110738024D01*
X151511000Y-110820577D01*
X151511000Y-110019288D01*
X151723767Y-110232055D01*
X152162538Y-110413800D01*
X152637462Y-110413800D01*
X153076233Y-110232055D01*
X153412055Y-109896233D01*
X153593800Y-109457462D01*
X153593800Y-108982538D01*
X153746200Y-108982538D01*
X153746200Y-109457462D01*
X153927945Y-109896233D01*
X154263767Y-110232055D01*
X154702538Y-110413800D01*
X155177462Y-110413800D01*
X155616233Y-110232055D01*
X155952055Y-109896233D01*
X156133800Y-109457462D01*
X156133800Y-108982538D01*
X156286200Y-108982538D01*
X156286200Y-109457462D01*
X156467945Y-109896233D01*
X156803767Y-110232055D01*
X157242538Y-110413800D01*
X157717462Y-110413800D01*
X158156233Y-110232055D01*
X158492055Y-109896233D01*
X158673800Y-109457462D01*
X158673800Y-108982538D01*
X158492055Y-108543767D01*
X158156233Y-108207945D01*
X157717462Y-108026200D01*
X157242538Y-108026200D01*
X156803767Y-108207945D01*
X156467945Y-108543767D01*
X156286200Y-108982538D01*
X156133800Y-108982538D01*
X155952055Y-108543767D01*
X155616233Y-108207945D01*
X155177462Y-108026200D01*
X154702538Y-108026200D01*
X154263767Y-108207945D01*
X153927945Y-108543767D01*
X153746200Y-108982538D01*
X153593800Y-108982538D01*
X153412055Y-108543767D01*
X153076233Y-108207945D01*
X152692176Y-108048863D01*
X152738829Y-107979042D01*
X152768304Y-107830862D01*
X152768304Y-107830859D01*
X152778255Y-107780831D01*
X152768304Y-107730803D01*
X152768304Y-107301531D01*
X152778255Y-107251503D01*
X152768304Y-107201473D01*
X152768304Y-107201472D01*
X152738829Y-107053292D01*
X152683408Y-106970349D01*
X152819000Y-106997320D01*
X153016586Y-106958017D01*
X153019000Y-106956404D01*
X153021413Y-106958017D01*
X153219000Y-106997320D01*
X153416586Y-106958017D01*
X153419000Y-106956404D01*
X153421413Y-106958017D01*
X153619000Y-106997320D01*
X153816586Y-106958017D01*
X153819000Y-106956404D01*
X153821413Y-106958017D01*
X154019000Y-106997320D01*
X154167077Y-106967865D01*
X154114500Y-107094797D01*
X154114500Y-107382783D01*
X154224707Y-107648846D01*
X154428344Y-107852483D01*
X154694407Y-107962690D01*
X154982393Y-107962690D01*
X155248456Y-107852483D01*
X155452093Y-107648846D01*
X155562300Y-107382783D01*
X155562300Y-107094797D01*
X155486339Y-106911410D01*
X155584093Y-106846093D01*
X155696017Y-106678587D01*
X155725400Y-106530871D01*
X155725400Y-105687400D01*
X156060924Y-105687400D01*
X156068968Y-105689000D01*
X157370780Y-105689000D01*
X157937200Y-106255420D01*
X157937201Y-107112568D01*
X157927249Y-107162600D01*
X157966675Y-107360811D01*
X158050612Y-107486432D01*
X158050615Y-107486435D01*
X158078954Y-107528847D01*
X158121366Y-107557186D01*
X158863414Y-108299235D01*
X158891753Y-108341647D01*
X158934165Y-108369986D01*
X158934167Y-108369988D01*
X159005810Y-108417858D01*
X159059788Y-108453925D01*
X159091483Y-108460229D01*
X159007945Y-108543767D01*
X158826200Y-108982538D01*
X158826200Y-109457462D01*
X159007945Y-109896233D01*
X159343767Y-110232055D01*
X159782538Y-110413800D01*
X160257462Y-110413800D01*
X160696233Y-110232055D01*
X161032055Y-109896233D01*
X161213800Y-109457462D01*
X161213800Y-108982538D01*
X161366200Y-108982538D01*
X161366200Y-109457462D01*
X161547945Y-109896233D01*
X161883767Y-110232055D01*
X162322538Y-110413800D01*
X162797462Y-110413800D01*
X163236233Y-110232055D01*
X163572055Y-109896233D01*
X163753800Y-109457462D01*
X163753800Y-108982538D01*
X163572055Y-108543767D01*
X163236233Y-108207945D01*
X162797462Y-108026200D01*
X162322538Y-108026200D01*
X161883767Y-108207945D01*
X161547945Y-108543767D01*
X161366200Y-108982538D01*
X161213800Y-108982538D01*
X161032055Y-108543767D01*
X160926912Y-108438624D01*
X161072047Y-108341647D01*
X161100388Y-108299232D01*
X161639233Y-107760387D01*
X161681647Y-107732047D01*
X161778624Y-107586912D01*
X161883767Y-107692055D01*
X162322538Y-107873800D01*
X162797462Y-107873800D01*
X163236233Y-107692055D01*
X163572055Y-107356233D01*
X163753800Y-106917462D01*
X163753800Y-106442538D01*
X163572055Y-106003767D01*
X163436390Y-105868102D01*
X163535847Y-105801647D01*
X163564188Y-105759232D01*
X164840521Y-104482900D01*
X164989993Y-104482900D01*
X165256056Y-104372693D01*
X165459693Y-104169056D01*
X165569900Y-103902993D01*
X165569900Y-103615007D01*
X165459693Y-103348944D01*
X165256056Y-103145307D01*
X164989993Y-103035100D01*
X164702007Y-103035100D01*
X164435944Y-103145307D01*
X164232307Y-103348944D01*
X164122100Y-103615007D01*
X164122100Y-103764479D01*
X163753800Y-104132779D01*
X163753800Y-103902538D01*
X163572055Y-103463767D01*
X163460888Y-103352600D01*
X163654316Y-103352600D01*
X163704344Y-103362551D01*
X163754372Y-103352600D01*
X163754376Y-103352600D01*
X163902556Y-103323125D01*
X164070591Y-103210847D01*
X164098932Y-103168432D01*
X164145079Y-103122285D01*
X164294552Y-103122285D01*
X164560615Y-103012078D01*
X164764252Y-102808441D01*
X164874459Y-102542378D01*
X164874459Y-102254392D01*
X164764252Y-101988329D01*
X164560615Y-101784692D01*
X164294552Y-101674485D01*
X164006566Y-101674485D01*
X163753800Y-101779184D01*
X163753800Y-101362538D01*
X163572055Y-100923767D01*
X163486288Y-100838000D01*
X164134876Y-100838000D01*
X164312599Y-100873351D01*
X164312600Y-100873351D01*
X164510811Y-100833925D01*
X164636432Y-100749988D01*
X164636433Y-100749987D01*
X164678847Y-100721647D01*
X164707187Y-100679233D01*
X165373035Y-100013386D01*
X165415447Y-99985047D01*
X165443786Y-99942635D01*
X165443788Y-99942633D01*
X165527725Y-99817012D01*
X165534532Y-99782789D01*
X165557200Y-99668832D01*
X165557200Y-99668828D01*
X165567151Y-99618800D01*
X165557200Y-99568772D01*
X165557200Y-93555420D01*
X166903400Y-92209221D01*
X166903400Y-114198400D01*
X139801600Y-114198400D01*
X139801600Y-93742538D01*
X141046200Y-93742538D01*
X141046200Y-94217462D01*
X141227945Y-94656233D01*
X141563767Y-94992055D01*
X142002538Y-95173800D01*
X142477462Y-95173800D01*
X142916233Y-94992055D01*
X143252055Y-94656233D01*
X143433800Y-94217462D01*
X143433800Y-93742538D01*
X143252055Y-93303767D01*
X142916233Y-92967945D01*
X142477462Y-92786200D01*
X142002538Y-92786200D01*
X141563767Y-92967945D01*
X141227945Y-93303767D01*
X141046200Y-93742538D01*
X139801600Y-93742538D01*
X139801600Y-91202538D01*
X143586200Y-91202538D01*
X143586200Y-91677462D01*
X143767945Y-92116233D01*
X144103767Y-92452055D01*
X144542538Y-92633800D01*
X145017462Y-92633800D01*
X145456233Y-92452055D01*
X145792055Y-92116233D01*
X145973800Y-91677462D01*
X145973800Y-91202538D01*
X145792055Y-90763767D01*
X145456233Y-90427945D01*
X145017462Y-90246200D01*
X144542538Y-90246200D01*
X144103767Y-90427945D01*
X143767945Y-90763767D01*
X143586200Y-91202538D01*
X139801600Y-91202538D01*
X139801600Y-86721950D01*
X150705820Y-86721950D01*
X150705820Y-87643445D01*
X150779292Y-87820821D01*
X150915049Y-87956579D01*
X151092425Y-88030050D01*
X151192230Y-88030050D01*
X151312880Y-87909400D01*
X151312880Y-86721950D01*
X151505920Y-86721950D01*
X151505920Y-87643445D01*
X151561800Y-87778350D01*
X151561800Y-87909400D01*
X151682450Y-88030050D01*
X151782255Y-88030050D01*
X151837390Y-88007213D01*
X151892525Y-88030050D01*
X151992330Y-88030050D01*
X152112980Y-87909400D01*
X152112980Y-87778350D01*
X152168860Y-87643445D01*
X152168860Y-86721950D01*
X152112980Y-86666070D01*
X152112980Y-86601300D01*
X151561800Y-86601300D01*
X151561800Y-86666070D01*
X151505920Y-86721950D01*
X151312880Y-86721950D01*
X151312880Y-86601300D01*
X150826470Y-86601300D01*
X150705820Y-86721950D01*
X139801600Y-86721950D01*
X139801600Y-85254355D01*
X150705820Y-85254355D01*
X150705820Y-86175850D01*
X150826470Y-86296500D01*
X151312880Y-86296500D01*
X151312880Y-85254355D01*
X151505920Y-85254355D01*
X151505920Y-86175850D01*
X151561800Y-86231730D01*
X151561800Y-86296500D01*
X152112980Y-86296500D01*
X152112980Y-86231730D01*
X152168860Y-86175850D01*
X152168860Y-85254355D01*
X152112980Y-85119450D01*
X152112980Y-84988400D01*
X151992330Y-84867750D01*
X151892525Y-84867750D01*
X151837390Y-84890587D01*
X151782255Y-84867750D01*
X151682450Y-84867750D01*
X151561800Y-84988400D01*
X151561800Y-85119450D01*
X151505920Y-85254355D01*
X151312880Y-85254355D01*
X151312880Y-84988400D01*
X151192230Y-84867750D01*
X151092425Y-84867750D01*
X150915049Y-84941221D01*
X150779292Y-85076979D01*
X150705820Y-85254355D01*
X139801600Y-85254355D01*
X139801600Y-83751335D01*
X149979380Y-83751335D01*
X149979380Y-84091865D01*
X150109695Y-84406474D01*
X150350486Y-84647265D01*
X150665095Y-84777580D01*
X151005625Y-84777580D01*
X151320234Y-84647265D01*
X151561025Y-84406474D01*
X151691340Y-84091865D01*
X151691340Y-83751335D01*
X151561025Y-83436726D01*
X151320234Y-83195935D01*
X151005625Y-83065620D01*
X150665095Y-83065620D01*
X150350486Y-83195935D01*
X150109695Y-83436726D01*
X149979380Y-83751335D01*
X139801600Y-83751335D01*
X139801600Y-78206600D01*
X166903400Y-78206600D01*
X166903400Y-86599159D01*
X166903400Y-86599159D01*
G37*
X166903400Y-86599159D02*
X166423656Y-86119415D01*
X166502110Y-85725000D01*
X166411428Y-85269113D01*
X166153189Y-84882631D01*
X165766707Y-84624392D01*
X165425895Y-84556600D01*
X164520105Y-84556600D01*
X164179293Y-84624392D01*
X163792811Y-84882631D01*
X163534572Y-85269113D01*
X163443890Y-85725000D01*
X163534572Y-86180887D01*
X163792811Y-86567369D01*
X164179293Y-86825608D01*
X164520105Y-86893400D01*
X165425895Y-86893400D01*
X165705235Y-86837836D01*
X166243001Y-87375602D01*
X166243001Y-87557044D01*
X166153189Y-87422631D01*
X165766707Y-87164392D01*
X165425895Y-87096600D01*
X164520105Y-87096600D01*
X164179293Y-87164392D01*
X163792811Y-87422631D01*
X163534572Y-87809113D01*
X163443890Y-88265000D01*
X163522344Y-88659415D01*
X161145094Y-91036666D01*
X161032055Y-90763767D01*
X160696233Y-90427945D01*
X160257462Y-90246200D01*
X159782538Y-90246200D01*
X159343767Y-90427945D01*
X159007945Y-90763767D01*
X158826200Y-91202538D01*
X158826200Y-91677462D01*
X159007945Y-92116233D01*
X159343767Y-92452055D01*
X159782538Y-92633800D01*
X160257462Y-92633800D01*
X160696233Y-92452055D01*
X160782001Y-92366287D01*
X160782001Y-93053713D01*
X160696233Y-92967945D01*
X160257462Y-92786200D01*
X159782538Y-92786200D01*
X159343767Y-92967945D01*
X159007945Y-93303767D01*
X158826200Y-93742538D01*
X158826200Y-94217462D01*
X159007945Y-94656233D01*
X159343767Y-94992055D01*
X159782538Y-95173800D01*
X160257462Y-95173800D01*
X160696233Y-94992055D01*
X160782000Y-94906288D01*
X160782000Y-95593712D01*
X160696233Y-95507945D01*
X160257462Y-95326200D01*
X159782538Y-95326200D01*
X159343767Y-95507945D01*
X159007945Y-95843767D01*
X158826200Y-96282538D01*
X158826200Y-96757462D01*
X158861755Y-96843299D01*
X158407099Y-97297955D01*
X158407099Y-96100121D01*
X158417050Y-96050093D01*
X158407099Y-96000065D01*
X158407099Y-96000061D01*
X158377624Y-95851881D01*
X158265346Y-95683846D01*
X158222931Y-95655505D01*
X158051506Y-95484080D01*
X158051506Y-95334607D01*
X157945732Y-95079247D01*
X158156233Y-94992055D01*
X158492055Y-94656233D01*
X158673800Y-94217462D01*
X158673800Y-93742538D01*
X158492055Y-93303767D01*
X158156233Y-92967945D01*
X157717462Y-92786200D01*
X157242538Y-92786200D01*
X156803767Y-92967945D01*
X156467945Y-93303767D01*
X156286200Y-93742538D01*
X156286200Y-94217462D01*
X156346297Y-94362548D01*
X156133800Y-94150051D01*
X156133800Y-93742538D01*
X155954613Y-93309942D01*
X156772289Y-92492266D01*
X156801004Y-92449292D01*
X156803767Y-92452055D01*
X157242538Y-92633800D01*
X157717462Y-92633800D01*
X158156233Y-92452055D01*
X158492055Y-92116233D01*
X158673800Y-91677462D01*
X158673800Y-91202538D01*
X158492055Y-90763767D01*
X158156233Y-90427945D01*
X157801806Y-90281136D01*
X158332043Y-89750900D01*
X158859538Y-89750900D01*
X158889003Y-89794997D01*
X159023431Y-89884820D01*
X159182000Y-89916361D01*
X160082000Y-89916361D01*
X160240569Y-89884820D01*
X160374997Y-89794997D01*
X160402965Y-89753140D01*
X160463000Y-89765082D01*
X160534298Y-89750900D01*
X160745452Y-89708899D01*
X160984903Y-89548903D01*
X161025293Y-89488455D01*
X162716660Y-87797089D01*
X162777102Y-87756703D01*
X162852606Y-87643705D01*
X162937099Y-87517252D01*
X162993282Y-87234800D01*
X162979100Y-87163502D01*
X162979100Y-83528757D01*
X163438994Y-83528757D01*
X163647352Y-83957302D01*
X164018093Y-84276540D01*
X164482780Y-84429600D01*
X164820600Y-84429600D01*
X164820600Y-83337400D01*
X165125400Y-83337400D01*
X165125400Y-84429600D01*
X165463220Y-84429600D01*
X165927907Y-84276540D01*
X166298648Y-83957302D01*
X166507006Y-83528757D01*
X166424390Y-83337400D01*
X165125400Y-83337400D01*
X164820600Y-83337400D01*
X163521610Y-83337400D01*
X163438994Y-83528757D01*
X162979100Y-83528757D01*
X162979100Y-83053048D01*
X163190905Y-82841243D01*
X163438994Y-82841243D01*
X163521610Y-83032600D01*
X164820600Y-83032600D01*
X164820600Y-81940400D01*
X165125400Y-81940400D01*
X165125400Y-83032600D01*
X166424390Y-83032600D01*
X166507006Y-82841243D01*
X166298648Y-82412698D01*
X165927907Y-82093460D01*
X165463220Y-81940400D01*
X165125400Y-81940400D01*
X164820600Y-81940400D01*
X164482780Y-81940400D01*
X164018093Y-82093460D01*
X163647352Y-82412698D01*
X163438994Y-82841243D01*
X163190905Y-82841243D01*
X164210788Y-81821361D01*
X166072820Y-81821361D01*
X166231389Y-81789820D01*
X166365817Y-81699997D01*
X166455640Y-81565569D01*
X166487181Y-81407000D01*
X166487181Y-79883000D01*
X166455640Y-79724431D01*
X166365817Y-79590003D01*
X166231389Y-79500180D01*
X166072820Y-79468639D01*
X163873180Y-79468639D01*
X163714611Y-79500180D01*
X163580183Y-79590003D01*
X163490360Y-79724431D01*
X163458819Y-79883000D01*
X163458819Y-80525832D01*
X161793743Y-82190909D01*
X161733298Y-82231297D01*
X161692911Y-82291741D01*
X161573301Y-82470749D01*
X161517118Y-82753200D01*
X161531301Y-82824503D01*
X161531300Y-86934951D01*
X160274440Y-88191812D01*
X160240569Y-88169180D01*
X160082000Y-88137639D01*
X159182000Y-88137639D01*
X159023431Y-88169180D01*
X158889003Y-88259003D01*
X158859538Y-88303100D01*
X158103486Y-88303100D01*
X158032193Y-88288919D01*
X157960900Y-88303100D01*
X157960896Y-88303100D01*
X157749742Y-88345101D01*
X157510291Y-88505097D01*
X157469904Y-88565541D01*
X156424738Y-89610708D01*
X156446361Y-89502000D01*
X156446361Y-88552000D01*
X156414820Y-88393431D01*
X156324997Y-88259003D01*
X156190569Y-88169180D01*
X156032000Y-88137639D01*
X155716388Y-88137639D01*
X155356560Y-87777812D01*
X155356560Y-86377602D01*
X155314559Y-86166448D01*
X155295941Y-86138584D01*
X155295941Y-85350350D01*
X155264400Y-85191781D01*
X155174577Y-85057353D01*
X155040149Y-84967530D01*
X154881580Y-84935989D01*
X154520892Y-84935989D01*
X154520892Y-84819007D01*
X154410685Y-84552944D01*
X154207048Y-84349307D01*
X153940985Y-84239100D01*
X153784300Y-84239100D01*
X153784300Y-84107807D01*
X153674093Y-83841744D01*
X153583684Y-83751335D01*
X154376120Y-83751335D01*
X154376120Y-84091865D01*
X154506435Y-84406474D01*
X154747226Y-84647265D01*
X155061835Y-84777580D01*
X155402365Y-84777580D01*
X155716974Y-84647265D01*
X155957765Y-84406474D01*
X156088080Y-84091865D01*
X156088080Y-83751335D01*
X155957765Y-83436726D01*
X155716974Y-83195935D01*
X155402365Y-83065620D01*
X155061835Y-83065620D01*
X154747226Y-83195935D01*
X154506435Y-83436726D01*
X154376120Y-83751335D01*
X153583684Y-83751335D01*
X153470456Y-83638107D01*
X153204393Y-83527900D01*
X152916407Y-83527900D01*
X152650344Y-83638107D01*
X152446707Y-83841744D01*
X152336500Y-84107807D01*
X152336500Y-84395793D01*
X152446707Y-84661856D01*
X152527001Y-84742150D01*
X152527001Y-84867750D01*
X152482550Y-84867750D01*
X152361900Y-84988400D01*
X152361900Y-86296500D01*
X152371719Y-86296500D01*
X152371719Y-86601300D01*
X152361900Y-86601300D01*
X152361900Y-87909400D01*
X152482550Y-88030050D01*
X152582355Y-88030050D01*
X152759731Y-87956579D01*
X152759739Y-87956571D01*
X152786080Y-87961811D01*
X153283920Y-87961811D01*
X153433780Y-87932002D01*
X153583640Y-87961811D01*
X153908761Y-87961811D01*
X153908761Y-88006358D01*
X153894578Y-88077660D01*
X153950761Y-88360111D01*
X153950762Y-88360112D01*
X154110758Y-88599563D01*
X154171203Y-88639951D01*
X154717639Y-89186388D01*
X154717639Y-89199972D01*
X154575993Y-89141300D01*
X154288007Y-89141300D01*
X154021944Y-89251507D01*
X153818307Y-89455144D01*
X153708100Y-89721207D01*
X153708100Y-89870681D01*
X153682700Y-89896080D01*
X153657300Y-89870680D01*
X153657300Y-89721207D01*
X153547093Y-89455144D01*
X153343456Y-89251507D01*
X153077393Y-89141300D01*
X152789407Y-89141300D01*
X152523344Y-89251507D01*
X152319707Y-89455144D01*
X152209500Y-89721207D01*
X152209500Y-90009193D01*
X152307672Y-90246200D01*
X152162538Y-90246200D01*
X151723767Y-90427945D01*
X151387945Y-90763767D01*
X151206200Y-91202538D01*
X151206200Y-91677462D01*
X151387945Y-92116233D01*
X151723767Y-92452055D01*
X152162538Y-92633800D01*
X152637462Y-92633800D01*
X152984189Y-92490181D01*
X152984189Y-92929819D01*
X152637462Y-92786200D01*
X152162538Y-92786200D01*
X151723767Y-92967945D01*
X151583050Y-93108662D01*
X151561391Y-93076247D01*
X151524588Y-93021167D01*
X151524586Y-93021165D01*
X151496247Y-92978753D01*
X151453835Y-92950414D01*
X150889588Y-92386168D01*
X150861247Y-92343753D01*
X150731338Y-92256950D01*
X150872055Y-92116233D01*
X151053800Y-91677462D01*
X151053800Y-91202538D01*
X150872055Y-90763767D01*
X150536233Y-90427945D01*
X150097462Y-90246200D01*
X149622538Y-90246200D01*
X149183767Y-90427945D01*
X148847945Y-90763767D01*
X148666200Y-91202538D01*
X148666200Y-91677462D01*
X148847945Y-92116233D01*
X148933712Y-92202000D01*
X148246288Y-92202000D01*
X148332055Y-92116233D01*
X148513800Y-91677462D01*
X148513800Y-91202538D01*
X148332055Y-90763767D01*
X147996233Y-90427945D01*
X147557462Y-90246200D01*
X147082538Y-90246200D01*
X146643767Y-90427945D01*
X146307945Y-90763767D01*
X146126200Y-91202538D01*
X146126200Y-91677462D01*
X146307945Y-92116233D01*
X146393712Y-92202000D01*
X146100027Y-92202000D01*
X146049999Y-92192049D01*
X145999971Y-92202000D01*
X145999968Y-92202000D01*
X145851788Y-92231475D01*
X145726167Y-92315412D01*
X145726165Y-92315414D01*
X145683753Y-92343753D01*
X145655414Y-92386165D01*
X145185695Y-92855884D01*
X145017462Y-92786200D01*
X144542538Y-92786200D01*
X144103767Y-92967945D01*
X143767945Y-93303767D01*
X143586200Y-93742538D01*
X143586200Y-94217462D01*
X143767945Y-94656233D01*
X143853712Y-94742000D01*
X143560028Y-94742000D01*
X143510000Y-94732049D01*
X143459972Y-94742000D01*
X143459968Y-94742000D01*
X143311788Y-94771475D01*
X143186167Y-94855412D01*
X143186165Y-94855414D01*
X143143753Y-94883753D01*
X143115414Y-94926165D01*
X142703566Y-95338014D01*
X142645695Y-95395885D01*
X142477462Y-95326200D01*
X142002538Y-95326200D01*
X141563767Y-95507945D01*
X141227945Y-95843767D01*
X141046200Y-96282538D01*
X141046200Y-96757462D01*
X141227945Y-97196233D01*
X141563767Y-97532055D01*
X142002538Y-97713800D01*
X142477462Y-97713800D01*
X142916233Y-97532055D01*
X143252055Y-97196233D01*
X143433800Y-96757462D01*
X143433800Y-96282538D01*
X143364115Y-96114305D01*
X143421986Y-96056434D01*
X143720421Y-95758000D01*
X143853712Y-95758000D01*
X143767945Y-95843767D01*
X143586200Y-96282538D01*
X143586200Y-96757462D01*
X143767945Y-97196233D01*
X143853712Y-97282000D01*
X143560028Y-97282000D01*
X143510000Y-97272049D01*
X143459972Y-97282000D01*
X143459968Y-97282000D01*
X143320370Y-97309768D01*
X143311788Y-97311475D01*
X143186167Y-97395412D01*
X143186165Y-97395414D01*
X143143753Y-97423753D01*
X143115414Y-97466165D01*
X142703566Y-97878014D01*
X142645695Y-97935885D01*
X142477462Y-97866200D01*
X142002538Y-97866200D01*
X141563767Y-98047945D01*
X141227945Y-98383767D01*
X141046200Y-98822538D01*
X141046200Y-99297462D01*
X141227945Y-99736233D01*
X141563767Y-100072055D01*
X142002538Y-100253800D01*
X142477462Y-100253800D01*
X142916233Y-100072055D01*
X143252055Y-99736233D01*
X143433800Y-99297462D01*
X143433800Y-98822538D01*
X143364115Y-98654305D01*
X143421986Y-98596434D01*
X143720421Y-98298000D01*
X143853712Y-98298000D01*
X143767945Y-98383767D01*
X143586200Y-98822538D01*
X143586200Y-99297462D01*
X143767945Y-99736233D01*
X143853712Y-99822000D01*
X143560028Y-99822000D01*
X143510000Y-99812049D01*
X143459972Y-99822000D01*
X143459968Y-99822000D01*
X143332159Y-99847423D01*
X143311788Y-99851475D01*
X143186167Y-99935412D01*
X143186165Y-99935414D01*
X143143753Y-99963753D01*
X143115414Y-100006165D01*
X142703566Y-100418014D01*
X142645695Y-100475885D01*
X142477462Y-100406200D01*
X142002538Y-100406200D01*
X141563767Y-100587945D01*
X141227945Y-100923767D01*
X141046200Y-101362538D01*
X141046200Y-101837462D01*
X141227945Y-102276233D01*
X141563767Y-102612055D01*
X142002538Y-102793800D01*
X142477462Y-102793800D01*
X142916233Y-102612055D01*
X143252055Y-102276233D01*
X143433800Y-101837462D01*
X143433800Y-101362538D01*
X143364115Y-101194305D01*
X143421986Y-101136434D01*
X143720421Y-100838000D01*
X143853712Y-100838000D01*
X143767945Y-100923767D01*
X143586200Y-101362538D01*
X143586200Y-101837462D01*
X143767945Y-102276233D01*
X143853712Y-102362000D01*
X143560028Y-102362000D01*
X143510000Y-102352049D01*
X143459972Y-102362000D01*
X143459968Y-102362000D01*
X143311788Y-102391475D01*
X143186167Y-102475412D01*
X143186165Y-102475414D01*
X143143753Y-102503753D01*
X143115414Y-102546165D01*
X142703566Y-102958014D01*
X142645695Y-103015885D01*
X142477462Y-102946200D01*
X142002538Y-102946200D01*
X141563767Y-103127945D01*
X141227945Y-103463767D01*
X141046200Y-103902538D01*
X141046200Y-104377462D01*
X141227945Y-104816233D01*
X141563767Y-105152055D01*
X142002538Y-105333800D01*
X142477462Y-105333800D01*
X142916233Y-105152055D01*
X143252055Y-104816233D01*
X143433800Y-104377462D01*
X143433800Y-103902538D01*
X143364115Y-103734305D01*
X143421986Y-103676434D01*
X143720421Y-103378000D01*
X143853712Y-103378000D01*
X143767945Y-103463767D01*
X143586200Y-103902538D01*
X143586200Y-104377462D01*
X143767945Y-104816233D01*
X143853712Y-104902000D01*
X143560028Y-104902000D01*
X143510000Y-104892049D01*
X143459972Y-104902000D01*
X143459968Y-104902000D01*
X143311788Y-104931475D01*
X143186167Y-105015412D01*
X143186165Y-105015414D01*
X143143753Y-105043753D01*
X143115414Y-105086165D01*
X142703566Y-105498014D01*
X142645695Y-105555885D01*
X142477462Y-105486200D01*
X142002538Y-105486200D01*
X141563767Y-105667945D01*
X141227945Y-106003767D01*
X141046200Y-106442538D01*
X141046200Y-106917462D01*
X141227945Y-107356233D01*
X141563767Y-107692055D01*
X142002538Y-107873800D01*
X142477462Y-107873800D01*
X142916233Y-107692055D01*
X143252055Y-107356233D01*
X143433800Y-106917462D01*
X143433800Y-106442538D01*
X143364115Y-106274305D01*
X143421986Y-106216434D01*
X143720421Y-105918000D01*
X143853712Y-105918000D01*
X143767945Y-106003767D01*
X143586200Y-106442538D01*
X143586200Y-106917462D01*
X143719303Y-107238801D01*
X143648926Y-107238801D01*
X143598898Y-107228850D01*
X143548870Y-107238801D01*
X143548867Y-107238801D01*
X143400687Y-107268276D01*
X143232652Y-107380554D01*
X143204311Y-107422969D01*
X142564873Y-108062407D01*
X142477462Y-108026200D01*
X142002538Y-108026200D01*
X141563767Y-108207945D01*
X141227945Y-108543767D01*
X141046200Y-108982538D01*
X141046200Y-109457462D01*
X141227945Y-109896233D01*
X141563767Y-110232055D01*
X142002538Y-110413800D01*
X142477462Y-110413800D01*
X142916233Y-110232055D01*
X143002000Y-110146288D01*
X143002000Y-110439972D01*
X142992049Y-110490000D01*
X143002000Y-110540028D01*
X143002000Y-110540031D01*
X143031475Y-110688211D01*
X143089059Y-110774391D01*
X143143753Y-110856247D01*
X143186168Y-110884588D01*
X143655884Y-111354305D01*
X143586200Y-111522538D01*
X143586200Y-111997462D01*
X143767945Y-112436233D01*
X144103767Y-112772055D01*
X144542538Y-112953800D01*
X145017462Y-112953800D01*
X145456233Y-112772055D01*
X145560957Y-112667331D01*
X145571475Y-112720211D01*
X145683753Y-112888247D01*
X145726168Y-112916588D01*
X146163412Y-113353832D01*
X146191753Y-113396247D01*
X146359788Y-113508525D01*
X146507968Y-113538000D01*
X146507972Y-113538000D01*
X146557999Y-113547951D01*
X146608026Y-113538000D01*
X150190972Y-113538000D01*
X150241000Y-113547951D01*
X150291028Y-113538000D01*
X150291032Y-113538000D01*
X150439212Y-113508525D01*
X150607247Y-113396247D01*
X150635588Y-113353832D01*
X151298373Y-112691047D01*
X151684479Y-112691047D01*
X151767472Y-112889878D01*
X152248006Y-113045929D01*
X152751680Y-113006209D01*
X153032528Y-112889878D01*
X153115521Y-112691047D01*
X152400000Y-111975526D01*
X151684479Y-112691047D01*
X151298373Y-112691047D01*
X151326835Y-112662586D01*
X151369247Y-112634247D01*
X151397586Y-112591835D01*
X151397588Y-112591833D01*
X151481525Y-112466212D01*
X151482335Y-112462139D01*
X152184474Y-111760000D01*
X152615526Y-111760000D01*
X153331047Y-112475521D01*
X153529878Y-112392528D01*
X153685929Y-111911994D01*
X153655217Y-111522538D01*
X153746200Y-111522538D01*
X153746200Y-111997462D01*
X153927945Y-112436233D01*
X154263767Y-112772055D01*
X154702538Y-112953800D01*
X155177462Y-112953800D01*
X155616233Y-112772055D01*
X155952055Y-112436233D01*
X156133800Y-111997462D01*
X156133800Y-111522538D01*
X156286200Y-111522538D01*
X156286200Y-111997462D01*
X156467945Y-112436233D01*
X156803767Y-112772055D01*
X157242538Y-112953800D01*
X157717462Y-112953800D01*
X158156233Y-112772055D01*
X158492055Y-112436233D01*
X158673800Y-111997462D01*
X158673800Y-111522538D01*
X158826200Y-111522538D01*
X158826200Y-111997462D01*
X159007945Y-112436233D01*
X159343767Y-112772055D01*
X159782538Y-112953800D01*
X160257462Y-112953800D01*
X160696233Y-112772055D01*
X161032055Y-112436233D01*
X161213800Y-111997462D01*
X161213800Y-111522538D01*
X161032055Y-111083767D01*
X160696233Y-110747945D01*
X160257462Y-110566200D01*
X159782538Y-110566200D01*
X159343767Y-110747945D01*
X159007945Y-111083767D01*
X158826200Y-111522538D01*
X158673800Y-111522538D01*
X158492055Y-111083767D01*
X158156233Y-110747945D01*
X157717462Y-110566200D01*
X157242538Y-110566200D01*
X156803767Y-110747945D01*
X156467945Y-111083767D01*
X156286200Y-111522538D01*
X156133800Y-111522538D01*
X155952055Y-111083767D01*
X155616233Y-110747945D01*
X155177462Y-110566200D01*
X154702538Y-110566200D01*
X154263767Y-110747945D01*
X153927945Y-111083767D01*
X153746200Y-111522538D01*
X153655217Y-111522538D01*
X153646209Y-111408320D01*
X153529878Y-111127472D01*
X153331047Y-111044479D01*
X152615526Y-111760000D01*
X152184474Y-111760000D01*
X152170332Y-111745858D01*
X152385858Y-111530332D01*
X152400000Y-111544474D01*
X153115521Y-110828953D01*
X153032528Y-110630122D01*
X152551994Y-110474071D01*
X152048320Y-110513791D01*
X151767472Y-110630122D01*
X151684480Y-110828951D01*
X151593553Y-110738024D01*
X151511000Y-110820577D01*
X151511000Y-110019288D01*
X151723767Y-110232055D01*
X152162538Y-110413800D01*
X152637462Y-110413800D01*
X153076233Y-110232055D01*
X153412055Y-109896233D01*
X153593800Y-109457462D01*
X153593800Y-108982538D01*
X153746200Y-108982538D01*
X153746200Y-109457462D01*
X153927945Y-109896233D01*
X154263767Y-110232055D01*
X154702538Y-110413800D01*
X155177462Y-110413800D01*
X155616233Y-110232055D01*
X155952055Y-109896233D01*
X156133800Y-109457462D01*
X156133800Y-108982538D01*
X156286200Y-108982538D01*
X156286200Y-109457462D01*
X156467945Y-109896233D01*
X156803767Y-110232055D01*
X157242538Y-110413800D01*
X157717462Y-110413800D01*
X158156233Y-110232055D01*
X158492055Y-109896233D01*
X158673800Y-109457462D01*
X158673800Y-108982538D01*
X158492055Y-108543767D01*
X158156233Y-108207945D01*
X157717462Y-108026200D01*
X157242538Y-108026200D01*
X156803767Y-108207945D01*
X156467945Y-108543767D01*
X156286200Y-108982538D01*
X156133800Y-108982538D01*
X155952055Y-108543767D01*
X155616233Y-108207945D01*
X155177462Y-108026200D01*
X154702538Y-108026200D01*
X154263767Y-108207945D01*
X153927945Y-108543767D01*
X153746200Y-108982538D01*
X153593800Y-108982538D01*
X153412055Y-108543767D01*
X153076233Y-108207945D01*
X152692176Y-108048863D01*
X152738829Y-107979042D01*
X152768304Y-107830862D01*
X152768304Y-107830859D01*
X152778255Y-107780831D01*
X152768304Y-107730803D01*
X152768304Y-107301531D01*
X152778255Y-107251503D01*
X152768304Y-107201473D01*
X152768304Y-107201472D01*
X152738829Y-107053292D01*
X152683408Y-106970349D01*
X152819000Y-106997320D01*
X153016586Y-106958017D01*
X153019000Y-106956404D01*
X153021413Y-106958017D01*
X153219000Y-106997320D01*
X153416586Y-106958017D01*
X153419000Y-106956404D01*
X153421413Y-106958017D01*
X153619000Y-106997320D01*
X153816586Y-106958017D01*
X153819000Y-106956404D01*
X153821413Y-106958017D01*
X154019000Y-106997320D01*
X154167077Y-106967865D01*
X154114500Y-107094797D01*
X154114500Y-107382783D01*
X154224707Y-107648846D01*
X154428344Y-107852483D01*
X154694407Y-107962690D01*
X154982393Y-107962690D01*
X155248456Y-107852483D01*
X155452093Y-107648846D01*
X155562300Y-107382783D01*
X155562300Y-107094797D01*
X155486339Y-106911410D01*
X155584093Y-106846093D01*
X155696017Y-106678587D01*
X155725400Y-106530871D01*
X155725400Y-105687400D01*
X156060924Y-105687400D01*
X156068968Y-105689000D01*
X157370780Y-105689000D01*
X157937200Y-106255420D01*
X157937201Y-107112568D01*
X157927249Y-107162600D01*
X157966675Y-107360811D01*
X158050612Y-107486432D01*
X158050615Y-107486435D01*
X158078954Y-107528847D01*
X158121366Y-107557186D01*
X158863414Y-108299235D01*
X158891753Y-108341647D01*
X158934165Y-108369986D01*
X158934167Y-108369988D01*
X159005810Y-108417858D01*
X159059788Y-108453925D01*
X159091483Y-108460229D01*
X159007945Y-108543767D01*
X158826200Y-108982538D01*
X158826200Y-109457462D01*
X159007945Y-109896233D01*
X159343767Y-110232055D01*
X159782538Y-110413800D01*
X160257462Y-110413800D01*
X160696233Y-110232055D01*
X161032055Y-109896233D01*
X161213800Y-109457462D01*
X161213800Y-108982538D01*
X161366200Y-108982538D01*
X161366200Y-109457462D01*
X161547945Y-109896233D01*
X161883767Y-110232055D01*
X162322538Y-110413800D01*
X162797462Y-110413800D01*
X163236233Y-110232055D01*
X163572055Y-109896233D01*
X163753800Y-109457462D01*
X163753800Y-108982538D01*
X163572055Y-108543767D01*
X163236233Y-108207945D01*
X162797462Y-108026200D01*
X162322538Y-108026200D01*
X161883767Y-108207945D01*
X161547945Y-108543767D01*
X161366200Y-108982538D01*
X161213800Y-108982538D01*
X161032055Y-108543767D01*
X160926912Y-108438624D01*
X161072047Y-108341647D01*
X161100388Y-108299232D01*
X161639233Y-107760387D01*
X161681647Y-107732047D01*
X161778624Y-107586912D01*
X161883767Y-107692055D01*
X162322538Y-107873800D01*
X162797462Y-107873800D01*
X163236233Y-107692055D01*
X163572055Y-107356233D01*
X163753800Y-106917462D01*
X163753800Y-106442538D01*
X163572055Y-106003767D01*
X163436390Y-105868102D01*
X163535847Y-105801647D01*
X163564188Y-105759232D01*
X164840521Y-104482900D01*
X164989993Y-104482900D01*
X165256056Y-104372693D01*
X165459693Y-104169056D01*
X165569900Y-103902993D01*
X165569900Y-103615007D01*
X165459693Y-103348944D01*
X165256056Y-103145307D01*
X164989993Y-103035100D01*
X164702007Y-103035100D01*
X164435944Y-103145307D01*
X164232307Y-103348944D01*
X164122100Y-103615007D01*
X164122100Y-103764479D01*
X163753800Y-104132779D01*
X163753800Y-103902538D01*
X163572055Y-103463767D01*
X163460888Y-103352600D01*
X163654316Y-103352600D01*
X163704344Y-103362551D01*
X163754372Y-103352600D01*
X163754376Y-103352600D01*
X163902556Y-103323125D01*
X164070591Y-103210847D01*
X164098932Y-103168432D01*
X164145079Y-103122285D01*
X164294552Y-103122285D01*
X164560615Y-103012078D01*
X164764252Y-102808441D01*
X164874459Y-102542378D01*
X164874459Y-102254392D01*
X164764252Y-101988329D01*
X164560615Y-101784692D01*
X164294552Y-101674485D01*
X164006566Y-101674485D01*
X163753800Y-101779184D01*
X163753800Y-101362538D01*
X163572055Y-100923767D01*
X163486288Y-100838000D01*
X164134876Y-100838000D01*
X164312599Y-100873351D01*
X164312600Y-100873351D01*
X164510811Y-100833925D01*
X164636432Y-100749988D01*
X164636433Y-100749987D01*
X164678847Y-100721647D01*
X164707187Y-100679233D01*
X165373035Y-100013386D01*
X165415447Y-99985047D01*
X165443786Y-99942635D01*
X165443788Y-99942633D01*
X165527725Y-99817012D01*
X165534532Y-99782789D01*
X165557200Y-99668832D01*
X165557200Y-99668828D01*
X165567151Y-99618800D01*
X165557200Y-99568772D01*
X165557200Y-93555420D01*
X166903400Y-92209221D01*
X166903400Y-114198400D01*
X139801600Y-114198400D01*
X139801600Y-93742538D01*
X141046200Y-93742538D01*
X141046200Y-94217462D01*
X141227945Y-94656233D01*
X141563767Y-94992055D01*
X142002538Y-95173800D01*
X142477462Y-95173800D01*
X142916233Y-94992055D01*
X143252055Y-94656233D01*
X143433800Y-94217462D01*
X143433800Y-93742538D01*
X143252055Y-93303767D01*
X142916233Y-92967945D01*
X142477462Y-92786200D01*
X142002538Y-92786200D01*
X141563767Y-92967945D01*
X141227945Y-93303767D01*
X141046200Y-93742538D01*
X139801600Y-93742538D01*
X139801600Y-91202538D01*
X143586200Y-91202538D01*
X143586200Y-91677462D01*
X143767945Y-92116233D01*
X144103767Y-92452055D01*
X144542538Y-92633800D01*
X145017462Y-92633800D01*
X145456233Y-92452055D01*
X145792055Y-92116233D01*
X145973800Y-91677462D01*
X145973800Y-91202538D01*
X145792055Y-90763767D01*
X145456233Y-90427945D01*
X145017462Y-90246200D01*
X144542538Y-90246200D01*
X144103767Y-90427945D01*
X143767945Y-90763767D01*
X143586200Y-91202538D01*
X139801600Y-91202538D01*
X139801600Y-86721950D01*
X150705820Y-86721950D01*
X150705820Y-87643445D01*
X150779292Y-87820821D01*
X150915049Y-87956579D01*
X151092425Y-88030050D01*
X151192230Y-88030050D01*
X151312880Y-87909400D01*
X151312880Y-86721950D01*
X151505920Y-86721950D01*
X151505920Y-87643445D01*
X151561800Y-87778350D01*
X151561800Y-87909400D01*
X151682450Y-88030050D01*
X151782255Y-88030050D01*
X151837390Y-88007213D01*
X151892525Y-88030050D01*
X151992330Y-88030050D01*
X152112980Y-87909400D01*
X152112980Y-87778350D01*
X152168860Y-87643445D01*
X152168860Y-86721950D01*
X152112980Y-86666070D01*
X152112980Y-86601300D01*
X151561800Y-86601300D01*
X151561800Y-86666070D01*
X151505920Y-86721950D01*
X151312880Y-86721950D01*
X151312880Y-86601300D01*
X150826470Y-86601300D01*
X150705820Y-86721950D01*
X139801600Y-86721950D01*
X139801600Y-85254355D01*
X150705820Y-85254355D01*
X150705820Y-86175850D01*
X150826470Y-86296500D01*
X151312880Y-86296500D01*
X151312880Y-85254355D01*
X151505920Y-85254355D01*
X151505920Y-86175850D01*
X151561800Y-86231730D01*
X151561800Y-86296500D01*
X152112980Y-86296500D01*
X152112980Y-86231730D01*
X152168860Y-86175850D01*
X152168860Y-85254355D01*
X152112980Y-85119450D01*
X152112980Y-84988400D01*
X151992330Y-84867750D01*
X151892525Y-84867750D01*
X151837390Y-84890587D01*
X151782255Y-84867750D01*
X151682450Y-84867750D01*
X151561800Y-84988400D01*
X151561800Y-85119450D01*
X151505920Y-85254355D01*
X151312880Y-85254355D01*
X151312880Y-84988400D01*
X151192230Y-84867750D01*
X151092425Y-84867750D01*
X150915049Y-84941221D01*
X150779292Y-85076979D01*
X150705820Y-85254355D01*
X139801600Y-85254355D01*
X139801600Y-83751335D01*
X149979380Y-83751335D01*
X149979380Y-84091865D01*
X150109695Y-84406474D01*
X150350486Y-84647265D01*
X150665095Y-84777580D01*
X151005625Y-84777580D01*
X151320234Y-84647265D01*
X151561025Y-84406474D01*
X151691340Y-84091865D01*
X151691340Y-83751335D01*
X151561025Y-83436726D01*
X151320234Y-83195935D01*
X151005625Y-83065620D01*
X150665095Y-83065620D01*
X150350486Y-83195935D01*
X150109695Y-83436726D01*
X149979380Y-83751335D01*
X139801600Y-83751335D01*
X139801600Y-78206600D01*
X166903400Y-78206600D01*
X166903400Y-86599159D01*
G36*
X150089669Y-111745858D02*
G01*
X150075526Y-111760000D01*
X150089669Y-111774143D01*
X149874143Y-111989669D01*
X149860000Y-111975526D01*
X149845858Y-111989669D01*
X149630332Y-111774143D01*
X149644474Y-111760000D01*
X149630332Y-111745858D01*
X149845858Y-111530332D01*
X149860000Y-111544474D01*
X149874143Y-111530332D01*
X150089669Y-111745858D01*
X150089669Y-111745858D01*
G37*
X150089669Y-111745858D02*
X150075526Y-111760000D01*
X150089669Y-111774143D01*
X149874143Y-111989669D01*
X149860000Y-111975526D01*
X149845858Y-111989669D01*
X149630332Y-111774143D01*
X149644474Y-111760000D01*
X149630332Y-111745858D01*
X149845858Y-111530332D01*
X149860000Y-111544474D01*
X149874143Y-111530332D01*
X150089669Y-111745858D01*
M02*
