G04 #@! TF.GenerationSoftware,KiCad,Pcbnew,(6.0.0-rc1-dev-1386-g1c99784e9)*
G04 #@! TF.CreationDate,2018-12-20T11:02:25-05:00
G04 #@! TF.ProjectId,TLAUX_Adapter_PSOC5,544c4155-585f-4416-9461-707465725f50,rev?*
G04 #@! TF.SameCoordinates,Original*
G04 #@! TF.FileFunction,Legend,Bot*
G04 #@! TF.FilePolarity,Positive*
%FSLAX46Y46*%
G04 Gerber Fmt 4.6, Leading zero omitted, Abs format (unit mm)*
G04 Created by KiCad (PCBNEW (6.0.0-rc1-dev-1386-g1c99784e9)) date 12/20/2018 11:02:25 AM*
%MOMM*%
%LPD*%
G04 APERTURE LIST*
%ADD10C,0.127000*%
%ADD11C,0.130048*%
%ADD12C,0.100000*%
G04 APERTURE END LIST*
D10*
X147840700Y-106337100D02*
X150253700Y-106337100D01*
X150253700Y-106337100D02*
X150253700Y-105194100D01*
X150253700Y-105194100D02*
X147840700Y-105194100D01*
X147840700Y-105194100D02*
X147840700Y-106337100D01*
X148996400Y-98374200D02*
X148996400Y-97612200D01*
X148996400Y-97612200D02*
X150774400Y-97612200D01*
X150774400Y-97612200D02*
X150774400Y-98374200D01*
X150774400Y-98374200D02*
X148996400Y-98374200D01*
X149310000Y-99441000D02*
X147532000Y-99441000D01*
X149310000Y-98679000D02*
X149310000Y-99441000D01*
X147532000Y-98679000D02*
X149310000Y-98679000D01*
X147532000Y-99441000D02*
X147532000Y-98679000D01*
X155092400Y-105664000D02*
X155092400Y-106426000D01*
X155092400Y-106426000D02*
X153314400Y-106426000D01*
X153314400Y-106426000D02*
X153314400Y-105664000D01*
X153314400Y-105664000D02*
X155092400Y-105664000D01*
X155702000Y-100499000D02*
X155702000Y-98721000D01*
X156464000Y-100499000D02*
X155702000Y-100499000D01*
X156464000Y-98721000D02*
X156464000Y-100499000D01*
X155702000Y-98721000D02*
X156464000Y-98721000D01*
X147405000Y-102870000D02*
X147405000Y-102108000D01*
X147405000Y-102108000D02*
X149183000Y-102108000D01*
X149183000Y-102108000D02*
X149183000Y-102870000D01*
X149183000Y-102870000D02*
X147405000Y-102870000D01*
X152717500Y-86487000D02*
X152717500Y-89027000D01*
X152717500Y-89027000D02*
X153860500Y-89027000D01*
X153860500Y-89027000D02*
X153860500Y-86487000D01*
X153860500Y-86487000D02*
X152717500Y-86487000D01*
X155511500Y-86487000D02*
X154368500Y-86487000D01*
X155511500Y-89027000D02*
X155511500Y-86487000D01*
X154368500Y-89027000D02*
X155511500Y-89027000D01*
X154368500Y-86487000D02*
X154368500Y-89027000D01*
X151281700Y-97650300D02*
X151281700Y-98793300D01*
X153694700Y-97650300D02*
X151281700Y-97650300D01*
X153694700Y-98793300D02*
X153694700Y-97650300D01*
X151281700Y-98793300D02*
X153694700Y-98793300D01*
X150634700Y-106591100D02*
X153047700Y-106591100D01*
X153047700Y-106591100D02*
X153047700Y-105448100D01*
X153047700Y-105448100D02*
X150634700Y-105448100D01*
X150634700Y-105448100D02*
X150634700Y-106591100D01*
X162915600Y-79806800D02*
X159816800Y-79806800D01*
X159816800Y-79806800D02*
X159816800Y-81483200D01*
X159816800Y-81483200D02*
X162915600Y-81483200D01*
X162915600Y-81483200D02*
X162915600Y-79806800D01*
X147405000Y-101473000D02*
X147405000Y-100711000D01*
X147405000Y-100711000D02*
X149183000Y-100711000D01*
X149183000Y-100711000D02*
X149183000Y-101473000D01*
X149183000Y-101473000D02*
X147405000Y-101473000D01*
X149038033Y-104722385D02*
X149068271Y-104752623D01*
X149158985Y-104782861D01*
X149219461Y-104782861D01*
X149310176Y-104752623D01*
X149370652Y-104692147D01*
X149400890Y-104631671D01*
X149431128Y-104510719D01*
X149431128Y-104420004D01*
X149400890Y-104299052D01*
X149370652Y-104238576D01*
X149310176Y-104178100D01*
X149219461Y-104147861D01*
X149158985Y-104147861D01*
X149068271Y-104178100D01*
X149038033Y-104208338D01*
X148433271Y-104782861D02*
X148796128Y-104782861D01*
X148614700Y-104782861D02*
X148614700Y-104147861D01*
X148675176Y-104238576D01*
X148735652Y-104299052D01*
X148796128Y-104329290D01*
D11*
X148207306Y-98242664D02*
X148235851Y-98275926D01*
X148321485Y-98309188D01*
X148378575Y-98309188D01*
X148464209Y-98275926D01*
X148521299Y-98209402D01*
X148549843Y-98142878D01*
X148578388Y-98009830D01*
X148578388Y-97910045D01*
X148549843Y-97776997D01*
X148521299Y-97710473D01*
X148464209Y-97643950D01*
X148378575Y-97610688D01*
X148321485Y-97610688D01*
X148235851Y-97643950D01*
X148207306Y-97677211D01*
X147978948Y-97677211D02*
X147950403Y-97643950D01*
X147893314Y-97610688D01*
X147750590Y-97610688D01*
X147693500Y-97643950D01*
X147664956Y-97677211D01*
X147636411Y-97743735D01*
X147636411Y-97810259D01*
X147664956Y-97910045D01*
X148007493Y-98309188D01*
X147636411Y-98309188D01*
X150213906Y-99309464D02*
X150242451Y-99342726D01*
X150328085Y-99375988D01*
X150385175Y-99375988D01*
X150470809Y-99342726D01*
X150527899Y-99276202D01*
X150556443Y-99209678D01*
X150584988Y-99076630D01*
X150584988Y-98976845D01*
X150556443Y-98843797D01*
X150527899Y-98777273D01*
X150470809Y-98710750D01*
X150385175Y-98677488D01*
X150328085Y-98677488D01*
X150242451Y-98710750D01*
X150213906Y-98744011D01*
X150014093Y-98677488D02*
X149643011Y-98677488D01*
X149842824Y-98943583D01*
X149757190Y-98943583D01*
X149700100Y-98976845D01*
X149671556Y-99010107D01*
X149643011Y-99076630D01*
X149643011Y-99242940D01*
X149671556Y-99309464D01*
X149700100Y-99342726D01*
X149757190Y-99375988D01*
X149928459Y-99375988D01*
X149985548Y-99342726D01*
X150014093Y-99309464D01*
X154345306Y-105151464D02*
X154373851Y-105184726D01*
X154459485Y-105217988D01*
X154516575Y-105217988D01*
X154602209Y-105184726D01*
X154659299Y-105118202D01*
X154687843Y-105051678D01*
X154716388Y-104918630D01*
X154716388Y-104818845D01*
X154687843Y-104685797D01*
X154659299Y-104619273D01*
X154602209Y-104552750D01*
X154516575Y-104519488D01*
X154459485Y-104519488D01*
X154373851Y-104552750D01*
X154345306Y-104586011D01*
X153831500Y-104752321D02*
X153831500Y-105217988D01*
X153974224Y-104486226D02*
X154116948Y-104985154D01*
X153745866Y-104985154D01*
X154785906Y-99690464D02*
X154814451Y-99723726D01*
X154900085Y-99756988D01*
X154957175Y-99756988D01*
X155042809Y-99723726D01*
X155099899Y-99657202D01*
X155128443Y-99590678D01*
X155156988Y-99457630D01*
X155156988Y-99357845D01*
X155128443Y-99224797D01*
X155099899Y-99158273D01*
X155042809Y-99091750D01*
X154957175Y-99058488D01*
X154900085Y-99058488D01*
X154814451Y-99091750D01*
X154785906Y-99125011D01*
X154243556Y-99058488D02*
X154529003Y-99058488D01*
X154557548Y-99391107D01*
X154529003Y-99357845D01*
X154471914Y-99324583D01*
X154329190Y-99324583D01*
X154272100Y-99357845D01*
X154243556Y-99391107D01*
X154215011Y-99457630D01*
X154215011Y-99623940D01*
X154243556Y-99690464D01*
X154272100Y-99723726D01*
X154329190Y-99756988D01*
X154471914Y-99756988D01*
X154529003Y-99723726D01*
X154557548Y-99690464D01*
X150086906Y-102738464D02*
X150115451Y-102771726D01*
X150201085Y-102804988D01*
X150258175Y-102804988D01*
X150343809Y-102771726D01*
X150400899Y-102705202D01*
X150429443Y-102638678D01*
X150457988Y-102505630D01*
X150457988Y-102405845D01*
X150429443Y-102272797D01*
X150400899Y-102206273D01*
X150343809Y-102139750D01*
X150258175Y-102106488D01*
X150201085Y-102106488D01*
X150115451Y-102139750D01*
X150086906Y-102173011D01*
X149573100Y-102106488D02*
X149687280Y-102106488D01*
X149744369Y-102139750D01*
X149772914Y-102173011D01*
X149830003Y-102272797D01*
X149858548Y-102405845D01*
X149858548Y-102671940D01*
X149830003Y-102738464D01*
X149801459Y-102771726D01*
X149744369Y-102804988D01*
X149630190Y-102804988D01*
X149573100Y-102771726D01*
X149544556Y-102738464D01*
X149516011Y-102671940D01*
X149516011Y-102505630D01*
X149544556Y-102439107D01*
X149573100Y-102405845D01*
X149630190Y-102372583D01*
X149744369Y-102372583D01*
X149801459Y-102405845D01*
X149830003Y-102439107D01*
X149858548Y-102505630D01*
D12*
X151848333Y-87901428D02*
X152015000Y-87615714D01*
X152134047Y-87901428D02*
X152134047Y-87301428D01*
X151943571Y-87301428D01*
X151895952Y-87330000D01*
X151872142Y-87358571D01*
X151848333Y-87415714D01*
X151848333Y-87501428D01*
X151872142Y-87558571D01*
X151895952Y-87587142D01*
X151943571Y-87615714D01*
X152134047Y-87615714D01*
X151372142Y-87901428D02*
X151657857Y-87901428D01*
X151515000Y-87901428D02*
X151515000Y-87301428D01*
X151562619Y-87387142D01*
X151610238Y-87444285D01*
X151657857Y-87472857D01*
X156547333Y-88028428D02*
X156714000Y-87742714D01*
X156833047Y-88028428D02*
X156833047Y-87428428D01*
X156642571Y-87428428D01*
X156594952Y-87457000D01*
X156571142Y-87485571D01*
X156547333Y-87542714D01*
X156547333Y-87628428D01*
X156571142Y-87685571D01*
X156594952Y-87714142D01*
X156642571Y-87742714D01*
X156833047Y-87742714D01*
X156356857Y-87485571D02*
X156333047Y-87457000D01*
X156285428Y-87428428D01*
X156166380Y-87428428D01*
X156118761Y-87457000D01*
X156094952Y-87485571D01*
X156071142Y-87542714D01*
X156071142Y-87599857D01*
X156094952Y-87685571D01*
X156380666Y-88028428D01*
X156071142Y-88028428D01*
D10*
X152594033Y-99566185D02*
X152624271Y-99596423D01*
X152714985Y-99626661D01*
X152775461Y-99626661D01*
X152866176Y-99596423D01*
X152926652Y-99535947D01*
X152956890Y-99475471D01*
X152987128Y-99354519D01*
X152987128Y-99263804D01*
X152956890Y-99142852D01*
X152926652Y-99082376D01*
X152866176Y-99021900D01*
X152775461Y-98991661D01*
X152714985Y-98991661D01*
X152624271Y-99021900D01*
X152594033Y-99052138D01*
X152382366Y-98991661D02*
X151959033Y-98991661D01*
X152231176Y-99626661D01*
X151947033Y-107363985D02*
X151977271Y-107394223D01*
X152067985Y-107424461D01*
X152128461Y-107424461D01*
X152219176Y-107394223D01*
X152279652Y-107333747D01*
X152309890Y-107273271D01*
X152340128Y-107152319D01*
X152340128Y-107061604D01*
X152309890Y-106940652D01*
X152279652Y-106880176D01*
X152219176Y-106819700D01*
X152128461Y-106789461D01*
X152067985Y-106789461D01*
X151977271Y-106819700D01*
X151947033Y-106849938D01*
X151584176Y-107061604D02*
X151644652Y-107031366D01*
X151674890Y-107001128D01*
X151705128Y-106940652D01*
X151705128Y-106910414D01*
X151674890Y-106849938D01*
X151644652Y-106819700D01*
X151584176Y-106789461D01*
X151463223Y-106789461D01*
X151402747Y-106819700D01*
X151372509Y-106849938D01*
X151342271Y-106910414D01*
X151342271Y-106940652D01*
X151372509Y-107001128D01*
X151402747Y-107031366D01*
X151463223Y-107061604D01*
X151584176Y-107061604D01*
X151644652Y-107091842D01*
X151674890Y-107122080D01*
X151705128Y-107182557D01*
X151705128Y-107303509D01*
X151674890Y-107363985D01*
X151644652Y-107394223D01*
X151584176Y-107424461D01*
X151463223Y-107424461D01*
X151402747Y-107394223D01*
X151372509Y-107363985D01*
X151342271Y-107303509D01*
X151342271Y-107182557D01*
X151372509Y-107122080D01*
X151402747Y-107091842D01*
X151463223Y-107061604D01*
D11*
X161466106Y-79498008D02*
X161494651Y-79531343D01*
X161580285Y-79564677D01*
X161637375Y-79564677D01*
X161723009Y-79531343D01*
X161780099Y-79464674D01*
X161808643Y-79398005D01*
X161837188Y-79264667D01*
X161837188Y-79164663D01*
X161808643Y-79031325D01*
X161780099Y-78964656D01*
X161723009Y-78897988D01*
X161637375Y-78864653D01*
X161580285Y-78864653D01*
X161494651Y-78897988D01*
X161466106Y-78931322D01*
X161180659Y-79564677D02*
X161066480Y-79564677D01*
X161009390Y-79531343D01*
X160980845Y-79498008D01*
X160923756Y-79398005D01*
X160895211Y-79264667D01*
X160895211Y-78997991D01*
X160923756Y-78931322D01*
X160952300Y-78897988D01*
X161009390Y-78864653D01*
X161123569Y-78864653D01*
X161180659Y-78897988D01*
X161209203Y-78931322D01*
X161237748Y-78997991D01*
X161237748Y-79164663D01*
X161209203Y-79231332D01*
X161180659Y-79264667D01*
X161123569Y-79298001D01*
X161009390Y-79298001D01*
X160952300Y-79264667D01*
X160923756Y-79231332D01*
X160895211Y-79164663D01*
X150626354Y-101341464D02*
X150654899Y-101374726D01*
X150740533Y-101407988D01*
X150797622Y-101407988D01*
X150883257Y-101374726D01*
X150940346Y-101308202D01*
X150968891Y-101241678D01*
X150997436Y-101108630D01*
X150997436Y-101008845D01*
X150968891Y-100875797D01*
X150940346Y-100809273D01*
X150883257Y-100742750D01*
X150797622Y-100709488D01*
X150740533Y-100709488D01*
X150654899Y-100742750D01*
X150626354Y-100776011D01*
X150055459Y-101407988D02*
X150397996Y-101407988D01*
X150226727Y-101407988D02*
X150226727Y-100709488D01*
X150283817Y-100809273D01*
X150340906Y-100875797D01*
X150397996Y-100909059D01*
X149684377Y-100709488D02*
X149627287Y-100709488D01*
X149570198Y-100742750D01*
X149541653Y-100776011D01*
X149513108Y-100842535D01*
X149484563Y-100975583D01*
X149484563Y-101141892D01*
X149513108Y-101274940D01*
X149541653Y-101341464D01*
X149570198Y-101374726D01*
X149627287Y-101407988D01*
X149684377Y-101407988D01*
X149741466Y-101374726D01*
X149770011Y-101341464D01*
X149798556Y-101274940D01*
X149827100Y-101141892D01*
X149827100Y-100975583D01*
X149798556Y-100842535D01*
X149770011Y-100776011D01*
X149741466Y-100742750D01*
X149684377Y-100709488D01*
M02*
