M48
; DRILL file {KiCad (6.0.0-rc1-dev-1670-gc0cd4c03f)} date 2/3/2019 4:27:12 PM
; FORMAT={-:-/ absolute / inch / decimal}
; #@! TF.CreationDate,2019-02-03T16:27:12-05:00
; #@! TF.GenerationSoftware,Kicad,Pcbnew,(6.0.0-rc1-dev-1670-gc0cd4c03f)
FMAT,2
INCH
T1C0.0160
T2C0.0394
T3C0.0450
T4C0.0591
T5C0.0600
T6C0.0680
T7C0.1250
%
G90
G05
T1
X5.58Y-3.095
X5.68Y-3.095
X5.78Y-3.095
X5.88Y-3.095
X6.18Y-3.26
X6.375Y-3.2
X6.47Y-3.015
X6.555Y-3.765
X6.57Y-3.015
X6.67Y-3.015
X6.77Y-3.015
X6.85Y-4.345
X6.875Y-4.79
X6.885Y-4.49
X7.0863Y-3.4375
X7.14Y-4.485
X7.205Y-3.975
X7.21Y-3.55
X7.225Y-3.76
X7.3Y-4.6
X7.305Y-4.175
T2
X7.625Y-2.8
X7.625Y-2.9
X7.625Y-3.0
X7.625Y-3.1
X7.625Y-3.2
X7.625Y-3.3
X7.625Y-3.4
X7.625Y-3.5
X7.625Y-3.6
X7.625Y-3.7
X7.625Y-3.8
X7.625Y-3.9
X7.625Y-4.0
X7.725Y-2.8
X7.725Y-2.9
X7.725Y-3.0
X7.725Y-3.1
X7.725Y-3.2
X7.725Y-3.3
X7.725Y-3.4
X7.725Y-3.5
X7.725Y-3.6
X7.725Y-3.7
X7.725Y-3.8
X7.725Y-3.9
X7.725Y-4.0
T3
X4.55Y-3.175
X4.55Y-3.275
X4.55Y-3.675
X4.55Y-3.875
X5.855Y-3.61
X5.855Y-3.71
X5.855Y-4.11
X5.855Y-4.31
X5.025Y-3.175
X5.025Y-3.275
X5.025Y-3.675
X5.025Y-3.875
X3.6Y-3.175
X3.6Y-3.275
X3.6Y-3.675
X3.6Y-3.875
X6.08Y-3.61
X6.08Y-3.71
X6.08Y-4.11
X6.08Y-4.31
X4.075Y-3.175
X4.075Y-3.275
X4.075Y-3.675
X4.075Y-3.875
X6.305Y-3.61
X6.305Y-3.71
X6.305Y-4.11
X6.305Y-4.31
X5.63Y-3.61
X5.63Y-3.71
X5.63Y-4.11
X5.63Y-4.31
T4
X6.7Y-2.375
X6.9Y-2.375
X7.1Y-2.375
X7.3Y-2.375
X5.1Y-5.225
X5.3Y-5.225
X5.5Y-5.225
X5.7Y-5.225
X5.9Y-5.225
X6.1Y-5.225
X6.3Y-5.225
X6.5Y-5.225
X5.9Y-2.375
X6.1Y-2.375
X6.3Y-2.375
X6.5Y-2.375
X3.5Y-5.225
X3.7Y-5.225
X3.9Y-5.225
X4.1Y-5.225
X5.1Y-2.375
X5.3Y-2.375
X5.5Y-2.375
X5.7Y-2.375
X4.3Y-2.375
X4.5Y-2.375
X4.7Y-2.375
X4.9Y-2.375
X3.245Y-3.665
X3.245Y-3.865
X3.245Y-4.065
X3.245Y-4.265
X4.3Y-5.225
X4.5Y-5.225
X4.7Y-5.225
X4.9Y-5.225
X7.575Y-4.425
X7.575Y-4.625
X7.575Y-4.825
X7.575Y-5.025
T5
X5.2Y-2.95
X5.2Y-3.15
X5.2Y-3.64
X5.2Y-4.04
X3.775Y-2.95
X3.775Y-3.15
X3.775Y-3.64
X3.775Y-4.04
X4.25Y-2.95
X4.25Y-3.15
X4.25Y-3.64
X4.25Y-4.04
X4.725Y-2.95
X4.725Y-3.15
X4.725Y-3.64
X4.725Y-4.04
T6
X5.858Y-4.555
X5.858Y-4.945
X5.992Y-4.555
X5.992Y-4.945
X4.793Y-4.555
X4.793Y-4.945
X4.927Y-4.555
X4.927Y-4.945
X3.743Y-4.545
X3.743Y-4.935
X3.877Y-4.545
X3.877Y-4.935
X6.208Y-4.555
X6.208Y-4.945
X6.342Y-4.555
X6.342Y-4.945
X5.158Y-4.555
X5.158Y-4.945
X5.292Y-4.555
X5.292Y-4.945
X4.093Y-4.55
X4.093Y-4.94
X4.227Y-4.55
X4.227Y-4.94
X3.058Y-2.975
X3.058Y-3.365
X3.192Y-2.975
X3.192Y-3.365
X3.07Y-4.873
X3.07Y-5.007
X3.46Y-4.873
X3.46Y-5.007
X5.508Y-4.555
X5.508Y-4.945
X5.642Y-4.555
X5.642Y-4.945
X4.443Y-4.555
X4.443Y-4.945
X4.577Y-4.555
X4.577Y-4.945
X3.075Y-4.518
X3.075Y-4.652
X3.465Y-4.518
X3.465Y-4.652
T7
X7.7Y-5.35
X3.1Y-5.35
X7.7Y-2.25
X3.1Y-2.25
T0
M30
