G04 #@! TF.GenerationSoftware,KiCad,Pcbnew,(6.0.0-rc1-dev-1670-gc0cd4c03f)*
G04 #@! TF.CreationDate,2019-02-03T16:26:57-05:00
G04 #@! TF.ProjectId,AC_ISO_Board,41435f49-534f-45f4-926f-6172642e6b69,rev?*
G04 #@! TF.SameCoordinates,Original*
G04 #@! TF.FileFunction,Copper,L1,Top*
G04 #@! TF.FilePolarity,Positive*
%FSLAX46Y46*%
G04 Gerber Fmt 4.6, Leading zero omitted, Abs format (unit mm)*
G04 Created by KiCad (PCBNEW (6.0.0-rc1-dev-1670-gc0cd4c03f)) date 2019-02-03 16:26:57*
%MOMM*%
%LPD*%
G04 APERTURE LIST*
%ADD10C,0.100000*%
%ADD11C,1.778000*%
%ADD12R,2.499360X1.950720*%
%ADD13R,1.000000X1.500000*%
%ADD14R,0.900000X0.700000*%
%ADD15C,2.540000*%
%ADD16C,2.800000*%
%ADD17O,2.000000X1.500000*%
%ADD18R,2.000000X1.500000*%
%ADD19R,1.000760X0.599440*%
%ADD20C,0.710000*%
%ADD21R,0.700000X0.900000*%
%ADD22R,0.950000X2.150000*%
%ADD23R,3.250000X2.150000*%
%ADD24R,0.600000X1.500000*%
%ADD25C,0.812800*%
%ADD26C,0.635000*%
%ADD27C,1.905000*%
%ADD28C,0.889000*%
%ADD29C,0.254000*%
%ADD30C,0.304800*%
%ADD31C,1.143000*%
G04 APERTURE END LIST*
D10*
G36*
X160715255Y-90806712D02*
G01*
X160749774Y-90811833D01*
X160783625Y-90820312D01*
X160816482Y-90832068D01*
X160848029Y-90846989D01*
X160877961Y-90864929D01*
X160905990Y-90885717D01*
X160931847Y-90909153D01*
X160955283Y-90935010D01*
X160976071Y-90963039D01*
X160994011Y-90992971D01*
X161008932Y-91024518D01*
X161020688Y-91057375D01*
X161029167Y-91091226D01*
X161034288Y-91125745D01*
X161036000Y-91160600D01*
X161036000Y-92227400D01*
X161034288Y-92262255D01*
X161029167Y-92296774D01*
X161020688Y-92330625D01*
X161008932Y-92363482D01*
X160994011Y-92395029D01*
X160976071Y-92424961D01*
X160955283Y-92452990D01*
X160931847Y-92478847D01*
X160905990Y-92502283D01*
X160877961Y-92523071D01*
X160848029Y-92541011D01*
X160816482Y-92555932D01*
X160783625Y-92567688D01*
X160749774Y-92576167D01*
X160715255Y-92581288D01*
X160680400Y-92583000D01*
X159613600Y-92583000D01*
X159578745Y-92581288D01*
X159544226Y-92576167D01*
X159510375Y-92567688D01*
X159477518Y-92555932D01*
X159445971Y-92541011D01*
X159416039Y-92523071D01*
X159388010Y-92502283D01*
X159362153Y-92478847D01*
X159338717Y-92452990D01*
X159317929Y-92424961D01*
X159299989Y-92395029D01*
X159285068Y-92363482D01*
X159273312Y-92330625D01*
X159264833Y-92296774D01*
X159259712Y-92262255D01*
X159258000Y-92227400D01*
X159258000Y-91160600D01*
X159259712Y-91125745D01*
X159264833Y-91091226D01*
X159273312Y-91057375D01*
X159285068Y-91024518D01*
X159299989Y-90992971D01*
X159317929Y-90963039D01*
X159338717Y-90935010D01*
X159362153Y-90909153D01*
X159388010Y-90885717D01*
X159416039Y-90864929D01*
X159445971Y-90846989D01*
X159477518Y-90832068D01*
X159510375Y-90820312D01*
X159544226Y-90811833D01*
X159578745Y-90806712D01*
X159613600Y-90805000D01*
X160680400Y-90805000D01*
X160715255Y-90806712D01*
X160715255Y-90806712D01*
G37*
D11*
X160147000Y-91694000D03*
X160147000Y-94234000D03*
X160147000Y-104394000D03*
X160147000Y-109474000D03*
D12*
X185420000Y-112115600D03*
X185420000Y-115214400D03*
D13*
X174056000Y-111760000D03*
X175956000Y-111760000D03*
D14*
X173609000Y-114058000D03*
X173609000Y-115558000D03*
D12*
X172339000Y-121691400D03*
X172339000Y-118592600D03*
D15*
X161086800Y-115697000D03*
X157683200Y-115697000D03*
X161086800Y-125603000D03*
X157683200Y-125603000D03*
X148793200Y-125603000D03*
X152196800Y-125603000D03*
X148793200Y-115697000D03*
X152196800Y-115697000D03*
X143306800Y-115697000D03*
X139903200Y-115697000D03*
X143306800Y-125603000D03*
X139903200Y-125603000D03*
X131013200Y-125603000D03*
X134416800Y-125603000D03*
X131013200Y-115697000D03*
X134416800Y-115697000D03*
X125145800Y-115697000D03*
X121742200Y-115697000D03*
X125145800Y-125603000D03*
X121742200Y-125603000D03*
X116255800Y-115697000D03*
X112852200Y-115697000D03*
X116255800Y-125603000D03*
X112852200Y-125603000D03*
X103962200Y-125476000D03*
X107365800Y-125476000D03*
X103962200Y-115570000D03*
X107365800Y-115570000D03*
X95072200Y-125349000D03*
X98475800Y-125349000D03*
X95072200Y-115443000D03*
X98475800Y-115443000D03*
X78105000Y-114757200D03*
X78105000Y-118160800D03*
X88011000Y-114757200D03*
X88011000Y-118160800D03*
X87884000Y-127177800D03*
X87884000Y-123774200D03*
X77978000Y-127177800D03*
X77978000Y-123774200D03*
D13*
X178120000Y-111760000D03*
X180020000Y-111760000D03*
D16*
X149860000Y-60325000D03*
X154940000Y-60325000D03*
X160020000Y-60325000D03*
D10*
G36*
X165994890Y-58927697D02*
G01*
X166049251Y-58935760D01*
X166102559Y-58949113D01*
X166154303Y-58967627D01*
X166203982Y-58991124D01*
X166251119Y-59019377D01*
X166295260Y-59052114D01*
X166335980Y-59089020D01*
X166372886Y-59129740D01*
X166405623Y-59173881D01*
X166433876Y-59221018D01*
X166457373Y-59270697D01*
X166475887Y-59322441D01*
X166489240Y-59375749D01*
X166497303Y-59430110D01*
X166500000Y-59485000D01*
X166500000Y-61165000D01*
X166497303Y-61219890D01*
X166489240Y-61274251D01*
X166475887Y-61327559D01*
X166457373Y-61379303D01*
X166433876Y-61428982D01*
X166405623Y-61476119D01*
X166372886Y-61520260D01*
X166335980Y-61560980D01*
X166295260Y-61597886D01*
X166251119Y-61630623D01*
X166203982Y-61658876D01*
X166154303Y-61682373D01*
X166102559Y-61700887D01*
X166049251Y-61714240D01*
X165994890Y-61722303D01*
X165940000Y-61725000D01*
X164260000Y-61725000D01*
X164205110Y-61722303D01*
X164150749Y-61714240D01*
X164097441Y-61700887D01*
X164045697Y-61682373D01*
X163996018Y-61658876D01*
X163948881Y-61630623D01*
X163904740Y-61597886D01*
X163864020Y-61560980D01*
X163827114Y-61520260D01*
X163794377Y-61476119D01*
X163766124Y-61428982D01*
X163742627Y-61379303D01*
X163724113Y-61327559D01*
X163710760Y-61274251D01*
X163702697Y-61219890D01*
X163700000Y-61165000D01*
X163700000Y-59485000D01*
X163702697Y-59430110D01*
X163710760Y-59375749D01*
X163724113Y-59322441D01*
X163742627Y-59270697D01*
X163766124Y-59221018D01*
X163794377Y-59173881D01*
X163827114Y-59129740D01*
X163864020Y-59089020D01*
X163904740Y-59052114D01*
X163948881Y-59019377D01*
X163996018Y-58991124D01*
X164045697Y-58967627D01*
X164097441Y-58949113D01*
X164150749Y-58935760D01*
X164205110Y-58927697D01*
X164260000Y-58925000D01*
X165940000Y-58925000D01*
X165994890Y-58927697D01*
X165994890Y-58927697D01*
G37*
D16*
X165100000Y-60325000D03*
X82423000Y-108331000D03*
X82423000Y-103251000D03*
X82423000Y-98171000D03*
D10*
G36*
X83317890Y-91693697D02*
G01*
X83372251Y-91701760D01*
X83425559Y-91715113D01*
X83477303Y-91733627D01*
X83526982Y-91757124D01*
X83574119Y-91785377D01*
X83618260Y-91818114D01*
X83658980Y-91855020D01*
X83695886Y-91895740D01*
X83728623Y-91939881D01*
X83756876Y-91987018D01*
X83780373Y-92036697D01*
X83798887Y-92088441D01*
X83812240Y-92141749D01*
X83820303Y-92196110D01*
X83823000Y-92251000D01*
X83823000Y-93931000D01*
X83820303Y-93985890D01*
X83812240Y-94040251D01*
X83798887Y-94093559D01*
X83780373Y-94145303D01*
X83756876Y-94194982D01*
X83728623Y-94242119D01*
X83695886Y-94286260D01*
X83658980Y-94326980D01*
X83618260Y-94363886D01*
X83574119Y-94396623D01*
X83526982Y-94424876D01*
X83477303Y-94448373D01*
X83425559Y-94466887D01*
X83372251Y-94480240D01*
X83317890Y-94488303D01*
X83263000Y-94491000D01*
X81583000Y-94491000D01*
X81528110Y-94488303D01*
X81473749Y-94480240D01*
X81420441Y-94466887D01*
X81368697Y-94448373D01*
X81319018Y-94424876D01*
X81271881Y-94396623D01*
X81227740Y-94363886D01*
X81187020Y-94326980D01*
X81150114Y-94286260D01*
X81117377Y-94242119D01*
X81089124Y-94194982D01*
X81065627Y-94145303D01*
X81047113Y-94093559D01*
X81033760Y-94040251D01*
X81025697Y-93985890D01*
X81023000Y-93931000D01*
X81023000Y-92251000D01*
X81025697Y-92196110D01*
X81033760Y-92141749D01*
X81047113Y-92088441D01*
X81065627Y-92036697D01*
X81089124Y-91987018D01*
X81117377Y-91939881D01*
X81150114Y-91895740D01*
X81187020Y-91855020D01*
X81227740Y-91818114D01*
X81271881Y-91785377D01*
X81319018Y-91757124D01*
X81368697Y-91733627D01*
X81420441Y-91715113D01*
X81473749Y-91701760D01*
X81528110Y-91693697D01*
X81583000Y-91691000D01*
X83263000Y-91691000D01*
X83317890Y-91693697D01*
X83317890Y-91693697D01*
G37*
D16*
X82423000Y-93091000D03*
D10*
G36*
X150754890Y-131317697D02*
G01*
X150809251Y-131325760D01*
X150862559Y-131339113D01*
X150914303Y-131357627D01*
X150963982Y-131381124D01*
X151011119Y-131409377D01*
X151055260Y-131442114D01*
X151095980Y-131479020D01*
X151132886Y-131519740D01*
X151165623Y-131563881D01*
X151193876Y-131611018D01*
X151217373Y-131660697D01*
X151235887Y-131712441D01*
X151249240Y-131765749D01*
X151257303Y-131820110D01*
X151260000Y-131875000D01*
X151260000Y-133555000D01*
X151257303Y-133609890D01*
X151249240Y-133664251D01*
X151235887Y-133717559D01*
X151217373Y-133769303D01*
X151193876Y-133818982D01*
X151165623Y-133866119D01*
X151132886Y-133910260D01*
X151095980Y-133950980D01*
X151055260Y-133987886D01*
X151011119Y-134020623D01*
X150963982Y-134048876D01*
X150914303Y-134072373D01*
X150862559Y-134090887D01*
X150809251Y-134104240D01*
X150754890Y-134112303D01*
X150700000Y-134115000D01*
X149020000Y-134115000D01*
X148965110Y-134112303D01*
X148910749Y-134104240D01*
X148857441Y-134090887D01*
X148805697Y-134072373D01*
X148756018Y-134048876D01*
X148708881Y-134020623D01*
X148664740Y-133987886D01*
X148624020Y-133950980D01*
X148587114Y-133910260D01*
X148554377Y-133866119D01*
X148526124Y-133818982D01*
X148502627Y-133769303D01*
X148484113Y-133717559D01*
X148470760Y-133664251D01*
X148462697Y-133609890D01*
X148460000Y-133555000D01*
X148460000Y-131875000D01*
X148462697Y-131820110D01*
X148470760Y-131765749D01*
X148484113Y-131712441D01*
X148502627Y-131660697D01*
X148526124Y-131611018D01*
X148554377Y-131563881D01*
X148587114Y-131519740D01*
X148624020Y-131479020D01*
X148664740Y-131442114D01*
X148708881Y-131409377D01*
X148756018Y-131381124D01*
X148805697Y-131357627D01*
X148857441Y-131339113D01*
X148910749Y-131325760D01*
X148965110Y-131317697D01*
X149020000Y-131315000D01*
X150700000Y-131315000D01*
X150754890Y-131317697D01*
X150754890Y-131317697D01*
G37*
D16*
X149860000Y-132715000D03*
X154940000Y-132715000D03*
X160020000Y-132715000D03*
X165100000Y-132715000D03*
D10*
G36*
X130434890Y-131317697D02*
G01*
X130489251Y-131325760D01*
X130542559Y-131339113D01*
X130594303Y-131357627D01*
X130643982Y-131381124D01*
X130691119Y-131409377D01*
X130735260Y-131442114D01*
X130775980Y-131479020D01*
X130812886Y-131519740D01*
X130845623Y-131563881D01*
X130873876Y-131611018D01*
X130897373Y-131660697D01*
X130915887Y-131712441D01*
X130929240Y-131765749D01*
X130937303Y-131820110D01*
X130940000Y-131875000D01*
X130940000Y-133555000D01*
X130937303Y-133609890D01*
X130929240Y-133664251D01*
X130915887Y-133717559D01*
X130897373Y-133769303D01*
X130873876Y-133818982D01*
X130845623Y-133866119D01*
X130812886Y-133910260D01*
X130775980Y-133950980D01*
X130735260Y-133987886D01*
X130691119Y-134020623D01*
X130643982Y-134048876D01*
X130594303Y-134072373D01*
X130542559Y-134090887D01*
X130489251Y-134104240D01*
X130434890Y-134112303D01*
X130380000Y-134115000D01*
X128700000Y-134115000D01*
X128645110Y-134112303D01*
X128590749Y-134104240D01*
X128537441Y-134090887D01*
X128485697Y-134072373D01*
X128436018Y-134048876D01*
X128388881Y-134020623D01*
X128344740Y-133987886D01*
X128304020Y-133950980D01*
X128267114Y-133910260D01*
X128234377Y-133866119D01*
X128206124Y-133818982D01*
X128182627Y-133769303D01*
X128164113Y-133717559D01*
X128150760Y-133664251D01*
X128142697Y-133609890D01*
X128140000Y-133555000D01*
X128140000Y-131875000D01*
X128142697Y-131820110D01*
X128150760Y-131765749D01*
X128164113Y-131712441D01*
X128182627Y-131660697D01*
X128206124Y-131611018D01*
X128234377Y-131563881D01*
X128267114Y-131519740D01*
X128304020Y-131479020D01*
X128344740Y-131442114D01*
X128388881Y-131409377D01*
X128436018Y-131381124D01*
X128485697Y-131357627D01*
X128537441Y-131339113D01*
X128590749Y-131325760D01*
X128645110Y-131317697D01*
X128700000Y-131315000D01*
X130380000Y-131315000D01*
X130434890Y-131317697D01*
X130434890Y-131317697D01*
G37*
D16*
X129540000Y-132715000D03*
X134620000Y-132715000D03*
X139700000Y-132715000D03*
X144780000Y-132715000D03*
X124460000Y-132715000D03*
X119380000Y-132715000D03*
X114300000Y-132715000D03*
D10*
G36*
X110114890Y-131317697D02*
G01*
X110169251Y-131325760D01*
X110222559Y-131339113D01*
X110274303Y-131357627D01*
X110323982Y-131381124D01*
X110371119Y-131409377D01*
X110415260Y-131442114D01*
X110455980Y-131479020D01*
X110492886Y-131519740D01*
X110525623Y-131563881D01*
X110553876Y-131611018D01*
X110577373Y-131660697D01*
X110595887Y-131712441D01*
X110609240Y-131765749D01*
X110617303Y-131820110D01*
X110620000Y-131875000D01*
X110620000Y-133555000D01*
X110617303Y-133609890D01*
X110609240Y-133664251D01*
X110595887Y-133717559D01*
X110577373Y-133769303D01*
X110553876Y-133818982D01*
X110525623Y-133866119D01*
X110492886Y-133910260D01*
X110455980Y-133950980D01*
X110415260Y-133987886D01*
X110371119Y-134020623D01*
X110323982Y-134048876D01*
X110274303Y-134072373D01*
X110222559Y-134090887D01*
X110169251Y-134104240D01*
X110114890Y-134112303D01*
X110060000Y-134115000D01*
X108380000Y-134115000D01*
X108325110Y-134112303D01*
X108270749Y-134104240D01*
X108217441Y-134090887D01*
X108165697Y-134072373D01*
X108116018Y-134048876D01*
X108068881Y-134020623D01*
X108024740Y-133987886D01*
X107984020Y-133950980D01*
X107947114Y-133910260D01*
X107914377Y-133866119D01*
X107886124Y-133818982D01*
X107862627Y-133769303D01*
X107844113Y-133717559D01*
X107830760Y-133664251D01*
X107822697Y-133609890D01*
X107820000Y-133555000D01*
X107820000Y-131875000D01*
X107822697Y-131820110D01*
X107830760Y-131765749D01*
X107844113Y-131712441D01*
X107862627Y-131660697D01*
X107886124Y-131611018D01*
X107914377Y-131563881D01*
X107947114Y-131519740D01*
X107984020Y-131479020D01*
X108024740Y-131442114D01*
X108068881Y-131409377D01*
X108116018Y-131381124D01*
X108165697Y-131357627D01*
X108217441Y-131339113D01*
X108270749Y-131325760D01*
X108325110Y-131317697D01*
X108380000Y-131315000D01*
X110060000Y-131315000D01*
X110114890Y-131317697D01*
X110114890Y-131317697D01*
G37*
D16*
X109220000Y-132715000D03*
D10*
G36*
X89794890Y-131317697D02*
G01*
X89849251Y-131325760D01*
X89902559Y-131339113D01*
X89954303Y-131357627D01*
X90003982Y-131381124D01*
X90051119Y-131409377D01*
X90095260Y-131442114D01*
X90135980Y-131479020D01*
X90172886Y-131519740D01*
X90205623Y-131563881D01*
X90233876Y-131611018D01*
X90257373Y-131660697D01*
X90275887Y-131712441D01*
X90289240Y-131765749D01*
X90297303Y-131820110D01*
X90300000Y-131875000D01*
X90300000Y-133555000D01*
X90297303Y-133609890D01*
X90289240Y-133664251D01*
X90275887Y-133717559D01*
X90257373Y-133769303D01*
X90233876Y-133818982D01*
X90205623Y-133866119D01*
X90172886Y-133910260D01*
X90135980Y-133950980D01*
X90095260Y-133987886D01*
X90051119Y-134020623D01*
X90003982Y-134048876D01*
X89954303Y-134072373D01*
X89902559Y-134090887D01*
X89849251Y-134104240D01*
X89794890Y-134112303D01*
X89740000Y-134115000D01*
X88060000Y-134115000D01*
X88005110Y-134112303D01*
X87950749Y-134104240D01*
X87897441Y-134090887D01*
X87845697Y-134072373D01*
X87796018Y-134048876D01*
X87748881Y-134020623D01*
X87704740Y-133987886D01*
X87664020Y-133950980D01*
X87627114Y-133910260D01*
X87594377Y-133866119D01*
X87566124Y-133818982D01*
X87542627Y-133769303D01*
X87524113Y-133717559D01*
X87510760Y-133664251D01*
X87502697Y-133609890D01*
X87500000Y-133555000D01*
X87500000Y-131875000D01*
X87502697Y-131820110D01*
X87510760Y-131765749D01*
X87524113Y-131712441D01*
X87542627Y-131660697D01*
X87566124Y-131611018D01*
X87594377Y-131563881D01*
X87627114Y-131519740D01*
X87664020Y-131479020D01*
X87704740Y-131442114D01*
X87748881Y-131409377D01*
X87796018Y-131381124D01*
X87845697Y-131357627D01*
X87897441Y-131339113D01*
X87950749Y-131325760D01*
X88005110Y-131317697D01*
X88060000Y-131315000D01*
X89740000Y-131315000D01*
X89794890Y-131317697D01*
X89794890Y-131317697D01*
G37*
D16*
X88900000Y-132715000D03*
X93980000Y-132715000D03*
X99060000Y-132715000D03*
X104140000Y-132715000D03*
D17*
X196465000Y-71120000D03*
X193425000Y-71120000D03*
X193425000Y-73660000D03*
X196465000Y-73660000D03*
X196465000Y-76200000D03*
X193425000Y-76200000D03*
X193425000Y-78740000D03*
X196465000Y-78740000D03*
X196465000Y-81280000D03*
X193425000Y-81280000D03*
X193425000Y-83820000D03*
X196465000Y-83820000D03*
X196465000Y-86360000D03*
X193425000Y-86360000D03*
X193425000Y-88900000D03*
X196465000Y-88900000D03*
X196465000Y-91440000D03*
X193425000Y-91440000D03*
X193425000Y-93980000D03*
X196465000Y-93980000D03*
D18*
X196465000Y-101600000D03*
D17*
X193425000Y-101600000D03*
X196465000Y-99060000D03*
X193425000Y-99060000D03*
X196465000Y-96520000D03*
X193425000Y-96520000D03*
D19*
X178856640Y-103187500D03*
X176743360Y-104140000D03*
X178856640Y-105092500D03*
X182031640Y-100647500D03*
X179918360Y-101600000D03*
X182031640Y-102552500D03*
X178856640Y-98107500D03*
X176743360Y-99060000D03*
X178856640Y-100012500D03*
X182031640Y-97472500D03*
X179918360Y-96520000D03*
X182031640Y-95567500D03*
X178856640Y-94297500D03*
X176743360Y-93345000D03*
X178856640Y-92392500D03*
X182031640Y-89852500D03*
X179918360Y-90805000D03*
X182031640Y-91757500D03*
X178856640Y-89217500D03*
X176743360Y-88265000D03*
X178856640Y-87312500D03*
X182031640Y-86677500D03*
X179918360Y-85725000D03*
X182031640Y-84772500D03*
D14*
X150622000Y-68288000D03*
X150622000Y-69888000D03*
X148082000Y-69888000D03*
X148082000Y-68288000D03*
X145542000Y-68288000D03*
X145542000Y-69888000D03*
X143002000Y-69888000D03*
X143002000Y-68288000D03*
X173228000Y-65494000D03*
X173228000Y-67094000D03*
X170688000Y-67094000D03*
X170688000Y-65494000D03*
X168148000Y-65494000D03*
X168148000Y-67094000D03*
X165608000Y-65494000D03*
X165608000Y-67094000D03*
D10*
G36*
X145138918Y-83244684D02*
G01*
X145152703Y-83246728D01*
X145166220Y-83250114D01*
X145179341Y-83254809D01*
X145191938Y-83260767D01*
X145203891Y-83267931D01*
X145215084Y-83276233D01*
X145225409Y-83285591D01*
X145234767Y-83295916D01*
X145243069Y-83307109D01*
X145250233Y-83319062D01*
X145256191Y-83331659D01*
X145260886Y-83344780D01*
X145264272Y-83358297D01*
X145266316Y-83372082D01*
X145267000Y-83386000D01*
X145267000Y-84152000D01*
X145266316Y-84165918D01*
X145264272Y-84179703D01*
X145260886Y-84193220D01*
X145256191Y-84206341D01*
X145250233Y-84218938D01*
X145243069Y-84230891D01*
X145234767Y-84242084D01*
X145225409Y-84252409D01*
X145215084Y-84261767D01*
X145203891Y-84270069D01*
X145191938Y-84277233D01*
X145179341Y-84283191D01*
X145166220Y-84287886D01*
X145152703Y-84291272D01*
X145138918Y-84293316D01*
X145125000Y-84294000D01*
X144699000Y-84294000D01*
X144685082Y-84293316D01*
X144671297Y-84291272D01*
X144657780Y-84287886D01*
X144644659Y-84283191D01*
X144632062Y-84277233D01*
X144620109Y-84270069D01*
X144608916Y-84261767D01*
X144598591Y-84252409D01*
X144589233Y-84242084D01*
X144580931Y-84230891D01*
X144573767Y-84218938D01*
X144567809Y-84206341D01*
X144563114Y-84193220D01*
X144559728Y-84179703D01*
X144557684Y-84165918D01*
X144557000Y-84152000D01*
X144557000Y-83386000D01*
X144557684Y-83372082D01*
X144559728Y-83358297D01*
X144563114Y-83344780D01*
X144567809Y-83331659D01*
X144573767Y-83319062D01*
X144580931Y-83307109D01*
X144589233Y-83295916D01*
X144598591Y-83285591D01*
X144608916Y-83276233D01*
X144620109Y-83267931D01*
X144632062Y-83260767D01*
X144644659Y-83254809D01*
X144657780Y-83250114D01*
X144671297Y-83246728D01*
X144685082Y-83244684D01*
X144699000Y-83244000D01*
X145125000Y-83244000D01*
X145138918Y-83244684D01*
X145138918Y-83244684D01*
G37*
D20*
X144912000Y-83769000D03*
D10*
G36*
X146403918Y-83244684D02*
G01*
X146417703Y-83246728D01*
X146431220Y-83250114D01*
X146444341Y-83254809D01*
X146456938Y-83260767D01*
X146468891Y-83267931D01*
X146480084Y-83276233D01*
X146490409Y-83285591D01*
X146499767Y-83295916D01*
X146508069Y-83307109D01*
X146515233Y-83319062D01*
X146521191Y-83331659D01*
X146525886Y-83344780D01*
X146529272Y-83358297D01*
X146531316Y-83372082D01*
X146532000Y-83386000D01*
X146532000Y-84152000D01*
X146531316Y-84165918D01*
X146529272Y-84179703D01*
X146525886Y-84193220D01*
X146521191Y-84206341D01*
X146515233Y-84218938D01*
X146508069Y-84230891D01*
X146499767Y-84242084D01*
X146490409Y-84252409D01*
X146480084Y-84261767D01*
X146468891Y-84270069D01*
X146456938Y-84277233D01*
X146444341Y-84283191D01*
X146431220Y-84287886D01*
X146417703Y-84291272D01*
X146403918Y-84293316D01*
X146390000Y-84294000D01*
X145964000Y-84294000D01*
X145950082Y-84293316D01*
X145936297Y-84291272D01*
X145922780Y-84287886D01*
X145909659Y-84283191D01*
X145897062Y-84277233D01*
X145885109Y-84270069D01*
X145873916Y-84261767D01*
X145863591Y-84252409D01*
X145854233Y-84242084D01*
X145845931Y-84230891D01*
X145838767Y-84218938D01*
X145832809Y-84206341D01*
X145828114Y-84193220D01*
X145824728Y-84179703D01*
X145822684Y-84165918D01*
X145822000Y-84152000D01*
X145822000Y-83386000D01*
X145822684Y-83372082D01*
X145824728Y-83358297D01*
X145828114Y-83344780D01*
X145832809Y-83331659D01*
X145838767Y-83319062D01*
X145845931Y-83307109D01*
X145854233Y-83295916D01*
X145863591Y-83285591D01*
X145873916Y-83276233D01*
X145885109Y-83267931D01*
X145897062Y-83260767D01*
X145909659Y-83254809D01*
X145922780Y-83250114D01*
X145936297Y-83246728D01*
X145950082Y-83244684D01*
X145964000Y-83244000D01*
X146390000Y-83244000D01*
X146403918Y-83244684D01*
X146403918Y-83244684D01*
G37*
D20*
X146177000Y-83769000D03*
D10*
G36*
X147673918Y-83244684D02*
G01*
X147687703Y-83246728D01*
X147701220Y-83250114D01*
X147714341Y-83254809D01*
X147726938Y-83260767D01*
X147738891Y-83267931D01*
X147750084Y-83276233D01*
X147760409Y-83285591D01*
X147769767Y-83295916D01*
X147778069Y-83307109D01*
X147785233Y-83319062D01*
X147791191Y-83331659D01*
X147795886Y-83344780D01*
X147799272Y-83358297D01*
X147801316Y-83372082D01*
X147802000Y-83386000D01*
X147802000Y-84152000D01*
X147801316Y-84165918D01*
X147799272Y-84179703D01*
X147795886Y-84193220D01*
X147791191Y-84206341D01*
X147785233Y-84218938D01*
X147778069Y-84230891D01*
X147769767Y-84242084D01*
X147760409Y-84252409D01*
X147750084Y-84261767D01*
X147738891Y-84270069D01*
X147726938Y-84277233D01*
X147714341Y-84283191D01*
X147701220Y-84287886D01*
X147687703Y-84291272D01*
X147673918Y-84293316D01*
X147660000Y-84294000D01*
X147234000Y-84294000D01*
X147220082Y-84293316D01*
X147206297Y-84291272D01*
X147192780Y-84287886D01*
X147179659Y-84283191D01*
X147167062Y-84277233D01*
X147155109Y-84270069D01*
X147143916Y-84261767D01*
X147133591Y-84252409D01*
X147124233Y-84242084D01*
X147115931Y-84230891D01*
X147108767Y-84218938D01*
X147102809Y-84206341D01*
X147098114Y-84193220D01*
X147094728Y-84179703D01*
X147092684Y-84165918D01*
X147092000Y-84152000D01*
X147092000Y-83386000D01*
X147092684Y-83372082D01*
X147094728Y-83358297D01*
X147098114Y-83344780D01*
X147102809Y-83331659D01*
X147108767Y-83319062D01*
X147115931Y-83307109D01*
X147124233Y-83295916D01*
X147133591Y-83285591D01*
X147143916Y-83276233D01*
X147155109Y-83267931D01*
X147167062Y-83260767D01*
X147179659Y-83254809D01*
X147192780Y-83250114D01*
X147206297Y-83246728D01*
X147220082Y-83244684D01*
X147234000Y-83244000D01*
X147660000Y-83244000D01*
X147673918Y-83244684D01*
X147673918Y-83244684D01*
G37*
D20*
X147447000Y-83769000D03*
D10*
G36*
X148938918Y-83244684D02*
G01*
X148952703Y-83246728D01*
X148966220Y-83250114D01*
X148979341Y-83254809D01*
X148991938Y-83260767D01*
X149003891Y-83267931D01*
X149015084Y-83276233D01*
X149025409Y-83285591D01*
X149034767Y-83295916D01*
X149043069Y-83307109D01*
X149050233Y-83319062D01*
X149056191Y-83331659D01*
X149060886Y-83344780D01*
X149064272Y-83358297D01*
X149066316Y-83372082D01*
X149067000Y-83386000D01*
X149067000Y-84152000D01*
X149066316Y-84165918D01*
X149064272Y-84179703D01*
X149060886Y-84193220D01*
X149056191Y-84206341D01*
X149050233Y-84218938D01*
X149043069Y-84230891D01*
X149034767Y-84242084D01*
X149025409Y-84252409D01*
X149015084Y-84261767D01*
X149003891Y-84270069D01*
X148991938Y-84277233D01*
X148979341Y-84283191D01*
X148966220Y-84287886D01*
X148952703Y-84291272D01*
X148938918Y-84293316D01*
X148925000Y-84294000D01*
X148499000Y-84294000D01*
X148485082Y-84293316D01*
X148471297Y-84291272D01*
X148457780Y-84287886D01*
X148444659Y-84283191D01*
X148432062Y-84277233D01*
X148420109Y-84270069D01*
X148408916Y-84261767D01*
X148398591Y-84252409D01*
X148389233Y-84242084D01*
X148380931Y-84230891D01*
X148373767Y-84218938D01*
X148367809Y-84206341D01*
X148363114Y-84193220D01*
X148359728Y-84179703D01*
X148357684Y-84165918D01*
X148357000Y-84152000D01*
X148357000Y-83386000D01*
X148357684Y-83372082D01*
X148359728Y-83358297D01*
X148363114Y-83344780D01*
X148367809Y-83331659D01*
X148373767Y-83319062D01*
X148380931Y-83307109D01*
X148389233Y-83295916D01*
X148398591Y-83285591D01*
X148408916Y-83276233D01*
X148420109Y-83267931D01*
X148432062Y-83260767D01*
X148444659Y-83254809D01*
X148457780Y-83250114D01*
X148471297Y-83246728D01*
X148485082Y-83244684D01*
X148499000Y-83244000D01*
X148925000Y-83244000D01*
X148938918Y-83244684D01*
X148938918Y-83244684D01*
G37*
D20*
X148712000Y-83769000D03*
D10*
G36*
X148938918Y-80044684D02*
G01*
X148952703Y-80046728D01*
X148966220Y-80050114D01*
X148979341Y-80054809D01*
X148991938Y-80060767D01*
X149003891Y-80067931D01*
X149015084Y-80076233D01*
X149025409Y-80085591D01*
X149034767Y-80095916D01*
X149043069Y-80107109D01*
X149050233Y-80119062D01*
X149056191Y-80131659D01*
X149060886Y-80144780D01*
X149064272Y-80158297D01*
X149066316Y-80172082D01*
X149067000Y-80186000D01*
X149067000Y-80952000D01*
X149066316Y-80965918D01*
X149064272Y-80979703D01*
X149060886Y-80993220D01*
X149056191Y-81006341D01*
X149050233Y-81018938D01*
X149043069Y-81030891D01*
X149034767Y-81042084D01*
X149025409Y-81052409D01*
X149015084Y-81061767D01*
X149003891Y-81070069D01*
X148991938Y-81077233D01*
X148979341Y-81083191D01*
X148966220Y-81087886D01*
X148952703Y-81091272D01*
X148938918Y-81093316D01*
X148925000Y-81094000D01*
X148499000Y-81094000D01*
X148485082Y-81093316D01*
X148471297Y-81091272D01*
X148457780Y-81087886D01*
X148444659Y-81083191D01*
X148432062Y-81077233D01*
X148420109Y-81070069D01*
X148408916Y-81061767D01*
X148398591Y-81052409D01*
X148389233Y-81042084D01*
X148380931Y-81030891D01*
X148373767Y-81018938D01*
X148367809Y-81006341D01*
X148363114Y-80993220D01*
X148359728Y-80979703D01*
X148357684Y-80965918D01*
X148357000Y-80952000D01*
X148357000Y-80186000D01*
X148357684Y-80172082D01*
X148359728Y-80158297D01*
X148363114Y-80144780D01*
X148367809Y-80131659D01*
X148373767Y-80119062D01*
X148380931Y-80107109D01*
X148389233Y-80095916D01*
X148398591Y-80085591D01*
X148408916Y-80076233D01*
X148420109Y-80067931D01*
X148432062Y-80060767D01*
X148444659Y-80054809D01*
X148457780Y-80050114D01*
X148471297Y-80046728D01*
X148485082Y-80044684D01*
X148499000Y-80044000D01*
X148925000Y-80044000D01*
X148938918Y-80044684D01*
X148938918Y-80044684D01*
G37*
D20*
X148712000Y-80569000D03*
D10*
G36*
X147673918Y-80044684D02*
G01*
X147687703Y-80046728D01*
X147701220Y-80050114D01*
X147714341Y-80054809D01*
X147726938Y-80060767D01*
X147738891Y-80067931D01*
X147750084Y-80076233D01*
X147760409Y-80085591D01*
X147769767Y-80095916D01*
X147778069Y-80107109D01*
X147785233Y-80119062D01*
X147791191Y-80131659D01*
X147795886Y-80144780D01*
X147799272Y-80158297D01*
X147801316Y-80172082D01*
X147802000Y-80186000D01*
X147802000Y-80952000D01*
X147801316Y-80965918D01*
X147799272Y-80979703D01*
X147795886Y-80993220D01*
X147791191Y-81006341D01*
X147785233Y-81018938D01*
X147778069Y-81030891D01*
X147769767Y-81042084D01*
X147760409Y-81052409D01*
X147750084Y-81061767D01*
X147738891Y-81070069D01*
X147726938Y-81077233D01*
X147714341Y-81083191D01*
X147701220Y-81087886D01*
X147687703Y-81091272D01*
X147673918Y-81093316D01*
X147660000Y-81094000D01*
X147234000Y-81094000D01*
X147220082Y-81093316D01*
X147206297Y-81091272D01*
X147192780Y-81087886D01*
X147179659Y-81083191D01*
X147167062Y-81077233D01*
X147155109Y-81070069D01*
X147143916Y-81061767D01*
X147133591Y-81052409D01*
X147124233Y-81042084D01*
X147115931Y-81030891D01*
X147108767Y-81018938D01*
X147102809Y-81006341D01*
X147098114Y-80993220D01*
X147094728Y-80979703D01*
X147092684Y-80965918D01*
X147092000Y-80952000D01*
X147092000Y-80186000D01*
X147092684Y-80172082D01*
X147094728Y-80158297D01*
X147098114Y-80144780D01*
X147102809Y-80131659D01*
X147108767Y-80119062D01*
X147115931Y-80107109D01*
X147124233Y-80095916D01*
X147133591Y-80085591D01*
X147143916Y-80076233D01*
X147155109Y-80067931D01*
X147167062Y-80060767D01*
X147179659Y-80054809D01*
X147192780Y-80050114D01*
X147206297Y-80046728D01*
X147220082Y-80044684D01*
X147234000Y-80044000D01*
X147660000Y-80044000D01*
X147673918Y-80044684D01*
X147673918Y-80044684D01*
G37*
D20*
X147447000Y-80569000D03*
D10*
G36*
X146403918Y-80044684D02*
G01*
X146417703Y-80046728D01*
X146431220Y-80050114D01*
X146444341Y-80054809D01*
X146456938Y-80060767D01*
X146468891Y-80067931D01*
X146480084Y-80076233D01*
X146490409Y-80085591D01*
X146499767Y-80095916D01*
X146508069Y-80107109D01*
X146515233Y-80119062D01*
X146521191Y-80131659D01*
X146525886Y-80144780D01*
X146529272Y-80158297D01*
X146531316Y-80172082D01*
X146532000Y-80186000D01*
X146532000Y-80952000D01*
X146531316Y-80965918D01*
X146529272Y-80979703D01*
X146525886Y-80993220D01*
X146521191Y-81006341D01*
X146515233Y-81018938D01*
X146508069Y-81030891D01*
X146499767Y-81042084D01*
X146490409Y-81052409D01*
X146480084Y-81061767D01*
X146468891Y-81070069D01*
X146456938Y-81077233D01*
X146444341Y-81083191D01*
X146431220Y-81087886D01*
X146417703Y-81091272D01*
X146403918Y-81093316D01*
X146390000Y-81094000D01*
X145964000Y-81094000D01*
X145950082Y-81093316D01*
X145936297Y-81091272D01*
X145922780Y-81087886D01*
X145909659Y-81083191D01*
X145897062Y-81077233D01*
X145885109Y-81070069D01*
X145873916Y-81061767D01*
X145863591Y-81052409D01*
X145854233Y-81042084D01*
X145845931Y-81030891D01*
X145838767Y-81018938D01*
X145832809Y-81006341D01*
X145828114Y-80993220D01*
X145824728Y-80979703D01*
X145822684Y-80965918D01*
X145822000Y-80952000D01*
X145822000Y-80186000D01*
X145822684Y-80172082D01*
X145824728Y-80158297D01*
X145828114Y-80144780D01*
X145832809Y-80131659D01*
X145838767Y-80119062D01*
X145845931Y-80107109D01*
X145854233Y-80095916D01*
X145863591Y-80085591D01*
X145873916Y-80076233D01*
X145885109Y-80067931D01*
X145897062Y-80060767D01*
X145909659Y-80054809D01*
X145922780Y-80050114D01*
X145936297Y-80046728D01*
X145950082Y-80044684D01*
X145964000Y-80044000D01*
X146390000Y-80044000D01*
X146403918Y-80044684D01*
X146403918Y-80044684D01*
G37*
D20*
X146177000Y-80569000D03*
D10*
G36*
X145138918Y-80044684D02*
G01*
X145152703Y-80046728D01*
X145166220Y-80050114D01*
X145179341Y-80054809D01*
X145191938Y-80060767D01*
X145203891Y-80067931D01*
X145215084Y-80076233D01*
X145225409Y-80085591D01*
X145234767Y-80095916D01*
X145243069Y-80107109D01*
X145250233Y-80119062D01*
X145256191Y-80131659D01*
X145260886Y-80144780D01*
X145264272Y-80158297D01*
X145266316Y-80172082D01*
X145267000Y-80186000D01*
X145267000Y-80952000D01*
X145266316Y-80965918D01*
X145264272Y-80979703D01*
X145260886Y-80993220D01*
X145256191Y-81006341D01*
X145250233Y-81018938D01*
X145243069Y-81030891D01*
X145234767Y-81042084D01*
X145225409Y-81052409D01*
X145215084Y-81061767D01*
X145203891Y-81070069D01*
X145191938Y-81077233D01*
X145179341Y-81083191D01*
X145166220Y-81087886D01*
X145152703Y-81091272D01*
X145138918Y-81093316D01*
X145125000Y-81094000D01*
X144699000Y-81094000D01*
X144685082Y-81093316D01*
X144671297Y-81091272D01*
X144657780Y-81087886D01*
X144644659Y-81083191D01*
X144632062Y-81077233D01*
X144620109Y-81070069D01*
X144608916Y-81061767D01*
X144598591Y-81052409D01*
X144589233Y-81042084D01*
X144580931Y-81030891D01*
X144573767Y-81018938D01*
X144567809Y-81006341D01*
X144563114Y-80993220D01*
X144559728Y-80979703D01*
X144557684Y-80965918D01*
X144557000Y-80952000D01*
X144557000Y-80186000D01*
X144557684Y-80172082D01*
X144559728Y-80158297D01*
X144563114Y-80144780D01*
X144567809Y-80131659D01*
X144573767Y-80119062D01*
X144580931Y-80107109D01*
X144589233Y-80095916D01*
X144598591Y-80085591D01*
X144608916Y-80076233D01*
X144620109Y-80067931D01*
X144632062Y-80060767D01*
X144644659Y-80054809D01*
X144657780Y-80050114D01*
X144671297Y-80046728D01*
X144685082Y-80044684D01*
X144699000Y-80044000D01*
X145125000Y-80044000D01*
X145138918Y-80044684D01*
X145138918Y-80044684D01*
G37*
D20*
X144912000Y-80569000D03*
D10*
G36*
X167363918Y-77504684D02*
G01*
X167377703Y-77506728D01*
X167391220Y-77510114D01*
X167404341Y-77514809D01*
X167416938Y-77520767D01*
X167428891Y-77527931D01*
X167440084Y-77536233D01*
X167450409Y-77545591D01*
X167459767Y-77555916D01*
X167468069Y-77567109D01*
X167475233Y-77579062D01*
X167481191Y-77591659D01*
X167485886Y-77604780D01*
X167489272Y-77618297D01*
X167491316Y-77632082D01*
X167492000Y-77646000D01*
X167492000Y-78412000D01*
X167491316Y-78425918D01*
X167489272Y-78439703D01*
X167485886Y-78453220D01*
X167481191Y-78466341D01*
X167475233Y-78478938D01*
X167468069Y-78490891D01*
X167459767Y-78502084D01*
X167450409Y-78512409D01*
X167440084Y-78521767D01*
X167428891Y-78530069D01*
X167416938Y-78537233D01*
X167404341Y-78543191D01*
X167391220Y-78547886D01*
X167377703Y-78551272D01*
X167363918Y-78553316D01*
X167350000Y-78554000D01*
X166924000Y-78554000D01*
X166910082Y-78553316D01*
X166896297Y-78551272D01*
X166882780Y-78547886D01*
X166869659Y-78543191D01*
X166857062Y-78537233D01*
X166845109Y-78530069D01*
X166833916Y-78521767D01*
X166823591Y-78512409D01*
X166814233Y-78502084D01*
X166805931Y-78490891D01*
X166798767Y-78478938D01*
X166792809Y-78466341D01*
X166788114Y-78453220D01*
X166784728Y-78439703D01*
X166782684Y-78425918D01*
X166782000Y-78412000D01*
X166782000Y-77646000D01*
X166782684Y-77632082D01*
X166784728Y-77618297D01*
X166788114Y-77604780D01*
X166792809Y-77591659D01*
X166798767Y-77579062D01*
X166805931Y-77567109D01*
X166814233Y-77555916D01*
X166823591Y-77545591D01*
X166833916Y-77536233D01*
X166845109Y-77527931D01*
X166857062Y-77520767D01*
X166869659Y-77514809D01*
X166882780Y-77510114D01*
X166896297Y-77506728D01*
X166910082Y-77504684D01*
X166924000Y-77504000D01*
X167350000Y-77504000D01*
X167363918Y-77504684D01*
X167363918Y-77504684D01*
G37*
D20*
X167137000Y-78029000D03*
D10*
G36*
X168628918Y-77504684D02*
G01*
X168642703Y-77506728D01*
X168656220Y-77510114D01*
X168669341Y-77514809D01*
X168681938Y-77520767D01*
X168693891Y-77527931D01*
X168705084Y-77536233D01*
X168715409Y-77545591D01*
X168724767Y-77555916D01*
X168733069Y-77567109D01*
X168740233Y-77579062D01*
X168746191Y-77591659D01*
X168750886Y-77604780D01*
X168754272Y-77618297D01*
X168756316Y-77632082D01*
X168757000Y-77646000D01*
X168757000Y-78412000D01*
X168756316Y-78425918D01*
X168754272Y-78439703D01*
X168750886Y-78453220D01*
X168746191Y-78466341D01*
X168740233Y-78478938D01*
X168733069Y-78490891D01*
X168724767Y-78502084D01*
X168715409Y-78512409D01*
X168705084Y-78521767D01*
X168693891Y-78530069D01*
X168681938Y-78537233D01*
X168669341Y-78543191D01*
X168656220Y-78547886D01*
X168642703Y-78551272D01*
X168628918Y-78553316D01*
X168615000Y-78554000D01*
X168189000Y-78554000D01*
X168175082Y-78553316D01*
X168161297Y-78551272D01*
X168147780Y-78547886D01*
X168134659Y-78543191D01*
X168122062Y-78537233D01*
X168110109Y-78530069D01*
X168098916Y-78521767D01*
X168088591Y-78512409D01*
X168079233Y-78502084D01*
X168070931Y-78490891D01*
X168063767Y-78478938D01*
X168057809Y-78466341D01*
X168053114Y-78453220D01*
X168049728Y-78439703D01*
X168047684Y-78425918D01*
X168047000Y-78412000D01*
X168047000Y-77646000D01*
X168047684Y-77632082D01*
X168049728Y-77618297D01*
X168053114Y-77604780D01*
X168057809Y-77591659D01*
X168063767Y-77579062D01*
X168070931Y-77567109D01*
X168079233Y-77555916D01*
X168088591Y-77545591D01*
X168098916Y-77536233D01*
X168110109Y-77527931D01*
X168122062Y-77520767D01*
X168134659Y-77514809D01*
X168147780Y-77510114D01*
X168161297Y-77506728D01*
X168175082Y-77504684D01*
X168189000Y-77504000D01*
X168615000Y-77504000D01*
X168628918Y-77504684D01*
X168628918Y-77504684D01*
G37*
D20*
X168402000Y-78029000D03*
D10*
G36*
X169898918Y-77504684D02*
G01*
X169912703Y-77506728D01*
X169926220Y-77510114D01*
X169939341Y-77514809D01*
X169951938Y-77520767D01*
X169963891Y-77527931D01*
X169975084Y-77536233D01*
X169985409Y-77545591D01*
X169994767Y-77555916D01*
X170003069Y-77567109D01*
X170010233Y-77579062D01*
X170016191Y-77591659D01*
X170020886Y-77604780D01*
X170024272Y-77618297D01*
X170026316Y-77632082D01*
X170027000Y-77646000D01*
X170027000Y-78412000D01*
X170026316Y-78425918D01*
X170024272Y-78439703D01*
X170020886Y-78453220D01*
X170016191Y-78466341D01*
X170010233Y-78478938D01*
X170003069Y-78490891D01*
X169994767Y-78502084D01*
X169985409Y-78512409D01*
X169975084Y-78521767D01*
X169963891Y-78530069D01*
X169951938Y-78537233D01*
X169939341Y-78543191D01*
X169926220Y-78547886D01*
X169912703Y-78551272D01*
X169898918Y-78553316D01*
X169885000Y-78554000D01*
X169459000Y-78554000D01*
X169445082Y-78553316D01*
X169431297Y-78551272D01*
X169417780Y-78547886D01*
X169404659Y-78543191D01*
X169392062Y-78537233D01*
X169380109Y-78530069D01*
X169368916Y-78521767D01*
X169358591Y-78512409D01*
X169349233Y-78502084D01*
X169340931Y-78490891D01*
X169333767Y-78478938D01*
X169327809Y-78466341D01*
X169323114Y-78453220D01*
X169319728Y-78439703D01*
X169317684Y-78425918D01*
X169317000Y-78412000D01*
X169317000Y-77646000D01*
X169317684Y-77632082D01*
X169319728Y-77618297D01*
X169323114Y-77604780D01*
X169327809Y-77591659D01*
X169333767Y-77579062D01*
X169340931Y-77567109D01*
X169349233Y-77555916D01*
X169358591Y-77545591D01*
X169368916Y-77536233D01*
X169380109Y-77527931D01*
X169392062Y-77520767D01*
X169404659Y-77514809D01*
X169417780Y-77510114D01*
X169431297Y-77506728D01*
X169445082Y-77504684D01*
X169459000Y-77504000D01*
X169885000Y-77504000D01*
X169898918Y-77504684D01*
X169898918Y-77504684D01*
G37*
D20*
X169672000Y-78029000D03*
D10*
G36*
X171163918Y-77504684D02*
G01*
X171177703Y-77506728D01*
X171191220Y-77510114D01*
X171204341Y-77514809D01*
X171216938Y-77520767D01*
X171228891Y-77527931D01*
X171240084Y-77536233D01*
X171250409Y-77545591D01*
X171259767Y-77555916D01*
X171268069Y-77567109D01*
X171275233Y-77579062D01*
X171281191Y-77591659D01*
X171285886Y-77604780D01*
X171289272Y-77618297D01*
X171291316Y-77632082D01*
X171292000Y-77646000D01*
X171292000Y-78412000D01*
X171291316Y-78425918D01*
X171289272Y-78439703D01*
X171285886Y-78453220D01*
X171281191Y-78466341D01*
X171275233Y-78478938D01*
X171268069Y-78490891D01*
X171259767Y-78502084D01*
X171250409Y-78512409D01*
X171240084Y-78521767D01*
X171228891Y-78530069D01*
X171216938Y-78537233D01*
X171204341Y-78543191D01*
X171191220Y-78547886D01*
X171177703Y-78551272D01*
X171163918Y-78553316D01*
X171150000Y-78554000D01*
X170724000Y-78554000D01*
X170710082Y-78553316D01*
X170696297Y-78551272D01*
X170682780Y-78547886D01*
X170669659Y-78543191D01*
X170657062Y-78537233D01*
X170645109Y-78530069D01*
X170633916Y-78521767D01*
X170623591Y-78512409D01*
X170614233Y-78502084D01*
X170605931Y-78490891D01*
X170598767Y-78478938D01*
X170592809Y-78466341D01*
X170588114Y-78453220D01*
X170584728Y-78439703D01*
X170582684Y-78425918D01*
X170582000Y-78412000D01*
X170582000Y-77646000D01*
X170582684Y-77632082D01*
X170584728Y-77618297D01*
X170588114Y-77604780D01*
X170592809Y-77591659D01*
X170598767Y-77579062D01*
X170605931Y-77567109D01*
X170614233Y-77555916D01*
X170623591Y-77545591D01*
X170633916Y-77536233D01*
X170645109Y-77527931D01*
X170657062Y-77520767D01*
X170669659Y-77514809D01*
X170682780Y-77510114D01*
X170696297Y-77506728D01*
X170710082Y-77504684D01*
X170724000Y-77504000D01*
X171150000Y-77504000D01*
X171163918Y-77504684D01*
X171163918Y-77504684D01*
G37*
D20*
X170937000Y-78029000D03*
D10*
G36*
X171163918Y-80704684D02*
G01*
X171177703Y-80706728D01*
X171191220Y-80710114D01*
X171204341Y-80714809D01*
X171216938Y-80720767D01*
X171228891Y-80727931D01*
X171240084Y-80736233D01*
X171250409Y-80745591D01*
X171259767Y-80755916D01*
X171268069Y-80767109D01*
X171275233Y-80779062D01*
X171281191Y-80791659D01*
X171285886Y-80804780D01*
X171289272Y-80818297D01*
X171291316Y-80832082D01*
X171292000Y-80846000D01*
X171292000Y-81612000D01*
X171291316Y-81625918D01*
X171289272Y-81639703D01*
X171285886Y-81653220D01*
X171281191Y-81666341D01*
X171275233Y-81678938D01*
X171268069Y-81690891D01*
X171259767Y-81702084D01*
X171250409Y-81712409D01*
X171240084Y-81721767D01*
X171228891Y-81730069D01*
X171216938Y-81737233D01*
X171204341Y-81743191D01*
X171191220Y-81747886D01*
X171177703Y-81751272D01*
X171163918Y-81753316D01*
X171150000Y-81754000D01*
X170724000Y-81754000D01*
X170710082Y-81753316D01*
X170696297Y-81751272D01*
X170682780Y-81747886D01*
X170669659Y-81743191D01*
X170657062Y-81737233D01*
X170645109Y-81730069D01*
X170633916Y-81721767D01*
X170623591Y-81712409D01*
X170614233Y-81702084D01*
X170605931Y-81690891D01*
X170598767Y-81678938D01*
X170592809Y-81666341D01*
X170588114Y-81653220D01*
X170584728Y-81639703D01*
X170582684Y-81625918D01*
X170582000Y-81612000D01*
X170582000Y-80846000D01*
X170582684Y-80832082D01*
X170584728Y-80818297D01*
X170588114Y-80804780D01*
X170592809Y-80791659D01*
X170598767Y-80779062D01*
X170605931Y-80767109D01*
X170614233Y-80755916D01*
X170623591Y-80745591D01*
X170633916Y-80736233D01*
X170645109Y-80727931D01*
X170657062Y-80720767D01*
X170669659Y-80714809D01*
X170682780Y-80710114D01*
X170696297Y-80706728D01*
X170710082Y-80704684D01*
X170724000Y-80704000D01*
X171150000Y-80704000D01*
X171163918Y-80704684D01*
X171163918Y-80704684D01*
G37*
D20*
X170937000Y-81229000D03*
D10*
G36*
X169898918Y-80704684D02*
G01*
X169912703Y-80706728D01*
X169926220Y-80710114D01*
X169939341Y-80714809D01*
X169951938Y-80720767D01*
X169963891Y-80727931D01*
X169975084Y-80736233D01*
X169985409Y-80745591D01*
X169994767Y-80755916D01*
X170003069Y-80767109D01*
X170010233Y-80779062D01*
X170016191Y-80791659D01*
X170020886Y-80804780D01*
X170024272Y-80818297D01*
X170026316Y-80832082D01*
X170027000Y-80846000D01*
X170027000Y-81612000D01*
X170026316Y-81625918D01*
X170024272Y-81639703D01*
X170020886Y-81653220D01*
X170016191Y-81666341D01*
X170010233Y-81678938D01*
X170003069Y-81690891D01*
X169994767Y-81702084D01*
X169985409Y-81712409D01*
X169975084Y-81721767D01*
X169963891Y-81730069D01*
X169951938Y-81737233D01*
X169939341Y-81743191D01*
X169926220Y-81747886D01*
X169912703Y-81751272D01*
X169898918Y-81753316D01*
X169885000Y-81754000D01*
X169459000Y-81754000D01*
X169445082Y-81753316D01*
X169431297Y-81751272D01*
X169417780Y-81747886D01*
X169404659Y-81743191D01*
X169392062Y-81737233D01*
X169380109Y-81730069D01*
X169368916Y-81721767D01*
X169358591Y-81712409D01*
X169349233Y-81702084D01*
X169340931Y-81690891D01*
X169333767Y-81678938D01*
X169327809Y-81666341D01*
X169323114Y-81653220D01*
X169319728Y-81639703D01*
X169317684Y-81625918D01*
X169317000Y-81612000D01*
X169317000Y-80846000D01*
X169317684Y-80832082D01*
X169319728Y-80818297D01*
X169323114Y-80804780D01*
X169327809Y-80791659D01*
X169333767Y-80779062D01*
X169340931Y-80767109D01*
X169349233Y-80755916D01*
X169358591Y-80745591D01*
X169368916Y-80736233D01*
X169380109Y-80727931D01*
X169392062Y-80720767D01*
X169404659Y-80714809D01*
X169417780Y-80710114D01*
X169431297Y-80706728D01*
X169445082Y-80704684D01*
X169459000Y-80704000D01*
X169885000Y-80704000D01*
X169898918Y-80704684D01*
X169898918Y-80704684D01*
G37*
D20*
X169672000Y-81229000D03*
D10*
G36*
X168628918Y-80704684D02*
G01*
X168642703Y-80706728D01*
X168656220Y-80710114D01*
X168669341Y-80714809D01*
X168681938Y-80720767D01*
X168693891Y-80727931D01*
X168705084Y-80736233D01*
X168715409Y-80745591D01*
X168724767Y-80755916D01*
X168733069Y-80767109D01*
X168740233Y-80779062D01*
X168746191Y-80791659D01*
X168750886Y-80804780D01*
X168754272Y-80818297D01*
X168756316Y-80832082D01*
X168757000Y-80846000D01*
X168757000Y-81612000D01*
X168756316Y-81625918D01*
X168754272Y-81639703D01*
X168750886Y-81653220D01*
X168746191Y-81666341D01*
X168740233Y-81678938D01*
X168733069Y-81690891D01*
X168724767Y-81702084D01*
X168715409Y-81712409D01*
X168705084Y-81721767D01*
X168693891Y-81730069D01*
X168681938Y-81737233D01*
X168669341Y-81743191D01*
X168656220Y-81747886D01*
X168642703Y-81751272D01*
X168628918Y-81753316D01*
X168615000Y-81754000D01*
X168189000Y-81754000D01*
X168175082Y-81753316D01*
X168161297Y-81751272D01*
X168147780Y-81747886D01*
X168134659Y-81743191D01*
X168122062Y-81737233D01*
X168110109Y-81730069D01*
X168098916Y-81721767D01*
X168088591Y-81712409D01*
X168079233Y-81702084D01*
X168070931Y-81690891D01*
X168063767Y-81678938D01*
X168057809Y-81666341D01*
X168053114Y-81653220D01*
X168049728Y-81639703D01*
X168047684Y-81625918D01*
X168047000Y-81612000D01*
X168047000Y-80846000D01*
X168047684Y-80832082D01*
X168049728Y-80818297D01*
X168053114Y-80804780D01*
X168057809Y-80791659D01*
X168063767Y-80779062D01*
X168070931Y-80767109D01*
X168079233Y-80755916D01*
X168088591Y-80745591D01*
X168098916Y-80736233D01*
X168110109Y-80727931D01*
X168122062Y-80720767D01*
X168134659Y-80714809D01*
X168147780Y-80710114D01*
X168161297Y-80706728D01*
X168175082Y-80704684D01*
X168189000Y-80704000D01*
X168615000Y-80704000D01*
X168628918Y-80704684D01*
X168628918Y-80704684D01*
G37*
D20*
X168402000Y-81229000D03*
D10*
G36*
X167363918Y-80704684D02*
G01*
X167377703Y-80706728D01*
X167391220Y-80710114D01*
X167404341Y-80714809D01*
X167416938Y-80720767D01*
X167428891Y-80727931D01*
X167440084Y-80736233D01*
X167450409Y-80745591D01*
X167459767Y-80755916D01*
X167468069Y-80767109D01*
X167475233Y-80779062D01*
X167481191Y-80791659D01*
X167485886Y-80804780D01*
X167489272Y-80818297D01*
X167491316Y-80832082D01*
X167492000Y-80846000D01*
X167492000Y-81612000D01*
X167491316Y-81625918D01*
X167489272Y-81639703D01*
X167485886Y-81653220D01*
X167481191Y-81666341D01*
X167475233Y-81678938D01*
X167468069Y-81690891D01*
X167459767Y-81702084D01*
X167450409Y-81712409D01*
X167440084Y-81721767D01*
X167428891Y-81730069D01*
X167416938Y-81737233D01*
X167404341Y-81743191D01*
X167391220Y-81747886D01*
X167377703Y-81751272D01*
X167363918Y-81753316D01*
X167350000Y-81754000D01*
X166924000Y-81754000D01*
X166910082Y-81753316D01*
X166896297Y-81751272D01*
X166882780Y-81747886D01*
X166869659Y-81743191D01*
X166857062Y-81737233D01*
X166845109Y-81730069D01*
X166833916Y-81721767D01*
X166823591Y-81712409D01*
X166814233Y-81702084D01*
X166805931Y-81690891D01*
X166798767Y-81678938D01*
X166792809Y-81666341D01*
X166788114Y-81653220D01*
X166784728Y-81639703D01*
X166782684Y-81625918D01*
X166782000Y-81612000D01*
X166782000Y-80846000D01*
X166782684Y-80832082D01*
X166784728Y-80818297D01*
X166788114Y-80804780D01*
X166792809Y-80791659D01*
X166798767Y-80779062D01*
X166805931Y-80767109D01*
X166814233Y-80755916D01*
X166823591Y-80745591D01*
X166833916Y-80736233D01*
X166845109Y-80727931D01*
X166857062Y-80720767D01*
X166869659Y-80714809D01*
X166882780Y-80710114D01*
X166896297Y-80706728D01*
X166910082Y-80704684D01*
X166924000Y-80704000D01*
X167350000Y-80704000D01*
X167363918Y-80704684D01*
X167363918Y-80704684D01*
G37*
D20*
X167137000Y-81229000D03*
D21*
X183985000Y-104775000D03*
X185585000Y-104775000D03*
X183985000Y-102235000D03*
X185585000Y-102235000D03*
X183985000Y-99695000D03*
X185585000Y-99695000D03*
X185585000Y-97155000D03*
X183985000Y-97155000D03*
X183985000Y-93980000D03*
X185585000Y-93980000D03*
X183985000Y-91440000D03*
X185585000Y-91440000D03*
X185585000Y-88900000D03*
X183985000Y-88900000D03*
X185585000Y-86360000D03*
X183985000Y-86360000D03*
X173190000Y-104140000D03*
X174790000Y-104140000D03*
X173190000Y-101600000D03*
X174790000Y-101600000D03*
X173190000Y-99060000D03*
X174790000Y-99060000D03*
X174790000Y-96520000D03*
X173190000Y-96520000D03*
X173190000Y-93345000D03*
X174790000Y-93345000D03*
X174790000Y-90805000D03*
X173190000Y-90805000D03*
X173190000Y-88265000D03*
X174790000Y-88265000D03*
X173190000Y-85725000D03*
X174790000Y-85725000D03*
D22*
X181370000Y-115570000D03*
X179070000Y-115570000D03*
X176770000Y-115570000D03*
D23*
X179070000Y-121370000D03*
D24*
X150622000Y-77376000D03*
X149352000Y-77376000D03*
X148082000Y-77376000D03*
X146812000Y-77376000D03*
X145542000Y-77376000D03*
X144272000Y-77376000D03*
X143002000Y-77376000D03*
X141732000Y-77376000D03*
X141732000Y-71976000D03*
X143002000Y-71976000D03*
X144272000Y-71976000D03*
X145542000Y-71976000D03*
X146812000Y-71976000D03*
X148082000Y-71976000D03*
X149352000Y-71976000D03*
X150622000Y-71976000D03*
X173228000Y-69944000D03*
X171958000Y-69944000D03*
X170688000Y-69944000D03*
X169418000Y-69944000D03*
X168148000Y-69944000D03*
X166878000Y-69944000D03*
X165608000Y-69944000D03*
X164338000Y-69944000D03*
X164338000Y-75344000D03*
X165608000Y-75344000D03*
X166878000Y-75344000D03*
X168148000Y-75344000D03*
X169418000Y-75344000D03*
X170688000Y-75344000D03*
X171958000Y-75344000D03*
X173228000Y-75344000D03*
D15*
X132080000Y-74930000D03*
X132080000Y-80010000D03*
X132080000Y-92456000D03*
D10*
G36*
X132891793Y-101348446D02*
G01*
X132941106Y-101355761D01*
X132989465Y-101367874D01*
X133036403Y-101384669D01*
X133081470Y-101405984D01*
X133124230Y-101431613D01*
X133164272Y-101461311D01*
X133201210Y-101494790D01*
X133234689Y-101531728D01*
X133264387Y-101571770D01*
X133290016Y-101614530D01*
X133311331Y-101659597D01*
X133328126Y-101706535D01*
X133340239Y-101754894D01*
X133347554Y-101804207D01*
X133350000Y-101854000D01*
X133350000Y-103378000D01*
X133347554Y-103427793D01*
X133340239Y-103477106D01*
X133328126Y-103525465D01*
X133311331Y-103572403D01*
X133290016Y-103617470D01*
X133264387Y-103660230D01*
X133234689Y-103700272D01*
X133201210Y-103737210D01*
X133164272Y-103770689D01*
X133124230Y-103800387D01*
X133081470Y-103826016D01*
X133036403Y-103847331D01*
X132989465Y-103864126D01*
X132941106Y-103876239D01*
X132891793Y-103883554D01*
X132842000Y-103886000D01*
X131318000Y-103886000D01*
X131268207Y-103883554D01*
X131218894Y-103876239D01*
X131170535Y-103864126D01*
X131123597Y-103847331D01*
X131078530Y-103826016D01*
X131035770Y-103800387D01*
X130995728Y-103770689D01*
X130958790Y-103737210D01*
X130925311Y-103700272D01*
X130895613Y-103660230D01*
X130869984Y-103617470D01*
X130848669Y-103572403D01*
X130831874Y-103525465D01*
X130819761Y-103477106D01*
X130812446Y-103427793D01*
X130810000Y-103378000D01*
X130810000Y-101854000D01*
X130812446Y-101804207D01*
X130819761Y-101754894D01*
X130831874Y-101706535D01*
X130848669Y-101659597D01*
X130869984Y-101614530D01*
X130895613Y-101571770D01*
X130925311Y-101531728D01*
X130958790Y-101494790D01*
X130995728Y-101461311D01*
X131035770Y-101431613D01*
X131078530Y-101405984D01*
X131123597Y-101384669D01*
X131170535Y-101367874D01*
X131218894Y-101355761D01*
X131268207Y-101348446D01*
X131318000Y-101346000D01*
X132842000Y-101346000D01*
X132891793Y-101348446D01*
X132891793Y-101348446D01*
G37*
D15*
X132080000Y-102616000D03*
D10*
G36*
X120826793Y-101348446D02*
G01*
X120876106Y-101355761D01*
X120924465Y-101367874D01*
X120971403Y-101384669D01*
X121016470Y-101405984D01*
X121059230Y-101431613D01*
X121099272Y-101461311D01*
X121136210Y-101494790D01*
X121169689Y-101531728D01*
X121199387Y-101571770D01*
X121225016Y-101614530D01*
X121246331Y-101659597D01*
X121263126Y-101706535D01*
X121275239Y-101754894D01*
X121282554Y-101804207D01*
X121285000Y-101854000D01*
X121285000Y-103378000D01*
X121282554Y-103427793D01*
X121275239Y-103477106D01*
X121263126Y-103525465D01*
X121246331Y-103572403D01*
X121225016Y-103617470D01*
X121199387Y-103660230D01*
X121169689Y-103700272D01*
X121136210Y-103737210D01*
X121099272Y-103770689D01*
X121059230Y-103800387D01*
X121016470Y-103826016D01*
X120971403Y-103847331D01*
X120924465Y-103864126D01*
X120876106Y-103876239D01*
X120826793Y-103883554D01*
X120777000Y-103886000D01*
X119253000Y-103886000D01*
X119203207Y-103883554D01*
X119153894Y-103876239D01*
X119105535Y-103864126D01*
X119058597Y-103847331D01*
X119013530Y-103826016D01*
X118970770Y-103800387D01*
X118930728Y-103770689D01*
X118893790Y-103737210D01*
X118860311Y-103700272D01*
X118830613Y-103660230D01*
X118804984Y-103617470D01*
X118783669Y-103572403D01*
X118766874Y-103525465D01*
X118754761Y-103477106D01*
X118747446Y-103427793D01*
X118745000Y-103378000D01*
X118745000Y-101854000D01*
X118747446Y-101804207D01*
X118754761Y-101754894D01*
X118766874Y-101706535D01*
X118783669Y-101659597D01*
X118804984Y-101614530D01*
X118830613Y-101571770D01*
X118860311Y-101531728D01*
X118893790Y-101494790D01*
X118930728Y-101461311D01*
X118970770Y-101431613D01*
X119013530Y-101405984D01*
X119058597Y-101384669D01*
X119105535Y-101367874D01*
X119153894Y-101355761D01*
X119203207Y-101348446D01*
X119253000Y-101346000D01*
X120777000Y-101346000D01*
X120826793Y-101348446D01*
X120826793Y-101348446D01*
G37*
D15*
X120015000Y-102616000D03*
X120015000Y-92456000D03*
X120015000Y-80010000D03*
X120015000Y-74930000D03*
X107950000Y-74930000D03*
X107950000Y-80010000D03*
X107950000Y-92456000D03*
D10*
G36*
X108761793Y-101348446D02*
G01*
X108811106Y-101355761D01*
X108859465Y-101367874D01*
X108906403Y-101384669D01*
X108951470Y-101405984D01*
X108994230Y-101431613D01*
X109034272Y-101461311D01*
X109071210Y-101494790D01*
X109104689Y-101531728D01*
X109134387Y-101571770D01*
X109160016Y-101614530D01*
X109181331Y-101659597D01*
X109198126Y-101706535D01*
X109210239Y-101754894D01*
X109217554Y-101804207D01*
X109220000Y-101854000D01*
X109220000Y-103378000D01*
X109217554Y-103427793D01*
X109210239Y-103477106D01*
X109198126Y-103525465D01*
X109181331Y-103572403D01*
X109160016Y-103617470D01*
X109134387Y-103660230D01*
X109104689Y-103700272D01*
X109071210Y-103737210D01*
X109034272Y-103770689D01*
X108994230Y-103800387D01*
X108951470Y-103826016D01*
X108906403Y-103847331D01*
X108859465Y-103864126D01*
X108811106Y-103876239D01*
X108761793Y-103883554D01*
X108712000Y-103886000D01*
X107188000Y-103886000D01*
X107138207Y-103883554D01*
X107088894Y-103876239D01*
X107040535Y-103864126D01*
X106993597Y-103847331D01*
X106948530Y-103826016D01*
X106905770Y-103800387D01*
X106865728Y-103770689D01*
X106828790Y-103737210D01*
X106795311Y-103700272D01*
X106765613Y-103660230D01*
X106739984Y-103617470D01*
X106718669Y-103572403D01*
X106701874Y-103525465D01*
X106689761Y-103477106D01*
X106682446Y-103427793D01*
X106680000Y-103378000D01*
X106680000Y-101854000D01*
X106682446Y-101804207D01*
X106689761Y-101754894D01*
X106701874Y-101706535D01*
X106718669Y-101659597D01*
X106739984Y-101614530D01*
X106765613Y-101571770D01*
X106795311Y-101531728D01*
X106828790Y-101494790D01*
X106865728Y-101461311D01*
X106905770Y-101431613D01*
X106948530Y-101405984D01*
X106993597Y-101384669D01*
X107040535Y-101367874D01*
X107088894Y-101355761D01*
X107138207Y-101348446D01*
X107188000Y-101346000D01*
X108712000Y-101346000D01*
X108761793Y-101348446D01*
X108761793Y-101348446D01*
G37*
D15*
X107950000Y-102616000D03*
D10*
G36*
X96696793Y-101348446D02*
G01*
X96746106Y-101355761D01*
X96794465Y-101367874D01*
X96841403Y-101384669D01*
X96886470Y-101405984D01*
X96929230Y-101431613D01*
X96969272Y-101461311D01*
X97006210Y-101494790D01*
X97039689Y-101531728D01*
X97069387Y-101571770D01*
X97095016Y-101614530D01*
X97116331Y-101659597D01*
X97133126Y-101706535D01*
X97145239Y-101754894D01*
X97152554Y-101804207D01*
X97155000Y-101854000D01*
X97155000Y-103378000D01*
X97152554Y-103427793D01*
X97145239Y-103477106D01*
X97133126Y-103525465D01*
X97116331Y-103572403D01*
X97095016Y-103617470D01*
X97069387Y-103660230D01*
X97039689Y-103700272D01*
X97006210Y-103737210D01*
X96969272Y-103770689D01*
X96929230Y-103800387D01*
X96886470Y-103826016D01*
X96841403Y-103847331D01*
X96794465Y-103864126D01*
X96746106Y-103876239D01*
X96696793Y-103883554D01*
X96647000Y-103886000D01*
X95123000Y-103886000D01*
X95073207Y-103883554D01*
X95023894Y-103876239D01*
X94975535Y-103864126D01*
X94928597Y-103847331D01*
X94883530Y-103826016D01*
X94840770Y-103800387D01*
X94800728Y-103770689D01*
X94763790Y-103737210D01*
X94730311Y-103700272D01*
X94700613Y-103660230D01*
X94674984Y-103617470D01*
X94653669Y-103572403D01*
X94636874Y-103525465D01*
X94624761Y-103477106D01*
X94617446Y-103427793D01*
X94615000Y-103378000D01*
X94615000Y-101854000D01*
X94617446Y-101804207D01*
X94624761Y-101754894D01*
X94636874Y-101706535D01*
X94653669Y-101659597D01*
X94674984Y-101614530D01*
X94700613Y-101571770D01*
X94730311Y-101531728D01*
X94763790Y-101494790D01*
X94800728Y-101461311D01*
X94840770Y-101431613D01*
X94883530Y-101405984D01*
X94928597Y-101384669D01*
X94975535Y-101367874D01*
X95023894Y-101355761D01*
X95073207Y-101348446D01*
X95123000Y-101346000D01*
X96647000Y-101346000D01*
X96696793Y-101348446D01*
X96696793Y-101348446D01*
G37*
D15*
X95885000Y-102616000D03*
X95885000Y-92456000D03*
X95885000Y-80010000D03*
X95885000Y-74930000D03*
D11*
X127635000Y-98425000D03*
X127635000Y-93345000D03*
X127635000Y-83185000D03*
D10*
G36*
X128203255Y-79757712D02*
G01*
X128237774Y-79762833D01*
X128271625Y-79771312D01*
X128304482Y-79783068D01*
X128336029Y-79797989D01*
X128365961Y-79815929D01*
X128393990Y-79836717D01*
X128419847Y-79860153D01*
X128443283Y-79886010D01*
X128464071Y-79914039D01*
X128482011Y-79943971D01*
X128496932Y-79975518D01*
X128508688Y-80008375D01*
X128517167Y-80042226D01*
X128522288Y-80076745D01*
X128524000Y-80111600D01*
X128524000Y-81178400D01*
X128522288Y-81213255D01*
X128517167Y-81247774D01*
X128508688Y-81281625D01*
X128496932Y-81314482D01*
X128482011Y-81346029D01*
X128464071Y-81375961D01*
X128443283Y-81403990D01*
X128419847Y-81429847D01*
X128393990Y-81453283D01*
X128365961Y-81474071D01*
X128336029Y-81492011D01*
X128304482Y-81506932D01*
X128271625Y-81518688D01*
X128237774Y-81527167D01*
X128203255Y-81532288D01*
X128168400Y-81534000D01*
X127101600Y-81534000D01*
X127066745Y-81532288D01*
X127032226Y-81527167D01*
X126998375Y-81518688D01*
X126965518Y-81506932D01*
X126933971Y-81492011D01*
X126904039Y-81474071D01*
X126876010Y-81453283D01*
X126850153Y-81429847D01*
X126826717Y-81403990D01*
X126805929Y-81375961D01*
X126787989Y-81346029D01*
X126773068Y-81314482D01*
X126761312Y-81281625D01*
X126752833Y-81247774D01*
X126747712Y-81213255D01*
X126746000Y-81178400D01*
X126746000Y-80111600D01*
X126747712Y-80076745D01*
X126752833Y-80042226D01*
X126761312Y-80008375D01*
X126773068Y-79975518D01*
X126787989Y-79943971D01*
X126805929Y-79914039D01*
X126826717Y-79886010D01*
X126850153Y-79860153D01*
X126876010Y-79836717D01*
X126904039Y-79815929D01*
X126933971Y-79797989D01*
X126965518Y-79783068D01*
X126998375Y-79771312D01*
X127032226Y-79762833D01*
X127066745Y-79757712D01*
X127101600Y-79756000D01*
X128168400Y-79756000D01*
X128203255Y-79757712D01*
X128203255Y-79757712D01*
G37*
D11*
X127635000Y-80645000D03*
D10*
G36*
X116138255Y-79757712D02*
G01*
X116172774Y-79762833D01*
X116206625Y-79771312D01*
X116239482Y-79783068D01*
X116271029Y-79797989D01*
X116300961Y-79815929D01*
X116328990Y-79836717D01*
X116354847Y-79860153D01*
X116378283Y-79886010D01*
X116399071Y-79914039D01*
X116417011Y-79943971D01*
X116431932Y-79975518D01*
X116443688Y-80008375D01*
X116452167Y-80042226D01*
X116457288Y-80076745D01*
X116459000Y-80111600D01*
X116459000Y-81178400D01*
X116457288Y-81213255D01*
X116452167Y-81247774D01*
X116443688Y-81281625D01*
X116431932Y-81314482D01*
X116417011Y-81346029D01*
X116399071Y-81375961D01*
X116378283Y-81403990D01*
X116354847Y-81429847D01*
X116328990Y-81453283D01*
X116300961Y-81474071D01*
X116271029Y-81492011D01*
X116239482Y-81506932D01*
X116206625Y-81518688D01*
X116172774Y-81527167D01*
X116138255Y-81532288D01*
X116103400Y-81534000D01*
X115036600Y-81534000D01*
X115001745Y-81532288D01*
X114967226Y-81527167D01*
X114933375Y-81518688D01*
X114900518Y-81506932D01*
X114868971Y-81492011D01*
X114839039Y-81474071D01*
X114811010Y-81453283D01*
X114785153Y-81429847D01*
X114761717Y-81403990D01*
X114740929Y-81375961D01*
X114722989Y-81346029D01*
X114708068Y-81314482D01*
X114696312Y-81281625D01*
X114687833Y-81247774D01*
X114682712Y-81213255D01*
X114681000Y-81178400D01*
X114681000Y-80111600D01*
X114682712Y-80076745D01*
X114687833Y-80042226D01*
X114696312Y-80008375D01*
X114708068Y-79975518D01*
X114722989Y-79943971D01*
X114740929Y-79914039D01*
X114761717Y-79886010D01*
X114785153Y-79860153D01*
X114811010Y-79836717D01*
X114839039Y-79815929D01*
X114868971Y-79797989D01*
X114900518Y-79783068D01*
X114933375Y-79771312D01*
X114967226Y-79762833D01*
X115001745Y-79757712D01*
X115036600Y-79756000D01*
X116103400Y-79756000D01*
X116138255Y-79757712D01*
X116138255Y-79757712D01*
G37*
D11*
X115570000Y-80645000D03*
X115570000Y-83185000D03*
X115570000Y-93345000D03*
X115570000Y-98425000D03*
X103505000Y-98425000D03*
X103505000Y-93345000D03*
X103505000Y-83185000D03*
D10*
G36*
X104073255Y-79757712D02*
G01*
X104107774Y-79762833D01*
X104141625Y-79771312D01*
X104174482Y-79783068D01*
X104206029Y-79797989D01*
X104235961Y-79815929D01*
X104263990Y-79836717D01*
X104289847Y-79860153D01*
X104313283Y-79886010D01*
X104334071Y-79914039D01*
X104352011Y-79943971D01*
X104366932Y-79975518D01*
X104378688Y-80008375D01*
X104387167Y-80042226D01*
X104392288Y-80076745D01*
X104394000Y-80111600D01*
X104394000Y-81178400D01*
X104392288Y-81213255D01*
X104387167Y-81247774D01*
X104378688Y-81281625D01*
X104366932Y-81314482D01*
X104352011Y-81346029D01*
X104334071Y-81375961D01*
X104313283Y-81403990D01*
X104289847Y-81429847D01*
X104263990Y-81453283D01*
X104235961Y-81474071D01*
X104206029Y-81492011D01*
X104174482Y-81506932D01*
X104141625Y-81518688D01*
X104107774Y-81527167D01*
X104073255Y-81532288D01*
X104038400Y-81534000D01*
X102971600Y-81534000D01*
X102936745Y-81532288D01*
X102902226Y-81527167D01*
X102868375Y-81518688D01*
X102835518Y-81506932D01*
X102803971Y-81492011D01*
X102774039Y-81474071D01*
X102746010Y-81453283D01*
X102720153Y-81429847D01*
X102696717Y-81403990D01*
X102675929Y-81375961D01*
X102657989Y-81346029D01*
X102643068Y-81314482D01*
X102631312Y-81281625D01*
X102622833Y-81247774D01*
X102617712Y-81213255D01*
X102616000Y-81178400D01*
X102616000Y-80111600D01*
X102617712Y-80076745D01*
X102622833Y-80042226D01*
X102631312Y-80008375D01*
X102643068Y-79975518D01*
X102657989Y-79943971D01*
X102675929Y-79914039D01*
X102696717Y-79886010D01*
X102720153Y-79860153D01*
X102746010Y-79836717D01*
X102774039Y-79815929D01*
X102803971Y-79797989D01*
X102835518Y-79783068D01*
X102868375Y-79771312D01*
X102902226Y-79762833D01*
X102936745Y-79757712D01*
X102971600Y-79756000D01*
X104038400Y-79756000D01*
X104073255Y-79757712D01*
X104073255Y-79757712D01*
G37*
D11*
X103505000Y-80645000D03*
D10*
G36*
X92008255Y-79757712D02*
G01*
X92042774Y-79762833D01*
X92076625Y-79771312D01*
X92109482Y-79783068D01*
X92141029Y-79797989D01*
X92170961Y-79815929D01*
X92198990Y-79836717D01*
X92224847Y-79860153D01*
X92248283Y-79886010D01*
X92269071Y-79914039D01*
X92287011Y-79943971D01*
X92301932Y-79975518D01*
X92313688Y-80008375D01*
X92322167Y-80042226D01*
X92327288Y-80076745D01*
X92329000Y-80111600D01*
X92329000Y-81178400D01*
X92327288Y-81213255D01*
X92322167Y-81247774D01*
X92313688Y-81281625D01*
X92301932Y-81314482D01*
X92287011Y-81346029D01*
X92269071Y-81375961D01*
X92248283Y-81403990D01*
X92224847Y-81429847D01*
X92198990Y-81453283D01*
X92170961Y-81474071D01*
X92141029Y-81492011D01*
X92109482Y-81506932D01*
X92076625Y-81518688D01*
X92042774Y-81527167D01*
X92008255Y-81532288D01*
X91973400Y-81534000D01*
X90906600Y-81534000D01*
X90871745Y-81532288D01*
X90837226Y-81527167D01*
X90803375Y-81518688D01*
X90770518Y-81506932D01*
X90738971Y-81492011D01*
X90709039Y-81474071D01*
X90681010Y-81453283D01*
X90655153Y-81429847D01*
X90631717Y-81403990D01*
X90610929Y-81375961D01*
X90592989Y-81346029D01*
X90578068Y-81314482D01*
X90566312Y-81281625D01*
X90557833Y-81247774D01*
X90552712Y-81213255D01*
X90551000Y-81178400D01*
X90551000Y-80111600D01*
X90552712Y-80076745D01*
X90557833Y-80042226D01*
X90566312Y-80008375D01*
X90578068Y-79975518D01*
X90592989Y-79943971D01*
X90610929Y-79914039D01*
X90631717Y-79886010D01*
X90655153Y-79860153D01*
X90681010Y-79836717D01*
X90709039Y-79815929D01*
X90738971Y-79797989D01*
X90770518Y-79783068D01*
X90803375Y-79771312D01*
X90837226Y-79762833D01*
X90871745Y-79757712D01*
X90906600Y-79756000D01*
X91973400Y-79756000D01*
X92008255Y-79757712D01*
X92008255Y-79757712D01*
G37*
D11*
X91440000Y-80645000D03*
X91440000Y-83185000D03*
X91440000Y-93345000D03*
X91440000Y-98425000D03*
X154432000Y-109474000D03*
X154432000Y-104394000D03*
X154432000Y-94234000D03*
D10*
G36*
X155000255Y-90806712D02*
G01*
X155034774Y-90811833D01*
X155068625Y-90820312D01*
X155101482Y-90832068D01*
X155133029Y-90846989D01*
X155162961Y-90864929D01*
X155190990Y-90885717D01*
X155216847Y-90909153D01*
X155240283Y-90935010D01*
X155261071Y-90963039D01*
X155279011Y-90992971D01*
X155293932Y-91024518D01*
X155305688Y-91057375D01*
X155314167Y-91091226D01*
X155319288Y-91125745D01*
X155321000Y-91160600D01*
X155321000Y-92227400D01*
X155319288Y-92262255D01*
X155314167Y-92296774D01*
X155305688Y-92330625D01*
X155293932Y-92363482D01*
X155279011Y-92395029D01*
X155261071Y-92424961D01*
X155240283Y-92452990D01*
X155216847Y-92478847D01*
X155190990Y-92502283D01*
X155162961Y-92523071D01*
X155133029Y-92541011D01*
X155101482Y-92555932D01*
X155068625Y-92567688D01*
X155034774Y-92576167D01*
X155000255Y-92581288D01*
X154965400Y-92583000D01*
X153898600Y-92583000D01*
X153863745Y-92581288D01*
X153829226Y-92576167D01*
X153795375Y-92567688D01*
X153762518Y-92555932D01*
X153730971Y-92541011D01*
X153701039Y-92523071D01*
X153673010Y-92502283D01*
X153647153Y-92478847D01*
X153623717Y-92452990D01*
X153602929Y-92424961D01*
X153584989Y-92395029D01*
X153570068Y-92363482D01*
X153558312Y-92330625D01*
X153549833Y-92296774D01*
X153544712Y-92262255D01*
X153543000Y-92227400D01*
X153543000Y-91160600D01*
X153544712Y-91125745D01*
X153549833Y-91091226D01*
X153558312Y-91057375D01*
X153570068Y-91024518D01*
X153584989Y-90992971D01*
X153602929Y-90963039D01*
X153623717Y-90935010D01*
X153647153Y-90909153D01*
X153673010Y-90885717D01*
X153701039Y-90864929D01*
X153730971Y-90846989D01*
X153762518Y-90832068D01*
X153795375Y-90820312D01*
X153829226Y-90811833D01*
X153863745Y-90806712D01*
X153898600Y-90805000D01*
X154965400Y-90805000D01*
X155000255Y-90806712D01*
X155000255Y-90806712D01*
G37*
D11*
X154432000Y-91694000D03*
D10*
G36*
X149285255Y-90806712D02*
G01*
X149319774Y-90811833D01*
X149353625Y-90820312D01*
X149386482Y-90832068D01*
X149418029Y-90846989D01*
X149447961Y-90864929D01*
X149475990Y-90885717D01*
X149501847Y-90909153D01*
X149525283Y-90935010D01*
X149546071Y-90963039D01*
X149564011Y-90992971D01*
X149578932Y-91024518D01*
X149590688Y-91057375D01*
X149599167Y-91091226D01*
X149604288Y-91125745D01*
X149606000Y-91160600D01*
X149606000Y-92227400D01*
X149604288Y-92262255D01*
X149599167Y-92296774D01*
X149590688Y-92330625D01*
X149578932Y-92363482D01*
X149564011Y-92395029D01*
X149546071Y-92424961D01*
X149525283Y-92452990D01*
X149501847Y-92478847D01*
X149475990Y-92502283D01*
X149447961Y-92523071D01*
X149418029Y-92541011D01*
X149386482Y-92555932D01*
X149353625Y-92567688D01*
X149319774Y-92576167D01*
X149285255Y-92581288D01*
X149250400Y-92583000D01*
X148183600Y-92583000D01*
X148148745Y-92581288D01*
X148114226Y-92576167D01*
X148080375Y-92567688D01*
X148047518Y-92555932D01*
X148015971Y-92541011D01*
X147986039Y-92523071D01*
X147958010Y-92502283D01*
X147932153Y-92478847D01*
X147908717Y-92452990D01*
X147887929Y-92424961D01*
X147869989Y-92395029D01*
X147855068Y-92363482D01*
X147843312Y-92330625D01*
X147834833Y-92296774D01*
X147829712Y-92262255D01*
X147828000Y-92227400D01*
X147828000Y-91160600D01*
X147829712Y-91125745D01*
X147834833Y-91091226D01*
X147843312Y-91057375D01*
X147855068Y-91024518D01*
X147869989Y-90992971D01*
X147887929Y-90963039D01*
X147908717Y-90935010D01*
X147932153Y-90909153D01*
X147958010Y-90885717D01*
X147986039Y-90864929D01*
X148015971Y-90846989D01*
X148047518Y-90832068D01*
X148080375Y-90820312D01*
X148114226Y-90811833D01*
X148148745Y-90806712D01*
X148183600Y-90805000D01*
X149250400Y-90805000D01*
X149285255Y-90806712D01*
X149285255Y-90806712D01*
G37*
D11*
X148717000Y-91694000D03*
X148717000Y-94234000D03*
X148717000Y-104394000D03*
X148717000Y-109474000D03*
X143002000Y-109474000D03*
X143002000Y-104394000D03*
X143002000Y-94234000D03*
D10*
G36*
X143570255Y-90806712D02*
G01*
X143604774Y-90811833D01*
X143638625Y-90820312D01*
X143671482Y-90832068D01*
X143703029Y-90846989D01*
X143732961Y-90864929D01*
X143760990Y-90885717D01*
X143786847Y-90909153D01*
X143810283Y-90935010D01*
X143831071Y-90963039D01*
X143849011Y-90992971D01*
X143863932Y-91024518D01*
X143875688Y-91057375D01*
X143884167Y-91091226D01*
X143889288Y-91125745D01*
X143891000Y-91160600D01*
X143891000Y-92227400D01*
X143889288Y-92262255D01*
X143884167Y-92296774D01*
X143875688Y-92330625D01*
X143863932Y-92363482D01*
X143849011Y-92395029D01*
X143831071Y-92424961D01*
X143810283Y-92452990D01*
X143786847Y-92478847D01*
X143760990Y-92502283D01*
X143732961Y-92523071D01*
X143703029Y-92541011D01*
X143671482Y-92555932D01*
X143638625Y-92567688D01*
X143604774Y-92576167D01*
X143570255Y-92581288D01*
X143535400Y-92583000D01*
X142468600Y-92583000D01*
X142433745Y-92581288D01*
X142399226Y-92576167D01*
X142365375Y-92567688D01*
X142332518Y-92555932D01*
X142300971Y-92541011D01*
X142271039Y-92523071D01*
X142243010Y-92502283D01*
X142217153Y-92478847D01*
X142193717Y-92452990D01*
X142172929Y-92424961D01*
X142154989Y-92395029D01*
X142140068Y-92363482D01*
X142128312Y-92330625D01*
X142119833Y-92296774D01*
X142114712Y-92262255D01*
X142113000Y-92227400D01*
X142113000Y-91160600D01*
X142114712Y-91125745D01*
X142119833Y-91091226D01*
X142128312Y-91057375D01*
X142140068Y-91024518D01*
X142154989Y-90992971D01*
X142172929Y-90963039D01*
X142193717Y-90935010D01*
X142217153Y-90909153D01*
X142243010Y-90885717D01*
X142271039Y-90864929D01*
X142300971Y-90846989D01*
X142332518Y-90832068D01*
X142365375Y-90820312D01*
X142399226Y-90811833D01*
X142433745Y-90806712D01*
X142468600Y-90805000D01*
X143535400Y-90805000D01*
X143570255Y-90806712D01*
X143570255Y-90806712D01*
G37*
D11*
X143002000Y-91694000D03*
D16*
X192405000Y-112395000D03*
X192405000Y-117475000D03*
X192405000Y-122555000D03*
D10*
G36*
X193299890Y-126237697D02*
G01*
X193354251Y-126245760D01*
X193407559Y-126259113D01*
X193459303Y-126277627D01*
X193508982Y-126301124D01*
X193556119Y-126329377D01*
X193600260Y-126362114D01*
X193640980Y-126399020D01*
X193677886Y-126439740D01*
X193710623Y-126483881D01*
X193738876Y-126531018D01*
X193762373Y-126580697D01*
X193780887Y-126632441D01*
X193794240Y-126685749D01*
X193802303Y-126740110D01*
X193805000Y-126795000D01*
X193805000Y-128475000D01*
X193802303Y-128529890D01*
X193794240Y-128584251D01*
X193780887Y-128637559D01*
X193762373Y-128689303D01*
X193738876Y-128738982D01*
X193710623Y-128786119D01*
X193677886Y-128830260D01*
X193640980Y-128870980D01*
X193600260Y-128907886D01*
X193556119Y-128940623D01*
X193508982Y-128968876D01*
X193459303Y-128992373D01*
X193407559Y-129010887D01*
X193354251Y-129024240D01*
X193299890Y-129032303D01*
X193245000Y-129035000D01*
X191565000Y-129035000D01*
X191510110Y-129032303D01*
X191455749Y-129024240D01*
X191402441Y-129010887D01*
X191350697Y-128992373D01*
X191301018Y-128968876D01*
X191253881Y-128940623D01*
X191209740Y-128907886D01*
X191169020Y-128870980D01*
X191132114Y-128830260D01*
X191099377Y-128786119D01*
X191071124Y-128738982D01*
X191047627Y-128689303D01*
X191029113Y-128637559D01*
X191015760Y-128584251D01*
X191007697Y-128529890D01*
X191005000Y-128475000D01*
X191005000Y-126795000D01*
X191007697Y-126740110D01*
X191015760Y-126685749D01*
X191029113Y-126632441D01*
X191047627Y-126580697D01*
X191071124Y-126531018D01*
X191099377Y-126483881D01*
X191132114Y-126439740D01*
X191169020Y-126399020D01*
X191209740Y-126362114D01*
X191253881Y-126329377D01*
X191301018Y-126301124D01*
X191350697Y-126277627D01*
X191402441Y-126259113D01*
X191455749Y-126245760D01*
X191510110Y-126237697D01*
X191565000Y-126235000D01*
X193245000Y-126235000D01*
X193299890Y-126237697D01*
X193299890Y-126237697D01*
G37*
D16*
X192405000Y-127635000D03*
D10*
G36*
X145674890Y-58927697D02*
G01*
X145729251Y-58935760D01*
X145782559Y-58949113D01*
X145834303Y-58967627D01*
X145883982Y-58991124D01*
X145931119Y-59019377D01*
X145975260Y-59052114D01*
X146015980Y-59089020D01*
X146052886Y-59129740D01*
X146085623Y-59173881D01*
X146113876Y-59221018D01*
X146137373Y-59270697D01*
X146155887Y-59322441D01*
X146169240Y-59375749D01*
X146177303Y-59430110D01*
X146180000Y-59485000D01*
X146180000Y-61165000D01*
X146177303Y-61219890D01*
X146169240Y-61274251D01*
X146155887Y-61327559D01*
X146137373Y-61379303D01*
X146113876Y-61428982D01*
X146085623Y-61476119D01*
X146052886Y-61520260D01*
X146015980Y-61560980D01*
X145975260Y-61597886D01*
X145931119Y-61630623D01*
X145883982Y-61658876D01*
X145834303Y-61682373D01*
X145782559Y-61700887D01*
X145729251Y-61714240D01*
X145674890Y-61722303D01*
X145620000Y-61725000D01*
X143940000Y-61725000D01*
X143885110Y-61722303D01*
X143830749Y-61714240D01*
X143777441Y-61700887D01*
X143725697Y-61682373D01*
X143676018Y-61658876D01*
X143628881Y-61630623D01*
X143584740Y-61597886D01*
X143544020Y-61560980D01*
X143507114Y-61520260D01*
X143474377Y-61476119D01*
X143446124Y-61428982D01*
X143422627Y-61379303D01*
X143404113Y-61327559D01*
X143390760Y-61274251D01*
X143382697Y-61219890D01*
X143380000Y-61165000D01*
X143380000Y-59485000D01*
X143382697Y-59430110D01*
X143390760Y-59375749D01*
X143404113Y-59322441D01*
X143422627Y-59270697D01*
X143446124Y-59221018D01*
X143474377Y-59173881D01*
X143507114Y-59129740D01*
X143544020Y-59089020D01*
X143584740Y-59052114D01*
X143628881Y-59019377D01*
X143676018Y-58991124D01*
X143725697Y-58967627D01*
X143777441Y-58949113D01*
X143830749Y-58935760D01*
X143885110Y-58927697D01*
X143940000Y-58925000D01*
X145620000Y-58925000D01*
X145674890Y-58927697D01*
X145674890Y-58927697D01*
G37*
D16*
X144780000Y-60325000D03*
X139700000Y-60325000D03*
X134620000Y-60325000D03*
X129540000Y-60325000D03*
X109220000Y-60325000D03*
X114300000Y-60325000D03*
X119380000Y-60325000D03*
D10*
G36*
X125354890Y-58927697D02*
G01*
X125409251Y-58935760D01*
X125462559Y-58949113D01*
X125514303Y-58967627D01*
X125563982Y-58991124D01*
X125611119Y-59019377D01*
X125655260Y-59052114D01*
X125695980Y-59089020D01*
X125732886Y-59129740D01*
X125765623Y-59173881D01*
X125793876Y-59221018D01*
X125817373Y-59270697D01*
X125835887Y-59322441D01*
X125849240Y-59375749D01*
X125857303Y-59430110D01*
X125860000Y-59485000D01*
X125860000Y-61165000D01*
X125857303Y-61219890D01*
X125849240Y-61274251D01*
X125835887Y-61327559D01*
X125817373Y-61379303D01*
X125793876Y-61428982D01*
X125765623Y-61476119D01*
X125732886Y-61520260D01*
X125695980Y-61560980D01*
X125655260Y-61597886D01*
X125611119Y-61630623D01*
X125563982Y-61658876D01*
X125514303Y-61682373D01*
X125462559Y-61700887D01*
X125409251Y-61714240D01*
X125354890Y-61722303D01*
X125300000Y-61725000D01*
X123620000Y-61725000D01*
X123565110Y-61722303D01*
X123510749Y-61714240D01*
X123457441Y-61700887D01*
X123405697Y-61682373D01*
X123356018Y-61658876D01*
X123308881Y-61630623D01*
X123264740Y-61597886D01*
X123224020Y-61560980D01*
X123187114Y-61520260D01*
X123154377Y-61476119D01*
X123126124Y-61428982D01*
X123102627Y-61379303D01*
X123084113Y-61327559D01*
X123070760Y-61274251D01*
X123062697Y-61219890D01*
X123060000Y-61165000D01*
X123060000Y-59485000D01*
X123062697Y-59430110D01*
X123070760Y-59375749D01*
X123084113Y-59322441D01*
X123102627Y-59270697D01*
X123126124Y-59221018D01*
X123154377Y-59173881D01*
X123187114Y-59129740D01*
X123224020Y-59089020D01*
X123264740Y-59052114D01*
X123308881Y-59019377D01*
X123356018Y-58991124D01*
X123405697Y-58967627D01*
X123457441Y-58949113D01*
X123510749Y-58935760D01*
X123565110Y-58927697D01*
X123620000Y-58925000D01*
X125300000Y-58925000D01*
X125354890Y-58927697D01*
X125354890Y-58927697D01*
G37*
D16*
X124460000Y-60325000D03*
D10*
G36*
X186314890Y-58927697D02*
G01*
X186369251Y-58935760D01*
X186422559Y-58949113D01*
X186474303Y-58967627D01*
X186523982Y-58991124D01*
X186571119Y-59019377D01*
X186615260Y-59052114D01*
X186655980Y-59089020D01*
X186692886Y-59129740D01*
X186725623Y-59173881D01*
X186753876Y-59221018D01*
X186777373Y-59270697D01*
X186795887Y-59322441D01*
X186809240Y-59375749D01*
X186817303Y-59430110D01*
X186820000Y-59485000D01*
X186820000Y-61165000D01*
X186817303Y-61219890D01*
X186809240Y-61274251D01*
X186795887Y-61327559D01*
X186777373Y-61379303D01*
X186753876Y-61428982D01*
X186725623Y-61476119D01*
X186692886Y-61520260D01*
X186655980Y-61560980D01*
X186615260Y-61597886D01*
X186571119Y-61630623D01*
X186523982Y-61658876D01*
X186474303Y-61682373D01*
X186422559Y-61700887D01*
X186369251Y-61714240D01*
X186314890Y-61722303D01*
X186260000Y-61725000D01*
X184580000Y-61725000D01*
X184525110Y-61722303D01*
X184470749Y-61714240D01*
X184417441Y-61700887D01*
X184365697Y-61682373D01*
X184316018Y-61658876D01*
X184268881Y-61630623D01*
X184224740Y-61597886D01*
X184184020Y-61560980D01*
X184147114Y-61520260D01*
X184114377Y-61476119D01*
X184086124Y-61428982D01*
X184062627Y-61379303D01*
X184044113Y-61327559D01*
X184030760Y-61274251D01*
X184022697Y-61219890D01*
X184020000Y-61165000D01*
X184020000Y-59485000D01*
X184022697Y-59430110D01*
X184030760Y-59375749D01*
X184044113Y-59322441D01*
X184062627Y-59270697D01*
X184086124Y-59221018D01*
X184114377Y-59173881D01*
X184147114Y-59129740D01*
X184184020Y-59089020D01*
X184224740Y-59052114D01*
X184268881Y-59019377D01*
X184316018Y-58991124D01*
X184365697Y-58967627D01*
X184417441Y-58949113D01*
X184470749Y-58935760D01*
X184525110Y-58927697D01*
X184580000Y-58925000D01*
X186260000Y-58925000D01*
X186314890Y-58927697D01*
X186314890Y-58927697D01*
G37*
D16*
X185420000Y-60325000D03*
X180340000Y-60325000D03*
X175260000Y-60325000D03*
X170180000Y-60325000D03*
D15*
X77673200Y-85471000D03*
X81076800Y-85471000D03*
X77673200Y-75565000D03*
X81076800Y-75565000D03*
D25*
X171958000Y-76581000D03*
X166878000Y-76581000D03*
X164338000Y-76581000D03*
X169418000Y-76581000D03*
X141732000Y-78613000D03*
X144272000Y-78613000D03*
X146812000Y-78613000D03*
X149352000Y-78613000D03*
X179992020Y-87312500D03*
X183134000Y-90170000D03*
X183515000Y-95504000D03*
X183007000Y-100965000D03*
X185547000Y-106045000D03*
X181356000Y-113919000D03*
X185420000Y-116840000D03*
X174879000Y-114046000D03*
X173990000Y-110363000D03*
X174625000Y-121666000D03*
X156972000Y-82804000D03*
X161925000Y-81280000D03*
X166497000Y-95631000D03*
D26*
X164338000Y-75344000D02*
X164338000Y-76581000D01*
X166878000Y-75344000D02*
X166878000Y-76581000D01*
X169418000Y-75344000D02*
X169418000Y-76581000D01*
X171958000Y-75344000D02*
X171958000Y-76581000D01*
X141732000Y-77376000D02*
X141732000Y-78613000D01*
X144272000Y-77376000D02*
X144272000Y-78613000D01*
X146812000Y-77376000D02*
X146812000Y-78613000D01*
X149352000Y-77376000D02*
X149352000Y-78613000D01*
D27*
X161086800Y-115697000D02*
X159290749Y-115697000D01*
X159290749Y-115697000D02*
X157607000Y-115697000D01*
X161086800Y-125603000D02*
X157607000Y-125603000D01*
X160020000Y-130735102D02*
X161036000Y-129719102D01*
X160020000Y-132715000D02*
X160020000Y-130735102D01*
X161036000Y-129719102D02*
X161036000Y-125603000D01*
X152146000Y-125730000D02*
X148844000Y-125730000D01*
X152196800Y-125603000D02*
X152146000Y-125653800D01*
X152146000Y-125653800D02*
X152146000Y-125730000D01*
X152196800Y-125603000D02*
X150400749Y-125603000D01*
X150400749Y-125603000D02*
X148844000Y-125603000D01*
X148793200Y-125603000D02*
X148793200Y-131648200D01*
X148793200Y-131648200D02*
X149860000Y-132715000D01*
X152196800Y-115697000D02*
X150400749Y-115697000D01*
X150400749Y-115697000D02*
X148717000Y-115697000D01*
X139903200Y-115697000D02*
X143383000Y-115697000D01*
X143306800Y-125603000D02*
X139954000Y-125603000D01*
X131013200Y-115697000D02*
X132809251Y-115697000D01*
X132809251Y-115697000D02*
X134366000Y-115697000D01*
X127635000Y-98425000D02*
X131826000Y-102616000D01*
X131826000Y-102616000D02*
X131953000Y-102489000D01*
X115570000Y-98425000D02*
X119634000Y-102489000D01*
X119634000Y-102489000D02*
X120015000Y-102489000D01*
X103505000Y-98425000D02*
X107569000Y-102489000D01*
X107569000Y-102489000D02*
X107950000Y-102489000D01*
X91440000Y-98425000D02*
X91694000Y-98425000D01*
X91694000Y-98425000D02*
X95885000Y-102616000D01*
X95885000Y-92456000D02*
X92329000Y-92456000D01*
X92329000Y-92456000D02*
X91567000Y-93218000D01*
X91567000Y-93218000D02*
X91440000Y-93345000D01*
X95885000Y-92456000D02*
X102616000Y-92456000D01*
X102616000Y-92456000D02*
X103505000Y-93345000D01*
X107950000Y-92456000D02*
X104394000Y-92456000D01*
X104394000Y-92456000D02*
X103505000Y-93345000D01*
X115570000Y-93345000D02*
X115697000Y-93345000D01*
X165100000Y-134694898D02*
X162380898Y-137414000D01*
X165100000Y-132715000D02*
X165100000Y-134694898D01*
X93980000Y-134694898D02*
X93980000Y-137414000D01*
X93980000Y-132715000D02*
X93980000Y-134694898D01*
X104140000Y-134694898D02*
X104140000Y-137414000D01*
X104140000Y-132715000D02*
X104140000Y-134694898D01*
X104140000Y-137414000D02*
X93980000Y-137414000D01*
X114300000Y-134694898D02*
X114300000Y-137414000D01*
X114300000Y-132715000D02*
X114300000Y-134694898D01*
X114300000Y-137414000D02*
X104140000Y-137414000D01*
X124460000Y-134694898D02*
X124460000Y-137414000D01*
X124460000Y-132715000D02*
X124460000Y-134694898D01*
X124460000Y-137414000D02*
X114300000Y-137414000D01*
X134620000Y-134694898D02*
X134620000Y-137414000D01*
X134620000Y-132715000D02*
X134620000Y-134694898D01*
X134620000Y-137414000D02*
X124460000Y-137414000D01*
X144780000Y-134694898D02*
X144780000Y-137414000D01*
X144780000Y-132715000D02*
X144780000Y-134694898D01*
X144780000Y-137414000D02*
X134620000Y-137414000D01*
X154940000Y-134694898D02*
X154940000Y-137414000D01*
X154940000Y-132715000D02*
X154940000Y-134694898D01*
X162380898Y-137414000D02*
X154940000Y-137414000D01*
X154940000Y-137414000D02*
X144780000Y-137414000D01*
D26*
X130939999Y-61724999D02*
X129540000Y-60325000D01*
X146812000Y-71976000D02*
X146812000Y-66771396D01*
X146812000Y-66771396D02*
X144531171Y-64490567D01*
X144531171Y-64490567D02*
X133705567Y-64490567D01*
X133705567Y-64490567D02*
X130939999Y-61724999D01*
X148082000Y-68288000D02*
X148082000Y-66532698D01*
X148082000Y-66532698D02*
X144973058Y-63423756D01*
X144973058Y-63423756D02*
X137718756Y-63423756D01*
X137718756Y-63423756D02*
X136019999Y-61724999D01*
X136019999Y-61724999D02*
X134620000Y-60325000D01*
X141604945Y-62356945D02*
X139700000Y-60452000D01*
X145414945Y-62356945D02*
X141604945Y-62356945D01*
X149352000Y-66294000D02*
X145414945Y-62356945D01*
X149352000Y-71882000D02*
X149352000Y-66294000D01*
X144907000Y-60325000D02*
X144780000Y-60325000D01*
X150622000Y-66040000D02*
X144907000Y-60325000D01*
X150622000Y-68288000D02*
X150622000Y-66040000D01*
X145542000Y-67010094D02*
X144089284Y-65557378D01*
X145542000Y-68288000D02*
X145542000Y-67010094D01*
X129565378Y-65557378D02*
X124460000Y-60452000D01*
X144089284Y-65557378D02*
X129565378Y-65557378D01*
X144272000Y-71976000D02*
X144272000Y-67248792D01*
X144272000Y-67248792D02*
X143647397Y-66624189D01*
X125679189Y-66624189D02*
X119507000Y-60452000D01*
X143647397Y-66624189D02*
X125679189Y-66624189D01*
X121666000Y-67691000D02*
X115699999Y-61724999D01*
X142494000Y-67691000D02*
X121666000Y-67691000D01*
X115699999Y-61724999D02*
X114300000Y-60325000D01*
X143002000Y-68199000D02*
X142494000Y-67691000D01*
X110619999Y-61724999D02*
X109220000Y-60325000D01*
X141732000Y-69723000D02*
X140970000Y-68961000D01*
X141732000Y-71976000D02*
X141732000Y-69723000D01*
X140970000Y-68961000D02*
X117856000Y-68961000D01*
X117856000Y-68961000D02*
X110619999Y-61724999D01*
D28*
X185420000Y-60198000D02*
X185420000Y-60706000D01*
D26*
X181356000Y-64262000D02*
X185420000Y-60198000D01*
X174371000Y-64262000D02*
X181356000Y-64262000D01*
X173228000Y-65494000D02*
X173228000Y-65405000D01*
X173228000Y-65405000D02*
X174371000Y-64262000D01*
X177800000Y-62865000D02*
X180340000Y-60325000D01*
X171958000Y-64770000D02*
X173863000Y-62865000D01*
X171958000Y-69944000D02*
X171958000Y-64770000D01*
X173863000Y-62865000D02*
X177800000Y-62865000D01*
X174625000Y-60325000D02*
X175260000Y-60325000D01*
X170688000Y-65494000D02*
X170688000Y-64262000D01*
X170688000Y-64262000D02*
X174625000Y-60325000D01*
X170180000Y-60452000D02*
X170180000Y-60325000D01*
X169418000Y-62484000D02*
X170180000Y-61722000D01*
X169418000Y-69944000D02*
X169418000Y-62484000D01*
X170180000Y-61722000D02*
X170180000Y-60452000D01*
D28*
X149860000Y-60325000D02*
X149733000Y-60325000D01*
D26*
X155575000Y-66040000D02*
X149860000Y-60325000D01*
X164338000Y-68305000D02*
X162073000Y-66040000D01*
X164338000Y-69944000D02*
X164338000Y-68305000D01*
X162073000Y-66040000D02*
X155575000Y-66040000D01*
X159004000Y-64389000D02*
X154940000Y-60325000D01*
X165608000Y-65405000D02*
X164592000Y-64389000D01*
X165608000Y-65494000D02*
X165608000Y-65405000D01*
X164592000Y-64389000D02*
X159004000Y-64389000D01*
X160020000Y-61595000D02*
X160020000Y-60452000D01*
X166878000Y-64262000D02*
X165608000Y-62992000D01*
X166878000Y-69944000D02*
X166878000Y-64262000D01*
X165608000Y-62992000D02*
X161417000Y-62992000D01*
X161417000Y-62992000D02*
X160020000Y-61595000D01*
X165100000Y-60579000D02*
X165100000Y-60452000D01*
X165862000Y-60579000D02*
X165100000Y-60579000D01*
X168148000Y-65494000D02*
X168148000Y-62865000D01*
X168148000Y-62865000D02*
X165862000Y-60579000D01*
D29*
X165608000Y-74295000D02*
X165608000Y-75438000D01*
X166624000Y-73279000D02*
X165608000Y-74295000D01*
X175641000Y-73279000D02*
X166624000Y-73279000D01*
X193675000Y-73660000D02*
X176022000Y-73660000D01*
X176022000Y-73660000D02*
X175641000Y-73279000D01*
X167005000Y-77978000D02*
X167132000Y-77978000D01*
X165608000Y-75344000D02*
X165608000Y-76581000D01*
X165608000Y-76581000D02*
X167005000Y-77978000D01*
X168148000Y-76348000D02*
X168402000Y-76602000D01*
X168148000Y-75344000D02*
X168148000Y-76348000D01*
X168402000Y-76602000D02*
X168402000Y-77851000D01*
X194945000Y-74930000D02*
X196215000Y-73660000D01*
X176403000Y-74930000D02*
X194945000Y-74930000D01*
X175183811Y-73710811D02*
X176403000Y-74930000D01*
X168605189Y-73710811D02*
X175183811Y-73710811D01*
X168275000Y-75438000D02*
X168275000Y-74041000D01*
X168275000Y-74041000D02*
X168605189Y-73710811D01*
X173228000Y-75438000D02*
X173228000Y-75344000D01*
X173228000Y-76581000D02*
X173228000Y-75438000D01*
X172085000Y-77724000D02*
X173228000Y-76581000D01*
X170937000Y-78029000D02*
X171242000Y-77724000D01*
X171242000Y-77724000D02*
X172085000Y-77724000D01*
X175260000Y-75438000D02*
X173101000Y-75438000D01*
X177292000Y-77470000D02*
X175260000Y-75438000D01*
X196215000Y-76200000D02*
X194945000Y-77470000D01*
X194945000Y-77470000D02*
X177292000Y-77470000D01*
X174750950Y-74142622D02*
X176808328Y-76200000D01*
X176808328Y-76200000D02*
X193675000Y-76200000D01*
X171439378Y-74142622D02*
X174750950Y-74142622D01*
X170688000Y-74894000D02*
X171439378Y-74142622D01*
X170688000Y-75344000D02*
X170688000Y-74894000D01*
X170688000Y-75946000D02*
X170688000Y-75438000D01*
X170688000Y-76708000D02*
X170688000Y-75946000D01*
X169672000Y-78029000D02*
X169672000Y-77724000D01*
X169672000Y-77724000D02*
X170688000Y-76708000D01*
X143002000Y-78613000D02*
X144907000Y-80518000D01*
X143002000Y-77376000D02*
X143002000Y-78613000D01*
X145542000Y-77376000D02*
X145542000Y-78994000D01*
X145542000Y-78994000D02*
X146177000Y-79629000D01*
X146177000Y-79629000D02*
X146177000Y-80518000D01*
X148844000Y-80518000D02*
X148717000Y-80518000D01*
X150622000Y-77376000D02*
X150622000Y-78740000D01*
X150622000Y-78740000D02*
X148844000Y-80518000D01*
X147447000Y-79629000D02*
X147447000Y-80518000D01*
X148082000Y-77376000D02*
X148082000Y-78994000D01*
X148082000Y-78994000D02*
X147447000Y-79629000D01*
X196215000Y-86360000D02*
X196215000Y-86487000D01*
X183769000Y-88773000D02*
X184023000Y-89027000D01*
X180055520Y-88773000D02*
X183769000Y-88773000D01*
X178856640Y-89217500D02*
X179611020Y-89217500D01*
X179611020Y-89217500D02*
X180055520Y-88773000D01*
X196088000Y-86487000D02*
X196469000Y-86487000D01*
X183985000Y-88684000D02*
X184785000Y-87884000D01*
X183985000Y-88900000D02*
X183985000Y-88684000D01*
X184785000Y-87884000D02*
X190627000Y-87884000D01*
X190627000Y-87884000D02*
X190881000Y-87630000D01*
X190881000Y-87630000D02*
X194945000Y-87630000D01*
X194945000Y-87630000D02*
X196088000Y-86487000D01*
X182031640Y-86677500D02*
X183705500Y-86677500D01*
X183705500Y-86677500D02*
X184023000Y-86360000D01*
X184912000Y-87376000D02*
X183896000Y-86360000D01*
X190246000Y-87376000D02*
X184912000Y-87376000D01*
X193675000Y-86360000D02*
X191262000Y-86360000D01*
X191262000Y-86360000D02*
X190246000Y-87376000D01*
X182786020Y-91757500D02*
X183103520Y-91440000D01*
X182031640Y-91757500D02*
X182786020Y-91757500D01*
X183103520Y-91440000D02*
X184023000Y-91440000D01*
X190500000Y-88900000D02*
X193548000Y-88900000D01*
X186944000Y-92456000D02*
X190500000Y-88900000D01*
X184785000Y-92456000D02*
X186944000Y-92456000D01*
X183985000Y-91440000D02*
X183985000Y-91656000D01*
X183985000Y-91656000D02*
X184785000Y-92456000D01*
X184023000Y-93726000D02*
X184023000Y-93980000D01*
X184785000Y-92964000D02*
X184023000Y-93726000D01*
X187325000Y-92964000D02*
X184785000Y-92964000D01*
X190119000Y-90170000D02*
X187325000Y-92964000D01*
X196215000Y-88900000D02*
X194945000Y-90170000D01*
X194945000Y-90170000D02*
X190119000Y-90170000D01*
X179197000Y-93980000D02*
X178816000Y-94361000D01*
X183985000Y-93980000D02*
X179197000Y-93980000D01*
X179451000Y-99568000D02*
X184023000Y-99568000D01*
X178856640Y-100012500D02*
X179006500Y-100012500D01*
X179006500Y-100012500D02*
X179451000Y-99568000D01*
X182031640Y-97472500D02*
X183705500Y-97472500D01*
X183705500Y-97472500D02*
X184023000Y-97155000D01*
X184912000Y-98171000D02*
X183896000Y-97155000D01*
X186944000Y-98171000D02*
X184912000Y-98171000D01*
X187833000Y-97282000D02*
X186944000Y-98171000D01*
X187833000Y-93853000D02*
X187833000Y-97282000D01*
X193675000Y-91440000D02*
X190246000Y-91440000D01*
X190246000Y-91440000D02*
X187833000Y-93853000D01*
X178856640Y-105092500D02*
X183578500Y-105092500D01*
X183578500Y-105092500D02*
X183896000Y-104775000D01*
X176743360Y-104140000D02*
X175006000Y-104140000D01*
X174790000Y-101600000D02*
X179832000Y-101600000D01*
X176743360Y-99060000D02*
X174752000Y-99060000D01*
X174790000Y-96520000D02*
X175394000Y-96520000D01*
X175394000Y-96520000D02*
X179959000Y-96520000D01*
X176743360Y-93345000D02*
X174625000Y-93345000D01*
X174790000Y-90805000D02*
X179832000Y-90805000D01*
X179832000Y-90805000D02*
X179959000Y-90805000D01*
X176743360Y-88265000D02*
X174752000Y-88265000D01*
X174790000Y-85725000D02*
X179832000Y-85725000D01*
D26*
X150622000Y-71882000D02*
X150622000Y-72009000D01*
X150622000Y-69977000D02*
X150622000Y-71882000D01*
D28*
X150622000Y-69888000D02*
X150622000Y-69850000D01*
D26*
X148082000Y-69850000D02*
X148082000Y-71882000D01*
D28*
X148082000Y-69888000D02*
X148082000Y-69977000D01*
X148082000Y-69888000D02*
X148082000Y-70104000D01*
D26*
X145542000Y-71976000D02*
X145542000Y-69850000D01*
D28*
X145542000Y-69850000D02*
X145542000Y-69977000D01*
D26*
X143002000Y-69888000D02*
X143002000Y-71882000D01*
D28*
X143002000Y-71976000D02*
X143002000Y-71755000D01*
D26*
X173228000Y-69944000D02*
X173228000Y-67183000D01*
D28*
X173228000Y-67094000D02*
X173228000Y-67056000D01*
D26*
X170688000Y-69944000D02*
X170688000Y-68305000D01*
X170688000Y-67094000D02*
X170688000Y-68305000D01*
X168148000Y-69944000D02*
X168148000Y-68305000D01*
X168148000Y-68305000D02*
X168148000Y-67183000D01*
X165608000Y-67094000D02*
X165608000Y-69977000D01*
D29*
X132080000Y-74930000D02*
X131953000Y-74930000D01*
X131953000Y-74930000D02*
X132080000Y-75057000D01*
X127635000Y-80645000D02*
X127635000Y-79375000D01*
X127635000Y-79375000D02*
X132080000Y-74930000D01*
X115570000Y-80645000D02*
X115570000Y-79375000D01*
X115570000Y-79375000D02*
X120142000Y-74803000D01*
X103505000Y-80645000D02*
X103505000Y-79629000D01*
X103505000Y-79629000D02*
X107950000Y-75184000D01*
X95885000Y-74930000D02*
X95758000Y-74930000D01*
X91440000Y-80645000D02*
X91440000Y-80772000D01*
X91440000Y-79121000D02*
X91440000Y-80645000D01*
X95758000Y-74930000D02*
X95631000Y-74930000D01*
X95631000Y-74930000D02*
X91440000Y-79121000D01*
D26*
X91440000Y-83185000D02*
X92710000Y-83185000D01*
X92710000Y-83185000D02*
X95885000Y-80010000D01*
X114046000Y-83185000D02*
X115570000Y-83185000D01*
X110998000Y-80137000D02*
X114046000Y-83185000D01*
X107950000Y-80010000D02*
X108077000Y-80137000D01*
X108077000Y-80137000D02*
X110998000Y-80137000D01*
X102235000Y-83185000D02*
X103378000Y-83185000D01*
X95885000Y-80010000D02*
X99060000Y-80010000D01*
X99060000Y-80010000D02*
X102235000Y-83185000D01*
X107823000Y-80010000D02*
X107950000Y-80010000D01*
X107823000Y-80124236D02*
X107823000Y-80010000D01*
X103505000Y-83185000D02*
X104762236Y-83185000D01*
X104762236Y-83185000D02*
X107823000Y-80124236D01*
X115570000Y-83185000D02*
X116840000Y-83185000D01*
X116840000Y-83185000D02*
X119888000Y-80137000D01*
X125476000Y-83185000D02*
X127635000Y-83185000D01*
X120015000Y-80010000D02*
X122301000Y-80010000D01*
X122301000Y-80010000D02*
X125476000Y-83185000D01*
X129159000Y-83185000D02*
X127635000Y-83185000D01*
X132080000Y-80010000D02*
X132080000Y-80264000D01*
X132080000Y-80264000D02*
X129159000Y-83185000D01*
X143002000Y-94234000D02*
X148590000Y-94234000D01*
X148717000Y-94234000D02*
X154432000Y-94234000D01*
X154432000Y-94234000D02*
X160147000Y-94234000D01*
D28*
X196215000Y-99060000D02*
X193294000Y-99060000D01*
X181409000Y-111760000D02*
X181663000Y-112014000D01*
X180020000Y-111760000D02*
X181409000Y-111760000D01*
X181663000Y-112014000D02*
X185547000Y-112014000D01*
X179959000Y-109220000D02*
X179959000Y-111760000D01*
X168402000Y-94234000D02*
X169341811Y-95173811D01*
X160147000Y-94234000D02*
X168402000Y-94234000D01*
X169341811Y-95173811D02*
X169341811Y-103301811D01*
X169341811Y-103301811D02*
X172212000Y-106172000D01*
X172212000Y-106172000D02*
X176911000Y-106172000D01*
X176911000Y-106172000D02*
X179959000Y-109220000D01*
D27*
X196215000Y-99060000D02*
X193548000Y-99060000D01*
X182425000Y-111760000D02*
X182679000Y-112014000D01*
X180020000Y-111760000D02*
X182425000Y-111760000D01*
X182679000Y-112014000D02*
X185547000Y-112014000D01*
X190975294Y-111092294D02*
X192405000Y-112522000D01*
X190975294Y-100616706D02*
X190975294Y-111092294D01*
X193675000Y-99060000D02*
X192532000Y-99060000D01*
X192532000Y-99060000D02*
X190975294Y-100616706D01*
X192151000Y-112014000D02*
X185420000Y-112014000D01*
X192405000Y-112395000D02*
X192405000Y-112268000D01*
X192405000Y-112268000D02*
X192151000Y-112014000D01*
D26*
X142367000Y-94234000D02*
X143129000Y-94234000D01*
X141351000Y-93218000D02*
X142367000Y-94234000D01*
X141351000Y-86995000D02*
X141351000Y-93218000D01*
X132080000Y-80010000D02*
X134366000Y-80010000D01*
X134366000Y-80010000D02*
X141351000Y-86995000D01*
X178856640Y-87312500D02*
X179992020Y-87312500D01*
X180055520Y-87376000D02*
X179992020Y-87312500D01*
X182031640Y-89852500D02*
X182816500Y-89852500D01*
X182816500Y-89852500D02*
X183134000Y-90170000D01*
D30*
X182031640Y-84772500D02*
X181927500Y-84772500D01*
X181927500Y-84772500D02*
X181102000Y-85598000D01*
X181102000Y-86202520D02*
X179992020Y-87312500D01*
X181102000Y-85598000D02*
X181102000Y-86202520D01*
X185547000Y-84963000D02*
X185547000Y-86360000D01*
X182031640Y-84772500D02*
X185356500Y-84772500D01*
X185356500Y-84772500D02*
X185547000Y-84963000D01*
X185585000Y-89654800D02*
X185069800Y-90170000D01*
X185585000Y-88900000D02*
X185585000Y-89654800D01*
X185069800Y-90170000D02*
X183134000Y-90170000D01*
X185585000Y-90685200D02*
X185069800Y-90170000D01*
X185585000Y-91440000D02*
X185585000Y-90685200D01*
X181356000Y-89916000D02*
X181991000Y-89916000D01*
X180975000Y-90297000D02*
X181356000Y-89916000D01*
X180975000Y-91811597D02*
X180975000Y-90297000D01*
X178856640Y-92392500D02*
X180394097Y-92392500D01*
X180394097Y-92392500D02*
X180975000Y-91811597D01*
X182031640Y-95567500D02*
X183451500Y-95567500D01*
X183451500Y-95567500D02*
X183515000Y-95504000D01*
X185547000Y-94869000D02*
X185547000Y-93980000D01*
X183515000Y-95504000D02*
X184912000Y-95504000D01*
X184912000Y-95504000D02*
X185547000Y-94869000D01*
X185585000Y-96177000D02*
X184912000Y-95504000D01*
X185585000Y-97155000D02*
X185585000Y-96177000D01*
X181356000Y-95504000D02*
X181991000Y-95504000D01*
X180975000Y-95885000D02*
X181356000Y-95504000D01*
X180975000Y-97790000D02*
X180975000Y-95885000D01*
X178856640Y-98107500D02*
X180657500Y-98107500D01*
X180657500Y-98107500D02*
X180975000Y-97790000D01*
X182031640Y-100647500D02*
X182689500Y-100647500D01*
X182689500Y-100647500D02*
X183007000Y-100965000D01*
X181229000Y-100711000D02*
X181991000Y-100711000D01*
X180975000Y-100965000D02*
X181229000Y-100711000D01*
X180975000Y-102616000D02*
X180975000Y-100965000D01*
X178856640Y-103187500D02*
X180403500Y-103187500D01*
X180403500Y-103187500D02*
X180975000Y-102616000D01*
X185039000Y-100965000D02*
X185547000Y-101473000D01*
X185547000Y-101473000D02*
X185547000Y-102235000D01*
X185069800Y-100965000D02*
X185039000Y-100965000D01*
X185585000Y-100449800D02*
X185069800Y-100965000D01*
X185585000Y-99695000D02*
X185585000Y-100449800D01*
X185039000Y-100965000D02*
X184912000Y-100965000D01*
X183007000Y-100965000D02*
X184912000Y-100965000D01*
X185585000Y-104775000D02*
X185585000Y-106007000D01*
X185585000Y-106007000D02*
X185547000Y-106045000D01*
D31*
X181370000Y-115570000D02*
X181370000Y-113933000D01*
X181370000Y-113933000D02*
X181356000Y-113919000D01*
D28*
X185420000Y-115214400D02*
X185420000Y-116840000D01*
X173609000Y-114058000D02*
X174867000Y-114058000D01*
X174867000Y-114058000D02*
X174879000Y-114046000D01*
X174056000Y-111760000D02*
X174056000Y-110429000D01*
X174056000Y-110429000D02*
X173990000Y-110363000D01*
X172339000Y-121691400D02*
X174599600Y-121691400D01*
X174599600Y-121691400D02*
X174625000Y-121666000D01*
D31*
X178120000Y-111760000D02*
X176022000Y-111760000D01*
X176784000Y-111887000D02*
X176022000Y-111887000D01*
X176770000Y-115570000D02*
X176770000Y-111901000D01*
X176770000Y-111901000D02*
X176784000Y-111887000D01*
D28*
X148712000Y-83769000D02*
X156007000Y-83769000D01*
X156007000Y-83769000D02*
X156972000Y-82804000D01*
X161925000Y-81280000D02*
X167132000Y-81280000D01*
X168402000Y-81229000D02*
X167335000Y-81229000D01*
X167335000Y-81229000D02*
X167284000Y-81280000D01*
X167284000Y-81280000D02*
X167132000Y-81280000D01*
X169672000Y-81229000D02*
X168453000Y-81229000D01*
X168453000Y-81229000D02*
X168402000Y-81280000D01*
X170937000Y-81229000D02*
X169723000Y-81229000D01*
X169723000Y-81229000D02*
X169672000Y-81280000D01*
X144912000Y-83769000D02*
X146177000Y-83769000D01*
X146177000Y-83820000D02*
X147447000Y-83820000D01*
X146177000Y-83769000D02*
X146177000Y-83820000D01*
X147447000Y-83820000D02*
X148717000Y-83820000D01*
X147447000Y-83769000D02*
X147447000Y-83820000D01*
D31*
X179070000Y-117788000D02*
X179070000Y-115570000D01*
X179070000Y-121285000D02*
X179070000Y-117788000D01*
X178308000Y-121285000D02*
X179070000Y-121285000D01*
X172339000Y-118592600D02*
X175615600Y-118592600D01*
X175615600Y-118592600D02*
X178308000Y-121285000D01*
X172593000Y-116332000D02*
X172593000Y-118618000D01*
X173609000Y-115558000D02*
X173367000Y-115558000D01*
X173367000Y-115558000D02*
X172593000Y-116332000D01*
X167640000Y-96774000D02*
X166497000Y-95631000D01*
X167640000Y-104140000D02*
X167640000Y-96774000D01*
X171958000Y-108458000D02*
X167640000Y-104140000D01*
X171958000Y-114935000D02*
X171958000Y-108458000D01*
X172593000Y-116332000D02*
X172593000Y-115570000D01*
X172593000Y-115570000D02*
X171958000Y-114935000D01*
D27*
X160147000Y-110731235D02*
X161036000Y-111620235D01*
X160147000Y-109474000D02*
X160147000Y-110731235D01*
X161036000Y-111620235D02*
X161036000Y-115697000D01*
X161036000Y-115697000D02*
X161163000Y-115697000D01*
X154432000Y-109474000D02*
X152146000Y-111760000D01*
X152146000Y-111760000D02*
X152146000Y-115697000D01*
X143306800Y-115697000D02*
X143306800Y-114884200D01*
X143306800Y-114884200D02*
X148717000Y-109474000D01*
X148717000Y-109474000D02*
X148844000Y-109474000D01*
X139954000Y-132461000D02*
X139954000Y-125730000D01*
X139700000Y-132715000D02*
X139954000Y-132461000D01*
X129368845Y-132543845D02*
X129413000Y-132588000D01*
X129368845Y-129584155D02*
X129368845Y-132543845D01*
X131064000Y-127889000D02*
X129368845Y-129584155D01*
X134416800Y-125603000D02*
X131064000Y-125603000D01*
X131064000Y-125603000D02*
X131064000Y-127889000D01*
X134416800Y-115697000D02*
X140639800Y-109474000D01*
X140639800Y-109474000D02*
X143002000Y-109474000D01*
X125095000Y-108231000D02*
X125095000Y-115697000D01*
X132080000Y-102616000D02*
X130710000Y-102616000D01*
X130710000Y-102616000D02*
X125095000Y-108231000D01*
X121742200Y-115697000D02*
X123538251Y-115697000D01*
X123538251Y-115697000D02*
X125095000Y-115697000D01*
X120779999Y-131315001D02*
X120779999Y-126489001D01*
X119380000Y-132715000D02*
X120779999Y-131315001D01*
X120779999Y-126489001D02*
X121666000Y-125603000D01*
X125145800Y-125603000D02*
X123349749Y-125603000D01*
X123349749Y-125603000D02*
X121793000Y-125603000D01*
X112852200Y-115697000D02*
X114648251Y-115697000D01*
X114648251Y-115697000D02*
X116205000Y-115697000D01*
X116255800Y-115697000D02*
X116255800Y-106248200D01*
X116255800Y-106248200D02*
X120015000Y-102489000D01*
X110526690Y-131408310D02*
X110526690Y-127852310D01*
X109220000Y-132715000D02*
X110526690Y-131408310D01*
X110526690Y-127852310D02*
X112776000Y-125603000D01*
X116255800Y-125603000D02*
X112649000Y-125603000D01*
X112852200Y-125603000D02*
X112776000Y-125603000D01*
X100459999Y-131315001D02*
X100459999Y-128902001D01*
X99060000Y-132715000D02*
X100459999Y-131315001D01*
X100459999Y-128902001D02*
X103886000Y-125476000D01*
X107365800Y-125476000D02*
X104140000Y-125476000D01*
X103962200Y-115570000D02*
X105758251Y-115570000D01*
X105758251Y-115570000D02*
X107315000Y-115570000D01*
X107365800Y-115570000D02*
X107365800Y-103200200D01*
X107365800Y-103200200D02*
X107950000Y-102616000D01*
X94996000Y-125857000D02*
X94996000Y-125222000D01*
X88900000Y-132715000D02*
X88900000Y-131953000D01*
X88900000Y-131953000D02*
X94996000Y-125857000D01*
X98475800Y-125349000D02*
X96679749Y-125349000D01*
X96679749Y-125349000D02*
X95123000Y-125349000D01*
X98475800Y-115443000D02*
X96679749Y-115443000D01*
X96679749Y-115443000D02*
X94996000Y-115443000D01*
X95885000Y-114427000D02*
X94996000Y-115316000D01*
X95885000Y-102616000D02*
X95885000Y-114427000D01*
X80391000Y-98044000D02*
X82423000Y-98044000D01*
X77978000Y-100457000D02*
X80391000Y-98044000D01*
X77978000Y-114808000D02*
X77978000Y-100457000D01*
X78105000Y-118160800D02*
X78105000Y-114681000D01*
X78105000Y-114681000D02*
X77978000Y-114808000D01*
X107950000Y-92456000D02*
X114808000Y-92456000D01*
X114808000Y-92456000D02*
X115570000Y-93218000D01*
X120015000Y-92456000D02*
X116459000Y-92456000D01*
X116459000Y-92456000D02*
X115570000Y-93345000D01*
X127635000Y-93345000D02*
X120904000Y-93345000D01*
X120904000Y-93345000D02*
X120015000Y-92456000D01*
X120015000Y-92456000D02*
X120015000Y-92329000D01*
X132080000Y-92456000D02*
X128524000Y-92456000D01*
X128524000Y-92456000D02*
X127635000Y-93345000D01*
X88011000Y-118160800D02*
X88011000Y-116364749D01*
X88011000Y-116364749D02*
X88011000Y-114681000D01*
X88011000Y-96774000D02*
X91440000Y-93345000D01*
X88011000Y-114757200D02*
X88011000Y-96774000D01*
X86487000Y-137414000D02*
X93980000Y-137414000D01*
X84963000Y-135890000D02*
X86487000Y-137414000D01*
X84963000Y-129159000D02*
X84963000Y-135890000D01*
X86995000Y-127127000D02*
X84963000Y-129159000D01*
X87884000Y-123774200D02*
X87884000Y-127127000D01*
X87884000Y-127127000D02*
X86995000Y-127127000D01*
X80314800Y-123774200D02*
X82423000Y-121666000D01*
X77978000Y-123774200D02*
X80314800Y-123774200D01*
X82423000Y-110310898D02*
X82423000Y-108331000D01*
X82423000Y-121666000D02*
X82423000Y-110310898D01*
X77978000Y-127177800D02*
X77978000Y-123698000D01*
X196342000Y-101600000D02*
X193675000Y-101600000D01*
X196469000Y-101727000D02*
X196342000Y-101600000D01*
X196469000Y-125071000D02*
X196469000Y-101727000D01*
X192405000Y-127635000D02*
X193905000Y-127635000D01*
X193905000Y-127635000D02*
X196469000Y-125071000D01*
D29*
X143002000Y-76327000D02*
X143002000Y-77343000D01*
X177237984Y-78740000D02*
X173453417Y-82524567D01*
X173453417Y-82524567D02*
X161772567Y-82524567D01*
X161772567Y-82524567D02*
X154432000Y-75184000D01*
X154432000Y-75184000D02*
X144145000Y-75184000D01*
X193675000Y-78740000D02*
X177237984Y-78740000D01*
X144145000Y-75184000D02*
X143002000Y-76327000D01*
X145542000Y-76327000D02*
X145542000Y-77343000D01*
X146177000Y-75692000D02*
X145542000Y-76327000D01*
X194945000Y-80010000D02*
X176911000Y-80010000D01*
X196215000Y-78740000D02*
X194945000Y-80010000D01*
X176911000Y-80010000D02*
X173863000Y-83058000D01*
X173863000Y-83058000D02*
X161417000Y-83058000D01*
X161417000Y-83058000D02*
X154051000Y-75692000D01*
X154051000Y-75692000D02*
X146177000Y-75692000D01*
X153924000Y-77470000D02*
X150622000Y-77470000D01*
X160782000Y-84328000D02*
X153924000Y-77470000D01*
X174625000Y-84328000D02*
X160782000Y-84328000D01*
X176403000Y-82550000D02*
X174625000Y-84328000D01*
X196215000Y-81280000D02*
X194945000Y-82550000D01*
X194945000Y-82550000D02*
X176403000Y-82550000D01*
X148082000Y-76581000D02*
X148082000Y-77343000D01*
X176657000Y-81280000D02*
X174244000Y-83693000D01*
X193675000Y-81280000D02*
X176657000Y-81280000D01*
X174244000Y-83693000D02*
X161163000Y-83693000D01*
X161163000Y-83693000D02*
X153670000Y-76200000D01*
X153670000Y-76200000D02*
X148463000Y-76200000D01*
X148463000Y-76200000D02*
X148082000Y-76581000D01*
X188290189Y-94157811D02*
X189738000Y-92710000D01*
X187071000Y-98679000D02*
X188290189Y-97459811D01*
X194945000Y-92710000D02*
X196215000Y-91440000D01*
X188290189Y-97459811D02*
X188290189Y-94157811D01*
X183985000Y-99595000D02*
X184901000Y-98679000D01*
X189738000Y-92710000D02*
X194945000Y-92710000D01*
X183985000Y-99695000D02*
X183985000Y-99595000D01*
X184901000Y-98679000D02*
X187071000Y-98679000D01*
X189738000Y-95250000D02*
X191008000Y-93980000D01*
X189738000Y-97155000D02*
X189738000Y-95250000D01*
X183578500Y-102552500D02*
X183896000Y-102235000D01*
X191008000Y-93980000D02*
X193675000Y-93980000D01*
X182031640Y-102552500D02*
X183578500Y-102552500D01*
X183896000Y-102235000D02*
X184912000Y-103251000D01*
X188214000Y-98679000D02*
X189738000Y-97155000D01*
X184912000Y-103251000D02*
X187198000Y-103251000D01*
X187198000Y-103251000D02*
X188214000Y-102235000D01*
X188214000Y-102235000D02*
X188214000Y-98679000D01*
X191262000Y-95250000D02*
X195072000Y-95250000D01*
X190373000Y-96139000D02*
X191262000Y-95250000D01*
X183985000Y-104775000D02*
X183985000Y-104686000D01*
X195072000Y-95250000D02*
X196342000Y-93980000D01*
X190373000Y-97536000D02*
X190373000Y-96139000D01*
X184912000Y-103759000D02*
X187579000Y-103759000D01*
X187579000Y-103759000D02*
X188849000Y-102489000D01*
X183985000Y-104686000D02*
X184912000Y-103759000D01*
X188849000Y-102489000D02*
X188849000Y-99060000D01*
X188849000Y-99060000D02*
X190373000Y-97536000D01*
X172974000Y-104140000D02*
X173228000Y-104140000D01*
X168148000Y-91694000D02*
X170307000Y-93853000D01*
X160147000Y-91694000D02*
X168148000Y-91694000D01*
X170307000Y-93853000D02*
X170307000Y-98044000D01*
X170307000Y-98044000D02*
X170688000Y-98425000D01*
X170688000Y-98425000D02*
X170688000Y-101854000D01*
X170688000Y-101854000D02*
X172974000Y-104140000D01*
X166980672Y-89154000D02*
X156972000Y-89154000D01*
X170815000Y-92988328D02*
X166980672Y-89154000D01*
X173101000Y-101600000D02*
X172339000Y-101600000D01*
X173228000Y-101727000D02*
X173101000Y-101600000D01*
X172339000Y-101600000D02*
X171450000Y-100711000D01*
X156972000Y-89154000D02*
X154432000Y-91694000D01*
X171450000Y-100711000D02*
X171450000Y-97917000D01*
X171450000Y-97917000D02*
X170815000Y-97282000D01*
X170815000Y-97282000D02*
X170815000Y-92988328D01*
X172466000Y-99060000D02*
X173190000Y-99060000D01*
X152019000Y-88392000D02*
X167742672Y-88392000D01*
X148717000Y-91694000D02*
X152019000Y-88392000D01*
X167742672Y-88392000D02*
X171323000Y-91972328D01*
X171323000Y-91972328D02*
X171323000Y-96266000D01*
X171323000Y-96266000D02*
X172085000Y-97028000D01*
X172085000Y-98679000D02*
X172466000Y-99060000D01*
X172085000Y-97028000D02*
X172085000Y-98679000D01*
X171831000Y-95377000D02*
X173101000Y-96647000D01*
X171831000Y-91186000D02*
X171831000Y-95377000D01*
X168275000Y-87630000D02*
X171831000Y-91186000D01*
X143002000Y-91567000D02*
X146939000Y-87630000D01*
X146939000Y-87630000D02*
X168275000Y-87630000D01*
X132207000Y-75057000D02*
X132207000Y-74930000D01*
X136652000Y-76073000D02*
X135509000Y-74930000D01*
X136652000Y-80645000D02*
X136652000Y-76073000D01*
X132334000Y-74930000D02*
X132207000Y-75057000D01*
X172593000Y-93345000D02*
X172339000Y-93091000D01*
X135509000Y-74930000D02*
X132334000Y-74930000D01*
X173190000Y-93345000D02*
X172593000Y-93345000D01*
X172339000Y-93091000D02*
X172339000Y-90424000D01*
X172339000Y-90424000D02*
X168910000Y-86995000D01*
X168910000Y-86995000D02*
X143002000Y-86995000D01*
X143002000Y-86995000D02*
X136652000Y-80645000D01*
X121920000Y-72898000D02*
X119888000Y-74930000D01*
X134747000Y-72898000D02*
X121920000Y-72898000D01*
X137287000Y-75438000D02*
X134747000Y-72898000D01*
X137287000Y-80391000D02*
X137287000Y-75438000D01*
X173190000Y-90767000D02*
X172847000Y-90424000D01*
X173190000Y-90805000D02*
X173190000Y-90767000D01*
X172847000Y-90424000D02*
X172847000Y-89662000D01*
X172847000Y-89662000D02*
X169672000Y-86487000D01*
X169672000Y-86487000D02*
X143383000Y-86487000D01*
X143383000Y-86487000D02*
X137287000Y-80391000D01*
X170688000Y-85852000D02*
X173101000Y-88265000D01*
X110744000Y-72136000D02*
X134874000Y-72136000D01*
X107950000Y-74930000D02*
X110744000Y-72136000D01*
X134874000Y-72136000D02*
X137922000Y-75184000D01*
X137922000Y-75184000D02*
X137922000Y-80264000D01*
X137922000Y-80264000D02*
X143510000Y-85852000D01*
X143510000Y-85852000D02*
X170688000Y-85852000D01*
X172749683Y-85284683D02*
X143831683Y-85284683D01*
X173190000Y-85725000D02*
X172749683Y-85284683D01*
X99187000Y-71501000D02*
X95758000Y-74930000D01*
X143831683Y-85284683D02*
X138557000Y-80010000D01*
X138557000Y-80010000D02*
X138557000Y-74803000D01*
X138557000Y-74803000D02*
X135255000Y-71501000D01*
X135255000Y-71501000D02*
X99187000Y-71501000D01*
D27*
X81116310Y-91784310D02*
X81116310Y-85561310D01*
X82423000Y-93091000D02*
X81116310Y-91784310D01*
X81116310Y-85561310D02*
X81026000Y-85471000D01*
X77673200Y-85471000D02*
X79469251Y-85471000D01*
X79469251Y-85471000D02*
X81026000Y-85471000D01*
X143002000Y-104394000D02*
X148844000Y-104394000D01*
X148717000Y-104394000D02*
X154432000Y-104394000D01*
X154432000Y-104394000D02*
X160147000Y-104394000D01*
X138684000Y-104394000D02*
X143764000Y-104394000D01*
X135763000Y-101473000D02*
X138684000Y-104394000D01*
X135763000Y-91198124D02*
X135763000Y-101473000D01*
X81153000Y-75565000D02*
X84328000Y-78740000D01*
X77673200Y-75565000D02*
X81153000Y-75565000D01*
X84328000Y-78740000D02*
X84328000Y-87122000D01*
X84328000Y-87122000D02*
X86106000Y-88900000D01*
X86106000Y-88900000D02*
X133464876Y-88900000D01*
X133464876Y-88900000D02*
X135763000Y-91198124D01*
M02*
