G04 #@! TF.GenerationSoftware,KiCad,Pcbnew,(6.0.0-rc1-dev-1670-gc0cd4c03f)*
G04 #@! TF.CreationDate,2019-02-03T16:26:57-05:00
G04 #@! TF.ProjectId,AC_ISO_Board,41435f49-534f-45f4-926f-6172642e6b69,rev?*
G04 #@! TF.SameCoordinates,Original*
G04 #@! TF.FileFunction,Legend,Top*
G04 #@! TF.FilePolarity,Positive*
%FSLAX46Y46*%
G04 Gerber Fmt 4.6, Leading zero omitted, Abs format (unit mm)*
G04 Created by KiCad (PCBNEW (6.0.0-rc1-dev-1670-gc0cd4c03f)) date 2019-02-03 16:26:57*
%MOMM*%
%LPD*%
G04 APERTURE LIST*
%ADD10C,0.254000*%
%ADD11C,0.150000*%
%ADD12C,0.381000*%
%ADD13C,0.127000*%
%ADD14C,0.203200*%
%ADD15C,0.304800*%
%ADD16C,0.299720*%
%ADD17C,0.250000*%
%ADD18C,0.130048*%
%ADD19C,0.099060*%
%ADD20C,0.100000*%
G04 APERTURE END LIST*
D10*
X170391666Y-136355666D02*
X171238333Y-136355666D01*
X170222333Y-136936238D02*
X170815000Y-134904238D01*
X171407666Y-136936238D01*
X173016333Y-136742714D02*
X172931666Y-136839476D01*
X172677666Y-136936238D01*
X172508333Y-136936238D01*
X172254333Y-136839476D01*
X172085000Y-136645952D01*
X172000333Y-136452428D01*
X171915666Y-136065380D01*
X171915666Y-135775095D01*
X172000333Y-135388047D01*
X172085000Y-135194523D01*
X172254333Y-135001000D01*
X172508333Y-134904238D01*
X172677666Y-134904238D01*
X172931666Y-135001000D01*
X173016333Y-135097761D01*
X173609000Y-134904238D02*
X174794333Y-134904238D01*
X174032333Y-136936238D01*
X176826333Y-136742714D02*
X176911000Y-136839476D01*
X176826333Y-136936238D01*
X176741666Y-136839476D01*
X176826333Y-136742714D01*
X176826333Y-136936238D01*
X177673000Y-136742714D02*
X177757666Y-136839476D01*
X177673000Y-136936238D01*
X177588333Y-136839476D01*
X177673000Y-136742714D01*
X177673000Y-136936238D01*
X178519666Y-136742714D02*
X178604333Y-136839476D01*
X178519666Y-136936238D01*
X178435000Y-136839476D01*
X178519666Y-136742714D01*
X178519666Y-136936238D01*
X180636333Y-136355666D02*
X181483000Y-136355666D01*
X180467000Y-136936238D02*
X181059666Y-134904238D01*
X181652333Y-136936238D01*
X183261000Y-136742714D02*
X183176333Y-136839476D01*
X182922333Y-136936238D01*
X182753000Y-136936238D01*
X182499000Y-136839476D01*
X182329666Y-136645952D01*
X182245000Y-136452428D01*
X182160333Y-136065380D01*
X182160333Y-135775095D01*
X182245000Y-135388047D01*
X182329666Y-135194523D01*
X182499000Y-135001000D01*
X182753000Y-134904238D01*
X182922333Y-134904238D01*
X183176333Y-135001000D01*
X183261000Y-135097761D01*
X184361666Y-134904238D02*
X184531000Y-134904238D01*
X184700333Y-135001000D01*
X184785000Y-135097761D01*
X184869666Y-135291285D01*
X184954333Y-135678333D01*
X184954333Y-136162142D01*
X184869666Y-136549190D01*
X184785000Y-136742714D01*
X184700333Y-136839476D01*
X184531000Y-136936238D01*
X184361666Y-136936238D01*
X184192333Y-136839476D01*
X184107666Y-136742714D01*
X184023000Y-136549190D01*
X183938333Y-136162142D01*
X183938333Y-135678333D01*
X184023000Y-135291285D01*
X184107666Y-135097761D01*
X184192333Y-135001000D01*
X184361666Y-134904238D01*
D11*
X148819809Y-64116857D02*
X149787428Y-64116857D01*
X150392190Y-64697428D02*
X150392190Y-63173428D01*
X150996952Y-64697428D02*
X150996952Y-63173428D01*
X151722666Y-64697428D01*
X151722666Y-63173428D01*
X153174095Y-63173428D02*
X154020761Y-63173428D01*
X153476476Y-64697428D01*
X154504571Y-64116857D02*
X155472190Y-64116857D01*
X154988380Y-64697428D02*
X154988380Y-63536285D01*
X159106809Y-64116857D02*
X160074428Y-64116857D01*
X160679190Y-64697428D02*
X160679190Y-63173428D01*
X161283952Y-64697428D02*
X161283952Y-63173428D01*
X162009666Y-64697428D01*
X162009666Y-63173428D01*
X164126333Y-63173428D02*
X163884428Y-63173428D01*
X163763476Y-63246000D01*
X163703000Y-63318571D01*
X163582047Y-63536285D01*
X163521571Y-63826571D01*
X163521571Y-64407142D01*
X163582047Y-64552285D01*
X163642523Y-64624857D01*
X163763476Y-64697428D01*
X164005380Y-64697428D01*
X164126333Y-64624857D01*
X164186809Y-64552285D01*
X164247285Y-64407142D01*
X164247285Y-64044285D01*
X164186809Y-63899142D01*
X164126333Y-63826571D01*
X164005380Y-63754000D01*
X163763476Y-63754000D01*
X163642523Y-63826571D01*
X163582047Y-63899142D01*
X163521571Y-64044285D01*
X164791571Y-64116857D02*
X165759190Y-64116857D01*
X165275380Y-64697428D02*
X165275380Y-63536285D01*
X169139809Y-64116857D02*
X170107428Y-64116857D01*
X170712190Y-64697428D02*
X170712190Y-63173428D01*
X171316952Y-64697428D02*
X171316952Y-63173428D01*
X172042666Y-64697428D01*
X172042666Y-63173428D01*
X174219809Y-63173428D02*
X173615047Y-63173428D01*
X173554571Y-63899142D01*
X173615047Y-63826571D01*
X173736000Y-63754000D01*
X174038380Y-63754000D01*
X174159333Y-63826571D01*
X174219809Y-63899142D01*
X174280285Y-64044285D01*
X174280285Y-64407142D01*
X174219809Y-64552285D01*
X174159333Y-64624857D01*
X174038380Y-64697428D01*
X173736000Y-64697428D01*
X173615047Y-64624857D01*
X173554571Y-64552285D01*
X174824571Y-64116857D02*
X175792190Y-64116857D01*
X175308380Y-64697428D02*
X175308380Y-63536285D01*
X179426809Y-64243857D02*
X180394428Y-64243857D01*
X180999190Y-64824428D02*
X180999190Y-63300428D01*
X181603952Y-64824428D02*
X181603952Y-63300428D01*
X182329666Y-64824428D01*
X182329666Y-63300428D01*
X184446333Y-63808428D02*
X184446333Y-64824428D01*
X184143952Y-63227857D02*
X183841571Y-64316428D01*
X184627761Y-64316428D01*
X185111571Y-64243857D02*
X186079190Y-64243857D01*
X185595380Y-64824428D02*
X185595380Y-63663285D01*
X108560809Y-64243857D02*
X109528428Y-64243857D01*
X110133190Y-64824428D02*
X110133190Y-63300428D01*
X110737952Y-64824428D02*
X110737952Y-63300428D01*
X111463666Y-64824428D01*
X111463666Y-63300428D01*
X112915095Y-63300428D02*
X113701285Y-63300428D01*
X113277952Y-63881000D01*
X113459380Y-63881000D01*
X113580333Y-63953571D01*
X113640809Y-64026142D01*
X113701285Y-64171285D01*
X113701285Y-64534142D01*
X113640809Y-64679285D01*
X113580333Y-64751857D01*
X113459380Y-64824428D01*
X113096523Y-64824428D01*
X112975571Y-64751857D01*
X112915095Y-64679285D01*
X114245571Y-64243857D02*
X115213190Y-64243857D01*
X114729380Y-64824428D02*
X114729380Y-63663285D01*
X129388809Y-64243857D02*
X130356428Y-64243857D01*
X130961190Y-64824428D02*
X130961190Y-63300428D01*
X131565952Y-64824428D02*
X131565952Y-63300428D01*
X132291666Y-64824428D01*
X132291666Y-63300428D01*
X134529285Y-64824428D02*
X133803571Y-64824428D01*
X134166428Y-64824428D02*
X134166428Y-63300428D01*
X134045476Y-63518142D01*
X133924523Y-63663285D01*
X133803571Y-63735857D01*
X135073571Y-64243857D02*
X136041190Y-64243857D01*
X135557380Y-64824428D02*
X135557380Y-63663285D01*
X118974809Y-64243857D02*
X119942428Y-64243857D01*
X120547190Y-64824428D02*
X120547190Y-63300428D01*
X121151952Y-64824428D02*
X121151952Y-63300428D01*
X121877666Y-64824428D01*
X121877666Y-63300428D01*
X123389571Y-63445571D02*
X123450047Y-63373000D01*
X123571000Y-63300428D01*
X123873380Y-63300428D01*
X123994333Y-63373000D01*
X124054809Y-63445571D01*
X124115285Y-63590714D01*
X124115285Y-63735857D01*
X124054809Y-63953571D01*
X123329095Y-64824428D01*
X124115285Y-64824428D01*
X124659571Y-64243857D02*
X125627190Y-64243857D01*
X125143380Y-64824428D02*
X125143380Y-63663285D01*
X139802809Y-64243857D02*
X140770428Y-64243857D01*
X141375190Y-64824428D02*
X141375190Y-63300428D01*
X141979952Y-64824428D02*
X141979952Y-63300428D01*
X142705666Y-64824428D01*
X142705666Y-63300428D01*
X144519952Y-63300428D02*
X144640904Y-63300428D01*
X144761857Y-63373000D01*
X144822333Y-63445571D01*
X144882809Y-63590714D01*
X144943285Y-63881000D01*
X144943285Y-64243857D01*
X144882809Y-64534142D01*
X144822333Y-64679285D01*
X144761857Y-64751857D01*
X144640904Y-64824428D01*
X144519952Y-64824428D01*
X144399000Y-64751857D01*
X144338523Y-64679285D01*
X144278047Y-64534142D01*
X144217571Y-64243857D01*
X144217571Y-63881000D01*
X144278047Y-63590714D01*
X144338523Y-63445571D01*
X144399000Y-63373000D01*
X144519952Y-63300428D01*
X145487571Y-64243857D02*
X146455190Y-64243857D01*
X145971380Y-64824428D02*
X145971380Y-63663285D01*
D10*
X90085333Y-56037238D02*
X90085333Y-54005238D01*
X90847333Y-55940476D02*
X91101333Y-56037238D01*
X91524666Y-56037238D01*
X91694000Y-55940476D01*
X91778666Y-55843714D01*
X91863333Y-55650190D01*
X91863333Y-55456666D01*
X91778666Y-55263142D01*
X91694000Y-55166380D01*
X91524666Y-55069619D01*
X91186000Y-54972857D01*
X91016666Y-54876095D01*
X90932000Y-54779333D01*
X90847333Y-54585809D01*
X90847333Y-54392285D01*
X90932000Y-54198761D01*
X91016666Y-54102000D01*
X91186000Y-54005238D01*
X91609333Y-54005238D01*
X91863333Y-54102000D01*
X92964000Y-54005238D02*
X93302666Y-54005238D01*
X93472000Y-54102000D01*
X93641333Y-54295523D01*
X93726000Y-54682571D01*
X93726000Y-55359904D01*
X93641333Y-55746952D01*
X93472000Y-55940476D01*
X93302666Y-56037238D01*
X92964000Y-56037238D01*
X92794666Y-55940476D01*
X92625333Y-55746952D01*
X92540666Y-55359904D01*
X92540666Y-54682571D01*
X92625333Y-54295523D01*
X92794666Y-54102000D01*
X92964000Y-54005238D01*
X95334666Y-56037238D02*
X94488000Y-56037238D01*
X94488000Y-54005238D01*
X95842666Y-55456666D02*
X96689333Y-55456666D01*
X95673333Y-56037238D02*
X96266000Y-54005238D01*
X96858666Y-56037238D01*
X97197333Y-54005238D02*
X98213333Y-54005238D01*
X97705333Y-56037238D02*
X97705333Y-54005238D01*
X98806000Y-54972857D02*
X99398666Y-54972857D01*
X99652666Y-56037238D02*
X98806000Y-56037238D01*
X98806000Y-54005238D01*
X99652666Y-54005238D01*
X100414666Y-56037238D02*
X100414666Y-54005238D01*
X100838000Y-54005238D01*
X101092000Y-54102000D01*
X101261333Y-54295523D01*
X101346000Y-54489047D01*
X101430666Y-54876095D01*
X101430666Y-55166380D01*
X101346000Y-55553428D01*
X101261333Y-55746952D01*
X101092000Y-55940476D01*
X100838000Y-56037238D01*
X100414666Y-56037238D01*
X92117333Y-59339238D02*
X92117333Y-57307238D01*
X92964000Y-59339238D02*
X92964000Y-57307238D01*
X93980000Y-59339238D01*
X93980000Y-57307238D01*
X94826666Y-59339238D02*
X94826666Y-57307238D01*
X95504000Y-57307238D01*
X95673333Y-57404000D01*
X95758000Y-57500761D01*
X95842666Y-57694285D01*
X95842666Y-57984571D01*
X95758000Y-58178095D01*
X95673333Y-58274857D01*
X95504000Y-58371619D01*
X94826666Y-58371619D01*
X96604666Y-57307238D02*
X96604666Y-58952190D01*
X96689333Y-59145714D01*
X96774000Y-59242476D01*
X96943333Y-59339238D01*
X97282000Y-59339238D01*
X97451333Y-59242476D01*
X97536000Y-59145714D01*
X97620666Y-58952190D01*
X97620666Y-57307238D01*
X98213333Y-57307238D02*
X99229333Y-57307238D01*
X98721333Y-59339238D02*
X98721333Y-57307238D01*
X99737333Y-59242476D02*
X99991333Y-59339238D01*
X100414666Y-59339238D01*
X100584000Y-59242476D01*
X100668666Y-59145714D01*
X100753333Y-58952190D01*
X100753333Y-58758666D01*
X100668666Y-58565142D01*
X100584000Y-58468380D01*
X100414666Y-58371619D01*
X100076000Y-58274857D01*
X99906666Y-58178095D01*
X99822000Y-58081333D01*
X99737333Y-57887809D01*
X99737333Y-57694285D01*
X99822000Y-57500761D01*
X99906666Y-57404000D01*
X100076000Y-57307238D01*
X100499333Y-57307238D01*
X100753333Y-57404000D01*
D11*
X158242000Y-89154000D02*
X158242000Y-111379000D01*
X158242000Y-111379000D02*
X162052000Y-111379000D01*
X162052000Y-111379000D02*
X162052000Y-89154000D01*
X162052000Y-89154000D02*
X158242000Y-89154000D01*
D12*
X183520080Y-116161820D02*
X183520080Y-111163100D01*
X187319920Y-116164360D02*
X187319920Y-111165640D01*
X187319920Y-110665260D02*
X183520080Y-110665260D01*
D13*
X176606000Y-112660000D02*
X173406000Y-112660000D01*
X173406000Y-112660000D02*
X173406000Y-110860000D01*
X173406000Y-110860000D02*
X176606000Y-110860000D01*
X176606000Y-110860000D02*
X176606000Y-112660000D01*
X173037500Y-116014500D02*
X173037500Y-113601500D01*
X173037500Y-113601500D02*
X174180500Y-113601500D01*
X174180500Y-113601500D02*
X174180500Y-116014500D01*
X174180500Y-116014500D02*
X173037500Y-116014500D01*
D12*
X174238920Y-117142260D02*
X170439080Y-117142260D01*
X174238920Y-122641360D02*
X174238920Y-117642640D01*
X170439080Y-122638820D02*
X170439080Y-117640100D01*
D11*
X159385000Y-123190000D02*
X159385000Y-125095000D01*
X159385000Y-118110000D02*
X159385000Y-116205000D01*
D14*
X159385000Y-120650000D02*
G75*
G02X158115000Y-121920000I0J-1270000D01*
G01*
X159385000Y-120650000D02*
G75*
G02X160655000Y-119380000I0J1270000D01*
G01*
D11*
X155575000Y-128905000D02*
X163195000Y-128905000D01*
X155575000Y-112395000D02*
X155575000Y-128905000D01*
X163195000Y-112395000D02*
X155575000Y-112395000D01*
X163195000Y-128905000D02*
X163195000Y-112395000D01*
X154305000Y-128905000D02*
X154305000Y-112395000D01*
X154305000Y-112395000D02*
X146685000Y-112395000D01*
X146685000Y-112395000D02*
X146685000Y-128905000D01*
X146685000Y-128905000D02*
X154305000Y-128905000D01*
D14*
X150495000Y-120650000D02*
G75*
G02X151765000Y-119380000I0J1270000D01*
G01*
X150495000Y-120650000D02*
G75*
G02X149225000Y-121920000I0J-1270000D01*
G01*
D11*
X150495000Y-118110000D02*
X150495000Y-116205000D01*
X150495000Y-123190000D02*
X150495000Y-125095000D01*
X141605000Y-123190000D02*
X141605000Y-125095000D01*
X141605000Y-118110000D02*
X141605000Y-116205000D01*
D14*
X141605000Y-120650000D02*
G75*
G02X140335000Y-121920000I0J-1270000D01*
G01*
X141605000Y-120650000D02*
G75*
G02X142875000Y-119380000I0J1270000D01*
G01*
D11*
X137795000Y-128905000D02*
X145415000Y-128905000D01*
X137795000Y-112395000D02*
X137795000Y-128905000D01*
X145415000Y-112395000D02*
X137795000Y-112395000D01*
X145415000Y-128905000D02*
X145415000Y-112395000D01*
X136525000Y-128905000D02*
X136525000Y-112395000D01*
X136525000Y-112395000D02*
X128905000Y-112395000D01*
X128905000Y-112395000D02*
X128905000Y-128905000D01*
X128905000Y-128905000D02*
X136525000Y-128905000D01*
D14*
X132715000Y-120650000D02*
G75*
G02X133985000Y-119380000I0J1270000D01*
G01*
X132715000Y-120650000D02*
G75*
G02X131445000Y-121920000I0J-1270000D01*
G01*
D11*
X132715000Y-118110000D02*
X132715000Y-116205000D01*
X132715000Y-123190000D02*
X132715000Y-125095000D01*
X123444000Y-123190000D02*
X123444000Y-125095000D01*
X123444000Y-118110000D02*
X123444000Y-116205000D01*
D14*
X123444000Y-120650000D02*
G75*
G02X122174000Y-121920000I0J-1270000D01*
G01*
X123444000Y-120650000D02*
G75*
G02X124714000Y-119380000I0J1270000D01*
G01*
D11*
X119634000Y-128905000D02*
X127254000Y-128905000D01*
X119634000Y-112395000D02*
X119634000Y-128905000D01*
X127254000Y-112395000D02*
X119634000Y-112395000D01*
X127254000Y-128905000D02*
X127254000Y-112395000D01*
X114554000Y-123190000D02*
X114554000Y-125095000D01*
X114554000Y-118110000D02*
X114554000Y-116205000D01*
D14*
X114554000Y-120650000D02*
G75*
G02X113284000Y-121920000I0J-1270000D01*
G01*
X114554000Y-120650000D02*
G75*
G02X115824000Y-119380000I0J1270000D01*
G01*
D11*
X110744000Y-128905000D02*
X118364000Y-128905000D01*
X110744000Y-112395000D02*
X110744000Y-128905000D01*
X118364000Y-112395000D02*
X110744000Y-112395000D01*
X118364000Y-128905000D02*
X118364000Y-112395000D01*
X109474000Y-128778000D02*
X109474000Y-112268000D01*
X109474000Y-112268000D02*
X101854000Y-112268000D01*
X101854000Y-112268000D02*
X101854000Y-128778000D01*
X101854000Y-128778000D02*
X109474000Y-128778000D01*
D14*
X105664000Y-120523000D02*
G75*
G02X106934000Y-119253000I0J1270000D01*
G01*
X105664000Y-120523000D02*
G75*
G02X104394000Y-121793000I0J-1270000D01*
G01*
D11*
X105664000Y-117983000D02*
X105664000Y-116078000D01*
X105664000Y-123063000D02*
X105664000Y-124968000D01*
X100584000Y-128651000D02*
X100584000Y-112141000D01*
X100584000Y-112141000D02*
X92964000Y-112141000D01*
X92964000Y-112141000D02*
X92964000Y-128651000D01*
X92964000Y-128651000D02*
X100584000Y-128651000D01*
D14*
X96774000Y-120396000D02*
G75*
G02X98044000Y-119126000I0J1270000D01*
G01*
X96774000Y-120396000D02*
G75*
G02X95504000Y-121666000I0J-1270000D01*
G01*
D11*
X96774000Y-117856000D02*
X96774000Y-115951000D01*
X96774000Y-122936000D02*
X96774000Y-124841000D01*
X74803000Y-120269000D02*
X91313000Y-120269000D01*
X91313000Y-120269000D02*
X91313000Y-112649000D01*
X91313000Y-112649000D02*
X74803000Y-112649000D01*
X74803000Y-112649000D02*
X74803000Y-120269000D01*
D14*
X83058000Y-116459000D02*
G75*
G02X84328000Y-117729000I1270000J0D01*
G01*
X83058000Y-116459000D02*
G75*
G02X81788000Y-115189000I-1270000J0D01*
G01*
D11*
X85598000Y-116459000D02*
X87503000Y-116459000D01*
X80518000Y-116459000D02*
X78613000Y-116459000D01*
X80391000Y-125476000D02*
X78486000Y-125476000D01*
X85471000Y-125476000D02*
X87376000Y-125476000D01*
D14*
X82931000Y-125476000D02*
G75*
G02X81661000Y-124206000I-1270000J0D01*
G01*
X82931000Y-125476000D02*
G75*
G02X84201000Y-126746000I1270000J0D01*
G01*
D11*
X74676000Y-121666000D02*
X74676000Y-129286000D01*
X91186000Y-121666000D02*
X74676000Y-121666000D01*
X91186000Y-129286000D02*
X91186000Y-121666000D01*
X74676000Y-129286000D02*
X91186000Y-129286000D01*
D13*
X180670000Y-112660000D02*
X177470000Y-112660000D01*
X177470000Y-112660000D02*
X177470000Y-110860000D01*
X177470000Y-110860000D02*
X180670000Y-110860000D01*
X180670000Y-110860000D02*
X180670000Y-112660000D01*
D11*
X167980000Y-50725000D02*
X167980000Y-62625000D01*
X146980000Y-50725000D02*
X167980000Y-50725000D01*
X146980000Y-62625000D02*
X146980000Y-50725000D01*
X167980000Y-62625000D02*
X146980000Y-62625000D01*
X72823000Y-90211000D02*
X84723000Y-90211000D01*
X72823000Y-111211000D02*
X72823000Y-90211000D01*
X84723000Y-111211000D02*
X72823000Y-111211000D01*
X84723000Y-90211000D02*
X84723000Y-111211000D01*
X146980000Y-130415000D02*
X167980000Y-130415000D01*
X167980000Y-130415000D02*
X167980000Y-142315000D01*
X167980000Y-142315000D02*
X146980000Y-142315000D01*
X146980000Y-142315000D02*
X146980000Y-130415000D01*
X126660000Y-130415000D02*
X147660000Y-130415000D01*
X147660000Y-130415000D02*
X147660000Y-142315000D01*
X147660000Y-142315000D02*
X126660000Y-142315000D01*
X126660000Y-142315000D02*
X126660000Y-130415000D01*
X106340000Y-142315000D02*
X106340000Y-130415000D01*
X127340000Y-142315000D02*
X106340000Y-142315000D01*
X127340000Y-130415000D02*
X127340000Y-142315000D01*
X106340000Y-130415000D02*
X127340000Y-130415000D01*
X86020000Y-130415000D02*
X107020000Y-130415000D01*
X107020000Y-130415000D02*
X107020000Y-142315000D01*
X107020000Y-142315000D02*
X86020000Y-142315000D01*
X86020000Y-142315000D02*
X86020000Y-130415000D01*
D15*
X199645000Y-106860000D02*
X199645000Y-65860000D01*
X190245000Y-65860000D02*
X190245000Y-106860000D01*
X190245000Y-106860000D02*
X199645000Y-106860000D01*
X190245000Y-65860000D02*
X199645000Y-65860000D01*
D16*
X199645000Y-84060000D02*
X198245000Y-84060000D01*
X198245000Y-84060000D02*
X198245000Y-88660000D01*
X198245000Y-88660000D02*
X199645000Y-88660000D01*
D13*
X178498500Y-105638600D02*
X177101500Y-105638600D01*
X178498500Y-102641400D02*
X178498500Y-105638600D01*
X177101500Y-102641400D02*
X178498500Y-102641400D01*
X177101500Y-105638600D02*
X177101500Y-102641400D01*
X177101500Y-104140000D02*
X176441100Y-104140000D01*
X178498500Y-105092500D02*
X179158900Y-105092500D01*
X178498500Y-103187500D02*
X179158900Y-103187500D01*
X181673500Y-103098600D02*
X180276500Y-103098600D01*
X181673500Y-100101400D02*
X181673500Y-103098600D01*
X180276500Y-100101400D02*
X181673500Y-100101400D01*
X180276500Y-103098600D02*
X180276500Y-100101400D01*
X180276500Y-101600000D02*
X179616100Y-101600000D01*
X181673500Y-102552500D02*
X182333900Y-102552500D01*
X181673500Y-100647500D02*
X182333900Y-100647500D01*
X178498500Y-100558600D02*
X177101500Y-100558600D01*
X178498500Y-97561400D02*
X178498500Y-100558600D01*
X177101500Y-97561400D02*
X178498500Y-97561400D01*
X177101500Y-100558600D02*
X177101500Y-97561400D01*
X177101500Y-99060000D02*
X176441100Y-99060000D01*
X178498500Y-100012500D02*
X179158900Y-100012500D01*
X178498500Y-98107500D02*
X179158900Y-98107500D01*
X181673500Y-95567500D02*
X182333900Y-95567500D01*
X181673500Y-97472500D02*
X182333900Y-97472500D01*
X180276500Y-96520000D02*
X179616100Y-96520000D01*
X180276500Y-98018600D02*
X180276500Y-95021400D01*
X180276500Y-95021400D02*
X181673500Y-95021400D01*
X181673500Y-95021400D02*
X181673500Y-98018600D01*
X181673500Y-98018600D02*
X180276500Y-98018600D01*
X178498500Y-92392500D02*
X179158900Y-92392500D01*
X178498500Y-94297500D02*
X179158900Y-94297500D01*
X177101500Y-93345000D02*
X176441100Y-93345000D01*
X177101500Y-94843600D02*
X177101500Y-91846400D01*
X177101500Y-91846400D02*
X178498500Y-91846400D01*
X178498500Y-91846400D02*
X178498500Y-94843600D01*
X178498500Y-94843600D02*
X177101500Y-94843600D01*
X181673500Y-92303600D02*
X180276500Y-92303600D01*
X181673500Y-89306400D02*
X181673500Y-92303600D01*
X180276500Y-89306400D02*
X181673500Y-89306400D01*
X180276500Y-92303600D02*
X180276500Y-89306400D01*
X180276500Y-90805000D02*
X179616100Y-90805000D01*
X181673500Y-91757500D02*
X182333900Y-91757500D01*
X181673500Y-89852500D02*
X182333900Y-89852500D01*
X178498500Y-87312500D02*
X179158900Y-87312500D01*
X178498500Y-89217500D02*
X179158900Y-89217500D01*
X177101500Y-88265000D02*
X176441100Y-88265000D01*
X177101500Y-89763600D02*
X177101500Y-86766400D01*
X177101500Y-86766400D02*
X178498500Y-86766400D01*
X178498500Y-86766400D02*
X178498500Y-89763600D01*
X178498500Y-89763600D02*
X177101500Y-89763600D01*
X181673500Y-84772500D02*
X182333900Y-84772500D01*
X181673500Y-86677500D02*
X182333900Y-86677500D01*
X180276500Y-85725000D02*
X179616100Y-85725000D01*
X180276500Y-87223600D02*
X180276500Y-84226400D01*
X180276500Y-84226400D02*
X181673500Y-84226400D01*
X181673500Y-84226400D02*
X181673500Y-87223600D01*
X181673500Y-87223600D02*
X180276500Y-87223600D01*
X150050500Y-67818000D02*
X151193500Y-67818000D01*
X150050500Y-70358000D02*
X150050500Y-67818000D01*
X151193500Y-70358000D02*
X150050500Y-70358000D01*
X151193500Y-67818000D02*
X151193500Y-70358000D01*
X148653500Y-67818000D02*
X148653500Y-70358000D01*
X148653500Y-70358000D02*
X147510500Y-70358000D01*
X147510500Y-70358000D02*
X147510500Y-67818000D01*
X147510500Y-67818000D02*
X148653500Y-67818000D01*
X144970500Y-67818000D02*
X146113500Y-67818000D01*
X144970500Y-70358000D02*
X144970500Y-67818000D01*
X146113500Y-70358000D02*
X144970500Y-70358000D01*
X146113500Y-67818000D02*
X146113500Y-70358000D01*
X143573500Y-67818000D02*
X143573500Y-70358000D01*
X143573500Y-70358000D02*
X142430500Y-70358000D01*
X142430500Y-70358000D02*
X142430500Y-67818000D01*
X142430500Y-67818000D02*
X143573500Y-67818000D01*
X172656500Y-65024000D02*
X173799500Y-65024000D01*
X172656500Y-67564000D02*
X172656500Y-65024000D01*
X173799500Y-67564000D02*
X172656500Y-67564000D01*
X173799500Y-65024000D02*
X173799500Y-67564000D01*
X171259500Y-65024000D02*
X171259500Y-67564000D01*
X171259500Y-67564000D02*
X170116500Y-67564000D01*
X170116500Y-67564000D02*
X170116500Y-65024000D01*
X170116500Y-65024000D02*
X171259500Y-65024000D01*
X167576500Y-65024000D02*
X168719500Y-65024000D01*
X167576500Y-67564000D02*
X167576500Y-65024000D01*
X168719500Y-67564000D02*
X167576500Y-67564000D01*
X168719500Y-65024000D02*
X168719500Y-67564000D01*
X165036500Y-65024000D02*
X166179500Y-65024000D01*
X165036500Y-67564000D02*
X165036500Y-65024000D01*
X166179500Y-67564000D02*
X165036500Y-67564000D01*
X166179500Y-65024000D02*
X166179500Y-67564000D01*
D11*
X144212000Y-79769000D02*
X149412000Y-79769000D01*
X149412000Y-79769000D02*
X149412000Y-84569000D01*
X149412000Y-84569000D02*
X144212000Y-84569000D01*
X144212000Y-84569000D02*
X144212000Y-79769000D01*
X166437000Y-82029000D02*
X166437000Y-77229000D01*
X171637000Y-82029000D02*
X166437000Y-82029000D01*
X171637000Y-77229000D02*
X171637000Y-82029000D01*
X166437000Y-77229000D02*
X171637000Y-77229000D01*
D13*
X183515000Y-105346500D02*
X183515000Y-104203500D01*
X186055000Y-105346500D02*
X183515000Y-105346500D01*
X186055000Y-104203500D02*
X186055000Y-105346500D01*
X183515000Y-104203500D02*
X186055000Y-104203500D01*
X183515000Y-102806500D02*
X183515000Y-101663500D01*
X186055000Y-102806500D02*
X183515000Y-102806500D01*
X186055000Y-101663500D02*
X186055000Y-102806500D01*
X183515000Y-101663500D02*
X186055000Y-101663500D01*
X183515000Y-100266500D02*
X183515000Y-99123500D01*
X186055000Y-100266500D02*
X183515000Y-100266500D01*
X186055000Y-99123500D02*
X186055000Y-100266500D01*
X183515000Y-99123500D02*
X186055000Y-99123500D01*
X183515000Y-96583500D02*
X186055000Y-96583500D01*
X186055000Y-96583500D02*
X186055000Y-97726500D01*
X186055000Y-97726500D02*
X183515000Y-97726500D01*
X183515000Y-97726500D02*
X183515000Y-96583500D01*
X183515000Y-94551500D02*
X183515000Y-93408500D01*
X186055000Y-94551500D02*
X183515000Y-94551500D01*
X186055000Y-93408500D02*
X186055000Y-94551500D01*
X183515000Y-93408500D02*
X186055000Y-93408500D01*
X183515000Y-92011500D02*
X183515000Y-90868500D01*
X186055000Y-92011500D02*
X183515000Y-92011500D01*
X186055000Y-90868500D02*
X186055000Y-92011500D01*
X183515000Y-90868500D02*
X186055000Y-90868500D01*
X183515000Y-88328500D02*
X186055000Y-88328500D01*
X186055000Y-88328500D02*
X186055000Y-89471500D01*
X186055000Y-89471500D02*
X183515000Y-89471500D01*
X183515000Y-89471500D02*
X183515000Y-88328500D01*
X183515000Y-85788500D02*
X186055000Y-85788500D01*
X186055000Y-85788500D02*
X186055000Y-86931500D01*
X186055000Y-86931500D02*
X183515000Y-86931500D01*
X183515000Y-86931500D02*
X183515000Y-85788500D01*
X175260000Y-104711500D02*
X172720000Y-104711500D01*
X172720000Y-104711500D02*
X172720000Y-103568500D01*
X172720000Y-103568500D02*
X175260000Y-103568500D01*
X175260000Y-103568500D02*
X175260000Y-104711500D01*
X175260000Y-102171500D02*
X172720000Y-102171500D01*
X172720000Y-102171500D02*
X172720000Y-101028500D01*
X172720000Y-101028500D02*
X175260000Y-101028500D01*
X175260000Y-101028500D02*
X175260000Y-102171500D01*
X175260000Y-99631500D02*
X172720000Y-99631500D01*
X172720000Y-99631500D02*
X172720000Y-98488500D01*
X172720000Y-98488500D02*
X175260000Y-98488500D01*
X175260000Y-98488500D02*
X175260000Y-99631500D01*
X175260000Y-95948500D02*
X175260000Y-97091500D01*
X172720000Y-95948500D02*
X175260000Y-95948500D01*
X172720000Y-97091500D02*
X172720000Y-95948500D01*
X175260000Y-97091500D02*
X172720000Y-97091500D01*
X175260000Y-93916500D02*
X172720000Y-93916500D01*
X172720000Y-93916500D02*
X172720000Y-92773500D01*
X172720000Y-92773500D02*
X175260000Y-92773500D01*
X175260000Y-92773500D02*
X175260000Y-93916500D01*
X175260000Y-90233500D02*
X175260000Y-91376500D01*
X172720000Y-90233500D02*
X175260000Y-90233500D01*
X172720000Y-91376500D02*
X172720000Y-90233500D01*
X175260000Y-91376500D02*
X172720000Y-91376500D01*
X175260000Y-88836500D02*
X172720000Y-88836500D01*
X172720000Y-88836500D02*
X172720000Y-87693500D01*
X172720000Y-87693500D02*
X175260000Y-87693500D01*
X175260000Y-87693500D02*
X175260000Y-88836500D01*
X175260000Y-86296500D02*
X172720000Y-86296500D01*
X172720000Y-86296500D02*
X172720000Y-85153500D01*
X172720000Y-85153500D02*
X175260000Y-85153500D01*
X175260000Y-85153500D02*
X175260000Y-86296500D01*
D11*
X180870000Y-120570000D02*
X182570000Y-120570000D01*
X182570000Y-120570000D02*
X182570000Y-116670000D01*
X182570000Y-116670000D02*
X175570000Y-116670000D01*
X175570000Y-116670000D02*
X175570000Y-120570000D01*
X175570000Y-120570000D02*
X177270000Y-120570000D01*
X151227000Y-72601000D02*
X151227000Y-71226000D01*
X141102000Y-72601000D02*
X141102000Y-76751000D01*
X151252000Y-72601000D02*
X151252000Y-76751000D01*
X141102000Y-72601000D02*
X141207000Y-72601000D01*
X141102000Y-76751000D02*
X141207000Y-76751000D01*
X151252000Y-76751000D02*
X151147000Y-76751000D01*
X151252000Y-72601000D02*
X151227000Y-72601000D01*
X173858000Y-70569000D02*
X173833000Y-70569000D01*
X173858000Y-74719000D02*
X173753000Y-74719000D01*
X163708000Y-74719000D02*
X163813000Y-74719000D01*
X163708000Y-70569000D02*
X163813000Y-70569000D01*
X173858000Y-70569000D02*
X173858000Y-74719000D01*
X163708000Y-70569000D02*
X163708000Y-74719000D01*
X173833000Y-70569000D02*
X173833000Y-69194000D01*
X124460000Y-66675000D02*
X124460000Y-111125000D01*
X124460000Y-111125000D02*
X135255000Y-111125000D01*
X135255000Y-111125000D02*
X135255000Y-66675000D01*
X135255000Y-66675000D02*
X124460000Y-66675000D01*
X123190000Y-66675000D02*
X112395000Y-66675000D01*
X123190000Y-111125000D02*
X123190000Y-66675000D01*
X112395000Y-111125000D02*
X123190000Y-111125000D01*
X112395000Y-66675000D02*
X112395000Y-111125000D01*
X100330000Y-66675000D02*
X100330000Y-111125000D01*
X100330000Y-111125000D02*
X111125000Y-111125000D01*
X111125000Y-111125000D02*
X111125000Y-66675000D01*
X111125000Y-66675000D02*
X100330000Y-66675000D01*
X99060000Y-66675000D02*
X88265000Y-66675000D01*
X99060000Y-111125000D02*
X99060000Y-66675000D01*
X88265000Y-111125000D02*
X99060000Y-111125000D01*
X88265000Y-66675000D02*
X88265000Y-111125000D01*
X129540000Y-78105000D02*
X125730000Y-78105000D01*
X129540000Y-100330000D02*
X129540000Y-78105000D01*
X125730000Y-100330000D02*
X129540000Y-100330000D01*
X125730000Y-78105000D02*
X125730000Y-100330000D01*
X113665000Y-78105000D02*
X113665000Y-100330000D01*
X113665000Y-100330000D02*
X117475000Y-100330000D01*
X117475000Y-100330000D02*
X117475000Y-78105000D01*
X117475000Y-78105000D02*
X113665000Y-78105000D01*
X105410000Y-78105000D02*
X101600000Y-78105000D01*
X105410000Y-100330000D02*
X105410000Y-78105000D01*
X101600000Y-100330000D02*
X105410000Y-100330000D01*
X101600000Y-78105000D02*
X101600000Y-100330000D01*
X89535000Y-78105000D02*
X89535000Y-100330000D01*
X89535000Y-100330000D02*
X93345000Y-100330000D01*
X93345000Y-100330000D02*
X93345000Y-78105000D01*
X93345000Y-78105000D02*
X89535000Y-78105000D01*
X156337000Y-89154000D02*
X152527000Y-89154000D01*
X156337000Y-111379000D02*
X156337000Y-89154000D01*
X152527000Y-111379000D02*
X156337000Y-111379000D01*
X152527000Y-89154000D02*
X152527000Y-111379000D01*
X146812000Y-89154000D02*
X146812000Y-111379000D01*
X146812000Y-111379000D02*
X150622000Y-111379000D01*
X150622000Y-111379000D02*
X150622000Y-89154000D01*
X150622000Y-89154000D02*
X146812000Y-89154000D01*
X144907000Y-89154000D02*
X141097000Y-89154000D01*
X144907000Y-111379000D02*
X144907000Y-89154000D01*
X141097000Y-111379000D02*
X144907000Y-111379000D01*
X141097000Y-89154000D02*
X141097000Y-111379000D01*
X202005000Y-130515000D02*
X190105000Y-130515000D01*
X202005000Y-109515000D02*
X202005000Y-130515000D01*
X190105000Y-109515000D02*
X202005000Y-109515000D01*
X190105000Y-130515000D02*
X190105000Y-109515000D01*
X147660000Y-62625000D02*
X126660000Y-62625000D01*
X126660000Y-62625000D02*
X126660000Y-50725000D01*
X126660000Y-50725000D02*
X147660000Y-50725000D01*
X147660000Y-50725000D02*
X147660000Y-62625000D01*
X127340000Y-50725000D02*
X127340000Y-62625000D01*
X106340000Y-50725000D02*
X127340000Y-50725000D01*
X106340000Y-62625000D02*
X106340000Y-50725000D01*
X127340000Y-62625000D02*
X106340000Y-62625000D01*
X188300000Y-62625000D02*
X167300000Y-62625000D01*
X167300000Y-62625000D02*
X167300000Y-50725000D01*
X167300000Y-50725000D02*
X188300000Y-50725000D01*
X188300000Y-50725000D02*
X188300000Y-62625000D01*
X83185000Y-88773000D02*
X83185000Y-72263000D01*
X83185000Y-72263000D02*
X75565000Y-72263000D01*
X75565000Y-72263000D02*
X75565000Y-88773000D01*
X75565000Y-88773000D02*
X83185000Y-88773000D01*
D14*
X79375000Y-80518000D02*
G75*
G02X80645000Y-79248000I0J1270000D01*
G01*
X79375000Y-80518000D02*
G75*
G02X78105000Y-81788000I0J-1270000D01*
G01*
D11*
X79375000Y-77978000D02*
X79375000Y-76073000D01*
X79375000Y-83058000D02*
X79375000Y-84963000D01*
X159035904Y-86701380D02*
X159035904Y-87510904D01*
X159083523Y-87606142D01*
X159131142Y-87653761D01*
X159226380Y-87701380D01*
X159416857Y-87701380D01*
X159512095Y-87653761D01*
X159559714Y-87606142D01*
X159607333Y-87510904D01*
X159607333Y-86701380D01*
X160607333Y-87701380D02*
X160035904Y-87701380D01*
X160321619Y-87701380D02*
X160321619Y-86701380D01*
X160226380Y-86844238D01*
X160131142Y-86939476D01*
X160035904Y-86987095D01*
X160988285Y-86796619D02*
X161035904Y-86749000D01*
X161131142Y-86701380D01*
X161369238Y-86701380D01*
X161464476Y-86749000D01*
X161512095Y-86796619D01*
X161559714Y-86891857D01*
X161559714Y-86987095D01*
X161512095Y-87129952D01*
X160940666Y-87701380D01*
X161559714Y-87701380D01*
D13*
X185420000Y-109827785D02*
X185383714Y-109858023D01*
X185274857Y-109888261D01*
X185202285Y-109888261D01*
X185093428Y-109858023D01*
X185020857Y-109797547D01*
X184984571Y-109737071D01*
X184948285Y-109616119D01*
X184948285Y-109525404D01*
X184984571Y-109404452D01*
X185020857Y-109343976D01*
X185093428Y-109283500D01*
X185202285Y-109253261D01*
X185274857Y-109253261D01*
X185383714Y-109283500D01*
X185420000Y-109313738D01*
X186145714Y-109888261D02*
X185710285Y-109888261D01*
X185928000Y-109888261D02*
X185928000Y-109253261D01*
X185855428Y-109343976D01*
X185782857Y-109404452D01*
X185710285Y-109434690D01*
D17*
X188426714Y-112699742D02*
X188426714Y-111785457D01*
X188883857Y-112242600D02*
X187969571Y-112242600D01*
D18*
X175160093Y-110359008D02*
X175131548Y-110392343D01*
X175045914Y-110425677D01*
X174988824Y-110425677D01*
X174903190Y-110392343D01*
X174846100Y-110325674D01*
X174817556Y-110259005D01*
X174789011Y-110125667D01*
X174789011Y-110025663D01*
X174817556Y-109892325D01*
X174846100Y-109825656D01*
X174903190Y-109758988D01*
X174988824Y-109725653D01*
X175045914Y-109725653D01*
X175131548Y-109758988D01*
X175160093Y-109792322D01*
X175388451Y-109792322D02*
X175416996Y-109758988D01*
X175474085Y-109725653D01*
X175616809Y-109725653D01*
X175673899Y-109758988D01*
X175702443Y-109792322D01*
X175730988Y-109858991D01*
X175730988Y-109925660D01*
X175702443Y-110025663D01*
X175359906Y-110425677D01*
X175730988Y-110425677D01*
D13*
X171852166Y-114018785D02*
X171821928Y-114049023D01*
X171731214Y-114079261D01*
X171670738Y-114079261D01*
X171580023Y-114049023D01*
X171519547Y-113988547D01*
X171489309Y-113928071D01*
X171459071Y-113807119D01*
X171459071Y-113716404D01*
X171489309Y-113595452D01*
X171519547Y-113534976D01*
X171580023Y-113474500D01*
X171670738Y-113444261D01*
X171731214Y-113444261D01*
X171821928Y-113474500D01*
X171852166Y-113504738D01*
X172063833Y-113444261D02*
X172456928Y-113444261D01*
X172245261Y-113686166D01*
X172335976Y-113686166D01*
X172396452Y-113716404D01*
X172426690Y-113746642D01*
X172456928Y-113807119D01*
X172456928Y-113958309D01*
X172426690Y-114018785D01*
X172396452Y-114049023D01*
X172335976Y-114079261D01*
X172154547Y-114079261D01*
X172094071Y-114049023D01*
X172063833Y-114018785D01*
X168910000Y-119733785D02*
X168873714Y-119764023D01*
X168764857Y-119794261D01*
X168692285Y-119794261D01*
X168583428Y-119764023D01*
X168510857Y-119703547D01*
X168474571Y-119643071D01*
X168438285Y-119522119D01*
X168438285Y-119431404D01*
X168474571Y-119310452D01*
X168510857Y-119249976D01*
X168583428Y-119189500D01*
X168692285Y-119159261D01*
X168764857Y-119159261D01*
X168873714Y-119189500D01*
X168910000Y-119219738D01*
X169563142Y-119370928D02*
X169563142Y-119794261D01*
X169381714Y-119129023D02*
X169200285Y-119582595D01*
X169672000Y-119582595D01*
D17*
X170773714Y-116408142D02*
X170773714Y-115493857D01*
X171230857Y-115951000D02*
X170316571Y-115951000D01*
D11*
X158797666Y-129722571D02*
X158464333Y-129722571D01*
X158464333Y-130246380D02*
X158464333Y-129246380D01*
X158940523Y-129246380D01*
X159845285Y-130246380D02*
X159273857Y-130246380D01*
X159559571Y-130246380D02*
X159559571Y-129246380D01*
X159464333Y-129389238D01*
X159369095Y-129484476D01*
X159273857Y-129532095D01*
X150161666Y-129722571D02*
X149828333Y-129722571D01*
X149828333Y-130246380D02*
X149828333Y-129246380D01*
X150304523Y-129246380D01*
X150637857Y-129341619D02*
X150685476Y-129294000D01*
X150780714Y-129246380D01*
X151018809Y-129246380D01*
X151114047Y-129294000D01*
X151161666Y-129341619D01*
X151209285Y-129436857D01*
X151209285Y-129532095D01*
X151161666Y-129674952D01*
X150590238Y-130246380D01*
X151209285Y-130246380D01*
X141398666Y-129722571D02*
X141065333Y-129722571D01*
X141065333Y-130246380D02*
X141065333Y-129246380D01*
X141541523Y-129246380D01*
X141827238Y-129246380D02*
X142446285Y-129246380D01*
X142112952Y-129627333D01*
X142255809Y-129627333D01*
X142351047Y-129674952D01*
X142398666Y-129722571D01*
X142446285Y-129817809D01*
X142446285Y-130055904D01*
X142398666Y-130151142D01*
X142351047Y-130198761D01*
X142255809Y-130246380D01*
X141970095Y-130246380D01*
X141874857Y-130198761D01*
X141827238Y-130151142D01*
X132381666Y-129722571D02*
X132048333Y-129722571D01*
X132048333Y-130246380D02*
X132048333Y-129246380D01*
X132524523Y-129246380D01*
X133334047Y-129579714D02*
X133334047Y-130246380D01*
X133095952Y-129198761D02*
X132857857Y-129913047D01*
X133476904Y-129913047D01*
X122983666Y-129722571D02*
X122650333Y-129722571D01*
X122650333Y-130246380D02*
X122650333Y-129246380D01*
X123126523Y-129246380D01*
X123983666Y-129246380D02*
X123507476Y-129246380D01*
X123459857Y-129722571D01*
X123507476Y-129674952D01*
X123602714Y-129627333D01*
X123840809Y-129627333D01*
X123936047Y-129674952D01*
X123983666Y-129722571D01*
X124031285Y-129817809D01*
X124031285Y-130055904D01*
X123983666Y-130151142D01*
X123936047Y-130198761D01*
X123840809Y-130246380D01*
X123602714Y-130246380D01*
X123507476Y-130198761D01*
X123459857Y-130151142D01*
X114093666Y-129722571D02*
X113760333Y-129722571D01*
X113760333Y-130246380D02*
X113760333Y-129246380D01*
X114236523Y-129246380D01*
X115046047Y-129246380D02*
X114855571Y-129246380D01*
X114760333Y-129294000D01*
X114712714Y-129341619D01*
X114617476Y-129484476D01*
X114569857Y-129674952D01*
X114569857Y-130055904D01*
X114617476Y-130151142D01*
X114665095Y-130198761D01*
X114760333Y-130246380D01*
X114950809Y-130246380D01*
X115046047Y-130198761D01*
X115093666Y-130151142D01*
X115141285Y-130055904D01*
X115141285Y-129817809D01*
X115093666Y-129722571D01*
X115046047Y-129674952D01*
X114950809Y-129627333D01*
X114760333Y-129627333D01*
X114665095Y-129674952D01*
X114617476Y-129722571D01*
X114569857Y-129817809D01*
X105330666Y-129595571D02*
X104997333Y-129595571D01*
X104997333Y-130119380D02*
X104997333Y-129119380D01*
X105473523Y-129119380D01*
X105759238Y-129119380D02*
X106425904Y-129119380D01*
X105997333Y-130119380D01*
X96313666Y-129468571D02*
X95980333Y-129468571D01*
X95980333Y-129992380D02*
X95980333Y-128992380D01*
X96456523Y-128992380D01*
X96980333Y-129420952D02*
X96885095Y-129373333D01*
X96837476Y-129325714D01*
X96789857Y-129230476D01*
X96789857Y-129182857D01*
X96837476Y-129087619D01*
X96885095Y-129040000D01*
X96980333Y-128992380D01*
X97170809Y-128992380D01*
X97266047Y-129040000D01*
X97313666Y-129087619D01*
X97361285Y-129182857D01*
X97361285Y-129230476D01*
X97313666Y-129325714D01*
X97266047Y-129373333D01*
X97170809Y-129420952D01*
X96980333Y-129420952D01*
X96885095Y-129468571D01*
X96837476Y-129516190D01*
X96789857Y-129611428D01*
X96789857Y-129801904D01*
X96837476Y-129897142D01*
X96885095Y-129944761D01*
X96980333Y-129992380D01*
X97170809Y-129992380D01*
X97266047Y-129944761D01*
X97313666Y-129897142D01*
X97361285Y-129801904D01*
X97361285Y-129611428D01*
X97313666Y-129516190D01*
X97266047Y-129468571D01*
X97170809Y-129420952D01*
X85772666Y-111561571D02*
X85439333Y-111561571D01*
X85439333Y-112085380D02*
X85439333Y-111085380D01*
X85915523Y-111085380D01*
X86344095Y-112085380D02*
X86534571Y-112085380D01*
X86629809Y-112037761D01*
X86677428Y-111990142D01*
X86772666Y-111847285D01*
X86820285Y-111656809D01*
X86820285Y-111275857D01*
X86772666Y-111180619D01*
X86725047Y-111133000D01*
X86629809Y-111085380D01*
X86439333Y-111085380D01*
X86344095Y-111133000D01*
X86296476Y-111180619D01*
X86248857Y-111275857D01*
X86248857Y-111513952D01*
X86296476Y-111609190D01*
X86344095Y-111656809D01*
X86439333Y-111704428D01*
X86629809Y-111704428D01*
X86725047Y-111656809D01*
X86772666Y-111609190D01*
X86820285Y-111513952D01*
X75136476Y-130484571D02*
X74803142Y-130484571D01*
X74803142Y-131008380D02*
X74803142Y-130008380D01*
X75279333Y-130008380D01*
X76184095Y-131008380D02*
X75612666Y-131008380D01*
X75898380Y-131008380D02*
X75898380Y-130008380D01*
X75803142Y-130151238D01*
X75707904Y-130246476D01*
X75612666Y-130294095D01*
X76803142Y-130008380D02*
X76898380Y-130008380D01*
X76993619Y-130056000D01*
X77041238Y-130103619D01*
X77088857Y-130198857D01*
X77136476Y-130389333D01*
X77136476Y-130627428D01*
X77088857Y-130817904D01*
X77041238Y-130913142D01*
X76993619Y-130960761D01*
X76898380Y-131008380D01*
X76803142Y-131008380D01*
X76707904Y-130960761D01*
X76660285Y-130913142D01*
X76612666Y-130817904D01*
X76565047Y-130627428D01*
X76565047Y-130389333D01*
X76612666Y-130198857D01*
X76660285Y-130103619D01*
X76707904Y-130056000D01*
X76803142Y-130008380D01*
D18*
X178443466Y-110058998D02*
X178243653Y-110058998D01*
X178243653Y-110425677D02*
X178243653Y-109725653D01*
X178529100Y-109725653D01*
X178957272Y-110058998D02*
X179042906Y-110092332D01*
X179071451Y-110125667D01*
X179099996Y-110192336D01*
X179099996Y-110292339D01*
X179071451Y-110359008D01*
X179042906Y-110392343D01*
X178985817Y-110425677D01*
X178757459Y-110425677D01*
X178757459Y-109725653D01*
X178957272Y-109725653D01*
X179014361Y-109758988D01*
X179042906Y-109792322D01*
X179071451Y-109858991D01*
X179071451Y-109925660D01*
X179042906Y-109992329D01*
X179014361Y-110025663D01*
X178957272Y-110058998D01*
X178757459Y-110058998D01*
X179670891Y-110425677D02*
X179328354Y-110425677D01*
X179499622Y-110425677D02*
X179499622Y-109725653D01*
X179442533Y-109825656D01*
X179385443Y-109892325D01*
X179328354Y-109925660D01*
D11*
X157781666Y-64603380D02*
X157781666Y-65317666D01*
X157734047Y-65460523D01*
X157638809Y-65555761D01*
X157495952Y-65603380D01*
X157400714Y-65603380D01*
X158734047Y-64603380D02*
X158257857Y-64603380D01*
X158210238Y-65079571D01*
X158257857Y-65031952D01*
X158353095Y-64984333D01*
X158591190Y-64984333D01*
X158686428Y-65031952D01*
X158734047Y-65079571D01*
X158781666Y-65174809D01*
X158781666Y-65412904D01*
X158734047Y-65508142D01*
X158686428Y-65555761D01*
X158591190Y-65603380D01*
X158353095Y-65603380D01*
X158257857Y-65555761D01*
X158210238Y-65508142D01*
X85391666Y-88479380D02*
X85391666Y-89193666D01*
X85344047Y-89336523D01*
X85248809Y-89431761D01*
X85105952Y-89479380D01*
X85010714Y-89479380D01*
X86296428Y-88479380D02*
X86105952Y-88479380D01*
X86010714Y-88527000D01*
X85963095Y-88574619D01*
X85867857Y-88717476D01*
X85820238Y-88907952D01*
X85820238Y-89288904D01*
X85867857Y-89384142D01*
X85915476Y-89431761D01*
X86010714Y-89479380D01*
X86201190Y-89479380D01*
X86296428Y-89431761D01*
X86344047Y-89384142D01*
X86391666Y-89288904D01*
X86391666Y-89050809D01*
X86344047Y-88955571D01*
X86296428Y-88907952D01*
X86201190Y-88860333D01*
X86010714Y-88860333D01*
X85915476Y-88907952D01*
X85867857Y-88955571D01*
X85820238Y-89050809D01*
X169084666Y-130262380D02*
X169084666Y-130976666D01*
X169037047Y-131119523D01*
X168941809Y-131214761D01*
X168798952Y-131262380D01*
X168703714Y-131262380D01*
X169465619Y-130262380D02*
X170132285Y-130262380D01*
X169703714Y-131262380D01*
X145589666Y-129119380D02*
X145589666Y-129833666D01*
X145542047Y-129976523D01*
X145446809Y-130071761D01*
X145303952Y-130119380D01*
X145208714Y-130119380D01*
X146208714Y-129547952D02*
X146113476Y-129500333D01*
X146065857Y-129452714D01*
X146018238Y-129357476D01*
X146018238Y-129309857D01*
X146065857Y-129214619D01*
X146113476Y-129167000D01*
X146208714Y-129119380D01*
X146399190Y-129119380D01*
X146494428Y-129167000D01*
X146542047Y-129214619D01*
X146589666Y-129309857D01*
X146589666Y-129357476D01*
X146542047Y-129452714D01*
X146494428Y-129500333D01*
X146399190Y-129547952D01*
X146208714Y-129547952D01*
X146113476Y-129595571D01*
X146065857Y-129643190D01*
X146018238Y-129738428D01*
X146018238Y-129928904D01*
X146065857Y-130024142D01*
X146113476Y-130071761D01*
X146208714Y-130119380D01*
X146399190Y-130119380D01*
X146494428Y-130071761D01*
X146542047Y-130024142D01*
X146589666Y-129928904D01*
X146589666Y-129738428D01*
X146542047Y-129643190D01*
X146494428Y-129595571D01*
X146399190Y-129547952D01*
X125777666Y-129119380D02*
X125777666Y-129833666D01*
X125730047Y-129976523D01*
X125634809Y-130071761D01*
X125491952Y-130119380D01*
X125396714Y-130119380D01*
X126301476Y-130119380D02*
X126491952Y-130119380D01*
X126587190Y-130071761D01*
X126634809Y-130024142D01*
X126730047Y-129881285D01*
X126777666Y-129690809D01*
X126777666Y-129309857D01*
X126730047Y-129214619D01*
X126682428Y-129167000D01*
X126587190Y-129119380D01*
X126396714Y-129119380D01*
X126301476Y-129167000D01*
X126253857Y-129214619D01*
X126206238Y-129309857D01*
X126206238Y-129547952D01*
X126253857Y-129643190D01*
X126301476Y-129690809D01*
X126396714Y-129738428D01*
X126587190Y-129738428D01*
X126682428Y-129690809D01*
X126730047Y-129643190D01*
X126777666Y-129547952D01*
X83518476Y-130770380D02*
X83518476Y-131484666D01*
X83470857Y-131627523D01*
X83375619Y-131722761D01*
X83232761Y-131770380D01*
X83137523Y-131770380D01*
X84518476Y-131770380D02*
X83947047Y-131770380D01*
X84232761Y-131770380D02*
X84232761Y-130770380D01*
X84137523Y-130913238D01*
X84042285Y-131008476D01*
X83947047Y-131056095D01*
X85137523Y-130770380D02*
X85232761Y-130770380D01*
X85328000Y-130818000D01*
X85375619Y-130865619D01*
X85423238Y-130960857D01*
X85470857Y-131151333D01*
X85470857Y-131389428D01*
X85423238Y-131579904D01*
X85375619Y-131675142D01*
X85328000Y-131722761D01*
X85232761Y-131770380D01*
X85137523Y-131770380D01*
X85042285Y-131722761D01*
X84994666Y-131675142D01*
X84947047Y-131579904D01*
X84899428Y-131389428D01*
X84899428Y-131151333D01*
X84947047Y-130960857D01*
X84994666Y-130865619D01*
X85042285Y-130818000D01*
X85137523Y-130770380D01*
D14*
X193984666Y-64222380D02*
X193984666Y-64936666D01*
X193937047Y-65079523D01*
X193841809Y-65174761D01*
X193698952Y-65222380D01*
X193603714Y-65222380D01*
X194460857Y-65222380D02*
X194460857Y-64222380D01*
X194841809Y-64222380D01*
X194937047Y-64270000D01*
X194984666Y-64317619D01*
X195032285Y-64412857D01*
X195032285Y-64555714D01*
X194984666Y-64650952D01*
X194937047Y-64698571D01*
X194841809Y-64746190D01*
X194460857Y-64746190D01*
X195984666Y-65222380D02*
X195413238Y-65222380D01*
X195698952Y-65222380D02*
X195698952Y-64222380D01*
X195603714Y-64365238D01*
X195508476Y-64460476D01*
X195413238Y-64508095D01*
D19*
X177879344Y-102255017D02*
X177831689Y-102231190D01*
X177784034Y-102183534D01*
X177712551Y-102112051D01*
X177664896Y-102088224D01*
X177617240Y-102088224D01*
X177641068Y-102207362D02*
X177593413Y-102183534D01*
X177545758Y-102135879D01*
X177521930Y-102040569D01*
X177521930Y-101873775D01*
X177545758Y-101778465D01*
X177593413Y-101730810D01*
X177641068Y-101706982D01*
X177736379Y-101706982D01*
X177784034Y-101730810D01*
X177831689Y-101778465D01*
X177855517Y-101873775D01*
X177855517Y-102040569D01*
X177831689Y-102135879D01*
X177784034Y-102183534D01*
X177736379Y-102207362D01*
X177641068Y-102207362D01*
X178332069Y-102207362D02*
X178046138Y-102207362D01*
X178189103Y-102207362D02*
X178189103Y-101706982D01*
X178141448Y-101778465D01*
X178093793Y-101826120D01*
X178046138Y-101849948D01*
X180927344Y-99715017D02*
X180879689Y-99691190D01*
X180832034Y-99643534D01*
X180760551Y-99572051D01*
X180712896Y-99548224D01*
X180665240Y-99548224D01*
X180689068Y-99667362D02*
X180641413Y-99643534D01*
X180593758Y-99595879D01*
X180569930Y-99500569D01*
X180569930Y-99333775D01*
X180593758Y-99238465D01*
X180641413Y-99190810D01*
X180689068Y-99166982D01*
X180784379Y-99166982D01*
X180832034Y-99190810D01*
X180879689Y-99238465D01*
X180903517Y-99333775D01*
X180903517Y-99500569D01*
X180879689Y-99595879D01*
X180832034Y-99643534D01*
X180784379Y-99667362D01*
X180689068Y-99667362D01*
X181094138Y-99214637D02*
X181117965Y-99190810D01*
X181165620Y-99166982D01*
X181284759Y-99166982D01*
X181332414Y-99190810D01*
X181356241Y-99214637D01*
X181380069Y-99262292D01*
X181380069Y-99309948D01*
X181356241Y-99381430D01*
X181070310Y-99667362D01*
X181380069Y-99667362D01*
X177752344Y-97175017D02*
X177704689Y-97151190D01*
X177657034Y-97103534D01*
X177585551Y-97032051D01*
X177537896Y-97008224D01*
X177490240Y-97008224D01*
X177514068Y-97127362D02*
X177466413Y-97103534D01*
X177418758Y-97055879D01*
X177394930Y-96960569D01*
X177394930Y-96793775D01*
X177418758Y-96698465D01*
X177466413Y-96650810D01*
X177514068Y-96626982D01*
X177609379Y-96626982D01*
X177657034Y-96650810D01*
X177704689Y-96698465D01*
X177728517Y-96793775D01*
X177728517Y-96960569D01*
X177704689Y-97055879D01*
X177657034Y-97103534D01*
X177609379Y-97127362D01*
X177514068Y-97127362D01*
X177895310Y-96626982D02*
X178205069Y-96626982D01*
X178038276Y-96817603D01*
X178109759Y-96817603D01*
X178157414Y-96841430D01*
X178181241Y-96865258D01*
X178205069Y-96912913D01*
X178205069Y-97032051D01*
X178181241Y-97079707D01*
X178157414Y-97103534D01*
X178109759Y-97127362D01*
X177966793Y-97127362D01*
X177919138Y-97103534D01*
X177895310Y-97079707D01*
X180927344Y-94635017D02*
X180879689Y-94611190D01*
X180832034Y-94563534D01*
X180760551Y-94492051D01*
X180712896Y-94468224D01*
X180665240Y-94468224D01*
X180689068Y-94587362D02*
X180641413Y-94563534D01*
X180593758Y-94515879D01*
X180569930Y-94420569D01*
X180569930Y-94253775D01*
X180593758Y-94158465D01*
X180641413Y-94110810D01*
X180689068Y-94086982D01*
X180784379Y-94086982D01*
X180832034Y-94110810D01*
X180879689Y-94158465D01*
X180903517Y-94253775D01*
X180903517Y-94420569D01*
X180879689Y-94515879D01*
X180832034Y-94563534D01*
X180784379Y-94587362D01*
X180689068Y-94587362D01*
X181332414Y-94253775D02*
X181332414Y-94587362D01*
X181213276Y-94063154D02*
X181094138Y-94420569D01*
X181403897Y-94420569D01*
X177625344Y-91460017D02*
X177577689Y-91436190D01*
X177530034Y-91388534D01*
X177458551Y-91317051D01*
X177410896Y-91293224D01*
X177363240Y-91293224D01*
X177387068Y-91412362D02*
X177339413Y-91388534D01*
X177291758Y-91340879D01*
X177267930Y-91245569D01*
X177267930Y-91078775D01*
X177291758Y-90983465D01*
X177339413Y-90935810D01*
X177387068Y-90911982D01*
X177482379Y-90911982D01*
X177530034Y-90935810D01*
X177577689Y-90983465D01*
X177601517Y-91078775D01*
X177601517Y-91245569D01*
X177577689Y-91340879D01*
X177530034Y-91388534D01*
X177482379Y-91412362D01*
X177387068Y-91412362D01*
X178054241Y-90911982D02*
X177815965Y-90911982D01*
X177792138Y-91150258D01*
X177815965Y-91126430D01*
X177863620Y-91102603D01*
X177982759Y-91102603D01*
X178030414Y-91126430D01*
X178054241Y-91150258D01*
X178078069Y-91197913D01*
X178078069Y-91317051D01*
X178054241Y-91364707D01*
X178030414Y-91388534D01*
X177982759Y-91412362D01*
X177863620Y-91412362D01*
X177815965Y-91388534D01*
X177792138Y-91364707D01*
X180927344Y-88920017D02*
X180879689Y-88896190D01*
X180832034Y-88848534D01*
X180760551Y-88777051D01*
X180712896Y-88753224D01*
X180665240Y-88753224D01*
X180689068Y-88872362D02*
X180641413Y-88848534D01*
X180593758Y-88800879D01*
X180569930Y-88705569D01*
X180569930Y-88538775D01*
X180593758Y-88443465D01*
X180641413Y-88395810D01*
X180689068Y-88371982D01*
X180784379Y-88371982D01*
X180832034Y-88395810D01*
X180879689Y-88443465D01*
X180903517Y-88538775D01*
X180903517Y-88705569D01*
X180879689Y-88800879D01*
X180832034Y-88848534D01*
X180784379Y-88872362D01*
X180689068Y-88872362D01*
X181332414Y-88371982D02*
X181237103Y-88371982D01*
X181189448Y-88395810D01*
X181165620Y-88419637D01*
X181117965Y-88491120D01*
X181094138Y-88586430D01*
X181094138Y-88777051D01*
X181117965Y-88824707D01*
X181141793Y-88848534D01*
X181189448Y-88872362D01*
X181284759Y-88872362D01*
X181332414Y-88848534D01*
X181356241Y-88824707D01*
X181380069Y-88777051D01*
X181380069Y-88657913D01*
X181356241Y-88610258D01*
X181332414Y-88586430D01*
X181284759Y-88562603D01*
X181189448Y-88562603D01*
X181141793Y-88586430D01*
X181117965Y-88610258D01*
X181094138Y-88657913D01*
X177625344Y-86380017D02*
X177577689Y-86356190D01*
X177530034Y-86308534D01*
X177458551Y-86237051D01*
X177410896Y-86213224D01*
X177363240Y-86213224D01*
X177387068Y-86332362D02*
X177339413Y-86308534D01*
X177291758Y-86260879D01*
X177267930Y-86165569D01*
X177267930Y-85998775D01*
X177291758Y-85903465D01*
X177339413Y-85855810D01*
X177387068Y-85831982D01*
X177482379Y-85831982D01*
X177530034Y-85855810D01*
X177577689Y-85903465D01*
X177601517Y-85998775D01*
X177601517Y-86165569D01*
X177577689Y-86260879D01*
X177530034Y-86308534D01*
X177482379Y-86332362D01*
X177387068Y-86332362D01*
X177768310Y-85831982D02*
X178101897Y-85831982D01*
X177887448Y-86332362D01*
X180927344Y-83840017D02*
X180879689Y-83816190D01*
X180832034Y-83768534D01*
X180760551Y-83697051D01*
X180712896Y-83673224D01*
X180665240Y-83673224D01*
X180689068Y-83792362D02*
X180641413Y-83768534D01*
X180593758Y-83720879D01*
X180569930Y-83625569D01*
X180569930Y-83458775D01*
X180593758Y-83363465D01*
X180641413Y-83315810D01*
X180689068Y-83291982D01*
X180784379Y-83291982D01*
X180832034Y-83315810D01*
X180879689Y-83363465D01*
X180903517Y-83458775D01*
X180903517Y-83625569D01*
X180879689Y-83720879D01*
X180832034Y-83768534D01*
X180784379Y-83792362D01*
X180689068Y-83792362D01*
X181189448Y-83506430D02*
X181141793Y-83482603D01*
X181117965Y-83458775D01*
X181094138Y-83411120D01*
X181094138Y-83387292D01*
X181117965Y-83339637D01*
X181141793Y-83315810D01*
X181189448Y-83291982D01*
X181284759Y-83291982D01*
X181332414Y-83315810D01*
X181356241Y-83339637D01*
X181380069Y-83387292D01*
X181380069Y-83411120D01*
X181356241Y-83458775D01*
X181332414Y-83482603D01*
X181284759Y-83506430D01*
X181189448Y-83506430D01*
X181141793Y-83530258D01*
X181117965Y-83554086D01*
X181094138Y-83601741D01*
X181094138Y-83697051D01*
X181117965Y-83744707D01*
X181141793Y-83768534D01*
X181189448Y-83792362D01*
X181284759Y-83792362D01*
X181332414Y-83768534D01*
X181356241Y-83744707D01*
X181380069Y-83697051D01*
X181380069Y-83601741D01*
X181356241Y-83554086D01*
X181332414Y-83530258D01*
X181284759Y-83506430D01*
D20*
X150893428Y-67139333D02*
X150607714Y-67306000D01*
X150893428Y-67425047D02*
X150293428Y-67425047D01*
X150293428Y-67234571D01*
X150322000Y-67186952D01*
X150350571Y-67163142D01*
X150407714Y-67139333D01*
X150493428Y-67139333D01*
X150550571Y-67163142D01*
X150579142Y-67186952D01*
X150607714Y-67234571D01*
X150607714Y-67425047D01*
X150893428Y-66663142D02*
X150893428Y-66948857D01*
X150893428Y-66806000D02*
X150293428Y-66806000D01*
X150379142Y-66853619D01*
X150436285Y-66901238D01*
X150464857Y-66948857D01*
X148353428Y-67139333D02*
X148067714Y-67306000D01*
X148353428Y-67425047D02*
X147753428Y-67425047D01*
X147753428Y-67234571D01*
X147782000Y-67186952D01*
X147810571Y-67163142D01*
X147867714Y-67139333D01*
X147953428Y-67139333D01*
X148010571Y-67163142D01*
X148039142Y-67186952D01*
X148067714Y-67234571D01*
X148067714Y-67425047D01*
X147810571Y-66948857D02*
X147782000Y-66925047D01*
X147753428Y-66877428D01*
X147753428Y-66758380D01*
X147782000Y-66710761D01*
X147810571Y-66686952D01*
X147867714Y-66663142D01*
X147924857Y-66663142D01*
X148010571Y-66686952D01*
X148353428Y-66972666D01*
X148353428Y-66663142D01*
X145813428Y-67139333D02*
X145527714Y-67306000D01*
X145813428Y-67425047D02*
X145213428Y-67425047D01*
X145213428Y-67234571D01*
X145242000Y-67186952D01*
X145270571Y-67163142D01*
X145327714Y-67139333D01*
X145413428Y-67139333D01*
X145470571Y-67163142D01*
X145499142Y-67186952D01*
X145527714Y-67234571D01*
X145527714Y-67425047D01*
X145213428Y-66972666D02*
X145213428Y-66663142D01*
X145442000Y-66829809D01*
X145442000Y-66758380D01*
X145470571Y-66710761D01*
X145499142Y-66686952D01*
X145556285Y-66663142D01*
X145699142Y-66663142D01*
X145756285Y-66686952D01*
X145784857Y-66710761D01*
X145813428Y-66758380D01*
X145813428Y-66901238D01*
X145784857Y-66948857D01*
X145756285Y-66972666D01*
X143400428Y-67012333D02*
X143114714Y-67179000D01*
X143400428Y-67298047D02*
X142800428Y-67298047D01*
X142800428Y-67107571D01*
X142829000Y-67059952D01*
X142857571Y-67036142D01*
X142914714Y-67012333D01*
X143000428Y-67012333D01*
X143057571Y-67036142D01*
X143086142Y-67059952D01*
X143114714Y-67107571D01*
X143114714Y-67298047D01*
X143000428Y-66583761D02*
X143400428Y-66583761D01*
X142771857Y-66702809D02*
X143200428Y-66821857D01*
X143200428Y-66512333D01*
X173499428Y-68409333D02*
X173213714Y-68576000D01*
X173499428Y-68695047D02*
X172899428Y-68695047D01*
X172899428Y-68504571D01*
X172928000Y-68456952D01*
X172956571Y-68433142D01*
X173013714Y-68409333D01*
X173099428Y-68409333D01*
X173156571Y-68433142D01*
X173185142Y-68456952D01*
X173213714Y-68504571D01*
X173213714Y-68695047D01*
X172899428Y-67956952D02*
X172899428Y-68195047D01*
X173185142Y-68218857D01*
X173156571Y-68195047D01*
X173128000Y-68147428D01*
X173128000Y-68028380D01*
X173156571Y-67980761D01*
X173185142Y-67956952D01*
X173242285Y-67933142D01*
X173385142Y-67933142D01*
X173442285Y-67956952D01*
X173470857Y-67980761D01*
X173499428Y-68028380D01*
X173499428Y-68147428D01*
X173470857Y-68195047D01*
X173442285Y-68218857D01*
X170959428Y-68409333D02*
X170673714Y-68576000D01*
X170959428Y-68695047D02*
X170359428Y-68695047D01*
X170359428Y-68504571D01*
X170388000Y-68456952D01*
X170416571Y-68433142D01*
X170473714Y-68409333D01*
X170559428Y-68409333D01*
X170616571Y-68433142D01*
X170645142Y-68456952D01*
X170673714Y-68504571D01*
X170673714Y-68695047D01*
X170359428Y-67980761D02*
X170359428Y-68076000D01*
X170388000Y-68123619D01*
X170416571Y-68147428D01*
X170502285Y-68195047D01*
X170616571Y-68218857D01*
X170845142Y-68218857D01*
X170902285Y-68195047D01*
X170930857Y-68171238D01*
X170959428Y-68123619D01*
X170959428Y-68028380D01*
X170930857Y-67980761D01*
X170902285Y-67956952D01*
X170845142Y-67933142D01*
X170702285Y-67933142D01*
X170645142Y-67956952D01*
X170616571Y-67980761D01*
X170588000Y-68028380D01*
X170588000Y-68123619D01*
X170616571Y-68171238D01*
X170645142Y-68195047D01*
X170702285Y-68218857D01*
X168419428Y-68409333D02*
X168133714Y-68576000D01*
X168419428Y-68695047D02*
X167819428Y-68695047D01*
X167819428Y-68504571D01*
X167848000Y-68456952D01*
X167876571Y-68433142D01*
X167933714Y-68409333D01*
X168019428Y-68409333D01*
X168076571Y-68433142D01*
X168105142Y-68456952D01*
X168133714Y-68504571D01*
X168133714Y-68695047D01*
X167819428Y-68242666D02*
X167819428Y-67909333D01*
X168419428Y-68123619D01*
X165879428Y-68409333D02*
X165593714Y-68576000D01*
X165879428Y-68695047D02*
X165279428Y-68695047D01*
X165279428Y-68504571D01*
X165308000Y-68456952D01*
X165336571Y-68433142D01*
X165393714Y-68409333D01*
X165479428Y-68409333D01*
X165536571Y-68433142D01*
X165565142Y-68456952D01*
X165593714Y-68504571D01*
X165593714Y-68695047D01*
X165536571Y-68123619D02*
X165508000Y-68171238D01*
X165479428Y-68195047D01*
X165422285Y-68218857D01*
X165393714Y-68218857D01*
X165336571Y-68195047D01*
X165308000Y-68171238D01*
X165279428Y-68123619D01*
X165279428Y-68028380D01*
X165308000Y-67980761D01*
X165336571Y-67956952D01*
X165393714Y-67933142D01*
X165422285Y-67933142D01*
X165479428Y-67956952D01*
X165508000Y-67980761D01*
X165536571Y-68028380D01*
X165536571Y-68123619D01*
X165565142Y-68171238D01*
X165593714Y-68195047D01*
X165650857Y-68218857D01*
X165765142Y-68218857D01*
X165822285Y-68195047D01*
X165850857Y-68171238D01*
X165879428Y-68123619D01*
X165879428Y-68028380D01*
X165850857Y-67980761D01*
X165822285Y-67956952D01*
X165765142Y-67933142D01*
X165650857Y-67933142D01*
X165593714Y-67956952D01*
X165565142Y-67980761D01*
X165536571Y-68028380D01*
D11*
X150836333Y-82367380D02*
X150503000Y-81891190D01*
X150264904Y-82367380D02*
X150264904Y-81367380D01*
X150645857Y-81367380D01*
X150741095Y-81415000D01*
X150788714Y-81462619D01*
X150836333Y-81557857D01*
X150836333Y-81700714D01*
X150788714Y-81795952D01*
X150741095Y-81843571D01*
X150645857Y-81891190D01*
X150264904Y-81891190D01*
X151312523Y-82367380D02*
X151503000Y-82367380D01*
X151598238Y-82319761D01*
X151645857Y-82272142D01*
X151741095Y-82129285D01*
X151788714Y-81938809D01*
X151788714Y-81557857D01*
X151741095Y-81462619D01*
X151693476Y-81415000D01*
X151598238Y-81367380D01*
X151407761Y-81367380D01*
X151312523Y-81415000D01*
X151264904Y-81462619D01*
X151217285Y-81557857D01*
X151217285Y-81795952D01*
X151264904Y-81891190D01*
X151312523Y-81938809D01*
X151407761Y-81986428D01*
X151598238Y-81986428D01*
X151693476Y-81938809D01*
X151741095Y-81891190D01*
X151788714Y-81795952D01*
X172966142Y-80081380D02*
X172632809Y-79605190D01*
X172394714Y-80081380D02*
X172394714Y-79081380D01*
X172775666Y-79081380D01*
X172870904Y-79129000D01*
X172918523Y-79176619D01*
X172966142Y-79271857D01*
X172966142Y-79414714D01*
X172918523Y-79509952D01*
X172870904Y-79557571D01*
X172775666Y-79605190D01*
X172394714Y-79605190D01*
X173918523Y-80081380D02*
X173347095Y-80081380D01*
X173632809Y-80081380D02*
X173632809Y-79081380D01*
X173537571Y-79224238D01*
X173442333Y-79319476D01*
X173347095Y-79367095D01*
X174537571Y-79081380D02*
X174632809Y-79081380D01*
X174728047Y-79129000D01*
X174775666Y-79176619D01*
X174823285Y-79271857D01*
X174870904Y-79462333D01*
X174870904Y-79700428D01*
X174823285Y-79890904D01*
X174775666Y-79986142D01*
X174728047Y-80033761D01*
X174632809Y-80081380D01*
X174537571Y-80081380D01*
X174442333Y-80033761D01*
X174394714Y-79986142D01*
X174347095Y-79890904D01*
X174299476Y-79700428D01*
X174299476Y-79462333D01*
X174347095Y-79271857D01*
X174394714Y-79176619D01*
X174442333Y-79129000D01*
X174537571Y-79081380D01*
D20*
X186876571Y-105046428D02*
X186709904Y-104760714D01*
X186590857Y-105046428D02*
X186590857Y-104446428D01*
X186781333Y-104446428D01*
X186828952Y-104475000D01*
X186852761Y-104503571D01*
X186876571Y-104560714D01*
X186876571Y-104646428D01*
X186852761Y-104703571D01*
X186828952Y-104732142D01*
X186781333Y-104760714D01*
X186590857Y-104760714D01*
X187352761Y-105046428D02*
X187067047Y-105046428D01*
X187209904Y-105046428D02*
X187209904Y-104446428D01*
X187162285Y-104532142D01*
X187114666Y-104589285D01*
X187067047Y-104617857D01*
X187828952Y-105046428D02*
X187543238Y-105046428D01*
X187686095Y-105046428D02*
X187686095Y-104446428D01*
X187638476Y-104532142D01*
X187590857Y-104589285D01*
X187543238Y-104617857D01*
X186876571Y-102506428D02*
X186709904Y-102220714D01*
X186590857Y-102506428D02*
X186590857Y-101906428D01*
X186781333Y-101906428D01*
X186828952Y-101935000D01*
X186852761Y-101963571D01*
X186876571Y-102020714D01*
X186876571Y-102106428D01*
X186852761Y-102163571D01*
X186828952Y-102192142D01*
X186781333Y-102220714D01*
X186590857Y-102220714D01*
X187352761Y-102506428D02*
X187067047Y-102506428D01*
X187209904Y-102506428D02*
X187209904Y-101906428D01*
X187162285Y-101992142D01*
X187114666Y-102049285D01*
X187067047Y-102077857D01*
X187543238Y-101963571D02*
X187567047Y-101935000D01*
X187614666Y-101906428D01*
X187733714Y-101906428D01*
X187781333Y-101935000D01*
X187805142Y-101963571D01*
X187828952Y-102020714D01*
X187828952Y-102077857D01*
X187805142Y-102163571D01*
X187519428Y-102506428D01*
X187828952Y-102506428D01*
X186876571Y-99966428D02*
X186709904Y-99680714D01*
X186590857Y-99966428D02*
X186590857Y-99366428D01*
X186781333Y-99366428D01*
X186828952Y-99395000D01*
X186852761Y-99423571D01*
X186876571Y-99480714D01*
X186876571Y-99566428D01*
X186852761Y-99623571D01*
X186828952Y-99652142D01*
X186781333Y-99680714D01*
X186590857Y-99680714D01*
X187352761Y-99966428D02*
X187067047Y-99966428D01*
X187209904Y-99966428D02*
X187209904Y-99366428D01*
X187162285Y-99452142D01*
X187114666Y-99509285D01*
X187067047Y-99537857D01*
X187519428Y-99366428D02*
X187828952Y-99366428D01*
X187662285Y-99595000D01*
X187733714Y-99595000D01*
X187781333Y-99623571D01*
X187805142Y-99652142D01*
X187828952Y-99709285D01*
X187828952Y-99852142D01*
X187805142Y-99909285D01*
X187781333Y-99937857D01*
X187733714Y-99966428D01*
X187590857Y-99966428D01*
X187543238Y-99937857D01*
X187519428Y-99909285D01*
X186876571Y-97426428D02*
X186709904Y-97140714D01*
X186590857Y-97426428D02*
X186590857Y-96826428D01*
X186781333Y-96826428D01*
X186828952Y-96855000D01*
X186852761Y-96883571D01*
X186876571Y-96940714D01*
X186876571Y-97026428D01*
X186852761Y-97083571D01*
X186828952Y-97112142D01*
X186781333Y-97140714D01*
X186590857Y-97140714D01*
X187352761Y-97426428D02*
X187067047Y-97426428D01*
X187209904Y-97426428D02*
X187209904Y-96826428D01*
X187162285Y-96912142D01*
X187114666Y-96969285D01*
X187067047Y-96997857D01*
X187781333Y-97026428D02*
X187781333Y-97426428D01*
X187662285Y-96797857D02*
X187543238Y-97226428D01*
X187852761Y-97226428D01*
X186876571Y-94251428D02*
X186709904Y-93965714D01*
X186590857Y-94251428D02*
X186590857Y-93651428D01*
X186781333Y-93651428D01*
X186828952Y-93680000D01*
X186852761Y-93708571D01*
X186876571Y-93765714D01*
X186876571Y-93851428D01*
X186852761Y-93908571D01*
X186828952Y-93937142D01*
X186781333Y-93965714D01*
X186590857Y-93965714D01*
X187352761Y-94251428D02*
X187067047Y-94251428D01*
X187209904Y-94251428D02*
X187209904Y-93651428D01*
X187162285Y-93737142D01*
X187114666Y-93794285D01*
X187067047Y-93822857D01*
X187805142Y-93651428D02*
X187567047Y-93651428D01*
X187543238Y-93937142D01*
X187567047Y-93908571D01*
X187614666Y-93880000D01*
X187733714Y-93880000D01*
X187781333Y-93908571D01*
X187805142Y-93937142D01*
X187828952Y-93994285D01*
X187828952Y-94137142D01*
X187805142Y-94194285D01*
X187781333Y-94222857D01*
X187733714Y-94251428D01*
X187614666Y-94251428D01*
X187567047Y-94222857D01*
X187543238Y-94194285D01*
X186876571Y-91711428D02*
X186709904Y-91425714D01*
X186590857Y-91711428D02*
X186590857Y-91111428D01*
X186781333Y-91111428D01*
X186828952Y-91140000D01*
X186852761Y-91168571D01*
X186876571Y-91225714D01*
X186876571Y-91311428D01*
X186852761Y-91368571D01*
X186828952Y-91397142D01*
X186781333Y-91425714D01*
X186590857Y-91425714D01*
X187352761Y-91711428D02*
X187067047Y-91711428D01*
X187209904Y-91711428D02*
X187209904Y-91111428D01*
X187162285Y-91197142D01*
X187114666Y-91254285D01*
X187067047Y-91282857D01*
X187781333Y-91111428D02*
X187686095Y-91111428D01*
X187638476Y-91140000D01*
X187614666Y-91168571D01*
X187567047Y-91254285D01*
X187543238Y-91368571D01*
X187543238Y-91597142D01*
X187567047Y-91654285D01*
X187590857Y-91682857D01*
X187638476Y-91711428D01*
X187733714Y-91711428D01*
X187781333Y-91682857D01*
X187805142Y-91654285D01*
X187828952Y-91597142D01*
X187828952Y-91454285D01*
X187805142Y-91397142D01*
X187781333Y-91368571D01*
X187733714Y-91340000D01*
X187638476Y-91340000D01*
X187590857Y-91368571D01*
X187567047Y-91397142D01*
X187543238Y-91454285D01*
X186876571Y-89171428D02*
X186709904Y-88885714D01*
X186590857Y-89171428D02*
X186590857Y-88571428D01*
X186781333Y-88571428D01*
X186828952Y-88600000D01*
X186852761Y-88628571D01*
X186876571Y-88685714D01*
X186876571Y-88771428D01*
X186852761Y-88828571D01*
X186828952Y-88857142D01*
X186781333Y-88885714D01*
X186590857Y-88885714D01*
X187352761Y-89171428D02*
X187067047Y-89171428D01*
X187209904Y-89171428D02*
X187209904Y-88571428D01*
X187162285Y-88657142D01*
X187114666Y-88714285D01*
X187067047Y-88742857D01*
X187519428Y-88571428D02*
X187852761Y-88571428D01*
X187638476Y-89171428D01*
X186876571Y-86631428D02*
X186709904Y-86345714D01*
X186590857Y-86631428D02*
X186590857Y-86031428D01*
X186781333Y-86031428D01*
X186828952Y-86060000D01*
X186852761Y-86088571D01*
X186876571Y-86145714D01*
X186876571Y-86231428D01*
X186852761Y-86288571D01*
X186828952Y-86317142D01*
X186781333Y-86345714D01*
X186590857Y-86345714D01*
X187352761Y-86631428D02*
X187067047Y-86631428D01*
X187209904Y-86631428D02*
X187209904Y-86031428D01*
X187162285Y-86117142D01*
X187114666Y-86174285D01*
X187067047Y-86202857D01*
X187638476Y-86288571D02*
X187590857Y-86260000D01*
X187567047Y-86231428D01*
X187543238Y-86174285D01*
X187543238Y-86145714D01*
X187567047Y-86088571D01*
X187590857Y-86060000D01*
X187638476Y-86031428D01*
X187733714Y-86031428D01*
X187781333Y-86060000D01*
X187805142Y-86088571D01*
X187828952Y-86145714D01*
X187828952Y-86174285D01*
X187805142Y-86231428D01*
X187781333Y-86260000D01*
X187733714Y-86288571D01*
X187638476Y-86288571D01*
X187590857Y-86317142D01*
X187567047Y-86345714D01*
X187543238Y-86402857D01*
X187543238Y-86517142D01*
X187567047Y-86574285D01*
X187590857Y-86602857D01*
X187638476Y-86631428D01*
X187733714Y-86631428D01*
X187781333Y-86602857D01*
X187805142Y-86574285D01*
X187828952Y-86517142D01*
X187828952Y-86402857D01*
X187805142Y-86345714D01*
X187781333Y-86317142D01*
X187733714Y-86288571D01*
X171382571Y-104411428D02*
X171215904Y-104125714D01*
X171096857Y-104411428D02*
X171096857Y-103811428D01*
X171287333Y-103811428D01*
X171334952Y-103840000D01*
X171358761Y-103868571D01*
X171382571Y-103925714D01*
X171382571Y-104011428D01*
X171358761Y-104068571D01*
X171334952Y-104097142D01*
X171287333Y-104125714D01*
X171096857Y-104125714D01*
X171858761Y-104411428D02*
X171573047Y-104411428D01*
X171715904Y-104411428D02*
X171715904Y-103811428D01*
X171668285Y-103897142D01*
X171620666Y-103954285D01*
X171573047Y-103982857D01*
X172096857Y-104411428D02*
X172192095Y-104411428D01*
X172239714Y-104382857D01*
X172263523Y-104354285D01*
X172311142Y-104268571D01*
X172334952Y-104154285D01*
X172334952Y-103925714D01*
X172311142Y-103868571D01*
X172287333Y-103840000D01*
X172239714Y-103811428D01*
X172144476Y-103811428D01*
X172096857Y-103840000D01*
X172073047Y-103868571D01*
X172049238Y-103925714D01*
X172049238Y-104068571D01*
X172073047Y-104125714D01*
X172096857Y-104154285D01*
X172144476Y-104182857D01*
X172239714Y-104182857D01*
X172287333Y-104154285D01*
X172311142Y-104125714D01*
X172334952Y-104068571D01*
X171382571Y-101871428D02*
X171215904Y-101585714D01*
X171096857Y-101871428D02*
X171096857Y-101271428D01*
X171287333Y-101271428D01*
X171334952Y-101300000D01*
X171358761Y-101328571D01*
X171382571Y-101385714D01*
X171382571Y-101471428D01*
X171358761Y-101528571D01*
X171334952Y-101557142D01*
X171287333Y-101585714D01*
X171096857Y-101585714D01*
X171573047Y-101328571D02*
X171596857Y-101300000D01*
X171644476Y-101271428D01*
X171763523Y-101271428D01*
X171811142Y-101300000D01*
X171834952Y-101328571D01*
X171858761Y-101385714D01*
X171858761Y-101442857D01*
X171834952Y-101528571D01*
X171549238Y-101871428D01*
X171858761Y-101871428D01*
X172168285Y-101271428D02*
X172215904Y-101271428D01*
X172263523Y-101300000D01*
X172287333Y-101328571D01*
X172311142Y-101385714D01*
X172334952Y-101500000D01*
X172334952Y-101642857D01*
X172311142Y-101757142D01*
X172287333Y-101814285D01*
X172263523Y-101842857D01*
X172215904Y-101871428D01*
X172168285Y-101871428D01*
X172120666Y-101842857D01*
X172096857Y-101814285D01*
X172073047Y-101757142D01*
X172049238Y-101642857D01*
X172049238Y-101500000D01*
X172073047Y-101385714D01*
X172096857Y-101328571D01*
X172120666Y-101300000D01*
X172168285Y-101271428D01*
X171509571Y-99331428D02*
X171342904Y-99045714D01*
X171223857Y-99331428D02*
X171223857Y-98731428D01*
X171414333Y-98731428D01*
X171461952Y-98760000D01*
X171485761Y-98788571D01*
X171509571Y-98845714D01*
X171509571Y-98931428D01*
X171485761Y-98988571D01*
X171461952Y-99017142D01*
X171414333Y-99045714D01*
X171223857Y-99045714D01*
X171700047Y-98788571D02*
X171723857Y-98760000D01*
X171771476Y-98731428D01*
X171890523Y-98731428D01*
X171938142Y-98760000D01*
X171961952Y-98788571D01*
X171985761Y-98845714D01*
X171985761Y-98902857D01*
X171961952Y-98988571D01*
X171676238Y-99331428D01*
X171985761Y-99331428D01*
X172461952Y-99331428D02*
X172176238Y-99331428D01*
X172319095Y-99331428D02*
X172319095Y-98731428D01*
X172271476Y-98817142D01*
X172223857Y-98874285D01*
X172176238Y-98902857D01*
X171382571Y-96791428D02*
X171215904Y-96505714D01*
X171096857Y-96791428D02*
X171096857Y-96191428D01*
X171287333Y-96191428D01*
X171334952Y-96220000D01*
X171358761Y-96248571D01*
X171382571Y-96305714D01*
X171382571Y-96391428D01*
X171358761Y-96448571D01*
X171334952Y-96477142D01*
X171287333Y-96505714D01*
X171096857Y-96505714D01*
X171573047Y-96248571D02*
X171596857Y-96220000D01*
X171644476Y-96191428D01*
X171763523Y-96191428D01*
X171811142Y-96220000D01*
X171834952Y-96248571D01*
X171858761Y-96305714D01*
X171858761Y-96362857D01*
X171834952Y-96448571D01*
X171549238Y-96791428D01*
X171858761Y-96791428D01*
X172049238Y-96248571D02*
X172073047Y-96220000D01*
X172120666Y-96191428D01*
X172239714Y-96191428D01*
X172287333Y-96220000D01*
X172311142Y-96248571D01*
X172334952Y-96305714D01*
X172334952Y-96362857D01*
X172311142Y-96448571D01*
X172025428Y-96791428D01*
X172334952Y-96791428D01*
X171382571Y-93616428D02*
X171215904Y-93330714D01*
X171096857Y-93616428D02*
X171096857Y-93016428D01*
X171287333Y-93016428D01*
X171334952Y-93045000D01*
X171358761Y-93073571D01*
X171382571Y-93130714D01*
X171382571Y-93216428D01*
X171358761Y-93273571D01*
X171334952Y-93302142D01*
X171287333Y-93330714D01*
X171096857Y-93330714D01*
X171573047Y-93073571D02*
X171596857Y-93045000D01*
X171644476Y-93016428D01*
X171763523Y-93016428D01*
X171811142Y-93045000D01*
X171834952Y-93073571D01*
X171858761Y-93130714D01*
X171858761Y-93187857D01*
X171834952Y-93273571D01*
X171549238Y-93616428D01*
X171858761Y-93616428D01*
X172025428Y-93016428D02*
X172334952Y-93016428D01*
X172168285Y-93245000D01*
X172239714Y-93245000D01*
X172287333Y-93273571D01*
X172311142Y-93302142D01*
X172334952Y-93359285D01*
X172334952Y-93502142D01*
X172311142Y-93559285D01*
X172287333Y-93587857D01*
X172239714Y-93616428D01*
X172096857Y-93616428D01*
X172049238Y-93587857D01*
X172025428Y-93559285D01*
X171382571Y-91076428D02*
X171215904Y-90790714D01*
X171096857Y-91076428D02*
X171096857Y-90476428D01*
X171287333Y-90476428D01*
X171334952Y-90505000D01*
X171358761Y-90533571D01*
X171382571Y-90590714D01*
X171382571Y-90676428D01*
X171358761Y-90733571D01*
X171334952Y-90762142D01*
X171287333Y-90790714D01*
X171096857Y-90790714D01*
X171573047Y-90533571D02*
X171596857Y-90505000D01*
X171644476Y-90476428D01*
X171763523Y-90476428D01*
X171811142Y-90505000D01*
X171834952Y-90533571D01*
X171858761Y-90590714D01*
X171858761Y-90647857D01*
X171834952Y-90733571D01*
X171549238Y-91076428D01*
X171858761Y-91076428D01*
X172287333Y-90676428D02*
X172287333Y-91076428D01*
X172168285Y-90447857D02*
X172049238Y-90876428D01*
X172358761Y-90876428D01*
X171382571Y-88663428D02*
X171215904Y-88377714D01*
X171096857Y-88663428D02*
X171096857Y-88063428D01*
X171287333Y-88063428D01*
X171334952Y-88092000D01*
X171358761Y-88120571D01*
X171382571Y-88177714D01*
X171382571Y-88263428D01*
X171358761Y-88320571D01*
X171334952Y-88349142D01*
X171287333Y-88377714D01*
X171096857Y-88377714D01*
X171573047Y-88120571D02*
X171596857Y-88092000D01*
X171644476Y-88063428D01*
X171763523Y-88063428D01*
X171811142Y-88092000D01*
X171834952Y-88120571D01*
X171858761Y-88177714D01*
X171858761Y-88234857D01*
X171834952Y-88320571D01*
X171549238Y-88663428D01*
X171858761Y-88663428D01*
X172311142Y-88063428D02*
X172073047Y-88063428D01*
X172049238Y-88349142D01*
X172073047Y-88320571D01*
X172120666Y-88292000D01*
X172239714Y-88292000D01*
X172287333Y-88320571D01*
X172311142Y-88349142D01*
X172334952Y-88406285D01*
X172334952Y-88549142D01*
X172311142Y-88606285D01*
X172287333Y-88634857D01*
X172239714Y-88663428D01*
X172120666Y-88663428D01*
X172073047Y-88634857D01*
X172049238Y-88606285D01*
X171382571Y-86123428D02*
X171215904Y-85837714D01*
X171096857Y-86123428D02*
X171096857Y-85523428D01*
X171287333Y-85523428D01*
X171334952Y-85552000D01*
X171358761Y-85580571D01*
X171382571Y-85637714D01*
X171382571Y-85723428D01*
X171358761Y-85780571D01*
X171334952Y-85809142D01*
X171287333Y-85837714D01*
X171096857Y-85837714D01*
X171573047Y-85580571D02*
X171596857Y-85552000D01*
X171644476Y-85523428D01*
X171763523Y-85523428D01*
X171811142Y-85552000D01*
X171834952Y-85580571D01*
X171858761Y-85637714D01*
X171858761Y-85694857D01*
X171834952Y-85780571D01*
X171549238Y-86123428D01*
X171858761Y-86123428D01*
X172287333Y-85523428D02*
X172192095Y-85523428D01*
X172144476Y-85552000D01*
X172120666Y-85580571D01*
X172073047Y-85666285D01*
X172049238Y-85780571D01*
X172049238Y-86009142D01*
X172073047Y-86066285D01*
X172096857Y-86094857D01*
X172144476Y-86123428D01*
X172239714Y-86123428D01*
X172287333Y-86094857D01*
X172311142Y-86066285D01*
X172334952Y-86009142D01*
X172334952Y-85866285D01*
X172311142Y-85809142D01*
X172287333Y-85780571D01*
X172239714Y-85752000D01*
X172144476Y-85752000D01*
X172096857Y-85780571D01*
X172073047Y-85809142D01*
X172049238Y-85866285D01*
D11*
X183896095Y-120356380D02*
X183896095Y-121165904D01*
X183943714Y-121261142D01*
X183991333Y-121308761D01*
X184086571Y-121356380D01*
X184277047Y-121356380D01*
X184372285Y-121308761D01*
X184419904Y-121261142D01*
X184467523Y-121165904D01*
X184467523Y-120356380D01*
X185467523Y-121356380D02*
X184896095Y-121356380D01*
X185181809Y-121356380D02*
X185181809Y-120356380D01*
X185086571Y-120499238D01*
X184991333Y-120594476D01*
X184896095Y-120642095D01*
X152019095Y-72477380D02*
X152019095Y-73286904D01*
X152066714Y-73382142D01*
X152114333Y-73429761D01*
X152209571Y-73477380D01*
X152400047Y-73477380D01*
X152495285Y-73429761D01*
X152542904Y-73382142D01*
X152590523Y-73286904D01*
X152590523Y-72477380D01*
X153019095Y-72572619D02*
X153066714Y-72525000D01*
X153161952Y-72477380D01*
X153400047Y-72477380D01*
X153495285Y-72525000D01*
X153542904Y-72572619D01*
X153590523Y-72667857D01*
X153590523Y-72763095D01*
X153542904Y-72905952D01*
X152971476Y-73477380D01*
X153590523Y-73477380D01*
X175006095Y-70572380D02*
X175006095Y-71381904D01*
X175053714Y-71477142D01*
X175101333Y-71524761D01*
X175196571Y-71572380D01*
X175387047Y-71572380D01*
X175482285Y-71524761D01*
X175529904Y-71477142D01*
X175577523Y-71381904D01*
X175577523Y-70572380D01*
X175958476Y-70572380D02*
X176577523Y-70572380D01*
X176244190Y-70953333D01*
X176387047Y-70953333D01*
X176482285Y-71000952D01*
X176529904Y-71048571D01*
X176577523Y-71143809D01*
X176577523Y-71381904D01*
X176529904Y-71477142D01*
X176482285Y-71524761D01*
X176387047Y-71572380D01*
X176101333Y-71572380D01*
X176006095Y-71524761D01*
X175958476Y-71477142D01*
X125730095Y-65111380D02*
X125730095Y-65920904D01*
X125777714Y-66016142D01*
X125825333Y-66063761D01*
X125920571Y-66111380D01*
X126111047Y-66111380D01*
X126206285Y-66063761D01*
X126253904Y-66016142D01*
X126301523Y-65920904D01*
X126301523Y-65111380D01*
X127206285Y-65444714D02*
X127206285Y-66111380D01*
X126968190Y-65063761D02*
X126730095Y-65778047D01*
X127349142Y-65778047D01*
X115824095Y-65111380D02*
X115824095Y-65920904D01*
X115871714Y-66016142D01*
X115919333Y-66063761D01*
X116014571Y-66111380D01*
X116205047Y-66111380D01*
X116300285Y-66063761D01*
X116347904Y-66016142D01*
X116395523Y-65920904D01*
X116395523Y-65111380D01*
X117347904Y-65111380D02*
X116871714Y-65111380D01*
X116824095Y-65587571D01*
X116871714Y-65539952D01*
X116966952Y-65492333D01*
X117205047Y-65492333D01*
X117300285Y-65539952D01*
X117347904Y-65587571D01*
X117395523Y-65682809D01*
X117395523Y-65920904D01*
X117347904Y-66016142D01*
X117300285Y-66063761D01*
X117205047Y-66111380D01*
X116966952Y-66111380D01*
X116871714Y-66063761D01*
X116824095Y-66016142D01*
X104140095Y-64984380D02*
X104140095Y-65793904D01*
X104187714Y-65889142D01*
X104235333Y-65936761D01*
X104330571Y-65984380D01*
X104521047Y-65984380D01*
X104616285Y-65936761D01*
X104663904Y-65889142D01*
X104711523Y-65793904D01*
X104711523Y-64984380D01*
X105616285Y-64984380D02*
X105425809Y-64984380D01*
X105330571Y-65032000D01*
X105282952Y-65079619D01*
X105187714Y-65222476D01*
X105140095Y-65412952D01*
X105140095Y-65793904D01*
X105187714Y-65889142D01*
X105235333Y-65936761D01*
X105330571Y-65984380D01*
X105521047Y-65984380D01*
X105616285Y-65936761D01*
X105663904Y-65889142D01*
X105711523Y-65793904D01*
X105711523Y-65555809D01*
X105663904Y-65460571D01*
X105616285Y-65412952D01*
X105521047Y-65365333D01*
X105330571Y-65365333D01*
X105235333Y-65412952D01*
X105187714Y-65460571D01*
X105140095Y-65555809D01*
X96901095Y-64603380D02*
X96901095Y-65412904D01*
X96948714Y-65508142D01*
X96996333Y-65555761D01*
X97091571Y-65603380D01*
X97282047Y-65603380D01*
X97377285Y-65555761D01*
X97424904Y-65508142D01*
X97472523Y-65412904D01*
X97472523Y-64603380D01*
X97853476Y-64603380D02*
X98520142Y-64603380D01*
X98091571Y-65603380D01*
X126873095Y-76160380D02*
X126873095Y-76969904D01*
X126920714Y-77065142D01*
X126968333Y-77112761D01*
X127063571Y-77160380D01*
X127254047Y-77160380D01*
X127349285Y-77112761D01*
X127396904Y-77065142D01*
X127444523Y-76969904D01*
X127444523Y-76160380D01*
X128063571Y-76588952D02*
X127968333Y-76541333D01*
X127920714Y-76493714D01*
X127873095Y-76398476D01*
X127873095Y-76350857D01*
X127920714Y-76255619D01*
X127968333Y-76208000D01*
X128063571Y-76160380D01*
X128254047Y-76160380D01*
X128349285Y-76208000D01*
X128396904Y-76255619D01*
X128444523Y-76350857D01*
X128444523Y-76398476D01*
X128396904Y-76493714D01*
X128349285Y-76541333D01*
X128254047Y-76588952D01*
X128063571Y-76588952D01*
X127968333Y-76636571D01*
X127920714Y-76684190D01*
X127873095Y-76779428D01*
X127873095Y-76969904D01*
X127920714Y-77065142D01*
X127968333Y-77112761D01*
X128063571Y-77160380D01*
X128254047Y-77160380D01*
X128349285Y-77112761D01*
X128396904Y-77065142D01*
X128444523Y-76969904D01*
X128444523Y-76779428D01*
X128396904Y-76684190D01*
X128349285Y-76636571D01*
X128254047Y-76588952D01*
X114681095Y-76033380D02*
X114681095Y-76842904D01*
X114728714Y-76938142D01*
X114776333Y-76985761D01*
X114871571Y-77033380D01*
X115062047Y-77033380D01*
X115157285Y-76985761D01*
X115204904Y-76938142D01*
X115252523Y-76842904D01*
X115252523Y-76033380D01*
X115776333Y-77033380D02*
X115966809Y-77033380D01*
X116062047Y-76985761D01*
X116109666Y-76938142D01*
X116204904Y-76795285D01*
X116252523Y-76604809D01*
X116252523Y-76223857D01*
X116204904Y-76128619D01*
X116157285Y-76081000D01*
X116062047Y-76033380D01*
X115871571Y-76033380D01*
X115776333Y-76081000D01*
X115728714Y-76128619D01*
X115681095Y-76223857D01*
X115681095Y-76461952D01*
X115728714Y-76557190D01*
X115776333Y-76604809D01*
X115871571Y-76652428D01*
X116062047Y-76652428D01*
X116157285Y-76604809D01*
X116204904Y-76557190D01*
X116252523Y-76461952D01*
X102139904Y-75906380D02*
X102139904Y-76715904D01*
X102187523Y-76811142D01*
X102235142Y-76858761D01*
X102330380Y-76906380D01*
X102520857Y-76906380D01*
X102616095Y-76858761D01*
X102663714Y-76811142D01*
X102711333Y-76715904D01*
X102711333Y-75906380D01*
X103711333Y-76906380D02*
X103139904Y-76906380D01*
X103425619Y-76906380D02*
X103425619Y-75906380D01*
X103330380Y-76049238D01*
X103235142Y-76144476D01*
X103139904Y-76192095D01*
X104330380Y-75906380D02*
X104425619Y-75906380D01*
X104520857Y-75954000D01*
X104568476Y-76001619D01*
X104616095Y-76096857D01*
X104663714Y-76287333D01*
X104663714Y-76525428D01*
X104616095Y-76715904D01*
X104568476Y-76811142D01*
X104520857Y-76858761D01*
X104425619Y-76906380D01*
X104330380Y-76906380D01*
X104235142Y-76858761D01*
X104187523Y-76811142D01*
X104139904Y-76715904D01*
X104092285Y-76525428D01*
X104092285Y-76287333D01*
X104139904Y-76096857D01*
X104187523Y-76001619D01*
X104235142Y-75954000D01*
X104330380Y-75906380D01*
X89947904Y-75779380D02*
X89947904Y-76588904D01*
X89995523Y-76684142D01*
X90043142Y-76731761D01*
X90138380Y-76779380D01*
X90328857Y-76779380D01*
X90424095Y-76731761D01*
X90471714Y-76684142D01*
X90519333Y-76588904D01*
X90519333Y-75779380D01*
X91519333Y-76779380D02*
X90947904Y-76779380D01*
X91233619Y-76779380D02*
X91233619Y-75779380D01*
X91138380Y-75922238D01*
X91043142Y-76017476D01*
X90947904Y-76065095D01*
X92471714Y-76779380D02*
X91900285Y-76779380D01*
X92186000Y-76779380D02*
X92186000Y-75779380D01*
X92090761Y-75922238D01*
X91995523Y-76017476D01*
X91900285Y-76065095D01*
X153320904Y-86574380D02*
X153320904Y-87383904D01*
X153368523Y-87479142D01*
X153416142Y-87526761D01*
X153511380Y-87574380D01*
X153701857Y-87574380D01*
X153797095Y-87526761D01*
X153844714Y-87479142D01*
X153892333Y-87383904D01*
X153892333Y-86574380D01*
X154892333Y-87574380D02*
X154320904Y-87574380D01*
X154606619Y-87574380D02*
X154606619Y-86574380D01*
X154511380Y-86717238D01*
X154416142Y-86812476D01*
X154320904Y-86860095D01*
X155225666Y-86574380D02*
X155844714Y-86574380D01*
X155511380Y-86955333D01*
X155654238Y-86955333D01*
X155749476Y-87002952D01*
X155797095Y-87050571D01*
X155844714Y-87145809D01*
X155844714Y-87383904D01*
X155797095Y-87479142D01*
X155749476Y-87526761D01*
X155654238Y-87574380D01*
X155368523Y-87574380D01*
X155273285Y-87526761D01*
X155225666Y-87479142D01*
X147732904Y-86574380D02*
X147732904Y-87383904D01*
X147780523Y-87479142D01*
X147828142Y-87526761D01*
X147923380Y-87574380D01*
X148113857Y-87574380D01*
X148209095Y-87526761D01*
X148256714Y-87479142D01*
X148304333Y-87383904D01*
X148304333Y-86574380D01*
X149304333Y-87574380D02*
X148732904Y-87574380D01*
X149018619Y-87574380D02*
X149018619Y-86574380D01*
X148923380Y-86717238D01*
X148828142Y-86812476D01*
X148732904Y-86860095D01*
X150161476Y-86907714D02*
X150161476Y-87574380D01*
X149923380Y-86526761D02*
X149685285Y-87241047D01*
X150304333Y-87241047D01*
X142271904Y-86701380D02*
X142271904Y-87510904D01*
X142319523Y-87606142D01*
X142367142Y-87653761D01*
X142462380Y-87701380D01*
X142652857Y-87701380D01*
X142748095Y-87653761D01*
X142795714Y-87606142D01*
X142843333Y-87510904D01*
X142843333Y-86701380D01*
X143843333Y-87701380D02*
X143271904Y-87701380D01*
X143557619Y-87701380D02*
X143557619Y-86701380D01*
X143462380Y-86844238D01*
X143367142Y-86939476D01*
X143271904Y-86987095D01*
X144748095Y-86701380D02*
X144271904Y-86701380D01*
X144224285Y-87177571D01*
X144271904Y-87129952D01*
X144367142Y-87082333D01*
X144605238Y-87082333D01*
X144700476Y-87129952D01*
X144748095Y-87177571D01*
X144795714Y-87272809D01*
X144795714Y-87510904D01*
X144748095Y-87606142D01*
X144700476Y-87653761D01*
X144605238Y-87701380D01*
X144367142Y-87701380D01*
X144271904Y-87653761D01*
X144224285Y-87606142D01*
X187245666Y-130770380D02*
X187245666Y-131484666D01*
X187198047Y-131627523D01*
X187102809Y-131722761D01*
X186959952Y-131770380D01*
X186864714Y-131770380D01*
X188245666Y-131770380D02*
X187674238Y-131770380D01*
X187959952Y-131770380D02*
X187959952Y-130770380D01*
X187864714Y-130913238D01*
X187769476Y-131008476D01*
X187674238Y-131056095D01*
X137715666Y-62952380D02*
X137715666Y-63666666D01*
X137668047Y-63809523D01*
X137572809Y-63904761D01*
X137429952Y-63952380D01*
X137334714Y-63952380D01*
X138144238Y-63047619D02*
X138191857Y-63000000D01*
X138287095Y-62952380D01*
X138525190Y-62952380D01*
X138620428Y-63000000D01*
X138668047Y-63047619D01*
X138715666Y-63142857D01*
X138715666Y-63238095D01*
X138668047Y-63380952D01*
X138096619Y-63952380D01*
X138715666Y-63952380D01*
X104314666Y-60920380D02*
X104314666Y-61634666D01*
X104267047Y-61777523D01*
X104171809Y-61872761D01*
X104028952Y-61920380D01*
X103933714Y-61920380D01*
X104695619Y-60920380D02*
X105314666Y-60920380D01*
X104981333Y-61301333D01*
X105124190Y-61301333D01*
X105219428Y-61348952D01*
X105267047Y-61396571D01*
X105314666Y-61491809D01*
X105314666Y-61729904D01*
X105267047Y-61825142D01*
X105219428Y-61872761D01*
X105124190Y-61920380D01*
X104838476Y-61920380D01*
X104743238Y-61872761D01*
X104695619Y-61825142D01*
X189531666Y-61301380D02*
X189531666Y-62015666D01*
X189484047Y-62158523D01*
X189388809Y-62253761D01*
X189245952Y-62301380D01*
X189150714Y-62301380D01*
X190436428Y-61634714D02*
X190436428Y-62301380D01*
X190198333Y-61253761D02*
X189960238Y-61968047D01*
X190579285Y-61968047D01*
X78946476Y-70667571D02*
X78613142Y-70667571D01*
X78613142Y-71191380D02*
X78613142Y-70191380D01*
X79089333Y-70191380D01*
X79994095Y-71191380D02*
X79422666Y-71191380D01*
X79708380Y-71191380D02*
X79708380Y-70191380D01*
X79613142Y-70334238D01*
X79517904Y-70429476D01*
X79422666Y-70477095D01*
X80946476Y-71191380D02*
X80375047Y-71191380D01*
X80660761Y-71191380D02*
X80660761Y-70191380D01*
X80565523Y-70334238D01*
X80470285Y-70429476D01*
X80375047Y-70477095D01*
M02*
